<svg id="Layer_1" xmlns="http://www.w3.org/2000/svg" viewBox="0 0 691.3 428">
    <style>
        .st0{opacity:.5}.st1{fill:#342d71}.st2{fill:#3b3b75}.st3{fill:#0b0146}.st4{fill:#e9e8f0}.st5{fill:#94a7ca}.st6{fill:#eff0f4}.st7{fill:#ffc07f}.st8{fill:#c0c0d8}.st9{fill:#404060}.st10{fill:#d0d0dd}.st11{fill:#ff3e57}.st12{fill:#fff}.st13{fill:#e9e9ed}.st14{opacity:.1}.st15{fill:#4747a1}
    </style>
    <title>
        Artboard 1
    </title>
    <g class="st0">
        <path class="st1" d="M406.8 339.3c0 .9.7 1.7 1.7 1.7h211.3c.9 0 1.7-.7 1.7-1.7 0-2.9-2.3-5.2-5.2-5.2H412.1c-2.9-.1-5.3 2.3-5.3 5.2z"/>
    </g>
    <g class="st0">
        <path class="st1" d="M393 371.8c-193.9 23.8-223.5 26.5-362.4 16.5-12.1-.9-25.4-5.3-28.1-11.7-1.9-4.3 1.9-11.1 9-13.4s15.5-2.9 23.7-3.5c104.2-7.3 209.7-9.7 313.9-2.5 11.3.8 23 1.8 32.7 5s15.7-.2 14 5.8l-2.8 3.8"/>
    </g>
    <path class="st2" d="M312.1 279.4l-141.7 6.1 30.8 79.1 49.7.1 17-2.3z"/>
    <path class="st3" d="M232.3 303.1c-.8 0-1.6.1-2.3.2-4.3.1-11.2.2-13.9.2H215c-15.8.3-29.2 18.9-30 43.2-.8 24.4 10.8 43.5 26.6 44 0 0 16.9.5 20.9.6h1.6c15.8-.3 28.2-20.3 27.7-44.7-.5-24.3-13.7-43.8-29.5-43.5zm18.2 43.8c.3 14.8-7.2 26.9-16.8 27.1h-1c-9.2-.6-16.6-12.1-16.9-26.4-.2-11.8 4.5-21.9 11.2-25.6 1.3-.7 2.7-1.2 4.1-1.4.5-.1.9-.1 1.4-.1 9.7-.2 17.7 11.6 18 26.4z"/>
    <path class="st4" d="M232.6 320.5c-.5 0-1 .1-1.4.1-1.4.2-2.8.7-4.1 1.4-6.8 3.7-11.5 13.8-11.2 25.6.3 14.3 7.8 25.8 16.9 26.4h1c9.6-.2 17.1-12.3 16.8-27.1-.4-14.8-8.4-26.6-18-26.4z"/>
    <path class="st5" d="M46.1 296.2c.8 0 21.1-.9 21.1-.9l7.5 11.9-12.4 15.6-17.5-5.8 1.3-20.8z"/>
    <path class="st3" d="M39.9 334.1c2.2-24.3 16.7-42.8 32.4-41.4 2.9.3 5.6 1.2 8.1 2.6-11.5 5.5-20.2 21.7-20.9 41-.9 23.5 10.4 43.2 25.4 45-4-.3-20.9-1.8-20.9-1.8-15.8-1.3-26.3-21.1-24.1-45.4z"/>
    <path class="st3" d="M57.8 336.2c.7-19.4 9.4-35.5 20.9-41 2.9-1.4 6.1-2.1 9.3-2 15.8.6 27.8 20.8 26.9 45.2-.9 24.4-14.4 43.6-30.2 43.1-.5 0-1.1-.1-1.6-.1-14.9-2-26.1-21.7-25.3-45.2z"/>
    <path class="st2" d="M420.8 317.1l-9.9-45.2-95.1 3.1 3.7 84.7 44.3-3.2 53.5-15.7z"/>
    <path class="st3" d="M389.3 283.8c-3 0-5.8.7-8.5 2-2.7-1.6-5.7-2.5-8.8-2.7-15.8-.9-29.6 18.2-31 42.5-1.3 24.3 9.8 45.7 25.6 46.5.1 0-.1 0 0 0 3.2.3 12.8-.1 17.9.1.7.1 3.8-.1 4.6-.1 15.8 0 28.7-19.7 28.7-44.1.1-24.3-12.7-44.1-28.5-44.2z"/>
    <path class="st4" d="M375.4 327.9c0-10.2 4.3-18.9 10.3-22 1.2-.6 2.4-1 3.6-1.2.4-.1.8-.1 1.2-.1 8.3 0 15.1 10.5 15 23.3 0 12.9-6.8 23.3-15.2 23.3h-.8c-7.9-.7-14.2-10.9-14.1-23.3z"/>
    <path class="st6" d="M47.4 222.5c11.2-27.3 22-97.6 226.8-81.6 0 0 74.3 5.4 118 87s26.5 111.3 26.5 111.3-.3.6-1.3 1.5c1.2-16.5 2.5-62.5-18.9-64.1-21.6-1.6-31.2 54.9-33.8 74.2-.5 3.4-3.1 6-6.5 6.4-15.4 2-34.8 3.6-59 4.7-13.8.6-26.8 1.3-39.1 2 3.1-6.6 10.7-27.4.5-52.2-11.9-28.7-33.5-22.8-33.5-22.8s-20.1 3.4-33.2 57.4c-1.1 4.5-2.5 8.5-4.1 12-3.2 7.1-10.4 11.6-18.2 11.2-46.6-2.1-83.9-1.7-124.4-4.8-56.5-4.2-11.3-114.1.2-142.2z"/>
    <path class="st7" d="M183.2 206.9c-8.2 0-14.9 6.7-14.9 14.9v18h14.3c7.1 0 13.2-5 14.6-12l.6-3.1c1.8-9.3-5.3-17.8-14.6-17.8z"/>
    <path class="st7" d="M182.6 240.1h-14.7v-18.4c0-8.4 6.9-15.3 15.3-15.3 4.6 0 8.9 2 11.8 5.6 2.9 3.5 4.1 8.2 3.2 12.7l-.6 3.1c-1.4 7.1-7.7 12.3-15 12.3zm-13.9-.8h13.8c6.9 0 12.9-4.9 14.2-11.7l.6-3.1c.8-4.2-.3-8.6-3-11.9-2.8-3.3-6.8-5.3-11.1-5.3-8 0-14.4 6.5-14.4 14.4v17.6h-.1z"/>
    <path class="st8" d="M244.6 233.7c-1.7-6.1-3.1-11.5-3.9-15.5-3.9-21.3-8.9-48.6 12.4-53.7s56.6-9.6 73.1 17.5c16.2 26.6 20.5 45.9 20.5 45.9s.3.9.7 2.5M168.3 239.7c3.9 0 7.3-2.8 8.1-6.6 13.9-69.7 10.6-65.9-58.5-65.3-41.3.4-54.5 35.5-59.1 46.5-1.7 4.1-4.5 10.9-7.3 19-1 2.7 1.1 5.6 4 5.6l112.8.8z"/>
    <path class="st10" d="M619.4 126.2h-3.3c-2 0-3.6 1.6-3.6 3.6v207.4c0 2 1.6 3.6 3.6 3.6h3.3c2 0 3.6-1.6 3.6-3.6V129.8c0-2-1.6-3.6-3.6-3.6z"/>
    <path class="st11" d="M636.6 3.5H599c-11.4 0-21.9 6.1-27.6 15.9l-18.8 32.5c-5.7 9.9-5.7 22 0 31.8l18.8 32.5c5.7 9.9 16.2 15.9 27.6 15.9h37.6c11.4 0 21.9-6.1 27.6-15.9L683 83.7c5.7-9.9 5.7-22 0-31.8l-18.8-32.5C658.5 9.6 648 3.5 636.6 3.5z"/>
    <path class="st6" d="M639 135.7h-42.3c-11.1 0-21.5-6-27-15.6l-21.2-36.7c-5.6-9.6-5.6-21.6 0-31.2l21.2-36.7C575.2 6 585.5 0 596.6 0H639c11.1 0 21.5 6 27 15.6l21.2 36.7c5.6 9.6 5.6 21.6 0 31.2L666 120.1c-5.6 9.7-15.9 15.6-27 15.6zM596.6 7c-8.6 0-16.7 4.6-21 12.1l-21.2 36.7c-4.3 7.5-4.3 16.7 0 24.2l21.2 36.7c4.3 7.5 12.3 12.1 21 12.1H639c8.6 0 16.7-4.6 21-12.1L681.1 80c4.3-7.5 4.3-16.7 0-24.2l-21.2-36.7C655.6 11.6 647.6 7 639 7h-42.4z"/>
    <g>
        <path class="st12" d="M578.8 72.2c0 3.6 1.5 5.7 3.6 5.7 1.7 0 3-1.6 3-3.9 0-2.7-1.6-3.6-3.5-4.6-4.2-2.2-7.7-4.2-7.7-10.9 0-6.1 3.8-9.3 8-9.3 5.4 0 8.1 4.9 8.1 10.6H585c0-2.9-1-4.8-2.8-4.8-1.5 0-2.8 1.1-2.8 3.4 0 2.2 1.3 3.4 3.3 4.4 3.7 1.9 8 4.1 8 10.7 0 6.8-3.5 10.6-8.6 10.6-4.9 0-8.6-4.3-8.6-11.8l5.3-.1zM599.4 56.7h-5.1V50h15.6v6.6h-5.2v26.5h-5.3V56.7zM612.8 66.6c0-9.1 4.5-17.4 12.1-17.4s12 8.3 12 17.4-4.5 17.4-12 17.4c-7.6.1-12.1-8.3-12.1-17.4zm18.7 0c0-5.4-2.5-10.5-6.7-10.5s-6.7 5.1-6.7 10.5 2.5 10.5 6.7 10.5 6.7-5 6.7-10.5zM643.1 50h9.5c5 0 8.3 5.5 8.3 12 0 6.4-3.3 12-8.3 12h-4.3v9.2H643l.1-33.2zm12.5 12c0-3.1-1.4-5.7-3.6-5.7h-3.6v11.5h3.6c2.2 0 3.6-2.7 3.6-5.8z"/>
    </g>
    <g>
        <path class="st2" d="M244.6 233.7l102.9-3.3c-.5-1.6-.7-2.5-.7-2.5s-.1-.3-.2-.9c-8 .1-72.1-2-104.5-3.1.6 3 1.5 6.3 2.5 9.8z"/>
    </g>
    <g>
        <path class="st3" d="M270.8 259.2c-10.4 0-18.8-8.4-18.8-18.8v-7.5c0-10.4 8.4-18.8 18.8-18.8s18.8 8.4 18.8 18.8v7.5c0 10.3-8.4 18.8-18.8 18.8zm0-41.7c-8.5 0-15.3 6.9-15.3 15.3v7.5c0 8.5 6.9 15.3 15.3 15.3 8.5 0 15.3-6.9 15.3-15.3v-7.5c0-8.4-6.8-15.3-15.3-15.3z"/>
    </g>
    <g>
        <path class="st13" d="M347.3 229.9l-102.7 3.3c7.3 25.6 21.8 65.2 28.6 81.4 7 16.7 15.5 23.2 47.2 20.5 30.5-2.6 30.6-13.5 32.9-29.6 4.3-30-2.9-65.1-6-75.6z"/>
    </g>
    <g class="st14">
        <path class="st15" d="M308.1 336.5c-22.4 0-29.6-7.2-35.7-21.6-6.8-16.1-21.3-55.9-28.7-81.5-.1-.5.1-.9.6-1.1.5-.1.9.1 1.1.6 7.3 25.5 21.8 65.2 28.6 81.3 6.8 16.3 14.8 22.6 46.3 19.9 28.4-2.4 29.8-12 31.8-26.6.1-.7.2-1.5.3-2.2 4.3-29.8-2.8-64.5-6-75.3-.1-.5.1-.9.6-1.1.5-.1.9.1 1.1.6 3.1 10.9 10.3 45.9 6 76-.1.8-.2 1.5-.3 2.2-2.1 14.8-3.6 25.6-33.4 28.1-4.5.5-8.6.7-12.3.7z"/>
    </g>
</svg>
