<?xml version="1.0" encoding="UTF-8"?>
<svg width="487px" height="487px" viewBox="0 0 487 487" version="1.1" xmlns="http://www.w3.org/2000/svg" xmlns:xlink="http://www.w3.org/1999/xlink">
    <!-- Generator: Sketch 49 (51002) - http://www.bohemiancoding.com/sketch -->
    <title>Artboard 3 Copy</title>
    <desc>Created with Sketch.</desc>
    <defs></defs>
    <g id="Artboard-3-Copy" stroke="none" stroke-width="1" fill="none" fill-rule="evenodd">
        <g id="Group-22-Copy-3" transform="translate(48.000000, 16.000000)">
            <g id="Group-22-Copy-4">
                <g id="Group-3-Copy-5-+-Group-11-Copy-+-Group-14-Copy-Mask-Copy-Copy-Copy-Copy-Copy-Copy">
                    <g id="Group-13" transform="translate(0.494268, 188.149425)">
                        <g id="Group-11" transform="translate(140.864542, 161.000000) scale(-1, 1) translate(-140.864542, -161.000000) translate(35.364542, 0.000000)">
                            <path d="M16.7661002,293.844147 L172.715939,315.484533 C176.055144,319.601813 176.58362,319.070456 174.301369,313.890461 C173.95775,313.110553 170.921834,315.047216 165.193622,319.70045 C165.236606,322.14222 155.379361,243.412778 145.604337,218.278897 C135.829314,193.145015 121.33771,174.973862 121.33771,174.973862 C97.9868557,183.782186 90.488502,165.421132 61.2598549,163.437357 C32.0312078,161.453583 49.2012984,171.1536 33.737012,163.917234 C33.7665401,164.103926 20.1343609,176.546055 20.1744348,176.737703 C40.9938526,183.182694 27.3851689,200.447325 31.2455019,220.27281 L16.7661002,293.844147 Z" id="Fill-2" fill="#AFB6EB" transform="translate(96.228662, 241.459874) scale(-1, 1) rotate(1.000000) translate(-96.228662, -241.459874) "></path>
                            <g id="Group-7" transform="translate(105.477152, 114.938690) scale(-1, 1) rotate(8.000000) translate(-105.477152, -114.938690) translate(13.477152, 12.438690)">
                                <path d="M183.187522,87.5879667 C183.187522,100.193115 176.709226,110.410806 168.715738,110.410806 C160.723725,110.410806 154.24543,100.193115 154.24543,87.5879667 C154.24543,74.9828181 160.723725,64.7651277 168.715738,64.7651277 C176.709226,64.7651277 183.187522,74.9828181 183.187522,87.5879667" id="Fill-20" fill="#4844A3" transform="translate(168.716476, 87.587967) scale(-1, 1) translate(-168.716476, -87.587967) "></path>
                                <path d="M177.043757,86.5829079 C177.043757,39.1930881 138.357131,0.776395235 90.6343296,0.776395235 C55.7381784,0.776395235 25.6726489,21.3174706 12.0318612,50.8877691 C7.01796694,61.7568152 4.22313751,73.8457545 4.22313751,86.5829079 C4.22313751,98.4394489 6.64584788,109.732694 11.026072,120.002782 C18.2207884,136.871866 30.6967885,150.980519 46.3925477,160.290862 C59.3351621,167.968591 74.4631225,172.391173 90.6343296,172.391173 C107.098564,172.391173 122.487777,167.814335 135.583966,159.877176 C160.445365,144.809194 177.043757,117.623371 177.043757,86.5829079 Z" id="Fill-7" fill="#AFB6EB" transform="translate(90.633447, 86.583784) scale(-1, 1) translate(-90.633447, -86.583784) "></path>
                                <g id="Group-4" transform="translate(121.019829, 66.484015) rotate(-3.000000) translate(-121.019829, -66.484015) translate(111.019829, 54.484015)">
                                    <g id="Group-12-Copy" transform="translate(10.213557, 11.834988) scale(-1, 1) rotate(-7.000000) translate(-10.213557, -11.834988) translate(2.213557, 1.334988)" fill="#FFFFFF" stroke="#FFFFFF" stroke-width="1.8">
                                        <path d="M0.921932698,13.1645961 L0.848454034,7.76738694 C0.793816053,3.68638577 4.0444619,0.333459422 8.11028129,0.277987055 C12.1761007,0.222514688 15.5165538,3.48592881 15.5718198,7.56692997 C15.1744805,11.6324007 14.9758108,13.665136 14.9758108,13.665136 C14.9758108,13.665136 14.0721667,20.3759248 8.3834712,20.453539 C2.84638459,20.5290847 0.977198701,17.2455972 0.921932698,13.1645961 Z" id="Fill-19" transform="translate(8.209798, 10.366054) rotate(-180.000000) translate(-8.209798, -10.366054) "></path>
                                    </g>
                                    <path d="M4.51586124,12.4917842 L4.46487841,8.74695563 C4.4269681,5.9153719 6.68241364,3.58895951 9.50346356,3.55047026 C12.3245135,3.51198102 14.6422714,5.77628577 14.6806174,8.6078695 C14.4049254,11.4286775 14.2670794,12.8390815 14.2670794,12.8390815 C14.2670794,12.8390815 13.6400901,17.4953311 9.69301511,17.5491834 C5.85113326,17.6016004 4.5542073,15.3233679 4.51586124,12.4917842 Z" id="Fill-19" fill="#342D71" transform="translate(9.572512, 10.550028) rotate(-180.000000) translate(-9.572512, -10.550028) "></path>
                                </g>
                                <g id="Group-4-Copy" transform="translate(69.946449, 53.287397)" fill="#FFFFFF" stroke="#FFFFFF" stroke-width="1.8">
                                    <g id="Group-12-Copy" transform="translate(9.228464, 11.591250) scale(-1, 1) rotate(-7.000000) translate(-9.228464, -11.591250) translate(1.228464, 1.091250)">
                                        <path d="M0.550968035,13.5556929 L0.477489371,8.15848372 C0.42285139,4.07748255 3.67349724,0.724556204 7.73931663,0.669083837 C11.805136,0.61361147 15.1455891,3.87702559 15.2008551,7.95802676 C14.8035158,12.0234975 14.6048462,14.0562328 14.6048462,14.0562328 C14.6048462,14.0562328 13.701202,20.7670216 8.01250654,20.8446358 C2.47541993,20.9201815 0.606234039,17.636694 0.550968035,13.5556929 Z" id="Fill-19" transform="translate(7.838833, 10.757150) rotate(-180.000000) translate(-7.838833, -10.757150) "></path>
                                    </g>
                                </g>
                                <path d="M73.8126812,66.283218 L73.7624165,62.5911397 C73.7250402,59.7994421 75.9487152,57.5057999 78.7300274,57.4678528 C81.5113396,57.4299057 83.7964492,59.6623151 83.8342551,62.4540128 C83.5624465,65.2350864 83.4265422,66.6256233 83.4265422,66.6256233 C83.4265422,66.6256233 82.8083848,71.2162843 78.9169089,71.269378 C75.1291443,71.3210567 73.8504871,69.0749157 73.8126812,66.283218 Z" id="Fill-19" fill="#342D71" transform="translate(78.798104, 64.368814) rotate(-180.000000) translate(-78.798104, -64.368814) "></path>
                                <path d="M11.1506702,109.602499 C5.93848806,109.602499 1.71351262,99.3848085 1.71351262,86.7796598 C1.71351262,74.1745112 5.93848806,63.9568208 11.1506702,63.9568208 C16.3628524,63.9568208 20.58879,74.1745112 20.58879,86.7796598 C20.58879,99.3848085 16.3628524,109.602499 11.1506702,109.602499 Z" id="Fill-5" fill="#4844A3" transform="translate(11.151151, 86.779660) scale(-1, 1) translate(-11.151151, -86.779660) "></path>
                                <path d="M6.08967448,100.604364 C3.02813404,100.604364 0.546460769,94.6026797 0.546460769,87.198646 C0.546460769,79.7946123 3.02813404,73.7929279 6.08967448,73.7929279 C9.15121493,73.7929279 11.6334534,79.7946123 11.6334534,87.198646 C11.6334534,94.6026797 9.15121493,100.604364 6.08967448,100.604364 Z" id="Fill-5" fill="#FFFFFF" transform="translate(6.089957, 87.198646) scale(-1, 1) translate(-6.089957, -87.198646) "></path>
                            </g>
                            <path d="M135.448505,204.634166 C135.448505,223.060752 134.004933,237.497118 131.11779,247.943264 C128.230646,258.389411 119.406442,274.918526 104.645177,297.530611 L178.394448,284.300279 C182.238938,253.898842 182.238938,238.073735 178.394448,236.824958 C174.549958,235.576181 165.502358,224.347244 151.25165,203.138148 L135.448505,204.634166 Z" id="Path-4" opacity="0.282665308"></path>
                            <path d="M121.781153,190.556553 C126.349508,189.826731 128.633685,193.070853 128.633685,200.288921 C128.633685,208.179453 128.9391,226.132181 127.716432,245.19227 C126.696607,261.090254 118.416785,276.20633 102.876968,290.540498 L158.65865,278.678043 C167.36986,257.605247 170.960842,245.660925 169.431595,242.845074 C167.137725,238.621299 153.726387,199.502845 151.964024,198.341013 C150.789115,197.566458 145.817222,194.147325 137.048346,188.083614 C133.31492,189.019381 130.510034,189.613534 128.633685,189.866071 C126.757337,190.118609 124.47316,190.348769 121.781153,190.556553 Z" id="Path-7" fill="#737ACE"></path>
                            <path d="M67.7898087,174.21755 C71.399317,179.669828 73.8226284,184.907633 75.059743,189.930965 C75.059743,190.342753 112.186223,196.548009 139.977889,177.173604 C133.759926,179.777432 97.9204122,191.20898 77.3352092,182.838092 C73.0542015,180.362601 69.8724014,177.489087 67.7898087,174.21755 Z" id="Path-5" fill="#737ACE" transform="translate(103.883849, 182.707862) scale(-1, 1) translate(-103.883849, -182.707862) "></path>
                        </g>
                        <rect id="Rectangle-14" fill="#4844A3" transform="translate(62.210618, 234.763055) rotate(21.000000) translate(-62.210618, -234.763055) " x="25.6473601" y="156.506786" width="73.1265154" height="156.512538" rx="36.5632577"></rect>
                        <path d="M96.975665,208.049589 L106.751077,208.04959 C123.319619,208.04959 136.751077,221.481047 136.751077,238.049589 C136.751077,238.726781 136.728147,239.403779 136.682328,240.07942 C134.268565,275.67202 133.061683,299.816038 133.061683,312.511472 C133.061683,322.593634 133.822845,335.729864 135.345168,351.920163 L135.345168,351.920163 C136.896215,368.415946 124.781113,383.045792 108.285329,384.596839 C107.351763,384.68462 106.414595,384.728582 105.476911,384.728582 L96.975665,384.728582 C80.4071225,384.728582 66.975665,371.297125 66.975665,354.728582 L66.975665,238.049589 C66.975665,221.481047 80.4071225,208.049589 96.975665,208.049589 Z" id="Rectangle-14-Copy" fill="#B0CCFC" transform="translate(101.863371, 296.389086) rotate(-69.000000) translate(-101.863371, -296.389086) "></path>
                        <path d="M113.508295,186.791811 C115.317282,193.826535 113.84153,206.265494 109.081037,224.10869 C104.320545,241.951885 100.463074,255.922306 97.508624,266.019953" id="Path-6"></path>
                        <path d="M113.832658,196.22161 L123.980133,196.221611 C140.548675,196.221611 153.980132,209.653068 153.980132,226.22161 C153.980132,226.793758 153.963764,227.365789 153.931049,227.937 C151.256133,274.641359 149.918676,306.0498 149.918676,322.162325 C149.918676,335.750867 150.869934,353.941008 152.772451,376.732749 L152.772451,376.732749 C154.1507,393.243867 141.883085,407.746064 125.371967,409.124313 C124.541924,409.1936 123.709356,409.228288 122.876427,409.228288 L113.832658,409.228288 C97.2641151,409.228288 83.8326576,395.796831 83.8326576,379.228288 L83.8326576,226.22161 C83.8326576,209.653068 97.2641151,196.22161 113.832658,196.22161 Z" id="Rectangle-14-Copy" fill="#4844A3" transform="translate(118.906395, 302.724949) rotate(-69.000000) translate(-118.906395, -302.724949) "></path>
                        <ellipse id="Oval" fill="#D2D8FF" cx="54.8430387" cy="272.5331" rx="45.8183608" ry="45.6065993"></ellipse>
                    </g>
                    <g id="Group" transform="translate(248.973248, 116.850575)" fill="#F2A9DF">
                        <ellipse id="Oval-11-Copy" cx="110.559283" cy="63.3232337" rx="64.4929152" ry="63.3232337"></ellipse>
                        <ellipse id="Oval-11" cx="23.033184" cy="104.031027" rx="23.033184" ry="22.6154406"></ellipse>
                    </g>
                </g>
            </g>
        </g>
    </g>
</svg>