<svg id="Layer_1" xmlns="http://www.w3.org/2000/svg" xmlns:xlink="http://www.w3.org/1999/xlink" viewBox="0 0 710 400.4">
    <style>
        .st0{fill:#fff}.st1{fill:none;stroke:#cfd1e2;stroke-width:2;stroke-linecap:round;stroke-miterlimit:10}.st2{enable-background:new}.st3{fill:#29264c}.st4{fill:#4e479e}.st5{opacity:.25}.st6,.st7,.st8,.st9{fill-rule:evenodd;clip-rule:evenodd;fill:#fff}.st7,.st8,.st9{fill:#ea9381}.st8,.st9{fill:#29264c}.st9{fill:#c1555e}.st10{fill:#e15fbd}.st11{fill:#e9e9ed}.st12{opacity:.55}.st13{fill:#7b7bb2}.st14{fill:#50b9e8}.st15{fill:#bfbfd8}.st16{fill:#c1555e}.st17{fill:#ffc07f}.st18{fill:#863fea}.st19{fill:#ffc0ec}.st20{fill-rule:evenodd;clip-rule:evenodd;fill:#ffb2b2}.st21{fill:#242366}.st22{fill-rule:evenodd;clip-rule:evenodd;fill:#bb1959}.st23{fill:#ea9381}.st24{fill:#ffb2b2}.st25{fill:#cfd1e2}
    </style>
    <title>
        Artboard 1
    </title>
    <image width="333" height="70" xlink:href="E37A3CE34A609577.png" transform="matrix(1.2838 0 0 1.2617 139.21 304.99)" overflow="visible"/>
    <path class="st0" d="M185.1 375.9c-17.1-.3-30.7-14.4-30.4-31.5.3-16.6 13.7-30.1 30.4-30.4H523c17.1.3 30.7 14.4 30.4 31.5-.3 16.6-13.7 30.1-30.4 30.4H185.1z"/>
    <path class="st1" d="M507.2 352.6l-10.6 10.6"/>
    <ellipse transform="rotate(-44.992 517.213 342.54)" class="st1" cx="517.2" cy="342.5" rx="12.7" ry="12.7"/>
    <g class="st2">
        <path class="st3" d="M203.8 352.1h-2.5v-9.5l-3.8 9.5h-1.9l-3.8-9.5v9.5h-2.5v-15.4h2.4l4.9 11.4 4.9-11.4h2.4v15.4zM216.3 341.8V352h-2.4v-1.4c-.6 1.1-1.8 1.7-3.3 1.7-1.5 0-2.5-.5-3.1-1.4-.5-.8-.7-1.6-.7-3v-6.1h2.4v5.3c0 1.8.5 3.1 2.2 3.1 1.7 0 2.5-1.3 2.5-3.1v-5.3h2.4zM227 349.2c0 2.1-1.8 3.1-4.1 3.1-2.2 0-4.2-1.3-4.2-3.7h2.3c0 1.3.8 1.8 2 1.8.9 0 1.7-.3 1.7-1.2 0-1-1-1-3.2-1.9-1.4-.5-2.4-1.1-2.4-2.9 0-1.9 1.8-3 3.8-3 2.2 0 3.9 1.5 3.9 3.5h-2.3c0-1-.5-1.6-1.6-1.6-.8 0-1.5.4-1.5 1.1 0 .9.9 1 2.8 1.7 1.4.7 2.8 1.3 2.8 3.1zM230.7 336.3c1 0 1.8.8 1.8 1.8s-.8 1.8-1.8 1.8-1.8-.8-1.8-1.8.8-1.8 1.8-1.8zm-1.2 5.5h2.4V352h-2.4v-10.2zM241.9 345.6c-.1-1.1-.8-1.9-2.4-1.9-1.8 0-2.7 1.5-2.7 3.3 0 1.8.8 3.3 2.9 3.3 1.4 0 2-.6 2.3-1.6h2.4c-.3 2.1-1.9 3.8-4.9 3.8-3.3 0-5.1-2.6-5.1-5.4 0-2.8 1.8-5.4 5.1-5.4s4.7 2 4.9 4h-2.5z"/>
    </g>
    <g class="st2">
        <path class="st3" d="M258.8 344.1c-.4-.1-.6-.1-.9-.1-2 0-3.2 1.2-3.2 3.7v4.4h-2.4v-10.2h2.4v1.6c.5-.9 1.8-1.8 3.2-1.8.4 0 .7 0 .9.2v2.2z"/>
    </g>
    <g class="st2">
        <path class="st3" d="M262 347.7c.1 1.5.7 2.7 2.7 2.7 1.4 0 1.9-.6 2.2-1.3h2.4c-.3 1.8-2 3.3-4.6 3.3-3.4 0-5.1-2.4-5.1-5.4 0-3.1 1.8-5.4 5.1-5.4 2.7 0 4.7 2 4.7 4.6 0 .4 0 .8-.1 1.5H262zm0-1.8h5.1c0-1.6-1-2.5-2.5-2.5-1.4 0-2.6.8-2.6 2.5z"/>
    </g>
    <g class="st2">
        <path class="st3" d="M278.9 345.6c-.1-1.1-.8-1.9-2.4-1.9-1.8 0-2.7 1.5-2.7 3.3 0 1.8.8 3.3 2.9 3.3 1.4 0 2-.6 2.3-1.6h2.4c-.3 2.1-1.9 3.8-4.9 3.8-3.3 0-5.1-2.6-5.1-5.4 0-2.8 1.8-5.4 5.1-5.4s4.7 2 4.9 4h-2.5z"/>
    </g>
    <g class="st2">
        <path class="st3" d="M282.9 347c0-2.9 2.1-5.4 5.4-5.4 3.3 0 5.4 2.5 5.4 5.4s-2.1 5.4-5.4 5.4c-3.3-.1-5.4-2.5-5.4-5.4zm8.4 0c0-1.8-1.2-3.3-3-3.3s-3 1.5-3 3.3 1.2 3.3 3 3.3c1.8-.1 3-1.6 3-3.3zM309.1 352.1v-5.7c0-1.6-.6-2.7-1.9-2.7-1.2 0-2.2.7-2.2 3.2v5.2h-2.4v-5.8c0-1.6-.5-2.6-1.9-2.6-1.2 0-2.2.7-2.2 3.2v5.2h-2.4v-10.2h2.4v1.4c.4-.9 1.5-1.7 2.9-1.7 1.9 0 2.8.8 3.2 1.8.5-1 1.7-1.8 3.1-1.8 3.1 0 3.7 2.1 3.7 4v6.5h-2.3zM327.4 352.1v-5.7c0-1.6-.6-2.7-1.9-2.7-1.2 0-2.2.7-2.2 3.2v5.2H321v-5.8c0-1.6-.5-2.6-1.9-2.6-1.2 0-2.2.7-2.2 3.2v5.2h-2.4v-10.2h2.4v1.4c.4-.9 1.5-1.7 2.9-1.7 1.9 0 2.8.8 3.2 1.8.5-1 1.7-1.8 3.1-1.8 3.1 0 3.7 2.1 3.7 4v6.5h-2.4zM334.5 347.7c.1 1.5.7 2.7 2.7 2.7 1.4 0 1.9-.6 2.2-1.3h2.4c-.3 1.8-2 3.3-4.6 3.3-3.4 0-5.1-2.4-5.1-5.4 0-3.1 1.8-5.4 5.1-5.4 2.7 0 4.7 2 4.7 4.6 0 .4 0 .8-.1 1.5h-7.3zm0-1.8h5.1c0-1.6-1-2.5-2.5-2.5-1.4 0-2.6.8-2.6 2.5zM344.5 341.8h2.4v1.4c.6-1.1 1.8-1.7 3.3-1.7 1.5 0 2.5.5 3.1 1.4.5.8.7 1.6.7 3v6.1h-2.4v-5.3c0-1.8-.5-3.1-2.2-3.1-1.7 0-2.5 1.3-2.5 3.1v5.3h-2.4v-10.2zM364.7 350.7c-.6 1-2 1.6-3.2 1.6-3.1 0-5.2-2.5-5.2-5.4s2.1-5.4 5.2-5.4c1.2 0 2.5.6 3.2 1.6v-6.5h2.4V352h-2.4v-1.3zm0-3.7c0-1.8-1.2-3.3-3-3.3s-3 1.5-3 3.3 1.2 3.3 3 3.3c1.8-.1 3-1.6 3-3.3zM380.3 341.8V352h-2.4v-1.4c-.6 1-2 1.6-3.2 1.6-3.1 0-5.2-2.5-5.2-5.4s2.1-5.4 5.2-5.4c1.2 0 2.5.6 3.2 1.6v-1.4h2.4zm-2.4 5.2c0-1.8-1.2-3.3-3-3.3s-3 1.5-3 3.3 1.2 3.3 3 3.3c1.8-.1 3-1.6 3-3.3zM389.2 352.1c-.4.1-1.1.1-1.8.1-1.2 0-3.3-.2-3.3-3.6v-4.8h-1.7v-2h1.7v-3.1h2.4v3.1h2.4v2h-2.4v4.2c0 1.8.5 2 1.5 2 .4 0 1 0 1.2-.1v2.2zM392.4 336.3c1 0 1.8.8 1.8 1.8s-.8 1.8-1.8 1.8-1.8-.8-1.8-1.8c.1-1 .9-1.8 1.8-1.8zm-1.2 5.5h2.4V352h-2.4v-10.2zM396.1 347c0-2.9 2.1-5.4 5.4-5.4 3.3 0 5.4 2.5 5.4 5.4s-2.1 5.4-5.4 5.4c-3.3-.1-5.4-2.5-5.4-5.4zm8.4 0c0-1.8-1.2-3.3-3-3.3s-3 1.5-3 3.3 1.2 3.3 3 3.3c1.8-.1 3-1.6 3-3.3zM409.3 341.8h2.4v1.4c.6-1.1 1.8-1.7 3.3-1.7 1.5 0 2.5.5 3.1 1.4.5.8.7 1.6.7 3v6.1h-2.4v-5.3c0-1.8-.5-3.1-2.2-3.1-1.7 0-2.5 1.3-2.5 3.1v5.3h-2.4v-10.2zM429.3 349.2c0 2.1-1.8 3.1-4.1 3.1-2.2 0-4.2-1.3-4.2-3.7h2.3c0 1.3.8 1.8 2 1.8.9 0 1.7-.3 1.7-1.2 0-1-1-1-3.2-1.9-1.4-.5-2.4-1.1-2.4-2.9 0-1.9 1.8-3 3.8-3 2.2 0 3.9 1.5 3.9 3.5h-2.3c0-1-.5-1.6-1.6-1.6-.8 0-1.5.4-1.5 1.1 0 .9.9 1 2.8 1.7 1.4.7 2.8 1.3 2.8 3.1z"/>
    </g>
    <path class="st4" d="M311.9 178.6c-12.3-32-27.7-49.6-52.4-49.6h-62.4c-22 0-41.4 16.1-49.8 40.2-3.5 10-7 20-11 29.7l-6.4 15.5c-3.1 7.5-3.5 16.2-.6 23.9 2.8 7.3 8.2 13.1 14.9 15.2 9.4 3.1 18.7 5.9 27.9 9.5l1 .4c34.5 13.5 72 14.1 106.8 1.6l35.5-11.5c5.5-1.8 10.1-6 13.2-11.5 4.8-8.7 4.7-19.7.3-28.6l-17-34.8z"/>
    <path class="st0" d="M233.9 182.2c-.4-6.9 9.9-6.7 9.2.2-.1 1 1.4 1 1.5 0 .4-3.6-2.2-7-6-7-3.7-.1-6.4 3.1-6.2 6.8.1 1 1.6 1 1.5 0z"/>
    <g class="st5">
        <path class="st3" d="M238.8 230.7c1.7-.5 12-4.7 12-4.7l25.1-10.9c1.5-.6 2.4-2.2 2.1-3.9l-39.2 19.5"/>
    </g>
    <g class="st5">
        <path class="st3" d="M222.2 230.7c-1.7-.5-12-4.7-12-4.7l-22.2-9.5c-1.5-.6-6-3.6-5.7-5.2l39.9 19.4"/>
    </g>
    <ellipse class="st6" cx="229.9" cy="131.9" rx="34.5" ry="24.1"/>
    <path class="st7" d="M279.3 95c-.5-1.8-1-3.6-2-5.2-.6-.9-.9-2.5-.7-3.5.2-1.9.5-3.8.8-5.7.6-4.1.3-8.2-.3-12.2-.7-4.6-1.9-9-3.8-13.3-2.2-5.1-5-9.8-8.7-13.9-4.5-4.9-9.7-8.9-15.8-11.6-5.2-2.3-10.5-3.5-16.1-3.7-2.3-.1-6.2.1-8.5.4-2.7.4-5.4.8-8 1.5-5.6 1.5-10.7 4.2-15.1 7.9-2.8 2.4-5.4 5-7.7 7.8-3.1 3.8-5.5 8.1-7.4 12.7-2.9 7.2-4.1 14.7-3.9 22.5.1 2.7.5 5.3.9 8 .2 1.4.1 2.6-1.1 3.7-1.3 1.3-1.2 3.1-1.6 4.8-.6 2.8-.5 5.6.4 8.3.8 2.6 1.8 5.1 2.9 7.5 1 2.2 2.5 4.1 4.9 4.9.8.3 1.1.7 1.3 1.5 1.5 5.7 4.1 10.8 7.1 15.8.9 1.5 1.7 3.5 2.8 4.8l.3.5s6.1 13.6 29.3 13.6 32.5-17.4 32.5-17.4c3.7-5.5 6.5-11.3 8.3-17.6.1-.4.4-.8.7-.9 3.5-1.3 5.2-4 6.2-7.3.2-.8.5-1.6.9-2.3 1.5-3.8 2.4-7.6 1.4-11.6z"/>
    <path class="st0" d="M244.5 214c7.1-3.8 13-9.4 16.8-16.5 4.6-8.5 4.8-17.6 4.8-27 0-12.1 4.2-22.7 6.1-34.5 1.8-10.9 1.5-22.1.6-33.1-.1-1-1.6-1-1.5 0 .9 10.6 1.3 21.3-.4 31.8-1.5 9.6-5.4 18.7-6.1 28.4-.7 9.8.8 19.8-2.7 29.1-3.4 8.9-9.9 16.1-18.3 20.5-.9.5-.1 1.8.7 1.3z"/>
    <path class="st0" d="M257 203.3c-3.7-7.9-10.7-13.2-19.4-14.5-5.7-.9-11.5-.5-17.1-2.1-5.6-1.6-10.7-4.6-14.9-8.5-9.3-8.7-11.8-21-12.9-33.2-1.2-13.4-2.2-26.8-3.3-40.2-.1-1-1.6-1-1.5 0 1.1 13.7 2.1 27.4 3.4 41 1 10.2 2.9 20.7 9.3 29 5.7 7.3 14.1 12.5 23.2 14.1 6.1 1.1 12.5.4 18.4 2.4 6.2 2.2 10.8 6.8 13.6 12.7.3.9 1.6.2 1.2-.7z"/>
    <path class="st6" d="M274.4 102.5c0 1.2-.9 2.1-2.1 2.1-1.2 0-1.1-.9-1.1-2.1 0-1.2 0-2.1 1.1-2.1s2.1.9 2.1 2.1z"/>
    <path class="st3" d="M227.1 119.3c-.3-.2-.7-.2-1 0-.3.2-.5.6-.5.9 0 .4.1.7.2 1 .2.5.6 1 1.1 1.3s1.2.3 1.6-.1c.5-.3.6-1.1.2-1.5l-1.6-1.6zM234.2 119.7c-.3.6-.4 1.3 0 1.9.3.6.9 1 1.6 1 .5 0 1.2-.2 1.3-.8.2-.6-.3-1.2-.8-1.7-.4-.4-.9-.9-1.5-.8l-.6.4z"/>
    <g class="st5">
        <path class="st3" d="M237 121.8c-.3-.7-1-1.2-2-1-1.5.4-4 1.5-5.5.7-1.4-.7-1.9-1.8-3.8-1.6-1.4.2-2.9 1.3-3.3 2.7-1.1 3.4 3.5 4 5.8 3.8 2.6-.3 5.4-1.2 7.8-2.3l.6-.3c.7-.5.8-1.3.4-2z"/>
    </g>
    <path class="st8" d="M209.3 100.8c3.9-2.1 8.4-2.3 12.4-.5 1.9.8 2.7-2.3.7-3.2-5.1-2.3-8.5-2.1-13.5.6-1.7 1-1.4 4.1.4 3.1M252.9 101.4c-3.7-2.4-8.1-3.1-12.3-1.7-2 .7-2.4-2.6-.4-3.2 5.3-1.8 8.7-1.3 13.4 1.8 1.6 1.2 1 4.2-.7 3.1"/>
    <circle class="st8" cx="245.6" cy="107.1" r="2.7"/>
    <circle class="st8" cx="215.7" cy="107.1" r="2.7"/>
    <path class="st8" d="M220.2 135.1c4.6 1.4 5.3 2.1 10.5 2.1 1.9 0 2-3 0-3-5.1-.1-4.7-.3-9.5-2.1-2-.8-3 2.3-1 3M182.7 94.4l4.9 5c.4.5 1.2.5 1.6 0 4.3-4.3 7-9.9 8-16.8 1.6-11 14.8-8.9 19.2-17.4 2.8-5.3 6.8-4.4 12.1 2.6.2.3.6.3.8.1.1-.1.2-.3.2-.4 0-2.3.9-4.7 2.5-7.3 3.1-5.1 8.7-5.3 13.3-2.3 4.6 3 2.5 17.4 14.4 19.4 6.1 1.1 5.9 13.9 13 16.8 1 .4 2.4-.3 4.2-2.4.1-.1.1-.2.1-.3 6.8-32.2 2.2-52.1-13.8-59.6-12.5-8.4-26.1-9.9-29.8-9.9-3.7 0-20.3-1.2-35.7 11.9s-20.2 37-18.1 47.5c1.3 6.6 2.2 10.8 2.7 12.5.1.3.2.5.4.6z"/>
    <path class="st8" d="M181.8 91.8c2.1 4.2 6 7.2 10.3 7.8 4.2.6 8.7-1.1 11.7-4.6 2.8-3.3 4.5-8 8-10 2.5-1.4 5.6-1.2 7.9.5 2 1.5 3.4 4.1 5.6 5.3 2.8 1.5 6.2.5 8.6-1.6s4-5.3 5.4-8.4c1.4-3.1 2.8-6.3 4.9-8.8 4.2 2.6 7.8 6.4 10.3 11 1.6 3 2.9 6.3 5.2 8.7 3.8 3.8 10.1 3.8 13.7-.2 1.5-1.6 2.5-3.7 3.2-5.9 4-11 2.2-24.4-4.5-33.6-3.1-4.3-7.1-7.6-11.3-10.5-7.4-5-15.6-8.7-24.2-9.8s-17.5.5-25 5.4c-6 3.9-10.9.5-16.4 5.2-3.2 2.7-7.8 11.6-10.7 16.5-5.5 9.4-9.2 20.8-3.9 30.7l1.2 2.3z"/>
    <path class="st3" d="M179.9 92.9c3.3 5.9 9.3 10 16.3 8.8 3.3-.5 6.3-2.2 8.6-4.6 2.8-2.9 4.4-8.4 8.1-10.2 5.3-2.6 7.5 3.7 11.3 5.8 2.5 1.4 5.5 1.3 8 .1 7.8-3.4 9.2-13.6 14-19.7-1 .3-2 .5-3 .8 4 2.6 7.2 6 9.5 10.2 1.9 3.5 3.3 7.4 6.5 10 4.3 3.4 10.7 3.5 14.9-.1 5.8-5 7.1-14.8 6.9-21.9-.2-7.4-2.5-15-6.8-21.1-9.5-13.3-28.4-22.5-44.7-21.6-3.7.2-7.4.9-10.9 2.1-4.8 1.7-8.8 5.1-13.9 5.7-6.9.8-11 2.8-15 8.7-4.8 7.2-9.6 15.2-12.2 23.5-2.5 8.4-1.2 15.6 2.4 23.5 1.2 2.6 5 .3 3.8-2.2-4.1-9-3.8-17.1.5-26.1 3-6.3 6.7-14.2 11.5-19.4 3.2-3.5 6.8-3.2 11-3.9 3.5-.6 6-2.3 9.1-3.9 9-4.6 19.4-4.6 28.9-1.5 17.6 5.7 32.9 19.6 32 39.3-.2 4.7-1.3 11.2-4.6 14.8-4.4 4.7-10 1.7-12.8-2.8-4.1-6.7-7-12.6-13.8-17-1.1-.7-2.3-.1-3 .8-3.6 4.7-6.7 18.4-14 18.3-3.6-.1-4.9-3.7-7.6-5.5-1.9-1.3-4.1-1.9-6.4-1.7-5 .5-7.5 4.6-10 8.4-2.2 3.3-4.5 6.2-8.7 7-5.3 1-9.5-2.3-12-6.7-1.5-2.6-5.3-.3-3.9 2.1zM246.7 180.8H213c-1.3 0-2.3 1-2.3 2.3v45.2c0 1.3 1 2.3 2.3 2.3h33.7c1.3 0 2.3-1 2.3-2.3v-45.2c0-1.2-1-2.3-2.3-2.3z"/>
    <path class="st3" d="M246.7 231.5H213c-1.7 0-3.2-1.4-3.2-3.2v-45.2c0-1.7 1.4-3.2 3.2-3.2h33.7c1.7 0 3.2 1.4 3.2 3.2v45.2c0 1.8-1.4 3.2-3.2 3.2zM213 181.6c-.8 0-1.5.7-1.5 1.5v45.2c0 .8.7 1.5 1.5 1.5h33.7c.8 0 1.5-.7 1.5-1.5v-45.2c0-.8-.7-1.5-1.5-1.5H213z"/>
    <path class="st9" d="M522.5 138.3h-65.2c-7.4 0-13.4-6-13.4-13.4v-12c0-7.4 6-13.4 13.4-13.4h65.2c7.4 0 13.4 6 13.4 13.4v12c0 7.4-6 13.4-13.4 13.4z"/>
    <path class="st10" d="M549 264.2c-36.6 9.9-75.1 10.2-111.9 1l-5-1.3c-3.9-1-7.9-1.7-11.9-2.2-18.6-2.5-31-21.7-24.7-40.1l18.2-53.5c7-20.7 26.5-34.5 48.3-34.5h52.7c20.4 0 38.8 12.1 46.8 30.8l23.7 55c8 18.6-4 39.3-23.2 42.3-4.4.6-8.8 1.3-13 2.5z"/>
    <path class="st0" d="M499.2 187.1c-.1-2.2.9-5.4 3.7-5.3 2.8.1 3.7 3.3 3.5 5.6-.1.9 1.3.9 1.3 0 .3-3-1.3-6.8-4.8-6.9-3.5-.1-5.2 3.7-5 6.7 0 .8 1.4.8 1.3-.1z"/>
    <g class="st5">
        <path class="st3" d="M501.9 230.7c1.7-.5 12-4.7 12-4.7l25.1-10.9c1.5-.6 2.4-2.2 2.1-3.9l-39.2 19.5"/>
    </g>
    <g class="st5">
        <path class="st3" d="M485.2 230.7c-1.7-.5-12-4.7-12-4.7l-22.2-9.5c-1.5-.6-6-3.6-5.7-5.2l39.9 19.4"/>
    </g>
    <ellipse transform="rotate(-45.235 651.63 59.651)" class="st11" cx="651.6" cy="59.7" rx="58.4" ry="58.4"/>
    <g class="st12">
        <path class="st13" d="M651.7 38.8c-.5 0-.9-.4-.9-.9l-.1-23.5c0-.5.4-.9.9-.9s.9.4.9.9l.1 23.5c0 .5-.4 1-.9.9z"/>
    </g>
    <circle class="st13" cx="651.7" cy="38" r="6"/>
    <path class="st14" d="M530.5 177.6l55.4-55.8"/>
    <path class="st15" d="M527.3 180.8c-1.8-1.7-1.8-4.6 0-6.3 1.7-1.8 4.6-1.8 6.3 0 1.8 1.7 1.8 4.6 0 6.3-.9.9-2 1.3-3.2 1.3-1.1 0-2.2-.5-3.1-1.3zm18-18.1c-1.8-1.7-1.8-4.6 0-6.3 1.7-1.8 4.6-1.8 6.3 0 1.8 1.7 1.8 4.6 0 6.3-.9.9-2 1.3-3.2 1.3-1.1 0-2.2-.4-3.1-1.3zm17.9-18.1c-1.8-1.7-1.8-4.6 0-6.3 1.7-1.8 4.6-1.8 6.3 0 1.8 1.7 1.8 4.6 0 6.3-.9.9-2 1.3-3.2 1.3-1.1 0-2.2-.5-3.1-1.3zm18-18.1c-1.8-1.7-1.8-4.6 0-6.3 1.7-1.8 4.6-1.8 6.3 0 1.8 1.7 1.8 4.6 0 6.3-.9.9-2 1.3-3.2 1.3-1.1 0-2.2-.5-3.1-1.3z"/>
    <ellipse transform="rotate(-44.765 58.78 59.66)" class="st11" cx="58.8" cy="59.7" rx="58.4" ry="58.4"/>
    <path class="st16" d="M82.5 71.2V71c-.3-2.2-5.2-37-13.8-38.7-4.3-.8-6.7.5-8.1 2.3-.8 1-2.2 1-3 0-1.4-1.9-3.9-3.2-8.1-2.3C40.9 33.9 36 68.7 35.7 71V73.4c0 .7.4 1.4 1.1 1.7l21.8 9.4v.5l.5-.2.5.2v-.5l21.8-9.4c.7-.3 1.1-.9 1.1-1.7v-2.2z"/>
    <path class="st3" d="M25 64.3s3.7 23 33.8 23 33.8-23 33.8-23-17.1 13.6-33.8 13.6S25 64.3 25 64.3z"/>
    <path class="st3" d="M58.8 88.1c-30.3 0-34.5-23.4-34.5-23.7l-.3-1.9 1.5 1.2c.2.1 17.1 13.4 33.3 13.4C75 77.1 92 63.8 92.1 63.7l1.5-1.2-.3 1.9c0 .3-4.2 23.7-34.5 23.7zm-32.6-22c.7 2.1 2.1 5.7 5 9.3 6 7.3 15.5 11.2 27.5 11.2s21.6-3.9 27.6-11.2c2.9-3.6 4.4-7.1 5-9.3-4.7 3.4-18.7 12.5-32.6 12.5-13.8 0-27.7-9-32.5-12.5z"/>
    <path class="st13" d="M58.8 77.7c-17.1 0-34.3-13.4-35-14-.8-.7-1-1.9-.3-2.7s1.9-1 2.7-.3c.2.1 16.8 13.2 32.6 13.2s32.4-13.1 32.6-13.2c.8-.7 2-.5 2.7.3.7.8.5 2-.3 2.7-.8.6-17.9 14-35 14z"/>
    <path class="st17" d="M58.8 47.8l2.7 5.4 6 .9-4.4 4.2 1 6-5.3-2.8-5.4 2.8 1-6-4.3-4.2 6-.9z"/>
    <path class="st14" d="M179.9 177.6l-55.4-55.8"/>
    <path class="st15" d="M176.7 180.8c-1.7-1.8-1.7-4.6 0-6.3 1.8-1.7 4.6-1.7 6.3 0 1.7 1.8 1.7 4.6 0 6.3-.9.9-2 1.3-3.1 1.3s-2.3-.5-3.2-1.3zm-17.9-18.1c-1.7-1.8-1.7-4.6 0-6.3 1.8-1.7 4.6-1.7 6.3 0 1.7 1.8 1.7 4.6 0 6.3-.9.9-2 1.3-3.1 1.3-1.2 0-2.4-.5-3.2-1.3zm-18-18.1c-1.7-1.8-1.7-4.6 0-6.3 1.8-1.7 4.6-1.7 6.3 0 1.7 1.8 1.7 4.6 0 6.3-.9.9-2 1.3-3.1 1.3-1.2 0-2.3-.5-3.2-1.3zm-17.9-18.2c-1.7-1.8-1.7-4.6 0-6.3 1.8-1.7 4.6-1.7 6.3 0 1.7 1.8 1.7 4.6 0 6.3-.9.9-2 1.3-3.1 1.3-1.2.1-2.4-.4-3.2-1.3z"/>
    <path class="st18" d="M651.8 62.4l-15.6.1h-.1v.1c0 3.5.5 7 1.5 10.2-5.8-2.1-9.5-5.5-10.2-9.1h-.1c.7 12.3 10.5 22.2 22.8 23.1v-.1c-2.6-.4-5.2-2-7.4-4.4-2.1-2.4-3.8-5.5-4.9-9.1 4.1 1.5 8.9 2.3 13.9 2.3h.2l-.1-13.1zM636.2 62.4c0-3.6.5-7.1 1.4-10.4v-.1h-.1c-6.4 2.4-10.2 6.3-10.2 10.4v.1h8.9zM667.3 62.3c-.1 3.7-.6 7.2-1.5 10.5v.1h.1c6.5-2.4 10.5-6.4 10.5-10.5v-.1h-9.1zM651.7 49.5V37.8h-.1c-3 0-5.9 1.4-8.4 3.9-2.4 2.5-4.3 5.9-5.6 10v.1h.1c4.2-1.5 9-2.3 14-2.3z"/>
    <path class="st18" d="M667.3 62.3c0-3.7-.6-7.2-1.6-10.6 5.9 2.1 9.8 5.5 10.5 9.2h.1c-.7-12.4-10.6-22.4-23.1-23.1v.1c2.6.4 5.2 1.9 7.4 4.4 2.1 2.4 3.9 5.6 5 9.3-4-1.4-8.8-2.2-13.7-2.2h-.2l.1 12.8v.1h15.5zM652 75.3V87h.1c5.9-.1 11.1-5.4 13.7-13.8v-.1h-.1c-4.1 1.3-8.8 2.1-13.7 2.2z"/>
    <path class="st19" d="M676.2 63.6c-.7 3.7-4.5 7.1-10.5 9.3 1-3.3 1.5-6.9 1.5-10.5v-.1l-15.4.1h-.1l.1 12.8v.1h.1c4.9 0 9.7-.8 13.8-2.3-1.1 3.7-2.8 6.9-5 9.4s-4.7 4-7.3 4.4v.1c12.4-.8 22.3-10.8 22.9-23.3h-.1zM665.7 51.8c1 3.3 1.5 6.8 1.6 10.4v.1h9.1v-.1c-.1-4.2-4.1-8.1-10.7-10.4v-.1.1zM651.8 49.5h.2c4.9 0 9.5.7 13.6 2.2h.1v-.1c-2.6-8.4-7.9-13.6-13.8-13.7h-.1v11.6zM651.8 49.5c-5.1 0-10 .9-14.1 2.4 1.1-3.7 2.8-7 4.9-9.4 2.2-2.5 4.7-4 7.3-4.5v-.1c-12.3 1-22 11-22.6 23.2h.1c.7-3.7 4.4-7 10.2-9.2-1 3.3-1.5 6.8-1.5 10.4v.1l15.6-.1h.1V49.5zM637.7 72.8c-1-3.3-1.5-6.7-1.5-10.3v-.1h-8.9v.1c.1 4.1 3.9 8 10.4 10.3v.1-.1z"/>
    <path class="st19" d="M651.9 75.3h-.2c-5 0-9.8-.8-13.9-2.3h-.1v.1c1.3 4.1 3.2 7.5 5.7 10s5.4 3.8 8.3 3.8h.2V75.3z"/>
    <path class="st3" d="M509.3 186.2h-29.6c-1.3 0-2.3 1-2.3 2.3v39.8c0 1.3 1 2.3 2.3 2.3h29.6c1.3 0 2.3-1 2.3-2.3v-39.8c0-1.2-1.1-2.3-2.3-2.3z"/>
    <path class="st3" d="M509.3 231.4h-29.6c-1.7 0-3.1-1.4-3.1-3.1v-39.8c0-1.7 1.4-3.1 3.1-3.1h29.6c1.7 0 3.1 1.4 3.1 3.1v39.8c-.1 1.8-1.4 3.1-3.1 3.1zM479.7 187c-.9 0-1.6.7-1.6 1.6v39.8c0 .9.7 1.6 1.6 1.6h29.6c.9 0 1.6-.7 1.6-1.6v-39.8c0-.9-.7-1.6-1.6-1.6h-29.6z"/>
    <ellipse class="st6" cx="489.4" cy="136" rx="31.9" ry="22.3"/>
    <path class="st20" d="M535.1 101.6c-.4-1.7-.9-3.4-1.8-4.8-.5-.8-.8-2.3-.7-3.3.2-1.8.5-3.5.7-5.3.5-3.8.3-7.6-.3-11.3-.6-4.2-1.7-8.3-3.5-12.3-2.1-4.7-4.6-9.1-8.1-12.9-4.1-4.6-8.9-8.3-14.6-10.8-4.8-2.1-9.8-3.2-14.9-3.5-2.2-.1-5.7.1-7.9.4-2.5.3-5 .7-7.4 1.4-5.2 1.4-9.9 3.9-14 7.3-2.6 2.2-5 4.6-7.1 7.2-2.9 3.5-5.1 7.5-6.8 11.7-2.7 6.6-3.8 13.6-3.6 20.8.1 2.5.5 4.9.8 7.4.2 1.3.1 2.4-1 3.4-1.2 1.2-1.1 2.9-1.5 4.5-.6 2.6-.4 5.2.4 7.7.7 2.4 1.7 4.7 2.7 6.9.9 2 2.3 3.8 4.5 4.6.7.3 1 .7 1.2 1.4 1.4 5.2 3.8 10 6.5 14.6.8 1.4 1.5 3.2 2.6 4.5l.2.4s5.6 12.6 27.1 12.6c21.4 0 30.1-16.1 30.1-16.1 3.4-5.1 6-10.4 7.7-16.3.1-.3.4-.8.7-.9 3.2-1.2 4.8-3.7 5.8-6.8.2-.7.5-1.4.8-2.1 1.5-3.2 2.4-6.7 1.4-10.4z"/>
    <path class="st0" d="M449.9 111.4c-2.1 8.4-3.6 17.1-.6 25.6 1.4 3.9 3.7 7.5 5.7 11.2 3.1 5.8 5.3 11.6 5.8 18.3.8 10.1-1.1 20.6 2.1 30.4 3.2 9.8 10.9 17.5 12.2 28 .1.8 1.4.9 1.3 0-1.1-8.6-6.2-15.2-9.9-22.8-5.4-10.9-3.6-22.2-4.2-33.9-.5-9.7-4.4-17.5-9-25.9-5.4-10-4.7-19.7-2-30.5.1-.9-1.2-1.2-1.4-.4z"/>
    <path class="st0" d="M463.8 196c.2-15.6 18.6-18.2 30.5-19.2 9.3-.8 19.5-1.8 26.4-8.9 6.3-6.5 8.3-16.2 9.4-24.9 1.4-11.4.4-22.9 1.2-34.3.1-.9-1.3-.9-1.3 0-1.4 20.5 5 56.2-20.4 64.3-11 3.5-23.1 1.4-33.8 5.8-7.1 2.9-13 9.1-13.1 17.1-.3 1 1.1 1 1.1.1z"/>
    <path class="st3" d="M486.8 124.3c-.3-.2-.7-.2-.9 0-.3.2-.4.5-.4.8 0 .3.1.7.2 1 .2.5.5.9 1 1.2.5.2 1.1.3 1.5-.1.4-.3.6-1 .2-1.4l-1.6-1.5zM493.4 124.6c-.3.5-.3 1.2 0 1.7s.9.9 1.5.9c.5 0 1.1-.2 1.2-.7.2-.6-.3-1.1-.7-1.6-.4-.4-.9-.8-1.4-.7l-.6.4z"/>
    <g class="st5">
        <path class="st21" d="M495.9 126.6c-.3-.6-.9-1.1-1.8-.9-1.4.3-3.7 1.4-5.1.7-1.3-.7-1.8-1.7-3.5-1.5-1.3.2-2.7 1.2-3.1 2.5-1 3.2 3.2 3.7 5.4 3.5 2.4-.3 5-1.1 7.2-2.1l.6-.3c.7-.5.7-1.3.3-1.9z"/>
    </g>
    <path class="st9" d="M468 111.1c3-2.8 7-4 11-3.3 1.9.3 1.8-2.7-.1-3-5.1-.9-8.1.1-12 3.6-1.3 1.3-.3 4 1.1 2.7M510.6 110.3c-3.4-2.3-7.5-2.9-11.4-1.6-1.8.6-2.2-2.4-.4-3 4.9-1.6 8-1.1 12.4 1.8 1.6 1 1 3.9-.6 2.8"/>
    <g>
        <path class="st8" d="M506.4 113c0 1.4-1.1 2.5-2.5 2.5s-2.5-1.1-2.5-2.5 1.1-1.6 2.5-1.6c1.4.1 2.5.3 2.5 1.6z"/>
    </g>
    <g>
        <path class="st8" d="M478.7 113c0 1.4-1.1 2.5-2.5 2.5s-2.5-1.1-2.5-2.5 1.1-1.8 2.5-1.8 2.5.5 2.5 1.8z"/>
    </g>
    <g>
        <path class="st22" d="M483.5 141.4c6.4.6 10.6-.5 15-2.8 1.9-1 1.1-3.9-.7-2.9-4.2 2.2-8.4 3.2-14.2 2.7-1.9-.2-2 2.8-.1 3"/>
    </g>
    <g>
        <path class="st23" d="M267.5 254.1c0 21.4-17.3 31.1-38.6 31.1s-38.6-9.7-38.6-31.1 17.3-38.7 38.6-38.7c21.3.1 38.6 17.4 38.6 38.7"/>
    </g>
    <g>
        <path class="st24" d="M531.8 248.8c0 21.4-17.3 33.3-38.6 33.3s-38.6-11.9-38.6-33.3 17.3-38.7 38.6-38.7 38.6 17.3 38.6 38.7"/>
    </g>
    <g>
        <path class="st9" d="M443.3 106.9c1 6.4 4.7 8.9 9.7 8.3 5.3-.6 7 1.4 9.9-3.9s9.7-12.3 13.6-16.5c-.2 9.4 8.9 15.4 15.7 12.6s11.4-11.4 14.5-19.9c4.5 15.7 11.6 13.6 22.2 23.2.7.7 1.6 1.4 2.5 1.2.9-.2 1.5-1.2 2-2.2 5.1-10.4 6.2-11 5.2-23.3-.6-7.2-2.1-11.7-5-17.9-2.5-5.4-6.5-9.4-10.6-12.7-15.8-13.1-36-19.1-53.7-10.9S437.7 70.2 441 94.3l2.3 12.6z"/>
    </g>
    <g>
        <circle class="st9" cx="486.3" cy="25.2" r="16.1"/>
    </g>
    <g>
        <path class="st9" d="M445.7 101.3l4.6 4.6c.4.4 1.1.4 1.5 0 4-4 6.4-9.2 7.4-15.5 1.5-10.2 13.7-8.2 17.8-16.1 2.5-4.9 6.3-4.1 11.2 2.4.2.2.5.3.7.1.1-.1.2-.2.2-.4 0-2.1.8-4.3 2.3-6.7 2.9-4.7 8-4.9 12.3-2.1 4.2 2.8 2.3 16.1 13.4 18 5.7 1 5.5 12.8 12 15.6 1 .4 2.3-.3 3.9-2.2.1-.1.1-.2.1-.2 6.3-29.8 2-48.2-12.8-55.2-11.5-7.8-24.2-9.2-27.6-9.2-3.4 0-18.8-1.1-33 11s-18.7 34.2-16.8 44c1.2 6.1 2 10 2.5 11.5.1.1.2.3.3.4z"/>
    </g>
    <g>
        <path class="st13" d="M474 39.7c8.7-.3 17.3-.6 26-1 3.4-.1 3.4-5.4 0-5.3-8.7.3-17.3.6-26 1-3.4.1-3.4 5.4 0 5.3z"/>
    </g>
    <g class="st12">
        <path class="st13" d="M651.6 101.5c-.5 0-.9-.4-.9-.9v-7c0-.5.4-.9.9-.9s.9.4.9.9v7c0 .5-.4.9-.9.9z"/>
    </g>
    <g>
        <path class="st13" d="M624.7 90.2c-.2 0-.5-.1-.6-.3-.3-.3-.3-.9 0-1.3l5-5c.3-.3.9-.3 1.3 0 .3.3.3.9 0 1.3l-5 5c-.2.2-.5.3-.7.3z"/>
    </g>
    <g class="st12">
        <path class="st13" d="M620.6 63.2h-7c-.5 0-.9-.4-.9-.9s.4-.9.9-.9h7c.5 0 .9.4.9.9s-.4.9-.9.9z"/>
    </g>
    <g>
        <path class="st13" d="M629.9 41.2c-.2 0-.5-.1-.6-.3l-5-5c-.3-.3-.3-.9 0-1.3.3-.3.9-.3 1.3 0l5 5c.3.3.3.9 0 1.3-.3.2-.5.3-.7.3z"/>
    </g>
    <g>
        <path class="st13" d="M673.9 41.4c-.2 0-.5-.1-.6-.3-.3-.3-.3-.9 0-1.3l5-5c.3-.3.9-.3 1.3 0 .3.3.3.9 0 1.3l-5 5c-.3.2-.5.3-.7.3z"/>
    </g>
    <g class="st12">
        <path class="st13" d="M689.9 63.5h-7c-.5 0-.9-.4-.9-.9s.4-.9.9-.9h7c.5 0 .9.4.9.9s-.4.9-.9.9z"/>
    </g>
    <g>
        <path class="st13" d="M678.7 90.4c-.2 0-.5-.1-.6-.3l-5-5c-.3-.3-.3-.9 0-1.3.3-.3.9-.3 1.3 0l5 5c.3.3.3.9 0 1.3-.3.2-.5.3-.7.3z"/>
    </g>
    <g>
        <path class="st6" d="M185.2 104.8c0 1.2.9 2.1 2.1 2.1 1.2 0 1.1-.9 1.1-2.1 0-1.2 0-2.1-1.1-2.1-1.1-.1-2.1.9-2.1 2.1z"/>
    </g>
    <path class="st25" d="M437.7 361.3c-.4 0-.8-.4-.8-.8v-27.9c0-.4.4-.8.8-.8s.8.4.8.8v27.9c0 .4-.3.8-.8.8z"/>
</svg>
