<svg id="Layer_1" xmlns="http://www.w3.org/2000/svg" viewBox="0 0 800 350">
    <style>
        .st0{fill:#ebe9ef;enable-background:new}.st1{fill:#19ca94}.st2{fill:#4844a3}.st3{opacity:.5;fill:#29264c;enable-background:new}.st4{fill:#4744a3}.st5{fill:#29264c;fill-opacity:.5}.st6{fill:none;stroke:#19ca94;stroke-width:2}.st7{fill:#29264c}
    </style>
    <title>
        4-2-Nearest neighbor-1
    </title>
    <g id="_x34_-2-Nearest-neighbor-1">
        <path id="Rectangle-8-Copy" class="st0" d="M1 0h390v278H1z"/>
        <path id="Rectangle-8-Copy-2" class="st0" d="M410 0h390v278H410z"/>
        <circle id="Oval-15" class="st1" cx="32" cy="65" r="11"/>
        <circle id="Oval-15-Copy-39" class="st1" cx="447" cy="65" r="11"/>
        <circle id="Oval-15-Copy-16" class="st1" cx="58" cy="104" r="11"/>
        <circle id="Oval-15-Copy-40" class="st1" cx="474" cy="104" r="11"/>
        <circle id="Oval-15-Copy-17" class="st1" cx="71" cy="141" r="11"/>
        <circle id="Oval-15-Copy-41" class="st1" cx="487" cy="141" r="11"/>
        <circle id="Oval-15-Copy-18" class="st1" cx="111" cy="167" r="11"/>
        <circle id="Oval-15-Copy-42" class="st1" cx="526" cy="167" r="11"/>
        <circle id="Oval-15-Copy-19" class="st1" cx="122" cy="231" r="11"/>
        <circle id="Oval-15-Copy-43" class="st1" cx="538" cy="231" r="11"/>
        <circle id="Oval-15-Copy-20" class="st1" cx="160" cy="244" r="11"/>
        <circle id="Oval-15-Copy-44" class="st1" cx="574" cy="245" r="11"/>
        <circle id="Oval-15-Copy-21" class="st1" cx="32" cy="244" r="11"/>
        <circle id="Oval-15-Copy-63" class="st1" cx="19" cy="324" r="11"/>
        <circle id="Oval-15-Copy-64" class="st2" cx="52" cy="323" r="11"/>
        <path id="Combined-Shape" class="st3" d="M432.1 323h18.3l-5.1-5 9.6-1.4 4.3-8.6 4.3 8.6 9.6 1.4-6.9 6.7 1.6 9.5-8.6-4.5-8.6 4.5 1.6-9.2h-20c-.5 5.6-5.3 10-11 10-6.1 0-11.1-4.9-11.1-11s5-11 11.1-11c5.7 0 10.4 4.4 10.9 10z"/>
        <circle id="Oval-15-Copy-45" class="st1" cx="446" cy="245" r="11"/>
        <circle id="Oval-15-Copy-22" class="st1" cx="135" cy="40" r="11"/>
        <circle id="Oval-15-Copy-46" class="st1" cx="551" cy="40" r="11"/>
        <circle id="Oval-15-Copy-23" class="st1" cx="160" cy="117" r="11"/>
        <circle id="Oval-15-Copy-47" class="st1" cx="575" cy="117" r="11"/>
        <circle id="Oval-15-Copy-24" class="st1" cx="213" cy="65" r="11"/>
        <circle id="Oval-15-Copy-48" class="st1" cx="628" cy="65" r="11"/>
        <circle id="Oval-15-Copy-25" class="st1" cx="227" cy="142" r="11"/>
        <circle id="Oval-15-Copy-49" class="st1" cx="642" cy="142" r="11"/>
        <circle id="Oval-15-Copy-26" class="st1" cx="314" cy="129" r="11"/>
        <circle id="Oval-15-Copy-50" class="st1" cx="730" cy="129" r="11"/>
        <circle id="Oval-15-Copy-29" class="st4" cx="300" cy="45" r="11"/>
        <circle id="Oval-15-Copy-51" class="st4" cx="715" cy="45" r="11"/>
        <circle id="Oval-15-Copy-31" class="st4" cx="265" cy="78" r="11"/>
        <circle id="Oval-15-Copy-52" class="st4" cx="680" cy="78" r="11"/>
        <circle id="Oval-15-Copy-35" class="st4" cx="265" cy="161" r="11"/>
        <circle id="Oval-15-Copy-53" class="st4" cx="680" cy="161" r="11"/>
        <circle id="Oval-15-Copy-36" class="st4" cx="303" cy="168" r="11"/>
        <circle id="Oval-15-Copy-54" class="st4" cx="718" cy="168" r="11"/>
        <circle id="Oval-15-Copy-37" class="st4" cx="284" cy="212" r="11"/>
        <circle id="Oval-15-Copy-55" class="st4" cx="699" cy="212" r="11"/>
        <circle id="Oval-15-Copy-32" class="st4" cx="332" cy="87" r="11"/>
        <circle id="Oval-15-Copy-56" class="st4" cx="747" cy="87" r="11"/>
        <path id="Star" class="st5" d="M279 122.6l-8.7 4.4 1.7-9.4-7-6.7 9.7-1.3 4.3-8.6 4.3 8.6 9.7 1.3-7 6.7 1.7 9.4z"/>
        <path id="Star-Copy-4" class="st3" d="M255 330.6l-8.7 4.4 1.7-9.4-7-6.7 9.7-1.3 4.3-8.6 4.3 8.6 9.7 1.3-7 6.7 1.7 9.4z"/>
        <path id="Star-Copy-2" class="st1" d="M694 123.6l-8.7 4.4 1.7-9.4-7-6.7 9.7-1.3 4.3-8.6 4.3 8.6 9.7 1.3-7 6.7 1.7 9.4z"/>
        <path id="Star-Copy" class="st5" d="M102 97.6l-8.7 4.4 1.7-9.4-7-6.7 9.7-1.3L102 76l4.3 8.6 9.7 1.3-7 6.7 1.7 9.4z"/>
        <path id="Star-Copy-3" class="st1" d="M517 98.6l-8.7 4.4 1.7-9.4-7-6.7 9.7-1.3L517 77l4.3 8.6 9.7 1.3-7 6.7 1.7 9.4z"/>
        <circle id="Oval-15-Copy-27" class="st4" cx="198" cy="104" r="11"/>
        <circle id="Oval-15-Copy-57" class="st4" cx="613" cy="104" r="11"/>
        <circle id="Oval-15-Copy-33" class="st4" cx="198" cy="180" r="11"/>
        <circle id="Oval-15-Copy-58" class="st4" cx="613" cy="180" r="11"/>
        <circle id="Oval-15-Copy-34" class="st2" cx="227" cy="244" r="11"/>
        <circle id="Oval-15-Copy-59" class="st4" cx="641" cy="245" r="11"/>
        <circle id="Oval-15-Copy-38" class="st2" cx="352" cy="244" r="11"/>
        <circle id="Oval-15-Copy-60" class="st4" cx="767" cy="244" r="11"/>
        <circle id="Oval-15-Copy-28" class="st4" cx="198" cy="27" r="11"/>
        <circle id="Oval-15-Copy-61" class="st4" cx="613" cy="27" r="11"/>
        <circle id="Oval-15-Copy-30" class="st4" cx="352" cy="27" r="11"/>
        <circle id="Oval-15-Copy-62" class="st4" cx="767" cy="27" r="11"/>
        <path id="Path-32-Copy" class="st6" d="M514 93l-38 9"/>
        <path id="Path-32" class="st6" d="M698.3 118.1l31.1 11.4"/>
        <path id="Test-set" class="st3" d="M286.9 329v-12.4h-3.6V315h9.1v1.6h-3.6V329h-1.9zm9.6-8c-1.6 0-2.7.9-2.7 2.6h5.3c-.1-1.6-1.2-2.6-2.6-2.6zm4.1 3.9h-6.9c.1 1.5.8 2.8 2.8 2.8 1.4 0 2-.7 2.3-1.4h1.8c-.3 1.5-1.8 2.9-4.1 2.9-3.1 0-4.5-2.1-4.5-4.8 0-2.7 1.6-4.8 4.5-4.8 2.4 0 4.2 1.8 4.2 4.1 0 .3 0 .7-.1 1.2zm6.7-1c1.4.4 2.7.8 2.7 2.6s-1.5 2.7-3.6 2.7c-2 0-3.8-1.1-3.8-3.3h1.7c0 1.4.9 1.9 2.1 1.9 1.1 0 1.8-.4 1.8-1.3 0-1-1.1-1.1-2.9-1.7-1.4-.4-2.5-.9-2.5-2.5 0-1.7 1.5-2.6 3.4-2.6 2 0 3.5 1.2 3.5 3.1H308c0-1.1-.6-1.7-1.8-1.7-1 0-1.7.4-1.7 1.3.2.9 1.1 1 2.8 1.5zm10 3.6v1.5c-.3.1-1 .1-1.6.1-1.1 0-2.9-.2-2.9-3.2v-4.6h-1.7v-1.5h1.7v-3.1h1.7v3.1h2.4v1.5h-2.4v4.2c0 1.8.6 2 1.5 2h1.3zm11.2-3.6c1.4.4 2.7.8 2.7 2.6s-1.5 2.7-3.6 2.7c-2 0-3.8-1.1-3.8-3.3h1.7c0 1.4.9 1.9 2.1 1.9 1.1 0 1.8-.4 1.8-1.3 0-1-1.1-1.1-2.9-1.7-1.4-.4-2.5-.9-2.5-2.5 0-1.7 1.5-2.6 3.4-2.6 2 0 3.5 1.2 3.5 3.1h-1.7c0-1.1-.6-1.7-1.8-1.7-1 0-1.7.4-1.7 1.3.2.9 1.1 1 2.8 1.5zm9.2-2.9c-1.6 0-2.7.9-2.7 2.6h5.3c-.1-1.6-1.2-2.6-2.6-2.6zm4.1 3.9H335c.1 1.5.8 2.8 2.8 2.8 1.4 0 2-.7 2.3-1.4h1.8c-.3 1.5-1.8 2.9-4.1 2.9-3.1 0-4.5-2.1-4.5-4.8 0-2.7 1.6-4.8 4.5-4.8 2.4 0 4.2 1.8 4.2 4.1-.1.3-.1.7-.2 1.2zm7.7 2.6v1.5c-.3.1-1 .1-1.6.1-1.1 0-2.9-.2-2.9-3.2v-4.6h-1.7v-1.5h1.7v-3.1h1.7v3.1h2.4v1.5h-2.4v4.2c0 1.8.6 2 1.5 2h1.3z"/>
        <path id="Training-set" class="st7" d="M78.9 329v-12.4h-3.6V315h9.1v1.6h-3.6V329h-1.9zm11.9-9.1v1.6c-.4-.1-.5-.1-.9-.1-2 0-3 1.4-3 3.6v4h-1.7v-9.1h1.7v1.8c.5-1.1 1.7-1.9 3-1.9.3 0 .6 0 .9.1zm8.8 0h1.7v9.1h-1.7v-1.6c-.6 1.1-1.9 1.8-3.2 1.8-2.8 0-4.7-2.2-4.7-4.8 0-2.6 1.9-4.8 4.7-4.8 1.3 0 2.6.7 3.2 1.8v-1.5zm-3.1 7.8c1.9 0 3.1-1.5 3.1-3.2 0-1.7-1.2-3.2-3.1-3.2-1.8 0-3 1.5-3 3.2-.1 1.7 1.1 3.2 3 3.2zm8.1 1.3v-9.1h1.7v9.1h-1.7zm-.5-12.5c0-.8.6-1.4 1.4-1.4.8 0 1.4.6 1.4 1.4 0 .8-.6 1.4-1.4 1.4-.8 0-1.4-.7-1.4-1.4zm5.6 12.5v-9.1h1.7v1.6c.5-1.1 1.7-1.8 3.2-1.8 1.3 0 2.2.4 2.7 1.2.5.7.7 1.5.7 2.8v5.4h-1.7v-4.8c0-1.7-.6-3-2.3-3-1.7 0-2.6 1.5-2.6 3.1v4.7h-1.7zm11.5 0v-9.1h1.7v9.1h-1.7zm-.5-12.5c0-.8.6-1.4 1.4-1.4.8 0 1.4.6 1.4 1.4 0 .8-.6 1.4-1.4 1.4-.8 0-1.4-.7-1.4-1.4zm5.6 12.5v-9.1h1.7v1.6c.5-1.1 1.7-1.8 3.2-1.8 1.3 0 2.2.4 2.7 1.2.5.7.7 1.5.7 2.8v5.4h-1.7v-4.8c0-1.7-.6-3-2.3-3-1.7 0-2.6 1.5-2.6 3.1v4.7h-1.7zm15.6-7.8c-1.8 0-3 1.5-3 3.2 0 1.7 1.2 3.2 3 3.2 1.9 0 3.1-1.5 3.1-3.2-.1-1.7-1.3-3.2-3.1-3.2zm4.8-1.3v9.7c0 3.2-1.8 4.5-4.8 4.5-3.1 0-4.5-1.9-4.6-4h1.8c.1 1.3.9 2.4 2.8 2.4s3.1-.9 3.1-3v-2.2c-.6 1.1-1.9 1.8-3.2 1.8-2.8 0-4.7-2.2-4.7-4.8 0-2.6 1.9-4.8 4.7-4.8 1.3 0 2.6.7 3.2 1.8v-1.6h1.7zm12.4 4c1.4.4 2.7.8 2.7 2.6s-1.5 2.7-3.6 2.7c-2 0-3.8-1.1-3.8-3.3h1.7c0 1.4.9 1.9 2.1 1.9 1.1 0 1.8-.4 1.8-1.3 0-1-1.1-1.1-2.9-1.7-1.4-.4-2.5-.9-2.5-2.5 0-1.7 1.5-2.6 3.4-2.6 2 0 3.5 1.2 3.5 3.1H160c0-1.1-.6-1.7-1.8-1.7-1 0-1.7.4-1.7 1.3s.9 1 2.6 1.5zm9.1-2.9c-1.6 0-2.7.9-2.7 2.6h5.3c0-1.6-1.1-2.6-2.6-2.6zm4.2 3.9h-6.9c.1 1.5.8 2.8 2.8 2.8 1.4 0 2-.7 2.3-1.4h1.8c-.3 1.5-1.8 2.9-4.1 2.9-3.1 0-4.5-2.1-4.5-4.8 0-2.7 1.6-4.8 4.5-4.8 2.4 0 4.2 1.8 4.2 4.1 0 .3 0 .7-.1 1.2zm7.7 2.6v1.5c-.3.1-1 .1-1.6.1-1.1 0-2.9-.2-2.9-3.2v-4.6H174v-1.5h1.7v-3.1h1.7v3.1h2.4v1.5h-2.4v4.2c0 1.8.6 2 1.5 2h1.2z"/>
        <path id="Nearest-neighbors" class="st3" d="M491.6 315l6.3 10.8V315h1.8v14h-2l-6.3-10.8V329h-1.8v-14h2zm15.2 6c-1.6 0-2.7.9-2.7 2.6h5.3c-.1-1.6-1.2-2.6-2.6-2.6zm4.1 3.9H504c.1 1.5.8 2.8 2.8 2.8 1.4 0 2-.7 2.3-1.4h1.8c-.3 1.5-1.8 2.9-4.1 2.9-3.1 0-4.5-2.1-4.5-4.8 0-2.7 1.6-4.8 4.5-4.8 2.4 0 4.2 1.8 4.2 4.1 0 .3 0 .7-.1 1.2zm10-5h1.7v9.1h-1.7v-1.6c-.6 1.1-1.9 1.8-3.2 1.8-2.8 0-4.7-2.2-4.7-4.8 0-2.6 1.9-4.8 4.7-4.8 1.3 0 2.6.7 3.2 1.8v-1.5zm-3.1 7.8c1.9 0 3.1-1.5 3.1-3.2 0-1.7-1.2-3.2-3.1-3.2-1.8 0-3 1.5-3 3.2-.1 1.7 1.1 3.2 3 3.2zm13.7-7.8v1.6c-.4-.1-.5-.1-.9-.1-2 0-3 1.4-3 3.6v4h-1.7v-9.1h1.7v1.8c.5-1.1 1.7-1.9 3-1.9.4 0 .7 0 .9.1zm5.5 1.1c-1.6 0-2.7.9-2.7 2.6h5.3c-.1-1.6-1.2-2.6-2.6-2.6zm4.1 3.9h-6.9c.1 1.5.8 2.8 2.8 2.8 1.4 0 2-.7 2.3-1.4h1.8c-.3 1.5-1.8 2.9-4.1 2.9-3.1 0-4.5-2.1-4.5-4.8 0-2.7 1.6-4.8 4.5-4.8 2.4 0 4.2 1.8 4.2 4.1 0 .3 0 .7-.1 1.2zm6.7-1c1.4.4 2.7.8 2.7 2.6s-1.5 2.7-3.6 2.7c-2 0-3.8-1.1-3.8-3.3h1.7c0 1.4.9 1.9 2.1 1.9 1.1 0 1.8-.4 1.8-1.3 0-1-1.1-1.1-2.9-1.7-1.4-.4-2.5-.9-2.5-2.5 0-1.7 1.5-2.6 3.4-2.6 2 0 3.5 1.2 3.5 3.1h-1.7c0-1.1-.6-1.7-1.8-1.7-1 0-1.7.4-1.7 1.3.2.9 1.1 1 2.8 1.5zm10 3.6v1.5c-.3.1-1 .1-1.6.1-1.1 0-2.9-.2-2.9-3.2v-4.6h-1.7v-1.5h1.7v-3.1h1.7v3.1h2.4v1.5H555v4.2c0 1.8.6 2 1.5 2h1.3zm7.4 1.5v-9.1h1.7v1.6c.5-1.1 1.7-1.8 3.2-1.8 1.3 0 2.2.4 2.7 1.2.5.7.7 1.5.7 2.8v5.4h-1.7v-4.8c0-1.7-.6-3-2.3-3-1.7 0-2.6 1.5-2.6 3.1v4.7h-1.7zm15.2-8c-1.6 0-2.7.9-2.7 2.6h5.3c0-1.6-1.1-2.6-2.6-2.6zm4.2 3.9h-6.9c.1 1.5.8 2.8 2.8 2.8 1.4 0 2-.7 2.3-1.4h1.8c-.3 1.5-1.8 2.9-4.1 2.9-3.1 0-4.5-2.1-4.5-4.8 0-2.7 1.6-4.8 4.5-4.8 2.4 0 4.2 1.8 4.2 4.1 0 .3 0 .7-.1 1.2zm2.8 4.1v-9.1h1.7v9.1h-1.7zm-.5-12.5c0-.8.6-1.4 1.4-1.4.8 0 1.4.6 1.4 1.4 0 .8-.6 1.4-1.4 1.4-.8 0-1.4-.7-1.4-1.4zm9.6 4.7c-1.8 0-3 1.5-3 3.2 0 1.7 1.2 3.2 3 3.2 1.9 0 3.1-1.5 3.1-3.2 0-1.7-1.2-3.2-3.1-3.2zm4.8-1.3v9.7c0 3.2-1.8 4.5-4.8 4.5-3.1 0-4.5-1.9-4.6-4h1.8c.1 1.3.9 2.4 2.8 2.4s3.1-.9 3.1-3v-2.2c-.6 1.1-1.9 1.8-3.2 1.8-2.8 0-4.7-2.2-4.7-4.8 0-2.6 1.9-4.8 4.7-4.8 1.3 0 2.6.7 3.2 1.8v-1.6h1.7zm3.3 9.1v-14h1.7v6.5c.5-1.1 1.7-1.8 3.2-1.8 1.3 0 2.2.4 2.7 1.2.5.7.7 1.5.7 2.8v5.4h-1.7v-4.8c0-1.7-.6-3-2.3-3-1.7 0-2.6 1.5-2.6 3.1v4.7h-1.7zm13.3-1.6v1.6h-1.7v-14h1.7v6.5c.6-1.1 1.8-1.8 3.2-1.8 2.8 0 4.7 2.2 4.7 4.8 0 2.6-1.9 4.8-4.7 4.8-1.4-.1-2.6-.8-3.2-1.9zm3.1.3c1.8 0 3-1.5 3-3.2 0-1.7-1.2-3.2-3-3.2-1.9 0-3.1 1.5-3.1 3.2 0 1.7 1.2 3.2 3.1 3.2zm11.4 1.5c-2.9 0-4.8-2.2-4.8-4.8 0-2.6 1.9-4.8 4.8-4.8s4.8 2.2 4.8 4.8c0 2.6-1.9 4.8-4.8 4.8zm0-1.5c1.9 0 3.1-1.5 3.1-3.2 0-1.7-1.2-3.2-3.1-3.2-1.8 0-3 1.5-3 3.2-.1 1.7 1.1 3.2 3 3.2zm13-7.8v1.6c-.4-.1-.5-.1-.9-.1-2 0-3 1.4-3 3.6v4h-1.7v-9.1h1.7v1.8c.5-1.1 1.7-1.9 3-1.9.4 0 .7 0 .9.1zm5.5 4c1.4.4 2.7.8 2.7 2.6s-1.5 2.7-3.6 2.7c-2 0-3.8-1.1-3.8-3.3h1.7c0 1.4.9 1.9 2.1 1.9 1.1 0 1.8-.4 1.8-1.3 0-1-1.1-1.1-2.9-1.7-1.4-.4-2.5-.9-2.5-2.5 0-1.7 1.5-2.6 3.4-2.6 2 0 3.5 1.2 3.5 3.1h-1.7c0-1.1-.6-1.7-1.8-1.7-1 0-1.7.4-1.7 1.3.2.9 1.2 1 2.8 1.5z"/>
    </g>
</svg>
