<svg width="710" height="337" viewBox="0 0 710 337" xmlns="http://www.w3.org/2000/svg" xmlns:xlink="http://www.w3.org/1999/xlink">
    <title>
        1_1_example-3
    </title>
    <defs>
        <path d="M0 5.5c0 2.485 2.014 4.499 4.501 4.499C6.986 9.999 9 7.985 9 5.5S6.986.999 4.501.999C2.014.999 0 3.015 0 5.5z" id="a"/>
        <path d="M0 5.5c0 2.485 2.014 4.499 4.499 4.499C6.986 9.999 9 7.985 9 5.5S6.986.999 4.499.999C2.014.999 0 3.015 0 5.5z" id="c"/>
        <path id="e" d="M0 .066h5.115V5.4H0z"/>
        <path id="g" d="M.363.312h4.838v4.842H.363z"/>
    </defs>
    <g fill="none" fill-rule="evenodd">
        <path d="M312.374 128h89.248c20.711 0 37.5 16.79 37.5 37.5 0 .871-.03 1.742-.09 2.611l-7.679 110C429.981 297.761 413.641 313 393.944 313H320.35c-19.658 0-35.98-15.181-37.401-34.788l-7.976-110c-1.498-20.656 14.033-38.616 34.69-40.114.902-.065 1.806-.098 2.711-.098z" fill="#29264C"/>
        <path d="M484 336.867c-15.103-8.723-53.222-22.204-54.665-22.713-5.247-2.389-10.349-5.053-14.944-8.63-4.019-3.127-7.8-6.652-8.506-12.138-.555-4.303-.908-8.635-1.232-12.964-.152-2.038-.131-4.106.021-6.145.07-.92.434-2 1.039-2.666 3.257-3.59 6.29-7.279 9.024-11.347 6.649-9.892 11.808-20.383 15-31.866.183-.657.737-1.505 1.316-1.714 6.475-2.34 9.55-7.461 11.42-13.656.435-1.44 1.049-2.832 1.658-4.21 2.872-6.497 4.442-13.16 2.644-20.263-.999-3.947-2.15-7.821-4.784-11.072-.364-.45-.588-1.21-.52-1.782.533-4.442 1.144-8.874 1.748-13.307 1.012-7.426.498-14.85-.603-22.18-1.24-8.26-3.394-16.306-6.787-24.027-4.049-9.212-9.054-17.779-15.809-25.22-8.114-8.94-17.469-16.172-28.644-21.058-9.792-4.282-19.965-6.453-30.549-6.85-3.836-.144-7.728-.036-11.53.457-5.685.735-11.427 1.496-16.943 2.992-10.117 2.744-19.351 7.572-27.332 14.375-5 4.263-9.722 8.984-13.91 14.048-5.667 6.85-10.013 14.6-13.333 22.925-4.102 10.287-6.385 20.947-6.946 31.97-.382 7.499-.099 15.023 1.394 22.383.629 3.096.58 5.377-1.815 7.701-2.378 2.306-2.22 5.697-2.9 8.767-1.14 5.146-.825 10.149.697 15.022 1.447 4.63 3.294 9.157 5.278 13.588 1.793 4.006 4.486 7.408 8.814 8.928 1.451.51 2.048 1.337 2.396 2.688 2.645 10.255 7.42 19.62 12.788 28.597 3.014 5.038 7.364 9.264 11.024 13.927.651.83 1.25 2.014 1.22 3.016-.157 5.45-.492 10.897-.82 16.343-.251 4.175-1.736 7.804-4.674 10.874-5.462 5.708-12.283 9.24-19.301 12.481-.365.128-39.774 14.014-54.934 22.859l254-.133z" fill="#FFB3B3"/>
        <path d="M270.17 182.282l9.027 9.153c.776.786 2.042.795 2.829.02l.007-.008c7.846-7.819 12.691-17.985 14.535-30.498 2.932-19.901 26.812-16.16 34.856-31.499 5.007-9.548 12.36-7.955 22.062 4.78.335.44.962.524 1.401.19.245-.187.39-.475.394-.782.058-4.131 1.559-8.571 4.502-13.32 5.68-9.161 15.744-9.648 24.058-4.17 8.314 5.48 4.578 31.509 26.18 35.258 11.088 1.924 10.768 25.135 23.535 30.532 1.879.794 4.442-.631 7.688-4.276.116-.13.195-.288.231-.458 12.345-58.458 4.002-94.514-25.03-108.167-22.614-15.212-47.352-17.988-54.105-17.988-6.754 0-36.764-2.115-64.637 21.551-27.873 23.667-36.6 67.12-32.896 86.226 2.333 12.037 3.957 19.58 4.87 22.626.094.313.263.598.492.83z" fill="#29264C"/>
        <g transform="translate(326 180)">
            <mask id="b" fill="#fff">
                <use xlink:href="#a"/>
            </mask>
            <path fill="#29264C" mask="url(#b)" d="M-5 15h19V-4H-5z"/>
        </g>
        <g transform="translate(380 180)">
            <mask id="d" fill="#fff">
                <use xlink:href="#c"/>
            </mask>
            <path fill="#29264C" mask="url(#d)" d="M-5 15h19V-4H-5z"/>
        </g>
        <path d="M343.787 241.883c9.605.507 19.032-.64 28.201-3.418 3.536-1.071 2.024-6.4-1.539-5.322-8.715 2.643-17.532 3.705-26.662 3.222-3.721-.196-3.71 5.323 0 5.518M313.246 178.3c5.736-5.546 13.359-8.016 21.082-6.622 3.618.652 3.54-5.402-.103-6.058-9.83-1.773-15.564.142-22.912 7.248-2.723 2.634-.782 8.058 1.933 5.433M397.028 175.537c-6.512-4.348-14.466-5.538-21.97-3.098-3.515 1.142-4.301-4.536-.762-5.686 9.55-3.105 15.542-2.156 23.885 3.416 3.092 2.064 1.93 7.428-1.153 5.368" fill="#29264C"/>
        <path d="M492 336.86c-15.935-9.262-56.156-23.573-57.678-24.114-5.537-2.536-10.92-5.364-15.768-9.16-4.24-3.321-8.23-7.064-8.975-12.887-.585-4.568-3.096-12.858-3.437-17.454-.08-1.064-23.549 15.958-48.142 16.08-25.424.126-48.41-16.852-48.487-16.312-.886 6.18-1.04 9.108-2.255 14.925-1.215 5.816-1.831 8.285-4.932 11.544-5.763 6.06-12.96 9.81-20.365 13.25-.385.137-41.965 14.878-57.961 24.268l268-.14z" fill="#5C2C95"/>
        <g stroke="#6C89FF" stroke-width="5">
            <path d="M276.671 285.912H211v-61.587M503.958 222.283v65.671H442.37M440.329 52.088H506v61.587M213.042 115.717V50.046h61.588"/>
        </g>
        <path d="M365.612 211.892c-.49-1.065-1.619-1.863-3.14-1.511-2.423.559-6.43 2.353-8.84 1.112-2.225-1.145-3.104-2.825-6.026-2.436-2.288.305-4.629 1.916-5.343 4.078-1.742 5.27 5.595 6.166 9.278 5.79 4.213-.43 8.618-1.888 12.51-3.536.387-.106.713-.263.972-.467 1.157-.75 1.195-2.02.59-3.03" fill="#29264C" opacity=".55"/>
        <g transform="translate(349 208.534)">
            <mask id="f" fill="#fff">
                <use xlink:href="#e"/>
            </mask>
            <path d="M2.275.277C1.836-.033 1.19.013.748.32.305.624.056 1.147.009 1.67c-.047.523.09 1.05.298 1.536.335.78.882 1.505 1.653 1.902.771.398 1.785.41 2.479-.104.693-.514.918-1.59.366-2.244L2.275.277z" fill="#29264C" mask="url(#f)"/>
        </g>
        <g transform="translate(361.414 208.534)">
            <mask id="h" fill="#fff">
                <use xlink:href="#g"/>
            </mask>
            <path d="M.769.873C.254 1.707.227 2.8.699 3.657c.473.855 1.428 1.443 2.43 1.494.837.042 1.767-.366 2.01-1.142.286-.92-.468-1.811-1.164-2.496C3.335.883 2.548.2 1.645.327L.768.873z" fill="#29264C" mask="url(#h)"/>
        </g>
    </g>
</svg>
