<?xml version="1.0" encoding="UTF-8"?>
<svg width="807px" height="480px" viewBox="0 0 807 480" version="1.1" xmlns="http://www.w3.org/2000/svg" xmlns:xlink="http://www.w3.org/1999/xlink">
    <!-- Generator: Sketch 49 (51002) - http://www.bohemiancoding.com/sketch -->
    <title>Group</title>
    <desc>Created with Sketch.</desc>
    <defs></defs>
    <g id="Illustrations" stroke="none" stroke-width="1" fill="none" fill-rule="evenodd">
        <g id="Section-3-Copy-3" transform="translate(-315.000000, -691.000000)">
            <g id="Group" transform="translate(306.000000, 683.000000)">
                <rect id="Rectangle-9-Copy-7" fill="#FFC07F" transform="translate(316.750492, 149.469996) rotate(-10.000000) translate(-316.750492, -149.469996) " x="214.730994" y="115.611997" width="204.038995" height="67.7159982" rx="33.8579991"></rect>
                <path d="M246.605066,141.161851 L251.441271,141.161851 C255.807028,141.161851 258.290994,144.379715 258.290994,147.748123 C258.290994,151.11653 255.825846,154.334394 251.441271,154.334394 L246.605066,154.334394 L246.605066,141.161851 Z M251.290728,143.79636 L249.653569,143.79636 L249.653569,151.699886 L251.290728,151.699886 C253.755875,151.699886 255.186037,149.780458 255.186037,147.748123 C255.186037,145.715787 253.755875,143.79636 251.290728,143.79636 Z M268.338194,143.608181 L263.351446,143.608181 L263.351446,146.60023 L268.338194,146.60023 L268.338194,148.990105 L263.351446,148.990105 L263.351446,151.888065 L268.338194,151.888065 L268.338194,154.334394 L260.302943,154.334394 L260.302943,141.161851 L268.338194,141.161851 L268.338194,143.608181 Z M278.931114,143.608181 L273.944366,143.608181 L273.944366,146.60023 L278.931114,146.60023 L278.931114,148.990105 L273.944366,148.990105 L273.944366,151.888065 L278.931114,151.888065 L278.931114,154.334394 L270.895863,154.334394 L270.895863,141.161851 L278.931114,141.161851 L278.931114,143.608181 Z M281.488783,154.334394 L281.488783,141.161851 L287.002433,141.161851 C289.919211,141.161851 291.801002,143.363548 291.801002,145.922785 C291.801002,148.482022 289.919211,150.683718 287.002433,150.683718 L284.537286,150.683718 L284.537286,154.334394 L281.488783,154.334394 Z M286.626075,148.199753 C287.905693,148.199753 288.733682,147.145949 288.733682,145.922785 C288.733682,144.69962 287.905693,143.645816 286.626075,143.645816 L284.537286,143.645816 L284.537286,148.199753 L286.626075,148.199753 Z M301.357369,151.699886 L305.102135,151.699886 L305.102135,154.334394 L298.308866,154.334394 L298.308866,141.161851 L301.357369,141.161851 L301.357369,151.699886 Z M315.01761,143.608181 L310.030861,143.608181 L310.030861,146.60023 L315.01761,146.60023 L315.01761,148.990105 L310.030861,148.990105 L310.030861,151.888065 L315.01761,151.888065 L315.01761,154.334394 L306.982358,154.334394 L306.982358,141.161851 L315.01761,141.161851 L315.01761,143.608181 Z M324.086278,150.344995 L322.505573,144.925435 L320.887232,150.344995 L324.086278,150.344995 Z M328.659033,154.334394 L325.347079,154.334394 L324.838995,152.734871 L320.153333,152.734871 L319.64525,154.334394 L316.38975,154.334394 L321.094229,141.161851 L323.898099,141.161851 L328.659033,154.334394 Z M335.281372,148.199753 C336.56099,148.199753 337.388979,147.145949 337.388979,145.922785 C337.388979,144.69962 336.56099,143.645816 335.281372,143.645816 L333.192583,143.645816 L333.192583,148.199753 L335.281372,148.199753 Z M330.14408,154.334394 L330.14408,141.161851 L335.676548,141.161851 C338.593326,141.161851 340.475118,143.363548 340.475118,145.922785 C340.475118,147.766941 339.496586,149.4041 337.859427,150.175634 L340.493935,154.334394 L336.956167,154.334394 L334.622745,150.683718 L333.192583,150.683718 L333.192583,154.334394 L330.14408,154.334394 Z M345.780203,141.161851 L350.541136,149.742822 L350.541136,141.161851 L353.570821,141.161851 L353.570821,154.334394 L350.390593,154.334394 L345.648477,145.866331 L345.648477,154.334394 L342.599974,154.334394 L342.599974,141.161851 L345.780203,141.161851 Z M356.241397,154.334394 L356.241397,141.161851 L359.327536,141.161851 L359.327536,154.334394 L356.241397,154.334394 Z M365.178341,141.161851 L369.939274,149.742822 L369.939274,141.161851 L372.968959,141.161851 L372.968959,154.334394 L369.788731,154.334394 L365.046615,145.866331 L365.046615,154.334394 L361.998112,154.334394 L361.998112,141.161851 L365.178341,141.161851 Z M382.940888,149.648732 L382.940888,147.371764 L389.771792,147.371764 L389.771792,149.648732 L388.416902,149.648732 C387.89,152.640782 385.650668,154.673117 381.887084,154.673117 C377.464873,154.673117 374.980908,151.436435 374.980908,147.748123 C374.980908,144.1539 377.577781,140.823129 381.887084,140.823129 C385.349581,140.823129 387.739457,142.930735 387.965272,145.433519 L384.709772,145.433519 C384.521593,144.398533 383.467789,143.457637 381.868266,143.457637 C379.384301,143.457637 378.104683,145.546426 378.104683,147.766941 C378.104683,150.100363 379.403119,152.095062 382.131717,152.095062 C383.975873,152.095062 385.067313,150.965987 385.27431,149.648732 L382.940888,149.648732 Z" id="Deep-Learning" fill="#FCFBF8" transform="translate(318.188429, 147.748123) rotate(-10.000000) translate(-318.188429, -147.748123) "></path>
                <rect id="Rectangle-9-Copy-6" fill="#00B5AA" transform="translate(376.892990, 289.356992) rotate(-51.000000) translate(-376.892990, -289.356992) " x="326.105991" y="255.498993" width="101.573997" height="67.7159982" rx="33.8579991"></rect>
                <path d="M353.190025,279.285162 L358.02623,279.285162 C362.391987,279.285162 364.875952,282.503026 364.875952,285.871433 C364.875952,289.239841 362.410805,292.457705 358.02623,292.457705 L353.190025,292.457705 L353.190025,279.285162 Z M357.875687,281.91967 L356.238528,281.91967 L356.238528,289.823196 L357.875687,289.823196 C360.340834,289.823196 361.770996,287.903769 361.770996,285.871433 C361.770996,283.839098 360.340834,281.91967 357.875687,281.91967 Z M372.872,288.468306 L371.291295,283.048745 L369.672954,288.468306 L372.872,288.468306 Z M377.444754,292.457705 L374.1328,292.457705 L373.624716,290.858182 L368.939055,290.858182 L368.430971,292.457705 L365.175471,292.457705 L369.879951,279.285162 L372.683821,279.285162 L377.444754,292.457705 Z M379.833062,292.457705 L379.833062,281.91967 L376.85983,281.91967 L376.85983,279.285162 L385.873613,279.285162 L385.873613,281.91967 L382.881564,281.91967 L382.881564,292.457705 L379.833062,292.457705 Z M392.985219,288.468306 L391.404513,283.048745 L389.786172,288.468306 L392.985219,288.468306 Z M397.557973,292.457705 L394.246019,292.457705 L393.737935,290.858182 L389.052274,290.858182 L388.54419,292.457705 L385.28869,292.457705 L389.99317,279.285162 L392.797039,279.285162 L397.557973,292.457705 Z" id="Data" fill="#FCFBF8" transform="translate(375.373999, 285.871433) rotate(-51.000000) translate(-375.373999, -285.871433) "></path>
                <rect id="Rectangle-9-Copy-8" fill="#FF6279" transform="translate(147.460496, 317.868992) rotate(-47.000000) translate(-147.460496, -317.868992) " x="60.5879984" y="284.010992" width="173.744995" height="67.7159982" rx="33.8579991"></rect>
                <path d="M95.6272309,311.8256 L100.388164,320.406571 L100.388164,311.8256 L103.417849,311.8256 L103.417849,324.998143 L100.237621,324.998143 L95.4955055,316.53008 L95.4955055,324.998143 L92.4470026,324.998143 L92.4470026,311.8256 L95.6272309,311.8256 Z M112.599426,321.008744 L111.01872,315.589184 L109.400379,321.008744 L112.599426,321.008744 Z M117.17218,324.998143 L113.860226,324.998143 L113.352142,323.39862 L108.66648,323.39862 L108.158397,324.998143 L104.902897,324.998143 L109.607376,311.8256 L112.411246,311.8256 L117.17218,324.998143 Z M123.794519,318.863501 C125.074138,318.863501 125.902126,317.809698 125.902126,316.586533 C125.902126,315.363369 125.074138,314.309565 123.794519,314.309565 L121.70573,314.309565 L121.70573,318.863501 L123.794519,318.863501 Z M118.657227,324.998143 L118.657227,311.8256 L124.189695,311.8256 C127.106473,311.8256 128.988265,314.027296 128.988265,316.586533 C128.988265,318.430689 128.009733,320.067848 126.372574,320.839383 L129.007083,324.998143 L125.469314,324.998143 L123.135892,321.347467 L121.70573,321.347467 L121.70573,324.998143 L118.657227,324.998143 Z M136.250413,318.863501 C137.530032,318.863501 138.35802,317.809698 138.35802,316.586533 C138.35802,315.363369 137.530032,314.309565 136.250413,314.309565 L134.161624,314.309565 L134.161624,318.863501 L136.250413,318.863501 Z M131.113121,324.998143 L131.113121,311.8256 L136.645589,311.8256 C139.562367,311.8256 141.444159,314.027296 141.444159,316.586533 C141.444159,318.430689 140.465627,320.067848 138.828468,320.839383 L141.462977,324.998143 L137.925208,324.998143 L135.591786,321.347467 L134.161624,321.347467 L134.161624,324.998143 L131.113121,324.998143 Z M149.760111,325.336866 C145.375536,325.336866 142.778663,322.024912 142.778663,318.411871 C142.778663,314.798831 145.375536,311.486877 149.760111,311.486877 C154.125868,311.486877 156.722741,314.798831 156.722741,318.411871 C156.722741,322.024912 154.125868,325.336866 149.760111,325.336866 Z M149.760111,322.589449 C152.149986,322.589449 153.617784,320.575932 153.617784,318.411871 C153.617784,316.247811 152.149986,314.234293 149.760111,314.234293 C147.351417,314.234293 145.902437,316.247811 145.902437,318.411871 C145.902437,320.575932 147.351417,322.589449 149.760111,322.589449 Z M169.028091,324.998143 L166.412401,316.718259 L163.79671,324.998143 L161.293927,324.998143 L156.645901,311.8256 L159.863765,311.8256 L162.554727,320.463025 L165.226872,311.8256 L167.579112,311.8256 L170.270074,320.463025 L172.942218,311.8256 L176.160083,311.8256 L171.512057,324.998143 L169.028091,324.998143 Z M188.78377,321.008744 L187.203065,315.589184 L185.584724,321.008744 L188.78377,321.008744 Z M193.356524,324.998143 L190.04457,324.998143 L189.536487,323.39862 L184.850825,323.39862 L184.342741,324.998143 L181.087241,324.998143 L185.791721,311.8256 L188.595591,311.8256 L193.356524,324.998143 Z M194.841571,324.998143 L194.841571,311.8256 L197.92771,311.8256 L197.92771,324.998143 L194.841571,324.998143 Z" id="Narrow-AI" fill="#FCFBF8" transform="translate(145.187356, 318.411871) rotate(-47.000000) translate(-145.187356, -318.411871) "></path>
                <rect id="Rectangle-9-Copy-9" fill="#E15FBD" transform="translate(421.888489, 196.692995) rotate(-16.000000) translate(-421.888489, -196.692995) " x="299.375992" y="162.834996" width="245.024994" height="67.7159982" rx="33.8579991"></rect>
                <path d="M346.570162,188.90341 L346.570162,202.075953 L343.596931,202.075953 L343.596931,193.908976 L340.755425,202.075953 L338.497275,202.075953 L335.561679,193.908976 L335.561679,202.075953 L332.588448,202.075953 L332.588448,188.90341 L336.107399,188.90341 L339.62635,198.067736 L343.107665,188.90341 L346.570162,188.90341 Z M355.751738,198.086554 L354.171033,192.666994 L352.552692,198.086554 L355.751738,198.086554 Z M360.324492,202.075953 L357.012539,202.075953 L356.504455,200.47643 L351.818793,200.47643 L351.310709,202.075953 L348.055209,202.075953 L352.759689,188.90341 L355.563559,188.90341 L360.324492,202.075953 Z M370.860959,197.352656 L374.097641,197.352656 C373.589557,200.156525 371.162045,202.414676 367.530187,202.414676 C363.089158,202.414676 360.45465,199.177994 360.45465,195.470864 C360.45465,191.876641 363.051522,188.564688 367.360826,188.564688 C371.444314,188.564688 373.702464,191.011017 374.078823,194.021884 L370.898595,194.021884 C370.616326,192.478815 369.430797,191.312104 367.549005,191.312104 C364.97095,191.312104 363.559606,193.306803 363.559606,195.470864 C363.559606,197.785468 365.06504,199.66726 367.699548,199.66726 C369.186164,199.66726 370.503418,198.66991 370.860959,197.352656 Z M383.693211,202.075953 L383.693211,196.844572 L379.139275,196.844572 L379.139275,202.075953 L376.090772,202.075953 L376.090772,188.90341 L379.139275,188.90341 L379.139275,194.228881 L383.693211,194.228881 L383.693211,188.90341 L386.722896,188.90341 L386.722896,202.075953 L383.693211,202.075953 Z M389.393472,202.075953 L389.393472,188.90341 L392.479611,188.90341 L392.479611,202.075953 L389.393472,202.075953 Z M398.330416,188.90341 L403.091349,197.484381 L403.091349,188.90341 L406.121034,188.90341 L406.121034,202.075953 L402.940806,202.075953 L398.19869,193.60789 L398.19869,202.075953 L395.150187,202.075953 L395.150187,188.90341 L398.330416,188.90341 Z M416.826862,191.349739 L411.840113,191.349739 L411.840113,194.341789 L416.826862,194.341789 L416.826862,196.731664 L411.840113,196.731664 L411.840113,199.629624 L416.826862,199.629624 L416.826862,202.075953 L408.79161,202.075953 L408.79161,188.90341 L416.826862,188.90341 L416.826862,191.349739 Z M427.154763,199.441445 L430.899529,199.441445 L430.899529,202.075953 L424.10626,202.075953 L424.10626,188.90341 L427.154763,188.90341 L427.154763,199.441445 Z M440.815004,191.349739 L435.828255,191.349739 L435.828255,194.341789 L440.815004,194.341789 L440.815004,196.731664 L435.828255,196.731664 L435.828255,199.629624 L440.815004,199.629624 L440.815004,202.075953 L432.779752,202.075953 L432.779752,188.90341 L440.815004,188.90341 L440.815004,191.349739 Z M449.883672,198.086554 L448.302967,192.666994 L446.684626,198.086554 L449.883672,198.086554 Z M454.456427,202.075953 L451.144473,202.075953 L450.636389,200.47643 L445.950727,200.47643 L445.442644,202.075953 L442.187144,202.075953 L446.891623,188.90341 L449.695493,188.90341 L454.456427,202.075953 Z M461.078766,195.941312 C462.358384,195.941312 463.186373,194.887508 463.186373,193.664344 C463.186373,192.441179 462.358384,191.387375 461.078766,191.387375 L458.989977,191.387375 L458.989977,195.941312 L461.078766,195.941312 Z M455.941474,202.075953 L455.941474,188.90341 L461.473942,188.90341 C464.39072,188.90341 466.272512,191.105107 466.272512,193.664344 C466.272512,195.5085 465.29398,197.145658 463.656821,197.917193 L466.291329,202.075953 L462.753561,202.075953 L460.420139,198.425277 L458.989977,198.425277 L458.989977,202.075953 L455.941474,202.075953 Z M471.577597,188.90341 L476.33853,197.484381 L476.33853,188.90341 L479.368215,188.90341 L479.368215,202.075953 L476.187987,202.075953 L471.445871,193.60789 L471.445871,202.075953 L468.397368,202.075953 L468.397368,188.90341 L471.577597,188.90341 Z M482.038791,202.075953 L482.038791,188.90341 L485.12493,188.90341 L485.12493,202.075953 L482.038791,202.075953 Z M490.975734,188.90341 L495.736668,197.484381 L495.736668,188.90341 L498.766353,188.90341 L498.766353,202.075953 L495.586125,202.075953 L490.844009,193.60789 L490.844009,202.075953 L487.795506,202.075953 L487.795506,188.90341 L490.975734,188.90341 Z M508.738282,197.390291 L508.738282,195.113323 L515.569186,195.113323 L515.569186,197.390291 L514.214296,197.390291 C513.687394,200.382341 511.448062,202.414676 507.684478,202.414676 C503.262267,202.414676 500.778302,199.177994 500.778302,195.489682 C500.778302,191.895459 503.375175,188.564688 507.684478,188.564688 C511.146975,188.564688 513.536851,190.672294 513.762666,193.175078 L510.507166,193.175078 C510.318987,192.140092 509.265183,191.199196 507.66566,191.199196 C505.181695,191.199196 503.902077,193.287985 503.902077,195.5085 C503.902077,197.841921 505.200513,199.836621 507.929111,199.836621 C509.773267,199.836621 510.864707,198.707546 511.071704,197.390291 L508.738282,197.390291 Z" id="Machine-Learning" fill="#FCFBF8" transform="translate(424.078817, 195.489682) rotate(-16.000000) translate(-424.078817, -195.489682) "></path>
                <rect id="Rectangle-9-Copy-11" fill="#4844A3" transform="translate(202.256995, 212.730994) rotate(28.000000) translate(-202.256995, -212.730994) " x="82.8629978" y="178.872995" width="238.787994" height="67.7159982" rx="33.8579991"></rect>
                <path d="M115.484154,219.882731 L115.484154,206.710188 L118.570293,206.710188 L118.570293,219.882731 L115.484154,219.882731 Z M124.421098,206.710188 L129.182031,215.291159 L129.182031,206.710188 L132.211716,206.710188 L132.211716,219.882731 L129.031488,219.882731 L124.289372,211.414667 L124.289372,219.882731 L121.240869,219.882731 L121.240869,206.710188 L124.421098,206.710188 Z M136.876992,219.882731 L136.876992,209.344696 L133.90376,209.344696 L133.90376,206.710188 L142.917544,206.710188 L142.917544,209.344696 L139.925495,209.344696 L139.925495,219.882731 L136.876992,219.882731 Z M152.644839,209.156517 L147.658091,209.156517 L147.658091,212.148566 L152.644839,212.148566 L152.644839,214.538442 L147.658091,214.538442 L147.658091,217.436401 L152.644839,217.436401 L152.644839,219.882731 L144.609588,219.882731 L144.609588,206.710188 L152.644839,206.710188 L152.644839,209.156517 Z M158.251011,217.248222 L161.995777,217.248222 L161.995777,219.882731 L155.202508,219.882731 L155.202508,206.710188 L158.251011,206.710188 L158.251011,217.248222 Z M166.924504,217.248222 L170.669269,217.248222 L170.669269,219.882731 L163.876001,219.882731 L163.876001,206.710188 L166.924504,206.710188 L166.924504,217.248222 Z M172.549493,219.882731 L172.549493,206.710188 L175.635632,206.710188 L175.635632,219.882731 L172.549493,219.882731 Z M185.607561,215.197069 L185.607561,212.920101 L192.438465,212.920101 L192.438465,215.197069 L191.083575,215.197069 C190.556673,218.189118 188.317341,220.221453 184.553757,220.221453 C180.131546,220.221453 177.647581,216.984771 177.647581,213.296459 C177.647581,209.702237 180.244454,206.371465 184.553757,206.371465 C188.016254,206.371465 190.40613,208.479072 190.631945,210.981855 L187.376445,210.981855 C187.188266,209.94687 186.134462,209.005974 184.534939,209.005974 C182.050974,209.005974 180.771355,211.094763 180.771355,213.315277 C180.771355,215.648699 182.069792,217.643398 184.79839,217.643398 C186.642546,217.643398 187.733985,216.514323 187.940983,215.197069 L185.607561,215.197069 Z M202.203397,209.156517 L197.216648,209.156517 L197.216648,212.148566 L202.203397,212.148566 L202.203397,214.538442 L197.216648,214.538442 L197.216648,217.436401 L202.203397,217.436401 L202.203397,219.882731 L194.168145,219.882731 L194.168145,206.710188 L202.203397,206.710188 L202.203397,209.156517 Z M207.941294,206.710188 L212.702227,215.291159 L212.702227,206.710188 L215.731912,206.710188 L215.731912,219.882731 L212.551684,219.882731 L207.809568,211.414667 L207.809568,219.882731 L204.761066,219.882731 L204.761066,206.710188 L207.941294,206.710188 Z M220.397188,219.882731 L220.397188,209.344696 L217.423957,209.344696 L217.423957,206.710188 L226.43774,206.710188 L226.43774,209.344696 L223.445691,209.344696 L223.445691,219.882731 L220.397188,219.882731 Z M239.362514,215.893332 L237.781809,210.473771 L236.163468,215.893332 L239.362514,215.893332 Z M243.935268,219.882731 L240.623314,219.882731 L240.115231,218.283208 L235.429569,218.283208 L234.921485,219.882731 L231.665985,219.882731 L236.370465,206.710188 L239.174335,206.710188 L243.935268,219.882731 Z M252.100677,215.197069 L252.100677,212.920101 L258.931581,212.920101 L258.931581,215.197069 L257.576691,215.197069 C257.049789,218.189118 254.810457,220.221453 251.046873,220.221453 C246.624662,220.221453 244.140697,216.984771 244.140697,213.296459 C244.140697,209.702237 246.73757,206.371465 251.046873,206.371465 C254.50937,206.371465 256.899246,208.479072 257.125061,210.981855 L253.869561,210.981855 C253.681382,209.94687 252.627578,209.005974 251.028055,209.005974 C248.54409,209.005974 247.264472,211.094763 247.264472,213.315277 C247.264472,215.648699 248.562908,217.643398 251.291506,217.643398 C253.135662,217.643398 254.227102,216.514323 254.434099,215.197069 L252.100677,215.197069 Z M268.696513,209.156517 L263.709764,209.156517 L263.709764,212.148566 L268.696513,212.148566 L268.696513,214.538442 L263.709764,214.538442 L263.709764,217.436401 L268.696513,217.436401 L268.696513,219.882731 L260.661262,219.882731 L260.661262,206.710188 L268.696513,206.710188 L268.696513,209.156517 Z M274.43441,206.710188 L279.195343,215.291159 L279.195343,206.710188 L282.225028,206.710188 L282.225028,219.882731 L279.0448,219.882731 L274.302685,211.414667 L274.302685,219.882731 L271.254182,219.882731 L271.254182,206.710188 L274.43441,206.710188 Z M286.890304,219.882731 L286.890304,209.344696 L283.917073,209.344696 L283.917073,206.710188 L292.930856,206.710188 L292.930856,209.344696 L289.938807,209.344696 L289.938807,219.882731 L286.890304,219.882731 Z" id="Intelligent-Agent" fill="#FCFBF8" transform="translate(204.207505, 213.296459) rotate(28.000000) translate(-204.207505, -213.296459) "></path>
                <rect id="Rectangle-9-Copy-5" fill="#FF6279" transform="translate(487.653020, 319.882738) rotate(11.000000) translate(-487.653020, -319.882738) " x="409.245023" y="286.024739" width="156.815996" height="67.7159982" rx="33.8579991"></rect>
                <path d="M449.446875,315.768027 L444.460127,315.768027 L444.460127,318.760076 L449.446875,318.760076 L449.446875,321.149952 L444.460127,321.149952 L444.460127,324.047911 L449.446875,324.047911 L449.446875,326.494241 L441.411624,326.494241 L441.411624,313.321698 L449.446875,313.321698 L449.446875,315.768027 Z M465.986257,313.321698 L465.986257,326.494241 L463.013026,326.494241 L463.013026,318.327264 L460.171521,326.494241 L457.91337,326.494241 L454.977775,318.327264 L454.977775,326.494241 L452.004544,326.494241 L452.004544,313.321698 L455.523495,313.321698 L459.042445,322.486024 L462.52376,313.321698 L465.986257,313.321698 Z M468.581562,326.494241 L468.581562,313.321698 L474.038759,313.321698 C477.651799,313.321698 478.310426,315.504576 478.310426,316.878284 C478.310426,318.515443 477.068443,319.569247 476.01464,319.81388 C476.861446,319.832698 478.423334,320.830047 478.423334,322.805929 C478.423334,324.179637 477.708253,326.494241 474.095212,326.494241 L468.581562,326.494241 Z M471.611247,318.684805 L473.436585,318.684805 C474.923201,318.684805 475.261923,317.762727 475.261923,317.104099 C475.261923,316.520744 474.979654,315.56103 473.436585,315.56103 L471.611247,315.56103 L471.611247,318.684805 Z M473.530675,320.924137 L471.611247,320.924137 L471.611247,324.160819 L473.511857,324.160819 C474.998472,324.160819 475.337195,323.276377 475.337195,322.542478 C475.337195,321.940304 474.998472,320.924137 473.530675,320.924137 Z M487.040372,326.832963 C482.655797,326.832963 480.058924,323.52101 480.058924,319.907969 C480.058924,316.294929 482.655797,312.982975 487.040372,312.982975 C491.406129,312.982975 494.003002,316.294929 494.003002,319.907969 C494.003002,323.52101 491.406129,326.832963 487.040372,326.832963 Z M487.040372,324.085547 C489.430248,324.085547 490.898046,322.07203 490.898046,319.907969 C490.898046,317.743909 489.430248,315.730391 487.040372,315.730391 C484.631679,315.730391 483.182699,317.743909 483.182699,319.907969 C483.182699,322.07203 484.631679,324.085547 487.040372,324.085547 Z M496.014951,313.321698 L500.851157,313.321698 C505.216914,313.321698 507.700879,316.539562 507.700879,319.907969 C507.700879,323.276377 505.235732,326.494241 500.851157,326.494241 L496.014951,326.494241 L496.014951,313.321698 Z M500.700613,315.956206 L499.063454,315.956206 L499.063454,323.859732 L500.700613,323.859732 C503.165761,323.859732 504.595922,321.940304 504.595922,319.907969 C504.595922,317.875634 503.165761,315.956206 500.700613,315.956206 Z M509.712828,326.494241 L509.712828,313.321698 L512.798967,313.321698 L512.798967,326.494241 L509.712828,326.494241 Z M523.504794,315.768027 L518.518046,315.768027 L518.518046,318.760076 L523.504794,318.760076 L523.504794,321.149952 L518.518046,321.149952 L518.518046,324.047911 L523.504794,324.047911 L523.504794,326.494241 L515.469543,326.494241 L515.469543,313.321698 L523.504794,313.321698 L523.504794,315.768027 Z M526.062463,313.321698 L530.898668,313.321698 C535.264426,313.321698 537.748391,316.539562 537.748391,319.907969 C537.748391,323.276377 535.283243,326.494241 530.898668,326.494241 L526.062463,326.494241 L526.062463,313.321698 Z M530.748125,315.956206 L529.110966,315.956206 L529.110966,323.859732 L530.748125,323.859732 C533.213272,323.859732 534.643434,321.940304 534.643434,319.907969 C534.643434,317.875634 533.213272,315.956206 530.748125,315.956206 Z" id="Embodied" fill="#FCFBF8" transform="translate(489.580007, 319.907969) rotate(11.000000) translate(-489.580007, -319.907969) "></path>
                <rect id="Rectangle-9-Copy-2" fill="#00B5AA" transform="translate(529.590374, 255.947100) rotate(7.000000) translate(-529.590374, -255.947100) " x="447.172876" y="222.089101" width="164.834996" height="67.7159982" rx="33.8579991"></rect>
                <path d="M482.712507,256.693845 L482.712507,254.416877 L489.543412,254.416877 L489.543412,256.693845 L488.188522,256.693845 C487.66162,259.685894 485.422287,261.71823 481.658704,261.71823 C477.236493,261.71823 474.752528,258.481548 474.752528,254.793236 C474.752528,251.199013 477.3494,247.868241 481.658704,247.868241 C485.121201,247.868241 487.511076,249.975848 487.736891,252.478631 L484.481392,252.478631 C484.293212,251.443646 483.239409,250.50275 481.639886,250.50275 C479.155921,250.50275 477.876302,252.591539 477.876302,254.812053 C477.876302,257.145475 479.174738,259.140175 481.903337,259.140175 C483.747493,259.140175 484.838932,258.0111 485.045929,256.693845 L482.712507,256.693845 Z M499.308343,250.653293 L494.321595,250.653293 L494.321595,253.645342 L499.308343,253.645342 L499.308343,256.035218 L494.321595,256.035218 L494.321595,258.933178 L499.308343,258.933178 L499.308343,261.379507 L491.273092,261.379507 L491.273092,248.206964 L499.308343,248.206964 L499.308343,250.653293 Z M505.04624,248.206964 L509.807174,256.787935 L509.807174,248.206964 L512.836859,248.206964 L512.836859,261.379507 L509.656631,261.379507 L504.914515,252.911444 L504.914515,261.379507 L501.866012,261.379507 L501.866012,248.206964 L505.04624,248.206964 Z M523.542686,250.653293 L518.555938,250.653293 L518.555938,253.645342 L523.542686,253.645342 L523.542686,256.035218 L518.555938,256.035218 L518.555938,258.933178 L523.542686,258.933178 L523.542686,261.379507 L515.507435,261.379507 L515.507435,248.206964 L523.542686,248.206964 L523.542686,250.653293 Z M531.237647,255.244866 C532.517266,255.244866 533.345254,254.191062 533.345254,252.967897 C533.345254,251.744733 532.517266,250.690929 531.237647,250.690929 L529.148858,250.690929 L529.148858,255.244866 L531.237647,255.244866 Z M526.100355,261.379507 L526.100355,248.206964 L531.632823,248.206964 C534.549601,248.206964 536.431393,250.40866 536.431393,252.967897 C536.431393,254.812053 535.452861,256.449212 533.815702,257.220747 L536.450211,261.379507 L532.912442,261.379507 L530.57902,257.728831 L529.148858,257.728831 L529.148858,261.379507 L526.100355,261.379507 Z M545.067249,257.390108 L543.486544,251.970548 L541.868203,257.390108 L545.067249,257.390108 Z M549.640004,261.379507 L546.32805,261.379507 L545.819966,259.779984 L541.134304,259.779984 L540.62622,261.379507 L537.370721,261.379507 L542.0752,248.206964 L544.87907,248.206964 L549.640004,261.379507 Z M554.173554,258.744998 L557.91832,258.744998 L557.91832,261.379507 L551.125051,261.379507 L551.125051,248.206964 L554.173554,248.206964 L554.173554,258.744998 Z M571.031273,257.390108 L569.450568,251.970548 L567.832227,257.390108 L571.031273,257.390108 Z M575.604027,261.379507 L572.292073,261.379507 L571.78399,259.779984 L567.098328,259.779984 L566.590244,261.379507 L563.334744,261.379507 L568.039224,248.206964 L570.843094,248.206964 L575.604027,261.379507 Z M577.089074,261.379507 L577.089074,248.206964 L580.175213,248.206964 L580.175213,261.379507 L577.089074,261.379507 Z" id="General-AI" fill="#FCFBF8" transform="translate(527.463870, 254.793236) rotate(7.000000) translate(-527.463870, -254.793236) "></path>
                <rect id="Rectangle-9-Copy-12" fill="#FFC07F" transform="translate(255.716993, 321.432991) rotate(-3.000000) translate(-255.716993, -321.432991) " x="199.583995" y="287.574992" width="112.265997" height="67.7159982" rx="33.8579991"></rect>
                <path d="M229.508197,321.819302 C230.787816,321.819302 231.615804,320.765499 231.615804,319.542334 C231.615804,318.31917 230.787816,317.265366 229.508197,317.265366 L227.419408,317.265366 L227.419408,321.819302 L229.508197,321.819302 Z M224.370905,327.953944 L224.370905,314.781401 L229.903374,314.781401 C232.820151,314.781401 234.701943,316.983097 234.701943,319.542334 C234.701943,321.38649 233.723411,323.023649 232.086252,323.795184 L234.720761,327.953944 L231.182992,327.953944 L228.84957,324.303268 L227.419408,324.303268 L227.419408,327.953944 L224.370905,327.953944 Z M243.017895,328.292667 C238.63332,328.292667 236.036447,324.980713 236.036447,321.367672 C236.036447,317.754632 238.63332,314.442678 243.017895,314.442678 C247.383652,314.442678 249.980525,317.754632 249.980525,321.367672 C249.980525,324.980713 247.383652,328.292667 243.017895,328.292667 Z M243.017895,325.54525 C245.40777,325.54525 246.875568,323.531733 246.875568,321.367672 C246.875568,319.203612 245.40777,317.190094 243.017895,317.190094 C240.609201,317.190094 239.160221,319.203612 239.160221,321.367672 C239.160221,323.531733 240.609201,325.54525 243.017895,325.54525 Z M251.917202,327.953944 L251.917202,314.781401 L257.374399,314.781401 C260.987439,314.781401 261.646066,316.964279 261.646066,318.337987 C261.646066,319.975146 260.404084,321.02895 259.35028,321.273583 C260.197086,321.292401 261.758974,322.28975 261.758974,324.265632 C261.758974,325.63934 261.043893,327.953944 257.430852,327.953944 L251.917202,327.953944 Z M254.946887,320.144508 L256.772225,320.144508 C258.258841,320.144508 258.597563,319.22243 258.597563,318.563803 C258.597563,317.980447 258.315295,317.020733 256.772225,317.020733 L254.946887,317.020733 L254.946887,320.144508 Z M256.866315,322.38384 L254.946887,322.38384 L254.946887,325.620522 L256.847497,325.620522 C258.334112,325.620522 258.672835,324.73608 258.672835,324.002181 C258.672835,323.400008 258.334112,322.38384 256.866315,322.38384 Z M270.376012,328.292667 C265.991437,328.292667 263.394565,324.980713 263.394565,321.367672 C263.394565,317.754632 265.991437,314.442678 270.376012,314.442678 C274.74177,314.442678 277.338642,317.754632 277.338642,321.367672 C277.338642,324.980713 274.74177,328.292667 270.376012,328.292667 Z M270.376012,325.54525 C272.765888,325.54525 274.233686,323.531733 274.233686,321.367672 C274.233686,319.203612 272.765888,317.190094 270.376012,317.190094 C267.967319,317.190094 266.518339,319.203612 266.518339,321.367672 C266.518339,323.531733 267.967319,325.54525 270.376012,325.54525 Z M280.498485,327.953944 L280.498485,317.415909 L277.525253,317.415909 L277.525253,314.781401 L286.539036,314.781401 L286.539036,317.415909 L283.546987,317.415909 L283.546987,327.953944 L280.498485,327.953944 Z" id="Robot" fill="#FCFBF8" transform="translate(255.454971, 321.367672) rotate(-3.000000) translate(-255.454971, -321.367672) "></path>
                <rect id="Rectangle-9-Copy-4" fill="#8A8ED8" transform="translate(600.533984, 420.333989) rotate(23.000000) translate(-600.533984, -420.333989) " x="511.433986" y="386.47599" width="178.199995" height="67.7159982" rx="33.8579991"></rect>
                <path d="M548.419821,421.197315 L546.839116,415.777755 L545.220775,421.197315 L548.419821,421.197315 Z M552.992575,425.186714 L549.680621,425.186714 L549.172538,423.587191 L544.486876,423.587191 L543.978792,425.186714 L540.723292,425.186714 L545.427772,412.014171 L548.231642,412.014171 L552.992575,425.186714 Z M557.526125,422.552205 L561.270891,422.552205 L561.270891,425.186714 L554.477623,425.186714 L554.477623,412.014171 L557.526125,412.014171 L557.526125,422.552205 Z M569.511572,420.501052 L569.511572,418.224084 L576.342476,418.224084 L576.342476,420.501052 L574.987586,420.501052 C574.460684,423.493101 572.221352,425.525437 568.457768,425.525437 C564.035557,425.525437 561.551592,422.288755 561.551592,418.600443 C561.551592,415.00622 564.148465,411.675448 568.457768,411.675448 C571.920265,411.675448 574.310141,413.783055 574.535956,416.285839 L571.280456,416.285839 C571.092277,415.250853 570.038473,414.309957 568.43895,414.309957 C565.954985,414.309957 564.675366,416.398746 564.675366,418.61926 C564.675366,420.952682 565.973803,422.947382 568.702401,422.947382 C570.546557,422.947382 571.637996,421.818307 571.844994,420.501052 L569.511572,420.501052 Z M584.394977,425.525437 C580.010402,425.525437 577.413529,422.213483 577.413529,418.600443 C577.413529,414.987402 580.010402,411.675448 584.394977,411.675448 C588.760734,411.675448 591.357607,414.987402 591.357607,418.600443 C591.357607,422.213483 588.760734,425.525437 584.394977,425.525437 Z M584.394977,422.77802 C586.784853,422.77802 588.252651,420.764503 588.252651,418.600443 C588.252651,416.436382 586.784853,414.422865 584.394977,414.422865 C581.986284,414.422865 580.537304,416.436382 580.537304,418.600443 C580.537304,420.764503 581.986284,422.77802 584.394977,422.77802 Z M598.506848,419.052073 C599.786467,419.052073 600.614455,417.998269 600.614455,416.775104 C600.614455,415.55194 599.786467,414.498136 598.506848,414.498136 L596.418059,414.498136 L596.418059,419.052073 L598.506848,419.052073 Z M593.369556,425.186714 L593.369556,412.014171 L598.902024,412.014171 C601.818802,412.014171 603.700594,414.215867 603.700594,416.775104 C603.700594,418.61926 602.722062,420.256419 601.084903,421.027954 L603.719412,425.186714 L600.181643,425.186714 L597.848221,421.536038 L596.418059,421.536038 L596.418059,425.186714 L593.369556,425.186714 Z M605.82545,425.186714 L605.82545,412.014171 L608.911589,412.014171 L608.911589,425.186714 L605.82545,425.186714 Z M613.576865,425.186714 L613.576865,414.64868 L610.603634,414.64868 L610.603634,412.014171 L619.617417,412.014171 L619.617417,414.64868 L616.625368,414.64868 L616.625368,425.186714 L613.576865,425.186714 Z M628.9119,425.186714 L628.9119,419.955333 L624.357964,419.955333 L624.357964,425.186714 L621.309461,425.186714 L621.309461,412.014171 L624.357964,412.014171 L624.357964,417.339642 L628.9119,417.339642 L628.9119,412.014171 L631.941585,412.014171 L631.941585,425.186714 L628.9119,425.186714 Z M648.593875,412.014171 L648.593875,425.186714 L645.620644,425.186714 L645.620644,417.019737 L642.779138,425.186714 L640.520988,425.186714 L637.585393,417.019737 L637.585393,425.186714 L634.612162,425.186714 L634.612162,412.014171 L638.131113,412.014171 L641.650063,421.178497 L645.131378,412.014171 L648.593875,412.014171 Z M650.718732,420.820957 L653.767235,420.820957 C653.767235,422.251119 654.632859,423.097925 655.874842,423.097925 C656.853374,423.097925 657.60609,422.476934 657.60609,421.554856 C657.60609,420.501052 656.70283,420.143512 655.554937,419.7107 C653.127426,418.826258 651.09509,418.054723 651.09509,415.382578 C651.09509,412.955067 653.315605,411.675448 655.724298,411.675448 C658.848073,411.675448 660.40996,413.632512 660.40996,415.871844 L657.361457,415.871844 C657.361457,414.705133 656.778102,413.971235 655.724298,413.971235 C654.858674,413.971235 654.124775,414.422865 654.124775,415.326125 C654.124775,416.191749 654.89631,416.662197 656.006567,417.057373 C658.170628,417.81009 660.635775,418.675714 660.635775,421.310223 C660.635775,424.020003 658.584622,425.525437 655.686663,425.525437 C652.863975,425.525437 650.718732,423.831824 650.718732,420.820957 Z" id="Algorithms" fill="#FCFBF8" transform="translate(600.679534, 418.600443) rotate(23.000000) translate(-600.679534, -418.600443) "></path>
                <rect id="Rectangle-9-Copy" fill="#8A8ED8" transform="translate(132.009258, 420.248996) rotate(-20.000000) translate(-132.009258, -420.248996) " x="4.15076187" y="386.390997" width="255.716993" height="67.7159982" rx="33.8579991"></rect>
                <path d="M37.3539174,420.857607 L40.4024202,420.857607 C40.4024202,422.287769 41.2680445,423.134575 42.5100271,423.134575 C43.4885589,423.134575 44.2412756,422.513584 44.2412756,421.591506 C44.2412756,420.537702 43.3380155,420.180162 42.1901225,419.74735 C39.762611,418.862908 37.7302757,418.091373 37.7302757,415.419229 C37.7302757,412.991717 39.9507901,411.712099 42.3594838,411.712099 C45.4832583,411.712099 47.0451455,413.669162 47.0451455,415.908494 L43.9966427,415.908494 C43.9966427,414.741783 43.4132872,414.007885 42.3594838,414.007885 C41.4938595,414.007885 40.7599607,414.459515 40.7599607,415.362775 C40.7599607,416.228399 41.5314953,416.698847 42.6417525,417.094023 C44.8058132,417.84674 47.2709606,418.712364 47.2709606,421.346873 C47.2709606,424.056653 45.2198074,425.562087 42.3218479,425.562087 C39.4991601,425.562087 37.3539174,423.868474 37.3539174,420.857607 Z M57.4875223,414.49715 L52.5007738,414.49715 L52.5007738,417.4892 L57.4875223,417.4892 L57.4875223,419.879075 L52.5007738,419.879075 L52.5007738,422.777035 L57.4875223,422.777035 L57.4875223,425.223364 L49.452271,425.223364 L49.452271,412.050821 L57.4875223,412.050821 L57.4875223,414.49715 Z M63.2254194,412.050821 L67.9863528,420.631792 L67.9863528,412.050821 L71.0160378,412.050821 L71.0160378,425.223364 L67.8358095,425.223364 L63.093694,416.755301 L63.093694,425.223364 L60.0451911,425.223364 L60.0451911,412.050821 L63.2254194,412.050821 Z M75.6813135,425.223364 L75.6813135,414.68533 L72.7080823,414.68533 L72.7080823,412.050821 L81.7218654,412.050821 L81.7218654,414.68533 L78.7298163,414.68533 L78.7298163,425.223364 L75.6813135,425.223364 Z M83.41391,425.223364 L83.41391,412.050821 L86.5000486,412.050821 L86.5000486,425.223364 L83.41391,425.223364 Z M103.152339,412.050821 L103.152339,425.223364 L100.179107,425.223364 L100.179107,417.056387 L97.3376017,425.223364 L95.0794515,425.223364 L92.1438561,417.056387 L92.1438561,425.223364 L89.170625,425.223364 L89.170625,412.050821 L92.6895758,412.050821 L96.2085266,421.215148 L99.6898416,412.050821 L103.152339,412.050821 Z M113.858166,414.49715 L108.871418,414.49715 L108.871418,417.4892 L113.858166,417.4892 L113.858166,419.879075 L108.871418,419.879075 L108.871418,422.777035 L113.858166,422.777035 L113.858166,425.223364 L105.822915,425.223364 L105.822915,412.050821 L113.858166,412.050821 L113.858166,414.49715 Z M119.596063,412.050821 L124.356997,420.631792 L124.356997,412.050821 L127.386682,412.050821 L127.386682,425.223364 L124.206453,425.223364 L119.464338,416.755301 L119.464338,425.223364 L116.415835,425.223364 L116.415835,412.050821 L119.596063,412.050821 Z M132.051957,425.223364 L132.051957,414.68533 L129.078726,414.68533 L129.078726,412.050821 L138.092509,412.050821 L138.092509,414.68533 L135.10046,414.68533 L135.10046,425.223364 L132.051957,425.223364 Z M151.017283,421.233965 L149.436578,415.814405 L147.818237,421.233965 L151.017283,421.233965 Z M155.590038,425.223364 L152.278084,425.223364 L151.77,423.623841 L147.084338,423.623841 L146.576254,425.223364 L143.320754,425.223364 L148.025234,412.050821 L150.829104,412.050821 L155.590038,425.223364 Z M160.255313,412.050821 L165.016247,420.631792 L165.016247,412.050821 L168.045932,412.050821 L168.045932,425.223364 L164.865703,425.223364 L160.123588,416.755301 L160.123588,425.223364 L157.075085,425.223364 L157.075085,412.050821 L160.255313,412.050821 Z M177.227508,421.233965 L175.646803,415.814405 L174.028462,421.233965 L177.227508,421.233965 Z M181.800262,425.223364 L178.488308,425.223364 L177.980225,423.623841 L173.294563,423.623841 L172.786479,425.223364 L169.530979,425.223364 L174.235459,412.050821 L177.039329,412.050821 L181.800262,425.223364 Z M186.333812,422.588856 L190.078578,422.588856 L190.078578,425.223364 L183.28531,425.223364 L183.28531,412.050821 L186.333812,412.050821 L186.333812,422.588856 Z M201.443033,412.050821 L194.913215,425.223364 L191.544808,425.223364 L193.972319,420.274252 L189.305475,412.050821 L192.862062,412.050821 L195.665932,417.225749 L198.074626,412.050821 L201.443033,412.050821 Z M201.046289,420.857607 L204.094791,420.857607 C204.094791,422.287769 204.960416,423.134575 206.202398,423.134575 C207.18093,423.134575 207.933647,422.513584 207.933647,421.591506 C207.933647,420.537702 207.030387,420.180162 205.882494,419.74735 C203.454982,418.862908 201.422647,418.091373 201.422647,415.419229 C201.422647,412.991717 203.643161,411.712099 206.051855,411.712099 C209.17563,411.712099 210.737517,413.669162 210.737517,415.908494 L207.689014,415.908494 C207.689014,414.741783 207.105658,414.007885 206.051855,414.007885 C205.186231,414.007885 204.452332,414.459515 204.452332,415.362775 C204.452332,416.228399 205.223867,416.698847 206.334124,417.094023 C208.498184,417.84674 210.963332,418.712364 210.963332,421.346873 C210.963332,424.056653 208.912179,425.562087 206.014219,425.562087 C203.191531,425.562087 201.046289,423.868474 201.046289,420.857607 Z M213.144642,425.223364 L213.144642,412.050821 L216.230781,412.050821 L216.230781,425.223364 L213.144642,425.223364 Z M218.355638,420.857607 L221.40414,420.857607 C221.40414,422.287769 222.269765,423.134575 223.511747,423.134575 C224.490279,423.134575 225.242996,422.513584 225.242996,421.591506 C225.242996,420.537702 224.339736,420.180162 223.191843,419.74735 C220.764331,418.862908 218.731996,418.091373 218.731996,415.419229 C218.731996,412.991717 220.95251,411.712099 223.361204,411.712099 C226.484978,411.712099 228.046866,413.669162 228.046866,415.908494 L224.998363,415.908494 C224.998363,414.741783 224.415007,414.007885 223.361204,414.007885 C222.49558,414.007885 221.761681,414.459515 221.761681,415.362775 C221.761681,416.228399 222.533216,416.698847 223.643473,417.094023 C225.807533,417.84674 228.272681,418.712364 228.272681,421.346873 C228.272681,424.056653 226.221528,425.562087 223.323568,425.562087 C220.50088,425.562087 218.355638,423.868474 218.355638,420.857607 Z" id="Sentiment-Analysis" fill="#FCFBF8" transform="translate(132.813299, 418.637093) rotate(-20.000000) translate(-132.813299, -418.637093) "></path>
                <rect id="Rectangle-9-Copy-10" fill="#177CBF" transform="translate(405.850489, 73.734998) rotate(17.000000) translate(-405.850489, -73.734998) " x="264.626993" y="39.8769989" width="282.446993" height="67.7159982" rx="33.8579991"></rect>
                <path d="M300.122356,78.761467 L300.122356,65.5889238 L305.636006,65.5889238 C308.552784,65.5889238 310.434575,67.7906203 310.434575,70.3498573 C310.434575,72.9090942 308.552784,75.1107907 305.636006,75.1107907 L303.170859,75.1107907 L303.170859,78.761467 L300.122356,78.761467 Z M305.259648,72.6268254 C306.539266,72.6268254 307.367255,71.573022 307.367255,70.3498573 C307.367255,69.1266925 306.539266,68.0728891 305.259648,68.0728891 L303.170859,68.0728891 L303.170859,72.6268254 L305.259648,72.6268254 Z M317.508545,74.7720682 L315.92784,69.3525076 L314.309499,74.7720682 L317.508545,74.7720682 Z M322.081299,78.761467 L318.769345,78.761467 L318.261261,77.1619439 L313.5756,77.1619439 L313.067516,78.761467 L309.812016,78.761467 L314.516496,65.5889238 L317.320366,65.5889238 L322.081299,78.761467 Z M324.469607,78.761467 L324.469607,68.2234324 L321.496375,68.2234324 L321.496375,65.5889238 L330.510158,65.5889238 L330.510158,68.2234324 L327.518109,68.2234324 L327.518109,78.761467 L324.469607,78.761467 Z M334.196902,78.761467 L334.196902,68.2234324 L331.223671,68.2234324 L331.223671,65.5889238 L340.237454,65.5889238 L340.237454,68.2234324 L337.245405,68.2234324 L337.245405,78.761467 L334.196902,78.761467 Z M349.96475,68.0352533 L344.978002,68.0352533 L344.978002,71.0273023 L349.96475,71.0273023 L349.96475,73.417178 L344.978002,73.417178 L344.978002,76.3151375 L349.96475,76.3151375 L349.96475,78.761467 L341.929499,78.761467 L341.929499,65.5889238 L349.96475,65.5889238 L349.96475,68.0352533 Z M357.659711,72.6268254 C358.939329,72.6268254 359.767318,71.573022 359.767318,70.3498573 C359.767318,69.1266925 358.939329,68.0728891 357.659711,68.0728891 L355.570922,68.0728891 L355.570922,72.6268254 L357.659711,72.6268254 Z M352.522419,78.761467 L352.522419,65.5889238 L358.054887,65.5889238 C360.971665,65.5889238 362.853456,67.7906203 362.853456,70.3498573 C362.853456,72.1940133 361.874925,73.8311722 360.237766,74.6027069 L362.872274,78.761467 L359.334506,78.761467 L357.001084,75.1107907 L355.570922,75.1107907 L355.570922,78.761467 L352.522419,78.761467 Z M368.158541,65.5889238 L372.919475,74.1698948 L372.919475,65.5889238 L375.94916,65.5889238 L375.94916,78.761467 L372.768931,78.761467 L368.026816,70.2934035 L368.026816,78.761467 L364.978313,78.761467 L364.978313,65.5889238 L368.158541,65.5889238 Z M388.478757,72.6268254 C389.758376,72.6268254 390.586364,71.573022 390.586364,70.3498573 C390.586364,69.1266925 389.758376,68.0728891 388.478757,68.0728891 L386.389968,68.0728891 L386.389968,72.6268254 L388.478757,72.6268254 Z M383.341466,78.761467 L383.341466,65.5889238 L388.873934,65.5889238 C391.790711,65.5889238 393.672503,67.7906203 393.672503,70.3498573 C393.672503,72.1940133 392.693971,73.8311722 391.056812,74.6027069 L393.691321,78.761467 L390.153552,78.761467 L387.82013,75.1107907 L386.389968,75.1107907 L386.389968,78.761467 L383.341466,78.761467 Z M403.832611,68.0352533 L398.845862,68.0352533 L398.845862,71.0273023 L403.832611,71.0273023 L403.832611,73.417178 L398.845862,73.417178 L398.845862,76.3151375 L403.832611,76.3151375 L403.832611,78.761467 L395.79736,78.761467 L395.79736,65.5889238 L403.832611,65.5889238 L403.832611,68.0352533 Z M416.137962,74.0381694 L419.374644,74.0381694 C418.86656,76.8420393 416.439048,79.1001895 412.80719,79.1001895 C408.366161,79.1001895 405.731653,75.8635075 405.731653,72.1563775 C405.731653,68.562155 408.328525,65.2502013 412.637829,65.2502013 C416.721317,65.2502013 418.979467,67.6965307 419.355826,70.7073977 L416.175597,70.7073977 C415.893329,69.1643284 414.7078,67.9976174 412.826008,67.9976174 C410.247953,67.9976174 408.836609,69.9923168 408.836609,72.1563775 C408.836609,74.4709815 410.342043,76.3527734 412.976551,76.3527734 C414.463167,76.3527734 415.780421,75.3554237 416.137962,74.0381694 Z M427.690596,79.1001895 C423.306021,79.1001895 420.709148,75.7882358 420.709148,72.1751954 C420.709148,68.562155 423.306021,65.2502013 427.690596,65.2502013 C432.056353,65.2502013 434.653226,68.562155 434.653226,72.1751954 C434.653226,75.7882358 432.056353,79.1001895 427.690596,79.1001895 Z M427.690596,76.3527734 C430.080471,76.3527734 431.548269,74.3392561 431.548269,72.1751954 C431.548269,70.0111347 430.080471,67.9976174 427.690596,67.9976174 C425.281902,67.9976174 423.832922,70.0111347 423.832922,72.1751954 C423.832922,74.3392561 425.281902,76.3527734 427.690596,76.3527734 Z M443.966527,74.0758052 L443.966527,71.798837 L450.797432,71.798837 L450.797432,74.0758052 L449.442542,74.0758052 C448.91564,77.0678543 446.676308,79.1001895 442.912724,79.1001895 C438.490513,79.1001895 436.006548,75.8635075 436.006548,72.1751954 C436.006548,68.5809729 438.60342,65.2502013 442.912724,65.2502013 C446.375221,65.2502013 448.765097,67.3578082 448.990912,69.8605914 L445.735412,69.8605914 C445.547232,68.8256058 444.493429,67.8847099 442.893906,67.8847099 C440.409941,67.8847099 439.130322,69.9734989 439.130322,72.1940133 C439.130322,74.5274352 440.428759,76.5221346 443.157357,76.5221346 C445.001513,76.5221346 446.092952,75.3930595 446.299949,74.0758052 L443.966527,74.0758052 Z M455.70734,65.5889238 L460.468274,74.1698948 L460.468274,65.5889238 L463.497959,65.5889238 L463.497959,78.761467 L460.317731,78.761467 L455.575615,70.2934035 L455.575615,78.761467 L452.527112,78.761467 L452.527112,65.5889238 L455.70734,65.5889238 Z M466.168535,78.761467 L466.168535,65.5889238 L469.254674,65.5889238 L469.254674,78.761467 L466.168535,78.761467 Z M473.91995,78.761467 L473.91995,68.2234324 L470.946718,68.2234324 L470.946718,65.5889238 L479.960501,65.5889238 L479.960501,68.2234324 L476.968452,68.2234324 L476.968452,78.761467 L473.91995,78.761467 Z M481.652546,78.761467 L481.652546,65.5889238 L484.738685,65.5889238 L484.738685,78.761467 L481.652546,78.761467 Z M493.732082,79.1001895 C489.347507,79.1001895 486.750634,75.7882358 486.750634,72.1751954 C486.750634,68.562155 489.347507,65.2502013 493.732082,65.2502013 C498.097839,65.2502013 500.694712,68.562155 500.694712,72.1751954 C500.694712,75.7882358 498.097839,79.1001895 493.732082,79.1001895 Z M493.732082,76.3527734 C496.121957,76.3527734 497.589755,74.3392561 497.589755,72.1751954 C497.589755,70.0111347 496.121957,67.9976174 493.732082,67.9976174 C491.323388,67.9976174 489.874408,70.0111347 489.874408,72.1751954 C489.874408,74.3392561 491.323388,76.3527734 493.732082,76.3527734 Z M505.886889,65.5889238 L510.647823,74.1698948 L510.647823,65.5889238 L513.677507,65.5889238 L513.677507,78.761467 L510.497279,78.761467 L505.755164,70.2934035 L505.755164,78.761467 L502.706661,78.761467 L502.706661,65.5889238 L505.886889,65.5889238 Z" id="Pattern-Recognition" fill="#FCFBF8" transform="translate(406.899932, 72.175195) rotate(17.000000) translate(-406.899932, -72.175195) "></path>
                <rect id="Rectangle-9-Copy-13" fill="#E15FBD" transform="translate(689.188482, 389.148990) rotate(34.000000) translate(-689.188482, -389.148990) " x="543.509986" y="355.290991" width="291.356992" height="67.7159982" rx="33.8579991"></rect>
                <path d="M595.192425,382.064573 L595.192425,395.237116 L592.219194,395.237116 L592.219194,387.070139 L589.377688,395.237116 L587.119538,395.237116 L584.183942,387.070139 L584.183942,395.237116 L581.210711,395.237116 L581.210711,382.064573 L584.729662,382.064573 L588.248613,391.228899 L591.729928,382.064573 L595.192425,382.064573 Z M604.374001,391.247717 L602.793296,385.828157 L601.174955,391.247717 L604.374001,391.247717 Z M608.946755,395.237116 L605.634802,395.237116 L605.126718,393.637593 L600.441056,393.637593 L599.932972,395.237116 L596.677472,395.237116 L601.381952,382.064573 L604.185822,382.064573 L608.946755,395.237116 Z M611.335063,395.237116 L611.335063,384.699081 L608.361832,384.699081 L608.361832,382.064573 L617.375615,382.064573 L617.375615,384.699081 L614.383566,384.699081 L614.383566,395.237116 L611.335063,395.237116 Z M626.670099,395.237116 L626.670099,390.005734 L622.116162,390.005734 L622.116162,395.237116 L619.067659,395.237116 L619.067659,382.064573 L622.116162,382.064573 L622.116162,387.390044 L626.670099,387.390044 L626.670099,382.064573 L629.699783,382.064573 L629.699783,395.237116 L626.670099,395.237116 Z M640.405611,384.510902 L635.418863,384.510902 L635.418863,387.502951 L640.405611,387.502951 L640.405611,389.892827 L635.418863,389.892827 L635.418863,392.790786 L640.405611,392.790786 L640.405611,395.237116 L632.37036,395.237116 L632.37036,382.064573 L640.405611,382.064573 L640.405611,384.510902 Z M656.944994,382.064573 L656.944994,395.237116 L653.971762,395.237116 L653.971762,387.070139 L651.130257,395.237116 L648.872106,395.237116 L645.936511,387.070139 L645.936511,395.237116 L642.96328,395.237116 L642.96328,382.064573 L646.482231,382.064573 L650.001182,391.228899 L653.482497,382.064573 L656.944994,382.064573 Z M666.12657,391.247717 L664.545865,385.828157 L662.927524,391.247717 L666.12657,391.247717 Z M670.699324,395.237116 L667.38737,395.237116 L666.879287,393.637593 L662.193625,393.637593 L661.685541,395.237116 L658.430041,395.237116 L663.134521,382.064573 L665.938391,382.064573 L670.699324,395.237116 Z M673.087632,395.237116 L673.087632,384.699081 L670.1144,384.699081 L670.1144,382.064573 L679.128184,382.064573 L679.128184,384.699081 L676.136134,384.699081 L676.136134,395.237116 L673.087632,395.237116 Z M680.820228,395.237116 L680.820228,382.064573 L683.906367,382.064573 L683.906367,395.237116 L680.820228,395.237116 Z M696.324625,390.513818 L699.561307,390.513818 C699.053223,393.317688 696.625712,395.575838 692.993853,395.575838 C688.552825,395.575838 685.918316,392.339156 685.918316,388.632026 C685.918316,385.037804 688.515189,381.72585 692.824492,381.72585 C696.90798,381.72585 699.166131,384.17218 699.542489,387.183047 L696.362261,387.183047 C696.079992,385.639977 694.894463,384.473266 693.012671,384.473266 C690.434616,384.473266 689.023273,386.467966 689.023273,388.632026 C689.023273,390.94663 690.528706,392.828422 693.163215,392.828422 C694.64983,392.828422 695.967085,391.831073 696.324625,390.513818 Z M707.557354,391.247717 L705.976649,385.828157 L704.358308,391.247717 L707.557354,391.247717 Z M712.130109,395.237116 L708.818155,395.237116 L708.310071,393.637593 L703.624409,393.637593 L703.116326,395.237116 L699.860826,395.237116 L704.565305,382.064573 L707.369175,382.064573 L712.130109,395.237116 Z M716.663659,392.602607 L720.408425,392.602607 L720.408425,395.237116 L713.615156,395.237116 L713.615156,382.064573 L716.663659,382.064573 L716.663659,392.602607 Z M740.992092,382.064573 L740.992092,395.237116 L738.01886,395.237116 L738.01886,387.070139 L735.177355,395.237116 L732.919204,395.237116 L729.983609,387.070139 L729.983609,395.237116 L727.010378,395.237116 L727.010378,382.064573 L730.529329,382.064573 L734.04828,391.228899 L737.529595,382.064573 L740.992092,382.064573 Z M749.985489,395.575838 C745.600914,395.575838 743.004041,392.263885 743.004041,388.650844 C743.004041,385.037804 745.600914,381.72585 749.985489,381.72585 C754.351246,381.72585 756.948119,385.037804 756.948119,388.650844 C756.948119,392.263885 754.351246,395.575838 749.985489,395.575838 Z M749.985489,392.828422 C752.375364,392.828422 753.843162,390.814905 753.843162,388.650844 C753.843162,386.486784 752.375364,384.473266 749.985489,384.473266 C747.576795,384.473266 746.127815,386.486784 746.127815,388.650844 C746.127815,390.814905 747.576795,392.828422 749.985489,392.828422 Z M758.960068,382.064573 L763.796273,382.064573 C768.16203,382.064573 770.645995,385.282437 770.645995,388.650844 C770.645995,392.019252 768.180848,395.237116 763.796273,395.237116 L758.960068,395.237116 L758.960068,382.064573 Z M763.64573,384.699081 L762.008571,384.699081 L762.008571,392.602607 L763.64573,392.602607 C766.110877,392.602607 767.541039,390.68318 767.541039,388.650844 C767.541039,386.618509 766.110877,384.699081 763.64573,384.699081 Z M780.693196,384.510902 L775.706447,384.510902 L775.706447,387.502951 L780.693196,387.502951 L780.693196,389.892827 L775.706447,389.892827 L775.706447,392.790786 L780.693196,392.790786 L780.693196,395.237116 L772.657945,395.237116 L772.657945,382.064573 L780.693196,382.064573 L780.693196,384.510902 Z M786.299367,392.602607 L790.044133,392.602607 L790.044133,395.237116 L783.250865,395.237116 L783.250865,382.064573 L786.299367,382.064573 L786.299367,392.602607 Z M791.378637,390.871359 L794.42714,390.871359 C794.42714,392.301521 795.292765,393.148327 796.534747,393.148327 C797.513279,393.148327 798.265996,392.527336 798.265996,391.605258 C798.265996,390.551454 797.362736,390.193914 796.214843,389.761102 C793.787331,388.876659 791.754996,388.105125 791.754996,385.43298 C791.754996,383.005469 793.97551,381.72585 796.384204,381.72585 C799.507978,381.72585 801.069866,383.682914 801.069866,385.922246 L798.021363,385.922246 C798.021363,384.755535 797.438007,384.021636 796.384204,384.021636 C795.51858,384.021636 794.784681,384.473266 794.784681,385.376526 C794.784681,386.242151 795.556215,386.712599 796.666473,387.107775 C798.830533,387.860492 801.295681,388.726116 801.295681,391.360625 C801.295681,394.070405 799.244527,395.575838 796.346568,395.575838 C793.52388,395.575838 791.378637,393.882226 791.378637,390.871359 Z" id="Mathematical-Models" fill="#FCFBF8" transform="translate(691.253196, 388.650844) rotate(34.000000) translate(-691.253196, -388.650844) "></path>
                <rect id="Rectangle-9" fill="#4844A3" x="203.147995" y="419.442989" width="325.214991" height="67.7159982" rx="33.8579991"></rect>
                <path d="M246.219917,453.692347 C247.499536,453.692347 248.327524,452.638543 248.327524,451.415379 C248.327524,450.192214 247.499536,449.13841 246.219917,449.13841 L244.131128,449.13841 L244.131128,453.692347 L246.219917,453.692347 Z M241.082625,459.826988 L241.082625,446.654445 L246.615093,446.654445 C249.531871,446.654445 251.413663,448.856142 251.413663,451.415379 C251.413663,453.259535 250.435131,454.896694 248.797972,455.668228 L251.432481,459.826988 L247.894712,459.826988 L245.56129,456.176312 L244.131128,456.176312 L244.131128,459.826988 L241.082625,459.826988 Z M261.573771,449.100775 L256.587022,449.100775 L256.587022,452.092824 L261.573771,452.092824 L261.573771,454.482699 L256.587022,454.482699 L256.587022,457.380659 L261.573771,457.380659 L261.573771,459.826988 L253.538519,459.826988 L253.538519,446.654445 L261.573771,446.654445 L261.573771,449.100775 Z M264.13144,459.826988 L264.13144,446.654445 L267.217578,446.654445 L267.217578,459.826988 L264.13144,459.826988 Z M273.068383,446.654445 L277.829316,455.235416 L277.829316,446.654445 L280.859001,446.654445 L280.859001,459.826988 L277.678773,459.826988 L272.936657,451.358925 L272.936657,459.826988 L269.888155,459.826988 L269.888155,446.654445 L273.068383,446.654445 Z M291.564829,449.213682 L286.57808,449.213682 L286.57808,452.770269 L291.564829,452.770269 L291.564829,455.273052 L286.57808,455.273052 L286.57808,459.826988 L283.529578,459.826988 L283.529578,446.654445 L291.564829,446.654445 L291.564829,449.213682 Z M300.351229,460.165711 C295.966654,460.165711 293.369781,456.853757 293.369781,453.240717 C293.369781,449.627676 295.966654,446.315723 300.351229,446.315723 C304.716986,446.315723 307.313859,449.627676 307.313859,453.240717 C307.313859,456.853757 304.716986,460.165711 300.351229,460.165711 Z M300.351229,457.418295 C302.741104,457.418295 304.208902,455.404777 304.208902,453.240717 C304.208902,451.076656 302.741104,449.063139 300.351229,449.063139 C297.942535,449.063139 296.493555,451.076656 296.493555,453.240717 C296.493555,455.404777 297.942535,457.418295 300.351229,457.418295 Z M314.4631,453.692347 C315.742718,453.692347 316.570707,452.638543 316.570707,451.415379 C316.570707,450.192214 315.742718,449.13841 314.4631,449.13841 L312.374311,449.13841 L312.374311,453.692347 L314.4631,453.692347 Z M309.325808,459.826988 L309.325808,446.654445 L314.858276,446.654445 C317.775053,446.654445 319.656845,448.856142 319.656845,451.415379 C319.656845,453.259535 318.678314,454.896694 317.041155,455.668228 L319.675663,459.826988 L316.137894,459.826988 L313.804473,456.176312 L312.374311,456.176312 L312.374311,459.826988 L309.325808,459.826988 Z M331.209479,455.103691 L334.446161,455.103691 C333.938078,457.907561 331.510566,460.165711 327.878708,460.165711 C323.437679,460.165711 320.80317,456.929029 320.80317,453.221899 C320.80317,449.627676 323.400043,446.315723 327.709346,446.315723 C331.792835,446.315723 334.050985,448.762052 334.427343,451.772919 L331.247115,451.772919 C330.964846,450.22985 329.779317,449.063139 327.897526,449.063139 C325.319471,449.063139 323.908127,451.057838 323.908127,453.221899 C323.908127,455.536503 325.41356,457.418295 328.048069,457.418295 C329.534685,457.418295 330.851939,456.420945 331.209479,455.103691 Z M344.474544,449.100775 L339.487795,449.100775 L339.487795,452.092824 L344.474544,452.092824 L344.474544,454.482699 L339.487795,454.482699 L339.487795,457.380659 L344.474544,457.380659 L344.474544,459.826988 L336.439293,459.826988 L336.439293,446.654445 L344.474544,446.654445 L344.474544,449.100775 Z M361.013926,446.654445 L361.013926,459.826988 L358.040695,459.826988 L358.040695,451.660012 L355.199189,459.826988 L352.941039,459.826988 L350.005444,451.660012 L350.005444,459.826988 L347.032213,459.826988 L347.032213,446.654445 L350.551164,446.654445 L354.070114,455.818772 L357.551429,446.654445 L361.013926,446.654445 Z M371.719754,449.100775 L366.733006,449.100775 L366.733006,452.092824 L371.719754,452.092824 L371.719754,454.482699 L366.733006,454.482699 L366.733006,457.380659 L371.719754,457.380659 L371.719754,459.826988 L363.684503,459.826988 L363.684503,446.654445 L371.719754,446.654445 L371.719754,449.100775 Z M377.457651,446.654445 L382.218585,455.235416 L382.218585,446.654445 L385.248269,446.654445 L385.248269,459.826988 L382.068041,459.826988 L377.325926,451.358925 L377.325926,459.826988 L374.277423,459.826988 L374.277423,446.654445 L377.457651,446.654445 Z M389.913545,459.826988 L389.913545,449.288954 L386.940314,449.288954 L386.940314,446.654445 L395.954097,446.654445 L395.954097,449.288954 L392.962048,449.288954 L392.962048,459.826988 L389.913545,459.826988 Z M405.416374,457.19248 L409.16114,457.19248 L409.16114,459.826988 L402.367871,459.826988 L402.367871,446.654445 L405.416374,446.654445 L405.416374,457.19248 Z M419.076615,449.100775 L414.089866,449.100775 L414.089866,452.092824 L419.076615,452.092824 L419.076615,454.482699 L414.089866,454.482699 L414.089866,457.380659 L419.076615,457.380659 L419.076615,459.826988 L411.041364,459.826988 L411.041364,446.654445 L419.076615,446.654445 L419.076615,449.100775 Z M428.145284,455.837589 L426.564578,450.418029 L424.946237,455.837589 L428.145284,455.837589 Z M432.718038,459.826988 L429.406084,459.826988 L428.898,458.227465 L424.212339,458.227465 L423.704255,459.826988 L420.448755,459.826988 L425.153234,446.654445 L427.957104,446.654445 L432.718038,459.826988 Z M439.340377,453.692347 C440.619996,453.692347 441.447984,452.638543 441.447984,451.415379 C441.447984,450.192214 440.619996,449.13841 439.340377,449.13841 L437.251588,449.13841 L437.251588,453.692347 L439.340377,453.692347 Z M434.203085,459.826988 L434.203085,446.654445 L439.735553,446.654445 C442.652331,446.654445 444.534123,448.856142 444.534123,451.415379 C444.534123,453.259535 443.555591,454.896694 441.918432,455.668228 L444.552941,459.826988 L441.015172,459.826988 L438.68175,456.176312 L437.251588,456.176312 L437.251588,459.826988 L434.203085,459.826988 Z M449.839208,446.654445 L454.600141,455.235416 L454.600141,446.654445 L457.629826,446.654445 L457.629826,459.826988 L454.449598,459.826988 L449.707482,451.358925 L449.707482,459.826988 L446.658979,459.826988 L446.658979,446.654445 L449.839208,446.654445 Z M460.300402,459.826988 L460.300402,446.654445 L463.386541,446.654445 L463.386541,459.826988 L460.300402,459.826988 Z M469.237346,446.654445 L473.998279,455.235416 L473.998279,446.654445 L477.027964,446.654445 L477.027964,459.826988 L473.847736,459.826988 L469.10562,451.358925 L469.10562,459.826988 L466.057117,459.826988 L466.057117,446.654445 L469.237346,446.654445 Z M486.999893,455.141326 L486.999893,452.864358 L493.830797,452.864358 L493.830797,455.141326 L492.475907,455.141326 C491.949005,458.133376 489.709673,460.165711 485.946089,460.165711 C481.523878,460.165711 479.039913,456.929029 479.039913,453.240717 C479.039913,449.646494 481.636786,446.315723 485.946089,446.315723 C489.408586,446.315723 491.798462,448.423329 492.024277,450.926113 L488.768777,450.926113 C488.580598,449.891127 487.526795,448.950231 485.927271,448.950231 C483.443306,448.950231 482.163688,451.03902 482.163688,453.259535 C482.163688,455.592957 483.462124,457.587656 486.190722,457.587656 C488.034878,457.587656 489.126318,456.458581 489.333315,455.141326 L486.999893,455.141326 Z" id="Reinforcement-Learni" fill="#FCFBF8"></path>
                <rect id="Rectangle-9-Copy-3" fill="#1478BE" transform="translate(406.347486, 374.978915) rotate(8.000000) translate(-406.347486, -374.978915) " x="294.526989" y="341.120916" width="223.640994" height="67.7159982" rx="33.8579991"></rect>
                <path d="M328.196737,367.90648 L332.95767,376.487451 L332.95767,367.90648 L335.987355,367.90648 L335.987355,381.079023 L332.807127,381.079023 L328.065011,372.610959 L328.065011,381.079023 L325.016508,381.079023 L325.016508,367.90648 L328.196737,367.90648 Z M346.693183,370.352809 L341.706434,370.352809 L341.706434,373.344858 L346.693183,373.344858 L346.693183,375.734734 L341.706434,375.734734 L341.706434,378.632693 L346.693183,378.632693 L346.693183,381.079023 L338.657931,381.079023 L338.657931,367.90648 L346.693183,367.90648 L346.693183,370.352809 Z M349.043854,376.58154 L349.043854,367.90648 L352.092357,367.90648 L352.092357,376.562722 C352.092357,377.767069 352.920346,378.783237 354.162328,378.783237 C355.404311,378.783237 356.251117,377.767069 356.251117,376.562722 L356.251117,367.90648 L359.29962,367.90648 L359.29962,376.58154 C359.29962,379.29132 357.323739,381.417745 354.162328,381.417745 C351.019736,381.417745 349.043854,379.29132 349.043854,376.58154 Z M366.900491,374.944381 C368.18011,374.944381 369.008098,373.890578 369.008098,372.667413 C369.008098,371.444248 368.18011,370.390445 366.900491,370.390445 L364.811702,370.390445 L364.811702,374.944381 L366.900491,374.944381 Z M361.763199,381.079023 L361.763199,367.90648 L367.295667,367.90648 C370.212445,367.90648 372.094237,370.108176 372.094237,372.667413 C372.094237,374.511569 371.115705,376.148728 369.478546,376.920263 L372.113055,381.079023 L368.575286,381.079023 L366.241864,377.428346 L364.811702,377.428346 L364.811702,381.079023 L361.763199,381.079023 Z M380.730093,377.089624 L379.149388,371.670063 L377.531047,377.089624 L380.730093,377.089624 Z M385.302848,381.079023 L381.990894,381.079023 L381.48281,379.4795 L376.797148,379.4795 L376.289064,381.079023 L373.033565,381.079023 L377.738044,367.90648 L380.541914,367.90648 L385.302848,381.079023 Z M389.836398,378.444514 L393.581164,378.444514 L393.581164,381.079023 L386.787895,381.079023 L386.787895,367.90648 L389.836398,367.90648 L389.836398,378.444514 Z M403.363345,367.90648 L408.124279,376.487451 L408.124279,367.90648 L411.153964,367.90648 L411.153964,381.079023 L407.973735,381.079023 L403.23162,372.610959 L403.23162,381.079023 L400.183117,381.079023 L400.183117,367.90648 L403.363345,367.90648 Z M421.859791,370.352809 L416.873043,370.352809 L416.873043,373.344858 L421.859791,373.344858 L421.859791,375.734734 L416.873043,375.734734 L416.873043,378.632693 L421.859791,378.632693 L421.859791,381.079023 L413.82454,381.079023 L413.82454,367.90648 L421.859791,367.90648 L421.859791,370.352809 Z M426.412159,381.079023 L426.412159,370.540988 L423.438928,370.540988 L423.438928,367.90648 L432.452711,367.90648 L432.452711,370.540988 L429.460662,370.540988 L429.460662,381.079023 L426.412159,381.079023 Z M445.247328,381.079023 L442.631637,372.799138 L440.015947,381.079023 L437.513163,381.079023 L432.865137,367.90648 L436.083002,367.90648 L438.773964,376.543904 L441.446108,367.90648 L443.798348,367.90648 L446.489311,376.543904 L449.161455,367.90648 L452.379319,367.90648 L447.731293,381.079023 L445.247328,381.079023 Z M459.283927,381.417745 C454.899352,381.417745 452.302479,378.105792 452.302479,374.492751 C452.302479,370.879711 454.899352,367.567757 459.283927,367.567757 C463.649684,367.567757 466.246557,370.879711 466.246557,374.492751 C466.246557,378.105792 463.649684,381.417745 459.283927,381.417745 Z M459.283927,378.670329 C461.673803,378.670329 463.141601,376.656812 463.141601,374.492751 C463.141601,372.32869 461.673803,370.315173 459.283927,370.315173 C456.875234,370.315173 455.426254,372.32869 455.426254,374.492751 C455.426254,376.656812 456.875234,378.670329 459.283927,378.670329 Z M473.395798,374.944381 C474.675417,374.944381 475.503405,373.890578 475.503405,372.667413 C475.503405,371.444248 474.675417,370.390445 473.395798,370.390445 L471.307009,370.390445 L471.307009,374.944381 L473.395798,374.944381 Z M468.258506,381.079023 L468.258506,367.90648 L473.790974,367.90648 C476.707752,367.90648 478.589544,370.108176 478.589544,372.667413 C478.589544,374.511569 477.611012,376.148728 475.973853,376.920263 L478.608362,381.079023 L475.070593,381.079023 L472.737171,377.428346 L471.307009,377.428346 L471.307009,381.079023 L468.258506,381.079023 Z M488.015753,381.079023 L483.762903,375.508919 L483.762903,381.079023 L480.7144,381.079023 L480.7144,367.90648 L483.762903,367.90648 L483.762903,373.495401 L488.015753,367.90648 L491.685247,367.90648 L486.472684,374.492751 L491.685247,381.079023 L488.015753,381.079023 Z" id="Neural-Network" fill="#FCFBF8" transform="translate(408.350878, 374.492751) rotate(8.000000) translate(-408.350878, -374.492751) "></path>
            </g>
        </g>
    </g>
</svg>