<svg width="710" height="361" viewBox="0 0 710 361" xmlns="http://www.w3.org/2000/svg" xmlns:xlink="http://www.w3.org/1999/xlink">
    <title>
        1_1_example-2
    </title>
    <defs>
        <path id="a" d="M.072.333h299.225v161.8H.072z"/>
        <path id="c" d="M0 0h177.663v250.935H0z"/>
    </defs>
    <g fill="none" fill-rule="evenodd">
        <path d="M38.208 199.262l2.487-3.467-1.565-2.507c-.541-.797-1.161-1.536-1.851-2.208l-7.54-7.342c-5.72-5.57-6.67-14.439-2.258-21.1l.236-.357c.752-1.136.925-2.561.465-3.845l-4.851-14.638c-2.44-7.363-1.896-15.392 1.515-22.356l4.165-6.938 4.679-5.763 144.646 184.464c-5.254-3.694-10.822-6.893-16.415-9.582-12.121-5.83-25.892-8.85-38.57-13.763-4.653-4.025-9.408-7.916-14.445-11.383-8-8.09-14.14-14.46-14.14-14.46l-23.042-16.842s-3.068 2.874-6.995 3.692c-3.002.626-6.675-.461-8.85-1.902l-13.92-9.22c-6.823-4.52-8.528-13.826-3.751-20.483" fill="#C3747F"/>
        <path d="M67.288 213.79c-.683-2.06.529-4.524-1.262-5.744-4.026-2.745-13.96-5.626-18.8.968-6.932 9.443 4.458 16.294 4.458 16.294l1.903 1.261c2.442 1.617 5.342 3.367 8.113 2.421 4.716-1.608 6.074-6.69 6.455-9.623.187-1.44.02-2.902-.437-4.28l-.43-1.297z" fill="#F4F0E9" opacity=".45"/>
        <path d="M61.146 195.257l-.541-1.632c-3.049 7.003-16.406 7.116-21.475-.337-.542-.797-1.162-1.536-1.851-2.208l-7.54-7.342c-5.72-5.57-6.67-14.439-2.258-21.1" fill="#C3747F"/>
        <path fill="#F4F0E9" d="M187.718 212.109l-72.49 53.859 10.319 10.541-18.132-18.522L94.01 244.27z"/>
        <path d="M133.161 265.742c4.406-4.032 13.592-8.783 16.534-10.22l34.764-18.165-73.512 24.196c-9.318-9.38-16.938-17.283-16.938-17.283l63.348-89.976c.165 6.808 1.47 13.517 3.315 20.082 1.81 6.443 11.62 3.135 9.82-3.272-2.28-8.112-3.43-16.369-2.488-24.785.961-8.606 3.288-16.456 2.302-25.21-2.038-18.09-15.077-31.052-23.272-46.495.017-2.372-.175-4.648-.869-6.692-2.084-6.148-1.79-12.256.919-18.185 1.551-3.398 8.129-7.163 11.937-4.175 2.075 1.629 4.05 3.416 5.887 5.311 4.042 4.17 7.957 8.462 11.942 12.687 3.609 3.826 7.25 7.62 10.864 11.444 6.657 7.044 10.6 15.856 15.469 24.053 6.607 11.126 11.171 17.829 17.215 29.273 2.915 5.521 6.938 15.594 8.783 21.706l6.144 20.868.035.09c7.252 18.502 8.32 38.752 13.311 57.992 1.434 5.526 8.011 9.206 10.011 12.19-1.086.139 1.92.729 1.104 1.712-3.975 4.783-9.399 9.285-9.444 15.144-2.857 4.382 49.883 25.571 46.932 29.889-5.582 8.166-50.416 13.713-54.601 22.655-5.815 12.423-25.48 3.895-25.566 17.66-.065-.064-1.394 1.734-1.459 1.67-7.429-7.324-15.33-16.688-26.182-22.962-7.363-4.256-47.09-17.768-63.302-30.614 1.191-3.792 3.741-7.609 6.997-10.588" fill="#C3747F"/>
        <path d="M110.947 261.553l73.512-24.196-34.764 18.164c-2.942 1.438-12.128 6.189-16.534 10.22-3.256 2.98-5.805 6.796-6.997 10.589-1.023-.811-1.96-1.62-2.782-2.423-4.149-4.055-8.446-8.34-12.435-12.354" fill="#C3747F"/>
        <path d="M110.947 261.553l73.512-24.196-34.764 18.164c-2.942 1.438-12.128 6.189-16.534 10.22-3.256 2.98-5.805 6.796-6.997 10.589-1.023-.811-1.96-1.62-2.782-2.423-4.149-4.055-8.446-8.34-12.435-12.354" fill="#1B293C"/>
        <g transform="translate(195.63 234.33)">
            <mask id="b" fill="#fff">
                <use xlink:href="#a"/>
            </mask>
            <path d="M25.485 133.978C.362 83.154-8.21 93.606 9.25 72.847c3.797-4.515 20.603-20.023 24.148-24.851 12.107-16.489 16.625-27.83 28.946-44.725 2.053-2.817 5.832-3.745 8.945-2.187L76.514 3.7c27.126 13.55 142.96 86.073 215.88 131.485 13.128 8.177 6.129 28.524-9.235 26.85L25.485 133.979z" fill="#664299" mask="url(#b)"/>
        </g>
        <path d="M160.368 54.208c3.013 5.498 5.727 8.35 9.623 11.905 3.53 3.222 7.183 5.271 11.776 2.571 0 0-17.692-19.695-21.625-22.386 0 0-3.102 1.84.226 7.91z" fill-opacity=".45" fill="#F4F0E9"/>
        <g transform="translate(17 14.04)">
            <mask id="d" fill="#fff">
                <use xlink:href="#c"/>
            </mask>
            <path d="M161.519 225.627c12.354-4.117 19.04-17.497 14.935-29.884L116.779 15.696C112.674 3.309 99.33-3.396 86.976.721L16.144 24.324C3.79 28.441-2.896 41.82 1.21 54.208l59.675 180.047c4.105 12.388 17.449 19.092 29.803 14.975l70.832-23.603z" fill="#15273A" mask="url(#d)"/>
        </g>
        <path d="M133.633 135.415c-8.369 2.769-10.814 3.588-11.276 3.784-1.67.712-2.65 1.337-3.623 2.303-.75.744-1.287 1.496-1.747 2.453-.836 1.744-1.07 3.628-.713 5.656.174.985.197 1.19 1.77 5.993.523 1.601 1.22 3.706 2.149 6.531 2.76 8.385 3.575 10.834 3.772 11.296.69 1.63 1.3 2.598 2.234 3.567 1.787 1.857 4.358 2.844 6.948 2.672.897-.06 1.848-.244 3.038-.577.504-.142 5.568-1.8 10.63-3.476 5.064-1.675 10.124-3.357 10.6-3.541 1.336-.513 2.088-.88 2.885-1.394 2.198-1.416 3.65-3.706 3.995-6.303.174-1.306.09-2.49-.308-4.12-.087-.356-1.893-5.88-3.707-11.394-1.814-5.514-3.64-11.02-3.782-11.358-.657-1.572-1.29-2.566-2.23-3.527-.77-.786-1.512-1.318-2.49-1.79-1.745-.83-3.622-1.067-5.646-.707-.981.174-1.18.196-5.975 1.773l-6.524 2.159z" fill="#FCFBF8"/>
        <path d="M138.378 144.07l1.575 4.816 1.575 4.814-.762-.986-.002-.002 3.015 10.88c.97 1.255 1.488 1.924 1.492 1.926.005.003.296-.074.648-.171 1.063-.295 2.397-.612 3.421-.815.238-.047.439-.098.447-.112.008-.015-1.598-4.916-3.569-10.892l-3.584-10.865-2.128.703-2.128.705zM130.675 146.604l3.58 10.878c1.97 5.984 3.588 10.884 3.598 10.889.01.004.368-.153.796-.35.428-.197 1.022-.463 1.32-.59.457-.195 1.83-.75 1.992-.804.047-.016-.031-.262-1.46-4.627l-1.509-4.61.656.85.232.301-3.014-10.879-.339-.438-1.519-1.967-.054-.07-2.139.709-2.14.708z" fill="#FC5770"/>
        <path d="M130.675 146.604l8.319 10.791-.002-.005.656.85c3.654 4.736 5.615 7.275 5.623 7.278.005.003.297-.074.648-.171 1.064-.295 2.397-.612 3.421-.815.236-.047.436-.097.447-.112l-8.26-10.722.001.002-.762-.986-4.239-5.49-1.519-1.967-.054-.07-2.139.709-2.14.708z" fill="#FC5770"/>
        <path d="M150.484 185.849c-8.369 2.768-10.814 3.587-11.276 3.784-1.67.712-2.65 1.336-3.623 2.303-.75.744-1.287 1.496-1.747 2.453-.836 1.744-1.07 3.628-.713 5.656.174.985.198 1.19 1.77 5.993.523 1.601 1.22 3.706 2.149 6.53 2.76 8.386 3.575 10.834 3.772 11.297.69 1.63 1.3 2.597 2.234 3.567 1.787 1.856 4.358 2.843 6.948 2.672.897-.06 1.848-.244 3.038-.577.504-.142 5.568-1.801 10.63-3.477 5.064-1.675 10.124-3.356 10.6-3.54 1.336-.514 2.089-.88 2.885-1.394 2.198-1.417 3.65-3.707 3.995-6.303.174-1.306.09-2.492-.308-4.12-.087-.356-1.893-5.88-3.707-11.394-1.815-5.514-3.64-11.02-3.782-11.358-.657-1.572-1.29-2.566-2.23-3.527-.77-.787-1.512-1.318-2.49-1.79-1.745-.83-3.622-1.067-5.646-.707-.981.174-1.18.196-5.975 1.773l-6.524 2.159z" fill="#1DA1F2"/>
        <path d="M150.673 216.363c.136.292.346.35.554.368h.007l-.561-.368zM159.904 209.898l.401-.132c.557-.185.56-.56.393-1.067l-3.513-10.675c-.221-.675-.508-1.31-1.338-1.034l-1.23.407c-.222.073-.814.269-.621.855l.18.545c.075.23.315.578 1.072.328l.303-.1 3.376 10.26c.181.548.39.807.977.613M153.404 216.281c1.316-.435 2.06-1.466 1.988-2.758-.13-2.345-.728-9.397-.734-9.466 0 0-.05-.75-.157-1.072-.123-.373-.443-.534-.816-.41l-.485.16c-.422.14-.541.412-.478 1.087l.597 6.445-.306.102c-.464.153-.696.101-1.076-.5l-3.093-4.77-.034-.052c-.237-.364-.46-.707-.934-.55l-.514.17c-.415.137-.572.43-.44.826.078.241.262.578.577 1.065l3.178 4.738c.587.899 1.258 1.143 2.245.817l.585-.194c.047.348.137 1.067.138 1.351.007.925-.35 1.238-1.064 1.474-.59.195-.992.277-1.285.338-.176.036-.317.065-.441.106-.336.111-.46.378-.344.732l.113.344c.014.041.033.065.05.099l.56.368c.399.043.865-.018 2.17-.45M164.395 200.294c1.265-.419 2.015.165 2.53 1.601l-3.73 1.237c-.451-1.56-.083-2.412 1.2-2.838zm5.11 5.173c-.117-.355-.376-.494-.711-.383-.118.04-.23.102-.372.182-.278.157-.697.394-1.566.682-2.167.717-2.567.414-3.219-1.358l4.093-1.354c.986-.327 1.158-.86.945-1.508-.552-1.676-1.681-3.814-4.762-2.795-2.581.855-3.268 2.647-2.226 5.812 1.014 3.084 2.466 3.875 5.353 2.919 1.289-.426 2.077-.883 2.357-1.144.178-.157.341-.342.21-.738l-.103-.315z" fill="#FCFBF8"/>
        <path d="M116.782 84.981c-8.369 2.77-10.814 3.588-11.276 3.785-1.67.711-2.65 1.336-3.623 2.302-.75.744-1.287 1.496-1.747 2.453-.836 1.745-1.07 3.629-.713 5.657.174.985.197 1.19 1.77 5.993.523 1.6 1.22 3.706 2.149 6.53 2.76 8.385 3.575 10.834 3.772 11.297.69 1.63 1.3 2.597 2.234 3.567 1.787 1.856 4.358 2.843 6.948 2.672.897-.06 1.848-.245 3.038-.577.503-.143 5.568-1.801 10.63-3.477 5.064-1.675 10.124-3.356 10.6-3.541 1.336-.513 2.088-.88 2.885-1.393 2.198-1.417 3.65-3.707 3.995-6.303.174-1.306.09-2.492-.308-4.121-.087-.356-1.893-5.88-3.707-11.393-1.815-5.514-3.64-11.02-3.782-11.358-.657-1.572-1.29-2.566-2.23-3.527-.77-.787-1.512-1.319-2.49-1.79-1.745-.83-3.622-1.067-5.646-.707-.981.174-1.181.196-5.975 1.773l-6.524 2.158z" fill="#1DA1F2"/>
        <path d="M122.206 115.857c8.677-2.871 11.05-11.649 8.993-17.9-.067-.204-.139-.406-.215-.606.701-.972 1.228-2.07 1.547-3.228-.721.656-1.547 1.211-2.464 1.641.782-.908 1.225-2.082 1.214-3.303-.733.844-1.613 1.572-2.618 2.14-1.164-.635-2.578-.804-3.935-.355-2.605.861-4.02 3.679-3.162 6.29.123.371.283.719.478 1.038-3.986 1.1-8.082.368-11.35-1.724-.175.832-.141 1.722.144 2.588.54 1.641 1.85 2.815 3.395 3.243-.782.232-1.58.26-2.332.115l.02.06c.753 2.292 3.009 3.666 5.31 3.385-.36.24-.759.436-1.189.578-.303.101-.61.169-.914.208 1.218 1.681 3.41 2.472 5.487 1.828-1.197 1.803-2.982 3.232-5.192 3.963-.38.126-.764.229-1.147.307 2.53.651 5.266.613 7.93-.268" fill="#FCFBF8"/>
        <path d="M84.29 151.99c-8.368 2.77-10.813 3.589-11.276 3.785-1.67.712-2.65 1.337-3.623 2.303-.75.744-1.287 1.496-1.746 2.453-.836 1.744-1.071 3.628-.713 5.656.173.985.197 1.19 1.769 5.993.523 1.601 1.22 3.706 2.15 6.532 2.759 8.384 3.575 10.832 3.772 11.295.69 1.63 1.3 2.598 2.233 3.567 1.788 1.856 4.359 2.843 6.949 2.672.896-.06 1.847-.244 3.038-.577.503-.142 5.568-1.8 10.63-3.476 5.063-1.675 10.124-3.357 10.6-3.542 1.335-.512 2.088-.88 2.885-1.393 2.198-1.416 3.65-3.707 3.994-6.303.175-1.306.09-2.491-.308-4.12-.087-.356-1.892-5.88-3.706-11.394-1.815-5.514-3.641-11.02-3.782-11.358-.658-1.572-1.29-2.566-2.23-3.527-.77-.786-1.512-1.318-2.491-1.79-1.745-.83-3.621-1.067-5.645-.707-.982.174-1.181.196-5.976 1.773l-6.524 2.159z" fill="#D16FD1"/>
        <path d="M89.642 168.27c2.102-.695 4.367.45 5.061 2.557.694 2.108-.448 4.38-2.55 5.076-2.101.695-4.367-.45-5.06-2.557-.694-2.108.447-4.38 2.549-5.075zm-.679-2.062c-3.238 1.071-4.997 4.572-3.928 7.819 1.068 3.246 4.56 5.009 7.797 3.937 3.238-1.071 4.996-4.57 3.928-7.817-1.069-3.247-4.56-5.01-7.797-3.939zm5.566-3.622c-.757.25-1.168 1.068-.918 1.827.25.758 1.065 1.17 1.822.92.756-.25 1.167-1.068.918-1.826-.25-.76-1.066-1.172-1.822-.921zm-7.744.455l1.024-.34c3.048-1.008 3.413-1.116 4.635-1.46 1.13-.317 1.795-.33 2.25-.307.6.032 1.062.154 1.593.423.532.268.904.568 1.288 1.033.289.351.675.896 1.092 1.995.452 1.189.583 1.547 1.589 4.602 1.005 3.055 1.113 3.421 1.455 4.647.317 1.133.33 1.8.306 2.254-.03.603-.153 1.066-.422 1.598-.267.533-.565.907-1.03 1.29-.35.29-.893.677-1.99 1.097-1.185.453-1.543.584-4.59 1.592-3.049 1.01-3.414 1.117-4.636 1.46-1.13.317-1.795.33-2.25.307-.6-.031-1.063-.153-1.594-.422-.532-.268-.904-.567-1.287-1.033-.29-.351-.675-.895-1.093-1.995-.452-1.188-.582-1.547-1.588-4.604-1.006-3.057-1.114-3.421-1.456-4.646-.317-1.133-.33-1.8-.307-2.256.031-.602.154-1.066.421-1.599.268-.533.567-.907 1.031-1.29.351-.291.894-.677 1.99-1.097 1.038-.396 1.441-.545 3.569-1.252v.003zm.345-2.402c-3.1 1.026-3.485 1.168-4.684 1.627-1.197.458-1.963.926-2.596 1.449-.655.54-1.163 1.142-1.588 1.99-.426.845-.606 1.613-.65 2.462-.044.822.037 1.718.384 2.954.347 1.24.461 1.635 1.484 4.743 1.024 3.11 1.166 3.494 1.622 4.697.457 1.2.923 1.968 1.445 2.602.54.657 1.14 1.167 1.984 1.593.844.426 1.61.608 2.457.652.82.043 1.712-.039 2.946-.385 1.236-.348 1.63-.463 4.73-1.489 3.1-1.026 3.484-1.167 4.684-1.626 1.196-.458 1.963-.926 2.597-1.45.654-.54 1.16-1.142 1.586-1.99.425-.846.605-1.613.65-2.462.041-.822-.04-1.718-.384-2.954-.347-1.24-.46-1.634-1.484-4.743-1.023-3.108-1.165-3.494-1.622-4.697-.458-1.2-.925-1.968-1.445-2.603-.54-.656-1.14-1.165-1.985-1.591-.845-.427-1.608-.608-2.456-.652-.821-.042-1.715.04-2.948.386-1.237.347-1.629.462-4.73 1.488l.003-.001zM67.658 80.438l-1.17.388 1.17-.388M65.884 81.025l-.199.066.2-.066M70.685 79.437l-.027.008.027-.008M68.726 80.085l-.632.209.632-.209M70.654 79.447l-1.119.37 1.12-.37M69.315 79.89l-.272.09.272-.09" fill="#FCFBF8"/>
        <path d="M101.141 202.424c-8.368 2.77-10.813 3.588-11.276 3.785-1.67.711-2.65 1.336-3.623 2.303-.75.743-1.287 1.495-1.747 2.452-.835 1.745-1.07 3.629-.712 5.657.173.985.197 1.19 1.769 5.993.524 1.6 1.22 3.706 2.15 6.531 2.759 8.385 3.575 10.833 3.772 11.296.69 1.63 1.3 2.597 2.233 3.567 1.788 1.856 4.359 2.843 6.949 2.672.896-.06 1.847-.245 3.038-.577.503-.143 5.568-1.801 10.63-3.476 5.063-1.676 10.124-3.357 10.6-3.542 1.335-.513 2.088-.88 2.885-1.393 2.198-1.417 3.65-3.707 3.994-6.303.175-1.306.09-2.491-.308-4.121-.087-.355-1.892-5.88-3.706-11.393-1.815-5.514-3.641-11.02-3.782-11.358-.658-1.572-1.29-2.566-2.23-3.527-.77-.787-1.512-1.319-2.491-1.79-1.745-.83-3.621-1.067-5.645-.707-.982.174-1.181.196-5.976 1.773l-6.524 2.158z" fill="#2BC995"/>
        <path d="M114.118 218.962h-.001c-4.431-.98-10.611.839-13.794 3.086-.512.36-1.218.238-1.578-.275-.36-.512-.237-1.22.274-1.582 3.654-2.58 10.484-4.574 15.585-3.447.612.135.997.741.862 1.353-.133.613-.739 1-1.348.865m.954 3.309c-.12.508-.628.824-1.135.703-3.718-.882-8.61.125-11.899 2.447-.426.3-1.015.199-1.315-.229-.3-.428-.197-1.017.229-1.318 3.757-2.652 9.15-3.754 13.418-2.742.507.12.823.63.702 1.139m-.374 3.603c-.095.407-.501.66-.908.565-3.243-.76-6.764-.01-10.464 2.23-.357.216-.821.101-1.036-.257-.215-.357-.102-.822.256-1.038 4.049-2.452 7.948-3.264 11.589-2.409.406.096.658.502.563.91m-10.744-14.88v-.001c-6.349 2.1-9.798 8.965-7.703 15.33 2.096 6.367 8.941 9.824 15.29 7.724 6.35-2.101 9.798-8.965 7.703-15.331-2.095-6.366-8.94-9.824-15.29-7.723" fill="#FCFBF8"/>
        <path d="M99.93 34.548c-8.368 2.769-10.813 3.587-11.275 3.784-1.67.712-2.65 1.337-3.623 2.303-.75.744-1.287 1.496-1.747 2.453-.836 1.744-1.07 3.628-.713 5.656.174.985.198 1.19 1.77 5.993.523 1.601 1.22 3.706 2.149 6.531 2.76 8.385 3.575 10.833 3.772 11.296.69 1.63 1.3 2.597 2.234 3.567 1.787 1.856 4.358 2.843 6.948 2.672.897-.06 1.848-.244 3.038-.577.504-.142 5.568-1.8 10.63-3.476 5.064-1.675 10.124-3.357 10.6-3.542 1.336-.512 2.089-.88 2.885-1.393 2.198-1.417 3.65-3.707 3.995-6.303.174-1.306.09-2.491-.308-4.12-.087-.356-1.893-5.88-3.707-11.394-1.815-5.514-3.64-11.02-3.782-11.358-.657-1.572-1.29-2.566-2.23-3.527-.77-.786-1.512-1.318-2.491-1.79-1.744-.83-3.62-1.067-5.645-.707-.981.174-1.18.196-5.975 1.773l-6.524 2.159z" fill="#444472"/>
        <path fill="#FCFBF8" d="M97.456 56.144l-1.933.64-1.364-4.148-3.029 1.002 3.62 10.996 3.027-1.002-1.34-4.07 1.934-.64 1.34 4.07 3.028-1.001-3.62-10.997-3.028 1.002zM115.441 54.778c-1.528.506-3.18-.33-3.685-1.86-.504-1.533.33-3.19 1.856-3.696 1.528-.506 3.181.33 3.686 1.861.504 1.532-.329 3.19-1.857 3.695m-7.651-.67c.366-.2.747-.551.913-1.14.05.296.121.593.218.887.099.3.22.585.359.858-.855-.774-1.85-.406-1.49-.605m-2.28-.414l-1.61.533-.547-1.66 1.61-.533s.643-.22.904.575c.262.794-.357 1.085-.357 1.085m1.34 4.07l-1.611.534-.553-1.68 1.61-.533s.645-.213.9.562c.277.84-.346 1.118-.346 1.118m5.827-11.386c-2.264.75-3.773 2.75-4.018 4.984-.03-.12-.066-.244-.109-.373-.774-2.351-3.31-2.022-4.147-1.744l-4.639 1.535 3.619 10.996 4.833-1.599s2.941-.83 1.836-4.19c-.026-.078-.053-.153-.081-.224 1.504 1.827 4.03 2.643 6.406 1.857 3.09-1.023 4.776-4.376 3.756-7.476-1.02-3.1-4.365-4.788-7.456-3.766"/>
        <path d="M113.886 50.05c-1.074.356-1.657 1.517-1.303 2.593.354 1.077 1.512 1.662 2.586 1.306 1.073-.355 1.657-1.515 1.302-2.592-.354-1.077-1.512-1.662-2.585-1.306" fill="#FCFBF8"/>
        <path d="M67.44 101.557c-8.37 2.769-10.814 3.588-11.277 3.785-1.67.711-2.65 1.336-3.623 2.302-.75.744-1.287 1.496-1.747 2.453-.835 1.745-1.07 3.628-.712 5.657.173.985.197 1.19 1.769 5.993.524 1.6 1.22 3.706 2.15 6.53 2.759 8.385 3.575 10.834 3.771 11.297.69 1.63 1.3 2.597 2.234 3.566 1.788 1.857 4.359 2.844 6.949 2.672.896-.06 1.847-.244 3.037-.576.504-.143 5.569-1.801 10.631-3.476 5.063-1.676 10.124-3.358 10.6-3.542 1.335-.513 2.089-.88 2.885-1.394 2.198-1.416 3.649-3.706 3.994-6.303.175-1.305.09-2.49-.308-4.12-.087-.356-1.892-5.88-3.706-11.393-1.815-5.515-3.641-11.021-3.782-11.358-.658-1.572-1.29-2.567-2.23-3.527-.77-.787-1.513-1.319-2.491-1.79-1.745-.83-3.62-1.067-5.646-.708-.98.175-1.18.197-5.975 1.773l-6.524 2.16z" fill="#FC4D6C"/>
        <path d="M72.748 126.392l-2.558-7.772 8.008 1.66-5.45 6.112zm8.609-16.605c-2.206.115-10.297 2.792-10.297 2.792s-8.092 2.677-9.94 3.88c-.987.659-1.587 1.852-1.52 3.06.136 2.205 1.52 6.411 1.52 6.411s1.392 4.228 2.584 6.059c.664 1.012 1.825 1.598 3.03 1.53 2.228-.12 10.298-2.791 10.298-2.791s8.092-2.677 9.94-3.88c1.008-.666 1.593-1.83 1.526-3.04-.135-2.204-1.52-6.41-1.52-6.41s-1.37-4.235-2.59-6.08c-.664-1.012-1.826-1.598-3.031-1.531z" fill="#FCFBF8"/>
        <path d="M80.942 75.967c-.087-.356-1.892-5.88-3.707-11.393-1.814-5.514-3.64-11.02-3.78-11.358-.659-1.572-1.292-2.566-2.23-3.527-.771-.787-1.513-1.319-2.493-1.79-1.744-.83-3.62-1.067-5.644-.707-.981.174-1.181.196-5.975 1.773l-6.525 2.158c-8.368 2.77-10.813 3.588-11.276 3.785-1.67.712-2.65 1.336-3.622 2.302-.75.744-1.288 1.496-1.747 2.453-.836 1.745-1.071 3.629-.713 5.657.173.985.197 1.19 1.77 5.993.522 1.601 1.219 3.706 2.148 6.531 2.76 8.384 3.576 10.833 3.773 11.296.69 1.63 1.299 2.597 2.233 3.567 1.788 1.857 4.358 2.843 6.948 2.672.897-.06 1.848-.245 3.038-.577.504-.143 5.569-1.801 10.632-3.476 5.062-1.676 10.123-3.357 10.599-3.542 1.335-.513 2.088-.88 2.885-1.393 2.197-1.416 3.65-3.707 3.994-6.303.174-1.306.09-2.491-.308-4.121" fill="#4747A1"/>
        <path d="M62.466 80.85l-2.915-8.857 2.965-.981-.692-3.6-3.408 1.129-.726-2.204c-.329-.999-.276-1.772 1.153-2.245l1.823-.604-1.016-3.087c-.33.063-1.442.327-2.702.743-2.628.87-3.897 3.074-2.925 6.028l.838 2.545-2.973.984 1.136 3.451 2.972-.983 2.916 8.857" fill="#FCFBF8"/>
        <path d="M191.323 203.355L133.793 29.78c-4.113-12.411-17.482-19.129-29.86-15.004L36.731 37.169" fill="#CAD3FF" opacity=".25"/>
        <path d="M26.027 152.665c.318 1.979.922 3.89 1.964 5.534 1.389 2.193 3.63 3.867 6.194 4.114 2.565.247 5.874-1.888 7.079-4.33 1.162-2.357.696-5.108.202-7.622-.343-1.746-.75-3.607-2.015-4.772-1.103-1.016-3.185-.558-4.697-.394-1.512.164-2.97.744-4.407 1.319-1.054.42-2.125.852-3.03 1.569-.905.716-1.495 1.828-1.564 2.98l.274 1.602zM33.372 186.437c1.545 1.995 3.385 3.756 5.577 4.98 2.923 1.633 6.532 2.219 9.67 1.059 3.14-1.16 5.62-4.252 5.577-7.606-.043-3.237-1.954-7.328-4.024-9.812-1.437-1.725-3.016-3.543-5.183-4.115-1.89-.5-4.203 1.394-5.87 2.418-1.667 1.025-3.024 2.476-4.36 3.909-.979 1.05-1.973 2.122-2.603 3.414-.63 1.293-.66 2.842-.054 4.147l1.27 1.606z" fill="#F4F0E9" opacity=".45"/>
    </g>
</svg>
