<svg width="710" height="337" viewBox="0 0 710 337" xmlns="http://www.w3.org/2000/svg">
    <title>
        1_1_example-1
    </title>
    <g fill="none" fill-rule="evenodd">
        <path fill="#232152" d="M196 145l-94 4.095 20.43 52.848 32.93.057 11.277-1.533z"/>
        <path d="M155.369 189.48c.2 9.88-4.812 17.994-11.196 18.124-.216.005-.43-.002-.644-.015-6.095-.393-11.085-8.09-11.28-17.636-.16-7.86 2.983-14.598 7.489-17.092.874-.484 1.8-.81 2.764-.952.31-.046.625-.074.944-.08 6.383-.13 11.721 7.772 11.923 17.651m-12.16-29.235c-.524.011-1.042.057-1.553.132-2.868.058-7.492.102-9.27.131-.328.004-.349.007-.744.014-10.519.189-19.45 12.595-19.957 28.867-.506 16.271 7.201 29.047 17.717 29.377 0 0 11.274.327 13.946.396.352.022.705.033 1.06.026 10.52-.215 18.778-13.584 18.446-29.86-.331-16.277-9.126-29.297-19.644-29.083" fill="#131335"/>
        <path d="M143.445 171.829c-.318.006-.632.034-.943.08-.964.142-1.89.468-2.764.952-4.506 2.494-7.648 9.232-7.488 17.092.194 9.545 5.184 17.243 11.28 17.636.213.013.427.02.643.015 6.384-.13 11.397-8.244 11.195-18.124-.2-9.879-5.539-17.782-11.923-17.651" fill="#E9E8F0"/>
        <path d="M19.196 155.66c.547-.008 14.081-.595 14.081-.595l4.995 7.968-8.286 10.407-11.662-3.919.872-13.861z" fill="#94A7CA"/>
        <path d="M15.085 180.963c1.437-16.215 11.097-28.604 21.576-27.67 1.906.17 3.705.772 5.369 1.735-7.647 3.675-13.45 14.46-13.928 27.405-.581 15.718 6.9 28.853 16.89 30.076-2.664-.223-13.901-1.198-13.901-1.198-10.48-.933-17.443-14.132-16.006-30.348" fill="#131335"/>
        <path d="M27.028 182.337c.478-12.944 6.281-23.73 13.928-27.404 1.964-.944 4.047-1.427 6.195-1.346 10.514.39 18.55 13.895 17.948 30.163-.6 16.27-9.61 29.14-20.124 28.75-.355-.013-.707-.044-1.058-.087-9.988-1.223-17.47-14.358-16.89-30.076" fill="#131335"/>
        <path fill="#232152" d="M268.804 169.574l-6.587-30.151-63.347 2.077 2.44 56.53 29.542-2.103 35.626-10.544z"/>
        <path d="M247.84 147.381c-1.974-.005-3.88.455-5.674 1.313-1.827-1.064-3.805-1.702-5.893-1.816-10.505-.573-19.736 12.14-20.62 28.395-.882 16.256 6.543 30.489 17.048 31.063.065.003-.064-.003 0 0 2.133.19 8.494-.036 11.93.042.483.058 2.552-.044 3.044-.042 10.52.029 19.086-13.144 19.132-29.424.046-16.28-8.447-29.5-18.967-29.53" fill="#131335"/>
        <path d="M238.52 176.81c.018-6.836 2.883-12.63 6.85-14.706.77-.403 1.58-.668 2.42-.773.272-.033.546-.05.822-.05 5.552.014 10.034 6.99 10.012 15.582-.022 8.59-4.541 15.543-10.093 15.528-.188 0-.374-.01-.56-.026-5.29-.464-9.473-7.255-9.451-15.555" fill="#E9E8F0"/>
        <path d="M20.07 106.44c7.438-18.204 14.632-65.164 151.038-54.496 0 0 49.48 3.582 78.6 58.103 29.122 54.522 17.645 74.318 17.645 74.318s-.176.38-.875 1.019c.77-10.999 1.64-41.765-12.607-42.803-14.401-1.049-20.786 36.683-22.543 49.566-.306 2.247-2.07 4.01-4.313 4.297-10.285 1.319-23.167 2.436-39.31 3.136-9.203.399-17.865.863-26.073 1.363 2.04-4.424 7.151-18.277.3-34.866-7.916-19.168-22.345-15.238-22.345-15.238s-13.413 2.268-22.128 38.348c-.73 3.017-1.66 5.673-2.718 8.016-2.144 4.75-6.935 7.727-12.128 7.493-31.06-1.4-55.873-1.117-82.834-3.225-37.477-2.93-7.359-76.309.29-95.031" fill="#34306F"/>
        <path d="M16.441 115.472c.932 1.168 2.224 1.907 4.183 1.907l10.081.089-.577-12.092c0-4.96-1.728-8.59-6.097-9.245-1.65 3.927-2.808 7.48-3.972 10.33-.929 2.27-2.19 5.357-3.618 9.011M110.519 95.972c-5.472 0-9.907 4.446-9.907 9.932v12.004h9.505c4.741 0 8.818-3.369 9.724-8.035l.402-2.072c1.19-6.131-3.494-11.83-9.724-11.83" fill="#FFD997"/>
        <path d="M151.426 113.922c-1.164-4.084-2.063-7.655-2.566-10.384-2.622-14.235-5.92-32.47 8.246-35.853 14.166-3.384 37.733-6.413 48.667 11.664 10.762 17.792 13.675 30.683 13.675 30.683s.188.585.497 1.655" fill="#BDBDEF"/>
        <path d="M219.848 109.383c.097.356-82.524-2.443-82.524-2.443s1.072 18.211 3.216 18.67c2.143.46 48.47 6.276 55.857 6.377 7.387.101 40.617-12.467 39.974-12.524-.643-.057-16.523-10.08-16.523-10.08" fill="#34306F"/>
        <path d="M168.877 127.836c-6.287 0-11.383-5.11-11.383-11.412v-5.004c0-6.303 5.096-11.412 11.383-11.412 6.287 0 11.384 5.11 11.384 11.412v5.004c0 6.303-5.097 11.412-11.384 11.412z" stroke="#131335" stroke-width="4"/>
        <path d="M100.612 117.908c2.606.017 4.858-1.838 5.368-4.401 9.274-46.558 7.063-44.022-38.99-43.623-27.485.238-36.331 23.688-39.35 31.075-1.105 2.707-2.976 7.274-4.89 12.699-.642 1.822.707 3.74 2.634 3.753l75.228.497z" fill="#BDBDEF"/>
        <path d="M219.848 111.33l-68.415 2.232c4.895 17.094 14.541 43.553 19.075 54.366 4.674 11.147 10.291 15.475 31.412 13.673 20.346-1.737 20.369-9.035 21.91-19.758 2.874-20.014-1.955-43.452-3.982-50.513" fill="#232152"/>
        <path d="M419.233 267c-.242-.005-.482-.024-.72-.05-6.801-.745-12-9.61-11.74-20.301.213-8.804 4.066-16.187 9.233-18.75 1.004-.499 2.056-.817 3.141-.928.35-.035.703-.05 1.06-.042 7.15.175 12.73 9.287 12.46 20.352-.268 11.065-6.283 19.894-13.434 19.72m1.29-53.046c-.588-.014-1.17.01-1.746.069-3.213-.079-8.389-.262-10.38-.319-.368-.012-.391-.01-.833-.022-1.777-.048-3.525.222-5.22.768-4.089 6.38-8.515 16.3-12.146 31.713-.803 3.407-1.837 6.406-3.018 9.05-.632 1.418-1.487 2.708-2.503 3.838 2.441 11.182 8.968 19.047 17.468 19.696 0 0 12.6.932 15.587 1.144.392.043.787.073 1.186.082 9.24.226 17.326-8.673 20.6-21.317.9-3.478 1.438-7.238 1.534-11.171.442-18.23-8.749-33.243-20.53-33.53" fill="#131335"/>
        <path d="M685.856 124.312c-8.74-23.283-39.792-76.836-160.335-57.441-23.043 3.707-41.822 7.655-63.67 15.88-36.857 13.875-63.025 38.855-84.891 82.268-20.127 39.959-20.876 59.599-20.454 78.156 0 .002-.316 24.848 36.527 26.247 36.844 1.398 76.403 10.81 146.808-.826 67.107-11.09 147.578-23.811 154.97-24.978.185-.026.366-.056.546-.087h.004c31.682-5.337-.81-96.055-9.505-119.219" fill="#4747A1"/>
        <path d="M573.672 217.093c-.307-.732-.62-1.438-.942-2.118-8.45-17.95-32.486-20.328-43.31-3.707-.078.119-1.91 3.452-1.987 3.573 1.984-.64 6.36-5.194 8.439-5.138.517.014.545.012.975.026 2.33.066 8.386.28 12.144.373.675-.069 1.356-.097 2.043-.08 13.785.337 24.54 17.902 24.021 39.234-.111 4.6-.741 9-1.795 13.07l.514-.072c2.772-6.335 8.735-24.097-.102-45.161" fill="#242477"/>
        <path d="M549.463 272.108c-.283-.008-.564-.03-.842-.061-7.956-.894-14.012-11.282-13.675-23.791.278-10.3 4.808-18.927 10.862-21.911 1.176-.58 2.408-.949 3.678-1.075.41-.04.823-.057 1.24-.046 8.366.227 14.866 10.906 14.518 23.852-.35 12.947-7.415 23.258-15.78 23.032m1.671-62.063c-.514-.014-1.025-.003-1.532.032-.34.023-.678.038-1.02.029-3.774-.109-9.407-.323-11.633-.391-.43-.016-.459-.014-.976-.03l-.062-.001c-3.514-.092-6.77 1.868-8.47 4.952-4.088 7.415-8.305 17.972-11.888 33.002-.95 3.983-2.17 7.488-3.559 10.579-.219.488-.46.962-.722 1.423-1.407 2.472-1.747 5.403-.833 8.098 3.516 10.372 10.38 17.382 18.993 18.062 0 0 14.74 1.13 18.234 1.387.459.052.92.088 1.387.1 10.81.293 20.3-10.095 24.17-24.88 1.064-4.066 1.705-8.464 1.83-13.065.574-21.33-10.135-38.924-23.919-39.297" fill="#131335"/>
        <path d="M565.243 249.076c.349-12.946-6.15-23.625-14.517-23.852-.416-.011-.83.005-1.24.046-1.27.126-2.502.495-3.678 1.075-6.053 2.983-10.585 11.61-10.862 21.91-.337 12.51 5.719 22.899 13.675 23.792.279.03.559.053.842.06 8.367.227 15.432-10.085 15.78-23.03" fill="#E9E8F0"/>
        <path d="M702.362 205.654c-8.58-20.45-23.986-16.161-23.986-16.161s-5.494.964-11.839 10.865c1.619-.521 3.288-.779 4.984-.733.423.01.445.01.796.021 1.9.054 6.842.23 9.908.304.55-.056 1.106-.08 1.667-.065 11.247.274 20.022 14.606 19.599 32.01-.091 3.755-.605 7.344-1.465 10.665l.42-.06c2.261-5.168 7.127-19.66-.084-36.846" fill="#242477"/>
        <path d="M682.661 250.525c-.23-.006-.46-.023-.687-.047-6.493-.712-11.456-9.176-11.209-19.382.205-8.405 3.883-15.453 8.816-17.9.958-.476 1.962-.78 2.998-.886.334-.033.672-.048 1.012-.04 6.826.167 12.153 8.866 11.896 19.43-.257 10.563-6 18.992-12.826 18.825m1.23-50.64c-.56-.014-2.567-.176-3.117-.12-3.067-.075-6.557-.065-8.457-.119-.351-.012-.373-.01-.796-.021-1.696-.046-3.365.212-4.984.734-3.903 6.09-8.128 15.56-11.595 30.275-.766 3.252-1.753 6.114-2.88 8.64-.604 1.353-1.42 2.585-2.39 3.663 2.33 10.675 8.562 18.184 16.676 18.803 0 0 12.03.89 14.88 1.092.375.042.752.07 1.132.079 8.821.216 16.54-8.28 19.666-20.351.86-3.32 1.374-6.91 1.465-10.665.423-17.404-8.352-31.736-19.6-32.01" fill="#131335"/>
        <path d="M695.487 231.7c.257-10.564-5.07-19.263-11.896-19.43-.34-.008-.678.006-1.011.04-1.037.106-2.041.41-2.999.885-4.933 2.448-8.611 9.496-8.816 17.901-.247 10.206 4.716 18.67 11.21 19.381.227.025.455.043.686.048 6.827.167 12.569-8.261 12.826-18.825" fill="#E9E8F0"/>
        <path d="M389.368 151.453c24.643 1.404 56.544 4.708 108.2 2.303 3.604-.167 6.836-1.915 8.738-4.454 21.911-29.239 23.649-30.779 36.683-49.074 5.967-8.375.283-10.766-6.374-11.122-37.564-2.003-57.856-1.383-73.393-.816-3.915.143-7.755.909-11.405 2.163-.092.032-.18.06-.26.086-29.812 12.184-44.995 35.579-62.734 60.053-.265.365.033.832.545.861" fill="#BDBDEF"/>
        <path d="M574.563 149.212s2.875 46.97 4.007 62.675c1.133 15.706.71 33.515 23.68 30.767 22.969-2.748 53.65 1.179 56.644-52.69 2.722-48.982-2.252-58.023-2.252-58.023l-70.661 3.965-11.418 13.306z" fill="#373793"/>
        <path d="M574.563 149.364c.006 1.05 84.32-5.727 84.32-5.727s-2.94-57.238-45.376-57c-42.437.24-39.138 28.06-38.944 62.727" fill="#BDBDEF"/>
        <path d="M471.618 182.833c-6.577-1.939-12.146 2.43-15.138 10.36l-2.492 10.707c-1.784 7.66 2.102 15.441 8.68 17.38 6.577 1.938 13.354-2.7 15.138-10.36l2.492-10.707c1.783-7.66-2.103-15.442-8.68-17.38M389.076 180.513c-5.84-1.99-11.008 1.727-13.994 8.742l-2.64 9.53c-1.89 6.817 1.311 13.957 7.15 15.947 5.84 1.99 12.104-1.924 13.994-8.742l2.64-9.53c1.89-6.818-1.31-13.957-7.15-15.947" fill="#FFD997"/>
        <path d="M507.602 272.524l11.636-1.102" fill="#A3A2CF"/>
        <path d="M658.883 143.638l-84.424-3.505-.089 4.694c-.018.956.005 1.912.07 2.865l.365 5.453 48.37-5.42 35.708-4.087z" fill="#2F2F8E"/>
        <path d="M460.41 154.27c-.025-.903.012-1.82.112-2.747 1.078-10.022 9.197-17.363 18.136-16.396 8.193.886 14.23 8.446 14.348 17.419" stroke="#131335" stroke-width="4"/>
        <path d="M392.415 145.608c-1.386 1.833-2.754 3.675-4.1 5.523-.265.365.033.832.548.862 24.746 1.402 54.845 4.658 108.655 2.3 3.62-.158 6.865-1.915 8.776-4.454.736-.98 1.448-1.924 2.14-2.842l-116.019-1.389z" fill="#2F2F8E"/>
    </g>
</svg>
