<svg id="Layer_1" data-name="Layer 1" xmlns="http://www.w3.org/2000/svg" viewBox="0 0 710 428.1">
    <defs>
        <style>
            .cls-1{opacity:.15}.cls-2{fill:#4844a3}.cls-3{fill:#050001}.cls-4{opacity:.25}.cls-5{fill:#ff556e}.cls-6{fill:#a3a2cf}.cls-7{fill:#fff}.cls-8{fill:#ff2952}
        </style>
    </defs>
    <title>
        Artboard 2
    </title>
    <g class="cls-1">
        <path class="cls-2" d="M476 217.7a163.8 163.8 0 1 0-327.6 0c0 90.5 73.4 163.7 163.9 163.7a534.34 534.34 0 0 0 60.7-3c5.2-.7 10.4-1.5 15.5-2.4 6.8-2.2 13.4-4.9 20.2-7.1a3.72 3.72 0 0 1 1.8-.2 105.84 105.84 0 0 0 13.9-7.9 4 4 0 0 1 3.9-.5c14.3-8.7 27.6-18.8 40.9-29 14.61-29.6 6.8-69.6 6.8-113.6z"/>
    </g>
    <circle class="cls-3" cx="349.11" cy="190.2" r="163.8"/>
    <g class="cls-4">
        <circle class="cls-5" cx="349.11" cy="190.2" r="95.4"/>
    </g>
    <path class="cls-6" d="M349.11 371.8a181.59 181.59 0 0 1-128.4-310 181.59 181.59 0 1 1 256.8 256.8 180.41 180.41 0 0 1-128.4 53.2zm0-338.1c-86.3 0-156.5 70.2-156.5 156.5s70.2 156.5 156.5 156.5 156.5-70.2 156.5-156.5-70.2-156.5-156.5-156.5z"/>
    <path class="cls-7" d="M349.11 380.2a190.07 190.07 0 0 1-134.4-324.5 190.07 190.07 0 1 1 268.8 268.8 188.8 188.8 0 0 1-134.4 55.7zm0-363.3a173.24 173.24 0 0 0-122.5 295.7 173.15 173.15 0 0 0 295.7-122.4 173.27 173.27 0 0 0-173.2-173.3z"/>
    <circle class="cls-8" cx="349.11" cy="190.2" r="21.4"/>
</svg>
