<svg id="Layer_1" data-name="Layer 1" xmlns="http://www.w3.org/2000/svg" viewBox="0 0 710 437.85">
    <defs>
        <style>
            .cls-1{fill:#4747a1;opacity:.15}.cls-1,.cls-10{isolation:isolate}.cls-11,.cls-2{fill:#fff}.cls-3{fill:#e0e7ff}.cls-4{fill:#d16fd1}.cls-5{fill:#022253}.cls-6{fill:#a3a2cf}.cls-10,.cls-7{fill:#4844a3}.cls-8{fill:#342d71}.cls-9{fill:#85a0ff}.cls-10{opacity:.55}.cls-11{stroke:#fff;stroke-width:1.47px}.cls-12{fill:none;stroke:#4844a3;stroke-linecap:round;stroke-linejoin:round;stroke-width:2.22px}
        </style>
    </defs>
    <title>
        Artboard 3
    </title>
    <path class="cls-1" d="M423.16 354.11c.52 20.46-63.24 38.71-142.44 40.78s-139.49-15.07-139.19-36.2c.52-33.17 67.23-40.49 149.83-53.19 78.54-11.97 131.29 28.14 131.8 48.61z"/>
    <path class="cls-2" d="M479.68 238.26C470.15 195.12 436.54 165 398 165h-97.4c-38.57 0-72.25 30.14-81.71 73.29l-13.3 60.14c-5.84 26.3 11.45 51.94 35 51.94h217.5c23.57 0 40.78-25.64 35-51.94l-13.45-60.14z"/>
    <path class="cls-3" d="M369.82 211.37l-12.19-7.54a3.59 3.59 0 0 1-1.77-2.88l-.22-3.62a3.7 3.7 0 0 1 3.84-3.92l13.82.81a3.76 3.76 0 0 1 3.47 3.92v11.23c-2.15 2.63-4.58 3.41-6.95 2z"/>
    <path class="cls-4" d="M341.89 215.36l-9.82 51.05h33.39l-10.49-55.92-13.08 4.87z"/>
    <path class="cls-5" d="M348.32 170.44l-47.51 2.73L340.34 193l.07.07a19.46 19.46 0 0 1 7.24 8.2l.66 1.33.66-1.33a18.57 18.57 0 0 1 7.24-8.2l.07-.07 39.53-19.87z"/>
    <path class="cls-6" d="M443.26 251.56H252.65a20.13 20.13 0 0 0-20.1 20.17v108.53a20.13 20.13 0 0 0 20.1 20.17h190.61a20.13 20.13 0 0 0 20.1-20.17V271.73a20.13 20.13 0 0 0-20.1-20.17"/>
    <path class="cls-2" d="M370.71 322.12a16.55 16.55 0 1 1-16.55-16.55 16.52 16.52 0 0 1 16.55 16.55M337.17 333a5.69 5.69 0 0 1-11.38 0 5.69 5.69 0 1 1 11.38 0"/>
    <path class="cls-4" d="M353 217.21h-9.16a7.42 7.42 0 0 1-7.39-6.5l-1.18-8.79a7.49 7.49 0 0 1 7.39-8.5h11.45a7.46 7.46 0 0 1 7.39 8.42l-1.11 8.79a7.43 7.43 0 0 1-7.39 6.58z"/>
    <path class="cls-2" d="M407.94 155.52c4.21 0 10 7.76 9.09 12-1.11 5.54-12 17.51-24.31 28.59-8.5 7.61-14.18 11.23-17.81 14.55-1.55 1.4-3 .66-4.14-1.11-3-4.36-1.4-2.66-5.54-7.61a48 48 0 0 0-7-6.94 35.59 35.59 0 0 0-6.8-3.32c-.44-.15.52-.66.81-.89l31.1-16z"/>
    <path class="cls-3" d="M283.23 158c-4.65.37-10.34 8.87-9.16 13.22 1.55 5.69 14 17.81 28.67 28.07 9.75 6.87 16.33 10.71 20.54 13.89 1.77 1.4 3.25.44 4.43-1.48a77.74 77.74 0 0 1 5.54-8.35 50.15 50.15 0 0 1 7.17-7.76 34.87 34.87 0 0 1 6.8-3.69.35.35 0 0 0 .22-.66l-36-14.85z"/>
    <path class="cls-7" d="M455.89 98.26c0 14.26-7.39 25.86-16.4 25.86s-16.4-11.6-16.4-25.86 7.39-25.86 16.4-25.86 16.4 11.53 16.4 25.86M275.85 98.26c0 14.26-7.39 25.86-16.4 25.86S243 112.52 243 98.26s7.39-25.86 16.4-25.86 16.4 11.53 16.4 25.86"/>
    <path class="cls-8" d="M259.44 72.4a10 10 0 0 0-2.14.22c-1.18 7.39-3.62 14.41-6.06 21.5-.66 2 2.51 1.26 1.92 3.25 3.84-2.22 3.47 6.72-.3 9.31-2.44 1.63-4.8 3.47-7.24 5.1v.07c2.88 7.31 8.05 12.19 14 12.19 9.09 0 16.4-11.6 16.4-25.86s-7.49-25.78-16.58-25.78z"/>
    <path class="cls-9" d="M446.21 97.08c0-53.64-44-97.08-98.11-97.08a98.26 98.26 0 0 0-89.25 56.74A96.21 96.21 0 0 0 250 97.15a94.88 94.88 0 0 0 7.75 37.85 98.22 98.22 0 0 0 188.47-37.9z"/>
    <path class="cls-10" d="M339.9 187.88c-24-5.1-41.74-15.22-59.84-32.29a95.64 95.64 0 0 1-21.94-31c-2.51-5.61-5.17-10.64-7.46-16.33a90.51 90.51 0 0 0 7.09 26.74 98.25 98.25 0 0 0 90.43 59.25 100.61 100.61 0 0 0 25.56-3.32c-9.16-.76-24.9-1.21-33.84-3.05z"/>
    <path class="cls-11" d="M374.18 103l.52 6.06a8.34 8.34 0 0 1-16.62 1.4l.22-6.94s.52-7.68 6.94-8.2c6.21-.46 8.57 3.09 8.94 7.68z"/>
    <path class="cls-8" d="M360.88 106.31l-.3 4.21a5.81 5.81 0 1 0 11.6.81l-.22-4.8s-.44-5.32-4.88-5.61-5.98 2.14-6.2 5.39z"/>
    <path class="cls-11" d="M334.43 103.36l.52 6.06a8.34 8.34 0 0 1-16.62 1.4l.22-6.94s.52-7.68 6.94-8.2c6.21-.45 8.57 3.1 8.94 7.68z"/>
    <path class="cls-8" d="M320.77 106.31l-.3 4.21a5.81 5.81 0 1 0 11.6.81l-.22-4.8s-.44-5.32-4.88-5.61-5.97 2.14-6.2 5.39z"/>
    <path class="cls-12" d="M329.56 122h-8.42a7.6 7.6 0 0 1-7.61-7.61 7.6 7.6 0 0 1 7.61-7.61h8.42a7.6 7.6 0 0 1 7.61 7.61 7.6 7.6 0 0 1-7.61 7.61zM369.67 122h-8.42a7.6 7.6 0 0 1-7.61-7.61 7.6 7.6 0 0 1 7.61-7.61h8.42a7.6 7.6 0 0 1 7.61 7.61 7.6 7.6 0 0 1-7.61 7.61zM336.87 110.75a12.35 12.35 0 0 1 17.44 0"/>
    <path class="cls-10" d="M356.08 216.47h-14.41s-.89 4.43-.81 4.36 15.22-4.36 15.22-4.36z"/>
</svg>
