<svg id="Layer_1" data-name="Layer 1" xmlns="http://www.w3.org/2000/svg" viewBox="0 0 710 401.7">
    <defs>
        <style>
            .cls-1,.cls-14,.cls-4,.cls-6,.cls-8{fill:#0b0146}.cls-2{fill:#d16fd1}.cls-3{fill:#fff}.cls-13,.cls-15,.cls-4{opacity:.25}.cls-13,.cls-14,.cls-4,.cls-6,.cls-8{isolation:isolate}.cls-5{fill:#c96f6f}.cls-6{opacity:.15}.cls-7,.cls-8{opacity:.55}.cls-9{fill:#50b9e8}.cls-10{fill:#a3a2cf}.cls-11{fill:#ffa6a6}.cls-12,.cls-16{fill:none;stroke:#fff;stroke-miterlimit:10}.cls-12{stroke-width:2.7px}.cls-13{fill:#29264c}.cls-14{opacity:.77}.cls-16{stroke-width:2.55px}
        </style>
    </defs>
    <title>
        Artboard 4
    </title>
    <path class="cls-1" d="M605.55 233.34H470.43a15.94 15.94 0 0 1-15.94-15.94V179a15.94 15.94 0 0 1 15.94-16h135.12a15.94 15.94 0 0 1 15.93 16v38.4a15.94 15.94 0 0 1-15.93 15.94z"/>
    <path class="cls-2" d="M368.72 401.7l30.82-100.21C412.38 260 447.59 232 487.2 232h95.75c37 0 70.41 24.38 85 62l42 107.7z"/>
    <path class="cls-3" d="M594.84 242.85c0 22.36-25.93 45.91-57.93 45.91S479 265.21 479 242.85s25.93-40.56 57.93-40.56 57.91 18.2 57.91 40.56z"/>
    <path class="cls-4" d="M428.42 270.12c13.25-8.17 27.29-14.07 41.17-20.95A159.31 159.31 0 0 0 496.32 232h-9.12c-1.94 0-3.56-1.72-5.48-1.59-.29 0-.88 1.83-1.17 1.85-31.59 2.51-59.64 22.79-74.64 53.21 7.31-5.56 14.92-10.67 22.51-15.35z"/>
    <path class="cls-5" d="M587.59 239c0 19.63-17.25 40.2-50.67 40.2-37.47 0-50.67-20.58-50.67-40.2s22.75-35.4 50.67-35.4 50.67 15.82 50.67 35.4z"/>
    <path class="cls-6" d="M587.59 239c0 19.63-17.25 40.2-50.67 40.2-37.47 0-50.67-20.58-50.67-40.2s22.75-35.4 50.67-35.4 50.67 15.82 50.67 35.4z"/>
    <path class="cls-5" d="M620.06 167.08a32.79 32.79 0 0 0-3.33-8.8 10.15 10.15 0 0 1-1.19-5.95c.36-3.21.83-6.42 1.31-9.63a70.15 70.15 0 0 0-.59-20.58 86.24 86.24 0 0 0-6.3-22.24 88.26 88.26 0 0 0-14.63-23.43 75.93 75.93 0 0 0-53.76-25.81 82 82 0 0 0-14.27.71 102.84 102.84 0 0 0-13.44 2.5 64.18 64.18 0 0 0-25.36 13.32 103.68 103.68 0 0 0-13 13.08 79.17 79.17 0 0 0-12.37 21.29 93 93 0 0 0-6.54 37.82 101 101 0 0 0 1.55 13.44 6.51 6.51 0 0 1-1.9 6.3c-2.26 2.14-2 5.23-2.74 8.09a27.54 27.54 0 0 0 .59 13.92 125.26 125.26 0 0 0 4.91 12.62c1.67 3.69 4.16 6.9 8.21 8.33a3.23 3.23 0 0 1 2.26 2.5c2.5 9.52 6.9 18.2 11.89 26.52 1.55 2.5 2.74 5.95 4.76 8.09l.48.83s10.23 27.12 49.12 27.12 54.6-33.54 54.6-33.54a101.58 101.58 0 0 0 13.92-29.5 2.31 2.31 0 0 1 1.19-1.55c5.83-2.14 8.8-6.78 10.47-12.25.36-1.31 1-2.62 1.43-3.93 2.97-6.18 4.51-12.49 2.73-19.27z"/>
    <g class="cls-7">
        <path class="cls-1" d="M532.4 194a1.43 1.43 0 0 0-1.67 0 2.49 2.49 0 0 0-.83 1.55 4.77 4.77 0 0 0 .36 1.78 4.47 4.47 0 0 0 1.78 2.14 2.54 2.54 0 0 0 2.74-.12 1.86 1.86 0 0 0 .36-2.5zM544.29 194.56a3.41 3.41 0 0 0-.12 3.21 3.07 3.07 0 0 0 2.62 1.67 2 2 0 0 0 2.14-1.31c.36-1.07-.48-2-1.31-2.85a3.28 3.28 0 0 0-2.5-1.31z"/>
        <path class="cls-4" d="M548.93 198.25a2.76 2.76 0 0 0-3.33-1.67c-2.5.59-6.78 2.62-9.28 1.19s-3.21-3.09-6.3-2.74a7.07 7.07 0 0 0-5.59 4.52c-1.78 5.83 5.83 6.78 9.75 6.3a42.59 42.59 0 0 0 13.08-3.93 4.22 4.22 0 0 0 1.07-.48 2.2 2.2 0 0 0 .6-3.19z"/>
    </g>
    <path class="cls-8" d="M498.14 165.42a23.35 23.35 0 0 1 20-5.95c3.45.59 3.33-4.88-.12-5.47-9.28-1.55-14.75.12-21.77 6.54-2.5 2.38-.59 7.26 1.9 4.88M575.57 163.87a23.23 23.23 0 0 0-20.7-3c-3.33 1.07-4-4.28-.71-5.47 9-3 14.63-2 22.48 3.21 3 2.14 1.9 7.26-1.07 5.23"/>
    <circle class="cls-1" cx="563.44" cy="173.51" r="4.52"/>
    <circle class="cls-1" cx="513.25" cy="173.51" r="4.52"/>
    <path class="cls-8" d="M552.5 216.92a74.61 74.61 0 0 0-26.64 2.74c-3.33 1-2 6.3 1.31 5.23a72.39 72.39 0 0 1 25.22-2.62c3.45.48 3.57-5 .12-5.35"/>
    <path class="cls-1" d="M531.44-1.22a29.14 29.14 0 0 1 29.14 29.14c0 16.09-15.51 29.14-29.14 29.14-11.68 0-29.14-13-29.14-29.14a29.14 29.14 0 0 1 29.14-29.14z"/>
    <path class="cls-1" d="M626.36 111.18c-1.07-11.54-3.81-18.56-9-28.43-4.52-8.56-11.78-14.87-19.15-20.22-28.78-20.7-65.42-30.21-97.53-17.37s-57.57 40-51.62 78.15l3.21 15c.12.83.24 1.55.36 2.38 2.14 10.23 3.69 16.65 4.52 19.27a2.49 2.49 0 0 0 .48.71l8.33 7.73a2 2 0 0 0 2.74 0c3.81-3.45 2.26-13.44 4.52-18 4.76.12 11.89 6.07 15.82 0 5.35-8.44 17.6-19.51 24.62-26-.48 14.87 16.18 24.5 28.55 19.86s20.34-17.6 26-30.81c2.26 6.78 4.64 15.34 13.2 19.15 3.93 3 8.21 5.11 13.2 7.85 3.93 6.66 6.42 16.89 14.39 20 1.78.71 4.16-.59 7.14-3.69.12-.12.24-.24.24-.36 1-4 1.67-8 2.38-11.78 7.72-13.34 9.39-15.36 7.6-33.44z"/>
    <path class="cls-9" d="M508.52 43.85l46.56-.35c4.35 0 4.66-6.64.19-6.55l-46.56.35c-4.47 0-4.66 6.53-.19 6.55z"/>
    <path class="cls-10" d="M.1 401.73l31.56-102.62c12.85-41.51 48.05-69.46 87.66-69.46h95.75c37 0 70.41 24.38 85 62l18.67 48.05c5 12.91 11.17 42.52 13.35 62z"/>
    <path class="cls-3" d="M227.08 243.32c0 22.36-25.93 45.91-57.93 45.91s-57.93-23.55-57.93-45.91 25.93-40.56 57.93-40.56 57.93 18.24 57.93 40.56z"/>
    <path class="cls-4" d="M37.34 307.72c9.84-13.21 20.45-27.2 33.83-37 13-9.59 29.29-12.52 43.21-20.38a44.2 44.2 0 0 0 16.9-16.68c.77-1.31 1.52-2.64 2.25-4h-14.21c-39.61 0-74.82 28-87.66 69.46l-9 29.39c4.75-7.01 9.61-13.98 14.68-20.79z"/>
    <path class="cls-11" d="M219.83 239.52c0 19.63-17.25 40.2-50.67 40.2-37.47 0-50.67-20.58-50.67-40.2s22.72-35.45 50.67-35.45 50.67 15.82 50.67 35.45z"/>
    <path class="cls-6" d="M219.83 239.52c0 19.63-17.25 40.2-50.67 40.2-37.47 0-50.67-20.58-50.67-40.2s22.72-35.45 50.67-35.45 50.67 15.82 50.67 35.45z"/>
    <path class="cls-11" d="M252.3 167.56a32.79 32.79 0 0 0-3.33-8.8 10.15 10.15 0 0 1-1.19-5.95c.36-3.21.83-6.42 1.31-9.63a70.15 70.15 0 0 0-.59-20.58 86.24 86.24 0 0 0-6.3-22.24 88.26 88.26 0 0 0-14.63-23.43 75.93 75.93 0 0 0-53.76-25.81 82 82 0 0 0-14.27.71 102.84 102.84 0 0 0-13.44 2.5 64.18 64.18 0 0 0-25.34 13.32 103.68 103.68 0 0 0-13 13.08A79.17 79.17 0 0 0 95.41 102a93 93 0 0 0-6.54 37.82 101 101 0 0 0 1.55 13.44 6.51 6.51 0 0 1-1.9 6.3c-2.26 2.14-2 5.23-2.74 8.09a27.54 27.54 0 0 0 .59 13.92 125.26 125.26 0 0 0 4.88 12.61c1.67 3.69 4.16 6.9 8.21 8.33a3.23 3.23 0 0 1 2.26 2.5c2.5 9.52 6.9 18.2 11.89 26.52 1.55 2.5 2.74 5.95 4.76 8.09l.48.83s9.87 28 48.89 28S222.56 234 222.56 234a101.58 101.58 0 0 0 13.92-29.5 2.31 2.31 0 0 1 1.19-1.55c5.83-2.14 8.8-6.78 10.47-12.25.36-1.31 1-2.62 1.43-3.93 2.85-6.13 4.43-12.43 2.73-19.21z"/>
    <path class="cls-12" d="M131.69 169.46l-34.38-9.87M209.95 169.46l34.38-9.87"/>
    <g class="cls-7">
        <path class="cls-1" d="M164.52 194.44a1.43 1.43 0 0 0-1.67 0A2.49 2.49 0 0 0 162 196a4.77 4.77 0 0 0 .36 1.78 4.47 4.47 0 0 0 1.78 2.14 2.54 2.54 0 0 0 2.74-.12 1.86 1.86 0 0 0 .36-2.5zM176.53 195a3.41 3.41 0 0 0-.12 3.21 3.07 3.07 0 0 0 2.62 1.67 2 2 0 0 0 2.14-1.31c.36-1.07-.48-2-1.31-2.85a3.28 3.28 0 0 0-2.5-1.31z"/>
        <path class="cls-13" d="M181.17 197.65c-.48-.83-1.67-1.31-3.33-1.07-2.5.36-6.78 1.67-9.28.83s-3.21-2-6.3-1.78c-2.38.24-4.88 1.43-5.59 3-1.78 3.81 5.83 4.52 9.75 4.28a67.11 67.11 0 0 0 13.08-2.62l1.07-.36a1.36 1.36 0 0 0 .6-2.28z"/>
    </g>
    <path class="cls-8" d="M131.45 165.3a29.46 29.46 0 0 1 23.31-3.81c3.81 1 4.28-4.52.36-5.47-10.47-2.62-16.89-1.43-25.34 4.16-3.09 2.14-1.55 7.26 1.67 5.11M210.19 165.3a31.1 31.1 0 0 0-23.91-3.93c-3.93 1-4.52-4.52-.59-5.47 10.59-2.62 17.13-1.43 25.93 4.28 3.33 2.14 1.9 7.26-1.43 5.11"/>
    <circle class="cls-14" cx="195.09" cy="174.93" r="3.57"/>
    <circle class="cls-14" cx="145.37" cy="174.93" r="3.57"/>
    <path class="cls-4" d="M237.67 202.17s3-14.27 2.38-41c-.48-20.93 3.21 15.7 4.88 32.71a7.48 7.48 0 0 1-7.26 8.33z"/>
    <g class="cls-15">
        <path class="cls-1" d="M97.19 191.46c.12-3.09.36-6.07-.48-9a50.62 50.62 0 0 1-1.67-6.07 36.35 36.35 0 0 1 .24-6.19v-.36a2.14 2.14 0 0 0-.48-1.9c-1.31-1.31-3.33-1.07-4.28 1.07v.12a9.88 9.88 0 0 0 .36 7.14 50.53 50.53 0 0 0 3.21 6.19c1.31 2.5 1.55 5.47 2.14 8.33a1.12 1.12 0 0 0 .96.67z"/>
    </g>
    <path class="cls-4" d="M604.71 203.12s3.81-15.7 3.21-42.46c-.48-20.93 3.21 15.7 4.88 32.71.48 4.4-2.5 9-6.9 9.16z"/>
    <g class="cls-15">
        <path class="cls-1" d="M465.07 191c.12-3.09.36-6.07-.48-9a50.62 50.62 0 0 1-1.67-6.07 36.35 36.35 0 0 1 .24-6.19v-.36a2.14 2.14 0 0 0-.48-1.9c-1.31-1.31-3.33-1.07-4.28 1.07v.12a9.88 9.88 0 0 0 .36 7.14A50.53 50.53 0 0 0 462 182c1.31 2.5 1.55 5.47 2.14 8.33a1.12 1.12 0 0 0 .93.67z"/>
    </g>
    <g class="cls-7">
        <path class="cls-1" d="M159.16 230.48c10.11 1.55 21.77-1.31 30.21-7 2-1.31.12-4.52-1.9-3.21-7.61 5.23-18.32 8.09-27.36 6.66-2.26-.36-3.33 3.21-1 3.57z"/>
    </g>
    <path class="cls-1" d="M99 161.37c.24-.24.48-.36.71-.59 13-8.33 13.08-22.12 13.44-36.16.24-12 .24-25 7-35.21l1.55-16.53c.24-2.5.36-5.35-2.62-6.9a6.2 6.2 0 0 0-5.23-.12c-10 4.4-20.46 11.3-23.67 21.29-5.11 16.06-4 50.67-4 67.56 0 5.59 2.38 6.07 3.69 3.57a2.26 2.26 0 0 1 3.57-.59 2.49 2.49 0 0 1 .48.71c1.25 2.85 2.8 3.33 5.08 2.97zM249.32 157.92c-1.78 4.52-4.52 7.85-9.16 6.42s-5-7.61-6.9-12.13-6.66-10.7-7.14-15.58c-1.9-21.05-5.83-40-7.85-60.9-.24-2.5-.36-5.35 2.62-6.9a6.2 6.2 0 0 1 5.23-.12c10 4.4 16.89 13.56 20.1 23.67 5.11 16.06 5.95 34.14 6.78 51a28.06 28.06 0 0 1-3.69 14.51z"/>
    <path class="cls-1" d="M119.68 56.11c-15.22 12.13-14 33.07-5.83 32.71 16.77-.71 25.22 13 45.08 14.87 21.05 2 41.87 5.83 61.61-2.26 7.49-3.09 15.58-8.21 15.11-19a21.15 21.15 0 0 0-.83-4.64c-2.14-7.14-13.44-23-18.91-26.52-30.21-20.1-49.72-14-81.24-3.69-5.47 1.78-10.23 5.35-15 8.56z"/>
    <circle class="cls-12" cx="145.37" cy="175.53" r="14.87"/>
    <circle class="cls-12" cx="195.09" cy="175.53" r="14.87"/>
    <path class="cls-16" d="M160.35 175.41a10 10 0 0 1 20 0"/>
</svg>
