<svg id="Layer_1" data-name="Layer 1" xmlns="http://www.w3.org/2000/svg" viewBox="0 0 710 401.7">
    <defs>
        <style>
            .cls-1{fill:#0b0146}.cls-2{fill:#e29276}.cls-10,.cls-3{fill:#281b3a}.cls-3,.cls-9{opacity:.5}.cls-3{isolation:isolate}.cls-4{fill:#ffc9b8}.cls-5{fill:#fff}.cls-6{fill:#4747a1}.cls-7{fill:#29264c}.cls-8{fill:#5b2e3e}
        </style>
    </defs>
    <title>
        Artboard 1
    </title>
    <path class="cls-1" d="M159.2 349c-6.1-20.2-3.2-41.9-2.3-63a319 319 0 0 0-4.5-67.6c-4.5-25.8-11.4-55.1 4.5-75.9 5.3-6.9 9.6-20.6 15.8-26.7 13.7-13.5 21.8-31.9 35.9-45.1 9.5-9 21.3-15 32.1-22.5 15.1-10.5 27.1-25.5 43.5-33.8 54-27.2 112-12.4 160.8 15 7.3 4.1 13 10.6 19.9 15.3 6.3 4.3 13.2 7.9 19.3 12.5 22.7 16.9 42.5 44.8 49.9 72.1 20.7 77 6.2 158.7 7.3 238.4l-24.1 36.4s-191.8-.2-207.5 0-147.3-15.3-147.3-15.3z"/>
    <path class="cls-2" d="M544.1 404.2c3-7.6 3.7-15.7 4.5-23.7 1.5-15.8 2.8-32-1.5-47.2-2-7-11.2-10.6-18.8-7.4a23.56 23.56 0 0 0-8.9 6.1c-1.3-44.1-8.1-73.2-9.4-117.2-.3-9.4-5.3-33.2-9.6-42s-13.2-16.4-24.3-17.3c-7.3-.6-14.3 1.7-21.4 3.3-25.7 5.6-44.3-.1-65.3-13.9-5.2-3.4-10.1-7.4-16.1-9.5-21.6-7.6-42.6 10.3-63.7 18.7-19.5 7.8-43.2 7.1-62.3-1.2-8.7-3.8-19.4-1.5-25.1 5.3-12.6 15-24 30.7-29.3 48.4-4.8 15.8-4.5 32.4-4 48.7q1 40 3.3 79.9c-7-12.1-22.3-33.8-37.5-29.8-14.2 3.7-13.3 27.2-11.1 39.6a179.62 179.62 0 0 0 16.6 49.7 75.12 75.12 0 0 0 5.6 9.4z"/>
    <path class="cls-3" d="M516.1 411.4s5-26 3.5-72 14.6 70.2 14.6 70.2z"/>
    <path class="cls-4" d="M454.1 301.4a170.61 170.61 0 0 1 21.9 11.4c-7.3-4.5-14.2-8.9-21.9-11.4zM285.1 301.4a170.61 170.61 0 0 1 21.9 11.4c-7.3-4.5-14.2-8.9-21.9-11.4z"/>
    <path class="cls-5" d="M269.7 322.1c-3.3-2.9-5.6-6.7-5.6-11.4a15.49 15.49 0 0 1 1.7-7.1 75.88 75.88 0 0 0-10.6 6.3c-2.2 1.5-4.5 3.1-6.7 4.8-.2.1-.4.3-.6.3a69.24 69.24 0 0 0 26.4 9.2 8.12 8.12 0 0 1-4.6-2.1zM320.1 312.4a180.91 180.91 0 0 0-22.6-11.8 43.91 43.91 0 0 0-5.2-1.3l-1.6-.3a16.09 16.09 0 0 1 5.1 11.8 16.31 16.31 0 0 1-5.7 12.3c11.6-2.6 26.8-7.1 30.9-10.1a.1.1 0 0 0 .1-.1c-.1 0-.3-.1-.4-.1s-.4-.1-.5-.3a.1.1 0 0 1-.1-.1z"/>
    <path class="cls-6" d="M296.1 311.3a15.49 15.49 0 0 0-5-11.4 39 39 0 0 0-7.7-.4 36.79 36.79 0 0 0-8.9 1.4c-.6.2-1.2.3-1.8.5a56.31 56.31 0 0 0-7.7 3.1 15.8 15.8 0 0 0-1.6 6.8 14.5 14.5 0 0 0 5.4 11 8.09 8.09 0 0 0 4.4 2 30.56 30.56 0 0 0 4.7.4 85.35 85.35 0 0 0 8.6-.7h.1l3.8-.6c.1-.1.2-.1.2-.2a15.79 15.79 0 0 0 5.5-11.9zm-16.3 8.7a8.2 8.2 0 1 1 8.2-8.2 8.24 8.24 0 0 1-8.2 8.2z"/>
    <circle class="cls-7" cx="279.8" cy="311.8" r="9.3"/>
    <path class="cls-8" d="M322.5 308.1c-12.7-7.9-23.7-14.7-39.1-14.1-14.7.5-26.3 7.8-37.7 16.4-2.6 1.9-.4 6.2 2.2 5l.6-.3c2.1-1.6 4.3-3.1 6.4-4.6a75.58 75.58 0 0 1 10.2-6 51.61 51.61 0 0 1 7.7-3.1 12.09 12.09 0 0 1 1.8-.5 50.14 50.14 0 0 1 8.9-1.4 38.56 38.56 0 0 1 7.7.4c.5.1 1 .2 1.6.3a47.67 47.67 0 0 1 5.1 1.3c7.7 2.4 14.6 6.8 21.9 11.4a.1.1 0 0 1 .1.1c.2.1.3.2.5.2s.3.1.4.1c2.4.5 4.4-3.5 1.7-5.2z"/>
    <path class="cls-1" d="M322.6 270.4c-13.2-3.5-27-4-40.5-2.8-.3 0-.5.1-.8.1-9.8 1.3-19.8 2.8-29.2 5.8a112.65 112.65 0 0 0-12.6 4.8c-2.3 1-9.7 3.5-7.8 7.2s8.5 2 11.5 1.5c5.2-.9 10.6-.6 15.8-1.9a1.27 1.27 0 0 1 .6-.1 21.11 21.11 0 0 0 2.6-.2c4.9-.9 9.8-1.9 14.8-2.5 14.4-1.9 28.8-1.9 42.9 1.9 3.7 1 7.5-2 8.2-5.6a7 7 0 0 0-5.5-8.2z"/>
    <path class="cls-5" d="M425.8 322.2a14.72 14.72 0 0 1-5.5-11.3 16.35 16.35 0 0 1 1.6-7 93.21 93.21 0 0 0-10.5 6.2q-3.3 2.25-6.6 4.8c-.2.1-.4.3-.6.3a67.66 67.66 0 0 0 26.1 9.1 9.81 9.81 0 0 1-4.5-2.1zM476.2 312.6a176.27 176.27 0 0 0-22.3-11.6 47.67 47.67 0 0 0-5.1-1.3l-1.6-.3a15.85 15.85 0 0 1 5.1 11.6 16.14 16.14 0 0 1-5.6 12.1c11.4-2.6 26.4-7 30.5-10a.1.1 0 0 0 .1-.1c-.2 0-.3-.1-.5-.1s-.3-.1-.5-.2c0-.1 0-.1-.1-.1z"/>
    <path class="cls-6" d="M452.5 311.3a15.49 15.49 0 0 0-5-11.4 39 39 0 0 0-7.7-.4 36.79 36.79 0 0 0-8.9 1.4c-.6.2-1.2.3-1.8.5a56.31 56.31 0 0 0-7.7 3.1 15.8 15.8 0 0 0-1.6 6.8 14.5 14.5 0 0 0 5.4 11 8.09 8.09 0 0 0 4.4 2 30.56 30.56 0 0 0 4.7.4 85.35 85.35 0 0 0 8.6-.7h.1l3.8-.6c.1-.1.2-.1.2-.2a16.14 16.14 0 0 0 5.5-11.9zm-16.3 8.7a8.2 8.2 0 1 1 8.2-8.2 8.24 8.24 0 0 1-8.2 8.2z"/>
    <circle class="cls-7" cx="436.2" cy="311.8" r="9.4"/>
    <g class="cls-9">
        <path class="cls-10" d="M454.1 402.5c-22.6-20.2-38.8-42.2-43-65-4.1-14.5-2.8-54.9-4.8-64.3-1-4.5-14.1-1.1-16.4 3.8-26.2 54.2-11.8 97.3 17 141.1z"/>
    </g>
    <path class="cls-8" d="M478.8 308.1c-12.7-7.9-23.7-14.7-39.1-14.1-14.7.5-26.3 7.8-37.7 16.4-2.6 1.9-.4 6.2 2.2 5l.6-.3c2.1-1.6 4.3-3.1 6.4-4.6a75.58 75.58 0 0 1 10.2-6 51.61 51.61 0 0 1 7.7-3.1 12.09 12.09 0 0 1 1.8-.5 50.14 50.14 0 0 1 8.9-1.4 38.56 38.56 0 0 1 7.7.4c.5.1 1 .2 1.6.3a47.67 47.67 0 0 1 5.1 1.3c7.7 2.4 14.6 6.8 21.9 11.4a.1.1 0 0 1 .1.1c.2.1.3.2.5.2a.9.9 0 0 0 .5.1c2.4.5 4.3-3.5 1.6-5.2z"/>
    <path class="cls-1" d="M465.1 272.6c-9.6-2.6-19.5-3.9-29.4-4.9a2.2 2.2 0 0 1-.8-.1c-13.6-.8-27.3.1-40.4 4-3.6 1.1-6.2 4.5-5.3 8.4.8 3.5 4.7 6.4 8.4 5.3 14-4.2 28.4-4.6 42.8-3.2 5 .5 9.9 1.3 14.9 2.1a24.37 24.37 0 0 0 2.7.1 1.27 1.27 0 0 1 .6.1c5.2 1.1 10.6.6 15.8 1.4 3 .4 9.8 2 11.5-1.8s-5.7-6.1-8-7c-4.3-1.6-8.4-3.2-12.8-4.4z"/>
    <g class="cls-9">
        <path class="cls-10" d="M181.7 404.2c.4-7.2 1-14.5-1.1-21.5-1.4-4.8-3.5-9.3-4.2-14.3s.3-9.7.7-14.5c0-.3.1-.5.1-.8a4.2 4.2 0 0 0-1.1-4.4 6.68 6.68 0 0 0-10.9 2.5c0 .1 0 .1-.1.2-2.3 5.2-1.4 11.6.8 16.8s5.5 9.8 8.3 14.7c3.4 5.8 4.1 12.8 5.5 19.6a1.85 1.85 0 0 0 2 1.7z"/>
    </g>
</svg>
