<svg width="800" height="630" viewBox="0 0 800 630" xmlns="http://www.w3.org/2000/svg">
    <title>
        2-3-Game tree-1
    </title>
    <g fill="none" fill-rule="evenodd">
        <path d="M16.2 62v14h-3.16v-8.68L10.02 76h-2.4L4.5 67.32V76H1.34V62h3.74l3.74 9.74 3.7-9.74h3.68zm2.422 1.16c0-1.08.86-1.94 1.96-1.94 1.12 0 1.98.86 1.98 1.94 0 1.06-.86 1.94-1.98 1.94-1.1 0-1.96-.88-1.96-1.94zm.44 12.84v-9.64h3.06V76h-3.06zm5.882 0v-9.64h3.06v1.4c.54-1.04 1.66-1.64 3.16-1.64 1.24 0 2.18.42 2.7 1.1.6.74.76 1.68.76 3.06V76h-3.06v-4.94c0-1.38-.42-2.34-1.7-2.34-1.24 0-1.86.96-1.86 2.44V76h-3.06zM16.2 230v14h-3.16v-8.68L10.02 244h-2.4l-3.12-8.68V244H1.34v-14h3.74l3.74 9.74 3.7-9.74h3.68zm7.602 11.64c1.38 0 2.3-1.12 2.3-2.46 0-1.32-.92-2.46-2.3-2.46s-2.3 1.14-2.3 2.46c0 1.34.92 2.46 2.3 2.46zm2.3-7.28h3.06V244h-3.06v-1.36c-.46.88-1.7 1.6-2.94 1.6-2.78 0-4.7-2.18-4.7-5.06 0-2.88 1.92-5.06 4.7-5.06 1.24 0 2.48.74 2.94 1.62v-1.38zm11.542 4.78l3.3 4.86h-3.54l-1.58-2.8-1.58 2.8h-3.54l3.32-4.86-3.26-4.78h3.54l1.52 2.72 1.52-2.72h3.54l-3.24 4.78zM16.2 401v14h-3.16v-8.68L10.02 415h-2.4l-3.12-8.68V415H1.34v-14h3.74l3.74 9.74 3.7-9.74h3.68zm2.422 1.16c0-1.08.86-1.94 1.96-1.94 1.12 0 1.98.86 1.98 1.94 0 1.06-.86 1.94-1.98 1.94-1.1 0-1.96-.88-1.96-1.94zm.44 12.84v-9.64h3.06V415h-3.06zm5.882 0v-9.64h3.06v1.4c.54-1.04 1.66-1.64 3.16-1.64 1.24 0 2.18.42 2.7 1.1.6.74.76 1.68.76 3.06V415h-3.06v-4.94c0-1.38-.42-2.34-1.7-2.34-1.24 0-1.86.96-1.86 2.44V415h-3.06zM16.2 570v14h-3.16v-8.68L10.02 584h-2.4l-3.12-8.68V584H1.34v-14h3.74l3.74 9.74 3.7-9.74h3.68zm7.602 11.64c1.38 0 2.3-1.12 2.3-2.46 0-1.32-.92-2.46-2.3-2.46s-2.3 1.14-2.3 2.46c0 1.34.92 2.46 2.3 2.46zm2.3-7.28h3.06V584h-3.06v-1.36c-.46.88-1.7 1.6-2.94 1.6-2.78 0-4.7-2.18-4.7-5.06 0-2.88 1.92-5.06 4.7-5.06 1.24 0 2.48.74 2.94 1.62v-1.38zm11.542 4.78l3.3 4.86h-3.54l-1.58-2.8-1.58 2.8h-3.54l3.32-4.86-3.26-4.78h3.54l1.52 2.72 1.52-2.72h3.54l-3.24 4.78z" fill="#29264C"/>
        <g fill="#E4E3EC">
            <path d="M304 392v2h-80v-2zM304 418v2h-80v-2z"/>
        </g>
        <g transform="translate(424 33)">
            <path d="M0 0h24v24H0z"/>
            <circle stroke="#4844A3" stroke-width="2" cx="12" cy="12" r="5"/>
        </g>
        <g transform="translate(670 197)">
            <path d="M0 0h24v24H0z"/>
            <circle stroke="#4844A3" stroke-width="2" cx="12" cy="12" r="5"/>
        </g>
        <g transform="translate(422 197)">
            <path d="M0 0h24v24H0z"/>
            <circle stroke="#4844A3" stroke-width="2" cx="12" cy="12" r="5"/>
        </g>
        <g transform="translate(618 368)">
            <path d="M0 0h24v24H0z"/>
            <circle stroke="#4844A3" stroke-width="2" cx="12" cy="12" r="5"/>
        </g>
        <g transform="translate(122 368)">
            <path d="M0 0h24v24H0z"/>
            <circle stroke="#4844A3" stroke-width="2" cx="12" cy="12" r="5"/>
        </g>
        <g transform="translate(122 541)">
            <path d="M0 0h24v24H0z"/>
            <circle stroke="#4844A3" stroke-width="2" cx="12" cy="12" r="5"/>
        </g>
        <g transform="translate(148 567)">
            <path d="M0 0h24v24H0z"/>
            <circle stroke="#4844A3" stroke-width="2" cx="12" cy="12" r="5"/>
        </g>
        <g transform="translate(174 593)">
            <path d="M0 0h24v24H0z"/>
            <circle stroke="#4844A3" stroke-width="2" cx="12" cy="12" r="5"/>
        </g>
        <g transform="translate(474 368)">
            <path d="M0 0h24v24H0z"/>
            <circle stroke="#4844A3" stroke-width="2" cx="12" cy="12" r="5"/>
        </g>
        <g transform="translate(722 368)">
            <path d="M0 0h24v24H0z"/>
            <circle stroke="#4844A3" stroke-width="2" cx="12" cy="12" r="5"/>
        </g>
        <g transform="translate(226 368)">
            <path d="M0 0h24v24H0z"/>
            <circle stroke="#4844A3" stroke-width="2" cx="12" cy="12" r="5"/>
        </g>
        <g transform="translate(226 541)">
            <path d="M0 0h24v24H0z"/>
            <circle stroke="#4844A3" stroke-width="2" cx="12" cy="12" r="5"/>
        </g>
        <g transform="translate(474 541)">
            <path d="M0 0h24v24H0z"/>
            <circle stroke="#4844A3" stroke-width="2" cx="12" cy="12" r="5"/>
        </g>
        <g transform="translate(174 197)">
            <path d="M0 0h24v24H0z"/>
            <circle stroke="#4844A3" stroke-width="2" cx="12" cy="12" r="5"/>
        </g>
        <g transform="translate(450 85)">
            <path d="M0 0h24v24H0z"/>
            <circle stroke="#4844A3" stroke-width="2" cx="12" cy="12" r="5"/>
        </g>
        <g transform="translate(696 249)">
            <path d="M0 0h24v24H0z"/>
            <circle stroke="#4844A3" stroke-width="2" cx="12" cy="12" r="5"/>
        </g>
        <g transform="translate(448 249)">
            <path d="M0 0h24v24H0z"/>
            <circle stroke="#4844A3" stroke-width="2" cx="12" cy="12" r="5"/>
        </g>
        <g transform="translate(644 420)">
            <path d="M0 0h24v24H0z"/>
            <circle stroke="#4844A3" stroke-width="2" cx="12" cy="12" r="5"/>
        </g>
        <g transform="translate(670 420)">
            <path d="M0 0h24v24H0z"/>
            <circle stroke="#4844A3" stroke-width="2" cx="12" cy="12" r="5"/>
        </g>
        <g transform="translate(148 420)">
            <path d="M0 0h24v24H0z"/>
            <circle stroke="#4844A3" stroke-width="2" cx="12" cy="12" r="5"/>
        </g>
        <g transform="translate(148 394)">
            <path d="M0 0h24v24H0z"/>
            <circle stroke="#4844A3" stroke-width="2" cx="12" cy="12" r="5"/>
        </g>
        <g transform="translate(148 593)">
            <path d="M0 0h24v24H0z"/>
            <circle stroke="#4844A3" stroke-width="2" cx="12" cy="12" r="5"/>
        </g>
        <g transform="translate(500 420)">
            <path d="M0 0h24v24H0z"/>
            <circle stroke="#4844A3" stroke-width="2" cx="12" cy="12" r="5"/>
        </g>
        <g transform="translate(474 420)">
            <path d="M0 0h24v24H0z"/>
            <circle stroke="#4844A3" stroke-width="2" cx="12" cy="12" r="5"/>
        </g>
        <g transform="translate(748 420)">
            <path d="M0 0h24v24H0z"/>
            <circle stroke="#4844A3" stroke-width="2" cx="12" cy="12" r="5"/>
        </g>
        <g transform="translate(774 420)">
            <path d="M0 0h24v24H0z"/>
            <circle stroke="#4844A3" stroke-width="2" cx="12" cy="12" r="5"/>
        </g>
        <g transform="translate(252 420)">
            <path d="M0 0h24v24H0z"/>
            <circle stroke="#4844A3" stroke-width="2" cx="12" cy="12" r="5"/>
        </g>
        <g transform="translate(252 394)">
            <path d="M0 0h24v24H0z"/>
            <circle stroke="#4844A3" stroke-width="2" cx="12" cy="12" r="5"/>
        </g>
        <g transform="translate(252 567)">
            <path d="M0 0h24v24H0z"/>
            <circle stroke="#4844A3" stroke-width="2" cx="12" cy="12" r="5"/>
        </g>
        <g transform="translate(500 567)">
            <path d="M0 0h24v24H0z"/>
            <circle stroke="#4844A3" stroke-width="2" cx="12" cy="12" r="5"/>
        </g>
        <g transform="translate(252 593)">
            <path d="M0 0h24v24H0z"/>
            <circle stroke="#4844A3" stroke-width="2" cx="12" cy="12" r="5"/>
        </g>
        <g transform="translate(500 593)">
            <path d="M0 0h24v24H0z"/>
            <circle stroke="#4844A3" stroke-width="2" cx="12" cy="12" r="5"/>
        </g>
        <g transform="translate(226 593)">
            <path d="M0 0h24v24H0z"/>
            <circle stroke="#4844A3" stroke-width="2" cx="12" cy="12" r="5"/>
        </g>
        <g transform="translate(474 593)">
            <path d="M0 0h24v24H0z"/>
            <circle stroke="#4844A3" stroke-width="2" cx="12" cy="12" r="5"/>
        </g>
        <g transform="translate(200 249)">
            <path d="M0 0h24v24H0z"/>
            <circle stroke="#4844A3" stroke-width="2" cx="12" cy="12" r="5"/>
        </g>
        <g transform="translate(476 33)">
            <path d="M0 0h24v24H0z"/>
            <circle stroke="#4844A3" stroke-width="2" cx="12" cy="12" r="5"/>
        </g>
        <g transform="translate(722 197)">
            <path d="M0 0h24v24H0z"/>
            <circle stroke="#4844A3" stroke-width="2" cx="12" cy="12" r="5"/>
        </g>
        <g transform="translate(474 197)">
            <path d="M0 0h24v24H0z"/>
            <circle stroke="#4844A3" stroke-width="2" cx="12" cy="12" r="5"/>
        </g>
        <g transform="translate(670 368)">
            <path d="M0 0h24v24H0z"/>
            <circle stroke="#4844A3" stroke-width="2" cx="12" cy="12" r="5"/>
        </g>
        <g transform="translate(174 368)">
            <path d="M0 0h24v24H0z"/>
            <circle stroke="#4844A3" stroke-width="2" cx="12" cy="12" r="5"/>
        </g>
        <g transform="translate(174 541)">
            <path d="M0 0h24v24H0z"/>
            <circle stroke="#4844A3" stroke-width="2" cx="12" cy="12" r="5"/>
        </g>
        <g transform="translate(526 368)">
            <path d="M0 0h24v24H0z"/>
            <circle stroke="#4844A3" stroke-width="2" cx="12" cy="12" r="5"/>
        </g>
        <g transform="translate(774 368)">
            <path d="M0 0h24v24H0z"/>
            <circle stroke="#4844A3" stroke-width="2" cx="12" cy="12" r="5"/>
        </g>
        <g transform="translate(278 368)">
            <path d="M0 0h24v24H0z"/>
            <circle stroke="#4844A3" stroke-width="2" cx="12" cy="12" r="5"/>
        </g>
        <g transform="translate(278 541)">
            <path d="M0 0h24v24H0z"/>
            <circle stroke="#4844A3" stroke-width="2" cx="12" cy="12" r="5"/>
        </g>
        <g transform="translate(526 541)">
            <path d="M0 0h24v24H0z"/>
            <circle stroke="#4844A3" stroke-width="2" cx="12" cy="12" r="5"/>
        </g>
        <g transform="translate(226 197)">
            <path d="M0 0h24v24H0z"/>
            <circle stroke="#4844A3" stroke-width="2" cx="12" cy="12" r="5"/>
        </g>
        <path d="M424 59h24v24h-24z"/>
        <g fill="#19CA94">
            <path d="M431.758 65.163l9.79 9.79-1.305 1.306-9.79-9.79z"/>
            <path d="M430.452 74.954l9.79-9.79 1.306 1.305-9.791 9.79z"/>
        </g>
        <path d="M670 223h24v24h-24z"/>
        <g fill="#19CA94">
            <path d="M677.758 229.163l9.79 9.79-1.305 1.306-9.79-9.79z"/>
            <path d="M676.452 238.954l9.79-9.79 1.306 1.305-9.791 9.79z"/>
        </g>
        <path d="M422 223h24v24h-24z"/>
        <g fill="#19CA94">
            <path d="M429.758 229.163l9.79 9.79-1.305 1.306-9.79-9.79z"/>
            <path d="M428.452 238.954l9.79-9.79 1.306 1.305-9.791 9.79z"/>
        </g>
        <path d="M618 394h24v24h-24z"/>
        <g fill="#19CA94">
            <path d="M625.758 400.163l9.79 9.79-1.305 1.306-9.79-9.79z"/>
            <path d="M624.452 409.954l9.79-9.79 1.306 1.305-9.791 9.79z"/>
        </g>
        <path d="M644 394h24v24h-24z"/>
        <g fill="#19CA94">
            <path d="M651.758 400.163l9.79 9.79-1.305 1.306-9.79-9.79z"/>
            <path d="M650.452 409.954l9.79-9.79 1.306 1.305-9.791 9.79z"/>
        </g>
        <path d="M122 394h24v24h-24z"/>
        <g fill="#19CA94">
            <path d="M129.758 400.163l9.79 9.79-1.305 1.306-9.79-9.79z"/>
            <path d="M128.452 409.954l9.79-9.79 1.306 1.305-9.791 9.79z"/>
        </g>
        <path d="M122 420h24v24h-24z"/>
        <g fill="#19CA94">
            <path d="M129.758 426.163l9.79 9.79-1.305 1.306-9.79-9.79z"/>
            <path d="M128.452 435.954l9.79-9.79 1.306 1.305-9.791 9.79z"/>
        </g>
        <path d="M278 420h24v24h-24z"/>
        <g fill="#19CA94">
            <path d="M285.758 426.163l9.79 9.79-1.305 1.306-9.79-9.79z"/>
            <path d="M284.452 435.954l9.79-9.79 1.306 1.305-9.791 9.79z"/>
        </g>
        <path d="M122 567h24v24h-24z"/>
        <g fill="#19CA94">
            <path d="M129.758 573.163l9.79 9.79-1.305 1.306-9.79-9.79z"/>
            <path d="M128.452 582.954l9.79-9.79 1.306 1.305-9.791 9.79z"/>
        </g>
        <path d="M122 593h24v24h-24z"/>
        <g fill="#19CA94">
            <path d="M129.758 599.163l9.79 9.79-1.305 1.306-9.79-9.79z"/>
            <path d="M128.452 608.954l9.79-9.79 1.306 1.305-9.791 9.79z"/>
        </g>
        <path d="M474 394h24v24h-24z"/>
        <g fill="#19CA94">
            <path d="M481.758 400.163l9.79 9.79-1.305 1.306-9.79-9.79z"/>
            <path d="M480.452 409.954l9.79-9.79 1.306 1.305-9.791 9.79z"/>
        </g>
        <path d="M722 394h24v24h-24z"/>
        <g fill="#19CA94">
            <path d="M729.758 400.163l9.79 9.79-1.305 1.306-9.79-9.79z"/>
            <path d="M728.452 409.954l9.79-9.79 1.306 1.305-9.791 9.79z"/>
        </g>
        <path d="M722 420h24v24h-24z"/>
        <g fill="#19CA94">
            <path d="M729.758 426.163l9.79 9.79-1.305 1.306-9.79-9.79z"/>
            <path d="M728.452 435.954l9.79-9.79 1.306 1.305-9.791 9.79z"/>
        </g>
        <path d="M226 394h24v24h-24z"/>
        <g fill="#19CA94">
            <path d="M233.758 400.163l9.79 9.79-1.305 1.306-9.79-9.79z"/>
            <path d="M232.452 409.954l9.79-9.79 1.306 1.305-9.791 9.79z"/>
        </g>
        <path d="M226 567h24v24h-24z"/>
        <g fill="#19CA94">
            <path d="M233.758 573.163l9.79 9.79-1.305 1.306-9.79-9.79z"/>
            <path d="M232.452 582.954l9.79-9.79 1.306 1.305-9.791 9.79z"/>
        </g>
        <path d="M474 567h24v24h-24z"/>
        <g fill="#19CA94">
            <path d="M481.758 573.163l9.79 9.79-1.305 1.306-9.79-9.79z"/>
            <path d="M480.452 582.954l9.79-9.79 1.306 1.305-9.791 9.79z"/>
        </g>
        <path d="M174 223h24v24h-24z"/>
        <g fill="#19CA94">
            <path d="M181.758 229.163l9.79 9.79-1.305 1.306-9.79-9.79z"/>
            <path d="M180.452 238.954l9.79-9.79 1.306 1.305-9.791 9.79z"/>
        </g>
        <path d="M476 59h24v24h-24z"/>
        <g fill="#19CA94">
            <path d="M483.758 65.163l9.79 9.79-1.305 1.306-9.79-9.79z"/>
            <path d="M482.452 74.954l9.79-9.79 1.306 1.305-9.791 9.79z"/>
        </g>
        <path d="M722 223h24v24h-24z"/>
        <g fill="#19CA94">
            <path d="M729.758 229.163l9.79 9.79-1.305 1.306-9.79-9.79z"/>
            <path d="M728.452 238.954l9.79-9.79 1.306 1.305-9.791 9.79z"/>
        </g>
        <path d="M474 223h24v24h-24z"/>
        <g fill="#19CA94">
            <path d="M481.758 229.163l9.79 9.79-1.305 1.306-9.79-9.79z"/>
            <path d="M480.452 238.954l9.79-9.79 1.306 1.305-9.791 9.79z"/>
        </g>
        <path d="M670 394h24v24h-24z"/>
        <g fill="#19CA94">
            <path d="M677.758 400.163l9.79 9.79-1.305 1.306-9.79-9.79z"/>
            <path d="M676.452 409.954l9.79-9.79 1.306 1.305-9.791 9.79z"/>
        </g>
        <path d="M174 394h24v24h-24z"/>
        <g fill="#19CA94">
            <path d="M181.758 400.163l9.79 9.79-1.305 1.306-9.79-9.79z"/>
            <path d="M180.452 409.954l9.79-9.79 1.306 1.305-9.791 9.79z"/>
        </g>
        <path d="M174 567h24v24h-24z"/>
        <g fill="#19CA94">
            <path d="M181.758 573.163l9.79 9.79-1.305 1.306-9.79-9.79z"/>
            <path d="M180.452 582.954l9.79-9.79 1.306 1.305-9.791 9.79z"/>
        </g>
        <path d="M526 394h24v24h-24z"/>
        <g fill="#19CA94">
            <path d="M533.758 400.163l9.79 9.79-1.305 1.306-9.79-9.79z"/>
            <path d="M532.452 409.954l9.79-9.79 1.306 1.305-9.791 9.79z"/>
        </g>
        <path d="M526 420h24v24h-24z"/>
        <g fill="#19CA94">
            <path d="M533.758 426.163l9.79 9.79-1.305 1.306-9.79-9.79z"/>
            <path d="M532.452 435.954l9.79-9.79 1.306 1.305-9.791 9.79z"/>
        </g>
        <path d="M774 394h24v24h-24z"/>
        <g fill="#19CA94">
            <path d="M781.758 400.163l9.79 9.79-1.305 1.306-9.79-9.79z"/>
            <path d="M780.452 409.954l9.79-9.79 1.306 1.305-9.791 9.79z"/>
        </g>
        <path d="M278 394h24v24h-24z"/>
        <g fill="#19CA94">
            <path d="M285.758 400.163l9.79 9.79-1.305 1.306-9.79-9.79z"/>
            <path d="M284.452 409.954l9.79-9.79 1.306 1.305-9.791 9.79z"/>
        </g>
        <path d="M278 567h24v24h-24z"/>
        <g fill="#19CA94">
            <path d="M285.758 573.163l9.79 9.79-1.305 1.306-9.79-9.79z"/>
            <path d="M284.452 582.954l9.79-9.79 1.306 1.305-9.791 9.79z"/>
        </g>
        <path d="M526 567h24v24h-24z"/>
        <g fill="#19CA94">
            <path d="M533.758 573.163l9.79 9.79-1.305 1.306-9.79-9.79z"/>
            <path d="M532.452 582.954l9.79-9.79 1.306 1.305-9.791 9.79z"/>
        </g>
        <path d="M278 593h24v24h-24z"/>
        <g fill="#19CA94">
            <path d="M285.758 599.163l9.79 9.79-1.305 1.306-9.79-9.79z"/>
            <path d="M284.452 608.954l9.79-9.79 1.306 1.305-9.791 9.79z"/>
        </g>
        <path d="M526 593h24v24h-24z"/>
        <g fill="#19CA94">
            <path d="M533.758 599.163l9.79 9.79-1.305 1.306-9.79-9.79z"/>
            <path d="M532.452 608.954l9.79-9.79 1.306 1.305-9.791 9.79z"/>
        </g>
        <path d="M226 223h24v24h-24z"/>
        <g fill="#19CA94">
            <path d="M233.758 229.163l9.79 9.79-1.305 1.306-9.79-9.79z"/>
            <path d="M232.452 238.954l9.79-9.79 1.306 1.305-9.791 9.79z"/>
        </g>
        <path d="M450 33h24v24h-24z"/>
        <g fill="#19CA94">
            <path d="M457.758 39.163l9.79 9.79-1.305 1.306-9.79-9.79z"/>
            <path d="M456.452 48.954l9.79-9.79 1.306 1.305-9.791 9.79z"/>
        </g>
        <path d="M696 197h24v24h-24z"/>
        <g fill="#19CA94">
            <path d="M703.758 203.163l9.79 9.79-1.305 1.306-9.79-9.79z"/>
            <path d="M702.452 212.954l9.79-9.79 1.306 1.305-9.791 9.79z"/>
        </g>
        <path d="M448 197h24v24h-24z"/>
        <g fill="#19CA94">
            <path d="M455.758 203.163l9.79 9.79-1.305 1.306-9.79-9.79z"/>
            <path d="M454.452 212.954l9.79-9.79 1.306 1.305-9.791 9.79z"/>
        </g>
        <path d="M644 368h24v24h-24z"/>
        <g fill="#19CA94">
            <path d="M651.758 374.163l9.79 9.79-1.305 1.306-9.79-9.79z"/>
            <path d="M650.452 383.954l9.79-9.79 1.306 1.305-9.791 9.79z"/>
        </g>
        <path d="M148 368h24v24h-24z"/>
        <g fill="#19CA94">
            <path d="M155.758 374.163l9.79 9.79-1.305 1.306-9.79-9.79z"/>
            <path d="M154.452 383.954l9.79-9.79 1.306 1.305-9.791 9.79z"/>
        </g>
        <path d="M148 541h24v24h-24z"/>
        <g fill="#19CA94">
            <path d="M155.758 547.163l9.79 9.79-1.305 1.306-9.79-9.79z"/>
            <path d="M154.452 556.954l9.79-9.79 1.306 1.305-9.791 9.79z"/>
        </g>
        <path d="M500 368h24v24h-24z"/>
        <g fill="#19CA94">
            <path d="M507.758 374.163l9.79 9.79-1.305 1.306-9.79-9.79z"/>
            <path d="M506.452 383.954l9.79-9.79 1.306 1.305-9.791 9.79z"/>
        </g>
        <path d="M748 368h24v24h-24z"/>
        <g fill="#19CA94">
            <path d="M755.758 374.163l9.79 9.79-1.305 1.306-9.79-9.79z"/>
            <path d="M754.452 383.954l9.79-9.79 1.306 1.305-9.791 9.79z"/>
        </g>
        <path d="M252 368h24v24h-24z"/>
        <g fill="#19CA94">
            <path d="M259.758 374.163l9.79 9.79-1.305 1.306-9.79-9.79z"/>
            <path d="M258.452 383.954l9.79-9.79 1.306 1.305-9.791 9.79z"/>
        </g>
        <path d="M252 541h24v24h-24z"/>
        <g fill="#19CA94">
            <path d="M259.758 547.163l9.79 9.79-1.305 1.306-9.79-9.79z"/>
            <path d="M258.452 556.954l9.79-9.79 1.306 1.305-9.791 9.79z"/>
        </g>
        <path d="M500 541h24v24h-24z"/>
        <g fill="#19CA94">
            <path d="M507.758 547.163l9.79 9.79-1.305 1.306-9.79-9.79z"/>
            <path d="M506.452 556.954l9.79-9.79 1.306 1.305-9.791 9.79z"/>
        </g>
        <path d="M200 197h24v24h-24z"/>
        <g fill="#19CA94">
            <path d="M207.758 203.163l9.79 9.79-1.305 1.306-9.79-9.79z"/>
            <path d="M206.452 212.954l9.79-9.79 1.306 1.305-9.791 9.79z"/>
        </g>
        <path d="M422.485 12.518v-1.596c1.904 0 2.324-.546 2.324-1.722h2.002V19h-2.31v-6.482h-2.016zM671.855 183v-2.702h-3.92V173.2h2.268v5.18h1.652v-2.702h2.254v2.702h1.19v1.918h-1.19V183zM419.655 179.71h2.268c0 1.064.602 1.68 1.47 1.68.84 0 1.302-.616 1.302-1.288 0-.812-.378-1.358-1.442-1.358h-.882v-1.75h.882c1.008 0 1.302-.49 1.302-1.204 0-.742-.462-1.092-1.12-1.092-.966 0-1.246.574-1.246 1.428h-2.268c0-1.666 1.036-3.136 3.458-3.136 1.806 0 3.416.91 3.416 2.744 0 1.106-.658 1.904-1.442 2.17.882.322 1.596 1.12 1.596 2.366 0 1.862-1.666 2.94-3.528 2.94-2.422 0-3.766-1.428-3.766-3.5zM367.687 344.2h7.042l-4.172 9.8h-2.422l3.402-7.896h-3.85zM620.75 354h-2.548l1.96-2.926c-2.156-.126-3.472-1.596-3.472-3.514 0-1.932 1.4-3.556 3.752-3.556 2.324 0 3.738 1.624 3.738 3.556 0 .756-.238 1.456-.602 2.03L620.75 354zm-.308-8.106c-.952 0-1.568.756-1.568 1.666 0 .924.616 1.666 1.568 1.666.938 0 1.54-.742 1.54-1.666 0-.91-.602-1.666-1.54-1.666zM119.435 349.87v-5.67h6.622v1.764h-4.536v2.184c.378-.602 1.26-.896 1.988-.896 2.17 0 3.206 1.68 3.206 3.388 0 1.946-1.414 3.57-3.766 3.57-2.324 0-3.738-1.624-3.738-3.542h2.198c0 .91.602 1.666 1.54 1.666.966 0 1.568-.77 1.568-1.694 0-.882-.588-1.666-1.554-1.666-.672 0-1.12.308-1.414.896h-2.114zM120.563 520.518v-1.596c1.904 0 2.324-.546 2.324-1.722h2.002v9.8h-2.31v-6.482h-2.016zm5.843 0v-1.596c1.904 0 2.324-.546 2.324-1.722h2.002v9.8h-2.31v-6.482h-2.016zM475.428 354.21c-2.338 0-3.696-1.358-3.696-3.01 0-1.05.658-2.044 1.582-2.31-.84-.322-1.33-1.19-1.33-2.086 0-1.54 1.26-2.814 3.444-2.814 2.17 0 3.43 1.288 3.43 2.814 0 .896-.49 1.764-1.33 2.086.924.294 1.568 1.288 1.568 2.324 0 1.596-1.33 2.996-3.668 2.996zm0-6.076c.798 0 1.274-.574 1.274-1.218s-.476-1.218-1.274-1.218c-.826 0-1.302.56-1.302 1.218 0 .644.476 1.218 1.302 1.218zm0 4.368c.924 0 1.484-.644 1.484-1.344 0-.7-.532-1.358-1.484-1.358-.966 0-1.498.63-1.498 1.358 0 .714.56 1.344 1.498 1.344zM472.691 520.518v-1.596c1.904 0 2.324-.546 2.324-1.722h2.002v9.8h-2.31v-6.482h-2.016zm5.885 3.192h2.268c0 1.064.602 1.68 1.47 1.68.84 0 1.302-.616 1.302-1.288 0-.812-.378-1.358-1.442-1.358h-.882v-1.75h.882c1.008 0 1.302-.49 1.302-1.204 0-.742-.462-1.092-1.12-1.092-.966 0-1.246.574-1.246 1.428h-2.268c0-1.666 1.036-3.136 3.458-3.136 1.806 0 3.416.91 3.416 2.744 0 1.106-.658 1.904-1.442 2.17.882.322 1.596 1.12 1.596 2.366 0 1.862-1.666 2.94-3.528 2.94-2.422 0-3.766-1.428-3.766-3.5zM719.586 347.518v-1.596c1.904 0 2.324-.546 2.324-1.722h2.002v9.8h-2.31v-6.482h-2.016zm6.011 3.192v-3.22c0-1.89 1.442-3.5 3.724-3.5s3.752 1.61 3.752 3.5v3.22c0 1.89-1.47 3.5-3.752 3.5s-3.724-1.61-3.724-3.5zm5.208 0v-3.22c0-.854-.574-1.582-1.484-1.582-.896 0-1.456.728-1.456 1.582v3.22c0 .854.56 1.582 1.456 1.582.91 0 1.484-.728 1.484-1.582zM720.621 520.518v-1.596c1.904 0 2.324-.546 2.324-1.722h2.002v9.8h-2.31v-6.482h-2.016zM730.776 527v-2.702h-3.92V517.2h2.268v5.18h1.652v-2.702h2.254v2.702h1.19v1.918h-1.19V527h-2.254zM227.386 354.196c-2.324 0-3.738-1.624-3.738-3.556 0-.742.224-1.442.602-2.03l2.828-4.41h2.548l-1.96 2.94c.21.028.406.084.588.154 1.792.224 2.884 1.666 2.884 3.346 0 1.932-1.4 3.556-3.752 3.556zm0-1.89c.952 0 1.568-.756 1.568-1.666 0-.924-.616-1.666-1.568-1.666-.938 0-1.54.742-1.54 1.666 0 .91.602 1.666 1.54 1.666zM224.86 520.518v-1.596c1.903 0 2.323-.546 2.323-1.722h2.002v9.8h-2.31v-6.482h-2.016zm6.066 6.482c0-3.178 1.078-4.13 2.59-5.068 1.148-.686 2.058-1.148 2.058-2.128 0-.784-.49-1.106-1.12-1.106-.7 0-1.246.406-1.246 1.428h-2.254c0-1.778 1.26-3.136 3.486-3.136 1.806 0 3.36.896 3.36 2.968 0 1.652-1.596 2.646-2.562 3.22-1.344.896-1.708 1.204-1.708 1.988h4.2V527h-6.804zM172.005 183c0-3.178 1.078-4.13 2.59-5.068 1.148-.686 2.058-1.148 2.058-2.128 0-.784-.49-1.106-1.12-1.106-.7 0-1.246.406-1.246 1.428h-2.254c0-1.778 1.26-3.136 3.486-3.136 1.806 0 3.36.896 3.36 2.968 0 1.652-1.596 2.646-2.562 3.22-1.344.896-1.708 1.204-1.708 1.988h4.2V183h-6.804z" fill="#CDCCE2"/>
        <rect stroke-opacity=".5" stroke="#CDCCE2" stroke-width="2" x="423" y="32" width="78" height="78" rx="8"/>
        <rect stroke-opacity=".5" stroke="#CDCCE2" stroke-width="2" x="669" y="196" width="78" height="78" rx="8"/>
        <rect stroke-opacity=".5" stroke="#CDCCE2" stroke-width="2" x="421" y="196" width="78" height="78" rx="8"/>
        <rect stroke-opacity=".5" stroke="#CDCCE2" stroke-width="2" x="617" y="367" width="78" height="78" rx="8"/>
        <rect stroke-opacity=".5" stroke="#CDCCE2" stroke-width="2" x="121" y="367" width="78" height="78" rx="8"/>
        <rect stroke-opacity=".5" stroke="#CDCCE2" stroke-width="2" x="121" y="540" width="78" height="78" rx="8"/>
        <rect stroke-opacity=".5" stroke="#CDCCE2" stroke-width="2" x="473" y="367" width="78" height="78" rx="8"/>
        <rect stroke-opacity=".5" stroke="#CDCCE2" stroke-width="2" x="721" y="367" width="78" height="78" rx="8"/>
        <rect stroke-opacity=".5" stroke="#CDCCE2" stroke-width="2" x="225" y="367" width="78" height="78" rx="8"/>
        <rect stroke-opacity=".5" stroke="#CDCCE2" stroke-width="2" x="225" y="540" width="78" height="78" rx="8"/>
        <rect stroke-opacity=".5" stroke="#CDCCE2" stroke-width="2" x="473" y="540" width="78" height="78" rx="8"/>
        <rect stroke-opacity=".5" stroke="#CDCCE2" stroke-width="2" x="173" y="196" width="78" height="78" rx="8"/>
        <path fill="#E4E3EC" d="M448 31h2v80h-2zM694 195h2v80h-2zM446 195h2v80h-2zM642 366h2v80h-2zM146 366h2v80h-2zM146 539h2v80h-2zM498 366h2v80h-2zM746 366h2v80h-2zM250 366h2v80h-2zM250 539h2v80h-2zM498 539h2v80h-2zM198 195h2v80h-2zM474 31h2v80h-2zM720 195h2v80h-2zM472 195h2v80h-2zM668 366h2v80h-2zM172 366h2v80h-2zM172 539h2v80h-2zM524 366h2v80h-2zM772 366h2v80h-2zM276 366h2v80h-2zM276 539h2v80h-2zM524 539h2v80h-2zM224 195h2v80h-2z"/>
        <g fill="#E4E3EC">
            <path d="M502 57v2h-80v-2zM502 83v2h-80v-2z"/>
        </g>
        <g fill="#E4E3EC">
            <path d="M748 221v2h-80v-2zM748 247v2h-80v-2z"/>
        </g>
        <g fill="#E4E3EC">
            <path d="M500 221v2h-80v-2zM500 247v2h-80v-2z"/>
        </g>
        <path fill="#E4E3EC" d="M696 392v2h-80v-2zM696 418v2h-80v-2z"/>
        <g transform="matrix(-1 0 0 1 446 366)">
            <g transform="translate(2 2)">
                <path d="M0 0h24v24H0z"/>
                <circle stroke="#4844A3" stroke-width="2" cx="12" cy="12" r="5"/>
            </g>
            <g transform="translate(28 54)">
                <path d="M0 0h24v24H0z"/>
                <circle stroke="#4844A3" stroke-width="2" cx="12" cy="12" r="5"/>
            </g>
            <g transform="translate(54 54)">
                <path d="M0 0h24v24H0z"/>
                <circle stroke="#4844A3" stroke-width="2" cx="12" cy="12" r="5"/>
            </g>
            <g transform="translate(54 2)">
                <path d="M0 0h24v24H0z"/>
                <circle stroke="#4844A3" stroke-width="2" cx="12" cy="12" r="5"/>
            </g>
            <path d="M2 28h24v24H2z"/>
            <g fill="#19CA94">
                <path d="M9.758 34.163l9.79 9.79-1.305 1.306-9.79-9.79z"/>
                <path d="M8.452 43.954l9.79-9.79 1.306 1.305-9.791 9.79z"/>
            </g>
            <path d="M28 28h24v24H28z"/>
            <g fill="#19CA94">
                <path d="M35.758 34.163l9.79 9.79-1.305 1.306-9.79-9.79z"/>
                <path d="M34.452 43.954l9.79-9.79 1.306 1.305-9.791 9.79z"/>
            </g>
            <path d="M54 28h24v24H54z"/>
            <g fill="#19CA94">
                <path d="M61.758 34.163l9.79 9.79-1.305 1.306-9.79-9.79z"/>
                <path d="M60.452 43.954l9.79-9.79 1.306 1.305-9.791 9.79z"/>
            </g>
            <path d="M28 2h24v24H28z"/>
            <g fill="#19CA94">
                <path d="M35.758 8.163l9.79 9.79-1.305 1.306-9.79-9.79z"/>
                <path d="M34.452 17.954l9.79-9.79 1.306 1.305-9.791 9.79z"/>
            </g>
            <rect stroke-opacity=".5" stroke="#CDCCE2" stroke-width="2" x="1" y="1" width="78" height="78" rx="8"/>
            <path fill="#E4E3EC" d="M26 0h2v80h-2zM52 0h2v80h-2z"/>
            <path fill="#E4E3EC" d="M80 26v2H0v-2zM80 52v2H0v-2z"/>
        </g>
        <path fill="#E4E3EC" d="M200 392v2h-80v-2zM200 418v2h-80v-2zM200 565v2h-80v-2zM200 591v2h-80v-2zM552 392v2h-80v-2zM552 418v2h-80v-2zM800 392v2h-80v-2zM800 418v2h-80v-2zM304 565v2h-80v-2zM552 565v2h-80v-2zM304 591v2h-80v-2zM552 591v2h-80v-2z"/>
        <g transform="matrix(-1 0 0 1 800 539)">
            <g transform="matrix(-1 0 0 1 26 2)">
                <path d="M0 0h24v24H0z"/>
                <circle stroke="#4844A3" stroke-width="2" cx="12" cy="12" r="5"/>
            </g>
            <g transform="matrix(-1 0 0 1 52 28)">
                <path d="M0 0h24v24H0z"/>
                <circle stroke="#4844A3" stroke-width="2" cx="12" cy="12" r="5"/>
            </g>
            <g transform="matrix(-1 0 0 1 52 54)">
                <path d="M0 0h24v24H0z"/>
                <circle stroke="#4844A3" stroke-width="2" cx="12" cy="12" r="5"/>
            </g>
            <g transform="matrix(-1 0 0 1 26 54)">
                <path d="M0 0h24v24H0z"/>
                <circle stroke="#4844A3" stroke-width="2" cx="12" cy="12" r="5"/>
            </g>
            <g transform="matrix(-1 0 0 1 78 2)">
                <path d="M0 0h24v24H0z"/>
                <circle stroke="#4844A3" stroke-width="2" cx="12" cy="12" r="5"/>
            </g>
            <path d="M26 28H2v24h24z"/>
            <g fill="#19CA94">
                <path d="M18.242 34.163l-9.79 9.79 1.305 1.306 9.79-9.79z"/>
                <path d="M19.548 43.954l-9.79-9.79-1.306 1.305 9.791 9.79z"/>
            </g>
            <path d="M78 28H54v24h24z"/>
            <g fill="#19CA94">
                <path d="M70.242 34.163l-9.79 9.79 1.305 1.306 9.79-9.79z"/>
                <path d="M71.548 43.954l-9.79-9.79-1.306 1.305 9.791 9.79z"/>
            </g>
            <path d="M78 54H54v24h24z"/>
            <g fill="#19CA94">
                <path d="M70.242 60.163l-9.79 9.79 1.305 1.306 9.79-9.79z"/>
                <path d="M71.548 69.954l-9.79-9.79-1.306 1.305 9.791 9.79z"/>
            </g>
            <path d="M52 2H28v24h24z"/>
            <g fill="#19CA94">
                <path d="M44.242 8.163l-9.79 9.79 1.305 1.306 9.79-9.79z"/>
                <path d="M45.548 17.954l-9.79-9.79-1.306 1.305 9.791 9.79z"/>
            </g>
            <rect stroke-opacity=".5" stroke="#CDCCE2" stroke-width="2" transform="matrix(-1 0 0 1 80 0)" x="1" y="1" width="78" height="78" rx="8"/>
            <path fill="#E4E3EC" d="M28 0h-2v80h2zM54 0h-2v80h2z"/>
            <path fill="#E4E3EC" d="M0 26v2h80v-2zM0 52v2h80v-2z"/>
        </g>
        <g fill="#E4E3EC">
            <path d="M252 221v2h-80v-2zM252 247v2h-80v-2z"/>
        </g>
        <path d="M264 191l147-77M658 191l-147-77M461 125v56M513 460v69M761 460v69M264 460v69M160 460v69M175 288l-13 67M423 288l-13 67M671 288l-13 67M250 288l13 67M498 288l13 67M746 288l13 67" stroke="#A3A1D1" stroke-width="2" stroke-linecap="round" stroke-linejoin="round" stroke-dasharray="1,5"/>
        <path fill="#D36BD3" d="M624 405h64v2h-64zM374 405h64v2h-64zM127.766 545.352l67.882 67.882-1.414 1.414-67.882-67.882zM727.766 545.352l67.882 67.882-1.414 1.414-67.882-67.882zM298.234 545.352l-67.882 67.882 1.414 1.414 67.882-67.882zM544.234 545.352l-67.882 67.882 1.414 1.414 67.882-67.882z"/>
        <g>
            <g transform="translate(200 223)">
                <path d="M0 0h24v24H0z"/>
                <circle stroke="#4844A3" stroke-width="2" cx="12" cy="12" r="5"/>
            </g>
        </g>
        <g>
            <g transform="translate(722 249)">
                <path d="M0 0h24v24H0z"/>
                <circle stroke="#4844A3" stroke-width="2" cx="12" cy="12" r="5"/>
            </g>
        </g>
        <g>
            <g transform="translate(422 249)">
                <path d="M0 0h24v24H0z"/>
                <circle stroke="#4844A3" stroke-width="2" cx="12" cy="12" r="5"/>
            </g>
        </g>
    </g>
</svg>
