<svg id="Layer_1" xmlns="http://www.w3.org/2000/svg" viewBox="0 0 674 412.8">
    <style>
        .st0{opacity:.25;fill:#060635}.st1{fill:#fcfbf8}.st2{fill:#222049}.st3{fill:#1b1a3e}.st4{fill:#fd7357}.st5{fill:#8a8ed8}.st6{opacity:.15;fill:#060635}.st7{fill:#fdb1b1}.st8{opacity:.15}.st9{fill:#060635}.st10{fill:#2a2a5b}.st11{fill:#d16fd1}.st12{opacity:.402;fill:#fcfbf8;enable-background:new}
    </style>
    <title>
        2_3-chess
    </title>
    <path class="st0" d="M188 338.9h17.6c.8 0 1.5-.7 1.5-1.5V72.6c0-.8-.7-1.5-1.5-1.5H188c-.8 0-1.5.7-1.5 1.5v264.8c0 .9.7 1.5 1.5 1.5z"/>
    <path class="st1" d="M198.1 312.4h36.2v-36.2h-36.2v36.2zm0-72.3h36.2v-36.2h-36.2v36.2zm0-72.4h36.2v-36.2h-36.2v36.2zm0-72.4h36.2V59.2h-36.2v36.1zm36.2 253.3h36.2v-36.2h-36.2v36.2zm0-72.4h36.2V240h-36.2v36.2zm0-72.3h36.2v-36.2h-36.2v36.2zm0-72.4h36.2V95.3h-36.2v36.2zM270.5 312.4h36.2v-36.2h-36.2v36.2zm0-72.3h36.2v-36.2h-36.2v36.2zm0-72.4h36.2v-36.2h-36.2v36.2zm0-72.4h36.2V59.2h-36.2v36.1zm36.2 253.3h36.2v-36.2h-36.2v36.2zM306.7 276.2h36.2V240h-36.2v36.2zm0-72.3h36.2v-36.2h-36.2v36.2zm0-72.4h36.2V95.3h-36.2v36.2zm36.2 180.9H379v-36.2h-36.2v36.2zm0-72.3H379v-36.2h-36.2v36.2zm0-72.4H379v-36.2h-36.2v36.2zm0-72.4H379V59.2h-36.2v36.1zM379 348.6h36.2v-36.2H379v36.2zm0-72.4h36.2V240H379v36.2zm0-72.3h36.2v-36.2H379v36.2zM379 131.5h36.2V95.3H379v36.2zm36.2 180.9h36.2v-36.2h-36.2v36.2zm0-72.3h36.2v-36.2h-36.2v36.2zm0-72.4h36.2v-36.2h-36.2v36.2zM415.2 95.3h36.2V59.2h-36.2v36.1zm36.2 253.3h36.2v-36.2h-36.2v36.2zm0-72.4h36.2V240h-36.2v36.2zm0-72.3h36.2v-36.2h-36.2v36.2zm0-72.4h36.2V95.3h-36.2v36.2z"/>
    <path class="st2" d="M198.1 348.6h36.2v-36.2h-36.2v36.2zm0-72.4h36.2V240h-36.2v36.2zm0-72.3h36.2v-36.2h-36.2v36.2zm0-72.4h36.2V95.3h-36.2v36.2zm36.2 180.9h36.2v-36.2h-36.2v36.2zm0-72.3h36.2v-36.2h-36.2v36.2zm0-72.4h36.2v-36.2h-36.2v36.2zm0-72.4h36.2V59.2h-36.2v36.1zm36.2 253.3h36.2v-36.2h-36.2v36.2zM270.5 276.2h36.2V240h-36.2v36.2zm0-72.3h36.2v-36.2h-36.2v36.2zm0-72.4h36.2V95.3h-36.2v36.2zM306.7 312.4h36.2v-36.2h-36.2v36.2zm0-72.3h36.2v-36.2h-36.2v36.2zm0-72.4h36.2v-36.2h-36.2v36.2zm0-72.4h36.2V59.2h-36.2v36.1zm36.2 253.3H379v-36.2h-36.2v36.2zm0-72.4H379V240h-36.2v36.2zm0-72.3H379v-36.2h-36.2v36.2zm0-72.4H379V95.3h-36.2v36.2zM379 312.4h36.2v-36.2H379v36.2zm0-72.3h36.2v-36.2H379v36.2zm0-72.4h36.2v-36.2H379v36.2zm0-72.4h36.2V59.2H379v36.1zm36.2 253.3h36.2v-36.2h-36.2v36.2zm0-72.4h36.2V240h-36.2v36.2zm0-72.3h36.2v-36.2h-36.2v36.2zm0-72.4h36.2V95.3h-36.2v36.2zm36.2 180.9h36.2v-36.2h-36.2v36.2zm0-72.3h36.2v-36.2h-36.2v36.2zm0-72.4h36.2v-36.2h-36.2v36.2zm0-72.4h36.2V59.2h-36.2v36.1z"/>
    <path class="st0" d="M331.8 290.9h98c2.8 0 5 2.2 5 5v1.5c0 2.8-2.2 5-5 5h-98c-2.8 0-5-2.2-5-5v-1.5c0-2.7 2.3-5 5-5zM433 222.4h39.4c2.8 0 5 2.2 5 5v1.5c0 2.8-2.2 5-5 5H433c-2.8 0-5-2.2-5-5v-1.5c0-2.7 2.3-5 5-5zM324.8 218.4h39.4c2.8 0 5 2.2 5 5v1.5c0 2.8-2.2 5-5 5h-39.4c-2.8 0-5-2.2-5-5v-1.5c0-2.7 2.2-5 5-5zM361.1 180.4h39.4c2.8 0 5 2.2 5 5v1.5c0 2.8-2.2 5-5 5h-39.4c-2.8 0-5-2.2-5-5v-1.5c0-2.8 2.3-5 5-5zM252.8 219.4h39.4c2.8 0 5 2.2 5 5v1.5c0 2.8-2.2 5-5 5h-39.4c-2.8 0-5-2.2-5-5v-1.5c0-2.7 2.3-5 5-5zM214.6 152.2H254c2.8 0 5 2.2 5 5v1.5c0 2.8-2.2 5-5 5h-39.4c-2.8 0-5-2.2-5-5v-1.5c0-2.8 2.2-5 5-5zM253.4 254.9h39.4c2.8 0 5 2.2 5 5v1.5c0 2.8-2.2 5-5 5h-39.4c-2.8 0-5-2.2-5-5v-1.5c0-2.7 2.2-5 5-5z"/>
    <path class="st3" d="M234.3 177.8h-17.6c-3.9 0-7 3.1-7 7s3.1 7 7 7h17.6v-14"/>
    <path class="st4" d="M439.4 272.9c0-3 .7-5.9 2.3-8.4 1-1.6 1.5-3.6 1.1-5.7-.6-3.2-3.1-5.7-6.3-6.3-5.1-1-9.6 2.9-9.6 7.9 0 1.5.4 3 1.2 4.2 1.6 2.5 2.3 5.5 2.3 8.5 0 2.8-.7 5.6-2.1 8.1l-6.8 12.2c-2 3.6.2 8.1 4.3 8.6 6.1.8 12.2.8 18.3 0 4.1-.5 6.3-5 4.3-8.6l-6.8-12.2c-1.5-2.7-2.2-5.5-2.2-8.3m-71.9 0c0-3 .7-5.9 2.3-8.4 1-1.6 1.5-3.6 1.1-5.7-.6-3.2-3.1-5.7-6.3-6.3-5.1-1-9.6 2.9-9.6 7.9 0 1.5.4 3 1.2 4.2 1.6 2.5 2.3 5.5 2.3 8.5 0 2.8-.7 5.6-2.1 8.1l-6.8 12.2c-2 3.6.2 8.1 4.3 8.6 6.1.8 12.2.8 18.3 0 4.1-.5 6.3-5 4.3-8.6l-6.8-12.2c-1.5-2.7-2.2-5.5-2.2-8.3"/>
    <path class="st5" d="M256.9 134.1c0-3 .7-5.9 2.3-8.4 1-1.6 1.5-3.6 1.1-5.7-.6-3.2-3.1-5.7-6.3-6.3-5.1-1-9.6 2.9-9.6 7.9 0 1.5.4 3 1.2 4.2 1.6 2.5 2.3 5.5 2.3 8.5 0 2.8-.7 5.6-2.1 8.1l-6.8 12.2c-2 3.6.2 8.1 4.3 8.6 6.1.8 12.2.8 18.3 0 4.1-.5 6.3-5 4.3-8.6l-6.8-12.2c-1.5-2.7-2.2-5.5-2.2-8.3m108.6 66.3c0-3 .7-5.9 2.3-8.4 1-1.6 1.5-3.6 1.1-5.7-.6-3.2-3.1-5.7-6.3-6.3-5.1-1-9.6 2.9-9.6 7.9 0 1.5.4 3 1.2 4.2 1.6 2.5 2.3 5.5 2.3 8.5 0 2.8-.7 5.6-2.1 8.1l-6.8 12.2c-2 3.6.2 8.1 4.3 8.6 6.1.8 12.2.8 18.3 0 4.1-.5 6.3-5 4.3-8.6l-6.8-12.2c-1.5-2.7-2.2-5.4-2.2-8.3m-146.4-38.1c0-3 .7-5.9 2.3-8.4 1-1.6 1.5-3.6 1.1-5.7-.6-3.2-3.1-5.7-6.3-6.3-5.1-1-9.6 2.9-9.6 7.9 0 1.5.4 3 1.2 4.2 1.6 2.5 2.3 5.5 2.3 8.5 0 2.8-.7 5.6-2.1 8.1l-6.8 12.2c-2 3.6.2 8.1 4.3 8.6 6.1.8 12.2.8 18.3 0 4.1-.5 6.3-5 4.3-8.6l-6.8-12.2c-1.5-2.7-2.2-5.5-2.2-8.3"/>
    <path class="st4" d="M484.1 221.7l-7.4-16.2c-1.5-3.3-2.3-7-2.3-10.8 0-1.2.1-2.3.2-3.4s1-1.9 2.1-1.9c1.3 0 2.5-.9 2.6-2.2.1-1.5-1-2.7-2.5-2.7h-.4c.1-.3.3-.6.4-.9 1.1-2.2 1.6-4.8 1.2-7.6-.5-3-2.5-7.3-5.2-9.4-.4-.3-.5-.9-.3-1.4.4-.7.5-1.5.3-2.3-.3-1.4-1.4-2.4-2.8-2.7-2.2-.4-4.1 1.3-4.1 3.4 0 .5.3 1 .5 1.4.2.5.1 1.1-.4 1.4-3.1 2-5.4 6.6-5.4 11.6 0 2 .5 3.9 1.3 5.5.2.3.3.7.5 1h-.3c-1.3 0-2.5.9-2.6 2.2-.1 1.5 1 2.7 2.5 2.7h.1c1.1 0 2 .8 2.1 1.9.1 1.1.2 2.3.2 3.5 0 3.8-.8 7.5-2.3 10.8l-7.4 16.2c-2.2 4.8.3 10.7 4.7 11.5 6.6 1.1 13.3 1.1 19.9 0 4.6-.9 7-6.9 4.8-11.6m-178.2-26.4l.9-2.9c.3-1.2.1-2.4-.6-3.4-2.6-3.7-8.9-12.3-11.2-13-2.3-.7-2.8-1.3-3.6-1.9l-1.8-1.2c-.5-.3-1.1-.1-1.3.5l-.5 1.9c-.4 1.3-1.2 2.4-2.2 3.2-2.9 2.2-8.7 7.8-7.5 16.8.4 2.9 3.2 7.7 3.5 9.2 1.5 7.3-2.4 12.1-6.5 18.3-2.1 3.3.3 7.4 4.6 7.9 6.5.7 13 .7 19.5 0 4.3-.5 6.7-4.6 4.6-7.9l-6.7-9.1c-1.5-2.3-2.6-5.1-2.6-7.7 0-2 .2-6 1.1-7.8.5-1.1 1.8-1.6 2.9-1.1l2 .8c2.3.9 4.8-.3 5.4-2.6"/>
    <path class="st5" d="M303.2 254.6l-7.4-16.2c-1.5-3.3-2.3-7-2.3-10.8 0-1.2.1-2.3.2-3.4s1-1.9 2.1-1.9c1.3 0 2.5-.9 2.6-2.2.1-1.5-1-2.7-2.5-2.7h-.4c.1-.3.3-.6.4-.9 1.1-2.2 1.6-4.8 1.2-7.6-.5-3-2.5-7.3-5.2-9.4-.4-.3-.5-.9-.3-1.4.4-.7.5-1.5.3-2.3-.3-1.4-1.4-2.5-2.8-2.7-2.2-.4-4.1 1.3-4.1 3.4 0 .5.3 1 .5 1.4.2.5.1 1.1-.4 1.4-3.1 2-5.4 6.6-5.4 11.6 0 2 .5 3.9 1.3 5.5.2.3.3.7.5 1h-.3c-1.3 0-2.5.9-2.6 2.2-.1 1.5 1 2.7 2.5 2.7h.1c1.1 0 2 .8 2.1 1.9.1 1.1.2 2.3.2 3.5 0 3.8-.8 7.5-2.3 10.8l-7.4 16.2c-2.2 4.8.3 10.7 4.7 11.5 6.6 1.1 13.3 1.1 19.9 0 4.5-.9 7-6.9 4.8-11.6m111.1-75.8l-7.9-17.2c-1.6-3.5-2.4-7.4-2.4-11.4 0-1.2.1-2.5.2-3.7.1-1.1 1.1-2 2.2-2 1.4 0 2.6-1 2.8-2.3.2-1.6-1.1-2.9-2.6-2.9h-.4s-1-3.1-.9-3.4c1.2-2.3 4.5-7.8 4.1-10.8-.4-3.3-5.9-4.6-7.4-4.9 1.2-1 2-2.4 2-4.1 0-2.2-1.4-3.2-3.3-3.6v-.4c0-1.1-.9-2.1-2.1-2.1-1.1 0-2.1.9-2.1 2.1v.4c-1.9.4-3.3 1.4-3.3 3.6 0 1.6.8 3.1 1.9 4.1-.5.1-7.7 1.1-7.2 5.7.2 2.1 3.4 8.4 4.2 10.1.2.4-1.1 3.4-1.1 3.4h-.3c-1.4 0-2.6 1-2.8 2.3-.2 1.6 1.1 2.9 2.6 2.9h.1c1.1 0 2.1.8 2.2 2 .2 1.2.2 2.4.2 3.7 0 4-.8 7.9-2.4 11.4l-7.9 17.2c-2.3 5.1.3 11.4 5 12.2 7 1.1 14.1 1.1 21.1 0 5.3-.9 7.9-7.2 5.5-12.3"/>
    <path class="st4" d="M268 294.3l-7.9-17.2c-1.6-3.5-2.4-7.4-2.4-11.4 0-1.2.1-2.5.2-3.7.1-1.1 1.1-2 2.3-2 1.4 0 2.6-1 2.8-2.3.2-1.6-1.1-2.9-2.6-2.9h-.4s-1-3.1-.9-3.4c1.2-2.3 4.5-7.8 4.1-10.8-.4-3.3-5.9-4.6-7.4-4.9 1.2-1 2-2.4 2-4.1 0-2.2-1.4-3.2-3.3-3.6v-.4c0-1.1-.9-2.1-2.1-2.1-1.1 0-2.1.9-2.1 2.1v.4c-1.9.4-3.3 1.4-3.3 3.6 0 1.6.8 3.1 1.9 4.1-.5.1-7.7 1.1-7.2 5.7.2 2.1 3.4 8.4 4.2 10.1.2.4-1.1 3.4-1.1 3.4h-.3c-1.4 0-2.6 1-2.8 2.3-.2 1.6 1.1 2.9 2.6 2.9h.1c1.1 0 2.1.8 2.2 2 .2 1.2.2 2.4.2 3.7 0 4-.8 8-2.4 11.4l-7.9 17.2c-2.3 5.1.3 11.4 5 12.2 7 1.1 14.1 1.1 21.1 0 5.1-.9 7.7-7.2 5.4-12.3"/>
    <path class="st6" d="M254.8 271.1c-.1-1-.1-1.9-.2-2.9-.5.2-1.1.3-1.8.3-1.9 0-3.8-.1-5.8-.3-.2 1.8-.5 3.6-1 5.4 3-.2 6.1-.6 9.1-.9-.2-.5-.3-1-.3-1.6z"/>
    <path class="st7" d="M167.1 322.2c4.9-10.3 8.4-21.2 10.5-32.4 1.9-10.2 3.6-23 3.2-34.4-.7-24 13.9-45.9 21-54.9 7-9 11.7-6.9 13.9-3.2 2.2 3.7-5.3 18.5-5.3 18.5s3.2-1.4 9-3c2.6-.7 6.5-.3 9.1-.3 4.5 0 6.5 2 8.1 3.2 4.5 3.3 3.6 11.5-7.6 11.6-11.2 0-20.7 5.4-23.3 13 0 0 4-1.4 20-6.8s31.7 13.2 27.6 22.1c-4.1 8.8-11.9-10.4-25.9-3.1-14 7.4-16 13.5-16.5 26.6-.5 13.1 7.5 14.2 16.4 11.1 8.9-3.1 15.5-13.7 18.4-18 2.8-4.3 14.7-8.8 12.8 4.2-1.9 13-12.1 35.1-19.2 37.3l-2.2 1.6c-11.3 8-23 18.9-27.2 32.1l-4.8 14.5-39.7-37.4 1.7-2.3z"/>
    <g class="st8">
        <path class="st9" d="M241.8 237c-4.1 1.6-1.2 8-.4 10.5.6 2 .8 3.9.6 5.7 5.3 3.1 8.8 7.3 11.2 2.2 2.5-5.3-2.3-14.2-9.9-19.2-.5.4-1 .6-1.5.8z"/>
    </g>
    <g class="st8">
        <path class="st10" d="M209.1 216.3c-.6.2 1.2-.7 1.2-.7s2.5-4.9 4.2-9.7c-.2.1-.3.1-.5.2-4.5 1.7-8.9 4.7-11.9 8.4-4.5 5.5-7.2 12.6-8.6 19.8 1.1-1.9 2.2-3.8 3.4-5.6 2.9-6 6-9.5 12.2-12.4zM205.6 240.2c2.7-7.6 12.1-13 23.3-13 2.7 0 4.8-.5 6.4-1.3-1.7-.5-3.5-1-5.3-1.1-3.5-.3-7-.3-10.4.4-3.1.8-5.6 2.1-7.8 3.9-2.9 2.3-4.9 5.5-5.9 9.1l-.3.9c-.1.4-.2.7-.3 1.1"/>
    </g>
    <path class="st4" d="M260.8 258.9c1.4 0 2.7-1 2.8-2.4.2-1.6-1.1-2.9-2.7-2.9h-.5s-1.1-3.1-.9-3.4c1.2-2.3 4.6-7.8 4.3-10.8-.4-3.3-6.1-4.7-7.6-5 1.3-1 2.1-2.5 2.1-4.2 0-2.2-1.4-3.2-3.4-3.6v-.4c0-1.1-1-2.1-2.1-2.1s-2.1.9-2.1 2.1v.4c-2 .4-3.4 1.4-3.4 3.6 0 1.7.8 3.1 2 4.1-.5.1-7.9 1.1-7.4 5.8.2 2.2 3.5 8.4 4.4 10.1.2.4-1.1 3.4-1.1 3.4h-.3c-1.4 0-2.7 1-2.8 2.4-.2 1.6 1.1 2.9 2.7 2.9h.1m2.6 5.7"/>
    <path class="st11" d="M67.3 412.8h131.9l.2-.6c3.4-12.2 7.3-24.3 11.9-36.2 2.3-5.9 4.9-10.7 2.9-12.4l-45.3-42.2c-1.6-1.5-4.1-1.3-5.4.4l-4.5 5.7c-26.1 32.8-56.9 61.5-91.7 85.3z"/>
    <path class="st12" d="M255.7 271.3c-2.1-.7-4.4.4-5.2 2.5l-2.6 7.1c-.1.3 0 .6.3.8l2.3 1.2c1.3.7 2.7 1.2 4.2 1.4l1.6.3h.1c.9-3 1.6-5.8 2-8.4.1-.8.2-1.6.2-2.3-.6-1.2-1.6-2.2-2.9-2.6zM231.7 217.8c.5.3 2.1 1.3 4.9 3 .8.5 1.8.2 2.2-.5.1-.1.1-.3.2-.4-.1-1.3-.7-2.5-1.6-3.5l-.3-.3c-.2-.2-.4-.4-.6-.5-.8-.6-1.8-1.5-3.3-2.2-.4-.2-.8-.3-1.4-.5-.3-.1-1-.2-1.9-.4h-.4c-.2 0-.4.1-.5.2l-1.1 1.6c-.2.3-.1.7.2.9 1.9 1.4 3.1 2.2 3.6 2.6z"/>
</svg>
