<svg id="Layer_1" xmlns="http://www.w3.org/2000/svg" viewBox="0 0 710 404.6">
    <style>
        .st0{fill:#261d7b}.st1{fill:#e8eaff}.st2{fill:#c1c5e9}.st3{fill:#d7daf5}.st4{fill:#342d71}.st5{fill:#eceffc}.st6{fill:#9fb5e3}.st7{fill:#2e2e54}.st8{fill:#fff}.st9{fill:#ff3956}.st10{fill:#e48888}.st11{fill:#7196ff}.st12{fill:#e8e8f4}
    </style>
    <path class="st0" d="M176.1 133.6l-.9-16.7c-.1-1.3.9-2.5 2.3-2.5l1.2-.1c1.3-.1 2.5.9 2.5 2.3l.9 16.7c.1 1.3-.9 2.5-2.3 2.5l-1.2.1c-1.3 0-2.4-1-2.5-2.3M152.1 138l-3.8-16.2c-.3-1.3.5-2.6 1.8-2.9l1.2-.3c1.3-.3 2.6.5 2.9 1.8l3.8 16.2c.3 1.3-.5 2.6-1.8 2.9l-1.2.3c-1.3.3-2.6-.5-2.9-1.8"/>
    <path class="st0" d="M154.4 140.2c-1.3 0-2.4-.9-2.7-2.2l-3.8-16.2c-.2-.7-.1-1.5.3-2.1.4-.6 1-1.1 1.8-1.3l1.2-.3c1.5-.4 3 .6 3.4 2.1l3.8 16.2c.2.7 0 1.5-.3 2.1-.4.6-1 1.1-1.8 1.3l-1.2.3c-.2.1-.4.1-.7.1zm-2.6-21.3c-.2 0-.3 0-.5.1l-1.2.3c-.5.1-1 .4-1.2.9-.3.5-.4 1-.2 1.5l3.8 16.2c.3 1.1 1.3 1.7 2.4 1.5l1.2-.3c.5-.1 1-.4 1.2-.9.3-.5.4-1 .2-1.5l-3.8-16.2c-.2-1-1-1.6-1.9-1.6zM124.7 149.4l-5.9-17.1c-.5-1.4.3-2.8 1.6-3.3l1.3-.4c1.4-.5 2.9.3 3.3 1.6l5.9 17.1c.5 1.4-.3 2.8-1.6 3.3l-1.3.4c-1.3.5-2.8-.2-3.3-1.6"/>
    <path class="st0" d="M127.2 151.6c-1.3 0-2.4-.8-2.9-2l-5.9-17.1c-.3-.8-.2-1.6.1-2.3.4-.7 1-1.3 1.7-1.5l1.3-.4c1.6-.5 3.3.3 3.8 1.9l5.9 17.1c.3.8.2 1.6-.1 2.3-.4.7-1 1.3-1.7 1.5l-1.3.4c-.2 0-.6.1-.9.1zm-2.1-2.3c.4 1.1 1.6 1.8 2.8 1.4l1.3-.4c.6-.2 1-.6 1.3-1.1.3-.5.3-1.1.1-1.7l-5.9-17.1c-.4-1.1-1.6-1.8-2.8-1.4l-1.3.4c-.6.2-1 .6-1.3 1.1-.3.5-.3 1.1-.1 1.7l5.9 17.1z"/>
    <path class="st1" d="M176.9 119.6v-.1c.6-3.7-2.2-7.1-5.9-7l-9 .1h-1.5c-2.4 0-4.4 1.5-5.4 3.6-.2.5-.5.9-.8 1.3-1.2 1.5-1.4 3.6-.9 5.4l3.5 12.2c.8 2.8 3.6 4.7 6.5 4.3l8.6-1.2c3.4-.5 5.7-3.7 5-7-.8-4.7-.6-8.7-.1-11.6M133.3 114.6c.5 2.5-.7 5.5-3 6.7-2.8 1.4-4.8 4-5.2 7.2-.1.9-.1 1.8-.1 2.7 0 3.8.9 8.7 4.3 13.7 2.5 3.7 7.5 4.8 11.4 2.6l9.2-5c2.1-1.1 3.1-3.6 2.5-5.9l-3.7-12.9c-.6-2-2.2-3.5-4.3-3.9-2.8-.6-4.3-2.6-4.5-4.8l-3.7 3.3.8-4.1-3.7.4zM180.3 119c-.6 2.2-1.2 5.1-1.2 8.6 0 5 4.2 9 9.2 8.9l11.8-.3c6.2-.5 10.8-5.9 10.3-12.2-.4-5.6-5-9.9-10.6-10.4l-10.1-1c-4.3-.4-8.3 2.2-9.5 6.3l.1.1"/>
    <path class="st1" d="M118.6 117.1l-38.3 4.7L58 174.2l-.3-.3-4.4-8c-3.4-1.6-6.2 3.8-7.9 7.1l-1.5 3c-5.1 9.3-8.3 14.6-9.2 22l-4.2 36 3.2 25 3.4 27.6c1.1 9.1 8 16.5 17 18.4l31.5 6.6c5 1.1 10 .3 14.2-1.9.3-.2.7-.3 1-.5 6.9-3.9 10.9-11.5 10.7-19.4l-.4-17.1c-.1-3.4.6-6.9 2.3-9.8l.6-.9c8-12.4 14.2-26 17-40.5l1.7-8.4c.4-2.1 9.3-33.8 9-35.9l-1.1-15.3-11.9-10.2c-2.3-5.5 1.2 3.4-4.6-7.2 0 0-6-13.5-3.6-24.3-2.7-.9-1.9-.8-1.9-3.1z"/>
    <path class="st2" d="M114.4 131.3l-31.2-.4v38.9h47.1c-5.9-6.8-9.7-13.5-11.4-19.9-1.7-6.3-3.2-12.6-4.5-18.6z"/>
    <path class="st3" d="M134.2 170l-5.5-15.8c-.6-1.7.3-3.6 2-4.2s3.6.3 4.2 2l5.5 15.8c.6 1.7-.3 3.6-2 4.2-1.7.6-3.6-.3-4.2-2"/>
    <path class="st1" d="M140.1 169.1H170c2.7 0 4.9-2.2 4.9-4.8v-9.8c0-2.7-2.2-4.8-4.9-4.8h-29.9c-2.7 0-4.9 2.2-4.9 4.8v9.8c0 2.6 2.2 4.8 4.9 4.8"/>
    <path class="st0" d="M150 105.6l-3-15.1c-.3-1.3.6-2.6 1.9-2.8l.8-.2c1.3-.3 2.6.6 2.8 1.9l3 15.1c.3 1.3-.6 2.6-1.9 2.8l-.8.2c-1.2.2-2.5-.6-2.8-1.9M173 167.1l.8-15.8c.1-1.2 1.1-2.1 2.3-2.1h.8c1.2.1 2.1 1.1 2.1 2.3l-.8 15.8c-.1 1.2-1.1 2.1-2.3 2.1h-.8c-1.3-.1-2.2-1.1-2.1-2.3"/>
    <path class="st0" d="M175.9 169.8h-.9c-1.4-.1-2.5-1.3-2.5-2.7l.8-15.8c.1-1.4 1.3-2.5 2.7-2.4h.8c.7 0 1.3.3 1.8.8s.7 1.2.7 1.9l-.8 15.8c-.1 1.3-1.3 2.4-2.6 2.4zm0-20.2c-.9 0-1.7.7-1.8 1.7l-.8 15.8c0 1 .7 1.8 1.7 1.8h.8c1 0 1.8-.7 1.8-1.7l.8-15.8c0-.5-.1-.9-.5-1.3-.3-.3-.7-.5-1.2-.6l-.8.1z"/>
    <path class="st1" d="M202.6 154.5l-15.5-5.2c-2.1-.7-4.3-.7-6.3.1-.9.4-1.7.9-2.2 1.5-1.9 3-3.5 8.1-1.1 16.3.5 2 2.2 3.5 4.2 3.8.4.1.9.1 1.3.2l13.9 3c5 1.1 10-1.6 11.8-6.3 2.1-5.4-.6-11.4-6-13.4"/>
    <path class="st4" d="M90.4 320.8l-40.5-7.9c-2.3-.4-3.7-2.6-3.3-4.9l.3-1.4c.4-2.3 2.6-3.7 4.9-3.3l40.5 7.9c2.3.4 3.7 2.6 3.3 4.9l-.3 1.4c-.5 2.2-2.7 3.7-4.9 3.3M89.7 142.7l-13-15.5c-1.3-1.5-1-3.7.5-5l1-.8c1.5-1.2 3.7-1 5 .5l13 15.5c1.3 1.5 1 3.7-.5 5l-1 .8c-1.5 1.2-3.7 1-5-.5"/>
    <path class="st5" d="M73.2 468.5l-41.9-8.3c-22-4.4-36-32.1-29.8-59.1l12.7-55.4c5.2-22.6 22.9-36.8 41.4-33.1l30.3 6c17.3 3.5 30.2 21.7 31.2 43.4.2 3.3.3 6.7.6 10l6.8 79.3c-.5 28.2-29.1 21.7-51.3 17.2"/>
    <path class="st1" d="M148.8 93.2v-.1c-.8-3.5-4.6-5.3-7.8-3.7l-19.9 9.9-2.4 18.3 12.6-1.5-.8 3.9 5.5-4.9 14.6-.2 2.7-1.8c2.6-1.8 3.2-5.3 1.3-7.8-3.5-4.6-5.1-8.9-5.8-12.1M182.6 87.7c-2.1-5.5-8.3-8.5-14-7.1l-10.9 2.5c-2.8.6-4.9 2.9-5.1 5.8-.1.8-.1 1.7-.1 2.6 0 3.1.5 7.4 2.5 12.3 1.4 3.3 5.1 5 8.5 3.8l12.3-4.6c6-2.3 9.2-9.1 6.8-15.3M52.7 156.2L67 132.6c.4-.6 3.1-5 5.4-8.6 1.1-1.7 3.7-1.5 4.4.4.4 1 .8 2 1.4 3.1 3.6 6.7 9.7 11.7 15.3 15.2h.1c2.6 1.6 3.4 5 1.9 7.6-1.2 2-2.3 3.9-2.3 3.9l-16.5 28c-9.5-1.1-16.7-4.2-21.7-7.3-5.1-3.2-6.8-9.9-4.1-15.2l1.8-3.5z"/>
    <path class="st4" d="M64.5 194.6L58.4 180c-1-2.4.1-5.2 2.6-6.2 2.4-1 5.2.1 6.3 2.6l6.1 14.5c1 2.4-.1 5.2-2.6 6.2s-5.3-.1-6.3-2.5"/>
    <path class="st6" d="M50.2 172.6c-9.3 4.9-15.7 13.9-17.1 24.3l-5.3 39.7c1.1 10.2 10.6 17.5 20.9 15.7 7.5-1.3 13.2-7.5 14.5-14.9l4.3-24.3.2-1.3c1.2-6.6.4-13.4-2.2-19.5l-2.6-6.1-4.2-10.4c-1.2-3.4-5.2-4.9-8.5-3.2"/>
    <path class="st4" d="M46.4 254.7c-1.4 0-2.8-.1-4.2-.5-5.2-1.1-9.7-4.2-12.6-8.7s-3.9-9.8-2.7-15c2.3-10.8 13-17.6 23.8-15.3 5.2 1.1 9.7 4.2 12.6 8.7 2.9 4.5 3.9 9.8 2.7 15-2.1 9.4-10.4 15.8-19.6 15.8zm-.1-37.8c-8.2 0-15.6 5.7-17.4 14-1 4.6-.1 9.4 2.4 13.4 2.6 4 6.6 6.7 11.2 7.7 9.6 2.1 19.1-4 21.2-13.6 1-4.6.1-9.4-2.4-13.4-2.6-4-6.6-6.7-11.2-7.7-1.2-.2-2.5-.4-3.8-.4z"/>
    <path class="st0" d="M112.6 103.5c-.4-1.9.9-3.8 2.8-4.1l1.2-.2c1.9-.4 3.8.9 4.2 2.8l3 15.2c.4 1.9-.9 3.8-2.8 4.1l-1.2.2c-1.9.4-3.8-.9-4.2-2.8l-3-15.2z"/>
    <path class="st7" d="M119 121.9c-1.8 0-3.5-1.3-3.9-3.2l-3-15.2c-.2-1 0-2.1.6-3 .6-.9 1.5-1.5 2.5-1.7l1.2-.2c2.1-.4 4.2 1 4.6 3.1l3 15.2c.2 1 0 2.1-.6 3-.6.9-1.5 1.5-2.5 1.7l-1.2.2c-.2.1-.4.1-.7.1zm-1.7-22.5c-.2 0-.4 0-.6.1l-1.2.2c-.8.2-1.5.6-2 1.3-.5.7-.6 1.5-.5 2.3l3 15.2c.3 1.7 2 2.8 3.7 2.5l1.2-.2c.8-.2 1.5-.6 2-1.3.5-.7.6-1.5.5-2.3l-3-15.2c-.3-1.5-1.6-2.6-3.1-2.6z"/>
    <path class="st1" d="M164.8 105.9c.9-7.5-4.9-14.1-12.4-14.3L133 91h-4.3c-4.9 0-9 3.6-9.7 8.4-.6 3.8-.6 8.6 1 13.8 1.7 5.4 7.2 8.6 12.7 7.6l21.5-3.9c5.7-.9 9.9-5.4 10.6-11M114.3 103.7c.2-4.3-4.7-7-8.3-4.7-4.8 3.1-9.4 6.2-9.8 6.4l-13.3 8.8c-1.1.7-1.7 2.1-1.3 3.4 1 4.2 4.4 12.5 15.7 20.1 3.6 2.4 8.4 1.7 11.1-1.6l.1-.1 8.3-10c1.6-2 1.9-4.7.8-7-2.8-5.6-3.5-10.9-3.3-15.3"/>
    <path class="st8" d="M202 10.7L58.1 49.4c-7 1.9-11.2 9.1-9.3 16.1l49.8 185.8c1.9 7 9.1 11.2 16.1 9.3L258.6 222c7-1.9 11.2-9.1 9.3-16.1L218.1 20c-1.8-7-9.1-11.2-16.1-9.3z"/>
    <path class="st9" d="M201.8 8.9L56.7 47.7c-7 1.9-11.2 9.1-9.3 16.1L92.2 231l170.5-45.7-44.8-167.1c-1.9-7.1-9.1-11.2-16.1-9.3z"/>
    <path class="st4" d="M96.4 165.2c-.9-2.5.5-5.3 3-6.2 2.5-.9 5.3.5 6.2 3l5.1 14.7c.9 2.5-.5 5.3-3 6.2-2.5.9-5.3-.5-6.2-3l-5.1-14.7z"/>
    <path class="st6" d="M93.7 191.2l-8.2 2.8c-6.4 2.2-13.3-1.2-15.5-7.5l-2.8-8.2c-2.2-6.4 1.2-13.3 7.6-15.4l8.2-2.8c6.4-2.2 13.3 1.2 15.5 7.5l2.8 8.2c2.1 6.3-1.3 13.2-7.6 15.4"/>
    <path class="st5" d="M128.8 73l33.4-7.7c25.9-6 51.8 10.2 57.8 36.1 6 25.9-10.2 51.8-36.1 57.8l-33.4 7.7c-25.9 6-51.8-10.2-57.8-36.1s10.2-51.9 36.1-57.8z"/>
    <path d="M155.1 154.8c-.4 0-.7-.3-.8-.6-.1-.4.2-.9.6-1 6.7-1.5 9.2-6.2 7.6-14.3-.1-.4.2-.9.6-1 .4-.1.9.2 1 .6 1.8 9-1.2 14.5-8.8 16.3h-.2z"/>
    <path d="M172.4 150.5c-5.7 0-9.5-3.7-11.5-11.2-.1-.4.1-.9.6-1 .4-.1.9.1 1 .6 2.1 8 6.4 11.1 13.1 9.6.4-.1.9.2 1 .6.1.4-.2.9-.6 1-1.3.2-2.5.4-3.6.4z"/>
    <path class="st10" d="M168.4 136.5c-2.6 4.2-8.2 5.5-12.4 2.9-1.7-1.1-2.3-3.4-1.2-5.1.5-.8 1.4-1.4 2.3-1.7l7.2-1.7c2-.5 4 .8 4.5 2.8.3.9.1 2-.4 2.8z"/>
    <path class="st5" d="M97 84.5l-1.1-7c-.7-4.1 2.2-8 6.3-8.7 1.5-.2 2.9 0 4.3.6l6.6 3c5.7 2.6 8.3 9.3 5.7 15.1-.6 1.4-1.6 2.7-2.7 3.8-4.7 4.3-11.9 3.9-16.2-.8-1.5-1.8-2.5-3.8-2.9-6zM194.2 62l-2.1-6.8c-1.2-4-5.5-6.3-9.5-5-1.4.4-2.7 1.3-3.6 2.4l-4.6 5.5c-4 4.8-3.4 12 1.5 16.1 1.2 1 2.6 1.7 4.1 2.2 6.1 1.8 12.4-1.7 14.2-7.8.7-2.2.7-4.4 0-6.6z"/>
    <path class="st10" d="M191.4 64.5l-1.2-4c-.9-2.9-3.9-4.5-6.8-3.6-1 .3-1.9.9-2.5 1.7l-3.3 3.9c-2.8 3.2-2.4 8.1.8 10.9.9.8 1.9 1.3 3 1.6 4.4 1.2 9-1.4 10.2-5.8.3-1.6.2-3.2-.2-4.7zM100.7 85.4l-.7-4.2c-.5-3 1.6-5.8 4.5-6.2 1-.2 2.1 0 3 .4l4.7 2c3.9 1.7 5.8 6.2 4.1 10.2-.5 1.1-1.1 2-2 2.8-3.4 3-8.7 2.7-11.7-.8-1-1.2-1.7-2.6-1.9-4.2z"/>
    <ellipse transform="rotate(-13.002 137.797 128.643)" class="st11" cx="137.8" cy="128.7" rx="8.5" ry="9"/>
    <ellipse transform="rotate(-13.002 137.8 128.645)" cx="137.8" cy="128.7" rx="5.7" ry="6"/>
    <ellipse transform="rotate(-13.002 180.08 118.882)" class="st11" cx="180.1" cy="118.9" rx="8.5" ry="9"/>
    <ellipse transform="rotate(-13.002 180.084 118.883)" cx="180.1" cy="118.9" rx="5.7" ry="6"/>
    <path class="st6" d="M115.9 148.1l-7.4 2.6-.7.3c-4.2 1.5-6.7 5.8-6.1 10.3.7 4.9 2.3 11.2 5.9 16.7 2.5 3.9 7.4 5.3 11.6 3.4l7.6-3.5c7.5-3.5 11.5-12.1 8.7-20-2.8-8.1-11.5-12.4-19.6-9.8z"/>
    <path class="st0" d="M569 128.7l4.1-16.2c.3-1.3-.5-2.6-1.8-2.9l-1.2-.3c-1.3-.3-2.6.5-2.9 1.7l-4.1 16.2c-.3 1.3.5 2.6 1.8 2.9l1.2.3c1.3.3 2.6-.4 2.9-1.7M591.7 137.5l6.9-15.2c.5-1.2 0-2.6-1.2-3.2l-1.1-.5c-1.2-.5-2.6 0-3.2 1.2l-6.9 15.2c-.5 1.2 0 2.6 1.2 3.2l1.1.5c1.3.6 2.7.1 3.2-1.2"/>
    <path class="st0" d="M589.5 139.4c-.4 0-.8-.1-1.2-.2l-1.1-.5c-.7-.3-1.2-.9-1.5-1.6s-.2-1.5.1-2.2l6.9-15.2c.6-1.4 2.3-2 3.7-1.4l1.1.5c.7.3 1.2.9 1.5 1.6.3.7.2 1.5-.1 2.2l-6.9 15.2c-.4 1-1.4 1.6-2.5 1.6zm5.8-20.6c-.8 0-1.5.4-1.8 1.2l-6.9 15.2c-.2.5-.2 1 0 1.5s.6.9 1 1.1l1.1.5c1 .5 2.2 0 2.6-1l6.9-15.2c.2-.5.2-1 0-1.5s-.6-.9-1.1-1.1l-1.1-.5c-.2-.1-.4-.2-.7-.2zM616.4 154l9-15.7c.7-1.2.3-2.8-1-3.6l-1.2-.7c-1.2-.7-2.8-.3-3.6 1l-9 15.7c-.7 1.2-.3 2.8 1 3.6l1.2.7c1.3.7 2.9.2 3.6-1"/>
    <path class="st0" d="M614.2 155.7c-.5 0-1-.1-1.5-.4l-1.2-.7c-.7-.4-1.2-1.1-1.4-1.8-.2-.8-.1-1.6.3-2.3l9-15.7c.8-1.4 2.7-1.9 4.1-1.1l1.2.7c.7.4 1.2 1.1 1.4 1.8.2.8.1 1.6-.3 2.3l-9 15.7c-.6 1-1.6 1.5-2.6 1.5zm7.8-21.5c-.8 0-1.5.4-1.9 1.1l-9 15.7c-.3.5-.4 1.1-.2 1.7.2.6.5 1 1 1.3l1.2.7c1.1.6 2.4.2 3-.8l9-15.7c.3-.5.4-1.1.2-1.7s-.5-1-1-1.3l-1.2-.7c-.3-.3-.7-.3-1.1-.3z"/>
    <path class="st1" d="M570.9 114.8v-.1c.1-3.8 3.5-6.5 7.2-5.8l8.8 1.8 1.5.3c2.3.5 4.1 2.3 4.6 4.6.1.5.3 1 .5 1.4.9 1.7.7 3.8-.2 5.5l-5.8 11.4c-1.3 2.6-4.4 3.9-7.2 2.9l-8.2-2.8c-3.2-1.1-4.9-4.7-3.6-7.8 1.8-4.5 2.3-8.5 2.4-11.4M614.7 118.2c-1 2.4-.4 5.5 1.7 7.1 2.5 2 4 4.9 3.7 8-.1.9-.2 1.8-.4 2.7-.7 3.7-2.5 8.4-6.8 12.6-3.2 3.1-8.3 3.2-11.7.4l-8.1-6.7c-1.9-1.5-2.4-4.1-1.3-6.3l6.1-12c.9-1.9 2.8-3 4.9-3 2.9 0 4.7-1.7 5.4-3.8l3 4V117l3.5 1.2zM567.7 113.6c.2 2.3.2 5.3-.5 8.7-.9 4.9-5.8 8-10.7 6.9l-11.6-2.6c-6-1.7-9.5-7.9-7.8-13.9 1.5-5.4 6.8-8.7 12.4-8.2l10.1 1c4.3.4 7.7 3.8 8.1 8v.1"/>
    <path class="st1" d="M628.6 123.5l36.7 11.9 11.9 55.7c.1-.1.3-.1.4-.2l5.8-7c3.6-.9 5.4 4.9 6.4 8.5l.9 3.2c3.3 10.1 5.4 15.9 4.8 23.3l-2.8 36.1-7.9 23.9-8.6 26.4c-2.9 8.8-11 14.7-20.2 14.8l-32.2.4c-5.1.1-9.9-1.7-13.6-4.6-.3-.2-.6-.5-.9-.7-6-5.1-8.5-13.3-6.8-21.1l3.7-16.7c.7-3.3.7-6.9-.4-10.1-.1-.3-.2-.7-.4-1-5.5-13.7-8.9-28.2-9-43v-8.6c0-2.2-2.7-34.9-2-37l4-14.8 13.6-7.8c3.3-4.9-1.8 3.1 5.9-6.2 0 0 8.5-12.1 8.2-23.2 2.9.1 2.1.1 2.5-2.2z"/>
    <path class="st2" d="M630 138.2l30.7 5.6-7.4 38.2-46.2-9c7.1-5.6 12-11.4 15-17.3 2.8-6 5.5-11.8 7.9-17.5z"/>
    <path class="st3" d="M603.2 172.4l8.4-14.5c.9-1.6.4-3.6-1.2-4.5s-3.6-.4-4.5 1.2l-8.4 14.5c-.9 1.6-.4 3.6 1.2 4.5 1.6.9 3.6.4 4.5-1.2"/>
    <path class="st1" d="M597.6 170.4l-29.4-5.7c-2.6-.5-4.3-3.1-3.8-5.7l1.9-9.7c.5-2.6 3.1-4.3 5.7-3.8l29.4 5.7c2.6.5 4.4 3.1 3.8 5.7l-1.9 9.7c-.5 2.6-3 4.3-5.7 3.8"/>
    <path class="st0" d="M599.9 106.2l5.8-14.2c.5-1.2-.1-2.6-1.3-3.1l-.8-.3c-1.2-.5-2.6.1-3.1 1.3l-5.8 14.2c-.5 1.2.1 2.6 1.3 3.1l.8.3c1.2.5 2.6-.1 3.1-1.3M565.7 162.2l2.3-15.7c.2-1.2-.6-2.3-1.8-2.5l-.8-.1c-1.2-.2-2.3.6-2.5 1.8l-2.3 15.7c-.2 1.2.6 2.3 1.8 2.5l.8.1c1.2.2 2.3-.7 2.5-1.8"/>
    <path class="st0" d="M563.6 164.4h-.4l-.8-.1c-1.4-.2-2.4-1.5-2.2-2.9l2.3-15.7c.2-1.4 1.5-2.4 2.9-2.2l.8.1c1.4.2 2.4 1.5 2.2 2.9l-2.3 15.7c-.2 1.3-1.3 2.2-2.5 2.2zm1.5-20.1c-.9 0-1.6.6-1.7 1.5l-2.3 15.7c-.1 1 .5 1.8 1.5 2l.8.1c1 .1 1.8-.5 2-1.5l2.3-15.7c.1-1-.5-1.8-1.5-2l-.8-.1h-.3z"/>
    <path class="st1" d="M539 144.2l16.2-2.1c2.2-.3 4.4.1 6.2 1.3.8.5 1.6 1.2 1.8 1.9 1.3 3.3 1.8 8.6-2 16.2-.9 1.9-2.8 3-4.9 2.9h-1.4l-14.3.3c-5.1.1-9.5-3.5-10.4-8.4-1-5.7 2.8-11.1 8.4-12"/>
    <path class="st4" d="M617.4 328.8h41.3c2.3 0 4.2-1.9 4.2-4.2v-1.5c0-2.3-1.9-4.2-4.2-4.2h-41.3c-2.3 0-4.2 1.9-4.2 4.2v1.5c.1 2.3 1.9 4.2 4.2 4.2M652.1 154.1l15.7-12.8c1.5-1.2 1.7-3.5.5-5l-.8-1c-1.2-1.5-3.5-1.7-5-.5l-15.7 12.8c-1.5 1.2-1.7 3.5-.5 5l.8 1c1.2 1.5 3.5 1.7 5 .5"/>
    <path class="st5" d="M606.1 477.1l42.8-.2c22.5-.1 41.5-24.7 40.6-52.3l-1.9-56.8c-.8-23.2-15.5-40.5-34.3-40.4l-30.9.1c-17.7.1-33.8 15.5-38.9 36.6-.8 3.2-1.6 6.5-2.5 9.7l-22 76.5c-4.8 27.8 24.5 26.9 47.1 26.8"/>
    <path class="st1" d="M603.5 94.2c1.5-3.3 5.6-4.4 8.4-2.3l17.6 13.6-1.1 18.5-12-3.9v3.9l-4.5-5.9-14.3-3-2.3-2.3c-2.2-2.2-2.1-5.8.2-7.9 4.3-3.7 6.7-7.7 8-10.7M571.4 82.4c3.2-5 9.7-6.7 15.1-4.3l10.2 4.6c2.6 1.2 4.2 3.8 3.9 6.6-.1.8-.2 1.7-.4 2.6-.6 3-1.9 7.2-4.8 11.6-2 3-6 3.9-9.1 2.1l-11.2-6.8c-5.5-3.5-7.2-10.8-3.7-16.4M685.8 174.5l-9.5-25.9c-.2-.7-2.1-5.5-3.6-9.4-.7-1.9-3.3-2.1-4.4-.4-.6.9-1.2 1.8-2 2.8-4.9 5.9-11.8 9.7-17.9 12h-.1c-2.8 1.1-4.3 4.2-3.3 7.1.8 2.2 1.5 4.2 1.5 4.3l10.8 30.7c9.6.8 17.2-.9 22.7-3.1 5.6-2.2 8.6-8.4 6.9-14.2l-1.1-3.9z"/>
    <path class="st4" d="M666.9 209.8l8.8-13.1c1.5-2.2.9-5.2-1.3-6.6-2.2-1.5-5.2-.9-6.6 1.3l-8.8 13.1c-1.5 2.2-.9 5.2 1.3 6.6 2.2 1.5 5.2.9 6.6-1.3"/>
    <path class="st6" d="M685.1 191c8.2 6.5 12.7 16.7 12.1 27.1l-2.3 40c-3 9.8-13.7 15.1-23.5 11.4-7.1-2.7-11.5-9.8-11.4-17.4l.4-24.6v-1.4c.1-6.7 2.1-13.2 5.8-18.7l3.7-5.5 6.1-9.4c2-3.1 6.2-3.8 9.1-1.5"/>
    <path class="st4" d="M677.1 272.7c-10.9 0-19.8-8.7-20-19.6-.1-5.3 1.9-10.4 5.6-14.2 3.7-3.8 8.7-6 14-6.1h.4c10.9 0 19.8 8.7 20 19.6.1 5.3-1.9 10.4-5.6 14.2-3.7 3.8-8.7 6-14 6.1h-.4zm-17.8-19.6c.2 9.7 8.2 17.4 17.8 17.4h.4c4.8-.1 9.2-2 12.5-5.5s5.1-7.9 5-12.7c-.2-9.8-8.4-17.7-18.2-17.4-4.8.1-9.2 2-12.5 5.5-3.4 3.4-5.1 7.9-5 12.7z"/>
    <path class="st0" d="M637.1 111.2c.7-1.8-.1-3.9-2-4.6l-1.2-.5c-1.8-.7-3.9.1-4.6 1.9l-5.8 14.3c-.7 1.8.1 3.9 2 4.6l1.2.5c1.8.7 3.9-.1 4.6-1.9l5.8-14.3z"/>
    <path class="st7" d="M628 128.2c-.5 0-1-.1-1.5-.3l-1.2-.5c-1-.4-1.7-1.1-2.2-2.1-.4-1-.4-2 0-3l5.8-14.3c.8-2 3.1-3 5.1-2.2l1.2.5c1 .4 1.7 1.1 2.2 2.1.4 1 .4 2 0 3l-5.8 14.3c-.6 1.6-2 2.5-3.6 2.5zm4.7-21.9c-1.2 0-2.4.7-2.9 1.9l-5.8 14.3c-.3.8-.3 1.6 0 2.4s.9 1.4 1.7 1.7l1.2.5c1.6.6 3.4-.1 4.1-1.7l5.8-14.3c.3-.8.3-1.6 0-2.4-.3-.8-.9-1.4-1.7-1.7l-1.2-.5c-.4-.1-.8-.2-1.2-.2z"/>
    <path class="st1" d="M585.4 103.6c.6-7.5 7.5-13 15-11.7l19 3.2c.3.1 2.1.4 4.2.8 4.8 1 8.1 5.3 7.9 10.1-.2 3.9-1.1 8.6-3.6 13.4-2.7 5-8.7 7.1-13.9 5l-20.4-7.9c-5.3-2-8.6-7.2-8.2-12.9M635.4 111.1c.6-4.3 5.9-6 9.1-3 4.1 4 8.1 7.8 8.4 8.1l11.4 11.2c1 1 1.2 2.4.7 3.6-1.8 4-6.7 11.4-19.3 16.7-3.9 1.7-8.5.1-10.6-3.7h-.1l-6.2-11.4c-1.2-2.3-1-5 .6-7.1 3.7-4.9 5.4-10 6-14.4"/>
    <path class="st8" d="M567 3.1l133.8 65.4c6.5 3.2 9.2 11.1 6.1 17.6L622.6 259c-3.2 6.5-11.1 9.3-17.6 6.1l-133.8-65.4c-6.5-3.2-9.2-11.1-6.1-17.6L549.4 9.2c3.2-6.6 11.1-9.3 17.6-6.1z"/>
    <path class="st11" d="M567.6 1.3l135 65.8c6.5 3.2 9.3 11.1 6.1 17.6l-75.9 155.6L474.1 163 550 7.4c3.2-6.5 11.1-9.3 17.6-6.1z"/>
    <path transform="rotate(-64.004 566.05 182.688)" class="st6" d="M543.2 177.8h45.7v9.8h-45.7z"/>
    <path class="st4" d="M641.2 174.9c1.3-2.3.5-5.3-1.8-6.6-2.3-1.3-5.3-.5-6.6 1.8l-7.8 13.5c-1.3 2.3-.5 5.3 1.8 6.6 2.3 1.3 5.3.5 6.6-1.8l7.8-13.5z"/>
    <path class="st6" d="M638.9 200.9l7.5 4.3c5.8 3.4 13.3 1.4 16.6-4.5l4.3-7.5c3.4-5.8 1.4-13.3-4.5-16.6l-7.5-4.3c-5.8-3.4-13.3-1.4-16.6 4.5l-4.3 7.5c-3.3 5.9-1.3 13.3 4.5 16.6"/>
    <path class="st9" d="M596.1 172.5l-38.9-18.9-14.1-40.9 19-38.9L603 59.7l38.9 19 14 40.9-18.9 38.9z"/>
    <path class="st12" d="M596.1 176.7c-.6 0-1.2-.1-1.8-.4l-38.9-19c-1-.5-1.7-1.3-2.1-2.4L539.2 114c-.4-1-.3-2.2.2-3.1l19-38.9c.5-1 1.3-1.7 2.4-2.1l40.9-14.1c1-.4 2.2-.3 3.1.2l38.9 19c1 .5 1.7 1.3 2.1 2.4l14.1 40.9c.4 1 .3 2.2-.2 3.1l-19 38.9c-.5 1-1.3 1.7-2.4 2.1l-40.9 14.1c-.4.1-.9.2-1.3.2zm-35.6-26.1l35.8 17.5 37.7-13 17.5-35.8-13-37.7-35.8-17.5-37.7 13-17.5 35.8 13 37.7z"/>
    <path class="st8" d="M565.3 104.1c-1.7 3.4-.8 6.2 1.6 7.4 2 1 4.3.2 5.4-2.1 1.3-2.6-.2-4.4-1.4-5.8-3.1-3.6-5.6-6.6-3-11.8 2.1-4.3 6.6-5.6 10.1-3.9 3.9 1.9 5.2 6.6 2.9 11.5l-3.5-1.7c1.3-2.6.9-4.9-1.1-5.9-1.8-.9-3.8-.5-4.8 1.7-1 2.1 0 3.9 1.3 5.4 2.6 3.1 5.8 6.8 3.4 11.7-2.6 5.4-7.4 6.5-11.4 4.6-3.9-1.9-5.8-6.9-2.9-12.8l3.4 1.7zM589 98.7l-5.3-2.6 1.9-3.8 14.2 6.9-1.9 3.8-5.3-2.6-10.9 22.2-3.5-1.7zM612 121.3c2.5-5.1 2-11.2-2.6-13.4s-9.7 1.1-12.2 6.2-2 11.2 2.6 13.4c4.6 2.2 9.8-1.2 12.2-6.2m-18.5-9.1c3.4-7.1 10.9-11.6 17.8-8.2 6.9 3.4 7.9 12 4.5 19.1-3.4 7.1-10.9 11.6-17.8 8.2-6.9-3.4-7.9-12-4.5-19.1M632.8 126.6c1.4-2.9 1-6.1-1.5-7.3l-4.2-2-5.1 10.6 4.2 2c2.4 1.2 5.2-.5 6.6-3.3zm-7.3-14.9l7.7 3.8c4.6 2.2 5.5 7.9 3.1 12.8s-7.4 7.7-12 5.4l-4.2-2-3.8 7.8-3.5-1.7 12.7-26.1z"/>
    <path class="st6" d="M625.3 154.3l6.8 4 .7.4c3.8 2.3 5.5 7 4 11.3-1.6 4.6-4.4 10.5-9 15.3-3.2 3.3-8.3 3.8-12.1 1.2l-6.7-4.9c-6.7-4.8-9-14.1-4.8-21.3 4.4-7.4 13.7-10 21.1-6z"/>
</svg>
