<svg id="Layer_1" xmlns="http://www.w3.org/2000/svg" viewBox="0 0 710 360.9">
    <style>
        .st0{fill:#fff}.st1{fill:#85a0ff}.st2{fill:#342d71}.st3{fill:#7799eb}.st4{fill:#8080d8}.st5{opacity:.8}.st6{fill:#4747a1}.st7{fill:#fdbf84}.st8{opacity:.2664}.st9{fill-rule:evenodd;clip-rule:evenodd;fill:#342d71}.st10{opacity:.5}.st11{fill:#50b9e8}
    </style>
    <title>
        3_1-odds
    </title>
    <path class="st0" d="M541.7 258.8V271.9h23.6v-20.4h93v44.6H710h-51.7v2H710v62.8H563.2v-46.6h-25.5v46.6H455v-57.7h.1v-71.5h86.6v27.1"/>
    <path class="st1" d="M500.6 314.2H480.8v24.7H511.9v-24.7zM475 250.1h42.7v33.3H475zM589.1 314.2h42.7v33.3h-42.7z"/>
    <path class="st2" d="M537.8 314.3h25.5v46.6h-25.5zM455.2 225.7v6h86.5v-7.2h-86.5zM565.3 245.6v5.9h93v-7.2h-93zM658.3 292.2v5.9H710v-7.2h-51.7zM541.7 265.9v6h23.6v-7.2h-23.6zM389.1 224.5H269c-1.5 0-2.7 1.2-2.7 2.7v68.6h10.2v64.8h114.2V226.2c.1-1-.6-1.7-1.6-1.7z"/>
    <path class="st0" d="M354.8 360.5H331v-46.8h23.8"/>
    <path class="st3" d="M337.8 319.9h10.3v20.3h-10.3z"/>
    <path class="st4" d="M242.2 313.6h34.4v46.9h-34.4z"/>
    <g class="st5">
        <path class="st1" d="M391.9 295.6h-25.4V245c0-.8.6-1.4 1.4-1.4h23.9v52z"/>
    </g>
    <g class="st5">
        <path class="st1" d="M284 243.6h33.7v52H284z"/>
    </g>
    <path class="st2" d="M98.8 273.9v27.3H0v-23.9c0-1.9 1.5-3.4 3.4-3.4h95.4z"/>
    <path class="st6" d="M148.4 286.4l-17-2.7V263c0-1.1.9-2 2-2h12.9c1.1 0 2 .9 2 2v23.4z"/>
    <path class="st7" d="M114 269.5l-60 35.4v-.7H0v56.3h174.1v-55.6z"/>
    <path class="st2" d="M126.5 319h-24.8c-.1 0-.2.1-.2.2v41.2h25V319z"/>
    <path class="st6" d="M139.9 319h19.2v19.2h-19.2zM68.1 319.3h19.2v19.2H68.1z"/>
    <path class="st2" d="M115 264.2c-.6-.4-1.3-.4-1.9 0l-16.3 9.5-47 27.5H0v6.2h49.8l63.3-37.1c.6-.3 1.3-.3 1.9 0l63.3 37.1v-6.2l-63.3-37z"/>
    <g class="st8">
        <path class="st9" d="M49.8 307.3l-35.6 53.2h35.6z"/>
    </g>
    <g class="st8">
        <path class="st9" d="M276.7 313.5l-34.5 47h34.5z"/>
    </g>
    <g class="st8">
        <path class="st9" d="M658.3 290.9l-51.1 69.6h51.1z"/>
    </g>
    <path class="st7" d="M76.3 316.6h2.9v26.5h-2.9z"/>
    <path transform="rotate(90 77.219 328.948)" class="st7" d="M75.8 315.7h2.9v26.5h-2.9z"/>
    <path class="st7" d="M148.1 316.6h2.9v26.5h-2.9z"/>
    <path transform="rotate(90 149.535 328.948)" class="st7" d="M148.1 315.7h2.9v26.5h-2.9z"/>
    <circle class="st6" cx="563.3" cy="47.8" r="47.8"/>
    <g class="st10">
        <path class="st11" d="M560.9 186.3v-64.4"/>
        <path class="st6" d="M557.2 186.3c0-2 1.6-3.7 3.7-3.7 2 0 3.7 1.6 3.7 3.7 0 2-1.6 3.7-3.7 3.7s-3.7-1.7-3.7-3.7zm0-20.9c0-2 1.6-3.7 3.7-3.7 2 0 3.7 1.6 3.7 3.7 0 2-1.6 3.7-3.7 3.7s-3.7-1.7-3.7-3.7zm0-20.9c0-2 1.6-3.7 3.7-3.7 2 0 3.7 1.6 3.7 3.7 0 2-1.6 3.7-3.7 3.7s-3.7-1.7-3.7-3.7zm0-20.9c0-2 1.6-3.7 3.7-3.7 2 0 3.7 1.6 3.7 3.7 0 2-1.6 3.7-3.7 3.7s-3.7-1.6-3.7-3.7z"/>
    </g>
    <circle class="st6" cx="333.5" cy="47.8" r="47.8"/>
    <g class="st10">
        <path class="st11" d="M331.1 186.3v-64.4"/>
        <path class="st6" d="M327.4 186.3c0-2 1.6-3.7 3.7-3.7 2 0 3.7 1.6 3.7 3.7 0 2-1.6 3.7-3.7 3.7s-3.7-1.7-3.7-3.7zm0-20.9c0-2 1.6-3.7 3.7-3.7 2 0 3.7 1.6 3.7 3.7 0 2-1.6 3.7-3.7 3.7s-3.7-1.7-3.7-3.7zm0-20.9c0-2 1.6-3.7 3.7-3.7 2 0 3.7 1.6 3.7 3.7 0 2-1.6 3.7-3.7 3.7s-3.7-1.7-3.7-3.7zm0-20.9c0-2 1.6-3.7 3.7-3.7 2 0 3.7 1.6 3.7 3.7 0 2-1.6 3.7-3.7 3.7s-3.7-1.6-3.7-3.7z"/>
    </g>
    <g>
        <circle class="st6" cx="112.5" cy="47.8" r="47.8"/>
    </g>
    <g class="st10">
        <path class="st11" d="M110.1 186.3v-64.4"/>
        <path class="st6" d="M106.5 186.3c0-2 1.6-3.7 3.6-3.7s3.7 1.6 3.7 3.7c0 2-1.6 3.7-3.7 3.7-2 0-3.6-1.7-3.6-3.7zm0-20.9c0-2 1.6-3.7 3.6-3.7s3.7 1.6 3.7 3.7c0 2-1.6 3.7-3.7 3.7-2 0-3.6-1.7-3.6-3.7zm0-20.9c0-2 1.6-3.7 3.6-3.7s3.7 1.6 3.7 3.7c0 2-1.6 3.7-3.7 3.7-2 0-3.6-1.7-3.6-3.7zm0-20.9c0-2 1.6-3.7 3.6-3.7s3.7 1.6 3.7 3.7c0 2-1.6 3.7-3.7 3.7-2 0-3.6-1.6-3.6-3.7z"/>
    </g>
    <g>
        <path class="st0" d="M113.2 37.6c3.6.4 5.4 3 5.4 5.7h-4.2c0-1.6-.8-2.6-2.3-2.6-1.2 0-2.2.6-2.2 1.9 0 1.2 1.1 1.9 2.6 2.4 3 1 6.4 2.2 6.4 5.9 0 3.4-2.3 5.4-5.7 5.8v2.8h-2.3v-2.8c-3.3-.4-5.7-2.7-5.7-6.4h4.2c0 2 1.2 3.2 2.9 3.2 1.4 0 2.4-.9 2.4-2.1 0-1.5-1.3-2-2.8-2.6-3.4-1.2-6.2-2.3-6.2-6 0-2.9 2.4-4.7 5.2-5.1v-2.8h2.3v2.7z"/>
    </g>
    <g>
        <path class="st0" d="M323.6 38.3c3.6.4 5.4 3 5.4 5.7h-4.2c0-1.6-.8-2.6-2.3-2.6-1.2 0-2.2.6-2.2 1.9 0 1.2 1.1 1.9 2.6 2.4 3 1 6.4 2.2 6.4 5.9 0 3.4-2.3 5.4-5.7 5.8v2.8h-2.3v-2.8c-3.3-.4-5.7-2.7-5.7-6.4h4.2c0 2 1.2 3.2 2.9 3.2 1.4 0 2.4-.9 2.4-2.1 0-1.5-1.3-2-2.8-2.6-3.4-1.2-6.2-2.3-6.2-6 0-2.9 2.4-4.7 5.2-5.1v-2.8h2.3v2.7z"/>
    </g>
    <g>
        <path class="st0" d="M345.8 38.3c3.6.4 5.4 3 5.4 5.7H347c0-1.6-.8-2.6-2.3-2.6-1.2 0-2.2.6-2.2 1.9 0 1.2 1.1 1.9 2.6 2.4 3 1 6.4 2.2 6.4 5.9 0 3.4-2.3 5.4-5.7 5.8v2.8h-2.3v-2.8c-3.3-.4-5.7-2.7-5.7-6.4h4.2c0 2 1.2 3.2 2.9 3.2 1.4 0 2.4-.9 2.4-2.1 0-1.5-1.3-2-2.8-2.6-3.4-1.2-6.2-2.3-6.2-6 0-2.9 2.4-4.7 5.2-5.1v-2.8h2.3v2.7z"/>
    </g>
    <g>
        <path class="st0" d="M541.9 38.3c3.6.4 5.4 3 5.4 5.7H543c0-1.6-.8-2.6-2.3-2.6-1.2 0-2.2.6-2.2 1.9 0 1.2 1.1 1.9 2.6 2.4 3 1 6.4 2.2 6.4 5.9 0 3.4-2.3 5.4-5.7 5.8v2.8h-2.3v-2.8c-3.3-.4-5.7-2.7-5.7-6.4h4.2c0 2 1.2 3.2 2.9 3.2 1.4 0 2.4-.9 2.4-2.1 0-1.5-1.3-2-2.8-2.6-3.4-1.2-6.2-2.3-6.2-6 0-2.9 2.4-4.7 5.2-5.1v-2.8h2.3v2.7z"/>
    </g>
    <g>
        <path class="st0" d="M564.8 38.3c3.6.4 5.4 3 5.4 5.7H566c0-1.6-.8-2.6-2.3-2.6-1.2 0-2.2.6-2.2 1.9 0 1.2 1.1 1.9 2.6 2.4 3 1 6.4 2.2 6.4 5.9 0 3.4-2.3 5.4-5.7 5.8v2.8h-2.3v-2.8c-3.3-.4-5.7-2.7-5.7-6.4h4.2c0 2 1.2 3.2 2.9 3.2 1.4 0 2.4-.9 2.4-2.1 0-1.5-1.3-2-2.8-2.6-3.4-1.2-6.2-2.3-6.2-6 0-2.9 2.4-4.7 5.2-5.1v-2.8h2.3v2.7z"/>
    </g>
    <g>
        <path class="st0" d="M586.7 38.3c3.6.4 5.4 3 5.4 5.7h-4.2c0-1.6-.8-2.6-2.3-2.6-1.2 0-2.2.6-2.2 1.9 0 1.2 1.1 1.9 2.6 2.4 3 1 6.4 2.2 6.4 5.9 0 3.4-2.3 5.4-5.7 5.8v2.8h-2.3v-2.8c-3.3-.4-5.7-2.7-5.7-6.4h4.2c0 2 1.2 3.2 2.9 3.2 1.4 0 2.4-.9 2.4-2.1 0-1.5-1.3-2-2.8-2.6-3.4-1.2-6.2-2.3-6.2-6 0-2.9 2.4-4.7 5.2-5.1v-2.8h2.3v2.7z"/>
    </g>
</svg>
