<svg id="Layer_1" xmlns="http://www.w3.org/2000/svg" viewBox="0 0 710 517.1">
    <style>
        .st0{fill:#ffad97}.st1{fill:#ffb3b3}.st2{fill:#f4ede9}.st3{fill:#ff394c}.st4{fill:#afbddf}.st5{fill:#fc445f}.st6{fill:none;stroke:#29264c;stroke-width:3.9354;stroke-linecap:round;stroke-linejoin:round;stroke-miterlimit:10}.st7{opacity:.35;fill:#fcfbf8}
    </style>
    <title>
        3_1_-poker
    </title>
    <path class="st0" d="M418.2 141.6c.5-.1.9-.2 1.4-.3 9.6-2 19.3 3.7 22.1 13.3 1.7 5.9.4 12-3 16.5-1 1.3-1 3-.1 4.4 1 1.5 1.7 3.1 2.2 4.9 2.3 8.1-1 16.4-7.5 20.9-1.3.9-1.4 2.7-.3 3.8 2.5 2.3 4.3 5.2 5.3 8.6 3 10.3-3.3 21.2-13.9 23.7-9.6 2.3-19.7-3.5-22.5-13-2.8-9.3 1.9-18.9 10.5-22.7-3.8-2.4-6.7-6.1-8.1-10.8-2-6.9.1-13.9 4.8-18.7-1.8-2-3.2-4.5-3.9-7.2-1.9-6.7 0-13.7 4.6-18.4-.4.1-.7.3-1.1.4-10.1 2.9-20.5-2.9-23.4-13-3-10.3 3.3-21.2 13.8-23.7 9.8-2.3 19.9 3.7 22.6 13.4 1.7 6.1.2 12.4-3.6 17l-.9 1.2 1-.3z"/>
    <path class="st1" d="M409.9 227.7l-95.2-81.2-23.4 6.1c-24.5 14.9-38.1 19.4-54 34.4-6.8 6.4-8.9 7.9-16.5 19.8-17.6 27.5-3.1 82.9 2.5 120.4 1.2 8-.5 16.9-3.5 25.7 10.6 9.5 17.5 22.3 24.3 35 1.8 1.8 3.6 3.7 5.3 5.6 3.9 4.4 7 9.3 10.9 13.6 7.6 8.3 16.3 15.1 20.4 26 .2.4.3.9.3 1.3 2.6 2.7 5.1 5.6 7.5 8.5l-4.8-5.6c4.4 1.8 2.9 9.3 5.8 5.5 10.5-13.6 37-34.3 46-42.5 17.3-15.7 22-27.7 32.3-46.4 11.5-20.8 10.6-44.2 10.2-59.5-.4-15.3-3.4-25.1 4.3-35 7.6-9.9 27.6-31.7 27.6-31.7z"/>
    <path class="st2" d="M445.1 285.1l-148 4.7c-4.9.2-9-3.7-9.2-8.6L280.1 34c-.2-4.9 3.7-9 8.6-9.2l148-4.7c4.9-.2 9 3.7 9.2 8.6l7.8 247.2c.2 5-3.7 9.1-8.6 9.2z"/>
    <path class="st3" d="M293.9 52.9l-.8-2.3-5.3.2-.6 2.3-1.8.1 4-15h1.2l5 14.7h-1.7zm-3.7-11.6l-1.9 7.7 4.2-.1-2.3-7.6zM291.6 76.5l-.3-.2c-.3-.2-6.6-4.6-6.7-8.8-.1-3 1.7-4.6 3.5-4.7 1.2 0 2.3.6 3.1 1.6.7-1.1 1.8-1.8 3-1.8 1.8-.1 3.7 1.4 3.8 4.4.1 4.2-5.9 9-6.1 9.2l-.3.3z"/>
    <path class="st2" d="M465.3 289.1l-145.8-25.9c-4.8-.9-8-5.5-7.2-10.3L355.6 9.4c.9-4.8 5.5-8 10.3-7.2l145.8 25.9c4.8.9 8 5.5 7.2 10.3L475.6 282c-.9 4.8-5.5 8-10.3 7.1z"/>
    <path class="st4" d="M386.8 94.2l12.5 6.1-10.7 22.4-26.3 36.7-14.3 5.2 11.5-60.5c7.4-5.9 17.9-9.5 27.3-9.9"/>
    <path d="M458.6 268.4l-.6-.1-124.4-22.1.1-.6 39.4-221.5.6.1 124.4 22.1-.1.6-39.4 221.5zm-123.7-23.2L457.6 267l39.1-219.8-122.6-21.8-39.2 219.8z"/>
    <path class="st3" d="M361.1 23.1l-1.2 6.7-1.7-.3 2.6-14.7 1.7.3-1.2 6.7 6.6-5.7 2.1.4-7.2 6.3 4.6 8.4-2.1-.4-4.2-7.7zM358.1 53.3l-.3-.3c-.2-.2-5.5-5.9-4.7-10 .5-2.9 2.6-4.2 4.4-3.8 1.2.2 2.1 1 2.7 2.2 1-.9 2.1-1.4 3.3-1.1 1.8.3 3.4 2.2 2.8 5.1-.7 4.1-7.6 7.6-7.9 7.8l-.3.1zM388.7 64.5l-.5-.6c-.4-.5-11-11.9-9.5-20.3 1.1-5.9 5.3-8.3 9-7.7 2.3.4 4.3 2.1 5.4 4.5 1.9-1.9 4.3-2.7 6.7-2.3 3.6.7 6.8 4.4 5.7 10.3-1.5 8.3-15.4 15.3-16 15.6l-.8.5z"/>
    <path d="M359.7 104.6l-.7-.9c7.5-5.9 16.8-9.5 26.4-9.9l.1 1.1c-9.3.4-18.5 3.9-25.8 9.7z"/>
    <g>
        <path class="st2" d="M459.8 305.8L322.2 251c-4.6-1.8-6.8-7-5-11.5L408.8 9.7c1.8-4.6 7-6.8 11.5-5l137.6 54.8c4.6 1.8 6.8 7 5 11.5l-91.5 229.8c-1.8 4.6-7 6.9-11.6 5z"/>
        <path class="st3" d="M413.9 32.5l.2-2.4-4.9-2-1.5 1.9-1.7-.7 9.7-12.2 1.1.5-1.3 15.5-1.6-.6zm1.2-12.1l-4.8 6.3 3.9 1.6.9-7.9zM402.3 53.3l-.2-.3c-.2-.3-4.2-6.9-2.6-10.8 1.1-2.8 3.4-3.5 5.1-2.9 1.1.4 1.9 1.4 2.2 2.7 1.1-.7 2.4-.9 3.5-.5 1.7.7 2.9 2.8 1.7 5.6-1.6 3.9-9 5.9-9.3 6l-.4.2z"/>
    </g>
    <g>
        <path class="st2" d="M452.7 335.4l-121.3-85c-4-2.8-5-8.4-2.2-12.4l142-202.5c2.8-4 8.4-5 12.4-2.2l121.3 85c4 2.8 5 8.4 2.2 12.4L465 333.3c-2.8 4-8.3 4.9-12.3 2.1z"/>
        <path class="st4" d="M459 130l8.9 10.7-19 16-39.1 22.7-10.5-6.9 31.8-44.4c9.3-2.3 19.1-1.7 27.9 1.9"/>
        <path d="M455.3 313.8l-.5-.3-103.5-72.6.3-.5L480.9 56.2l.5.3 103.5 72.6-.3.5-129.3 184.2zM353 240.6l102.1 71.6 128.2-182.8-102.1-71.6L353 240.6z"/>
        <path class="st3" d="M470.4 50.2l-3.9 5.5-1.4-1 8.5-12.2 1.4 1-3.9 5.5 8.4-2.4 1.8 1.2-9.2 2.7.6 9.5-1.8-1.2-.5-8.6zM454.9 76.4l-.1-.4c-.1-.3-2.5-7.7-.1-11.1 1.7-2.4 4.1-2.7 5.6-1.6 1 .7 1.5 1.8 1.5 3.1 1.3-.4 2.5-.3 3.5.4 1.5 1.1 2.1 3.4.4 5.8-2.4 3.4-10.1 3.7-10.5 3.7l-.3.1zM474.4 104.3l-.2-.7c-.2-.6-5-15.4-.1-22.4 3.5-4.9 8.3-5.4 11.3-3.2 1.9 1.4 3 3.7 3.1 6.3 2.5-.9 5.1-.6 7 .7 3 2.1 4.3 6.8.8 11.8-4.9 6.9-20.4 7.5-21.1 7.5h-.8z"/>
    </g>
    <g>
        <path d="M470.4 133.9c-3.3 0-6.5-1.3-9.6-2.5l-2.4-.9c-8.7-3.2-18.5-3.7-27.4-1.2l-.3-1.1c9.2-2.5 19.2-2.1 28.1 1.3l2.4.9c3.6 1.5 7.4 3 11.1 2.3l.2 1.1c-.7 0-1.4.1-2.1.1z"/>
    </g>
    <g>
        <path class="st2" d="M410 368.8l-97.7-111.3c-3.2-3.7-2.9-9.3.8-12.5L498.9 81.8c3.7-3.2 9.3-2.9 12.5.8l97.7 111.3c3.2 3.7 2.9 9.3-.8 12.5L422.5 369.6c-3.7 3.3-9.3 2.9-12.5-.8z"/>
        <path class="st5" d="M493.1 104.4l1.3-2-3.5-4-2.2 1-1.2-1.3 14.1-6.4.8.9-8.2 13.2-1.1-1.4zm6.6-10.2l-7.2 3.5 2.8 3.2 4.4-6.7z"/>
        <path class="st3" d="M473.4 117.7v-.4c0-.3-.6-8 2.6-10.8 2.2-2 4.6-1.6 5.9-.2.8.9 1 2.1.7 3.4 1.3-.1 2.5.3 3.3 1.2 1.2 1.4 1.3 3.8-1 5.8-3.2 2.8-10.7 1.2-11 1.1l-.5-.1zM443.6 237.9l-.1-1.6c-.1-1.4-2.5-33.8 10.7-45.4 9.4-8.3 19.5-6.7 24.6-.9 3.3 3.7 4.3 8.9 3.1 14.4 5.6-.5 10.6 1.2 13.8 4.9 5.1 5.8 5.3 16-4.1 24.3-13.3 11.6-45.1 5.1-46.4 4.8l-1.6-.5zM423.9 340l-1.3 2 3.5 4 2.2-1 1.2 1.3-14.1 6.4-.8-.9 8.2-13.2 1.1 1.4zm-6.7 10.2l7.2-3.5-2.8-3.2-4.4 6.7zM443.6 326.7v.4c0 .3.6 8-2.6 10.8-2.2 2-4.6 1.6-5.9.2-.8-.9-1-2.1-.7-3.4-1.3.1-2.5-.3-3.3-1.2-1.2-1.4-1.3-3.8 1-5.8 3.2-2.8 10.7-1.2 11-1.1l.5.1z"/>
    </g>
    <path class="st6" d="M270 513.1c30-65.1 33.8-55 10.9-80.6-5-5.6-12.1-14.3-16.7-20.3-15.9-20.4-29.4-42-45.6-63-2.7-3.5-7.5-4.5-11.4-2.4l-6.5 3.5C155 374.7 140.2 389.8 94.1 419"/>
    <path class="st1" d="M402.7 185.2c-12.5-17.4-27.3-4.1-43.3 3-12.7 5.6-18.9 9.7-41.3 19.8-13.5 6.1-23.9 8.2-32.4 9.2l-57.4 8.3 26.4 133.1s20.9-4.1 34.5-13.9l1.9 10.8s35.4.3 30-20.1c-2.4-9.1-1.5-18.5.2-26l10.6 9.9s27.8-7.5 15.3-21.8c-12.2-13.9-3.5-26-3-26.7 9.9-11.2 20.2-21 25.6-24.6 21.2-14.1 45.4-43.6 32.9-61z"/>
    <path class="st7" d="M365.4 185.2s2.5-1.2 14.3-6.8c6.4-3 11.3-2.2 14.5-.8 2.7 1.2 3.8 4.3 2.5 7-3.1 6.2-8.8 10.8-15.1 12-7.4 1.4-15.3-2-20-8.5-.3-.4-.1-.9.3-1.2l3.5-1.7z"/>
</svg>
