<svg id="Layer_1" xmlns="http://www.w3.org/2000/svg" xmlns:xlink="http://www.w3.org/1999/xlink" viewBox="0 0 710 443.8">
    <style>
        .st0{fill:#797499}.st1{fill:#e59880}.st2{fill-rule:evenodd;clip-rule:evenodd;fill:#fcfbf8}.st3{fill:#0b0146}.st4{fill:#ffb3b3}.st5{fill:#2a337e}.st6{fill:#8a6d96}.st7{fill:#ffca5f}.st8{fill:#e15fbd}.st9{fill:#ff99d1}.st10{fill:#8a8fb8}.st11{fill:#7d479a}.st12{fill:#ffbb74}.st13{fill:#b3b3e5}.st14{fill:#131335}.st15{fill:#d0d0f4}.st16{fill:#9494d3}.st17{fill:#e9e8f0}.st18{fill:#94c0ff}.st19{fill:#fcfbf8}.st20{fill:#a3a2cf}.st21{fill:#4747a1}.st22{fill:#d3716c}.st23,.st24{clip-path:url(#SVGID_2_);fill:#d0d0f4}.st24{fill:#0b0146}.st25{fill:#f14b37}.st26{fill:#6164a5}.st27{fill:#898db3}.st28{fill:#2c5777}.st29{fill:#2c6b7a}
    </style>
    <path class="st0" d="M104.9 361.7c-35 .3-54.2.6-89.2 1-4.2 0-8.5.1-13 .3-1.3.1-1.3 1.7 0 1.8 20.9.4 42.2.7 63.4.7 16.5 0 32.9-.1 49-.5l9.8-.4c.7 0 1.3-.5 1.3-1.1 0-.6-.6-1.1-1.3-1.1l-20-.7"/>
    <path class="st1" d="M105.4 348.7l-20.6 3.2c.3-7-.8-13.9-3.1-20.5l-.1-.1 20.6-3.2v2.6c0 6.1 1.1 12.2 3.2 18zM40.3 356.1l-18.7-2.8c2.7-7 3.9-14.4 3.7-21.9v-.2l24.5 4.1-9.5 20.8z"/>
    <path class="st2" d="M102.7 342.2c.6-.3 1.3-.7 1.9-1 2.1-1 5.5-.9 7.6.2 7.7 4.2 20.1 3.1 21.6 10.9.4 2.3 1.5 4.1-.9 4.5l-1.4.4c-15.2 4-30.7 6.9-46.3 8.5-2.2.4-2.5-1.3-2.9-3.5-.6-3.1-.8-6.2-.6-9.3l.3-4.6c.1-2 1.7-3.5 3.6-3.7l5.3.2c4.1.4 8.2-.6 11.8-2.6z"/>
    <path class="st3" d="M133.2 166.7l-2.1-.9c-.3-.1-.5-.5-.4-.9l7.2-17.7c.1-.3.5-.5.9-.4l2.1.9c.3.1.5.5.4.9l-7.2 17.7c-.1.4-.5.6-.9.4"/>
    <path class="st4" d="M126.7 160.4c-3.3.3-6.2 1.7-8.4 3.7-2.8 2.5-6.2 4.1-9.9 4.5l-7 .7 1.7 17.1 10.8-1.1c1.6-.2 3.3.3 4.6 1.3 3 2.3 6.9 3.3 11.1 3.5 9.8.5 10.5-7.7 12-15.8 1.9-9.8-6.7-14.8-14.9-13.9"/>
    <path class="st5" d="M51.4 343.7l-25.8-2.1c-4.2-.3-9.6-.4-6.9-8.3l24-79.3c.4-5.5-.1-11.1-1.5-16.4-3.1-11.6-1.8-23.9 3.6-34.5l2.3-4.6 31.9 2 3.8 2.1c-1.4 12.3-1.4 23.4-2.5 35.7-2.9 32.4-19.2 64.3-22.4 96.8v1.5c-.5 8.6-1 7.3-6.5 7.1"/>
    <path class="st3" d="M79.1 200.5l-20.9-1.3c-1.1 10.7-1.5 21.5-1.3 32.3.4 19.8 2.3 39.5 3.5 59.2.5 8.2.7 16.4.9 24.6 5.9-25.7 16.7-51.2 19-77 1.1-12.3 1.1-23.4 2.5-35.7l-3.7-2.1"/>
    <path class="st5" d="M107.7 337l-26.6 4.2c-7.2.8-7.1 1.7-7.8-7.1l-5.6-73.4c-.3-5.4-5.9-12.3-8-17.3-4.5-10.7-7-25.7-3-36.6l1.7-4.7 22.4-6.8.8 2c.9 5.2 1.5 10.4 1.9 15.7 6.8 42.8 20.2 70.1 28.6 117.7l.2 1.5c.3 4.1 1.5 3.7-4.6 4.8"/>
    <path class="st2" d="M42.1 346.5c.6-.2 1.3-.4 2-.6 2.2-.5 5.3.1 7.1 1.5 6.5 5.2 18.4 6.4 18.4 14 0 2.3.7 4.1-1.6 4.1l-1.4.1c-14.9 1.1-29.9 1.1-44.9-.1-2.1 0-2.1-1.6-2.1-3.7 0-3 .4-5.9 1.1-8.8l1-4.2c.4-1.8 2.2-3 4-2.8l4.9 1.1c3.8.8 7.8.6 11.5-.6z"/>
    <path class="st4" d="M91.1 107.9C84.9 127 73 128 60 123.9c-13-4.2-20.1-18.1-16-31 4.2-13 18.1-20.1 31-16 13.1 4.1 20.2 18 16.1 31"/>
    <path class="st6" d="M59.6 107.9l-4 8.7 1.2 3.4c1.6-.4 3.3-.6 5.1-.6h6.5c-2.1-5.1 2.3-9.8 2.3-9.8l-11.1-1.7"/>
    <path class="st3" d="M60.8 119.7c-4.5 2.4-10 1.6-13.5-2-7.4-7.7-9.5-19.7-4.7-29.9 6.2-13 21.8-18.5 34.8-12.3 8.9 4.2 14.1 11.3 15.4 19.6.6 3.7-7.9 8.8-17 12.5-6.3 2.6-10.5 9.7-15 12.1z"/>
    <path class="st3" d="M56.7 75.1c-1.4-1.5-3-2.8-4.8-3.6-4.8-2.1-10.7-.6-14.7 2.8-4.1 3.3-6.6 8.2-8.3 13.1-1.8 4.9-2.9 10.1-4.9 15-2.1 5.3-5.2 10.2-8.2 15 8.6 1.2 17-4.8 20.8-12.5 1.4-2.9 2.3-6 3.6-9 3.3-8 9.4-14.8 16.9-19.1l-.4-1.7z"/>
    <path class="st7" d="M49.9 78.4c-.5-.6-.3-1.5.3-1.9l4.1-3.1c.6-.5 1.5-.3 1.9.3.5.6.3 1.5-.3 1.9l-4.1 3.1c-.6.4-1.5.3-1.9-.3"/>
    <path class="st8" d="M85.4 198.4l29.7-7.3c.3-.1.6-.4.6-.8l-1.2-23.3c0-.5-.5-.8-.9-.7l-15.9 3.5c-2.1.5-4.2-.8-4.8-2.9l-5.7-21.3c-.7-2.5-1.2-5-1.8-7.4-2.5-10.9-7.4-18.9-18.5-18.9h-5c-11.9 0-19.2 9.7-19.2 21.6l.3 62.2c0 .5.4.8.9.7h.1c16.1-.6 23.2 1.1 35.9 1.3l4.5.1c1 0 .7-.8.6-1.8l-.1-4.4c-.1-.2.1-.5.5-.6"/>
    <path class="st9" d="M71.9 120.6c2.5 1.2 4.9 2.9 6.6 5 1.6 1.9 3.3 3.9 4.7 6-2.7-6.6-7-11.3-14.2-12 1 .2 1.9.5 2.9 1z"/>
    <path class="st10" d="M82.7 205.3c0 .1 0 .1 0 0 .4.1.8.1 1.3 0h-1.3m2.3-6.7c-.2.1-.2.3-.2.6l.1 4.1c.1-1.5.1-3.3.1-4.7"/>
    <path class="st5" d="M61.9 204.2l1.5 1.2c5.3.1 8.1.2 11.1.2 2.3 0 4.6-.1 8.2-.2v-.1l-2.9-.1c-6.8-.1-12-.6-17.9-1"/>
    <path class="st10" d="M84.6 205.3h-.1.1m.4-.9c0 .4 0 .6-.1.8.2-.2.1-.5.1-.8"/>
    <path class="st11" d="M53.8 143l.2 9.8c.3 4-.4 18.2-1.2 29.5-.6 8.4 2.8 16.5 9.1 22 5.9.4 11.1.9 17.9 1l2.9.1H84.6c.1 0 .1-.1.2-.1.2-.2.2-.5.1-.8 0-.3-.1-.5-.1-.7v-.4l-.1-4.1c0-.2.1-.4.2-.6v-.2c-8.4-.3-18-4.5-21.5-12.1-1.1-2.4-1.7-4.9-2.2-7.5-2.3-10.7-5-25.3-7.4-35.9"/>
    <path class="st12" d="M357.9 45.4c0 25.1-20.3 45.4-45.3 45.4-25 0-45.3-20.3-45.3-45.4 0-25.1 20.3-45.4 45.3-45.4 25 0 45.3 20.3 45.3 45.4"/>
    <path class="st13" d="M413.6 86.3c-8-6.8-17.3-10.1-27.3-6.4-7.4 2.7-10.4 7.4-18.5 3.3-6.3-3.2-9.7-10.7-15.6-14.6-12.4-8.3-25.9-5-36.2 5-12.8 12.4-22 14.4-35.5.8-10-10.1-17.1-23.2-31.2-27.4-16.2-5-27.3 2-35.4 16.6-10.2 18.3-14.6 20.3-34.5 18.3-18.6-1.8-15.7 7.6-27.6 9.6-7.4 1.2-12.8 2.7-17 4.9-1.1.6-.5 1.9.8 1.9h302c1.1 0 1.3-1.1.4-1.4-15.1-4.5-20.1-7.4-24.4-10.6zM321.4 44.6c3.3-1.2 6.3-3.1 8.9-5.5 3.5-3.2 7.5-7.4 9.3-8.6 6.2-4.1 12.9-2.5 18.1 2.5 6.4 6.2 11 7.2 17.8.4 5-5.1 8.5-11.6 15.6-13.7 8.1-2.4 13.6 1.1 17.7 8.3 5.1 9.1 7.3 10.1 17.3 9.2 9.3-.9 7.8 3.8 13.8 4.8 3.7.6 6.4 1.3 8.5 2.5.6.3.3 1-.4 1H321.6c-.5-.1-.6-.8-.2-.9z"/>
    <path class="st14" d="M306.9 274.6h-1.5c-2.8-.1-7.4-.3-9.2-.4h-.7c-1.6-.1-3.1.2-4.6.6-3.7 5.6-7.7 14.3-11 27.9-.7 3-1.7 5.6-2.7 8-.6 1.2-1.3 2.4-2.2 3.4 2.1 9.9 7.8 16.9 15.3 17.5 0 0 11.1.9 13.8 1.1.3 0 .7.1 1 .1 8.2.3 15.4-7.5 18.4-18.7.8-3.1 1.3-6.4 1.5-9.9.3-15.9-7.7-29.2-18.1-29.6zm-1.6 46.8c-.2 0-.4 0-.6-.1-6-.7-10.5-8.6-10.2-18 .3-7.8 3.7-14.3 8.3-16.5.9-.4 1.8-.7 2.8-.8h.9c6.3.2 11.2 8.3 10.9 18.1-.4 9.8-5.8 17.6-12.1 17.3z"/>
    <path class="st15" d="M542.5 197.6c-7.5-20.6-34.6-68.2-141.5-52-20.4 3.1-37.1 6.4-56.5 13.5-32.7 11.9-56.1 33.8-75.8 71.9-18.1 35.1-19 52.5-18.8 68.8 0 0-.5 21.9 32.1 23.5 32.6 1.5 67.6 10.2 130 .5 59.5-9.2 130.9-19.8 137.4-20.8.2 0 .3 0 .5-.1 28.1-4.4.1-84.7-7.4-105.3"/>
    <path class="st16" d="M442.4 278.6c-.3-.6-.5-1.3-.8-1.9-7.3-15.9-28.6-18.2-38.3-3.6-.1.1-1.7 3-1.8 3.1 1.8-.5 5.7-4.5 7.5-4.5h.9c2.1.1 7.4.3 10.7.4.6-.1 1.2-.1 1.8-.1 12.2.4 21.6 16 20.9 34.8-.1 4.1-.7 7.9-1.7 11.5l.5-.1c2.6-5.2 8-20.9.3-39.6z"/>
    <path class="st14" d="M422.5 272.2h-2.3c-3.3-.1-8.3-.4-10.3-.4h-1c-3.1-.1-6 1.6-7.5 4.3-3.7 6.5-7.5 15.8-10.8 29-.9 3.5-2 6.6-3.2 9.3-.2.4-.4.8-.7 1.2-1.3 2.2-1.6 4.8-.8 7.1 3 9.2 9 15.4 16.7 16.1 0 0 13 1.1 16.1 1.4.4 0 .8.1 1.2.1 9.6.3 18.1-8.7 21.6-21.8 1-3.6 1.6-7.5 1.7-11.5.9-18.7-8.5-34.3-20.7-34.8zm-1.9 54.8c-.3 0-.5 0-.7-.1-7-.9-12.3-10.1-11.9-21.1.3-9.1 4.4-16.7 9.8-19.3 1-.5 2.1-.8 3.3-.9h1.1c7.4.3 13.1 9.8 12.7 21.2s-6.9 20.5-14.3 20.2z"/>
    <path class="st17" d="M434.7 306.8c.4-11.4-5.3-20.9-12.7-21.2h-1.1c-1.1.1-2.2.4-3.3.9-5.4 2.6-9.5 10.2-9.8 19.3-.4 11 4.9 20.3 11.9 21.1.2 0 .5.1.7.1 7.6.3 13.9-8.8 14.3-20.2z"/>
    <path class="st16" d="M556.5 269.6c-7.4-18.1-21.1-14.5-21.1-14.5s-4.9.8-10.6 9.5c1.4-.4 2.9-.7 4.4-.6h.7c1.7.1 6.1.3 8.8.4.5 0 1-.1 1.5 0 10 .3 17.6 13.1 17.1 28.4-.1 3.3-.6 6.5-1.4 9.4h.4c2-4.6 6.4-17.4.2-32.6z"/>
    <path class="st14" d="M540.2 264.4c-.5 0-2.3-.2-2.8-.1-2.7-.1-5.8-.1-7.5-.2h-.7c-1.5-.1-3 .2-4.4.6-3.5 5.3-7.3 13.7-10.5 26.6-.7 2.9-1.6 5.4-2.6 7.6-.5 1.2-1.3 2.3-2.1 3.2 2 9.4 7.4 16.1 14.6 16.7 0 0 10.6.9 13.2 1.1.3 0 .7.1 1 .1 7.8.3 14.7-7.2 17.6-17.8.8-2.9 1.3-6.1 1.4-9.4.4-15.4-7.3-28.1-17.2-28.4zm-1.5 44.7h-.6c-5.7-.7-10.1-8.2-9.8-17.2.2-7.4 3.6-13.6 8-15.7.9-.4 1.7-.7 2.7-.8h.9c6 .2 10.7 7.9 10.4 17.3-.4 9.2-5.6 16.6-11.6 16.4z"/>
    <path class="st17" d="M550.2 292.5c.3-9.3-4.3-17.1-10.4-17.3h-.9c-.9.1-1.8.3-2.7.8-4.4 2.1-7.7 8.3-8 15.7-.3 9 4 16.5 9.8 17.2h.6c6.1.4 11.3-7 11.6-16.4z"/>
    <path class="st18" d="M279.8 219.2c21.8 1.4 50 4.6 95.8 2.9 3.2-.1 6.1-1.6 7.8-3.9 19.6-25.6 21.2-27 32.9-43 5.4-7.3.3-9.5-5.6-9.9-33.2-2.1-51.2-1.7-65-1.3-3.5.1-6.9.7-10.1 1.8l-.2.1c-26.5 10.5-40.1 31-56 52.5-.3.3 0 .7.4.8z"/>
    <path class="st14" d="M375.6 222.4l-3-.4c.5-3.9-.5-7.7-2.6-10.8-2.1-3-5.1-4.8-8.5-5.2-3.4-.4-6.7.7-9.5 3.1-2.8 2.5-4.6 6-5 9.9-.1.7-.1 1.5-.1 2.2l-3.1.1c0-.9 0-1.8.1-2.6.5-4.7 2.7-8.8 6-11.8 3.4-3 7.6-4.4 11.9-3.9 4.3.5 8 2.8 10.6 6.5 2.6 3.6 3.8 8.2 3.2 12.9z"/>
    <path class="st13" d="M443.8 218.7s2.2 41.5 3 55.4c.9 13.9.4 29.6 20.7 27.4 20.4-2.2 47.5 1.5 50.6-46.1 2.8-43.2-1.5-51.3-1.5-51.3L454 207l-10.2 11.7"/>
    <path class="st18" d="M443.8 218.8c0 .9 74.7-4.4 74.7-4.4s-2.1-50.6-39.7-50.7c-37.6-.1-34.9 24.5-35 55.1z"/>
    <path class="st19" d="M352.4 247.5c-5.8-1.8-10.8 2-13.5 9l-2.3 9.4c-1.6 6.8 1.7 13.7 7.5 15.4 5.8 1.8 11.8-2.3 13.5-9l2.3-9.4c1.7-6.7-1.7-13.6-7.5-15.4zM279.3 244.8c-5.2-1.8-9.8 1.4-12.5 7.6l-2.4 8.4c-1.7 6 1 12.3 6.2 14.1 5.2 1.8 10.7-1.6 12.5-7.6l2.4-8.4c1.7-5.9-1-12.3-6.2-14.1z"/>
    <path class="st20" d="M383.5 327l10.3-.8"/>
    <path class="st21" d="M518.5 214.5l-74.7-3.8-.1 4.1v2.5l.3 4.8 42.9-4.4 31.6-3.2zM282.6 214c-1.2 1.6-2.5 3.2-3.7 4.8-.2.3 0 .7.5.8 21.9 1.4 48.5 4.6 96.2 2.9 3.2-.1 6.1-1.6 7.8-3.9.7-.9 1.3-1.7 1.9-2.5L282.6 214z"/>
    <ellipse transform="matrix(.00935 -1 1 .00935 21.758 582.534)" class="st14" cx="304.9" cy="280.3" rx="5.1" ry="4.3"/>
    <path class="st22" d="M488.6 185.9c3.2-7.6 11.9-11.1 19.5-7.8 7.1 3.1 10.6 11.4 7.9 18.6-2.3 6.3-8.5 10-14.8 9.6l-2.4 5.7-10-4.2 1.4-3.3c.5-1.3.3-2.8-.6-3.8-3-3.2-3.9-7.8-1-14.8"/>
    <path class="st3" d="M493.6 179.1c3.3-3.6 9.6-3.9 14.7-1.8 7.5 3.1 10.8 12.3 7.7 19.8-2.8 6.8-9.8 10.5-16.6 8.9-.3-.1-.2.3-.1.6.2.6.4 1.2-1.2-.5-1-.7-1.3-1.7-1.1-3 1.2-7 4.1-10.1 1.4-12.7-2.7-2.7-4.7-6.1-5.1-10.5-.1-.1 0-.4.3-.8"/>
    <defs>
        <path id="SVGID_1_" d="M513.8 176.7h9.4v9.4h-9.4v-9.4"/>
    </defs>
    <clipPath id="SVGID_2_">
        <use xlink:href="#SVGID_1_" overflow="visible"/>
    </clipPath>
    <path class="st23" d="M522.8 183.2c0 .1 0 0 0 0m-8.6-3.7s0 .1 0 0v.1-.1m6.1-2.4"/>
    <path class="st24" d="M518.6 176.7h-.1c-1.8 0-3.5 1.1-4.3 2.8v.1c-.2.6-.3 1.2-.3 1.7v.1c.9 1.2 1.7 2.5 2.2 3.9l.6.3c.6.2 1.2.4 1.8.4 1.8 0 3.6-1.1 4.3-2.8v-.1c.2-.6.3-1.2.3-1.7 0-1.8-1.1-3.6-2.9-4.3-.5-.3-1.1-.4-1.6-.4"/>
    <path class="st24" d="M513.8 181.5c0 1.6.9 3 2.2 3.9-.5-1.4-1.3-2.7-2.2-3.9"/>
    <path class="st25" d="M513.8 181.1c.3-.2.7-.1.8.2l2.2 3.8c.2.3.1.7-.2.8-.3.2-.7.1-.8-.2l-2.2-3.8c-.2-.3-.1-.7.2-.8"/>
    <path class="st19" d="M501.7 231.1l3.5-11.9c0-.1.1-.3.1-.4v-.2c.2-1 .4-1.7.5-2 1.4-5.2-1.1-8.9-5.9-10.9-1-.4-2.1-.7-3.2-.7-1.3 0-2.5-.4-3.5-1.1l-2.2-1.6c-.1-.1-.3-.2-.5-.3-3.8-2-21.7 26.7-23.5 30.5l-2.1 5.1c-.3.5-.2 1 .2 1.4l.1.1.7.6c6.3 5.6 14.7 9.2 23.1 10.7.5.1 1-.2 1.2-.7l6.1-20.2 5.4 1.6"/>
    <path class="st26" d="M479.5 247.6c-.1.1-.1.2-.2.4-.7 1.1-1.4 2.2-2 3.4-.4.9-.9 1.8-1.6 2.6-.8 1-1.3 2.2-1.8 3.4-.8 2.4-2.5 4.5-3.1 7.2l-.7 3.3s16.1-14.6 16.2-14.7c0 0 .5-1.3 1.2-3.1-2.6-.6-5.3-1.4-8-2.5"/>
    <path class="st27" d="M486.6 226.4l-1 5.2c-.8 4-2.1 5.9-4.4 11.3-.6 1.3-.9 3.3-1.7 4.8 2.6 1 5.4 1.8 8.1 2.4 1.9-4.9 5.5-14 5.4-14.1-.1-.1-3-8.6-3-8.6l-3.4-1"/>
    <path class="st22" d="M496.8 204.5s-2.6 1.2-6.5-2.6c1.5-3.5 3.7-3.6 3.7-3.6l1.9 2.5.9 3.7z"/>
    <path class="st19" d="M505.5 218c-1.6 4.7-7.2 5.4-12.1 3.4-4.9-2-7.3-7.4-5.3-12 1.9-4.6 7.4-6.7 12.3-4.6 4.8 2 7.1 7.5 5.1 13.2z"/>
    <path class="st13" d="M469.3 219.6c1.4 0 47.1-4.3 47.1-4.3l-6.7 40.9-23.3 16.7s-20.9.3-21.6-.3-13.3-20.4-12.7-21.5c.5-1.1 7-25.2 7-25.2l10.2-6.3z"/>
    <path class="st15" d="M504.5 175.4s10.7 13.3 12.5 27.9c1.8 14.6 11.5 8.6 11.7 8 .1-.6.4-26.5.4-26.5l-5.1-8-9.9-7-9.6 5.6z"/>
    <path class="st3" d="M489.7 187.9c-.6 1.5.5 3 2.1 3.1.6 0 .6-.9 0-.9-1.1 0-1.6-1-1.3-2 .2-.5-.6-.7-.8-.2z"/>
    <path class="st28" d="M558.2 443.8c2-20.3-.2-56.9-6.7-76.2-3.1-9.2-7.7-18.6-16.2-23.2-12.6-6.8-28.7.2-38.5 10.7s-15.7 24-24.9 35c-14.2 17.1-35.4 27.2-57.3 31-.2 0-.4.1-.7.1-19.8 3.3-32.2-20.9-17.9-35.1 9.7-9.6 18.1-20.6 25-32.4 8.2-14.1 14.7-30.2 28.1-39.6 11.1-7.8 25.2-9.6 38.8-9.6 16 0 32.4 2.5 46.3 10.5 18.1 10.4 30.2 29.2 36.8 49 6.5 19.8 8.2 59.1 9.7 79.9h-22.5z"/>
    <path class="st29" d="M543.3 443.8c-2-28.3.2-72.3 6.7-99.2 3.1-12.8 7.7-26 16.2-32.4 12.6-9.4 28.7.3 38.5 14.9s15.7 33.5 24.9 48.8c14.2 23.8 35.4 38 57.3 43.3.2.1.4.1.7.2 19.8 4.7 32.2-29.2 17.9-49-9.7-13.5-18.1-28.7-25-45.2-8.2-19.7-14.7-42.2-28.1-55.3-11.1-10.8-25.2-13.5-38.8-13.4-16 0-32.4 3.5-46.3 14.6-18.1 14.5-30.2 40.7-36.8 68.4-6.5 27.7-8.2 75.3-9.7 104.3h22.5z"/>
</svg>
