<svg id="Layer_1" xmlns="http://www.w3.org/2000/svg" viewBox="0 0 710 673">
    <style>
        .st0{fill:#e29276}.st1{fill:#fff}.st2{fill:#933a49}.st3{fill:#29264c}.st4{fill:#0b0146}.st5{fill:#7a4f4c}.st6{fill:#ffbfa6}.st7{fill:#918cac}.st8{fill:#8a8aa5}.st9{fill:#723b54}.st10{fill:#8a6d77}.st11{opacity:.5;fill:#281b3a}.st12{fill:#ffc9b8}.st13{fill:#ef9a6f}.st14{fill:#4382ff}.st15{fill:#a85560}.st16{fill:#612f54}.st17{fill:#5b2e3e}
    </style>
    <title>
        3_1-odds
    </title>
    <path class="st0" d="M.1 176.9H710v145.8H.1z"/>
    <path class="st0" d="M637.7 176.9H80.9c-.2 2.4-.3 4.8-.4 7.2-1.1 28.8-5.8 94.4-14.2 138.6h209.3c10.5-10.1 20.1-21 28.1-33.1 6.7-10.1 12.1-21 17.6-31.8 3.5-6.9 7.4-18.9 11.2-28.7.4-1.1 1.4-1.6 2.4-1.6a1125202688080340200 1125202688080340200 0 0 1 2.5 95.3h304.5c-3.9-44.6-2.4-106.8-3.4-134.4-.2-4-.5-7.8-.8-11.5zm-340.1 72c-7.5 5.4-14.9 6.5-22.4 5.5.4.2.8.5 1.1.7 3.1 2.3 2.9 7.1-.5 9-10.7 6.1-34.4 19.1-60.2 19.1-25.9 0-48.2-10.7-58.9-16.8-2-1.1-2.8-3.2-2.7-5.2-1.6-1.7-2-4.4.3-6.4 16.9-14.8 37.6-23.7 60.3-24.6 5.1-.2 10.1.1 15.1.7 13.1 3.2 25 9.2 37.4 15 9.5 4.4 20.3 5.3 29.3.9 1.2-.4 2.3 1.3 1.2 2.1zm6.4-36.2c-.3 2.5-2.2 4.5-4.8 4-.6-.1-1.2-.1-1.8-.1-55.1-10.3-112.2-6.3-165.5 11.1-1.9-.4-3.4-1.3-3.7-3.1-1.3-6.3 10.2-11.8 14.4-13.9.7-.4 1.4-.7 2.1-1 5.8-2.7 12-4.6 18.2-6 41.2-8.8 83.8-10.1 125.5-3.8 4.3 1 8.9 2.4 12.1 5.3 2.1 1.9 3.9 4.6 3.5 7.5zm265.2 46.6c-6.8 3.9-13.2 4.7-19.4 3.8-.1.1-.3.2-.4.3-10.3 6.7-32 18.6-57.8 20-25.8 1.4-53-11.7-64-17.2-2.4-1.2-3.2-4.3-2.3-6.2-1.2-.3-2.3-.8-2.9-1.6-1.4-1.9-.2-5.3 2.3-7.1 18.3-13 41.3-20.5 63.9-19 5.1.3 10 1.1 14.9 2.2 12.7 4.5 23.9 11.7 35.7 18.8 3.9 2.4 8.2 4.1 12.5 5 0-.1.1-.1.1-.2v.2c5.5 1.1 11.1.9 16.4-1.1 1.3-.4 2.2 1.4 1 2.1zm17.8-46.6c-.3 2.5-2.2 4.5-4.8 4-.6-.1-1.2-.1-1.8-.1-55.1-10.3-112.2-6.3-165.5 11.1-1.9-.4-3.4-1.3-3.7-3.1-1.3-6.3 10.2-11.8 14.4-13.9.7-.4 1.4-.7 2.1-1 5.8-2.7 12-4.6 18.2-6 41.2-8.8 83.8-10.1 125.5-3.8 4.3 1 8.9 2.4 12.1 5.3 2.1 1.9 3.9 4.6 3.5 7.5zM258.1 249.6z"/>
    <path class="st0" d="M229.9 278.2l.6-.6c-1 .2-2.1.4-3.1.5.8.1 1.6.1 2.5.1z"/>
    <path class="st1" d="M264.6 249.6c-1.5-.6-3-1.2-4.6-1.8-1.1-.4-2.2-.9-3.3-1.3.4 1.8.7 3.8.7 5.7 0 12.4-8.7 22.7-20.4 25.3l-.6.6c-.8 0-1.7 0-2.5-.1-.8.1-1.7.1-2.6.1-14.4 0-26.1-11.6-26.1-25.9 0-3.6.8-7.1 2.1-10.2-.3.1-.6.1-.8.2-.7.2-1.3.3-2 .5-.3.1-.6.1-.9.2-.6.2-1.3.3-1.9.5-.3.1-.7.2-1 .3l-1.8.6c-.3.1-.7.2-1 .3l-1.8.6c-.2.1-.3.1-.5.2-1.2.4-2.4.9-3.6 1.4-.4.2-.8.3-1.3.5s-1 .4-1.4.6c-.5.2-.9.4-1.4.6-.4.2-.9.4-1.3.7-.5.2-1 .5-1.5.8l-1.2.6c-.6.3-1.2.7-1.9 1-.3.2-.5.3-.8.4-.9.5-1.7 1-2.6 1.6-.2.1-.5.3-.7.5-.6.4-1.3.8-1.9 1.3-.3.2-.6.4-.8.6-.6.4-1.2.8-1.8 1.3-.3.2-.5.4-.8.6-.6.5-1.3 1-1.9 1.5-.2.2-.4.3-.6.5l-2.4 2.1c-2.3 2-5.2 1.4-6.9-.2l-.3-.3c-.2 2 .7 4.1 2.7 5.2 10.7 6.1 33 16.8 58.9 16.8s49.6-13 60.2-19.1c3.4-1.9 3.7-6.7.5-9-.3-.3-.7-.5-1.1-.7-2.2-.3-4.5-.8-6.7-1.4-3.5-1.2-6.9-2.4-10.4-3.7z"/>
    <path class="st2" d="M231.3 278.2c.9 0 1.7 0 2.6-.1 1.1-.1 2.1-.3 3.1-.5 11.7-2.6 20.4-12.9 20.4-25.3 0-2-.3-3.9-.7-5.7-2.8-1.1-5.6-2.1-8.4-2.9-2.2-.7-4.5-1.2-6.8-1.7 2.8 2.7 4.5 6.4 4.5 10.6 0 8.1-6.6 14.7-14.8 14.7-8.2 0-14.8-6.6-14.8-14.7 0-5.1 2.6-9.6 6.6-12.3-2.4.1-4.8.2-7.2.4-2.8.3-5.7.8-8.5 1.4-1.4 3.1-2.1 6.6-2.1 10.2 0 14.3 11.7 25.9 26.1 25.9z"/>
    <path class="st3" d="M216.4 252.5c0 8.1 6.6 14.7 14.8 14.7 8.2 0 14.8-6.6 14.8-14.7 0-4.2-1.7-7.9-4.5-10.6-6.1-1.3-12.3-1.8-18.4-1.7-4.1 2.7-6.7 7.2-6.7 12.3z"/>
    <path class="st4" d="M638.4 188.4c1 27.5-.4 89.8 3.4 134.4H710V176.9h-72.3c.3 3.7.6 7.5.7 11.5zM80.9 176.9H0v145.8h66.4c8.3-44.2 13.1-109.8 14.2-138.6 0-2.4.2-4.8.3-7.2z"/>
    <path class="st5" d="M347.7 287.5l-3-57.6c-.1-1.6-1.3-2.5-2.6-2.5-1 0-1.9.5-2.4 1.6-3.8 9.9-7.7 21.9-11.2 28.7-5.5 10.8-10.9 21.7-17.6 31.8-8 12.1-17.6 23-28.1 33.1h61.7c4.2-10.6 3.8-23.3 3.2-35.1z"/>
    <path class="st4" d="M302.8 247c-9 4.4-19.8 3.5-29.3-.9-12.4-5.8-24.3-11.8-37.4-15-5-.6-10-.9-15.1-.7-22.6.9-43.4 9.7-60.3 24.6-2.3 2-1.9 4.7-.3 6.4l.3.3c1.8 1.6 4.6 2.3 6.9.2l2.4-2.1c.2-.2.4-.3.6-.5.6-.5 1.2-1 1.9-1.5.3-.2.5-.4.8-.6.6-.4 1.2-.9 1.8-1.3.3-.2.6-.4.8-.6.6-.4 1.3-.9 1.9-1.3.2-.2.5-.3.7-.5.9-.5 1.7-1.1 2.6-1.6.3-.2.5-.3.8-.4.6-.4 1.2-.7 1.9-1l1.2-.6c.5-.3 1-.5 1.5-.8.4-.2.9-.4 1.3-.7.5-.2.9-.4 1.4-.6.5-.2 1-.4 1.4-.6.4-.2.8-.4 1.3-.5 1.2-.5 2.4-1 3.6-1.4.2-.1.3-.1.5-.2l1.8-.6c.3-.1.7-.2 1-.3l1.8-.6c.3-.1.7-.2 1-.3.6-.2 1.3-.3 1.9-.5.3-.1.6-.1.9-.2.7-.2 1.3-.3 2-.5.3-.1.6-.1.8-.2 2.8-.6 5.6-1.1 8.5-1.4 2.4-.3 4.8-.4 7.2-.4 6.1-.1 12.3.4 18.4 1.7 2.3.5 4.5 1 6.8 1.7 2.8.8 5.6 1.8 8.4 2.9 1.1.4 2.2.9 3.3 1.3 1.5.6 3 1.2 4.5 1.7 3.5 1.3 6.9 2.6 10.4 3.5 2.2.6 4.5 1.1 6.7 1.4 7.5 1 14.9-.1 22.3-5.5 1.5-.7.4-2.4-.9-1.8zM295.3 199.9c-.1 0-.3-.1-.4-.1-41.6-6.2-84.2-4.9-125.3 3.9-6.3 1.3-12.4 3.3-18.2 6-.7.3-1.4.7-2.1 1-4.2 2.1-15.7 7.6-14.4 13.9.2.9.6 1.6 1.3 2.1 1.1.8 2.6 1 3.9.6 52.7-17 109.1-20.8 163.5-10.8.4.1.7.1 1.1.1.4 0 .8 0 1.2.1 2.6.5 4.5-1.5 4.8-4 .4-2.8-1.4-5.6-3.4-7.4-3.3-3-7.7-4.3-12-5.4z"/>
    <path class="st1" d="M532.8 253.6c-2-1-4-2.1-6-3 .3 3.9-.2 7.9-1.7 11.7-5.3 13.3-20.5 19.8-33.8 14.4-13.3-5.3-19.9-20.3-14.6-33.6-13.6 2.3-27.2 7.9-38.4 15.8-1.6 1.1-3.8 1.4-5.7 1.1-.9 1.9-.1 5 2.3 6.2 11 5.5 38.2 18.7 64 17.2 25.8-1.4 47.5-13.4 57.8-20 .1-.1.3-.2.4-.3-3.4-.5-6.7-1.4-9.9-2.7-4.9-1.8-9.7-4.3-14.4-6.8zM551.8 258.1c0 .1-.1.1-.1.2h.2c-.1-.1-.1-.1-.1-.2z"/>
    <path class="st2" d="M491.2 276.8c13.4 5.3 28.5-1.1 33.8-14.4 1.5-3.9 2.1-7.8 1.7-11.7-1.7-.8-3.5-1.6-5.3-2.4-2.6-1.1-5.3-2-8-2.8 2.3 3.8 2.8 8.6 1.1 13-3 7.5-11.6 11.2-19.2 8.2s-11.3-11.6-8.3-19.1c.9-2.1 2.2-4 3.8-5.4h-1.3c-4.3 0-8.6.4-13 1.1-5.2 13.1 1.3 28.1 14.7 33.5z"/>
    <path class="st3" d="M495.3 266.6c7.6 3 16.2-.6 19.2-8.2 1.8-4.4 1.2-9.2-1.1-13-7.4-2.2-15-3.3-22.6-3.4-1.6 1.5-2.9 3.3-3.8 5.4-3 7.6.8 16.2 8.3 19.2z"/>
    <path class="st4" d="M575 257.2c-5.2 1.9-10.9 2.2-16.4 1.1h-.2c-4.3-.9-8.6-2.6-12.5-5-11.7-7-22.9-14.3-35.7-18.8-4.9-1.1-9.9-1.9-14.9-2.2-22.6-1.4-45.6 6-63.9 19-2.5 1.8-3.7 5.2-2.3 7.1.6.8 1.7 1.4 2.9 1.6 1.8.4 4 .1 5.7-1.1 11.2-7.9 24.8-13.5 38.4-15.8 4.4-.7 8.7-1.1 13-1.1h1.3c7.6.1 15.2 1.2 22.6 3.4 2.7.8 5.4 1.7 8 2.8 1.8.7 3.5 1.5 5.3 2.4l6 3c4.8 2.5 9.5 4.9 14.3 6.8 3.3 1.3 6.6 2.2 9.9 2.7 6.2.9 12.6.1 19.4-3.8 1.4-.7.4-2.5-.9-2.1zM579.9 207.5c-.1-.1-.3-.1-.4-.2-40-13.2-82.1-19.3-124.1-17.6-6.4.3-12.8 1.1-19 2.8-.8.2-1.5.4-2.3.6-4.5 1.4-16.8 4.8-16.6 11.2 0 .9.4 1.7.9 2.3.9 1 2.4 1.4 3.7 1.2 54.8-7.7 111-1.9 162.9 17.3.4.1.7.2 1.1.2l1.2.3c2.4.9 4.7-.7 5.4-3.1.9-2.7-.5-5.8-2.1-7.9-2.5-3.3-6.6-5.4-10.7-7.1z"/>
    <g>
        <path class="st6" d="M0 1.3h710v147.2H0z"/>
        <path class="st6" d="M37.1 148.6h305.8c-4.9-9-4.8-20.5-4.3-31 .6-15 1.3-30 1.9-45.1 0-1.2 1-1.9 2-1.9.7 0 1.5.4 1.8 1.3 3 7.7 6.2 17 9 22.4 4.4 8.4 8.7 16.8 14 24.7 7.4 11 16.6 20.8 26.6 29.7h289.7c-1.1-.2-1.7-.3-1.7-.3 1.8-16 3.7-32.2 2.4-48.2C683 84.1 678.1 68 668.8 58c-5.2-5.5-11.9-8.6-18.4-8.6-5.3 0-10.5 2-14.7 6.5-5.4 5.8-8.6 14.5-12.8 22-3.8 6.9-9.4 13.1-15.6 13.1-.6 0-1.1-.1-1.7-.2-5.9-1.1-10.4-8-12.6-15.5-2.2-7.5-2.7-15.7-3.9-23.6C586.5 34.4 568.5 16 552 1.6H74.3C2.5 56.3 39 103.5 37.1 148.6zm476.8-54.4c-.3-.1-.5-.1-.8-.2.3.1.6.2.8.2l-.2.2c-6.9 5.1-32.1 12.5-51.3 16.8-.1.1-.3.2-.4.4-2.2.4-4.3.8-6.5 1.1-.1 0-.2 0-.2.1-5 .7-9.9 1.1-14.8 1.2-3.4-.2-5.4-.3-8-.7-18.6-2.5-34.5-9.6-43.4-15.2.3-.1.6-.3.9-.6 3.7-2.7 7.3-5.4 11-7.9-3.7 2.5-7.3 5.2-11 7.9l-.9.6c-4.5 2-8.3-5.3-3.8-8.7C405 74.6 424.8 62.2 450 61.3c26.4-1 45.3 10.7 67 24.2 4.7 2.9 1.4 9.7-3.1 8.7zM383.3 18.3c18.8-4.7 37.8-6.5 56.9-6.5 30.8 0 61.8 4.7 92.3 9.5 8.3 1.3 12.2 11.3 10.5 18.5-1.7 7.4-8.5 10.8-15.3 10.8-1.1 0-2.2-.1-3.2-.3-27.3-4.3-55.6-8.6-83.6-8.6-16.7 0-33.4 1.5-49.6 5.6-1.3.3-2.5.5-3.8.5-6.7 0-12.9-4.2-14.7-11-2.1-7.7 2.6-16.6 10.5-18.5zM273.8 96.8c-.2 0-.4-.1-.7-.2.2.1.5.2.7.2l-.2.2c-6.9 5.1-32.1 12.5-51.3 16.8-.1.1-.3.2-.4.4-2.2.4-4.3.8-6.5 1.1h-.2c-5 .7-9.9 1.1-14.8 1.2-2.5-.1-4.3-.2-6-.4-19.7-1.8-38.2-9.5-48.1-15.4-.4-.2-.8-.4-1.2-.7h-.1c-2.1-1.8-2.7-5.8.2-8 19.7-14.7 39.6-27.1 64.8-28.1 26.4-1 45.3 10.7 67 24.2 4.5 2.8 1.2 9.6-3.2 8.7zM131 28.5c25.6-8.3 52.1-10.9 78.8-10.9 22.2 0 44.4 1.8 66.3 3.8 8.4.7 14.7 6.3 15.1 15.1.3 7.3-6.6 15.1-14.1 15.1h-.9c-21.8-1.9-43.7-3.8-65.5-3.8-24.3 0-48.4 2.4-71.7 9.9-1.3.4-2.6.6-4 .6-6.5 0-12.8-4.8-14.6-11.1-2.1-8.3 2.9-16.2 10.6-18.7z"/>
        <path class="st6" d="M474.6 74c13.4 5.6 27.7 13.4 37.5 19.5-12.5-7.8-24.3-15.3-37.5-19.5z"/>
        <path class="st8" d="M342.9 148.6h51-51z"/>
        <path class="st9" d="M167.7 58.1c1.3 0 2.7-.2 4-.6 23.3-7.5 47.3-9.9 71.7-9.9 21.7 0 43.7 1.9 65.5 3.8h.9c7.5 0 14.4-7.8 14.1-15.1-.4-8.8-6.6-14.3-15.1-15.1-21.9-1.9-44.2-3.8-66.3-3.8-26.6 0-53.1 2.6-78.8 10.9C156 31 151 38.9 153.2 47c1.7 6.3 8 11.1 14.5 11.1z"/>
        <path class="st1" d="M144.9 99.9zM213.1 112.3c-5.5-4.7-9.2-11.1-9.2-18.8 0-4.2 1-8.2 2.7-11.7-9.9 4.9-19.2 11.4-28.5 18.3l-.9.6c-1 .4-1.9.4-2.8.1 10 5.9 28.5 13.6 48.1 15.4-.6-.1-1.3-.2-2-.3-2.7-.6-5.3-1.8-7.4-3.6zM254.1 74.4c-.9-.2-1.8-.3-2.7-.4 5.3 4.9 8.5 11.9 8.5 19.5 0 8.1-3.7 15.3-9.4 20.3 19.2-4.3 44.4-11.7 51.3-16.8l.2-.2c-.2 0-.4-.1-.7-.2-.3-.1-.6-.2-.9-.4-15.2-9.5-29.4-18.7-46.3-21.8zM215.1 115.3h0z"/>
        <path class="st2" d="M260 93.5c0-7.7-3.3-14.6-8.5-19.5-4.2-.6-8.6-.9-13.2-.7-5.4.3-10.5 1.1-15.4 2.4-5.7 1.5-11 3.6-16.2 6.1-1.7 3.5-2.7 7.5-2.7 11.7 0 7.7 3.7 14.1 9.2 18.8 2.1 1.8 4.7 3 7.5 3.5.7.1 1.3.2 2 .3 1.8.2 3.6.3 6 .4 4.9-.1 9.8-.5 14.8-1.2h.2c2.2-.3 4.3-.7 6.5-1.1.1-.1.3-.2.4-.4 5.7-5 9.4-12.3 9.4-20.3zm-28 15c-7.8 0-14.1-6.3-14.1-14.1s6.3-14.1 14.1-14.1 14.1 6.3 14.1 14.1-6.3 14.1-14.1 14.1z"/>
        <ellipse class="st3" cx="232" cy="94.4" rx="14.1" ry="14.1"/>
        <path class="st10" d="M305.2 88.1c-21.7-13.5-40.6-25.2-67-24.2-25.2.9-45.1 13.3-64.8 28.1-2.9 2.2-2.3 6.1-.2 8l.1.1c.4.3.8.6 1.2.7.8.3 1.8.4 2.8-.1.3-.1.6-.3.9-.6 9.3-6.9 18.5-13.4 28.5-18.3 5.2-2.5 10.6-4.6 16.2-6.1 4.9-1.3 10-2.1 15.4-2.4 4.6-.2 9 .1 13.2.7.9.1 1.8.3 2.7.4 16.9 3.2 31.1 12.3 46.4 21.8.3.2.6.3.9.4.2.1.4.1.7.2 4.3.9 7.6-5.9 3-8.7z"/>
        <path class="st1" d="M483.6 109.7c-5.5-4.7-9.2-11.1-9.2-18.8 0-4.2 1-8.2 2.7-11.7-6 2.9-11.8 6.5-17.5 10.4-3.7 2.5-7.3 5.2-11 7.9l-.9.6c8.9 5.6 24.8 12.7 43.4 15.2-2.8-.6-5.4-1.8-7.5-3.6zM570.8 93.5c-9.8-6.1-24.1-13.9-37.5-19.5-2.8-.9-5.7-1.7-8.7-2.2-.9-.2-1.8-.3-2.7-.4 5.3 4.9 8.5 11.9 8.5 19.5 0 8.1-3.7 15.3-9.4 20.3 19.2-4.3 44.4-11.7 51.3-16.8l.2-.2c-.3-.1-.5-.1-.8-.2-.3-.1-.5-.2-.8-.4 0 0 0-.1-.1-.1zM455.3 112.7c.1 0 .2 0 .2-.1-.1.1-.1.1-.2.1z"/>
        <path class="st2" d="M530.5 90.9c0-7.7-3.3-14.6-8.5-19.5-4.2-.6-8.6-.9-13.2-.7-5.4.3-10.5 1.1-15.4 2.4-1 .3-2.1.6-3.1.9-4.5 1.4-8.9 3.2-13.1 5.3-1.7 3.5-2.7 7.5-2.7 11.7 0 7.7 3.7 14.1 9.2 18.8 2.1 1.8 4.7 3 7.5 3.5 2.6.4 4.6.6 8 .7 4.9-.1 9.8-.5 14.8-1.2h.2c2.2-.3 4.3-.7 6.5-1.1.1-.1.3-.2.4-.4 5.7-5.1 9.4-12.3 9.4-20.4zm-28 15c-7.8 0-14.1-6.3-14.1-14.1s6.3-14.1 14.1-14.1 14.1 6.3 14.1 14.1-6.3 14.1-14.1 14.1z"/>
        <ellipse class="st3" cx="502.5" cy="91.8" rx="14.1" ry="14.1"/>
        <path class="st10" d="M575.7 85.5c-21.7-13.5-40.6-25.2-67-24.2-25.2.9-45.1 13.3-64.8 28.1-4.5 3.3-.7 10.7 3.8 8.7.3-.1.6-.3.9-.6 3.7-2.7 7.3-5.4 11-7.9 5.7-3.9 11.4-7.4 17.5-10.4 4.2-2.1 8.6-3.9 13.1-5.3 1-.3 2-.6 3.1-.9 4.9-1.3 10-2.1 15.4-2.4 4.6-.2 9 .1 13.2.7.9.1 1.8.3 2.7.4 3 .6 5.8 1.3 8.7 2.2 13.2 4.2 25 11.7 37.5 19.5.1 0 .1.1.2.1.3.2.5.3.8.4.3.1.5.2.8.2 4.4 1.1 7.7-5.7 3.1-8.6z"/>
        <path class="st11" d="M404.3 105.1c-6.6-11.5-12-23.9-17.4-36.2-3.4-7.8-7.4-21.5-11.1-32.8-.4-1.3-1.3-1.9-2.3-1.9-1.2 0-2.5 1-2.5 2.8-.8 22-1.6 44-2.3 66-.5 15.4-.7 32.2 5.4 45.4h63.3c-12.5-12.8-23.9-27.1-33.1-43.3z"/>
        <path class="st9" d="M434.6 47.8c1.3 0 2.5-.2 3.8-.5 16.2-4 32.9-5.6 49.6-5.6 28 0 56.3 4.3 83.6 8.6 1.1.2 2.1.3 3.2.3 6.8 0 13.6-3.4 15.3-10.8 1.6-7.2-2.2-17.2-10.5-18.5-30.5-4.8-61.5-9.5-92.3-9.5-19.1 0-38.1 1.8-56.9 6.5-7.9 2-12.6 10.8-10.5 18.5 1.9 6.8 8.1 11 14.7 11zM119.2 51.4c-1.2 7.9-1.7 16.1-3.9 23.6s-6.7 14.4-12.6 15.5c-.6.1-1.1.2-1.7.2-6.2 0-11.7-6.3-15.6-13.1-4.2-7.5-7.3-16.2-12.8-22-4.2-4.4-9.4-6.5-14.7-6.5-6.5 0-13.2 3.1-18.4 8.6-9.4 10-14.2 26.2-15.5 42.2-1.3 16.1.6 32.6 2.5 48.5H0V1.3h156.4c-16.6 14.4-34.6 32.8-37.2 50.1zM635.8 1.3H710v147.2h-37c-1.8-45 34.6-92.2-37.2-147.2z"/>
    </g>
    <g>
        <path class="st12" d="M.1 351.6H705v146.2H.1z"/>
        <path class="st12" d="M529.6 426.1c13.3 5.6 27.5 13.3 37.3 19.4-12.4-7.7-24.2-15.2-37.3-19.4zM241.6 426.1c13.3 5.6 27.5 13.3 37.3 19.4-12.5-7.7-24.2-15.2-37.3-19.4z"/>
        <path class="st12" d="M0 351.6h97.4c-1.8 2.6-3.4 5.3-4.9 8.1l-.2.4c-10.9 20.2-26.7 39.6-33.2 63.7-6.6 24.6-2.6 49-1.1 71.7.1.8.1 1.6.1 2.4h221c7.6-7.9 14.6-16.4 20.6-25.5 6.6-10 12.1-20.8 17.5-31.5 3.4-6.8 7.4-18.7 11.1-28.5.4-1.1 1.4-1.6 2.3-1.6 1.3 0 2.5.9 2.6 2.4 1 19.1 2 38.1 3 57.2.5 9.1.8 18.8-1 27.6H651c6.5-19.4 14-39.9 7.8-61.3-7.1-24.5-56.5-46.9-72.1-68-4.1-5.5-5.9-11.3-6.7-17h125H0zm280.6 94.6c-.2 0-.5-.1-.7-.2.2.1.5.2.7.2l-.2.2c-6.8 5-31.8 12.4-50.9 16.7-.1.1-.3.2-.4.4-2.1.4-4.3.8-6.4 1.1h-.2c-4.9.7-9.8 1.1-14.7 1.2-3.4-.2-5.4-.3-8-.7-18.5-2.5-34.3-9.6-43.1-15.1.3-.1.6-.3.9-.6 3.6-2.7 7.3-5.4 10.9-7.9-3.7 2.5-7.3 5.1-10.9 7.9l-.9.6c-4.4 2-8.2-5.3-3.8-8.6 19.6-14.6 39.3-26.9 64.3-27.9 26.2-1 45 10.7 66.6 24.1 4.5 2.8 1.2 9.5-3.2 8.6zm10.3-59c-1.2 6-7.7 11.2-14 9.5-24-6.4-48.5-6.4-73.1-3.2-8.5 1.1-16.8 2.8-25.2 4.3-1.5.3-3 .3-4.5.4-.4 0-.7.1-1.1.2-8.8 2.1-18 1.6-26.9 3.2-5.1.9-16.5 3.9-19.7-2.5-3.1-6.4 9.4-10.6 13.3-12.3 7.1-3 14.1-6 21.5-8.2 16.2-5 33.1-7.7 49.8-9.8.4-.1.9-.1 1.3-.2 23.1-2.1 46.6-1.3 69 4.7 6.4 1.6 10.9 7.2 9.6 13.9zm277.7 59c-.3-.1-.5-.1-.8-.2.3.1.6.2.8.2l-.2.2c-6.8 5-31.8 12.4-50.9 16.7-.1.1-.3.2-.4.4-2.1.4-4.3.8-6.4 1.1h-.2c-4.9.7-9.8 1.1-14.7 1.2-3.4-.2-5.4-.3-8-.7-18.5-2.5-34.3-9.6-43.1-15.1.3-.1.6-.3.9-.6 3.6-2.7 7.3-5.4 10.9-7.9-3.7 2.5-7.3 5.1-10.9 7.9l-.9.6c-4.4 2-8.2-5.3-3.8-8.6 19.6-14.6 39.3-26.9 64.3-27.9 26.2-1 45 10.7 66.6 24.1 4.5 2.8 1.3 9.5-3.2 8.6zm20.4-49.7c-2.9 6.5-14.4 3.9-19.6 3.1-8.9-1.3-18.1-.5-27-2.3-.4-.1-.7-.1-1.1-.1-1.5 0-3 0-4.5-.2-8.4-1.3-16.8-2.7-25.3-3.5-24.6-2.4-49.1-1.7-72.9 5.5-6.2 1.9-13-3.1-14.3-9-1.5-6.6 2.9-12.5 9-14.3 22.3-6.7 45.7-8.3 68.9-6.9.4 0 .9.1 1.3.1 16.8 1.6 33.8 3.8 50.1 8.3 7.4 2 14.6 4.7 21.7 7.6 4 1.4 16.7 5.2 13.7 11.7z"/>
        <path class="st13" d="M591.7 368.6c15.5 21.1 33.8 33.6 52.4 70.8 13 25.9 18.4 39 11.8 58.5H710V351.6H585c.9 5.7 2.6 11.4 6.7 17zM91.9 423.8c10.1-24.1 34.7-43.5 51.6-63.7l.4-.4c2.3-2.8 4.9-5.5 7.7-8.1H0v146.2h90.3c0-.8 0-1.6-.1-2.4-2.4-22.7-8.5-47.1 1.7-71.6z"/>
        <path class="st1" d="M213.8 461.6c-5.5-4.7-9.1-11-9.1-18.7 0-4.2 1-8.1 2.7-11.6-6 2.9-11.7 6.4-17.3 10.3-3.7 2.5-7.3 5.1-10.9 7.9l-.9.6c8.8 5.5 24.6 12.6 43.1 15.1-2.9-.6-5.4-1.8-7.6-3.6zM222.3 464.6h.2c0-.1-.1 0-.2 0 .1 0 .1 0 0 0zM300.4 445.5c-9.7-6-23.9-13.8-37.3-19.4-2.8-.9-5.7-1.6-8.6-2.2-.9-.2-1.8-.3-2.7-.4 5.2 4.9 8.5 11.8 8.5 19.4 0 8-3.6 15.2-9.4 20.2 19.1-4.3 44.1-11.7 50.9-16.7l.2-.2c-.2 0-.5-.1-.7-.2-.3-.1-.6-.2-.9-.4.2 0 .1-.1 0-.1z"/>
        <path class="st14" d="M260.4 442.9c0-7.6-3.3-14.5-8.5-19.4-4.2-.6-8.5-.9-13.1-.7-5.3.2-10.4 1.1-15.3 2.4l-3 .9c-4.5 1.4-8.8 3.2-13.1 5.2-1.7 3.5-2.7 7.5-2.7 11.6 0 7.7 3.7 14 9.1 18.7 2.1 1.8 4.7 3 7.5 3.5 2.6.4 4.6.6 8 .7 4.9-.1 9.8-.5 14.7-1.2h.2c2.1-.3 4.3-.7 6.4-1.1.1-.1.3-.2.4-.4 5.8-5 9.4-12.2 9.4-20.2zm-27.8 14.9c-7.7 0-14-6.2-14-14 0-7.7 6.3-14 14-14s14 6.3 14 14-6.2 14-14 14z"/>
        <ellipse class="st3" cx="232.6" cy="443.8" rx="14" ry="14"/>
        <path class="st10" d="M305.3 437.6c-21.6-13.4-40.3-25-66.6-24.1-25 .9-44.8 13.3-64.3 27.9-4.4 3.3-.7 10.6 3.8 8.6.3-.1.6-.3.9-.6 3.6-2.7 7.3-5.3 10.9-7.9 5.6-3.8 11.4-7.4 17.3-10.3 4.2-2.1 8.5-3.8 13.1-5.2l3-.9c4.9-1.3 9.9-2.1 15.3-2.4 4.6-.2 9 .1 13.1.7.9.1 1.8.3 2.7.4 2.9.6 5.8 1.3 8.6 2.2 13.1 4.2 24.8 11.6 37.3 19.4.1 0 .1.1.2.1.3.2.6.3.9.4.2.1.5.2.7.2 4.4 1 7.7-5.7 3.1-8.5z"/>
        <path class="st13" d="M308.5 373.2c-22.5-6-46-6.8-69-4.7-.4.1-.9.1-1.3.2-16.8 2.2-33.7 4.8-49.8 9.8-7.3 2.3-14.4 5.2-21.5 8.2-3.9 1.7-16.5 5.9-13.3 12.3 3.1 6.4 14.5 3.4 19.7 2.5 8.9-1.6 18.1-1.1 26.9-3.2.4-.1.7-.1 1.1-.2 1.5-.1 3-.1 4.5-.4 8.4-1.6 16.7-3.2 25.2-4.3 24.5-3.2 49-3.2 73.1 3.2 6.3 1.7 12.9-3.5 14-9.5 1.2-6.6-3.3-12.2-9.6-13.9z"/>
        <path class="st1" d="M480.3 461.6c-5.4-4.7-9.1-11-9.1-18.7 0-4.2 1-8.1 2.7-11.6-6 2.9-11.7 6.4-17.3 10.3-3.7 2.5-7.3 5.1-10.9 7.9l-.9.6c8.8 5.5 24.6 12.6 43.1 15.1-2.9-.6-5.5-1.8-7.6-3.6zM510.4 464.6h.2c0-.1-.1 0-.2 0zM566.9 445.5c-9.7-6-23.9-13.8-37.3-19.4-2.8-.9-5.7-1.6-8.6-2.2-.9-.2-1.8-.3-2.7-.4 5.2 4.9 8.5 11.8 8.5 19.4 0 8-3.6 15.2-9.4 20.2 19.1-4.3 44.1-11.7 50.9-16.7l.2-.2c-.3-.1-.5-.1-.8-.2-.3-.1-.5-.2-.8-.4.1 0 .1-.1 0-.1z"/>
        <path class="st14" d="M526.8 442.9c0-7.6-3.3-14.5-8.5-19.4-4.2-.6-8.5-.9-13.1-.7-5.3.2-10.4 1.1-15.3 2.4l-3 .9c-4.5 1.4-8.8 3.2-13.1 5.2-1.7 3.5-2.7 7.5-2.7 11.6 0 7.7 3.7 14 9.1 18.7 2.1 1.8 4.7 3 7.5 3.5 2.6.4 4.6.6 8 .7 4.9-.1 9.8-.5 14.7-1.2h.2c2.1-.3 4.3-.7 6.4-1.1.1-.1.3-.2.4-.4 5.8-5 9.4-12.2 9.4-20.2zm-27.7 14.9c-7.7 0-14-6.2-14-14 0-7.7 6.3-14 14-14s14 6.3 14 14-6.3 14-14 14z"/>
        <ellipse class="st3" cx="499.1" cy="443.8" rx="14" ry="14"/>
        <path class="st10" d="M571.8 437.6c-21.6-13.4-40.3-25-66.6-24.1-25 .9-44.8 13.3-64.3 27.9-4.4 3.3-.7 10.6 3.8 8.6.3-.1.6-.3.9-.6 3.6-2.7 7.3-5.3 10.9-7.9 5.6-3.8 11.4-7.4 17.3-10.3 4.2-2.1 8.5-3.8 13.1-5.2l3-.9c4.9-1.3 9.9-2.1 15.3-2.4 4.6-.2 9 .1 13.1.7.9.1 1.8.3 2.7.4 2.9.6 5.8 1.3 8.6 2.2 13.1 4.2 24.8 11.6 37.3 19.4.1 0 .1.1.2.1.3.2.5.3.8.4.3.1.5.2.8.2 4.4 1 7.6-5.7 3.1-8.5z"/>
        <path class="st11" d="M427.1 387.7c-.5-1.4-3.1 1.1-3.2 3-1.2 23.7-6.9 50.1-8.2 73.8-.6 11.3.8 22.2 3 33.2h65.1c-28-26-47-60.2-54.4-97.7l-2.3-12.3z"/>
        <path class="st13" d="M539.8 374.1c-16-5.5-32.8-8.8-49.5-11.5-.4-.1-.9-.1-1.3-.2-23-2.9-46.5-2.8-69.2 2.4-6.3 1.5-11 7-9.9 13.7 1 6 7.4 11.4 13.7 9.9 24.2-5.6 48.7-4.8 73.1-.8 8.4 1.4 16.7 3.3 25 5.2 1.5.3 3 .4 4.5.5.4 0 .7.1 1.1.2 8.7 2.4 17.9 2.2 26.8 4.1 5.1 1.1 16.4 4.4 19.7-1.8 3.3-6.3-9-10.9-12.9-12.8-6.9-3.2-13.8-6.4-21.1-8.9z"/>
    </g>
    <g>
        <path class="st15" d="M373.1 654.5H449V673h-75.9z"/>
        <path class="st15" d="M0 672.3V526.1h710v146.2"/>
        <path class="st15" d="M263.5 602.1c-.8-.3-1.6-.7-2.4-1 .8.3 1.6.6 2.4 1z"/>
        <path class="st15" d="M633.8 648.4v-.1c0-.8-.1-1.6-.2-2.3v-.5c-.1-.8-.2-1.7-.2-2.5v-.3c-.1-.7-.2-1.4-.3-2.2 0-.2 0-.4-.1-.6-.1-.7-.2-1.3-.3-2 0-.3-.1-.5-.1-.8-.1-.5-.2-1.1-.3-1.6-.1-.4-.1-.8-.2-1.2-.1-.7-.3-1.4-.5-2.2 0-.2-.1-.4-.1-.7-.2-.9-.5-1.9-.7-2.8-3.5-13.2-10.2-24.7-17-35.9-.5-.9-1.1-1.8-1.6-2.6-3.8-6.1-7.6-12.1-10.8-18.2l-.1-.1-.1-.3c-14-26.1-40.6-42.9-70.2-44.2-.6 0-1.2-.1-1.9-.1s-1.3-.1-2-.1c-1 0-1.9-.1-2.9-.1s-2-.1-3-.1c-.7 0-1.4-.1-2.2-.1-1.2 0-2.4-.1-3.6-.1-.6 0-1.3 0-1.9-.1-1 0-2-.1-3-.1-.7 0-1.5 0-2.2-.1-1.1 0-2.1-.1-3.2-.1h-1.5c-1.3 0-2.6-.1-3.9-.1h-1.5c-1.3 0-2.6-.1-4-.1H124.3c-2.1 3.6-4 7.6-5.7 11.9 0 .1-.1.2-.1.4-2.6 6.6-4.9 13.7-7.1 20.9-.4 1.4-.9 2.7-1.3 4.1-1.1 3.6-2.3 7.1-3.6 10.6-.9 2.4-1.7 4.7-2.7 7-7.8 18.8-20 37.3-23.5 59.2-1.1 7.1-1.3 14-1 20.8.1 1.4.2 2.7.3 4.1 0 .6.1 1.1.2 1.6.1.8.1 1.6.2 2.4.1 1 .2 2 .4 3 0 .3.1.6.1 1h304c-6.5-9.3-6.3-22-5.9-33.5.6-15 1.2-30 1.9-45 0-1.2 1-1.9 2-1.9.7 0 1.5.4 1.8 1.3 3 7.7 6.2 17 9 22.4 4.3 8.4 8.7 16.8 14 24.7 8.2 12.1 18.4 22.6 29.4 32.1h196.6c.6-8.2 1-16.5.5-24.8zm-338.2-27.3c-.3 1.3-1.1 2.4-2.2 3.2-8.3 5.9-22.5 9.4-41.3 11.3-4.4.4-9 .8-13.8 1-4.3.2-8.5.4-12.8.5h-1.3c-20.6.4-39.3-1.3-48.3-6.3-3.5-1.9-4.1-7.2-1.1-9.9 2.5-2.3 5.8-5.1 9.8-8-3.8 2.5-7.5 5.1-11 7.9-5 3.9-10.2-4.5-5.2-8.4 19.2-15 41.5-26.2 66.3-26.4 24.8-.2 44.6 12 64.3 25.8 4.9 3.3 1.3 11-3.4 9.3zm1.8-44.4h-.9c-21.8-1.9-43.7-3.8-65.4-3.8-24.3 0-48.3 2.4-71.6 9.9-1.3.4-2.6.6-4 .6-6.5 0-12.8-4.8-14.5-11.1-2.2-8.1 2.8-16 10.5-18.5 25.6-8.2 52.1-10.9 78.7-10.9 22.1 0 44.4 1.8 66.3 3.8 8.4.7 14.7 6.3 15 15 .3 7.3-6.6 15-14.1 15zm263.4 44.1c-3.6-2.8-7.2-5.4-11-7.9 3.9 2.9 7.2 5.7 9.8 8 3 2.7 2.4 8-1.1 9.9-9 5-27.7 6.6-48.3 6.3h-1.3c-4.2-.1-8.5-.3-12.8-.5-4.8-.3-9.4-.6-13.8-1-18.8-1.9-33-5.3-41.3-11.3-1.1-.8-1.8-1.9-2.2-3.2-4.7 1.6-8.3-6-3.5-9.3 19.7-13.8 39.5-26 64.3-25.8 24.8.2 47.1 11.5 66.3 26.4 5.1 3.9-.1 12.4-5.1 8.4zm15.2-54.4c-1.7 7.4-8.5 10.8-15.3 10.8-1.1 0-2.1-.1-3.2-.3-27.3-4.3-55.6-8.6-83.5-8.6-16.7 0-33.4 1.5-49.6 5.6-1.3.3-2.5.5-3.8.5-6.6 0-12.9-4.2-14.7-11-2.1-7.7 2.6-16.6 10.5-18.5 18.8-4.7 37.8-6.5 56.8-6.5 30.8 0 61.8 4.7 92.3 9.5 8.3 1.3 12.1 11.3 10.5 18.5zM709.3 526.1h.1V673h-.1z"/>
        <path class="st15" d="M473.3 601.1c-.8.3-1.6.7-2.4 1 .8-.4 1.6-.7 2.4-1z"/>
        <path class="st16" d="M612.2 590.2c-3.8-6.1-7.6-12.1-10.8-18.2l-.1-.1.1.1c3.2 6 7 12.1 10.8 18.2z"/>
        <path class="st7" d="M0 526.1V673 526.1z"/>
        <path class="st4" d="M537.3 526.1c5.8 1.5 11.5 3.3 17 5.7 19.8 6.7 36.7 20.8 46.8 39.8l.1.3.1.1c3.3 6.1 7 12.1 10.8 18.2.5.9 1.1 1.8 1.6 2.6 6.8 11.1 13.5 22.7 17 35.9.3.9.5 1.9.7 2.8.1.2.1.4.1.7.2.7.3 1.4.5 2.2.1.4.1.8.2 1.2.1.5.2 1.1.3 1.6 0 .3.1.5.1.8.1.7.2 1.3.3 2 0 .2.1.4.1.6.1.7.2 1.4.3 2.2v.3c.1.8.2 1.7.2 2.5v.5c.1.8.1 1.6.2 2.3v.1c.5 8.3.1 16.5-.5 24.6H710v-147H537.3zM79.9 669c-.1-.8-.2-1.6-.2-2.4-.1-.5-.1-1.1-.2-1.6-.1-1.4-.2-2.7-.3-4.1-.4-6.8-.2-13.8 1-20.8 3.5-21.8 15.8-40.4 23.5-59.2.9-2.3 1.8-4.6 2.7-7 1.3-3.5 2.4-7 3.6-10.6.4-1.4.9-2.7 1.3-4.1 2.3-7.2 4.5-14.3 7.1-20.9 0-.1.1-.2.1-.4 1.7-4.2 3.6-8.2 5.7-11.9H0v147h80.3c0-.3-.1-.6-.1-1l-.3-3z"/>
        <path class="st1" d="M257.8 602.1c-.8-.3-1.6-.7-2.4-1 1.6 3.2 2.6 6.8 2.8 10.6.5 9.8-4.2 18.7-11.8 23.9 18.8-1.9 33-5.3 41.3-11.3 1.1-.8 1.8-1.9 2.2-3.2-.4-.1-.8-.3-1.2-.6-10-7-20.1-13.7-30.9-18.4zM219.6 634c-5.6-4.6-9.3-11.5-9.7-19.3-.3-5.7 1.1-11 3.9-15.6-10.3 3-20 7.9-29 13.8-3.9 2.9-7.2 5.7-9.8 8-3 2.7-2.4 8 1.1 9.9 8.2 4.6 24.4 6.3 42.8 6.3-.2-1 .1-2.2.7-3.1z"/>
        <path class="st2" d="M258.2 611.7c-.2-3.8-1.2-7.4-2.8-10.6-2-.8-4.1-1.5-6.2-2.2-6.3-1.9-12.9-3-19.9-3-5 0-9.9.6-14.7 1.6-2.2.5-4.5 1-6.7 1.6-2.7 4.5-4.2 9.9-3.9 15.6.5 9.9 6.3 18.2 14.4 22.5l.1.1h1.3c4.2-.1 8.5-.3 12.8-.6 4.8-.3 9.4-.6 13.8-1 7.5-5.3 12.3-14.2 11.8-24zm-12.4 2.7c-.5 8.1-7.4 14.4-15.5 13.9-8.1-.4-14.3-7.4-13.9-15.5.5-8.1 7.4-14.4 15.5-13.9 8.2.4 14.4 7.4 13.9 15.5z"/>
        <path class="st4" d="M299.2 615.3c-19.7-13.8-39.5-26-64.3-25.8-24.8.2-47.1 11.5-66.3 26.4-5 3.9.2 12.3 5.2 8.4 3.6-2.8 7.2-5.4 11-7.9 9.1-5.9 18.7-10.8 29-13.8 2.2-.6 4.4-1.2 6.7-1.6 4.8-1 9.7-1.5 14.7-1.6 7 0 13.6 1.1 19.9 3 2.1.6 4.1 1.4 6.2 2.2.8.3 1.6.7 2.4 1 10.8 4.7 20.9 11.5 30.8 18.4.4.3.8.5 1.2.6 4.6 1.7 8.2-5.9 3.5-9.3z"/>
        <path class="st1" d="M474.5 611.7c.2-3.8 1.2-7.4 2.8-10.6-.8.3-1.6.6-2.4 1-10.8 4.7-20.9 11.5-30.8 18.4-.4.3-.8.5-1.2.6.3 1.3 1.1 2.4 2.2 3.2 8.3 5.9 22.5 9.4 41.3 11.3-7.7-5.2-12.5-14.1-11.9-23.9zM559.4 621c-2.5-2.3-5.8-5.1-9.8-8-9.1-5.9-18.7-10.8-29-13.8 2.7 4.5 4.2 9.9 3.9 15.6-.4 7.6-3.9 14.2-9.2 18.8 0 1.3-.4 2.7-1.3 3.7 19 .1 35.9-1.6 44.3-6.3 3.6-2.1 4.1-7.3 1.1-10z"/>
        <path class="st2" d="M528.5 614.7c.3-5.7-1.1-11-3.9-15.6-2.2-.6-4.4-1.2-6.7-1.6-4.8-1-9.7-1.5-14.7-1.6-7 0-13.6 1.1-19.9 3-2.1.6-4.1 1.4-6.2 2.2-1.6 3.2-2.6 6.8-2.8 10.6-.5 9.8 4.2 18.7 11.8 23.9 4.4.4 9 .8 13.8 1 4.3.2 8.5.4 12.8.5h1.3c8.2-4.3 14-12.6 14.5-22.4zm-12.5-.3c-.5 8.1-7.4 14.4-15.5 13.9-8.1-.4-14.3-7.4-13.9-15.5.5-8.1 7.4-14.4 15.5-13.9 8.2.4 14.4 7.4 13.9 15.5z"/>
        <path class="st4" d="M570 612.4c-19.2-15-41.5-26.2-66.3-26.4-24.8-.2-44.6 12-64.3 25.8-4.7 3.3-1.2 11 3.5 9.3.4-.1.8-.3 1.2-.6 9.9-7 20-13.7 30.8-18.4.8-.3 1.6-.7 2.4-1 2-.8 4.1-1.5 6.2-2.2 6.3-1.9 12.9-3 19.9-3 5 0 9.9.6 14.7 1.6 2.2.5 4.5 1 6.7 1.6 10.3 3 20 7.9 29 13.8 3.8 2.5 7.5 5.1 11 7.9 5 4 10.1-4.5 5.2-8.4zM296.4 546.6c-21.9-1.9-44.1-3.8-66.3-3.8-26.6 0-53.1 2.6-78.7 10.9-7.7 2.5-12.7 10.4-10.5 18.5 1.7 6.3 8 11.1 14.5 11.1 1.3 0 2.7-.2 4-.6 23.2-7.5 47.3-9.9 71.6-9.9 21.7 0 43.6 1.9 65.4 3.8h.9c7.5 0 14.4-7.8 14.1-15.1-.3-8.6-6.6-14.2-15-14.9zM584.1 547.9c-30.5-4.8-61.4-9.5-92.3-9.5-19 0-38 1.8-56.8 6.5-7.9 2-12.6 10.8-10.5 18.5 1.9 6.7 8.1 11 14.7 11 1.3 0 2.5-.1 3.8-.5 16.2-4 32.8-5.6 49.6-5.6 28 0 56.2 4.3 83.5 8.6 1.1.2 2.1.3 3.2.3 6.8 0 13.6-3.4 15.3-10.8 1.6-7.2-2.2-17.2-10.5-18.5z"/>
        <ellipse transform="matrix(.05559 -.9985 .9985 .05559 -139.157 1080.089)" class="st3" cx="501.4" cy="613.6" rx="14.7" ry="14.7"/>
        <ellipse transform="rotate(-86.812 231.132 613.605) scale(1.00005)" class="st3" cx="231.1" cy="613.6" rx="14.7" ry="14.7"/>
        <path class="st17" d="M311.8 632.6c6.7-9.9 12.1-20.5 17.6-31.1 3.5-6.7 7.5-18.5 11.3-28.1.4-1.1 1.4-1.6 2.3-1.6a247338517506038880 247338517506038880 0 0 1-2.5 101.2h-65.8c14-12 26.9-25.2 37.1-40.4z"/>
    </g>
</svg>
