<svg width="800" height="336" viewBox="0 0 800 336" xmlns="http://www.w3.org/2000/svg">
    <title>
        3.2_Bayes Rule_1
    </title>
    <g fill="none" fill-rule="evenodd">
        <path d="M26.235 82.463L14.975 69.85c-.053-.06-.026-.151.05-.175 2.254-.722 3.873-2.862 3.798-5.373-.083-2.794-2.324-5.116-5.115-5.291-3.18-.199-5.82 2.322-5.82 5.459 0 2.435 1.593 4.495 3.794 5.203.076.024.102.116.05.175L.478 82.463c-.692.774-.625 1.96.149 2.651.773.691 1.96.624 2.65-.15l7.421-8.309c.274-.305.781-.112.781.298 0 2.752-.315 5.495-.937 8.175l-4.735 20.379c-.216.93.26 1.914 1.155 2.245 1.084.4 2.236-.245 2.488-1.334l3.626-16.784c.065-.301.495-.301.56 0l3.626 16.784c.202.867.974 1.453 1.828 1.453.208 0 .423-.035.635-.11.91-.323 1.398-1.318 1.18-2.258l-4.733-20.375c-.624-2.68-.938-5.424-.938-8.175 0-.41.508-.603.78-.298l7.421 8.31c.37.415.885.627 1.4.627.446 0 .892-.158 1.25-.478.774-.69.84-1.877.15-2.65M57.204 82.463L45.944 69.85c-.053-.06-.027-.151.049-.175 2.255-.722 3.874-2.862 3.799-5.373-.084-2.794-2.325-5.116-5.116-5.291-3.179-.199-5.82 2.322-5.82 5.459 0 2.435 1.594 4.495 3.794 5.203.077.024.103.116.05.175L31.446 82.463c-.691.774-.624 1.96.15 2.651.773.691 1.96.624 2.65-.15l7.421-8.309c.273-.305.78-.112.78.298 0 2.752-.314 5.495-.937 8.175l-4.734 20.379c-.217.93.26 1.914 1.155 2.245 1.084.4 2.235-.245 2.488-1.334l3.626-16.784c.065-.301.495-.301.56 0l3.626 16.784c.201.867.973 1.453 1.827 1.453.21 0 .424-.035.636-.11.91-.323 1.398-1.318 1.18-2.258L47.14 85.128c-.623-2.68-.937-5.424-.937-8.175 0-.41.507-.603.78-.298l7.42 8.31c.37.415.885.627 1.401.627.445 0 .892-.158 1.25-.478.773-.69.84-1.877.15-2.65M88.716 82.463L77.455 69.85c-.052-.06-.026-.151.05-.175 2.254-.722 3.874-2.862 3.798-5.373-.083-2.794-2.324-5.116-5.115-5.291-3.18-.199-5.82 2.322-5.82 5.459 0 2.435 1.594 4.495 3.795 5.203.075.024.101.116.049.175L62.958 82.463c-.691.774-.624 1.96.15 2.651.772.691 1.96.624 2.65-.15l7.42-8.309c.274-.305.781-.112.781.298 0 2.752-.314 5.495-.937 8.175l-4.735 20.379c-.216.93.26 1.914 1.156 2.245 1.084.4 2.236-.245 2.488-1.334l3.626-16.784c.065-.301.495-.301.56 0l3.625 16.784c.202.867.974 1.453 1.828 1.453.21 0 .424-.035.636-.11.91-.323 1.398-1.318 1.179-2.258l-4.733-20.375c-.623-2.68-.938-5.424-.938-8.175 0-.41.508-.603.78-.298l7.421 8.31c.37.415.885.627 1.401.627.445 0 .892-.158 1.25-.478.773-.69.84-1.877.15-2.65M151.196 82.463l-11.26-12.613c-.053-.06-.026-.151.05-.175 2.253-.722 3.873-2.862 3.797-5.373-.083-2.794-2.323-5.116-5.114-5.291-3.18-.199-5.821 2.322-5.821 5.459 0 2.435 1.594 4.495 3.795 5.203.075.024.102.116.05.175l-11.255 12.615c-.691.774-.624 1.96.15 2.651.773.691 1.96.624 2.65-.15l7.42-8.309c.275-.305.781-.112.781.298 0 2.752-.314 5.495-.937 8.175l-4.735 20.379c-.215.93.26 1.914 1.156 2.245 1.084.4 2.236-.245 2.488-1.334l3.626-16.784c.065-.301.495-.301.56 0l3.626 16.784c.201.867.974 1.453 1.827 1.453.21 0 .424-.035.636-.11.91-.323 1.398-1.318 1.18-2.258l-4.734-20.375c-.623-2.68-.938-5.424-.938-8.175 0-.41.508-.603.781-.298l7.42 8.31c.371.415.885.627 1.402.627.445 0 .891-.158 1.25-.478.772-.69.84-1.877.15-2.65M182.708 82.463l-11.26-12.613c-.054-.06-.026-.151.049-.175 2.254-.722 3.873-2.862 3.798-5.373-.083-2.794-2.324-5.116-5.114-5.291-3.18-.199-5.821 2.322-5.821 5.459 0 2.435 1.594 4.495 3.795 5.203.075.024.101.116.05.175L156.95 82.463c-.691.774-.624 1.96.15 2.651.773.691 1.96.624 2.65-.15l7.42-8.309c.274-.305.781-.112.781.298 0 2.752-.314 5.495-.937 8.175l-4.735 20.379c-.215.93.26 1.914 1.156 2.245 1.083.4 2.235-.245 2.488-1.334l3.626-16.784c.064-.301.494-.301.56 0l3.625 16.784c.202.867.974 1.453 1.828 1.453.209 0 .424-.035.636-.11.91-.323 1.398-1.318 1.179-2.258l-4.734-20.375c-.622-2.68-.937-5.424-.937-8.175 0-.41.508-.603.781-.298l7.42 8.31c.371.415.885.627 1.401.627.445 0 .892-.158 1.25-.478.773-.69.84-1.877.15-2.65M213.676 82.463l-11.26-12.613c-.053-.06-.026-.151.05-.175 2.254-.722 3.873-2.862 3.798-5.373-.084-2.794-2.324-5.116-5.115-5.291-3.18-.199-5.82 2.322-5.82 5.459 0 2.435 1.593 4.495 3.794 5.203.076.024.102.116.05.175l-11.255 12.615c-.69.774-.623 1.96.15 2.651.773.691 1.96.624 2.651-.15l7.42-8.309c.274-.305.78-.112.78.298 0 2.752-.313 5.495-.937 8.175l-4.734 20.379c-.216.93.26 1.914 1.155 2.245 1.084.4 2.236-.245 2.488-1.334l3.627-16.784c.064-.301.494-.301.56 0l3.625 16.784c.201.867.974 1.453 1.827 1.453.21 0 .424-.035.636-.11.91-.323 1.398-1.318 1.18-2.258l-4.734-20.375c-.623-2.68-.937-5.424-.937-8.175 0-.41.507-.603.78-.298l7.42 8.31c.371.415.886.627 1.402.627.445 0 .891-.158 1.25-.478.773-.69.84-1.877.15-2.65M245.189 82.463L233.927 69.85c-.052-.06-.025-.151.05-.175 2.255-.722 3.874-2.862 3.799-5.373-.083-2.794-2.325-5.116-5.115-5.291-3.18-.199-5.821 2.322-5.821 5.459 0 2.435 1.594 4.495 3.795 5.203.075.024.102.116.05.175L219.43 82.463c-.69.774-.624 1.96.15 2.651.773.691 1.96.624 2.65-.15l7.421-8.309c.273-.305.78-.112.78.298 0 2.752-.314 5.495-.936 8.175l-4.735 20.379c-.216.93.26 1.914 1.155 2.245 1.084.4 2.236-.245 2.488-1.334l3.626-16.784c.065-.301.494-.301.56 0l3.626 16.784c.201.867.973 1.453 1.827 1.453.21 0 .424-.035.636-.11.91-.323 1.398-1.318 1.179-2.258l-4.733-20.375c-.623-2.68-.937-5.424-.937-8.175 0-.41.508-.603.78-.298l7.42 8.31c.371.415.885.627 1.401.627.445 0 .892-.158 1.25-.478.774-.69.841-1.877.15-2.65M276.157 82.463L264.896 69.85c-.053-.06-.026-.151.05-.175 2.254-.722 3.873-2.862 3.798-5.373-.083-2.794-2.324-5.116-5.115-5.291-3.18-.199-5.82 2.322-5.82 5.459 0 2.435 1.593 4.495 3.794 5.203.076.024.102.116.05.175l-11.255 12.615c-.69.774-.623 1.96.15 2.651.773.691 1.96.624 2.651-.15l7.42-8.309c.274-.305.781-.112.781.298 0 2.752-.314 5.495-.937 8.175l-4.735 20.379c-.215.93.26 1.914 1.156 2.245 1.083.4 2.235-.245 2.488-1.334l3.626-16.784c.064-.301.494-.301.56 0l3.625 16.784c.202.867.974 1.453 1.828 1.453.209 0 .423-.035.635-.11.91-.323 1.399-1.318 1.18-2.258l-4.734-20.375c-.623-2.68-.937-5.424-.937-8.175 0-.41.508-.603.78-.298l7.42 8.31c.371.415.886.627 1.402.627.445 0 .892-.158 1.25-.478.773-.69.84-1.877.15-2.65M307.669 82.463L296.408 69.85c-.053-.06-.026-.151.05-.175 2.254-.722 3.873-2.862 3.798-5.373-.083-2.794-2.324-5.116-5.115-5.291-3.18-.199-5.82 2.322-5.82 5.459 0 2.435 1.593 4.495 3.794 5.203.076.024.102.116.05.175L281.91 82.463c-.69.774-.623 1.96.15 2.651.774.691 1.96.624 2.651-.15l7.42-8.309c.273-.305.78-.112.78.298 0 2.752-.313 5.495-.936 8.175l-4.735 20.379c-.216.93.26 1.914 1.155 2.245 1.084.4 2.236-.245 2.488-1.334l3.626-16.784c.065-.301.495-.301.56 0l3.626 16.784c.201.867.973 1.453 1.828 1.453.209 0 .423-.035.635-.11.91-.323 1.398-1.318 1.18-2.258l-4.734-20.375c-.623-2.68-.937-5.424-.937-8.175 0-.41.508-.603.78-.298l7.42 8.31c.371.415.886.627 1.402.627.445 0 .892-.158 1.25-.478.773-.69.84-1.877.15-2.65M338.637 82.463l-11.26-12.613c-.053-.06-.026-.151.049-.175 2.254-.722 3.874-2.862 3.799-5.373-.084-2.794-2.325-5.116-5.115-5.291-3.18-.199-5.821 2.322-5.821 5.459 0 2.435 1.594 4.495 3.795 5.203.075.024.101.116.05.175l-11.255 12.615c-.69.774-.624 1.96.15 2.651.773.691 1.96.624 2.65-.15l7.42-8.309c.274-.305.782-.112.782.298 0 2.752-.315 5.495-.938 8.175l-4.734 20.379c-.216.93.26 1.914 1.155 2.245 1.083.4 2.235-.245 2.488-1.334l3.626-16.784c.065-.301.494-.301.56 0l3.626 16.784c.201.867.973 1.453 1.827 1.453.209 0 .424-.035.635-.11.91-.323 1.399-1.318 1.18-2.258l-4.733-20.375c-.623-2.68-.938-5.424-.938-8.175 0-.41.508-.603.781-.298l7.42 8.31c.371.415.885.627 1.401.627.445 0 .892-.158 1.25-.478.774-.69.84-1.877.15-2.65M370.149 82.463l-11.26-12.613c-.053-.06-.027-.151.049-.175 2.255-.722 3.874-2.862 3.799-5.373-.084-2.794-2.325-5.116-5.116-5.291-3.18-.199-5.82 2.322-5.82 5.459 0 2.435 1.593 4.495 3.794 5.203.076.024.103.116.05.175L344.39 82.463c-.691.774-.624 1.96.15 2.651.773.691 1.96.624 2.65-.15l7.42-8.309c.274-.305.781-.112.781.298 0 2.752-.314 5.495-.937 8.175l-4.735 20.379c-.216.93.26 1.914 1.156 2.245 1.084.4 2.235-.245 2.487-1.334l3.627-16.784c.065-.301.494-.301.56 0l3.626 16.784c.2.867.973 1.453 1.827 1.453.209 0 .424-.035.636-.11.909-.323 1.398-1.318 1.179-2.258l-4.733-20.375c-.623-2.68-.938-5.424-.937-8.175 0-.41.507-.603.78-.298l7.42 8.31c.37.415.885.627 1.401.627.445 0 .892-.158 1.25-.478.773-.69.84-1.877.15-2.65M401.661 82.463L390.4 69.85c-.052-.06-.026-.151.05-.175 2.254-.722 3.873-2.862 3.798-5.373-.083-2.794-2.324-5.116-5.115-5.291-3.18-.199-5.82 2.322-5.82 5.459 0 2.435 1.593 4.495 3.794 5.203.076.024.102.116.05.175l-11.254 12.615c-.691.774-.624 1.96.15 2.651.772.691 1.96.624 2.65-.15l7.42-8.309c.274-.305.781-.112.781.298 0 2.752-.314 5.495-.937 8.175l-4.735 20.379c-.216.93.26 1.914 1.156 2.245 1.084.4 2.235-.245 2.487-1.334l3.627-16.784c.065-.301.494-.301.56 0l3.625 16.784c.202.867.974 1.453 1.828 1.453.209 0 .424-.035.636-.11.909-.323 1.397-1.318 1.178-2.258l-4.732-20.375c-.623-2.68-.938-5.424-.938-8.175 0-.41.508-.603.78-.298l7.421 8.31c.37.415.885.627 1.4.627.446 0 .892-.158 1.251-.478.773-.69.84-1.877.15-2.65M464.141 82.463l-11.26-12.613c-.053-.06-.026-.151.05-.175 2.253-.722 3.873-2.862 3.797-5.373-.083-2.794-2.324-5.116-5.114-5.291-3.18-.199-5.821 2.322-5.821 5.459 0 2.435 1.594 4.495 3.795 5.203.075.024.102.116.05.175l-11.255 12.615c-.691.774-.624 1.96.15 2.651.773.691 1.96.624 2.65-.15l7.42-8.309c.274-.305.782-.112.782.298 0 2.752-.315 5.495-.938 8.175l-4.735 20.379c-.215.93.26 1.914 1.156 2.245 1.084.4 2.236-.245 2.488-1.334l3.626-16.784c.065-.301.495-.301.56 0l3.626 16.784c.201.867.973 1.453 1.827 1.453.21 0 .424-.035.636-.11.91-.323 1.398-1.318 1.179-2.258l-4.733-20.375c-.623-2.68-.938-5.424-.938-8.175 0-.41.508-.603.781-.298l7.42 8.31c.371.415.886.627 1.401.627.445 0 .892-.158 1.25-.478.773-.69.84-1.877.15-2.65M495.11 82.463L483.848 69.85c-.053-.06-.026-.151.05-.175 2.254-.722 3.873-2.862 3.798-5.373-.083-2.794-2.324-5.116-5.115-5.291-3.18-.199-5.82 2.322-5.82 5.459 0 2.435 1.593 4.495 3.794 5.203.076.024.102.116.05.175L469.35 82.463c-.69.774-.624 1.96.15 2.651.773.691 1.96.624 2.65-.15l7.421-8.309c.274-.305.781-.112.781.298 0 2.752-.314 5.495-.938 8.175l-4.734 20.379c-.216.93.26 1.914 1.156 2.245 1.083.4 2.235-.245 2.487-1.334l3.626-16.784c.065-.301.495-.301.56 0l3.626 16.784c.202.867.974 1.453 1.828 1.453.208 0 .424-.035.635-.11.91-.323 1.398-1.318 1.18-2.258l-4.734-20.375c-.623-2.68-.937-5.424-.937-8.175 0-.41.508-.603.78-.298l7.42 8.31c.371.415.886.627 1.402.627.445 0 .891-.158 1.25-.478.773-.69.84-1.877.15-2.65M526.621 82.463l-11.26-12.613c-.053-.06-.026-.151.05-.175 2.253-.722 3.873-2.862 3.798-5.373-.084-2.794-2.324-5.116-5.115-5.291-3.18-.199-5.821 2.322-5.821 5.459 0 2.435 1.594 4.495 3.795 5.203.075.024.102.116.05.175l-11.255 12.615c-.69.774-.624 1.96.15 2.651.773.691 1.96.624 2.651-.15l7.42-8.309c.274-.305.78-.112.78.298 0 2.752-.313 5.495-.937 8.175l-4.734 20.379c-.216.93.26 1.914 1.155 2.245 1.084.4 2.236-.245 2.488-1.334l3.626-16.784c.065-.301.495-.301.56 0l3.626 16.784c.201.867.974 1.453 1.827 1.453.21 0 .424-.035.636-.11.91-.323 1.398-1.318 1.18-2.258l-4.734-20.375c-.623-2.68-.938-5.424-.938-8.175 0-.41.508-.603.781-.298l7.42 8.31c.371.415.886.627 1.402.627.445 0 .891-.158 1.25-.478.773-.69.84-1.877.15-2.65M557.59 82.463L546.329 69.85c-.053-.06-.026-.151.05-.175 2.254-.722 3.873-2.862 3.798-5.373-.083-2.794-2.324-5.116-5.114-5.291-3.18-.199-5.821 2.322-5.821 5.459 0 2.435 1.594 4.495 3.795 5.203.075.024.101.116.049.175l-11.254 12.615c-.691.774-.624 1.96.15 2.651.772.691 1.96.624 2.65-.15l7.42-8.309c.274-.305.781-.112.781.298 0 2.752-.314 5.495-.937 8.175l-4.735 20.379c-.215.93.26 1.914 1.156 2.245 1.083.4 2.236-.245 2.488-1.334l3.626-16.784c.064-.301.494-.301.56 0l3.625 16.784c.202.867.974 1.453 1.828 1.453.209 0 .424-.035.636-.11.91-.323 1.398-1.318 1.179-2.258l-4.733-20.375c-.623-2.68-.938-5.424-.938-8.175 0-.41.508-.603.78-.298l7.421 8.31c.37.415.885.627 1.401.627.445 0 .892-.158 1.25-.478.773-.69.84-1.877.15-2.65M589.102 82.463l-11.26-12.613c-.054-.06-.027-.151.049-.175 2.254-.722 3.873-2.862 3.798-5.373-.083-2.794-2.324-5.116-5.115-5.291-3.18-.199-5.82 2.322-5.82 5.459 0 2.435 1.593 4.495 3.794 5.203.076.024.102.116.05.175l-11.255 12.615c-.69.774-.623 1.96.15 2.651.774.691 1.96.624 2.651-.15l7.42-8.309c.274-.305.78-.112.78.298 0 2.752-.313 5.495-.936 8.175l-4.735 20.379c-.216.93.26 1.914 1.155 2.245 1.084.4 2.236-.245 2.488-1.334l3.627-16.784c.064-.301.494-.301.56 0l3.625 16.784c.202.867.974 1.453 1.828 1.453.209 0 .423-.035.635-.11.91-.323 1.399-1.318 1.18-2.258l-4.734-20.375c-.623-2.68-.937-5.424-.937-8.175 0-.41.508-.603.781-.298l7.42 8.31c.37.415.885.627 1.401.627.445 0 .892-.158 1.25-.478.773-.69.84-1.877.15-2.65M620.07 82.463L608.81 69.85c-.053-.06-.026-.151.05-.175 2.253-.722 3.873-2.862 3.798-5.373-.084-2.794-2.325-5.116-5.115-5.291-3.18-.199-5.821 2.322-5.821 5.459 0 2.435 1.594 4.495 3.795 5.203.075.024.101.116.05.175l-11.255 12.615c-.69.774-.624 1.96.15 2.651.773.691 1.96.624 2.65-.15l7.42-8.309c.274-.305.782-.112.782.298 0 2.752-.314 5.495-.938 8.175l-4.734 20.379c-.216.93.26 1.914 1.155 2.245 1.084.4 2.236-.245 2.488-1.334l3.626-16.784c.065-.301.495-.301.56 0l3.626 16.784c.201.867.973 1.453 1.827 1.453.21 0 .424-.035.636-.11.91-.323 1.398-1.318 1.179-2.258l-4.733-20.375c-.623-2.68-.938-5.424-.938-8.175 0-.41.508-.603.781-.298l7.42 8.31c.371.415.886.627 1.401.627.445 0 .892-.158 1.25-.478.774-.69.84-1.877.15-2.65M26.235 139.51l-11.26-12.613c-.053-.059-.026-.15.05-.175 2.254-.722 3.873-2.862 3.798-5.372-.083-2.795-2.324-5.117-5.115-5.292-3.18-.199-5.82 2.322-5.82 5.459 0 2.436 1.593 4.496 3.794 5.203.076.025.102.116.05.176L.478 139.51c-.692.773-.625 1.96.149 2.65.773.692 1.96.624 2.65-.149l7.421-8.31c.274-.305.781-.112.781.298 0 2.752-.315 5.495-.937 8.175l-4.735 20.379c-.216.93.26 1.914 1.155 2.245 1.084.4 2.236-.245 2.488-1.333l3.626-16.785c.065-.3.495-.3.56 0l3.626 16.785c.202.867.974 1.452 1.828 1.452.208 0 .423-.035.635-.11.91-.323 1.398-1.317 1.18-2.258l-4.733-20.375c-.624-2.68-.938-5.423-.938-8.175 0-.41.508-.603.78-.297l7.421 8.309c.37.415.885.627 1.4.627.446 0 .892-.158 1.25-.478.774-.69.84-1.877.15-2.65M57.204 139.51l-11.26-12.613c-.053-.059-.027-.15.049-.175 2.255-.722 3.874-2.862 3.799-5.372-.084-2.795-2.325-5.117-5.116-5.292-3.179-.199-5.82 2.322-5.82 5.459 0 2.436 1.594 4.496 3.794 5.203.077.025.103.116.05.176L31.446 139.51c-.691.773-.624 1.96.15 2.65.773.692 1.96.624 2.65-.149l7.421-8.31c.273-.305.78-.112.78.298 0 2.752-.314 5.495-.937 8.175l-4.734 20.379c-.217.93.26 1.914 1.155 2.245 1.084.4 2.235-.245 2.488-1.333l3.626-16.785c.065-.3.495-.3.56 0l3.626 16.785c.201.867.973 1.452 1.827 1.452.21 0 .424-.035.636-.11.91-.323 1.398-1.317 1.18-2.258l-4.734-20.375c-.623-2.68-.937-5.423-.937-8.175 0-.41.507-.603.78-.297l7.42 8.309c.37.415.885.627 1.401.627.445 0 .892-.158 1.25-.478.773-.69.84-1.877.15-2.65M88.716 139.51l-11.261-12.613c-.052-.059-.026-.15.05-.175 2.254-.722 3.874-2.862 3.798-5.372-.083-2.795-2.324-5.117-5.115-5.292-3.18-.199-5.82 2.322-5.82 5.459 0 2.436 1.594 4.496 3.795 5.203.075.025.101.116.049.176L62.958 139.51c-.691.773-.624 1.96.15 2.65.772.692 1.96.624 2.65-.149l7.42-8.31c.274-.305.781-.112.781.298 0 2.752-.314 5.495-.937 8.175l-4.735 20.379c-.216.93.26 1.914 1.156 2.245 1.084.4 2.236-.245 2.488-1.333l3.626-16.785c.065-.3.495-.3.56 0l3.625 16.785c.202.867.974 1.452 1.828 1.452.21 0 .424-.035.636-.11.91-.323 1.398-1.317 1.179-2.258l-4.733-20.375c-.623-2.68-.938-5.423-.938-8.175 0-.41.508-.603.78-.297l7.421 8.309c.37.415.885.627 1.401.627.445 0 .892-.158 1.25-.478.773-.69.84-1.877.15-2.65M120.227 139.51l-11.26-12.613c-.053-.059-.026-.15.05-.175 2.254-.722 3.873-2.862 3.798-5.372-.083-2.795-2.324-5.117-5.115-5.292-3.18-.199-5.82 2.322-5.82 5.459 0 2.436 1.593 4.496 3.794 5.203.076.025.102.116.05.176L94.469 139.51c-.69.773-.623 1.96.15 2.65.773.692 1.96.624 2.651-.149l7.42-8.31c.274-.305.781-.112.781.298 0 2.752-.314 5.495-.938 8.175L99.8 162.554c-.216.93.26 1.914 1.156 2.245 1.083.4 2.235-.245 2.487-1.333l3.627-16.785c.064-.3.494-.3.56 0l3.625 16.785c.202.867.974 1.452 1.828 1.452.208 0 .423-.035.635-.11.91-.323 1.398-1.317 1.18-2.258l-4.734-20.375c-.623-2.68-.937-5.423-.937-8.175 0-.41.508-.603.78-.297l7.42 8.309c.371.415.886.627 1.402.627.445 0 .891-.158 1.25-.478.773-.69.84-1.877.15-2.65M151.196 139.51l-11.26-12.613c-.053-.059-.026-.15.05-.175 2.253-.722 3.873-2.862 3.797-5.372-.083-2.795-2.323-5.117-5.114-5.292-3.18-.199-5.821 2.322-5.821 5.459 0 2.436 1.594 4.496 3.795 5.203.075.025.102.116.05.176l-11.255 12.615c-.691.773-.624 1.96.15 2.65.773.692 1.96.624 2.65-.149l7.42-8.31c.275-.305.781-.112.781.298 0 2.752-.314 5.495-.937 8.175l-4.735 20.379c-.215.93.26 1.914 1.156 2.245 1.084.4 2.236-.245 2.488-1.333l3.626-16.785c.065-.3.495-.3.56 0l3.626 16.785c.201.867.974 1.452 1.827 1.452.21 0 .424-.035.636-.11.91-.323 1.398-1.317 1.18-2.258l-4.734-20.375c-.623-2.68-.938-5.423-.938-8.175 0-.41.508-.603.781-.297l7.42 8.309c.371.415.885.627 1.402.627.445 0 .891-.158 1.25-.478.772-.69.84-1.877.15-2.65M182.708 139.51l-11.26-12.613c-.054-.059-.026-.15.049-.175 2.254-.722 3.873-2.862 3.798-5.372-.083-2.795-2.324-5.117-5.114-5.292-3.18-.199-5.821 2.322-5.821 5.459 0 2.436 1.594 4.496 3.795 5.203.075.025.101.116.05.176L156.95 139.51c-.691.773-.624 1.96.15 2.65.773.692 1.96.624 2.65-.149l7.42-8.31c.274-.305.781-.112.781.298 0 2.752-.314 5.495-.937 8.175l-4.735 20.379c-.215.93.26 1.914 1.156 2.245 1.083.4 2.235-.245 2.488-1.333l3.626-16.785c.064-.3.494-.3.56 0l3.625 16.785c.202.867.974 1.452 1.828 1.452.209 0 .424-.035.636-.11.91-.323 1.398-1.317 1.179-2.258l-4.734-20.375c-.622-2.68-.937-5.423-.937-8.175 0-.41.508-.603.781-.297l7.42 8.309c.371.415.885.627 1.401.627.445 0 .892-.158 1.25-.478.773-.69.84-1.877.15-2.65M213.676 139.51l-11.26-12.613c-.053-.059-.026-.15.05-.175 2.254-.722 3.873-2.862 3.798-5.372-.084-2.795-2.324-5.117-5.115-5.292-3.18-.199-5.82 2.322-5.82 5.459 0 2.436 1.593 4.496 3.794 5.203.076.025.102.116.05.176l-11.255 12.615c-.69.773-.623 1.96.15 2.65.773.692 1.96.624 2.651-.149l7.42-8.31c.274-.305.78-.112.78.298 0 2.752-.313 5.495-.937 8.175l-4.734 20.379c-.216.93.26 1.914 1.155 2.245 1.084.4 2.236-.245 2.488-1.333l3.627-16.785c.064-.3.494-.3.56 0l3.625 16.785c.201.867.974 1.452 1.827 1.452.21 0 .424-.035.636-.11.91-.323 1.398-1.317 1.18-2.258l-4.734-20.375c-.623-2.68-.937-5.423-.937-8.175 0-.41.507-.603.78-.297l7.42 8.309c.371.415.886.627 1.402.627.445 0 .891-.158 1.25-.478.773-.69.84-1.877.15-2.65M245.189 139.51l-11.262-12.613c-.052-.059-.025-.15.05-.175 2.255-.722 3.874-2.862 3.799-5.372-.083-2.795-2.325-5.117-5.115-5.292-3.18-.199-5.821 2.322-5.821 5.459 0 2.436 1.594 4.496 3.795 5.203.075.025.102.116.05.176L219.43 139.51c-.69.773-.624 1.96.15 2.65.773.692 1.96.624 2.65-.149l7.421-8.31c.273-.305.78-.112.78.298 0 2.752-.314 5.495-.936 8.175l-4.735 20.379c-.216.93.26 1.914 1.155 2.245 1.084.4 2.236-.245 2.488-1.333l3.626-16.785c.065-.3.494-.3.56 0l3.626 16.785c.201.867.973 1.452 1.827 1.452.21 0 .424-.035.636-.11.91-.323 1.398-1.317 1.179-2.258l-4.733-20.375c-.623-2.68-.937-5.423-.937-8.175 0-.41.508-.603.78-.297l7.42 8.309c.371.415.885.627 1.401.627.445 0 .892-.158 1.25-.478.774-.69.841-1.877.15-2.65M276.157 139.51l-11.261-12.613c-.053-.059-.026-.15.05-.175 2.254-.722 3.873-2.862 3.798-5.372-.083-2.795-2.324-5.117-5.115-5.292-3.18-.199-5.82 2.322-5.82 5.459 0 2.436 1.593 4.496 3.794 5.203.076.025.102.116.05.176l-11.255 12.615c-.69.773-.623 1.96.15 2.65.773.692 1.96.624 2.651-.149l7.42-8.31c.274-.305.781-.112.781.298 0 2.752-.314 5.495-.937 8.175l-4.735 20.379c-.215.93.26 1.914 1.156 2.245 1.083.4 2.235-.245 2.488-1.333l3.626-16.785c.064-.3.494-.3.56 0l3.625 16.785c.202.867.974 1.452 1.828 1.452.209 0 .423-.035.635-.11.91-.323 1.399-1.317 1.18-2.258l-4.734-20.375c-.623-2.68-.937-5.423-.937-8.175 0-.41.508-.603.78-.297l7.42 8.309c.371.415.886.627 1.402.627.445 0 .892-.158 1.25-.478.773-.69.84-1.877.15-2.65M307.669 139.51l-11.261-12.613c-.053-.059-.026-.15.05-.175 2.254-.722 3.873-2.862 3.798-5.372-.083-2.795-2.324-5.117-5.115-5.292-3.18-.199-5.82 2.322-5.82 5.459 0 2.436 1.593 4.496 3.794 5.203.076.025.102.116.05.176L281.91 139.51c-.69.773-.623 1.96.15 2.65.774.692 1.96.624 2.651-.149l7.42-8.31c.273-.305.78-.112.78.298 0 2.752-.313 5.495-.936 8.175l-4.735 20.379c-.216.93.26 1.914 1.155 2.245 1.084.4 2.236-.245 2.488-1.333l3.626-16.785c.065-.3.495-.3.56 0l3.626 16.785c.201.867.973 1.452 1.828 1.452.209 0 .423-.035.635-.11.91-.323 1.398-1.317 1.18-2.258l-4.734-20.375c-.623-2.68-.937-5.423-.937-8.175 0-.41.508-.603.78-.297l7.42 8.309c.371.415.886.627 1.402.627.445 0 .892-.158 1.25-.478.773-.69.84-1.877.15-2.65M338.637 139.51l-11.26-12.613c-.053-.059-.026-.15.049-.175 2.254-.722 3.874-2.862 3.799-5.372-.084-2.795-2.325-5.117-5.115-5.292-3.18-.199-5.821 2.322-5.821 5.459 0 2.436 1.594 4.496 3.795 5.203.075.025.101.116.05.176l-11.255 12.615c-.69.773-.624 1.96.15 2.65.773.692 1.96.624 2.65-.149l7.42-8.31c.274-.305.782-.112.782.298 0 2.752-.315 5.495-.938 8.175l-4.734 20.379c-.216.93.26 1.914 1.155 2.245 1.083.4 2.235-.245 2.488-1.333l3.626-16.785c.065-.3.494-.3.56 0l3.626 16.785c.201.867.973 1.452 1.827 1.452.209 0 .424-.035.635-.11.91-.323 1.399-1.317 1.18-2.258l-4.733-20.375c-.623-2.68-.938-5.423-.938-8.175 0-.41.508-.603.781-.297l7.42 8.309c.371.415.885.627 1.401.627.445 0 .892-.158 1.25-.478.774-.69.84-1.877.15-2.65M370.149 139.51l-11.26-12.613c-.053-.059-.027-.15.049-.175 2.255-.722 3.874-2.862 3.799-5.372-.084-2.795-2.325-5.117-5.116-5.292-3.18-.199-5.82 2.322-5.82 5.459 0 2.436 1.593 4.496 3.794 5.203.076.025.103.116.05.176L344.39 139.51c-.691.773-.624 1.96.15 2.65.773.692 1.96.624 2.65-.149l7.42-8.31c.274-.305.781-.112.781.298 0 2.752-.314 5.495-.937 8.175l-4.735 20.379c-.216.93.26 1.914 1.156 2.245 1.084.4 2.235-.245 2.487-1.333l3.627-16.785c.065-.3.494-.3.56 0l3.626 16.785c.2.867.973 1.452 1.827 1.452.209 0 .424-.035.636-.11.909-.323 1.398-1.317 1.179-2.258l-4.733-20.375c-.623-2.68-.938-5.423-.937-8.175 0-.41.507-.603.78-.297l7.42 8.309c.37.415.885.627 1.401.627.445 0 .892-.158 1.25-.478.773-.69.84-1.877.15-2.65M401.661 139.51L390.4 126.898c-.052-.059-.026-.15.05-.175 2.254-.722 3.873-2.862 3.798-5.372-.083-2.795-2.324-5.117-5.115-5.292-3.18-.199-5.82 2.322-5.82 5.459 0 2.436 1.593 4.496 3.794 5.203.076.025.102.116.05.176l-11.254 12.615c-.691.773-.624 1.96.15 2.65.772.692 1.96.624 2.65-.149l7.42-8.31c.274-.305.781-.112.781.298 0 2.752-.314 5.495-.937 8.175l-4.735 20.379c-.216.93.26 1.914 1.156 2.245 1.084.4 2.235-.245 2.487-1.333l3.627-16.785c.065-.3.494-.3.56 0l3.625 16.785c.202.867.974 1.452 1.828 1.452.209 0 .424-.035.636-.11.909-.323 1.397-1.317 1.178-2.258l-4.732-20.375c-.623-2.68-.938-5.423-.938-8.175 0-.41.508-.603.78-.297l7.421 8.309c.37.415.885.627 1.4.627.446 0 .892-.158 1.251-.478.773-.69.84-1.877.15-2.65M432.63 139.51l-11.261-12.613c-.053-.059-.026-.15.05-.175 2.254-.722 3.873-2.862 3.798-5.372-.084-2.795-2.324-5.117-5.115-5.292-3.18-.199-5.82 2.322-5.82 5.459 0 2.436 1.593 4.496 3.794 5.203.076.025.102.116.05.176L406.87 139.51c-.691.773-.624 1.96.15 2.65.773.692 1.96.624 2.65-.149l7.421-8.31c.274-.305.78-.112.78.298 0 2.752-.314 5.495-.937 8.175l-4.734 20.379c-.216.93.26 1.914 1.155 2.245 1.084.4 2.236-.245 2.488-1.333l3.626-16.785c.065-.3.495-.3.56 0l3.626 16.785c.202.867.974 1.452 1.827 1.452.21 0 .424-.035.636-.11.91-.323 1.398-1.317 1.18-2.258l-4.734-20.375c-.623-2.68-.937-5.423-.937-8.175 0-.41.508-.603.78-.297l7.42 8.309c.371.415.886.627 1.402.627.445 0 .891-.158 1.25-.478.773-.69.84-1.877.15-2.65M464.141 139.51l-11.26-12.613c-.053-.059-.026-.15.05-.175 2.253-.722 3.873-2.862 3.797-5.372-.083-2.795-2.324-5.117-5.114-5.292-3.18-.199-5.821 2.322-5.821 5.459 0 2.436 1.594 4.496 3.795 5.203.075.025.102.116.05.176l-11.255 12.615c-.691.773-.624 1.96.15 2.65.773.692 1.96.624 2.65-.149l7.42-8.31c.274-.305.782-.112.782.298 0 2.752-.315 5.495-.938 8.175l-4.735 20.379c-.215.93.26 1.914 1.156 2.245 1.084.4 2.236-.245 2.488-1.333l3.626-16.785c.065-.3.495-.3.56 0l3.626 16.785c.201.867.973 1.452 1.827 1.452.21 0 .424-.035.636-.11.91-.323 1.398-1.317 1.179-2.258l-4.733-20.375c-.623-2.68-.938-5.423-.938-8.175 0-.41.508-.603.781-.297l7.42 8.309c.371.415.886.627 1.401.627.445 0 .892-.158 1.25-.478.773-.69.84-1.877.15-2.65M495.11 139.51l-11.261-12.613c-.053-.059-.026-.15.05-.175 2.254-.722 3.873-2.862 3.798-5.372-.083-2.795-2.324-5.117-5.115-5.292-3.18-.199-5.82 2.322-5.82 5.459 0 2.436 1.593 4.496 3.794 5.203.076.025.102.116.05.176L469.35 139.51c-.69.773-.624 1.96.15 2.65.773.692 1.96.624 2.65-.149l7.421-8.31c.274-.305.781-.112.781.298 0 2.752-.314 5.495-.938 8.175l-4.734 20.379c-.216.93.26 1.914 1.156 2.245 1.083.4 2.235-.245 2.487-1.333l3.626-16.785c.065-.3.495-.3.56 0l3.626 16.785c.202.867.974 1.452 1.828 1.452.208 0 .424-.035.635-.11.91-.323 1.398-1.317 1.18-2.258l-4.734-20.375c-.623-2.68-.937-5.423-.937-8.175 0-.41.508-.603.78-.297l7.42 8.309c.371.415.886.627 1.402.627.445 0 .891-.158 1.25-.478.773-.69.84-1.877.15-2.65M526.621 139.51l-11.26-12.613c-.053-.059-.026-.15.05-.175 2.253-.722 3.873-2.862 3.798-5.372-.084-2.795-2.324-5.117-5.115-5.292-3.18-.199-5.821 2.322-5.821 5.459 0 2.436 1.594 4.496 3.795 5.203.075.025.102.116.05.176l-11.255 12.615c-.69.773-.624 1.96.15 2.65.773.692 1.96.624 2.651-.149l7.42-8.31c.274-.305.78-.112.78.298 0 2.752-.313 5.495-.937 8.175l-4.734 20.379c-.216.93.26 1.914 1.155 2.245 1.084.4 2.236-.245 2.488-1.333l3.626-16.785c.065-.3.495-.3.56 0l3.626 16.785c.201.867.974 1.452 1.827 1.452.21 0 .424-.035.636-.11.91-.323 1.398-1.317 1.18-2.258l-4.734-20.375c-.623-2.68-.938-5.423-.938-8.175 0-.41.508-.603.781-.297l7.42 8.309c.371.415.886.627 1.402.627.445 0 .891-.158 1.25-.478.773-.69.84-1.877.15-2.65M589.102 139.51l-11.26-12.613c-.054-.059-.027-.15.049-.175 2.254-.722 3.873-2.862 3.798-5.372-.083-2.795-2.324-5.117-5.115-5.292-3.18-.199-5.82 2.322-5.82 5.459 0 2.436 1.593 4.496 3.794 5.203.076.025.102.116.05.176l-11.255 12.615c-.69.773-.623 1.96.15 2.65.774.692 1.96.624 2.651-.149l7.42-8.31c.274-.305.78-.112.78.298 0 2.752-.313 5.495-.936 8.175l-4.735 20.379c-.216.93.26 1.914 1.155 2.245 1.084.4 2.236-.245 2.488-1.333l3.627-16.785c.064-.3.494-.3.56 0l3.625 16.785c.202.867.974 1.452 1.828 1.452.209 0 .423-.035.635-.11.91-.323 1.399-1.317 1.18-2.258l-4.734-20.375c-.623-2.68-.937-5.423-.937-8.175 0-.41.508-.603.781-.297l7.42 8.309c.37.415.885.627 1.401.627.445 0 .892-.158 1.25-.478.773-.69.84-1.877.15-2.65M620.07 139.51l-11.26-12.613c-.053-.059-.026-.15.05-.175 2.253-.722 3.873-2.862 3.798-5.372-.084-2.795-2.325-5.117-5.115-5.292-3.18-.199-5.821 2.322-5.821 5.459 0 2.436 1.594 4.496 3.795 5.203.075.025.101.116.05.176l-11.255 12.615c-.69.773-.624 1.96.15 2.65.773.692 1.96.624 2.65-.149l7.42-8.31c.274-.305.782-.112.782.298 0 2.752-.314 5.495-.938 8.175l-4.734 20.379c-.216.93.26 1.914 1.155 2.245 1.084.4 2.236-.245 2.488-1.333l3.626-16.785c.065-.3.495-.3.56 0l3.626 16.785c.201.867.973 1.452 1.827 1.452.21 0 .424-.035.636-.11.91-.323 1.398-1.317 1.179-2.258l-4.733-20.375c-.623-2.68-.938-5.423-.938-8.175 0-.41.508-.603.781-.297l7.42 8.309c.371.415.886.627 1.401.627.445 0 .892-.158 1.25-.478.774-.69.84-1.877.15-2.65M26.235 196.015L14.975 183.4c-.053-.06-.026-.15.05-.175 2.254-.722 3.873-2.862 3.798-5.373-.083-2.794-2.324-5.116-5.115-5.29-3.18-.2-5.82 2.32-5.82 5.457 0 2.436 1.593 4.497 3.794 5.204.076.025.102.116.05.176L.478 196.015c-.692.773-.625 1.96.149 2.65.773.69 1.96.624 2.65-.149l7.421-8.31c.274-.305.781-.112.781.298 0 2.752-.315 5.495-.937 8.175l-4.735 20.379c-.216.93.26 1.914 1.155 2.245 1.084.4 2.236-.245 2.488-1.334l3.626-16.784c.065-.3.495-.3.56 0l3.626 16.784c.202.867.974 1.453 1.828 1.453.208 0 .423-.035.635-.11.91-.323 1.398-1.317 1.18-2.258l-4.733-20.375c-.624-2.68-.938-5.423-.938-8.175 0-.41.508-.603.78-.297l7.421 8.309c.37.415.885.626 1.4.626.446 0 .892-.157 1.25-.477.774-.69.84-1.877.15-2.65M57.204 196.015L45.944 183.4c-.053-.06-.027-.15.049-.175 2.255-.722 3.874-2.862 3.799-5.373-.084-2.794-2.325-5.116-5.116-5.29-3.179-.2-5.82 2.32-5.82 5.457 0 2.436 1.594 4.497 3.794 5.204.077.025.103.116.05.176l-11.254 12.615c-.691.773-.624 1.96.15 2.65.773.69 1.96.624 2.65-.149l7.421-8.31c.273-.305.78-.112.78.298 0 2.752-.314 5.495-.937 8.175l-4.734 20.379c-.217.93.26 1.914 1.155 2.245 1.084.4 2.235-.245 2.488-1.334l3.626-16.784c.065-.3.495-.3.56 0l3.626 16.784c.201.867.973 1.453 1.827 1.453.21 0 .424-.035.636-.11.91-.323 1.398-1.317 1.18-2.258L47.14 198.68c-.623-2.68-.937-5.423-.937-8.175 0-.41.507-.603.78-.297l7.42 8.309c.37.415.885.626 1.401.626.445 0 .892-.157 1.25-.477.773-.69.84-1.877.15-2.65M88.716 196.015L77.455 183.4c-.052-.06-.026-.15.05-.175 2.254-.722 3.874-2.862 3.798-5.373-.083-2.794-2.324-5.116-5.115-5.29-3.18-.2-5.82 2.32-5.82 5.457 0 2.436 1.594 4.497 3.795 5.204.075.025.101.116.049.176l-11.254 12.615c-.691.773-.624 1.96.15 2.65.772.69 1.96.624 2.65-.149l7.42-8.31c.274-.305.781-.112.781.298 0 2.752-.314 5.495-.937 8.175l-4.735 20.379c-.216.93.26 1.914 1.156 2.245 1.084.4 2.236-.245 2.488-1.334l3.626-16.784c.065-.3.495-.3.56 0l3.625 16.784c.202.867.974 1.453 1.828 1.453.21 0 .424-.035.636-.11.91-.323 1.398-1.317 1.179-2.258l-4.733-20.375c-.623-2.68-.938-5.423-.938-8.175 0-.41.508-.603.78-.297l7.421 8.309c.37.415.885.626 1.401.626.445 0 .892-.157 1.25-.477.773-.69.84-1.877.15-2.65M120.227 196.015l-11.26-12.614c-.053-.06-.026-.15.05-.175 2.254-.722 3.873-2.862 3.798-5.373-.083-2.794-2.324-5.116-5.115-5.29-3.18-.2-5.82 2.32-5.82 5.457 0 2.436 1.593 4.497 3.794 5.204.076.025.102.116.05.176l-11.255 12.615c-.69.773-.623 1.96.15 2.65s1.96.624 2.651-.149l7.42-8.31c.274-.305.781-.112.781.298 0 2.752-.314 5.495-.938 8.175L99.8 219.058c-.216.93.26 1.914 1.156 2.245 1.083.4 2.235-.245 2.487-1.334l3.627-16.784c.064-.3.494-.3.56 0l3.625 16.784c.202.867.974 1.453 1.828 1.453.208 0 .423-.035.635-.11.91-.323 1.398-1.317 1.18-2.258l-4.734-20.375c-.623-2.68-.937-5.423-.937-8.175 0-.41.508-.603.78-.297l7.42 8.309c.371.415.886.626 1.402.626.445 0 .891-.157 1.25-.477.773-.69.84-1.877.15-2.65M151.196 196.015l-11.26-12.614c-.053-.06-.026-.15.05-.175 2.253-.722 3.873-2.862 3.797-5.373-.083-2.794-2.323-5.116-5.114-5.29-3.18-.2-5.821 2.32-5.821 5.457 0 2.436 1.594 4.497 3.795 5.204.075.025.102.116.05.176l-11.255 12.615c-.691.773-.624 1.96.15 2.65.773.69 1.96.624 2.65-.149l7.42-8.31c.275-.305.781-.112.781.298 0 2.752-.314 5.495-.937 8.175l-4.735 20.379c-.215.93.26 1.914 1.156 2.245 1.084.4 2.236-.245 2.488-1.334l3.626-16.784c.065-.3.495-.3.56 0l3.626 16.784c.201.867.974 1.453 1.827 1.453.21 0 .424-.035.636-.11.91-.323 1.398-1.317 1.18-2.258l-4.734-20.375c-.623-2.68-.938-5.423-.938-8.175 0-.41.508-.603.781-.297l7.42 8.309c.371.415.885.626 1.402.626.445 0 .891-.157 1.25-.477.772-.69.84-1.877.15-2.65M182.708 196.015l-11.26-12.614c-.054-.06-.026-.15.049-.175 2.254-.722 3.873-2.862 3.798-5.373-.083-2.794-2.324-5.116-5.114-5.29-3.18-.2-5.821 2.32-5.821 5.457 0 2.436 1.594 4.497 3.795 5.204.075.025.101.116.05.176l-11.255 12.615c-.691.773-.624 1.96.15 2.65.773.69 1.96.624 2.65-.149l7.42-8.31c.274-.305.781-.112.781.298 0 2.752-.314 5.495-.937 8.175l-4.735 20.379c-.215.93.26 1.914 1.156 2.245 1.083.4 2.235-.245 2.488-1.334l3.626-16.784c.064-.3.494-.3.56 0l3.625 16.784c.202.867.974 1.453 1.828 1.453.209 0 .424-.035.636-.11.91-.323 1.398-1.317 1.179-2.258l-4.734-20.375c-.622-2.68-.937-5.423-.937-8.175 0-.41.508-.603.781-.297l7.42 8.309c.371.415.885.626 1.401.626.445 0 .892-.157 1.25-.477.773-.69.84-1.877.15-2.65M213.676 196.015l-11.26-12.614c-.053-.06-.026-.15.05-.175 2.254-.722 3.873-2.862 3.798-5.373-.084-2.794-2.324-5.116-5.115-5.29-3.18-.2-5.82 2.32-5.82 5.457 0 2.436 1.593 4.497 3.794 5.204.076.025.102.116.05.176l-11.255 12.615c-.69.773-.623 1.96.15 2.65s1.96.624 2.651-.149l7.42-8.31c.274-.305.78-.112.78.298 0 2.752-.313 5.495-.937 8.175l-4.734 20.379c-.216.93.26 1.914 1.155 2.245 1.084.4 2.236-.245 2.488-1.334l3.627-16.784c.064-.3.494-.3.56 0l3.625 16.784c.201.867.974 1.453 1.827 1.453.21 0 .424-.035.636-.11.91-.323 1.398-1.317 1.18-2.258l-4.734-20.375c-.623-2.68-.937-5.423-.937-8.175 0-.41.507-.603.78-.297l7.42 8.309c.371.415.886.626 1.402.626.445 0 .891-.157 1.25-.477.773-.69.84-1.877.15-2.65M276.157 196.015L264.896 183.4c-.053-.06-.026-.15.05-.175 2.254-.722 3.873-2.862 3.798-5.373-.083-2.794-2.324-5.116-5.115-5.29-3.18-.2-5.82 2.32-5.82 5.457 0 2.436 1.593 4.497 3.794 5.204.076.025.102.116.05.176l-11.255 12.615c-.69.773-.623 1.96.15 2.65s1.96.624 2.651-.149l7.42-8.31c.274-.305.781-.112.781.298 0 2.752-.314 5.495-.937 8.175l-4.735 20.379c-.215.93.26 1.914 1.156 2.245 1.083.4 2.235-.245 2.488-1.334l3.626-16.784c.064-.3.494-.3.56 0l3.625 16.784c.202.867.974 1.453 1.828 1.453.209 0 .423-.035.635-.11.91-.323 1.399-1.317 1.18-2.258l-4.734-20.375c-.623-2.68-.937-5.423-.937-8.175 0-.41.508-.603.78-.297l7.42 8.309c.371.415.886.626 1.402.626.445 0 .892-.157 1.25-.477.773-.69.84-1.877.15-2.65M307.669 196.015L296.408 183.4c-.053-.06-.026-.15.05-.175 2.254-.722 3.873-2.862 3.798-5.373-.083-2.794-2.324-5.116-5.115-5.29-3.18-.2-5.82 2.32-5.82 5.457 0 2.436 1.593 4.497 3.794 5.204.076.025.102.116.05.176l-11.255 12.615c-.69.773-.623 1.96.15 2.65.774.69 1.96.624 2.651-.149l7.42-8.31c.273-.305.78-.112.78.298 0 2.752-.313 5.495-.936 8.175l-4.735 20.379c-.216.93.26 1.914 1.155 2.245 1.084.4 2.236-.245 2.488-1.334l3.626-16.784c.065-.3.495-.3.56 0l3.626 16.784c.201.867.973 1.453 1.828 1.453.209 0 .423-.035.635-.11.91-.323 1.398-1.317 1.18-2.258l-4.734-20.375c-.623-2.68-.937-5.423-.937-8.175 0-.41.508-.603.78-.297l7.42 8.309c.371.415.886.626 1.402.626.445 0 .892-.157 1.25-.477.773-.69.84-1.877.15-2.65M338.637 196.015l-11.26-12.614c-.053-.06-.026-.15.049-.175 2.254-.722 3.874-2.862 3.799-5.373-.084-2.794-2.325-5.116-5.115-5.29-3.18-.2-5.821 2.32-5.821 5.457 0 2.436 1.594 4.497 3.795 5.204.075.025.101.116.05.176l-11.255 12.615c-.69.773-.624 1.96.15 2.65.773.69 1.96.624 2.65-.149l7.42-8.31c.274-.305.782-.112.782.298 0 2.752-.315 5.495-.938 8.175l-4.734 20.379c-.216.93.26 1.914 1.155 2.245 1.083.4 2.235-.245 2.488-1.334l3.626-16.784c.065-.3.494-.3.56 0l3.626 16.784c.201.867.973 1.453 1.827 1.453.209 0 .424-.035.635-.11.91-.323 1.399-1.317 1.18-2.258l-4.733-20.375c-.623-2.68-.938-5.423-.938-8.175 0-.41.508-.603.781-.297l7.42 8.309c.371.415.885.626 1.401.626.445 0 .892-.157 1.25-.477.774-.69.84-1.877.15-2.65M370.149 196.015l-11.26-12.614c-.053-.06-.027-.15.049-.175 2.255-.722 3.874-2.862 3.799-5.373-.084-2.794-2.325-5.116-5.116-5.29-3.18-.2-5.82 2.32-5.82 5.457 0 2.436 1.593 4.497 3.794 5.204.076.025.103.116.05.176l-11.254 12.615c-.691.773-.624 1.96.15 2.65.773.69 1.96.624 2.65-.149l7.42-8.31c.274-.305.781-.112.781.298 0 2.752-.314 5.495-.937 8.175l-4.735 20.379c-.216.93.26 1.914 1.156 2.245 1.084.4 2.235-.245 2.487-1.334l3.627-16.784c.065-.3.494-.3.56 0l3.626 16.784c.2.867.973 1.453 1.827 1.453.209 0 .424-.035.636-.11.909-.323 1.398-1.317 1.179-2.258l-4.733-20.375c-.623-2.68-.938-5.423-.937-8.175 0-.41.507-.603.78-.297l7.42 8.309c.37.415.885.626 1.401.626.445 0 .892-.157 1.25-.477.773-.69.84-1.877.15-2.65M401.661 196.015L390.4 183.4c-.052-.06-.026-.15.05-.175 2.254-.722 3.873-2.862 3.798-5.373-.083-2.794-2.324-5.116-5.115-5.29-3.18-.2-5.82 2.32-5.82 5.457 0 2.436 1.593 4.497 3.794 5.204.076.025.102.116.05.176l-11.254 12.615c-.691.773-.624 1.96.15 2.65.772.69 1.96.624 2.65-.149l7.42-8.31c.274-.305.781-.112.781.298 0 2.752-.314 5.495-.937 8.175l-4.735 20.379c-.216.93.26 1.914 1.156 2.245 1.084.4 2.235-.245 2.487-1.334l3.627-16.784c.065-.3.494-.3.56 0l3.625 16.784c.202.867.974 1.453 1.828 1.453.209 0 .424-.035.636-.11.909-.323 1.397-1.317 1.178-2.258l-4.732-20.375c-.623-2.68-.938-5.423-.938-8.175 0-.41.508-.603.78-.297l7.421 8.309c.37.415.885.626 1.4.626.446 0 .892-.157 1.251-.477.773-.69.84-1.877.15-2.65M432.63 196.015L421.368 183.4c-.053-.06-.026-.15.05-.175 2.254-.722 3.873-2.862 3.798-5.373-.084-2.794-2.324-5.116-5.115-5.29-3.18-.2-5.82 2.32-5.82 5.457 0 2.436 1.593 4.497 3.794 5.204.076.025.102.116.05.176l-11.255 12.615c-.691.773-.624 1.96.15 2.65.773.69 1.96.624 2.65-.149l7.421-8.31c.274-.305.78-.112.78.298 0 2.752-.314 5.495-.937 8.175l-4.734 20.379c-.216.93.26 1.914 1.155 2.245 1.084.4 2.236-.245 2.488-1.334l3.626-16.784c.065-.3.495-.3.56 0l3.626 16.784c.202.867.974 1.453 1.827 1.453.21 0 .424-.035.636-.11.91-.323 1.398-1.317 1.18-2.258l-4.734-20.375c-.623-2.68-.937-5.423-.937-8.175 0-.41.508-.603.78-.297l7.42 8.309c.371.415.886.626 1.402.626.445 0 .891-.157 1.25-.477.773-.69.84-1.877.15-2.65M464.141 196.015l-11.26-12.614c-.053-.06-.026-.15.05-.175 2.253-.722 3.873-2.862 3.797-5.373-.083-2.794-2.324-5.116-5.114-5.29-3.18-.2-5.821 2.32-5.821 5.457 0 2.436 1.594 4.497 3.795 5.204.075.025.102.116.05.176l-11.255 12.615c-.691.773-.624 1.96.15 2.65.773.69 1.96.624 2.65-.149l7.42-8.31c.274-.305.782-.112.782.298 0 2.752-.315 5.495-.938 8.175l-4.735 20.379c-.215.93.26 1.914 1.156 2.245 1.084.4 2.236-.245 2.488-1.334l3.626-16.784c.065-.3.495-.3.56 0l3.626 16.784c.201.867.973 1.453 1.827 1.453.21 0 .424-.035.636-.11.91-.323 1.398-1.317 1.179-2.258l-4.733-20.375c-.623-2.68-.938-5.423-.938-8.175 0-.41.508-.603.781-.297l7.42 8.309c.371.415.886.626 1.401.626.445 0 .892-.157 1.25-.477.773-.69.84-1.877.15-2.65M495.11 196.015L483.848 183.4c-.053-.06-.026-.15.05-.175 2.254-.722 3.873-2.862 3.798-5.373-.083-2.794-2.324-5.116-5.115-5.29-3.18-.2-5.82 2.32-5.82 5.457 0 2.436 1.593 4.497 3.794 5.204.076.025.102.116.05.176l-11.255 12.615c-.69.773-.624 1.96.15 2.65.773.69 1.96.624 2.65-.149l7.421-8.31c.274-.305.781-.112.781.298 0 2.752-.314 5.495-.938 8.175l-4.734 20.379c-.216.93.26 1.914 1.156 2.245 1.083.4 2.235-.245 2.487-1.334l3.626-16.784c.065-.3.495-.3.56 0l3.626 16.784c.202.867.974 1.453 1.828 1.453.208 0 .424-.035.635-.11.91-.323 1.398-1.317 1.18-2.258l-4.734-20.375c-.623-2.68-.937-5.423-.937-8.175 0-.41.508-.603.78-.297l7.42 8.309c.371.415.886.626 1.402.626.445 0 .891-.157 1.25-.477.773-.69.84-1.877.15-2.65M526.621 196.015l-11.26-12.614c-.053-.06-.026-.15.05-.175 2.253-.722 3.873-2.862 3.798-5.373-.084-2.794-2.324-5.116-5.115-5.29-3.18-.2-5.821 2.32-5.821 5.457 0 2.436 1.594 4.497 3.795 5.204.075.025.102.116.05.176l-11.255 12.615c-.69.773-.624 1.96.15 2.65.773.69 1.96.624 2.651-.149l7.42-8.31c.274-.305.78-.112.78.298 0 2.752-.313 5.495-.937 8.175l-4.734 20.379c-.216.93.26 1.914 1.155 2.245 1.084.4 2.236-.245 2.488-1.334l3.626-16.784c.065-.3.495-.3.56 0l3.626 16.784c.201.867.974 1.453 1.827 1.453.21 0 .424-.035.636-.11.91-.323 1.398-1.317 1.18-2.258l-4.734-20.375c-.623-2.68-.938-5.423-.938-8.175 0-.41.508-.603.781-.297l7.42 8.309c.371.415.886.626 1.402.626.445 0 .891-.157 1.25-.477.773-.69.84-1.877.15-2.65M557.59 196.015L546.329 183.4c-.053-.06-.026-.15.05-.175 2.254-.722 3.873-2.862 3.798-5.373-.083-2.794-2.324-5.116-5.114-5.29-3.18-.2-5.821 2.32-5.821 5.457 0 2.436 1.594 4.497 3.795 5.204.075.025.101.116.049.176l-11.254 12.615c-.691.773-.624 1.96.15 2.65.772.69 1.96.624 2.65-.149l7.42-8.31c.274-.305.781-.112.781.298 0 2.752-.314 5.495-.937 8.175l-4.735 20.379c-.215.93.26 1.914 1.156 2.245 1.083.4 2.236-.245 2.488-1.334l3.626-16.784c.064-.3.494-.3.56 0l3.625 16.784c.202.867.974 1.453 1.828 1.453.209 0 .424-.035.636-.11.91-.323 1.398-1.317 1.179-2.258l-4.733-20.375c-.623-2.68-.938-5.423-.938-8.175 0-.41.508-.603.78-.297l7.421 8.309c.37.415.885.626 1.401.626.445 0 .892-.157 1.25-.477.773-.69.84-1.877.15-2.65M589.102 196.015l-11.26-12.614c-.054-.06-.027-.15.049-.175 2.254-.722 3.873-2.862 3.798-5.373-.083-2.794-2.324-5.116-5.115-5.29-3.18-.2-5.82 2.32-5.82 5.457 0 2.436 1.593 4.497 3.794 5.204.076.025.102.116.05.176l-11.255 12.615c-.69.773-.623 1.96.15 2.65.774.69 1.96.624 2.651-.149l7.42-8.31c.274-.305.78-.112.78.298 0 2.752-.313 5.495-.936 8.175l-4.735 20.379c-.216.93.26 1.914 1.155 2.245 1.084.4 2.236-.245 2.488-1.334l3.627-16.784c.064-.3.494-.3.56 0l3.625 16.784c.202.867.974 1.453 1.828 1.453.209 0 .423-.035.635-.11.91-.323 1.399-1.317 1.18-2.258l-4.734-20.375c-.623-2.68-.937-5.423-.937-8.175 0-.41.508-.603.781-.297l7.42 8.309c.37.415.885.626 1.401.626.445 0 .892-.157 1.25-.477.773-.69.84-1.877.15-2.65M620.07 196.015L608.81 183.4c-.053-.06-.026-.15.05-.175 2.253-.722 3.873-2.862 3.798-5.373-.084-2.794-2.325-5.116-5.115-5.29-3.18-.2-5.821 2.32-5.821 5.457 0 2.436 1.594 4.497 3.795 5.204.075.025.101.116.05.176l-11.255 12.615c-.69.773-.624 1.96.15 2.65.773.69 1.96.624 2.65-.149l7.42-8.31c.274-.305.782-.112.782.298 0 2.752-.314 5.495-.938 8.175l-4.734 20.379c-.216.93.26 1.914 1.155 2.245 1.084.4 2.236-.245 2.488-1.334l3.626-16.784c.065-.3.495-.3.56 0l3.626 16.784c.201.867.973 1.453 1.827 1.453.21 0 .424-.035.636-.11.91-.323 1.398-1.317 1.179-2.258l-4.733-20.375c-.623-2.68-.938-5.423-.938-8.175 0-.41.508-.603.781-.297l7.42 8.309c.371.415.886.626 1.401.626.445 0 .892-.157 1.25-.477.774-.69.84-1.877.15-2.65M26.235 253.062l-11.26-12.613c-.053-.06-.026-.152.05-.176 2.254-.722 3.873-2.861 3.798-5.372-.083-2.795-2.324-5.117-5.115-5.292-3.18-.198-5.82 2.322-5.82 5.459 0 2.436 1.593 4.496 3.794 5.203.076.025.102.117.05.176L.478 253.062c-.692.773-.625 1.96.149 2.65.773.692 1.96.624 2.65-.149l7.421-8.31c.274-.305.781-.112.781.299 0 2.751-.315 5.494-.937 8.174l-4.735 20.38c-.216.93.26 1.913 1.155 2.244 1.084.4 2.236-.245 2.488-1.333l3.626-16.785c.065-.3.495-.3.56 0l3.626 16.785c.202.867.974 1.453 1.828 1.453.208 0 .423-.035.635-.11.91-.324 1.398-1.318 1.18-2.259l-4.733-20.375c-.624-2.68-.938-5.423-.938-8.175 0-.409.508-.602.78-.297l7.421 8.31c.37.414.885.626 1.4.626.446 0 .892-.157 1.25-.477.774-.69.84-1.878.15-2.651M57.204 253.062l-11.26-12.613c-.053-.06-.027-.152.049-.176 2.255-.722 3.874-2.861 3.799-5.372-.084-2.795-2.325-5.117-5.116-5.292-3.179-.198-5.82 2.322-5.82 5.459 0 2.436 1.594 4.496 3.794 5.203.077.025.103.117.05.176l-11.254 12.615c-.691.773-.624 1.96.15 2.65.773.692 1.96.624 2.65-.149l7.421-8.31c.273-.305.78-.112.78.299 0 2.751-.314 5.494-.937 8.174l-4.734 20.38c-.217.93.26 1.913 1.155 2.244 1.084.4 2.235-.245 2.488-1.333l3.626-16.785c.065-.3.495-.3.56 0l3.626 16.785c.201.867.973 1.453 1.827 1.453.21 0 .424-.035.636-.11.91-.324 1.398-1.318 1.18-2.259l-4.734-20.375c-.623-2.68-.937-5.423-.937-8.175 0-.409.507-.602.78-.297l7.42 8.31c.37.414.885.626 1.401.626.445 0 .892-.157 1.25-.477.773-.69.84-1.878.15-2.651M120.227 253.062l-11.26-12.613c-.053-.06-.026-.152.05-.176 2.254-.722 3.873-2.861 3.798-5.372-.083-2.795-2.324-5.117-5.115-5.292-3.18-.198-5.82 2.322-5.82 5.459 0 2.436 1.593 4.496 3.794 5.203.076.025.102.117.05.176l-11.255 12.615c-.69.773-.623 1.96.15 2.65.773.692 1.96.624 2.651-.149l7.42-8.31c.274-.305.781-.112.781.299 0 2.751-.314 5.494-.938 8.174l-4.734 20.38c-.216.93.26 1.913 1.156 2.244 1.083.4 2.235-.245 2.487-1.333l3.627-16.785c.064-.3.494-.3.56 0l3.625 16.785c.202.867.974 1.453 1.828 1.453.208 0 .423-.035.635-.11.91-.324 1.398-1.318 1.18-2.259l-4.734-20.375c-.623-2.68-.937-5.423-.937-8.175 0-.409.508-.602.78-.297l7.42 8.31c.371.414.886.626 1.402.626.445 0 .891-.157 1.25-.477.773-.69.84-1.878.15-2.651M151.196 253.062l-11.26-12.613c-.053-.06-.026-.152.05-.176 2.253-.722 3.873-2.861 3.797-5.372-.083-2.795-2.323-5.117-5.114-5.292-3.18-.198-5.821 2.322-5.821 5.459 0 2.436 1.594 4.496 3.795 5.203.075.025.102.117.05.176l-11.255 12.615c-.691.773-.624 1.96.15 2.65.773.692 1.96.624 2.65-.149l7.42-8.31c.275-.305.781-.112.781.299 0 2.751-.314 5.494-.937 8.174l-4.735 20.38c-.215.93.26 1.913 1.156 2.244 1.084.4 2.236-.245 2.488-1.333l3.626-16.785c.065-.3.495-.3.56 0l3.626 16.785c.201.867.974 1.453 1.827 1.453.21 0 .424-.035.636-.11.91-.324 1.398-1.318 1.18-2.259l-4.734-20.375c-.623-2.68-.938-5.423-.938-8.175 0-.409.508-.602.781-.297l7.42 8.31c.371.414.885.626 1.402.626.445 0 .891-.157 1.25-.477.772-.69.84-1.878.15-2.651M182.708 253.062l-11.26-12.613c-.054-.06-.026-.152.049-.176 2.254-.722 3.873-2.861 3.798-5.372-.083-2.795-2.324-5.117-5.114-5.292-3.18-.198-5.821 2.322-5.821 5.459 0 2.436 1.594 4.496 3.795 5.203.075.025.101.117.05.176l-11.255 12.615c-.691.773-.624 1.96.15 2.65.773.692 1.96.624 2.65-.149l7.42-8.31c.274-.305.781-.112.781.299 0 2.751-.314 5.494-.937 8.174l-4.735 20.38c-.215.93.26 1.913 1.156 2.244 1.083.4 2.235-.245 2.488-1.333l3.626-16.785c.064-.3.494-.3.56 0l3.625 16.785c.202.867.974 1.453 1.828 1.453.209 0 .424-.035.636-.11.91-.324 1.398-1.318 1.179-2.259l-4.734-20.375c-.622-2.68-.937-5.423-.937-8.175 0-.409.508-.602.781-.297l7.42 8.31c.371.414.885.626 1.401.626.445 0 .892-.157 1.25-.477.773-.69.84-1.878.15-2.651M213.676 253.062l-11.26-12.613c-.053-.06-.026-.152.05-.176 2.254-.722 3.873-2.861 3.798-5.372-.084-2.795-2.324-5.117-5.115-5.292-3.18-.198-5.82 2.322-5.82 5.459 0 2.436 1.593 4.496 3.794 5.203.076.025.102.117.05.176l-11.255 12.615c-.69.773-.623 1.96.15 2.65.773.692 1.96.624 2.651-.149l7.42-8.31c.274-.305.78-.112.78.299 0 2.751-.313 5.494-.937 8.174l-4.734 20.38c-.216.93.26 1.913 1.155 2.244 1.084.4 2.236-.245 2.488-1.333l3.627-16.785c.064-.3.494-.3.56 0l3.625 16.785c.201.867.974 1.453 1.827 1.453.21 0 .424-.035.636-.11.91-.324 1.398-1.318 1.18-2.259l-4.734-20.375c-.623-2.68-.937-5.423-.937-8.175 0-.409.507-.602.78-.297l7.42 8.31c.371.414.886.626 1.402.626.445 0 .891-.157 1.25-.477.773-.69.84-1.878.15-2.651M245.189 253.062l-11.262-12.613c-.052-.06-.025-.152.05-.176 2.255-.722 3.874-2.861 3.799-5.372-.083-2.795-2.325-5.117-5.115-5.292-3.18-.198-5.821 2.322-5.821 5.459 0 2.436 1.594 4.496 3.795 5.203.075.025.102.117.05.176l-11.255 12.615c-.69.773-.624 1.96.15 2.65.773.692 1.96.624 2.65-.149l7.421-8.31c.273-.305.78-.112.78.299 0 2.751-.314 5.494-.936 8.174l-4.735 20.38c-.216.93.26 1.913 1.155 2.244 1.084.4 2.236-.245 2.488-1.333l3.626-16.785c.065-.3.494-.3.56 0l3.626 16.785c.201.867.973 1.453 1.827 1.453.21 0 .424-.035.636-.11.91-.324 1.398-1.318 1.179-2.259l-4.733-20.375c-.623-2.68-.937-5.423-.937-8.175 0-.409.508-.602.78-.297l7.42 8.31c.371.414.885.626 1.401.626.445 0 .892-.157 1.25-.477.774-.69.841-1.878.15-2.651M276.157 253.062l-11.261-12.613c-.053-.06-.026-.152.05-.176 2.254-.722 3.873-2.861 3.798-5.372-.083-2.795-2.324-5.117-5.115-5.292-3.18-.198-5.82 2.322-5.82 5.459 0 2.436 1.593 4.496 3.794 5.203.076.025.102.117.05.176l-11.255 12.615c-.69.773-.623 1.96.15 2.65.773.692 1.96.624 2.651-.149l7.42-8.31c.274-.305.781-.112.781.299 0 2.751-.314 5.494-.937 8.174l-4.735 20.38c-.215.93.26 1.913 1.156 2.244 1.083.4 2.235-.245 2.488-1.333l3.626-16.785c.064-.3.494-.3.56 0l3.625 16.785c.202.867.974 1.453 1.828 1.453.209 0 .423-.035.635-.11.91-.324 1.399-1.318 1.18-2.259l-4.734-20.375c-.623-2.68-.937-5.423-.937-8.175 0-.409.508-.602.78-.297l7.42 8.31c.371.414.886.626 1.402.626.445 0 .892-.157 1.25-.477.773-.69.84-1.878.15-2.651M307.669 253.062l-11.261-12.613c-.053-.06-.026-.152.05-.176 2.254-.722 3.873-2.861 3.798-5.372-.083-2.795-2.324-5.117-5.115-5.292-3.18-.198-5.82 2.322-5.82 5.459 0 2.436 1.593 4.496 3.794 5.203.076.025.102.117.05.176l-11.255 12.615c-.69.773-.623 1.96.15 2.65.774.692 1.96.624 2.651-.149l7.42-8.31c.273-.305.78-.112.78.299 0 2.751-.313 5.494-.936 8.174l-4.735 20.38c-.216.93.26 1.913 1.155 2.244 1.084.4 2.236-.245 2.488-1.333l3.626-16.785c.065-.3.495-.3.56 0l3.626 16.785c.201.867.973 1.453 1.828 1.453.209 0 .423-.035.635-.11.91-.324 1.398-1.318 1.18-2.259l-4.734-20.375c-.623-2.68-.937-5.423-.937-8.175 0-.409.508-.602.78-.297l7.42 8.31c.371.414.886.626 1.402.626.445 0 .892-.157 1.25-.477.773-.69.84-1.878.15-2.651M338.637 253.062l-11.26-12.613c-.053-.06-.026-.152.049-.176 2.254-.722 3.874-2.861 3.799-5.372-.084-2.795-2.325-5.117-5.115-5.292-3.18-.198-5.821 2.322-5.821 5.459 0 2.436 1.594 4.496 3.795 5.203.075.025.101.117.05.176l-11.255 12.615c-.69.773-.624 1.96.15 2.65.773.692 1.96.624 2.65-.149l7.42-8.31c.274-.305.782-.112.782.299 0 2.751-.315 5.494-.938 8.174l-4.734 20.38c-.216.93.26 1.913 1.155 2.244 1.083.4 2.235-.245 2.488-1.333l3.626-16.785c.065-.3.494-.3.56 0l3.626 16.785c.201.867.973 1.453 1.827 1.453.209 0 .424-.035.635-.11.91-.324 1.399-1.318 1.18-2.259l-4.733-20.375c-.623-2.68-.938-5.423-.938-8.175 0-.409.508-.602.781-.297l7.42 8.31c.371.414.885.626 1.401.626.445 0 .892-.157 1.25-.477.774-.69.84-1.878.15-2.651M401.661 253.062L390.4 240.449c-.052-.06-.026-.152.05-.176 2.254-.722 3.873-2.861 3.798-5.372-.083-2.795-2.324-5.117-5.115-5.292-3.18-.198-5.82 2.322-5.82 5.459 0 2.436 1.593 4.496 3.794 5.203.076.025.102.117.05.176l-11.254 12.615c-.691.773-.624 1.96.15 2.65.772.692 1.96.624 2.65-.149l7.42-8.31c.274-.305.781-.112.781.299 0 2.751-.314 5.494-.937 8.174l-4.735 20.38c-.216.93.26 1.913 1.156 2.244 1.084.4 2.235-.245 2.487-1.333l3.627-16.785c.065-.3.494-.3.56 0l3.625 16.785c.202.867.974 1.453 1.828 1.453.209 0 .424-.035.636-.11.909-.324 1.397-1.318 1.178-2.259l-4.732-20.375c-.623-2.68-.938-5.423-.938-8.175 0-.409.508-.602.78-.297l7.421 8.31c.37.414.885.626 1.4.626.446 0 .892-.157 1.251-.477.773-.69.84-1.878.15-2.651M432.63 253.062l-11.261-12.613c-.053-.06-.026-.152.05-.176 2.254-.722 3.873-2.861 3.798-5.372-.084-2.795-2.324-5.117-5.115-5.292-3.18-.198-5.82 2.322-5.82 5.459 0 2.436 1.593 4.496 3.794 5.203.076.025.102.117.05.176l-11.255 12.615c-.691.773-.624 1.96.15 2.65.773.692 1.96.624 2.65-.149l7.421-8.31c.274-.305.78-.112.78.299 0 2.751-.314 5.494-.937 8.174l-4.734 20.38c-.216.93.26 1.913 1.155 2.244 1.084.4 2.236-.245 2.488-1.333l3.626-16.785c.065-.3.495-.3.56 0l3.626 16.785c.202.867.974 1.453 1.827 1.453.21 0 .424-.035.636-.11.91-.324 1.398-1.318 1.18-2.259l-4.734-20.375c-.623-2.68-.937-5.423-.937-8.175 0-.409.508-.602.78-.297l7.42 8.31c.371.414.886.626 1.402.626.445 0 .891-.157 1.25-.477.773-.69.84-1.878.15-2.651M464.141 253.062l-11.26-12.613c-.053-.06-.026-.152.05-.176 2.253-.722 3.873-2.861 3.797-5.372-.083-2.795-2.324-5.117-5.114-5.292-3.18-.198-5.821 2.322-5.821 5.459 0 2.436 1.594 4.496 3.795 5.203.075.025.102.117.05.176l-11.255 12.615c-.691.773-.624 1.96.15 2.65.773.692 1.96.624 2.65-.149l7.42-8.31c.274-.305.782-.112.782.299 0 2.751-.315 5.494-.938 8.174l-4.735 20.38c-.215.93.26 1.913 1.156 2.244 1.084.4 2.236-.245 2.488-1.333l3.626-16.785c.065-.3.495-.3.56 0l3.626 16.785c.201.867.973 1.453 1.827 1.453.21 0 .424-.035.636-.11.91-.324 1.398-1.318 1.179-2.259l-4.733-20.375c-.623-2.68-.938-5.423-.938-8.175 0-.409.508-.602.781-.297l7.42 8.31c.371.414.886.626 1.401.626.445 0 .892-.157 1.25-.477.773-.69.84-1.878.15-2.651M495.11 253.062l-11.261-12.613c-.053-.06-.026-.152.05-.176 2.254-.722 3.873-2.861 3.798-5.372-.083-2.795-2.324-5.117-5.115-5.292-3.18-.198-5.82 2.322-5.82 5.459 0 2.436 1.593 4.496 3.794 5.203.076.025.102.117.05.176l-11.255 12.615c-.69.773-.624 1.96.15 2.65.773.692 1.96.624 2.65-.149l7.421-8.31c.274-.305.781-.112.781.299 0 2.751-.314 5.494-.938 8.174l-4.734 20.38c-.216.93.26 1.913 1.156 2.244 1.083.4 2.235-.245 2.487-1.333l3.626-16.785c.065-.3.495-.3.56 0l3.626 16.785c.202.867.974 1.453 1.828 1.453.208 0 .424-.035.635-.11.91-.324 1.398-1.318 1.18-2.259l-4.734-20.375c-.623-2.68-.937-5.423-.937-8.175 0-.409.508-.602.78-.297l7.42 8.31c.371.414.886.626 1.402.626.445 0 .891-.157 1.25-.477.773-.69.84-1.878.15-2.651M526.621 253.062l-11.26-12.613c-.053-.06-.026-.152.05-.176 2.253-.722 3.873-2.861 3.798-5.372-.084-2.795-2.324-5.117-5.115-5.292-3.18-.198-5.821 2.322-5.821 5.459 0 2.436 1.594 4.496 3.795 5.203.075.025.102.117.05.176l-11.255 12.615c-.69.773-.624 1.96.15 2.65.773.692 1.96.624 2.651-.149l7.42-8.31c.274-.305.78-.112.78.299 0 2.751-.313 5.494-.937 8.174l-4.734 20.38c-.216.93.26 1.913 1.155 2.244 1.084.4 2.236-.245 2.488-1.333l3.626-16.785c.065-.3.495-.3.56 0l3.626 16.785c.201.867.974 1.453 1.827 1.453.21 0 .424-.035.636-.11.91-.324 1.398-1.318 1.18-2.259l-4.734-20.375c-.623-2.68-.938-5.423-.938-8.175 0-.409.508-.602.781-.297l7.42 8.31c.371.414.886.626 1.402.626.445 0 .891-.157 1.25-.477.773-.69.84-1.878.15-2.651M589.102 253.062l-11.26-12.613c-.054-.06-.027-.152.049-.176 2.254-.722 3.873-2.861 3.798-5.372-.083-2.795-2.324-5.117-5.115-5.292-3.18-.198-5.82 2.322-5.82 5.459 0 2.436 1.593 4.496 3.794 5.203.076.025.102.117.05.176l-11.255 12.615c-.69.773-.623 1.96.15 2.65.774.692 1.96.624 2.651-.149l7.42-8.31c.274-.305.78-.112.78.299 0 2.751-.313 5.494-.936 8.174l-4.735 20.38c-.216.93.26 1.913 1.155 2.244 1.084.4 2.236-.245 2.488-1.333l3.627-16.785c.064-.3.494-.3.56 0l3.625 16.785c.202.867.974 1.453 1.828 1.453.209 0 .423-.035.635-.11.91-.324 1.399-1.318 1.18-2.259l-4.734-20.375c-.623-2.68-.937-5.423-.937-8.175 0-.409.508-.602.781-.297l7.42 8.31c.37.414.885.626 1.401.626.445 0 .892-.157 1.25-.477.773-.69.84-1.878.15-2.651M620.07 253.062l-11.26-12.613c-.053-.06-.026-.152.05-.176 2.253-.722 3.873-2.861 3.798-5.372-.084-2.795-2.325-5.117-5.115-5.292-3.18-.198-5.821 2.322-5.821 5.459 0 2.436 1.594 4.496 3.795 5.203.075.025.101.117.05.176l-11.255 12.615c-.69.773-.624 1.96.15 2.65.773.692 1.96.624 2.65-.149l7.42-8.31c.274-.305.782-.112.782.299 0 2.751-.314 5.494-.938 8.174l-4.734 20.38c-.216.93.26 1.913 1.155 2.244 1.084.4 2.236-.245 2.488-1.333l3.626-16.785c.065-.3.495-.3.56 0l3.626 16.785c.201.867.973 1.453 1.827 1.453.21 0 .424-.035.636-.11.91-.324 1.398-1.318 1.179-2.259l-4.733-20.375c-.623-2.68-.938-5.423-.938-8.175 0-.409.508-.602.781-.297l7.42 8.31c.371.414.886.626 1.401.626.445 0 .892-.157 1.25-.477.774-.69.84-1.878.15-2.651M26.235 309.566l-11.26-12.614c-.053-.059-.026-.15.05-.175 2.254-.722 3.873-2.862 3.798-5.372-.083-2.795-2.324-5.117-5.115-5.292-3.18-.198-5.82 2.322-5.82 5.459 0 2.436 1.593 4.496 3.794 5.203.076.025.102.116.05.176L.478 309.566c-.692.773-.625 1.96.149 2.65.773.691 1.96.624 2.65-.149l7.421-8.31c.274-.305.781-.112.781.299 0 2.751-.315 5.494-.937 8.174l-4.735 20.38c-.216.93.26 1.913 1.155 2.244 1.084.4 2.236-.245 2.488-1.334l3.626-16.784c.065-.3.495-.3.56 0l3.626 16.784c.202.868.974 1.454 1.828 1.454.208 0 .423-.036.635-.11.91-.324 1.398-1.318 1.18-2.259l-4.733-20.375c-.624-2.68-.938-5.423-.938-8.175 0-.41.508-.603.78-.297l7.421 8.31c.37.414.885.626 1.4.626.446 0 .892-.157 1.25-.477.774-.691.84-1.878.15-2.651M57.204 309.566l-11.26-12.614c-.053-.059-.027-.15.049-.175 2.255-.722 3.874-2.862 3.799-5.372-.084-2.795-2.325-5.117-5.116-5.292-3.179-.198-5.82 2.322-5.82 5.459 0 2.436 1.594 4.496 3.794 5.203.077.025.103.116.05.176l-11.254 12.615c-.691.773-.624 1.96.15 2.65.773.691 1.96.624 2.65-.149l7.421-8.31c.273-.305.78-.112.78.299 0 2.751-.314 5.494-.937 8.174l-4.734 20.38c-.217.93.26 1.913 1.155 2.244 1.084.4 2.235-.245 2.488-1.334l3.626-16.784c.065-.3.495-.3.56 0l3.626 16.784c.201.868.973 1.454 1.827 1.454.21 0 .424-.036.636-.11.91-.324 1.398-1.318 1.18-2.259L47.14 312.23c-.623-2.68-.937-5.423-.937-8.175 0-.41.507-.603.78-.297l7.42 8.31c.37.414.885.626 1.401.626.445 0 .892-.157 1.25-.477.773-.691.84-1.878.15-2.651M88.716 309.566l-11.261-12.614c-.052-.059-.026-.15.05-.175 2.254-.722 3.874-2.862 3.798-5.372-.083-2.795-2.324-5.117-5.115-5.292-3.18-.198-5.82 2.322-5.82 5.459 0 2.436 1.594 4.496 3.795 5.203.075.025.101.116.049.176l-11.254 12.615c-.691.773-.624 1.96.15 2.65.772.691 1.96.624 2.65-.149l7.42-8.31c.274-.305.781-.112.781.299 0 2.751-.314 5.494-.937 8.174l-4.735 20.38c-.216.93.26 1.913 1.156 2.244 1.084.4 2.236-.245 2.488-1.334l3.626-16.784c.065-.3.495-.3.56 0l3.625 16.784c.202.868.974 1.454 1.828 1.454.21 0 .424-.036.636-.11.91-.324 1.398-1.318 1.179-2.259l-4.733-20.375c-.623-2.68-.938-5.423-.938-8.175 0-.41.508-.603.78-.297l7.421 8.31c.37.414.885.626 1.401.626.445 0 .892-.157 1.25-.477.773-.691.84-1.878.15-2.651M120.227 309.566l-11.26-12.614c-.053-.059-.026-.15.05-.175 2.254-.722 3.873-2.862 3.798-5.372-.083-2.795-2.324-5.117-5.115-5.292-3.18-.198-5.82 2.322-5.82 5.459 0 2.436 1.593 4.496 3.794 5.203.076.025.102.116.05.176l-11.255 12.615c-.69.773-.623 1.96.15 2.65.773.691 1.96.624 2.651-.149l7.42-8.31c.274-.305.781-.112.781.299 0 2.751-.314 5.494-.938 8.174L99.8 332.61c-.216.93.26 1.913 1.156 2.244 1.083.4 2.235-.245 2.487-1.334l3.627-16.784c.064-.3.494-.3.56 0l3.625 16.784c.202.868.974 1.454 1.828 1.454.208 0 .423-.036.635-.11.91-.324 1.398-1.318 1.18-2.259l-4.734-20.375c-.623-2.68-.937-5.423-.937-8.175 0-.41.508-.603.78-.297l7.42 8.31c.371.414.886.626 1.402.626.445 0 .891-.157 1.25-.477.773-.691.84-1.878.15-2.651M151.196 309.566l-11.26-12.614c-.053-.059-.026-.15.05-.175 2.253-.722 3.873-2.862 3.797-5.372-.083-2.795-2.323-5.117-5.114-5.292-3.18-.198-5.821 2.322-5.821 5.459 0 2.436 1.594 4.496 3.795 5.203.075.025.102.116.05.176l-11.255 12.615c-.691.773-.624 1.96.15 2.65.773.691 1.96.624 2.65-.149l7.42-8.31c.275-.305.781-.112.781.299 0 2.751-.314 5.494-.937 8.174l-4.735 20.38c-.215.93.26 1.913 1.156 2.244 1.084.4 2.236-.245 2.488-1.334l3.626-16.784c.065-.3.495-.3.56 0l3.626 16.784c.201.868.974 1.454 1.827 1.454.21 0 .424-.036.636-.11.91-.324 1.398-1.318 1.18-2.259l-4.734-20.375c-.623-2.68-.938-5.423-.938-8.175 0-.41.508-.603.781-.297l7.42 8.31c.371.414.885.626 1.402.626.445 0 .891-.157 1.25-.477.772-.691.84-1.878.15-2.651M182.708 309.566l-11.26-12.614c-.054-.059-.026-.15.049-.175 2.254-.722 3.873-2.862 3.798-5.372-.083-2.795-2.324-5.117-5.114-5.292-3.18-.198-5.821 2.322-5.821 5.459 0 2.436 1.594 4.496 3.795 5.203.075.025.101.116.05.176l-11.255 12.615c-.691.773-.624 1.96.15 2.65.773.691 1.96.624 2.65-.149l7.42-8.31c.274-.305.781-.112.781.299 0 2.751-.314 5.494-.937 8.174l-4.735 20.38c-.215.93.26 1.913 1.156 2.244 1.083.4 2.235-.245 2.488-1.334l3.626-16.784c.064-.3.494-.3.56 0l3.625 16.784c.202.868.974 1.454 1.828 1.454.209 0 .424-.036.636-.11.91-.324 1.398-1.318 1.179-2.259l-4.734-20.375c-.622-2.68-.937-5.423-.937-8.175 0-.41.508-.603.781-.297l7.42 8.31c.371.414.885.626 1.401.626.445 0 .892-.157 1.25-.477.773-.691.84-1.878.15-2.651M213.676 309.566l-11.26-12.614c-.053-.059-.026-.15.05-.175 2.254-.722 3.873-2.862 3.798-5.372-.084-2.795-2.324-5.117-5.115-5.292-3.18-.198-5.82 2.322-5.82 5.459 0 2.436 1.593 4.496 3.794 5.203.076.025.102.116.05.176l-11.255 12.615c-.69.773-.623 1.96.15 2.65.773.691 1.96.624 2.651-.149l7.42-8.31c.274-.305.78-.112.78.299 0 2.751-.313 5.494-.937 8.174l-4.734 20.38c-.216.93.26 1.913 1.155 2.244 1.084.4 2.236-.245 2.488-1.334l3.627-16.784c.064-.3.494-.3.56 0l3.625 16.784c.201.868.974 1.454 1.827 1.454.21 0 .424-.036.636-.11.91-.324 1.398-1.318 1.18-2.259l-4.734-20.375c-.623-2.68-.937-5.423-.937-8.175 0-.41.507-.603.78-.297l7.42 8.31c.371.414.886.626 1.402.626.445 0 .891-.157 1.25-.477.773-.691.84-1.878.15-2.651M276.157 309.566l-11.261-12.614c-.053-.059-.026-.15.05-.175 2.254-.722 3.873-2.862 3.798-5.372-.083-2.795-2.324-5.117-5.115-5.292-3.18-.198-5.82 2.322-5.82 5.459 0 2.436 1.593 4.496 3.794 5.203.076.025.102.116.05.176l-11.255 12.615c-.69.773-.623 1.96.15 2.65.773.691 1.96.624 2.651-.149l7.42-8.31c.274-.305.781-.112.781.299 0 2.751-.314 5.494-.937 8.174l-4.735 20.38c-.215.93.26 1.913 1.156 2.244 1.083.4 2.235-.245 2.488-1.334l3.626-16.784c.064-.3.494-.3.56 0l3.625 16.784c.202.868.974 1.454 1.828 1.454.209 0 .423-.036.635-.11.91-.324 1.399-1.318 1.18-2.259l-4.734-20.375c-.623-2.68-.937-5.423-.937-8.175 0-.41.508-.603.78-.297l7.42 8.31c.371.414.886.626 1.402.626.445 0 .892-.157 1.25-.477.773-.691.84-1.878.15-2.651M307.669 309.566l-11.261-12.614c-.053-.059-.026-.15.05-.175 2.254-.722 3.873-2.862 3.798-5.372-.083-2.795-2.324-5.117-5.115-5.292-3.18-.198-5.82 2.322-5.82 5.459 0 2.436 1.593 4.496 3.794 5.203.076.025.102.116.05.176l-11.255 12.615c-.69.773-.623 1.96.15 2.65.774.691 1.96.624 2.651-.149l7.42-8.31c.273-.305.78-.112.78.299 0 2.751-.313 5.494-.936 8.174l-4.735 20.38c-.216.93.26 1.913 1.155 2.244 1.084.4 2.236-.245 2.488-1.334l3.626-16.784c.065-.3.495-.3.56 0l3.626 16.784c.201.868.973 1.454 1.828 1.454.209 0 .423-.036.635-.11.91-.324 1.398-1.318 1.18-2.259l-4.734-20.375c-.623-2.68-.937-5.423-.937-8.175 0-.41.508-.603.78-.297l7.42 8.31c.371.414.886.626 1.402.626.445 0 .892-.157 1.25-.477.773-.691.84-1.878.15-2.651M338.637 309.566l-11.26-12.614c-.053-.059-.026-.15.049-.175 2.254-.722 3.874-2.862 3.799-5.372-.084-2.795-2.325-5.117-5.115-5.292-3.18-.198-5.821 2.322-5.821 5.459 0 2.436 1.594 4.496 3.795 5.203.075.025.101.116.05.176l-11.255 12.615c-.69.773-.624 1.96.15 2.65.773.691 1.96.624 2.65-.149l7.42-8.31c.274-.305.782-.112.782.299 0 2.751-.315 5.494-.938 8.174l-4.734 20.38c-.216.93.26 1.913 1.155 2.244 1.083.4 2.235-.245 2.488-1.334l3.626-16.784c.065-.3.494-.3.56 0l3.626 16.784c.201.868.973 1.454 1.827 1.454.209 0 .424-.036.635-.11.91-.324 1.399-1.318 1.18-2.259l-4.733-20.375c-.623-2.68-.938-5.423-.938-8.175 0-.41.508-.603.781-.297l7.42 8.31c.371.414.885.626 1.401.626.445 0 .892-.157 1.25-.477.774-.691.84-1.878.15-2.651M370.149 309.566l-11.26-12.614c-.053-.059-.027-.15.049-.175 2.255-.722 3.874-2.862 3.799-5.372-.084-2.795-2.325-5.117-5.116-5.292-3.18-.198-5.82 2.322-5.82 5.459 0 2.436 1.593 4.496 3.794 5.203.076.025.103.116.05.176l-11.254 12.615c-.691.773-.624 1.96.15 2.65.773.691 1.96.624 2.65-.149l7.42-8.31c.274-.305.781-.112.781.299 0 2.751-.314 5.494-.937 8.174l-4.735 20.38c-.216.93.26 1.913 1.156 2.244 1.084.4 2.235-.245 2.487-1.334l3.627-16.784c.065-.3.494-.3.56 0l3.626 16.784c.2.868.973 1.454 1.827 1.454.209 0 .424-.036.636-.11.909-.324 1.398-1.318 1.179-2.259l-4.733-20.375c-.623-2.68-.938-5.423-.937-8.175 0-.41.507-.603.78-.297l7.42 8.31c.37.414.885.626 1.401.626.445 0 .892-.157 1.25-.477.773-.691.84-1.878.15-2.651M401.661 309.566L390.4 296.952c-.052-.059-.026-.15.05-.175 2.254-.722 3.873-2.862 3.798-5.372-.083-2.795-2.324-5.117-5.115-5.292-3.18-.198-5.82 2.322-5.82 5.459 0 2.436 1.593 4.496 3.794 5.203.076.025.102.116.05.176l-11.254 12.615c-.691.773-.624 1.96.15 2.65.772.691 1.96.624 2.65-.149l7.42-8.31c.274-.305.781-.112.781.299 0 2.751-.314 5.494-.937 8.174l-4.735 20.38c-.216.93.26 1.913 1.156 2.244 1.084.4 2.235-.245 2.487-1.334l3.627-16.784c.065-.3.494-.3.56 0l3.625 16.784c.202.868.974 1.454 1.828 1.454.209 0 .424-.036.636-.11.909-.324 1.397-1.318 1.178-2.259l-4.732-20.375c-.623-2.68-.938-5.423-.938-8.175 0-.41.508-.603.78-.297l7.421 8.31c.37.414.885.626 1.4.626.446 0 .892-.157 1.251-.477.773-.691.84-1.878.15-2.651" fill="#CDCCE2"/>
        <path d="M432.63 309.566l-11.261-12.614c-.053-.059-.026-.15.05-.175 2.254-.722 3.873-2.862 3.798-5.372-.084-2.795-2.324-5.117-5.115-5.292-3.18-.198-5.82 2.322-5.82 5.459 0 2.436 1.593 4.496 3.794 5.203.076.025.102.116.05.176l-11.255 12.615c-.691.773-.624 1.96.15 2.65.773.691 1.96.624 2.65-.149l7.421-8.31c.274-.305.78-.112.78.299 0 2.751-.314 5.494-.937 8.174l-4.734 20.38c-.216.93.26 1.913 1.155 2.244 1.084.4 2.236-.245 2.488-1.334l3.626-16.784c.065-.3.495-.3.56 0l3.626 16.784c.202.868.974 1.454 1.827 1.454.21 0 .424-.036.636-.11.91-.324 1.398-1.318 1.18-2.259l-4.734-20.375c-.623-2.68-.937-5.423-.937-8.175 0-.41.508-.603.78-.297l7.42 8.31c.371.414.886.626 1.402.626.445 0 .891-.157 1.25-.477.773-.691.84-1.878.15-2.651M120.227 82.463l-11.26-12.613c-.053-.06-.026-.151.05-.175 2.254-.722 3.873-2.862 3.798-5.373-.083-2.794-2.324-5.116-5.115-5.291-3.18-.199-5.82 2.322-5.82 5.459 0 2.435 1.593 4.495 3.794 5.203.076.024.102.116.05.175L94.469 82.463c-.69.774-.623 1.96.15 2.651.773.691 1.96.624 2.651-.15l7.42-8.309c.274-.305.781-.112.781.298 0 2.752-.314 5.495-.938 8.175L99.8 105.507c-.216.93.26 1.914 1.156 2.245 1.083.4 2.235-.245 2.487-1.334l3.627-16.784c.064-.301.494-.301.56 0l3.625 16.784c.202.867.974 1.453 1.828 1.453.208 0 .423-.035.635-.11.91-.323 1.398-1.318 1.18-2.258l-4.734-20.375c-.623-2.68-.937-5.424-.937-8.175 0-.41.508-.603.78-.298l7.42 8.31c.371.415.886.627 1.402.627.445 0 .891-.158 1.25-.478.773-.69.84-1.877.15-2.65M432.63 82.463L421.368 69.85c-.053-.06-.026-.151.05-.175 2.254-.722 3.873-2.862 3.798-5.373-.084-2.794-2.324-5.116-5.115-5.291-3.18-.199-5.82 2.322-5.82 5.459 0 2.435 1.593 4.495 3.794 5.203.076.024.102.116.05.175L406.87 82.463c-.691.774-.624 1.96.15 2.651.773.691 1.96.624 2.65-.15l7.421-8.309c.274-.305.78-.112.78.298 0 2.752-.314 5.495-.937 8.175l-4.734 20.379c-.216.93.26 1.914 1.155 2.245 1.084.4 2.236-.245 2.488-1.334l3.626-16.784c.065-.301.495-.301.56 0l3.626 16.784c.202.867.974 1.453 1.827 1.453.21 0 .424-.035.636-.11.91-.323 1.398-1.318 1.18-2.258l-4.734-20.375c-.623-2.68-.937-5.424-.937-8.175 0-.41.508-.603.78-.298l7.42 8.31c.371.415.886.627 1.402.627.445 0 .891-.158 1.25-.478.773-.69.84-1.877.15-2.65" fill="#19CA94"/>
        <path d="M557.59 139.51l-11.261-12.613c-.053-.059-.026-.15.05-.175 2.254-.722 3.873-2.862 3.798-5.372-.083-2.795-2.324-5.117-5.114-5.292-3.18-.199-5.821 2.322-5.821 5.459 0 2.436 1.594 4.496 3.795 5.203.075.025.101.116.049.176l-11.254 12.615c-.691.773-.624 1.96.15 2.65.772.692 1.96.624 2.65-.149l7.42-8.31c.274-.305.781-.112.781.298 0 2.752-.314 5.495-.937 8.175l-4.735 20.379c-.215.93.26 1.914 1.156 2.245 1.083.4 2.236-.245 2.488-1.333l3.626-16.785c.064-.3.494-.3.56 0l3.625 16.785c.202.867.974 1.452 1.828 1.452.209 0 .424-.035.636-.11.91-.323 1.398-1.317 1.179-2.258l-4.733-20.375c-.623-2.68-.938-5.423-.938-8.175 0-.41.508-.603.78-.297l7.421 8.309c.37.415.885.627 1.401.627.445 0 .892-.158 1.25-.478.773-.69.84-1.877.15-2.65" fill="#CDCCE2"/>
        <path d="M245.189 196.015L233.927 183.4c-.052-.06-.025-.15.05-.175 2.255-.722 3.874-2.862 3.799-5.373-.083-2.794-2.325-5.116-5.115-5.29-3.18-.2-5.821 2.32-5.821 5.457 0 2.436 1.594 4.497 3.795 5.204.075.025.102.116.05.176l-11.255 12.615c-.69.773-.624 1.96.15 2.65.773.69 1.96.624 2.65-.149l7.421-8.31c.273-.305.78-.112.78.298 0 2.752-.314 5.495-.936 8.175l-4.735 20.379c-.216.93.26 1.914 1.155 2.245 1.084.4 2.236-.245 2.488-1.334l3.626-16.784c.065-.3.494-.3.56 0l3.626 16.784c.201.867.973 1.453 1.827 1.453.21 0 .424-.035.636-.11.91-.323 1.398-1.317 1.179-2.258l-4.733-20.375c-.623-2.68-.937-5.423-.937-8.175 0-.41.508-.603.78-.297l7.42 8.309c.371.415.885.626 1.401.626.445 0 .892-.157 1.25-.477.774-.69.841-1.877.15-2.65M88.716 253.062l-11.261-12.613c-.052-.06-.026-.152.05-.176 2.254-.722 3.874-2.861 3.798-5.372-.083-2.795-2.324-5.117-5.115-5.292-3.18-.198-5.82 2.322-5.82 5.459 0 2.436 1.594 4.496 3.795 5.203.075.025.101.117.049.176l-11.254 12.615c-.691.773-.624 1.96.15 2.65.772.692 1.96.624 2.65-.149l7.42-8.31c.274-.305.781-.112.781.299 0 2.751-.314 5.494-.937 8.174l-4.735 20.38c-.216.93.26 1.913 1.156 2.244 1.084.4 2.236-.245 2.488-1.333l3.626-16.785c.065-.3.495-.3.56 0l3.625 16.785c.202.867.974 1.453 1.828 1.453.21 0 .424-.035.636-.11.91-.324 1.398-1.318 1.179-2.259l-4.733-20.375c-.623-2.68-.938-5.423-.938-8.175 0-.409.508-.602.78-.297l7.421 8.31c.37.414.885.626 1.401.626.445 0 .892-.157 1.25-.477.773-.69.84-1.878.15-2.651" fill="#19CA94"/>
        <path d="M370.149 253.062l-11.26-12.613c-.053-.06-.027-.152.049-.176 2.255-.722 3.874-2.861 3.799-5.372-.084-2.795-2.325-5.117-5.116-5.292-3.18-.198-5.82 2.322-5.82 5.459 0 2.436 1.593 4.496 3.794 5.203.076.025.103.117.05.176l-11.254 12.615c-.691.773-.624 1.96.15 2.65.773.692 1.96.624 2.65-.149l7.42-8.31c.274-.305.781-.112.781.299 0 2.751-.314 5.494-.937 8.174l-4.735 20.38c-.216.93.26 1.913 1.156 2.244 1.084.4 2.235-.245 2.487-1.333l3.627-16.785c.065-.3.494-.3.56 0l3.626 16.785c.2.867.973 1.453 1.827 1.453.209 0 .424-.035.636-.11.909-.324 1.398-1.318 1.179-2.259l-4.733-20.375c-.623-2.68-.938-5.423-.937-8.175 0-.409.507-.602.78-.297l7.42 8.31c.37.414.885.626 1.401.626.445 0 .892-.157 1.25-.477.773-.69.84-1.878.15-2.651M557.59 253.062l-11.261-12.613c-.053-.06-.026-.152.05-.176 2.254-.722 3.873-2.861 3.798-5.372-.083-2.795-2.324-5.117-5.114-5.292-3.18-.198-5.821 2.322-5.821 5.459 0 2.436 1.594 4.496 3.795 5.203.075.025.101.117.049.176l-11.254 12.615c-.691.773-.624 1.96.15 2.65.772.692 1.96.624 2.65-.149l7.42-8.31c.274-.305.781-.112.781.299 0 2.751-.314 5.494-.937 8.174l-4.735 20.38c-.215.93.26 1.913 1.156 2.244 1.083.4 2.236-.245 2.488-1.333l3.626-16.785c.064-.3.494-.3.56 0l3.625 16.785c.202.867.974 1.453 1.828 1.453.209 0 .424-.035.636-.11.91-.324 1.398-1.318 1.179-2.259l-4.733-20.375c-.623-2.68-.938-5.423-.938-8.175 0-.409.508-.602.78-.297l7.421 8.31c.37.414.885.626 1.401.626.445 0 .892-.157 1.25-.477.773-.69.84-1.878.15-2.651M245.189 309.566l-11.262-12.614c-.052-.059-.025-.15.05-.175 2.255-.722 3.874-2.862 3.799-5.372-.083-2.795-2.325-5.117-5.115-5.292-3.18-.198-5.821 2.322-5.821 5.459 0 2.436 1.594 4.496 3.795 5.203.075.025.102.116.05.176l-11.255 12.615c-.69.773-.624 1.96.15 2.65.773.691 1.96.624 2.65-.149l7.421-8.31c.273-.305.78-.112.78.299 0 2.751-.314 5.494-.936 8.174l-4.735 20.38c-.216.93.26 1.913 1.155 2.244 1.084.4 2.236-.245 2.488-1.334l3.626-16.784c.065-.3.494-.3.56 0l3.626 16.784c.201.868.973 1.454 1.827 1.454.21 0 .424-.036.636-.11.91-.324 1.398-1.318 1.179-2.259l-4.733-20.375c-.623-2.68-.937-5.423-.937-8.175 0-.41.508-.603.78-.297l7.42 8.31c.371.414.885.626 1.401.626.445 0 .892-.157 1.25-.477.774-.691.841-1.878.15-2.651M464.141 309.566l-11.26-12.614c-.053-.059-.026-.15.05-.175 2.253-.722 3.873-2.862 3.797-5.372-.083-2.795-2.324-5.117-5.114-5.292-3.18-.198-5.821 2.322-5.821 5.459 0 2.436 1.594 4.496 3.795 5.203.075.025.102.116.05.176l-11.255 12.615c-.691.773-.624 1.96.15 2.65.773.691 1.96.624 2.65-.149l7.42-8.31c.274-.305.782-.112.782.299 0 2.751-.315 5.494-.938 8.174l-4.735 20.38c-.215.93.26 1.913 1.156 2.244 1.084.4 2.236-.245 2.488-1.334l3.626-16.784c.065-.3.495-.3.56 0l3.626 16.784c.201.868.973 1.454 1.827 1.454.21 0 .424-.036.636-.11.91-.324 1.398-1.318 1.179-2.259l-4.733-20.375c-.623-2.68-.938-5.423-.938-8.175 0-.41.508-.603.781-.297l7.42 8.31c.371.414.886.626 1.401.626.445 0 .892-.157 1.25-.477.773-.691.84-1.878.15-2.651M495.11 309.566l-11.261-12.614c-.053-.059-.026-.15.05-.175 2.254-.722 3.873-2.862 3.798-5.372-.083-2.795-2.324-5.117-5.115-5.292-3.18-.198-5.82 2.322-5.82 5.459 0 2.436 1.593 4.496 3.794 5.203.076.025.102.116.05.176l-11.255 12.615c-.69.773-.624 1.96.15 2.65.773.691 1.96.624 2.65-.149l7.421-8.31c.274-.305.781-.112.781.299 0 2.751-.314 5.494-.938 8.174l-4.734 20.38c-.216.93.26 1.913 1.156 2.244 1.083.4 2.235-.245 2.487-1.334l3.626-16.784c.065-.3.495-.3.56 0l3.626 16.784c.202.868.974 1.454 1.828 1.454.208 0 .424-.036.635-.11.91-.324 1.398-1.318 1.18-2.259l-4.734-20.375c-.623-2.68-.937-5.423-.937-8.175 0-.41.508-.603.78-.297l7.42 8.31c.371.414.886.626 1.402.626.445 0 .891-.157 1.25-.477.773-.691.84-1.878.15-2.651M526.621 309.566l-11.26-12.614c-.053-.059-.026-.15.05-.175 2.253-.722 3.873-2.862 3.798-5.372-.084-2.795-2.324-5.117-5.115-5.292-3.18-.198-5.821 2.322-5.821 5.459 0 2.436 1.594 4.496 3.795 5.203.075.025.102.116.05.176l-11.255 12.615c-.69.773-.624 1.96.15 2.65.773.691 1.96.624 2.651-.149l7.42-8.31c.274-.305.78-.112.78.299 0 2.751-.313 5.494-.937 8.174l-4.734 20.38c-.216.93.26 1.913 1.155 2.244 1.084.4 2.236-.245 2.488-1.334l3.626-16.784c.065-.3.495-.3.56 0l3.626 16.784c.201.868.974 1.454 1.827 1.454.21 0 .424-.036.636-.11.91-.324 1.398-1.318 1.18-2.259l-4.734-20.375c-.623-2.68-.938-5.423-.938-8.175 0-.41.508-.603.781-.297l7.42 8.31c.371.414.886.626 1.402.626.445 0 .891-.157 1.25-.477.773-.691.84-1.878.15-2.651M557.59 309.566l-11.261-12.614c-.053-.059-.026-.15.05-.175 2.254-.722 3.873-2.862 3.798-5.372-.083-2.795-2.324-5.117-5.114-5.292-3.18-.198-5.821 2.322-5.821 5.459 0 2.436 1.594 4.496 3.795 5.203.075.025.101.116.049.176l-11.254 12.615c-.691.773-.624 1.96.15 2.65.772.691 1.96.624 2.65-.149l7.42-8.31c.274-.305.781-.112.781.299 0 2.751-.314 5.494-.937 8.174l-4.735 20.38c-.215.93.26 1.913 1.156 2.244 1.083.4 2.236-.245 2.488-1.334l3.626-16.784c.064-.3.494-.3.56 0l3.625 16.784c.202.868.974 1.454 1.828 1.454.209 0 .424-.036.636-.11.91-.324 1.398-1.318 1.179-2.259l-4.733-20.375c-.623-2.68-.938-5.423-.938-8.175 0-.41.508-.603.78-.297l7.421 8.31c.37.414.885.626 1.401.626.445 0 .892-.157 1.25-.477.773-.691.84-1.878.15-2.651M589.102 309.566l-11.26-12.614c-.054-.059-.027-.15.049-.175 2.254-.722 3.873-2.862 3.798-5.372-.083-2.795-2.324-5.117-5.115-5.292-3.18-.198-5.82 2.322-5.82 5.459 0 2.436 1.593 4.496 3.794 5.203.076.025.102.116.05.176l-11.255 12.615c-.69.773-.623 1.96.15 2.65.774.691 1.96.624 2.651-.149l7.42-8.31c.274-.305.78-.112.78.299 0 2.751-.313 5.494-.936 8.174l-4.735 20.38c-.216.93.26 1.913 1.155 2.244 1.084.4 2.236-.245 2.488-1.334l3.627-16.784c.064-.3.494-.3.56 0l3.625 16.784c.202.868.974 1.454 1.828 1.454.209 0 .423-.036.635-.11.91-.324 1.399-1.318 1.18-2.259l-4.734-20.375c-.623-2.68-.937-5.423-.937-8.175 0-.41.508-.603.781-.297l7.42 8.31c.37.414.885.626 1.401.626.445 0 .892-.157 1.25-.477.773-.691.84-1.878.15-2.651M620.07 309.566l-11.26-12.614c-.053-.059-.026-.15.05-.175 2.253-.722 3.873-2.862 3.798-5.372-.084-2.795-2.325-5.117-5.115-5.292-3.18-.198-5.821 2.322-5.821 5.459 0 2.436 1.594 4.496 3.795 5.203.075.025.101.116.05.176l-11.255 12.615c-.69.773-.624 1.96.15 2.65.773.691 1.96.624 2.65-.149l7.42-8.31c.274-.305.782-.112.782.299 0 2.751-.314 5.494-.938 8.174l-4.734 20.38c-.216.93.26 1.913 1.155 2.244 1.084.4 2.236-.245 2.488-1.334l3.626-16.784c.065-.3.495-.3.56 0l3.626 16.784c.201.868.973 1.454 1.827 1.454.21 0 .424-.036.636-.11.91-.324 1.398-1.318 1.179-2.259l-4.733-20.375c-.623-2.68-.938-5.423-.938-8.175 0-.41.508-.603.781-.297l7.42 8.31c.371.414.886.626 1.401.626.445 0 .892-.157 1.25-.477.774-.691.84-1.878.15-2.651" fill="#CDCCE2"/>
        <path d="M1 14.78v-14h5.86c3.1 0 5.1 2.34 5.1 5.06 0 2.72-2 5.06-5.1 5.06H4.24v3.88H1zm5.46-6.52c1.36 0 2.24-1.12 2.24-2.42 0-1.3-.88-2.42-2.24-2.42H4.24v4.84h2.22zm11.542 6.78c-3.32 0-5.34-2.32-5.34-5.08 0-2.76 2.02-5.08 5.34-5.08 3.36 0 5.36 2.32 5.36 5.08 0 2.76-2 5.08-5.36 5.08zm0-2.62c1.4 0 2.32-1.1 2.32-2.46 0-1.34-.92-2.46-2.32-2.46-1.38 0-2.28 1.12-2.28 2.46 0 1.36.9 2.46 2.28 2.46zM30.904 7.5c-1.4 0-2.32 1.12-2.32 2.46 0 1.34.92 2.46 2.32 2.46 1.36 0 2.28-1.12 2.28-2.46 0-1.34-.92-2.46-2.28-2.46zm-2.32-2.36v1.38c.46-.88 1.7-1.62 2.96-1.62 2.78 0 4.7 2.18 4.7 5.06 0 2.88-1.92 5.06-4.7 5.06-1.26 0-2.5-.74-2.96-1.62v5.74h-3.06v-14h3.06zm16.383 0h3.06v9.64h-3.06V13.4c-.54 1.02-1.66 1.62-3.16 1.62-1.24 0-2.18-.42-2.7-1.1-.6-.74-.74-1.68-.74-3.06V5.14h3.04v4.94c0 1.38.42 2.34 1.7 2.34 1.26 0 1.86-.96 1.86-2.44V5.14zm5.882 9.64v-14h3.06v14h-3.06zm10.622-2.36c1.38 0 2.3-1.12 2.3-2.46 0-1.32-.92-2.46-2.3-2.46s-2.3 1.14-2.3 2.46c0 1.34.92 2.46 2.3 2.46zm2.3-7.28h3.06v9.64h-3.06v-1.36c-.46.88-1.7 1.6-2.94 1.6-2.78 0-4.7-2.18-4.7-5.06 0-2.88 1.92-5.06 4.7-5.06 1.24 0 2.48.74 2.94 1.62V5.14zm11.902 7.3v2.34c-.46.08-1.14.16-2.04.16-1.44 0-3.42-.18-3.42-3.4V7.42h-1.52V5.14h1.52V2.28h3.04v2.86h2.2v2.28h-2.2v3.44c0 1.42.56 1.64 1.32 1.64.38 0 .82-.02 1.1-.06zm1.423-10.5c0-1.08.86-1.94 1.96-1.94 1.12 0 1.98.86 1.98 1.94 0 1.06-.86 1.94-1.98 1.94-1.1 0-1.96-.88-1.96-1.94zm.44 12.84V5.14h3.06v9.64h-3.06zm10.562.26c-3.32 0-5.34-2.32-5.34-5.08 0-2.76 2.02-5.08 5.34-5.08 3.36 0 5.36 2.32 5.36 5.08 0 2.76-2 5.08-5.36 5.08zm0-2.62c1.4 0 2.32-1.1 2.32-2.46 0-1.34-.92-2.46-2.32-2.46-1.38 0-2.28 1.12-2.28 2.46 0 1.36.9 2.46 2.28 2.46zm7.522 2.36V5.14h3.06v1.4c.54-1.04 1.66-1.64 3.16-1.64 1.24 0 2.18.42 2.7 1.1.6.74.76 1.68.76 3.06v5.72h-3.06V9.84c0-1.38-.42-2.34-1.7-2.34-1.24 0-1.86.96-1.86 2.44v4.84h-3.06zm20.504-1.36v1.36h-3.06v-14h3.06v5.74c.46-.88 1.7-1.62 2.96-1.62 2.78 0 4.7 2.18 4.7 5.06 0 2.88-1.92 5.06-4.7 5.06-1.26 0-2.5-.72-2.96-1.6zm2.32-1c1.36 0 2.28-1.12 2.28-2.46 0-1.32-.92-2.46-2.28-2.46-1.4 0-2.32 1.14-2.32 2.46 0 1.34.92 2.46 2.32 2.46zm16.943-1.72h-6.94c.06 1.16.54 2.14 2.14 2.14 1.06 0 1.58-.48 1.78-1.1h3c-.28 1.82-2 3.3-4.76 3.3-3.38 0-5.2-2.1-5.2-5.08 0-2.82 1.78-5.08 5.12-5.08 3.02 0 4.96 2.04 4.96 4.4 0 .4 0 .84-.1 1.42zm-4.88-3.78c-1.2 0-2.06.72-2.06 2.02h4.04c0-1.24-.82-2.02-1.98-2.02zm13.342-6.1v2.2c-.32-.08-.58-.12-.94-.12-.68 0-1.32.1-1.32 1.22v1.02h2.26v2.28h-2.24v7.36h-3.06V7.42h-1.74V5.14h1.74V4.3c0-3.5 2.12-3.74 3.64-3.74.72 0 1.3.12 1.66.26zm6.242 14.22c-3.32 0-5.34-2.32-5.34-5.08 0-2.76 2.02-5.08 5.34-5.08 3.36 0 5.36 2.32 5.36 5.08 0 2.76-2 5.08-5.36 5.08zm0-2.62c1.4 0 2.32-1.1 2.32-2.46 0-1.34-.92-2.46-2.32-2.46-1.38 0-2.28 1.12-2.28 2.46 0 1.36.9 2.46 2.28 2.46zm14.442-7.28v2.78c-.42-.1-.66-.14-1.08-.14-1.68 0-2.78.88-2.78 3.24v3.76h-3.06V5.14h3.06V6.7c.44-.9 1.6-1.72 2.94-1.72.38 0 .64.04.92.16zm10.803 5.56h-6.94c.06 1.16.54 2.14 2.14 2.14 1.06 0 1.58-.48 1.78-1.1h3c-.28 1.82-2 3.3-4.76 3.3-3.38 0-5.2-2.1-5.2-5.08 0-2.82 1.78-5.08 5.12-5.08 3.02 0 4.96 2.04 4.96 4.4 0 .4 0 .84-.1 1.42zm-4.88-3.78c-1.2 0-2.06.72-2.06 2.02h4.04c0-1.24-.82-2.02-1.98-2.02zm17.104 5.5c1.38 0 2.3-1.12 2.3-2.46 0-1.32-.92-2.46-2.3-2.46s-2.3 1.14-2.3 2.46c0 1.34.92 2.46 2.3 2.46zm2.3 2.36v-1.36c-.46.88-1.7 1.6-2.94 1.6-2.78 0-4.7-2.18-4.7-5.06 0-2.88 1.92-5.06 4.7-5.06 1.24 0 2.48.74 2.94 1.62V.78h3.06v14h-3.06zm5.442-12.84c0-1.08.86-1.94 1.96-1.94 1.12 0 1.98.86 1.98 1.94 0 1.06-.86 1.94-1.98 1.94-1.1 0-1.96-.88-1.96-1.94zm.44 12.84V5.14h3.06v9.64h-3.06zm10.622-2.36c1.38 0 2.3-1.12 2.3-2.46 0-1.32-.92-2.46-2.3-2.46s-2.3 1.14-2.3 2.46c0 1.34.92 2.46 2.3 2.46zm2.3-7.28h3.06v9.64h-3.06v-1.36c-.46.88-1.7 1.6-2.94 1.6-2.78 0-4.7-2.18-4.7-5.06 0-2.88 1.92-5.06 4.7-5.06 1.24 0 2.48.74 2.94 1.62V5.14zm10.623 2.36c-1.36 0-2.28 1.14-2.28 2.46 0 1.34.92 2.46 2.28 2.46 1.4 0 2.32-1.12 2.32-2.46 0-1.32-.92-2.46-2.32-2.46zm5.38-2.36v9.58c0 1.74-.52 2.88-1.52 3.64-.9.68-2.12 1.04-3.9 1.04-1.8 0-2.98-.44-3.78-1.12-.84-.72-1.36-1.7-1.4-2.76h3.06c.08.82.8 1.62 2.12 1.62 1.44 0 2.36-.68 2.36-2.18v-1.62c-.52.88-1.7 1.5-2.94 1.5-2.78 0-4.72-2.02-4.72-4.88 0-2.88 1.86-5.06 4.68-5.06 1.22 0 2.44.6 2.98 1.62V5.14h3.06zm2.762 9.64V5.14h3.06v1.4c.54-1.04 1.66-1.64 3.16-1.64 1.24 0 2.18.42 2.7 1.1.6.74.76 1.68.76 3.06v5.72h-3.06V9.84c0-1.38-.42-2.34-1.7-2.34-1.24 0-1.86.96-1.86 2.44v4.84h-3.06zm17.042.26c-3.32 0-5.34-2.32-5.34-5.08 0-2.76 2.02-5.08 5.34-5.08 3.36 0 5.36 2.32 5.36 5.08 0 2.76-2 5.08-5.36 5.08zm0-2.62c1.4 0 2.32-1.1 2.32-2.46 0-1.34-.92-2.46-2.32-2.46-1.38 0-2.28 1.12-2.28 2.46 0 1.36.9 2.46 2.28 2.46zm12.582-3.32c1.7.5 3.1.96 3.1 2.84 0 2.28-1.96 3.1-4.36 3.1-2.74 0-4.44-1.26-4.44-3.48h3c0 1.02.64 1.42 1.54 1.42.74 0 1.26-.26 1.26-.9 0-.74-.76-.84-2.58-1.44-1.6-.5-2.98-.96-2.98-2.82 0-2 1.66-2.94 4.26-2.94 2.8 0 4.16 1.42 4.16 3.26h-3.02c0-.8-.42-1.26-1.26-1.26-.62 0-1.14.28-1.14.86 0 .7.84.82 2.46 1.36zm4.923-7.16c0-1.08.86-1.94 1.96-1.94 1.12 0 1.98.86 1.98 1.94 0 1.06-.86 1.94-1.98 1.94-1.1 0-1.96-.88-1.96-1.94zm.44 12.84V5.14h3.06v9.64h-3.06zm10.942-5.68c1.7.5 3.1.96 3.1 2.84 0 2.28-1.96 3.1-4.36 3.1-2.74 0-4.44-1.26-4.44-3.48h3c0 1.02.64 1.42 1.54 1.42.74 0 1.26-.26 1.26-.9 0-.74-.76-.84-2.58-1.44-1.6-.5-2.98-.96-2.98-2.82 0-2 1.66-2.94 4.26-2.94 2.8 0 4.16 1.42 4.16 3.26h-3.02c0-.8-.42-1.26-1.26-1.26-.62 0-1.14.28-1.14.86 0 .7.84.82 2.46 1.36z" fill="#29264C"/>
    </g>
</svg>
