<svg width="800" height="408" viewBox="0 0 800 408" xmlns="http://www.w3.org/2000/svg">
    <title>
        3_2_Bayes Rule_2
    </title>
    <g fill="none" fill-rule="evenodd">
        <path d="M57.776 153.858l-11.267-12.631c-.052-.06-.025-.152.05-.176 2.256-.723 3.876-2.866 3.8-5.38-.083-2.8-2.325-5.125-5.117-5.3-3.181-.2-5.824 2.325-5.824 5.467 0 2.44 1.595 4.502 3.797 5.21.076.025.102.117.05.177l-11.26 12.633c-.691.775-.624 1.964.15 2.655.773.692 1.96.625 2.652-.15l7.424-8.32c.273-.308.781-.114.781.297 0 2.756-.315 5.503-.938 8.187l-4.737 20.41c-.216.93.26 1.916 1.156 2.247 1.084.401 2.237-.245 2.49-1.335l3.627-16.81c.065-.3.495-.3.56 0l3.628 16.81c.202.869.974 1.455 1.828 1.455.21 0 .424-.035.636-.11.91-.324 1.399-1.32 1.18-2.262l-4.736-20.405c-.623-2.684-.937-5.432-.937-8.188 0-.41.508-.603.78-.297l7.424 8.322c.371.415.886.627 1.402.627.445 0 .892-.157 1.251-.478.774-.691.84-1.88.15-2.655M88.76 153.858l-11.267-12.631c-.052-.06-.026-.152.05-.176 2.255-.723 3.876-2.866 3.8-5.38-.083-2.8-2.325-5.125-5.117-5.3-3.182-.2-5.824 2.325-5.824 5.467 0 2.44 1.595 4.502 3.797 5.21.075.025.102.117.05.177l-11.26 12.633c-.692.775-.624 1.964.15 2.655.773.692 1.96.625 2.652-.15l7.423-8.32c.274-.308.782-.114.782.297 0 2.756-.315 5.503-.938 8.187l-4.737 20.41c-.216.93.26 1.916 1.156 2.247 1.084.401 2.237-.245 2.489-1.335l3.628-16.81c.065-.3.495-.3.56 0l3.628 16.81c.201.869.973 1.455 1.828 1.455.21 0 .424-.035.636-.11.91-.324 1.399-1.32 1.18-2.262l-4.736-20.405c-.623-2.684-.938-5.432-.938-8.188 0-.41.508-.603.781-.297l7.424 8.322c.371.415.886.627 1.402.627.445 0 .892-.157 1.25-.478.774-.691.841-1.88.15-2.655M120.287 153.858l-11.267-12.631c-.052-.06-.025-.152.05-.176 2.256-.723 3.876-2.866 3.8-5.38-.083-2.8-2.325-5.125-5.117-5.3-3.181-.2-5.823 2.325-5.823 5.467 0 2.44 1.594 4.502 3.796 5.21.076.025.102.117.05.177l-11.26 12.633c-.691.775-.624 1.964.15 2.655.773.692 1.961.625 2.652-.15l7.424-8.32c.273-.308.781-.114.781.297 0 2.756-.315 5.503-.938 8.187l-4.737 20.41c-.216.93.26 1.916 1.156 2.247 1.084.401 2.237-.245 2.49-1.335l3.627-16.81c.065-.3.495-.3.56 0l3.628 16.81c.202.869.974 1.455 1.829 1.455.208 0 .424-.035.635-.11.91-.324 1.4-1.32 1.18-2.262l-4.736-20.405c-.622-2.684-.937-5.432-.937-8.188 0-.41.508-.603.78-.297l7.424 8.322c.372.415.886.627 1.402.627.446 0 .892-.157 1.251-.478.774-.691.84-1.88.15-2.655M151.27 153.858l-11.265-12.631c-.053-.06-.027-.152.049-.176 2.256-.723 3.876-2.866 3.8-5.38-.083-2.8-2.325-5.125-5.117-5.3-3.181-.2-5.823 2.325-5.823 5.467 0 2.44 1.594 4.502 3.796 5.21.076.025.102.117.05.177l-11.26 12.633c-.692.775-.624 1.964.15 2.655.773.692 1.961.625 2.652-.15l7.423-8.32c.274-.308.782-.114.782.297 0 2.756-.315 5.503-.938 8.187l-4.737 20.41c-.216.93.26 1.916 1.156 2.247 1.084.401 2.237-.245 2.489-1.335l3.628-16.81c.065-.3.495-.3.56 0l3.628 16.81c.201.869.974 1.455 1.828 1.455.21 0 .424-.035.636-.11.91-.324 1.4-1.32 1.18-2.262l-4.736-20.405c-.623-2.684-.938-5.432-.937-8.188 0-.41.508-.603.78-.297l7.425 8.322c.37.415.885.627 1.401.627.446 0 .892-.157 1.251-.478.773-.691.84-1.88.15-2.655M182.798 153.858l-11.267-12.631c-.052-.06-.025-.152.05-.176 2.256-.723 3.876-2.866 3.8-5.38-.083-2.8-2.325-5.125-5.117-5.3-3.181-.2-5.823 2.325-5.823 5.467 0 2.44 1.594 4.502 3.796 5.21.076.025.102.117.05.177l-11.26 12.633c-.691.775-.624 1.964.15 2.655.773.692 1.962.625 2.652-.15l7.424-8.32c.273-.308.781-.114.781.297 0 2.756-.315 5.503-.938 8.187l-4.737 20.41c-.216.93.26 1.916 1.156 2.247 1.085.401 2.237-.245 2.49-1.335l3.627-16.81c.065-.3.495-.3.56 0l3.628 16.81c.202.869.974 1.455 1.829 1.455.209 0 .424-.035.636-.11.91-.324 1.398-1.32 1.18-2.262l-4.736-20.405c-.623-2.684-.938-5.432-.938-8.188 0-.41.508-.603.78-.297l7.425 8.322c.37.415.885.627 1.401.627.446 0 .892-.157 1.251-.478.774-.691.841-1.88.15-2.655M213.782 153.858l-11.266-12.631c-.053-.06-.026-.152.049-.176 2.256-.723 3.876-2.866 3.8-5.38-.083-2.8-2.325-5.125-5.117-5.3-3.181-.2-5.823 2.325-5.823 5.467 0 2.44 1.594 4.502 3.796 5.21.076.025.102.117.05.177l-11.26 12.633c-.692.775-.624 1.964.15 2.655.773.692 1.961.625 2.652-.15l7.424-8.32c.273-.308.78-.114.78.297 0 2.756-.314 5.503-.937 8.187l-4.737 20.41c-.216.93.26 1.916 1.156 2.247 1.084.401 2.237-.245 2.489-1.335l3.628-16.81c.065-.3.495-.3.56 0l3.628 16.81c.202.869.974 1.455 1.828 1.455.21 0 .424-.035.636-.11.91-.324 1.4-1.32 1.18-2.262l-4.736-20.405c-.623-2.684-.937-5.432-.937-8.188 0-.41.508-.603.78-.297l7.425 8.322c.37.415.885.627 1.401.627.446 0 .892-.157 1.251-.478.774-.691.84-1.88.15-2.655M245.31 153.858l-11.267-12.631c-.053-.06-.026-.152.05-.176 2.255-.723 3.875-2.866 3.8-5.38-.083-2.8-2.326-5.125-5.118-5.3-3.181-.2-5.823 2.325-5.823 5.467 0 2.44 1.594 4.502 3.797 5.21.075.025.102.117.049.177l-11.26 12.633c-.691.775-.624 1.964.15 2.655.774.692 1.962.625 2.652-.15l7.424-8.32c.274-.308.781-.114.781.297 0 2.756-.314 5.503-.937 8.187l-4.738 20.41c-.216.93.26 1.916 1.156 2.247 1.085.401 2.237-.245 2.49-1.335l3.627-16.81c.066-.3.496-.3.56 0l3.629 16.81c.2.869.973 1.455 1.828 1.455.209 0 .424-.035.636-.11.91-.324 1.398-1.32 1.18-2.262l-4.736-20.405c-.623-2.684-.938-5.432-.938-8.188 0-.41.508-.603.781-.297l7.424 8.322c.37.415.886.627 1.401.627.446 0 .892-.157 1.251-.478.774-.691.841-1.88.15-2.655M276.293 153.858l-11.267-12.631c-.052-.06-.025-.152.05-.176 2.256-.723 3.876-2.866 3.8-5.38-.083-2.8-2.325-5.125-5.117-5.3-3.181-.2-5.824 2.325-5.824 5.467 0 2.44 1.595 4.502 3.797 5.21.076.025.102.117.05.177l-11.26 12.633c-.691.775-.624 1.964.15 2.655.773.692 1.96.625 2.652-.15l7.424-8.32c.273-.308.781-.114.781.297 0 2.756-.315 5.503-.938 8.187l-4.737 20.41c-.216.93.26 1.916 1.156 2.247 1.084.401 2.237-.245 2.49-1.335l3.627-16.81c.065-.3.495-.3.56 0l3.628 16.81c.202.869.974 1.455 1.828 1.455.21 0 .424-.035.636-.11.91-.324 1.399-1.32 1.18-2.262l-4.736-20.405c-.623-2.684-.937-5.432-.937-8.188 0-.41.508-.603.78-.297l7.424 8.322c.371.415.886.627 1.402.627.445 0 .892-.157 1.251-.478.774-.691.84-1.88.15-2.655M307.82 153.858l-11.266-12.631c-.053-.06-.026-.152.05-.176 2.255-.723 3.875-2.866 3.8-5.38-.084-2.8-2.325-5.125-5.118-5.3-3.181-.2-5.823 2.325-5.823 5.467 0 2.44 1.594 4.502 3.796 5.21.076.025.103.117.05.177l-11.26 12.633c-.691.775-.624 1.964.15 2.655.774.692 1.962.625 2.652-.15l7.424-8.32c.274-.308.781-.114.781.297 0 2.756-.314 5.503-.938 8.187l-4.737 20.41c-.216.93.26 1.916 1.156 2.247 1.085.401 2.237-.245 2.49-1.335l3.627-16.81c.065-.3.495-.3.56 0l3.628 16.81c.202.869.975 1.455 1.828 1.455.21 0 .424-.035.636-.11.91-.324 1.4-1.32 1.18-2.262l-4.735-20.405c-.624-2.684-.938-5.432-.938-8.188 0-.41.508-.603.781-.297l7.424 8.322c.37.415.885.627 1.402.627.445 0 .892-.157 1.25-.478.774-.691.841-1.88.15-2.655M339.347 153.858l-11.266-12.631c-.053-.06-.026-.152.05-.176 2.255-.723 3.875-2.866 3.8-5.38-.083-2.8-2.325-5.125-5.117-5.3-3.182-.2-5.824 2.325-5.824 5.467 0 2.44 1.595 4.502 3.797 5.21.075.025.102.117.05.177l-11.26 12.633c-.692.775-.625 1.964.15 2.655.773.692 1.96.625 2.651-.15l7.424-8.32c.274-.308.782-.114.782.297 0 2.756-.315 5.503-.938 8.187l-4.737 20.41c-.216.93.26 1.916 1.156 2.247 1.084.401 2.237-.245 2.489-1.335l3.628-16.81c.064-.3.494-.3.56 0l3.627 16.81c.202.869.975 1.455 1.829 1.455.209 0 .424-.035.636-.11.91-.324 1.399-1.32 1.18-2.262l-4.736-20.405c-.623-2.684-.938-5.432-.938-8.188 0-.41.508-.603.781-.297l7.425 8.322c.37.415.884.627 1.4.627.446 0 .893-.157 1.252-.478.773-.691.84-1.88.15-2.655M370.331 153.858l-11.266-12.631c-.053-.06-.026-.152.05-.176 2.255-.723 3.875-2.866 3.8-5.38-.084-2.8-2.325-5.125-5.118-5.3-3.18-.2-5.823 2.325-5.823 5.467 0 2.44 1.594 4.502 3.796 5.21.077.025.103.117.05.177l-11.26 12.633c-.691.775-.624 1.964.15 2.655.774.692 1.962.625 2.652-.15l7.425-8.32c.273-.308.78-.114.78.297 0 2.756-.314 5.503-.938 8.187l-4.736 20.41c-.217.93.26 1.916 1.155 2.247 1.085.401 2.237-.245 2.49-1.335l3.628-16.81c.064-.3.494-.3.56 0l3.627 16.81c.202.869.975 1.455 1.829 1.455.209 0 .424-.035.635-.11.91-.324 1.4-1.32 1.18-2.262l-4.735-20.405c-.624-2.684-.938-5.432-.938-8.188 0-.41.508-.603.781-.297l7.424 8.322c.37.415.886.627 1.402.627.445 0 .892-.157 1.25-.478.774-.691.841-1.88.15-2.655M401.859 153.858l-11.267-12.631c-.052-.06-.025-.152.05-.176 2.255-.723 3.876-2.866 3.8-5.38-.083-2.8-2.325-5.125-5.117-5.3-3.182-.2-5.824 2.325-5.824 5.467 0 2.44 1.595 4.502 3.797 5.21.076.025.102.117.05.177l-11.26 12.633c-.692.775-.625 1.964.15 2.655.773.692 1.961.625 2.651-.15l7.425-8.32c.273-.308.78-.114.78.297 0 2.756-.313 5.503-.937 8.187l-4.737 20.41c-.216.93.26 1.916 1.156 2.247 1.084.401 2.237-.245 2.489-1.335l3.628-16.81c.065-.3.495-.3.56 0l3.627 16.81c.202.869.975 1.455 1.83 1.455.208 0 .423-.035.635-.11.91-.324 1.399-1.32 1.18-2.262l-4.735-20.405c-.624-2.684-.939-5.432-.939-8.188 0-.41.509-.603.781-.297l7.425 8.322c.37.415.885.627 1.4.627.446 0 .893-.157 1.252-.478.773-.691.84-1.88.15-2.655M432.842 153.858l-11.266-12.631c-.053-.06-.026-.152.05-.176 2.255-.723 3.875-2.866 3.8-5.38-.083-2.8-2.325-5.125-5.118-5.3-3.18-.2-5.823 2.325-5.823 5.467 0 2.44 1.595 4.502 3.796 5.21.076.025.102.117.05.177l-11.26 12.633c-.69.775-.624 1.964.15 2.655.774.692 1.961.625 2.652-.15l7.424-8.32c.274-.308.782-.114.782.297 0 2.756-.315 5.503-.939 8.187l-4.736 20.41c-.216.93.26 1.916 1.156 2.247 1.084.401 2.236-.245 2.489-1.335l3.628-16.81c.064-.3.494-.3.56 0l3.627 16.81c.202.869.974 1.455 1.829 1.455.209 0 .423-.035.635-.11.91-.324 1.4-1.32 1.18-2.262l-4.735-20.405c-.624-2.684-.938-5.432-.938-8.188 0-.41.508-.603.781-.297l7.424 8.322c.37.415.885.627 1.402.627.445 0 .892-.157 1.25-.478.774-.691.84-1.88.15-2.655M464.37 153.858l-11.267-12.631c-.052-.06-.026-.152.05-.176 2.255-.723 3.876-2.866 3.8-5.38-.083-2.8-2.325-5.125-5.117-5.3-3.182-.2-5.824 2.325-5.824 5.467 0 2.44 1.595 4.502 3.797 5.21.075.025.102.117.05.177l-11.26 12.633c-.692.775-.624 1.964.15 2.655.773.692 1.961.625 2.652-.15l7.423-8.32c.274-.308.782-.114.782.297 0 2.756-.315 5.503-.938 8.187l-4.737 20.41c-.216.93.26 1.916 1.156 2.247 1.084.401 2.237-.245 2.489-1.335l3.628-16.81c.065-.3.495-.3.56 0l3.628 16.81c.201.869.974 1.455 1.828 1.455.21 0 .424-.035.636-.11.91-.324 1.399-1.32 1.18-2.262l-4.736-20.405c-.623-2.684-.938-5.432-.938-8.188 0-.41.508-.603.781-.297l7.424 8.322c.371.415.886.627 1.402.627.446 0 .892-.157 1.25-.478.774-.691.841-1.88.15-2.655M495.353 153.858l-11.266-12.631c-.053-.06-.026-.152.05-.176 2.255-.723 3.875-2.866 3.8-5.38-.083-2.8-2.325-5.125-5.117-5.3-3.182-.2-5.824 2.325-5.824 5.467 0 2.44 1.595 4.502 3.797 5.21.075.025.101.117.05.177l-11.26 12.633c-.692.775-.625 1.964.15 2.655.773.692 1.96.625 2.651-.15l7.424-8.32c.274-.308.782-.114.782.297 0 2.756-.315 5.503-.938 8.187l-4.737 20.41c-.216.93.26 1.916 1.156 2.247 1.084.401 2.236-.245 2.489-1.335l3.628-16.81c.064-.3.494-.3.56 0l3.627 16.81c.202.869.974 1.455 1.829 1.455.209 0 .424-.035.636-.11.91-.324 1.399-1.32 1.18-2.262l-4.736-20.405c-.623-2.684-.938-5.432-.938-8.188 0-.41.508-.603.781-.297l7.424 8.322c.371.415.885.627 1.402.627.445 0 .892-.157 1.25-.478.774-.691.84-1.88.15-2.655M526.88 153.858l-11.265-12.631c-.053-.06-.027-.152.049-.176 2.256-.723 3.876-2.866 3.8-5.38-.083-2.8-2.325-5.125-5.117-5.3-3.181-.2-5.823 2.325-5.823 5.467 0 2.44 1.594 4.502 3.796 5.21.076.025.102.117.05.177l-11.26 12.633c-.692.775-.624 1.964.15 2.655.773.692 1.961.625 2.652-.15l7.424-8.32c.273-.308.78-.114.78.297 0 2.756-.314 5.503-.937 8.187l-4.737 20.41c-.216.93.26 1.916 1.156 2.247 1.084.401 2.237-.245 2.489-1.335l3.628-16.81c.065-.3.495-.3.56 0l3.628 16.81c.201.869.974 1.455 1.828 1.455.21 0 .424-.035.636-.11.91-.324 1.4-1.32 1.18-2.262l-4.736-20.405c-.623-2.684-.937-5.432-.937-8.188 0-.41.507-.603.78-.297l7.425 8.322c.37.415.885.627 1.401.627.446 0 .892-.157 1.251-.478.773-.691.84-1.88.15-2.655M57.776 210.447l-11.267-12.633c-.052-.059-.025-.15.05-.175 2.256-.723 3.876-2.866 3.8-5.38-.083-2.8-2.325-5.125-5.117-5.3-3.181-.199-5.824 2.325-5.824 5.467 0 2.44 1.595 4.503 3.797 5.211.076.024.102.116.05.176l-11.26 12.634c-.691.774-.624 1.963.15 2.654.773.692 1.96.625 2.652-.15l7.424-8.321c.273-.306.781-.113.781.298 0 2.756-.315 5.503-.938 8.187l-4.737 20.41c-.216.93.26 1.916 1.156 2.248 1.084.4 2.237-.246 2.49-1.336l3.627-16.81c.065-.3.495-.3.56 0l3.628 16.81c.202.869.974 1.455 1.828 1.455.21 0 .424-.035.636-.11.91-.324 1.399-1.32 1.18-2.262l-4.736-20.405c-.623-2.684-.937-5.431-.937-8.187 0-.41.508-.604.78-.298l7.424 8.322c.371.415.886.627 1.402.627.445 0 .892-.157 1.251-.478.774-.691.84-1.88.15-2.654M88.76 210.447l-11.267-12.633c-.052-.059-.026-.15.05-.175 2.255-.723 3.876-2.866 3.8-5.38-.083-2.8-2.325-5.125-5.117-5.3-3.182-.199-5.824 2.325-5.824 5.467 0 2.44 1.595 4.503 3.797 5.211.075.024.102.116.05.176l-11.26 12.634c-.692.774-.624 1.963.15 2.654.773.692 1.96.625 2.652-.15l7.423-8.321c.274-.306.782-.113.782.298 0 2.756-.315 5.503-.938 8.187l-4.737 20.41c-.216.93.26 1.916 1.156 2.248 1.084.4 2.237-.246 2.489-1.336l3.628-16.81c.065-.3.495-.3.56 0l3.628 16.81c.201.869.973 1.455 1.828 1.455.21 0 .424-.035.636-.11.91-.324 1.399-1.32 1.18-2.262l-4.736-20.405c-.623-2.684-.938-5.431-.938-8.187 0-.41.508-.604.781-.298l7.424 8.322c.371.415.886.627 1.402.627.445 0 .892-.157 1.25-.478.774-.691.841-1.88.15-2.654M120.287 210.447l-11.267-12.633c-.052-.059-.025-.15.05-.175 2.256-.723 3.876-2.866 3.8-5.38-.083-2.8-2.325-5.125-5.117-5.3-3.181-.199-5.823 2.325-5.823 5.467 0 2.44 1.594 4.503 3.796 5.211.076.024.102.116.05.176l-11.26 12.634c-.691.774-.624 1.963.15 2.654.773.692 1.961.625 2.652-.15l7.424-8.321c.273-.306.781-.113.781.298 0 2.756-.315 5.503-.938 8.187l-4.737 20.41c-.216.93.26 1.916 1.156 2.248 1.084.4 2.237-.246 2.49-1.336l3.627-16.81c.065-.3.495-.3.56 0l3.628 16.81c.202.869.974 1.455 1.829 1.455.208 0 .424-.035.635-.11.91-.324 1.4-1.32 1.18-2.262l-4.736-20.405c-.622-2.684-.937-5.431-.937-8.187 0-.41.508-.604.78-.298l7.424 8.322c.372.415.886.627 1.402.627.446 0 .892-.157 1.251-.478.774-.691.84-1.88.15-2.654M151.27 210.447l-11.265-12.633c-.053-.059-.027-.15.049-.175 2.256-.723 3.876-2.866 3.8-5.38-.083-2.8-2.325-5.125-5.117-5.3-3.181-.199-5.823 2.325-5.823 5.467 0 2.44 1.594 4.503 3.796 5.211.076.024.102.116.05.176l-11.26 12.634c-.692.774-.624 1.963.15 2.654.773.692 1.961.625 2.652-.15l7.423-8.321c.274-.306.782-.113.782.298 0 2.756-.315 5.503-.938 8.187l-4.737 20.41c-.216.93.26 1.916 1.156 2.248 1.084.4 2.237-.246 2.489-1.336l3.628-16.81c.065-.3.495-.3.56 0l3.628 16.81c.201.869.974 1.455 1.828 1.455.21 0 .424-.035.636-.11.91-.324 1.4-1.32 1.18-2.262l-4.736-20.405c-.623-2.684-.938-5.431-.937-8.187 0-.41.508-.604.78-.298l7.425 8.322c.37.415.885.627 1.401.627.446 0 .892-.157 1.251-.478.773-.691.84-1.88.15-2.654M182.798 210.447l-11.267-12.633c-.052-.059-.025-.15.05-.175 2.256-.723 3.876-2.866 3.8-5.38-.083-2.8-2.325-5.125-5.117-5.3-3.181-.199-5.823 2.325-5.823 5.467 0 2.44 1.594 4.503 3.796 5.211.076.024.102.116.05.176l-11.26 12.634c-.691.774-.624 1.963.15 2.654.773.692 1.962.625 2.652-.15l7.424-8.321c.273-.306.781-.113.781.298 0 2.756-.315 5.503-.938 8.187l-4.737 20.41c-.216.93.26 1.916 1.156 2.248 1.085.4 2.237-.246 2.49-1.336l3.627-16.81c.065-.3.495-.3.56 0l3.628 16.81c.202.869.974 1.455 1.829 1.455.209 0 .424-.035.636-.11.91-.324 1.398-1.32 1.18-2.262l-4.736-20.405c-.623-2.684-.938-5.431-.938-8.187 0-.41.508-.604.78-.298l7.425 8.322c.37.415.885.627 1.401.627.446 0 .892-.157 1.251-.478.774-.691.841-1.88.15-2.654M213.782 210.447l-11.266-12.633c-.053-.059-.026-.15.049-.175 2.256-.723 3.876-2.866 3.8-5.38-.083-2.8-2.325-5.125-5.117-5.3-3.181-.199-5.823 2.325-5.823 5.467 0 2.44 1.594 4.503 3.796 5.211.076.024.102.116.05.176l-11.26 12.634c-.692.774-.624 1.963.15 2.654.773.692 1.961.625 2.652-.15l7.424-8.321c.273-.306.78-.113.78.298 0 2.756-.314 5.503-.937 8.187l-4.737 20.41c-.216.93.26 1.916 1.156 2.248 1.084.4 2.237-.246 2.489-1.336l3.628-16.81c.065-.3.495-.3.56 0l3.628 16.81c.202.869.974 1.455 1.828 1.455.21 0 .424-.035.636-.11.91-.324 1.4-1.32 1.18-2.262l-4.736-20.405c-.623-2.684-.937-5.431-.937-8.187 0-.41.508-.604.78-.298l7.425 8.322c.37.415.885.627 1.401.627.446 0 .892-.157 1.251-.478.774-.691.84-1.88.15-2.654M245.31 210.447l-11.267-12.633c-.053-.059-.026-.15.05-.175 2.255-.723 3.875-2.866 3.8-5.38-.083-2.8-2.326-5.125-5.118-5.3-3.181-.199-5.823 2.325-5.823 5.467 0 2.44 1.594 4.503 3.797 5.211.075.024.102.116.049.176l-11.26 12.634c-.691.774-.624 1.963.15 2.654.774.692 1.962.625 2.652-.15l7.424-8.321c.274-.306.781-.113.781.298 0 2.756-.314 5.503-.937 8.187l-4.738 20.41c-.216.93.26 1.916 1.156 2.248 1.085.4 2.237-.246 2.49-1.336l3.627-16.81c.066-.3.496-.3.56 0l3.629 16.81c.2.869.973 1.455 1.828 1.455.209 0 .424-.035.636-.11.91-.324 1.398-1.32 1.18-2.262l-4.736-20.405c-.623-2.684-.938-5.431-.938-8.187 0-.41.508-.604.781-.298l7.424 8.322c.37.415.886.627 1.401.627.446 0 .892-.157 1.251-.478.774-.691.841-1.88.15-2.654M276.293 210.447l-11.267-12.633c-.052-.059-.025-.15.05-.175 2.256-.723 3.876-2.866 3.8-5.38-.083-2.8-2.325-5.125-5.117-5.3-3.181-.199-5.824 2.325-5.824 5.467 0 2.44 1.595 4.503 3.797 5.211.076.024.102.116.05.176l-11.26 12.634c-.691.774-.624 1.963.15 2.654.773.692 1.96.625 2.652-.15l7.424-8.321c.273-.306.781-.113.781.298 0 2.756-.315 5.503-.938 8.187l-4.737 20.41c-.216.93.26 1.916 1.156 2.248 1.084.4 2.237-.246 2.49-1.336l3.627-16.81c.065-.3.495-.3.56 0l3.628 16.81c.202.869.974 1.455 1.828 1.455.21 0 .424-.035.636-.11.91-.324 1.399-1.32 1.18-2.262l-4.736-20.405c-.623-2.684-.937-5.431-.937-8.187 0-.41.508-.604.78-.298l7.424 8.322c.371.415.886.627 1.402.627.445 0 .892-.157 1.251-.478.774-.691.84-1.88.15-2.654M307.82 210.447l-11.266-12.633c-.053-.059-.026-.15.05-.175 2.255-.723 3.875-2.866 3.8-5.38-.084-2.8-2.325-5.125-5.118-5.3-3.181-.199-5.823 2.325-5.823 5.467 0 2.44 1.594 4.503 3.796 5.211.076.024.103.116.05.176l-11.26 12.634c-.691.774-.624 1.963.15 2.654.774.692 1.962.625 2.652-.15l7.424-8.321c.274-.306.781-.113.781.298 0 2.756-.314 5.503-.938 8.187l-4.737 20.41c-.216.93.26 1.916 1.156 2.248 1.085.4 2.237-.246 2.49-1.336l3.627-16.81c.065-.3.495-.3.56 0l3.628 16.81c.202.869.975 1.455 1.828 1.455.21 0 .424-.035.636-.11.91-.324 1.4-1.32 1.18-2.262l-4.735-20.405c-.624-2.684-.938-5.431-.938-8.187 0-.41.508-.604.781-.298l7.424 8.322c.37.415.885.627 1.402.627.445 0 .892-.157 1.25-.478.774-.691.841-1.88.15-2.654M339.347 210.447l-11.266-12.633c-.053-.059-.026-.15.05-.175 2.255-.723 3.875-2.866 3.8-5.38-.083-2.8-2.325-5.125-5.117-5.3-3.182-.199-5.824 2.325-5.824 5.467 0 2.44 1.595 4.503 3.797 5.211.075.024.102.116.05.176l-11.26 12.634c-.692.774-.625 1.963.15 2.654.773.692 1.96.625 2.651-.15l7.424-8.321c.274-.306.782-.113.782.298 0 2.756-.315 5.503-.938 8.187l-4.737 20.41c-.216.93.26 1.916 1.156 2.248 1.084.4 2.237-.246 2.489-1.336l3.628-16.81c.064-.3.494-.3.56 0l3.627 16.81c.202.869.975 1.455 1.829 1.455.209 0 .424-.035.636-.11.91-.324 1.399-1.32 1.18-2.262l-4.736-20.405c-.623-2.684-.938-5.431-.938-8.187 0-.41.508-.604.781-.298l7.425 8.322c.37.415.884.627 1.4.627.446 0 .893-.157 1.252-.478.773-.691.84-1.88.15-2.654M370.331 210.447l-11.266-12.633c-.053-.059-.026-.15.05-.175 2.255-.723 3.875-2.866 3.8-5.38-.084-2.8-2.325-5.125-5.118-5.3-3.18-.199-5.823 2.325-5.823 5.467 0 2.44 1.594 4.503 3.796 5.211.077.024.103.116.05.176l-11.26 12.634c-.691.774-.624 1.963.15 2.654.774.692 1.962.625 2.652-.15l7.425-8.321c.273-.306.78-.113.78.298 0 2.756-.314 5.503-.938 8.187l-4.736 20.41c-.217.93.26 1.916 1.155 2.248 1.085.4 2.237-.246 2.49-1.336l3.628-16.81c.064-.3.494-.3.56 0l3.627 16.81c.202.869.975 1.455 1.829 1.455.209 0 .424-.035.635-.11.91-.324 1.4-1.32 1.18-2.262l-4.735-20.405c-.624-2.684-.938-5.431-.938-8.187 0-.41.508-.604.781-.298l7.424 8.322c.37.415.886.627 1.402.627.445 0 .892-.157 1.25-.478.774-.691.841-1.88.15-2.654M401.859 210.447l-11.267-12.633c-.052-.059-.025-.15.05-.175 2.255-.723 3.876-2.866 3.8-5.38-.083-2.8-2.325-5.125-5.117-5.3-3.182-.199-5.824 2.325-5.824 5.467 0 2.44 1.595 4.503 3.797 5.211.076.024.102.116.05.176l-11.26 12.634c-.692.774-.625 1.963.15 2.654.773.692 1.961.625 2.651-.15l7.425-8.321c.273-.306.78-.113.78.298 0 2.756-.313 5.503-.937 8.187l-4.737 20.41c-.216.93.26 1.916 1.156 2.248 1.084.4 2.237-.246 2.489-1.336l3.628-16.81c.065-.3.495-.3.56 0l3.627 16.81c.202.869.975 1.455 1.83 1.455.208 0 .423-.035.635-.11.91-.324 1.399-1.32 1.18-2.262l-4.735-20.405c-.624-2.684-.939-5.431-.939-8.187 0-.41.509-.604.781-.298l7.425 8.322c.37.415.885.627 1.4.627.446 0 .893-.157 1.252-.478.773-.691.84-1.88.15-2.654M432.842 210.447l-11.266-12.633c-.053-.059-.026-.15.05-.175 2.255-.723 3.875-2.866 3.8-5.38-.083-2.8-2.325-5.125-5.118-5.3-3.18-.199-5.823 2.325-5.823 5.467 0 2.44 1.595 4.503 3.796 5.211.076.024.102.116.05.176l-11.26 12.634c-.69.774-.624 1.963.15 2.654.774.692 1.961.625 2.652-.15l7.424-8.321c.274-.306.782-.113.782.298 0 2.756-.315 5.503-.939 8.187l-4.736 20.41c-.216.93.26 1.916 1.156 2.248 1.084.4 2.236-.246 2.489-1.336l3.628-16.81c.064-.3.494-.3.56 0l3.627 16.81c.202.869.974 1.455 1.829 1.455.209 0 .423-.035.635-.11.91-.324 1.4-1.32 1.18-2.262l-4.735-20.405c-.624-2.684-.938-5.431-.938-8.187 0-.41.508-.604.781-.298l7.424 8.322c.37.415.885.627 1.402.627.445 0 .892-.157 1.25-.478.774-.691.84-1.88.15-2.654M464.37 210.447l-11.267-12.633c-.052-.059-.026-.15.05-.175 2.255-.723 3.876-2.866 3.8-5.38-.083-2.8-2.325-5.125-5.117-5.3-3.182-.199-5.824 2.325-5.824 5.467 0 2.44 1.595 4.503 3.797 5.211.075.024.102.116.05.176l-11.26 12.634c-.692.774-.624 1.963.15 2.654.773.692 1.961.625 2.652-.15l7.423-8.321c.274-.306.782-.113.782.298 0 2.756-.315 5.503-.938 8.187l-4.737 20.41c-.216.93.26 1.916 1.156 2.248 1.084.4 2.237-.246 2.489-1.336l3.628-16.81c.065-.3.495-.3.56 0l3.628 16.81c.201.869.974 1.455 1.828 1.455.21 0 .424-.035.636-.11.91-.324 1.399-1.32 1.18-2.262l-4.736-20.405c-.623-2.684-.938-5.431-.938-8.187 0-.41.508-.604.781-.298l7.424 8.322c.371.415.886.627 1.402.627.446 0 .892-.157 1.25-.478.774-.691.841-1.88.15-2.654M495.353 210.447l-11.266-12.633c-.053-.059-.026-.15.05-.175 2.255-.723 3.875-2.866 3.8-5.38-.083-2.8-2.325-5.125-5.117-5.3-3.182-.199-5.824 2.325-5.824 5.467 0 2.44 1.595 4.503 3.797 5.211.075.024.101.116.05.176l-11.26 12.634c-.692.774-.625 1.963.15 2.654.773.692 1.96.625 2.651-.15l7.424-8.321c.274-.306.782-.113.782.298 0 2.756-.315 5.503-.938 8.187l-4.737 20.41c-.216.93.26 1.916 1.156 2.248 1.084.4 2.236-.246 2.489-1.336l3.628-16.81c.064-.3.494-.3.56 0l3.627 16.81c.202.869.974 1.455 1.829 1.455.209 0 .424-.035.636-.11.91-.324 1.399-1.32 1.18-2.262l-4.736-20.405c-.623-2.684-.938-5.431-.938-8.187 0-.41.508-.604.781-.298l7.424 8.322c.371.415.885.627 1.402.627.445 0 .892-.157 1.25-.478.774-.691.84-1.88.15-2.654M526.88 210.447l-11.265-12.633c-.053-.059-.027-.15.049-.175 2.256-.723 3.876-2.866 3.8-5.38-.083-2.8-2.325-5.125-5.117-5.3-3.181-.199-5.823 2.325-5.823 5.467 0 2.44 1.594 4.503 3.796 5.211.076.024.102.116.05.176l-11.26 12.634c-.692.774-.624 1.963.15 2.654.773.692 1.961.625 2.652-.15l7.424-8.321c.273-.306.78-.113.78.298 0 2.756-.314 5.503-.937 8.187l-4.737 20.41c-.216.93.26 1.916 1.156 2.248 1.084.4 2.237-.246 2.489-1.336l3.628-16.81c.065-.3.495-.3.56 0l3.628 16.81c.201.869.974 1.455 1.828 1.455.21 0 .424-.035.636-.11.91-.324 1.4-1.32 1.18-2.262l-4.736-20.405c-.623-2.684-.937-5.431-.937-8.187 0-.41.507-.604.78-.298l7.425 8.322c.37.415.885.627 1.401.627.446 0 .892-.157 1.251-.478.773-.691.84-1.88.15-2.654M57.776 267.579l-11.267-12.632c-.052-.06-.025-.152.05-.176 2.256-.723 3.876-2.865 3.8-5.38-.083-2.8-2.325-5.124-5.117-5.3-3.181-.199-5.824 2.326-5.824 5.467 0 2.44 1.595 4.503 3.797 5.211.076.025.102.117.05.176l-11.26 12.634c-.691.775-.624 1.963.15 2.655.773.692 1.96.624 2.652-.15l7.424-8.321c.273-.307.781-.113.781.297 0 2.756-.315 5.503-.938 8.188l-4.737 20.409c-.216.931.26 1.917 1.156 2.248 1.084.4 2.237-.246 2.49-1.335l3.627-16.81c.065-.301.495-.301.56 0l3.628 16.81c.202.868.974 1.455 1.828 1.455.21 0 .424-.035.636-.11.91-.325 1.399-1.32 1.18-2.262l-4.736-20.405c-.623-2.685-.937-5.432-.937-8.188 0-.41.508-.603.78-.297l7.424 8.321c.371.416.886.628 1.402.628.445 0 .892-.158 1.251-.478.774-.692.84-1.88.15-2.655M88.76 267.579l-11.267-12.632c-.052-.06-.026-.152.05-.176 2.255-.723 3.876-2.865 3.8-5.38-.083-2.8-2.325-5.124-5.117-5.3-3.182-.199-5.824 2.326-5.824 5.467 0 2.44 1.595 4.503 3.797 5.211.075.025.102.117.05.176l-11.26 12.634c-.692.775-.624 1.963.15 2.655.773.692 1.96.624 2.652-.15l7.423-8.321c.274-.307.782-.113.782.297 0 2.756-.315 5.503-.938 8.188l-4.737 20.409c-.216.931.26 1.917 1.156 2.248 1.084.4 2.237-.246 2.489-1.335l3.628-16.81c.065-.301.495-.301.56 0l3.628 16.81c.201.868.973 1.455 1.828 1.455.21 0 .424-.035.636-.11.91-.325 1.399-1.32 1.18-2.262l-4.736-20.405c-.623-2.685-.938-5.432-.938-8.188 0-.41.508-.603.781-.297l7.424 8.321c.371.416.886.628 1.402.628.445 0 .892-.158 1.25-.478.774-.692.841-1.88.15-2.655M120.287 267.579l-11.267-12.632c-.052-.06-.025-.152.05-.176 2.256-.723 3.876-2.865 3.8-5.38-.083-2.8-2.325-5.124-5.117-5.3-3.181-.199-5.823 2.326-5.823 5.467 0 2.44 1.594 4.503 3.796 5.211.076.025.102.117.05.176l-11.26 12.634c-.691.775-.624 1.963.15 2.655.773.692 1.961.624 2.652-.15l7.424-8.321c.273-.307.781-.113.781.297 0 2.756-.315 5.503-.938 8.188l-4.737 20.409c-.216.931.26 1.917 1.156 2.248 1.084.4 2.237-.246 2.49-1.335l3.627-16.81c.065-.301.495-.301.56 0l3.628 16.81c.202.868.974 1.455 1.829 1.455.208 0 .424-.035.635-.11.91-.325 1.4-1.32 1.18-2.262l-4.736-20.405c-.622-2.685-.937-5.432-.937-8.188 0-.41.508-.603.78-.297l7.424 8.321c.372.416.886.628 1.402.628.446 0 .892-.158 1.251-.478.774-.692.84-1.88.15-2.655M151.27 267.579l-11.265-12.632c-.053-.06-.027-.152.049-.176 2.256-.723 3.876-2.865 3.8-5.38-.083-2.8-2.325-5.124-5.117-5.3-3.181-.199-5.823 2.326-5.823 5.467 0 2.44 1.594 4.503 3.796 5.211.076.025.102.117.05.176L125.5 267.58c-.692.775-.624 1.963.15 2.655.773.692 1.961.624 2.652-.15l7.423-8.321c.274-.307.782-.113.782.297 0 2.756-.315 5.503-.938 8.188l-4.737 20.409c-.216.931.26 1.917 1.156 2.248 1.084.4 2.237-.246 2.489-1.335l3.628-16.81c.065-.301.495-.301.56 0l3.628 16.81c.201.868.974 1.455 1.828 1.455.21 0 .424-.035.636-.11.91-.325 1.4-1.32 1.18-2.262l-4.736-20.405c-.623-2.685-.938-5.432-.937-8.188 0-.41.508-.603.78-.297l7.425 8.321c.37.416.885.628 1.401.628.446 0 .892-.158 1.251-.478.773-.692.84-1.88.15-2.655M182.798 267.579l-11.267-12.632c-.052-.06-.025-.152.05-.176 2.256-.723 3.876-2.865 3.8-5.38-.083-2.8-2.325-5.124-5.117-5.3-3.181-.199-5.823 2.326-5.823 5.467 0 2.44 1.594 4.503 3.796 5.211.076.025.102.117.05.176l-11.26 12.634c-.691.775-.624 1.963.15 2.655.773.692 1.962.624 2.652-.15l7.424-8.321c.273-.307.781-.113.781.297 0 2.756-.315 5.503-.938 8.188l-4.737 20.409c-.216.931.26 1.917 1.156 2.248 1.085.4 2.237-.246 2.49-1.335l3.627-16.81c.065-.301.495-.301.56 0l3.628 16.81c.202.868.974 1.455 1.829 1.455.209 0 .424-.035.636-.11.91-.325 1.398-1.32 1.18-2.262l-4.736-20.405c-.623-2.685-.938-5.432-.938-8.188 0-.41.508-.603.78-.297l7.425 8.321c.37.416.885.628 1.401.628.446 0 .892-.158 1.251-.478.774-.692.841-1.88.15-2.655M213.782 267.579l-11.266-12.632c-.053-.06-.026-.152.049-.176 2.256-.723 3.876-2.865 3.8-5.38-.083-2.8-2.325-5.124-5.117-5.3-3.181-.199-5.823 2.326-5.823 5.467 0 2.44 1.594 4.503 3.796 5.211.076.025.102.117.05.176l-11.26 12.634c-.692.775-.624 1.963.15 2.655.773.692 1.961.624 2.652-.15l7.424-8.321c.273-.307.78-.113.78.297 0 2.756-.314 5.503-.937 8.188l-4.737 20.409c-.216.931.26 1.917 1.156 2.248 1.084.4 2.237-.246 2.489-1.335l3.628-16.81c.065-.301.495-.301.56 0l3.628 16.81c.202.868.974 1.455 1.828 1.455.21 0 .424-.035.636-.11.91-.325 1.4-1.32 1.18-2.262l-4.736-20.405c-.623-2.685-.937-5.432-.937-8.188 0-.41.508-.603.78-.297l7.425 8.321c.37.416.885.628 1.401.628.446 0 .892-.158 1.251-.478.774-.692.84-1.88.15-2.655M245.31 267.579l-11.267-12.632c-.053-.06-.026-.152.05-.176 2.255-.723 3.875-2.865 3.8-5.38-.083-2.8-2.326-5.124-5.118-5.3-3.181-.199-5.823 2.326-5.823 5.467 0 2.44 1.594 4.503 3.797 5.211.075.025.102.117.049.176l-11.26 12.634c-.691.775-.624 1.963.15 2.655.774.692 1.962.624 2.652-.15l7.424-8.321c.274-.307.781-.113.781.297 0 2.756-.314 5.503-.937 8.188l-4.738 20.409c-.216.931.26 1.917 1.156 2.248 1.085.4 2.237-.246 2.49-1.335l3.627-16.81c.066-.301.496-.301.56 0l3.629 16.81c.2.868.973 1.455 1.828 1.455.209 0 .424-.035.636-.11.91-.325 1.398-1.32 1.18-2.262l-4.736-20.405c-.623-2.685-.938-5.432-.938-8.188 0-.41.508-.603.781-.297l7.424 8.321c.37.416.886.628 1.401.628.446 0 .892-.158 1.251-.478.774-.692.841-1.88.15-2.655" fill="#CDCCE2"/>
        <path d="M276.293 267.579l-11.267-12.632c-.052-.06-.025-.152.05-.176 2.256-.723 3.876-2.865 3.8-5.38-.083-2.8-2.325-5.124-5.117-5.3-3.181-.199-5.824 2.326-5.824 5.467 0 2.44 1.595 4.503 3.797 5.211.076.025.102.117.05.176l-11.26 12.634c-.691.775-.624 1.963.15 2.655.773.692 1.96.624 2.652-.15l7.424-8.321c.273-.307.781-.113.781.297 0 2.756-.315 5.503-.938 8.188l-4.737 20.409c-.216.931.26 1.917 1.156 2.248 1.084.4 2.237-.246 2.49-1.335l3.627-16.81c.065-.301.495-.301.56 0l3.628 16.81c.202.868.974 1.455 1.828 1.455.21 0 .424-.035.636-.11.91-.325 1.399-1.32 1.18-2.262l-4.736-20.405c-.623-2.685-.937-5.432-.937-8.188 0-.41.508-.603.78-.297l7.424 8.321c.371.416.886.628 1.402.628.445 0 .892-.158 1.251-.478.774-.692.84-1.88.15-2.655" fill="#19CA94"/>
        <path d="M307.82 267.579l-11.266-12.632c-.053-.06-.026-.152.05-.176 2.255-.723 3.875-2.865 3.8-5.38-.084-2.8-2.325-5.124-5.118-5.3-3.181-.199-5.823 2.326-5.823 5.467 0 2.44 1.594 4.503 3.796 5.211.076.025.103.117.05.176l-11.26 12.634c-.691.775-.624 1.963.15 2.655.774.692 1.962.624 2.652-.15l7.424-8.321c.274-.307.781-.113.781.297 0 2.756-.314 5.503-.938 8.188l-4.737 20.409c-.216.931.26 1.917 1.156 2.248 1.085.4 2.237-.246 2.49-1.335l3.627-16.81c.065-.301.495-.301.56 0l3.628 16.81c.202.868.975 1.455 1.828 1.455.21 0 .424-.035.636-.11.91-.325 1.4-1.32 1.18-2.262l-4.735-20.405c-.624-2.685-.938-5.432-.938-8.188 0-.41.508-.603.781-.297l7.424 8.321c.37.416.885.628 1.402.628.445 0 .892-.158 1.25-.478.774-.692.841-1.88.15-2.655M339.347 267.579l-11.266-12.632c-.053-.06-.026-.152.05-.176 2.255-.723 3.875-2.865 3.8-5.38-.083-2.8-2.325-5.124-5.117-5.3-3.182-.199-5.824 2.326-5.824 5.467 0 2.44 1.595 4.503 3.797 5.211.075.025.102.117.05.176l-11.26 12.634c-.692.775-.625 1.963.15 2.655.773.692 1.96.624 2.651-.15l7.424-8.321c.274-.307.782-.113.782.297 0 2.756-.315 5.503-.938 8.188l-4.737 20.409c-.216.931.26 1.917 1.156 2.248 1.084.4 2.237-.246 2.489-1.335l3.628-16.81c.064-.301.494-.301.56 0l3.627 16.81c.202.868.975 1.455 1.829 1.455.209 0 .424-.035.636-.11.91-.325 1.399-1.32 1.18-2.262l-4.736-20.405c-.623-2.685-.938-5.432-.938-8.188 0-.41.508-.603.781-.297l7.425 8.321c.37.416.884.628 1.4.628.446 0 .893-.158 1.252-.478.773-.692.84-1.88.15-2.655M370.331 267.579l-11.266-12.632c-.053-.06-.026-.152.05-.176 2.255-.723 3.875-2.865 3.8-5.38-.084-2.8-2.325-5.124-5.118-5.3-3.18-.199-5.823 2.326-5.823 5.467 0 2.44 1.594 4.503 3.796 5.211.077.025.103.117.05.176l-11.26 12.634c-.691.775-.624 1.963.15 2.655.774.692 1.962.624 2.652-.15l7.425-8.321c.273-.307.78-.113.78.297 0 2.756-.314 5.503-.938 8.188l-4.736 20.409c-.217.931.26 1.917 1.155 2.248 1.085.4 2.237-.246 2.49-1.335l3.628-16.81c.064-.301.494-.301.56 0l3.627 16.81c.202.868.975 1.455 1.829 1.455.209 0 .424-.035.635-.11.91-.325 1.4-1.32 1.18-2.262l-4.735-20.405c-.624-2.685-.938-5.432-.938-8.188 0-.41.508-.603.781-.297l7.424 8.321c.37.416.886.628 1.402.628.445 0 .892-.158 1.25-.478.774-.692.841-1.88.15-2.655M401.859 267.579l-11.267-12.632c-.052-.06-.025-.152.05-.176 2.255-.723 3.876-2.865 3.8-5.38-.083-2.8-2.325-5.124-5.117-5.3-3.182-.199-5.824 2.326-5.824 5.467 0 2.44 1.595 4.503 3.797 5.211.076.025.102.117.05.176l-11.26 12.634c-.692.775-.625 1.963.15 2.655.773.692 1.961.624 2.651-.15l7.425-8.321c.273-.307.78-.113.78.297 0 2.756-.313 5.503-.937 8.188l-4.737 20.409c-.216.931.26 1.917 1.156 2.248 1.084.4 2.237-.246 2.489-1.335l3.628-16.81c.065-.301.495-.301.56 0l3.627 16.81c.202.868.975 1.455 1.83 1.455.208 0 .423-.035.635-.11.91-.325 1.399-1.32 1.18-2.262l-4.735-20.405c-.624-2.685-.939-5.432-.939-8.188 0-.41.509-.603.781-.297l7.425 8.321c.37.416.885.628 1.4.628.446 0 .893-.158 1.252-.478.773-.692.84-1.88.15-2.655M432.842 267.579l-11.266-12.632c-.053-.06-.026-.152.05-.176 2.255-.723 3.875-2.865 3.8-5.38-.083-2.8-2.325-5.124-5.118-5.3-3.18-.199-5.823 2.326-5.823 5.467 0 2.44 1.595 4.503 3.796 5.211.076.025.102.117.05.176l-11.26 12.634c-.69.775-.624 1.963.15 2.655.774.692 1.961.624 2.652-.15l7.424-8.321c.274-.307.782-.113.782.297 0 2.756-.315 5.503-.939 8.188l-4.736 20.409c-.216.931.26 1.917 1.156 2.248 1.084.4 2.236-.246 2.489-1.335l3.628-16.81c.064-.301.494-.301.56 0l3.627 16.81c.202.868.974 1.455 1.829 1.455.209 0 .423-.035.635-.11.91-.325 1.4-1.32 1.18-2.262l-4.735-20.405c-.624-2.685-.938-5.432-.938-8.188 0-.41.508-.603.781-.297l7.424 8.321c.37.416.885.628 1.402.628.445 0 .892-.158 1.25-.478.774-.692.84-1.88.15-2.655M464.37 267.579l-11.267-12.632c-.052-.06-.026-.152.05-.176 2.255-.723 3.876-2.865 3.8-5.38-.083-2.8-2.325-5.124-5.117-5.3-3.182-.199-5.824 2.326-5.824 5.467 0 2.44 1.595 4.503 3.797 5.211.075.025.102.117.05.176l-11.26 12.634c-.692.775-.624 1.963.15 2.655.773.692 1.961.624 2.652-.15l7.423-8.321c.274-.307.782-.113.782.297 0 2.756-.315 5.503-.938 8.188l-4.737 20.409c-.216.931.26 1.917 1.156 2.248 1.084.4 2.237-.246 2.489-1.335l3.628-16.81c.065-.301.495-.301.56 0l3.628 16.81c.201.868.974 1.455 1.828 1.455.21 0 .424-.035.636-.11.91-.325 1.399-1.32 1.18-2.262l-4.736-20.405c-.623-2.685-.938-5.432-.938-8.188 0-.41.508-.603.781-.297l7.424 8.321c.371.416.886.628 1.402.628.446 0 .892-.158 1.25-.478.774-.692.841-1.88.15-2.655M495.353 267.579l-11.266-12.632c-.053-.06-.026-.152.05-.176 2.255-.723 3.875-2.865 3.8-5.38-.083-2.8-2.325-5.124-5.117-5.3-3.182-.199-5.824 2.326-5.824 5.467 0 2.44 1.595 4.503 3.797 5.211.075.025.101.117.05.176l-11.26 12.634c-.692.775-.625 1.963.15 2.655.773.692 1.96.624 2.651-.15l7.424-8.321c.274-.307.782-.113.782.297 0 2.756-.315 5.503-.938 8.188l-4.737 20.409c-.216.931.26 1.917 1.156 2.248 1.084.4 2.236-.246 2.489-1.335l3.628-16.81c.064-.301.494-.301.56 0l3.627 16.81c.202.868.974 1.455 1.829 1.455.209 0 .424-.035.636-.11.91-.325 1.399-1.32 1.18-2.262l-4.736-20.405c-.623-2.685-.938-5.432-.938-8.188 0-.41.508-.603.781-.297l7.424 8.321c.371.416.885.628 1.402.628.445 0 .892-.158 1.25-.478.774-.692.84-1.88.15-2.655M526.88 267.579l-11.265-12.632c-.053-.06-.027-.152.049-.176 2.256-.723 3.876-2.865 3.8-5.38-.083-2.8-2.325-5.124-5.117-5.3-3.181-.199-5.823 2.326-5.823 5.467 0 2.44 1.594 4.503 3.796 5.211.076.025.102.117.05.176l-11.26 12.634c-.692.775-.624 1.963.15 2.655.773.692 1.961.624 2.652-.15l7.424-8.321c.273-.307.78-.113.78.297 0 2.756-.314 5.503-.937 8.188l-4.737 20.409c-.216.931.26 1.917 1.156 2.248 1.084.4 2.237-.246 2.489-1.335l3.628-16.81c.065-.301.495-.301.56 0l3.628 16.81c.201.868.974 1.455 1.828 1.455.21 0 .424-.035.636-.11.91-.325 1.4-1.32 1.18-2.262l-4.736-20.405c-.623-2.685-.937-5.432-.937-8.188 0-.41.507-.603.78-.297l7.425 8.321c.37.416.885.628 1.401.628.446 0 .892-.158 1.251-.478.773-.692.84-1.88.15-2.655M57.776 324.167l-11.267-12.632c-.052-.06-.025-.151.05-.176 2.256-.722 3.876-2.866 3.8-5.38-.083-2.799-2.325-5.124-5.117-5.3-3.181-.198-5.824 2.326-5.824 5.467 0 2.44 1.595 4.503 3.797 5.212.076.024.102.116.05.175l-11.26 12.634c-.691.774-.624 1.963.15 2.655.773.692 1.96.625 2.652-.15l7.424-8.322c.273-.306.781-.112.781.299 0 2.756-.315 5.502-.938 8.186l-4.737 20.41c-.216.931.26 1.917 1.156 2.248 1.084.401 2.237-.245 2.49-1.336l3.627-16.809c.065-.301.495-.301.56 0l3.628 16.81c.202.868.974 1.455 1.828 1.455.21 0 .424-.036.636-.11.91-.324 1.399-1.32 1.18-2.262l-4.736-20.406c-.623-2.684-.937-5.43-.937-8.187 0-.41.508-.603.78-.298l7.424 8.322c.371.416.886.628 1.402.628.445 0 .892-.158 1.251-.478.774-.692.84-1.88.15-2.655M88.76 324.167l-11.267-12.632c-.052-.06-.026-.151.05-.176 2.255-.722 3.876-2.866 3.8-5.38-.083-2.799-2.325-5.124-5.117-5.3-3.182-.198-5.824 2.326-5.824 5.467 0 2.44 1.595 4.503 3.797 5.212.075.024.102.116.05.175l-11.26 12.634c-.692.774-.624 1.963.15 2.655.773.692 1.96.625 2.652-.15l7.423-8.322c.274-.306.782-.112.782.299 0 2.756-.315 5.502-.938 8.186l-4.737 20.41c-.216.931.26 1.917 1.156 2.248 1.084.401 2.237-.245 2.489-1.336l3.628-16.809c.065-.301.495-.301.56 0l3.628 16.81c.201.868.973 1.455 1.828 1.455.21 0 .424-.036.636-.11.91-.324 1.399-1.32 1.18-2.262l-4.736-20.406c-.623-2.684-.938-5.43-.938-8.187 0-.41.508-.603.781-.298l7.424 8.322c.371.416.886.628 1.402.628.445 0 .892-.158 1.25-.478.774-.692.841-1.88.15-2.655M120.287 324.167l-11.267-12.632c-.052-.06-.025-.151.05-.176 2.256-.722 3.876-2.866 3.8-5.38-.083-2.799-2.325-5.124-5.117-5.3-3.181-.198-5.823 2.326-5.823 5.467 0 2.44 1.594 4.503 3.796 5.212.076.024.102.116.05.175l-11.26 12.634c-.691.774-.624 1.963.15 2.655.773.692 1.961.625 2.652-.15l7.424-8.322c.273-.306.781-.112.781.299 0 2.756-.315 5.502-.938 8.186l-4.737 20.41c-.216.931.26 1.917 1.156 2.248 1.084.401 2.237-.245 2.49-1.336l3.627-16.809c.065-.301.495-.301.56 0l3.628 16.81c.202.868.974 1.455 1.829 1.455.208 0 .424-.036.635-.11.91-.324 1.4-1.32 1.18-2.262l-4.736-20.406c-.622-2.684-.937-5.43-.937-8.187 0-.41.508-.603.78-.298l7.424 8.322c.372.416.886.628 1.402.628.446 0 .892-.158 1.251-.478.774-.692.84-1.88.15-2.655M151.27 324.167l-11.265-12.632c-.053-.06-.027-.151.049-.176 2.256-.722 3.876-2.866 3.8-5.38-.083-2.799-2.325-5.124-5.117-5.3-3.181-.198-5.823 2.326-5.823 5.467 0 2.44 1.594 4.503 3.796 5.212.076.024.102.116.05.175l-11.26 12.634c-.692.774-.624 1.963.15 2.655.773.692 1.961.625 2.652-.15l7.423-8.322c.274-.306.782-.112.782.299 0 2.756-.315 5.502-.938 8.186l-4.737 20.41c-.216.931.26 1.917 1.156 2.248 1.084.401 2.237-.245 2.489-1.336l3.628-16.809c.065-.301.495-.301.56 0l3.628 16.81c.201.868.974 1.455 1.828 1.455.21 0 .424-.036.636-.11.91-.324 1.4-1.32 1.18-2.262l-4.736-20.406c-.623-2.684-.938-5.43-.937-8.187 0-.41.508-.603.78-.298l7.425 8.322c.37.416.885.628 1.401.628.446 0 .892-.158 1.251-.478.773-.692.84-1.88.15-2.655M182.798 324.167l-11.267-12.632c-.052-.06-.025-.151.05-.176 2.256-.722 3.876-2.866 3.8-5.38-.083-2.799-2.325-5.124-5.117-5.3-3.181-.198-5.823 2.326-5.823 5.467 0 2.44 1.594 4.503 3.796 5.212.076.024.102.116.05.175l-11.26 12.634c-.691.774-.624 1.963.15 2.655.773.692 1.962.625 2.652-.15l7.424-8.322c.273-.306.781-.112.781.299 0 2.756-.315 5.502-.938 8.186l-4.737 20.41c-.216.931.26 1.917 1.156 2.248 1.085.401 2.237-.245 2.49-1.336l3.627-16.809c.065-.301.495-.301.56 0l3.628 16.81c.202.868.974 1.455 1.829 1.455.209 0 .424-.036.636-.11.91-.324 1.398-1.32 1.18-2.262l-4.736-20.406c-.623-2.684-.938-5.43-.938-8.187 0-.41.508-.603.78-.298l7.425 8.322c.37.416.885.628 1.401.628.446 0 .892-.158 1.251-.478.774-.692.841-1.88.15-2.655M213.782 324.167l-11.266-12.632c-.053-.06-.026-.151.049-.176 2.256-.722 3.876-2.866 3.8-5.38-.083-2.799-2.325-5.124-5.117-5.3-3.181-.198-5.823 2.326-5.823 5.467 0 2.44 1.594 4.503 3.796 5.212.076.024.102.116.05.175l-11.26 12.634c-.692.774-.624 1.963.15 2.655.773.692 1.961.625 2.652-.15l7.424-8.322c.273-.306.78-.112.78.299 0 2.756-.314 5.502-.937 8.186l-4.737 20.41c-.216.931.26 1.917 1.156 2.248 1.084.401 2.237-.245 2.489-1.336l3.628-16.809c.065-.301.495-.301.56 0l3.628 16.81c.202.868.974 1.455 1.828 1.455.21 0 .424-.036.636-.11.91-.324 1.4-1.32 1.18-2.262l-4.736-20.406c-.623-2.684-.937-5.43-.937-8.187 0-.41.508-.603.78-.298l7.425 8.322c.37.416.885.628 1.401.628.446 0 .892-.158 1.251-.478.774-.692.84-1.88.15-2.655M245.31 324.167l-11.267-12.632c-.053-.06-.026-.151.05-.176 2.255-.722 3.875-2.866 3.8-5.38-.083-2.799-2.326-5.124-5.118-5.3-3.181-.198-5.823 2.326-5.823 5.467 0 2.44 1.594 4.503 3.797 5.212.075.024.102.116.049.175l-11.26 12.634c-.691.774-.624 1.963.15 2.655.774.692 1.962.625 2.652-.15l7.424-8.322c.274-.306.781-.112.781.299 0 2.756-.314 5.502-.937 8.186l-4.738 20.41c-.216.931.26 1.917 1.156 2.248 1.085.401 2.237-.245 2.49-1.336l3.627-16.809c.066-.301.496-.301.56 0l3.629 16.81c.2.868.973 1.455 1.828 1.455.209 0 .424-.036.636-.11.91-.324 1.398-1.32 1.18-2.262l-4.736-20.406c-.623-2.684-.938-5.43-.938-8.187 0-.41.508-.603.781-.298l7.424 8.322c.37.416.886.628 1.401.628.446 0 .892-.158 1.251-.478.774-.692.841-1.88.15-2.655M276.293 324.167l-11.267-12.632c-.052-.06-.025-.151.05-.176 2.256-.722 3.876-2.866 3.8-5.38-.083-2.799-2.325-5.124-5.117-5.3-3.181-.198-5.824 2.326-5.824 5.467 0 2.44 1.595 4.503 3.797 5.212.076.024.102.116.05.175l-11.26 12.634c-.691.774-.624 1.963.15 2.655.773.692 1.96.625 2.652-.15l7.424-8.322c.273-.306.781-.112.781.299 0 2.756-.315 5.502-.938 8.186l-4.737 20.41c-.216.931.26 1.917 1.156 2.248 1.084.401 2.237-.245 2.49-1.336l3.627-16.809c.065-.301.495-.301.56 0l3.628 16.81c.202.868.974 1.455 1.828 1.455.21 0 .424-.036.636-.11.91-.324 1.399-1.32 1.18-2.262l-4.736-20.406c-.623-2.684-.937-5.43-.937-8.187 0-.41.508-.603.78-.298l7.424 8.322c.371.416.886.628 1.402.628.445 0 .892-.158 1.251-.478.774-.692.84-1.88.15-2.655M307.82 324.167l-11.266-12.632c-.053-.06-.026-.151.05-.176 2.255-.722 3.875-2.866 3.8-5.38-.084-2.799-2.325-5.124-5.118-5.3-3.181-.198-5.823 2.326-5.823 5.467 0 2.44 1.594 4.503 3.796 5.212.076.024.103.116.05.175l-11.26 12.634c-.691.774-.624 1.963.15 2.655.774.692 1.962.625 2.652-.15l7.424-8.322c.274-.306.781-.112.781.299 0 2.756-.314 5.502-.938 8.186l-4.737 20.41c-.216.931.26 1.917 1.156 2.248 1.085.401 2.237-.245 2.49-1.336l3.627-16.809c.065-.301.495-.301.56 0l3.628 16.81c.202.868.975 1.455 1.828 1.455.21 0 .424-.036.636-.11.91-.324 1.4-1.32 1.18-2.262l-4.735-20.406c-.624-2.684-.938-5.43-.938-8.187 0-.41.508-.603.781-.298l7.424 8.322c.37.416.885.628 1.402.628.445 0 .892-.158 1.25-.478.774-.692.841-1.88.15-2.655M339.347 324.167l-11.266-12.632c-.053-.06-.026-.151.05-.176 2.255-.722 3.875-2.866 3.8-5.38-.083-2.799-2.325-5.124-5.117-5.3-3.182-.198-5.824 2.326-5.824 5.467 0 2.44 1.595 4.503 3.797 5.212.075.024.102.116.05.175l-11.26 12.634c-.692.774-.625 1.963.15 2.655.773.692 1.96.625 2.651-.15l7.424-8.322c.274-.306.782-.112.782.299 0 2.756-.315 5.502-.938 8.186l-4.737 20.41c-.216.931.26 1.917 1.156 2.248 1.084.401 2.237-.245 2.489-1.336l3.628-16.809c.064-.301.494-.301.56 0l3.627 16.81c.202.868.975 1.455 1.829 1.455.209 0 .424-.036.636-.11.91-.324 1.399-1.32 1.18-2.262l-4.736-20.406c-.623-2.684-.938-5.43-.938-8.187 0-.41.508-.603.781-.298l7.425 8.322c.37.416.884.628 1.4.628.446 0 .893-.158 1.252-.478.773-.692.84-1.88.15-2.655M370.331 324.167l-11.266-12.632c-.053-.06-.026-.151.05-.176 2.255-.722 3.875-2.866 3.8-5.38-.084-2.799-2.325-5.124-5.118-5.3-3.18-.198-5.823 2.326-5.823 5.467 0 2.44 1.594 4.503 3.796 5.212.077.024.103.116.05.175l-11.26 12.634c-.691.774-.624 1.963.15 2.655.774.692 1.962.625 2.652-.15l7.425-8.322c.273-.306.78-.112.78.299 0 2.756-.314 5.502-.938 8.186l-4.736 20.41c-.217.931.26 1.917 1.155 2.248 1.085.401 2.237-.245 2.49-1.336l3.628-16.809c.064-.301.494-.301.56 0l3.627 16.81c.202.868.975 1.455 1.829 1.455.209 0 .424-.036.635-.11.91-.324 1.4-1.32 1.18-2.262l-4.735-20.406c-.624-2.684-.938-5.43-.938-8.187 0-.41.508-.603.781-.298l7.424 8.322c.37.416.886.628 1.402.628.445 0 .892-.158 1.25-.478.774-.692.841-1.88.15-2.655M401.859 324.167l-11.267-12.632c-.052-.06-.025-.151.05-.176 2.255-.722 3.876-2.866 3.8-5.38-.083-2.799-2.325-5.124-5.117-5.3-3.182-.198-5.824 2.326-5.824 5.467 0 2.44 1.595 4.503 3.797 5.212.076.024.102.116.05.175l-11.26 12.634c-.692.774-.625 1.963.15 2.655.773.692 1.961.625 2.651-.15l7.425-8.322c.273-.306.78-.112.78.299 0 2.756-.313 5.502-.937 8.186l-4.737 20.41c-.216.931.26 1.917 1.156 2.248 1.084.401 2.237-.245 2.489-1.336l3.628-16.809c.065-.301.495-.301.56 0l3.627 16.81c.202.868.975 1.455 1.83 1.455.208 0 .423-.036.635-.11.91-.324 1.399-1.32 1.18-2.262l-4.735-20.406c-.624-2.684-.939-5.43-.939-8.187 0-.41.509-.603.781-.298l7.425 8.322c.37.416.885.628 1.4.628.446 0 .893-.158 1.252-.478.773-.692.84-1.88.15-2.655M432.842 324.167l-11.266-12.632c-.053-.06-.026-.151.05-.176 2.255-.722 3.875-2.866 3.8-5.38-.083-2.799-2.325-5.124-5.118-5.3-3.18-.198-5.823 2.326-5.823 5.467 0 2.44 1.595 4.503 3.796 5.212.076.024.102.116.05.175l-11.26 12.634c-.69.774-.624 1.963.15 2.655.774.692 1.961.625 2.652-.15l7.424-8.322c.274-.306.782-.112.782.299 0 2.756-.315 5.502-.939 8.186l-4.736 20.41c-.216.931.26 1.917 1.156 2.248 1.084.401 2.236-.245 2.489-1.336l3.628-16.809c.064-.301.494-.301.56 0l3.627 16.81c.202.868.974 1.455 1.829 1.455.209 0 .423-.036.635-.11.91-.324 1.4-1.32 1.18-2.262l-4.735-20.406c-.624-2.684-.938-5.43-.938-8.187 0-.41.508-.603.781-.298l7.424 8.322c.37.416.885.628 1.402.628.445 0 .892-.158 1.25-.478.774-.692.84-1.88.15-2.655M464.37 324.167l-11.267-12.632c-.052-.06-.026-.151.05-.176 2.255-.722 3.876-2.866 3.8-5.38-.083-2.799-2.325-5.124-5.117-5.3-3.182-.198-5.824 2.326-5.824 5.467 0 2.44 1.595 4.503 3.797 5.212.075.024.102.116.05.175l-11.26 12.634c-.692.774-.624 1.963.15 2.655.773.692 1.961.625 2.652-.15l7.423-8.322c.274-.306.782-.112.782.299 0 2.756-.315 5.502-.938 8.186l-4.737 20.41c-.216.931.26 1.917 1.156 2.248 1.084.401 2.237-.245 2.489-1.336l3.628-16.809c.065-.301.495-.301.56 0l3.628 16.81c.201.868.974 1.455 1.828 1.455.21 0 .424-.036.636-.11.91-.324 1.399-1.32 1.18-2.262l-4.736-20.406c-.623-2.684-.938-5.43-.938-8.187 0-.41.508-.603.781-.298l7.424 8.322c.371.416.886.628 1.402.628.446 0 .892-.158 1.25-.478.774-.692.841-1.88.15-2.655M495.353 324.167l-11.266-12.632c-.053-.06-.026-.151.05-.176 2.255-.722 3.875-2.866 3.8-5.38-.083-2.799-2.325-5.124-5.117-5.3-3.182-.198-5.824 2.326-5.824 5.467 0 2.44 1.595 4.503 3.797 5.212.075.024.101.116.05.175l-11.26 12.634c-.692.774-.625 1.963.15 2.655.773.692 1.96.625 2.651-.15l7.424-8.322c.274-.306.782-.112.782.299 0 2.756-.315 5.502-.938 8.186l-4.737 20.41c-.216.931.26 1.917 1.156 2.248 1.084.401 2.236-.245 2.489-1.336l3.628-16.809c.064-.301.494-.301.56 0l3.627 16.81c.202.868.974 1.455 1.829 1.455.209 0 .424-.036.636-.11.91-.324 1.399-1.32 1.18-2.262l-4.736-20.406c-.623-2.684-.938-5.43-.938-8.187 0-.41.508-.603.781-.298l7.424 8.322c.371.416.885.628 1.402.628.445 0 .892-.158 1.25-.478.774-.692.84-1.88.15-2.655M526.88 324.167l-11.265-12.632c-.053-.06-.027-.151.049-.176 2.256-.722 3.876-2.866 3.8-5.38-.083-2.799-2.325-5.124-5.117-5.3-3.181-.198-5.823 2.326-5.823 5.467 0 2.44 1.594 4.503 3.796 5.212.076.024.102.116.05.175l-11.26 12.634c-.692.774-.624 1.963.15 2.655.773.692 1.961.625 2.652-.15l7.424-8.322c.273-.306.78-.112.78.299 0 2.756-.314 5.502-.937 8.186l-4.737 20.41c-.216.931.26 1.917 1.156 2.248 1.084.401 2.237-.245 2.489-1.336l3.628-16.809c.065-.301.495-.301.56 0l3.628 16.81c.201.868.974 1.455 1.828 1.455.21 0 .424-.036.636-.11.91-.324 1.4-1.32 1.18-2.262l-4.736-20.406c-.623-2.684-.937-5.43-.937-8.187 0-.41.507-.603.78-.298l7.425 8.322c.37.416.885.628 1.401.628.446 0 .892-.158 1.251-.478.773-.692.84-1.88.15-2.655M557.865 324.167l-11.267-12.632c-.052-.06-.026-.151.05-.176 2.255-.722 3.876-2.866 3.8-5.38-.083-2.799-2.325-5.124-5.117-5.3-3.182-.198-5.824 2.326-5.824 5.467 0 2.44 1.595 4.503 3.797 5.212.075.024.102.116.05.175l-11.26 12.634c-.692.774-.625 1.963.15 2.655.773.692 1.961.625 2.651-.15l7.424-8.322c.274-.306.782-.112.782.299 0 2.756-.315 5.502-.938 8.186l-4.737 20.41c-.216.931.26 1.917 1.156 2.248 1.084.401 2.237-.245 2.489-1.336l3.628-16.809c.065-.301.494-.301.56 0l3.627 16.81c.202.868.974 1.455 1.829 1.455.21 0 .424-.036.636-.11.91-.324 1.399-1.32 1.18-2.262l-4.736-20.406c-.623-2.684-.938-5.43-.938-8.187 0-.41.508-.603.781-.298l7.425 8.322c.37.416.884.628 1.4.628.446 0 .893-.158 1.252-.478.773-.692.84-1.88.15-2.655" fill="#CDCCE2"/>
        <g fill="#CDCCE2">
            <path d="M26.249 153.858l-11.267-12.631c-.052-.06-.026-.152.05-.176 2.255-.723 3.876-2.866 3.8-5.38-.083-2.8-2.325-5.125-5.117-5.3-3.182-.2-5.824 2.325-5.824 5.467 0 2.44 1.595 4.502 3.797 5.21.075.025.102.117.05.177L.477 153.858c-.692.775-.625 1.964.15 2.655.773.692 1.961.625 2.651-.15l7.425-8.32c.273-.308.78-.114.78.297 0 2.756-.314 5.503-.937 8.187l-4.737 20.41c-.216.93.26 1.916 1.156 2.247 1.084.401 2.237-.245 2.489-1.335l3.628-16.81c.065-.3.495-.3.56 0l3.627 16.81c.202.869.975 1.455 1.829 1.455.21 0 .424-.035.636-.11.91-.324 1.399-1.32 1.18-2.262l-4.736-20.405c-.623-2.684-.938-5.432-.938-8.188 0-.41.509-.603.781-.297l7.425 8.322c.37.415.884.627 1.4.627.446 0 .893-.157 1.252-.478.773-.691.84-1.88.15-2.655M26.249 210.447l-11.267-12.633c-.052-.059-.026-.15.05-.175 2.255-.723 3.876-2.866 3.8-5.38-.083-2.8-2.325-5.125-5.117-5.3-3.182-.199-5.824 2.325-5.824 5.467 0 2.44 1.595 4.503 3.797 5.211.075.024.102.116.05.176L.477 210.447c-.692.774-.625 1.963.15 2.654.773.692 1.961.625 2.651-.15l7.425-8.321c.273-.306.78-.113.78.298 0 2.756-.314 5.503-.937 8.187l-4.737 20.41c-.216.93.26 1.916 1.156 2.248 1.084.4 2.237-.246 2.489-1.336l3.628-16.81c.065-.3.495-.3.56 0l3.627 16.81c.202.869.975 1.455 1.829 1.455.21 0 .424-.035.636-.11.91-.324 1.399-1.32 1.18-2.262l-4.736-20.405c-.623-2.684-.938-5.431-.938-8.187 0-.41.509-.604.781-.298l7.425 8.322c.37.415.884.627 1.4.627.446 0 .893-.157 1.252-.478.773-.691.84-1.88.15-2.654M26.249 267.579l-11.267-12.632c-.052-.06-.026-.152.05-.176 2.255-.723 3.876-2.865 3.8-5.38-.083-2.8-2.325-5.124-5.117-5.3-3.182-.199-5.824 2.326-5.824 5.467 0 2.44 1.595 4.503 3.797 5.211.075.025.102.117.05.176L.477 267.58c-.692.775-.625 1.963.15 2.655.773.692 1.961.624 2.651-.15l7.425-8.321c.273-.307.78-.113.78.297 0 2.756-.314 5.503-.937 8.188L5.81 290.657c-.216.931.26 1.917 1.156 2.248 1.084.4 2.237-.246 2.489-1.335l3.628-16.81c.065-.301.495-.301.56 0l3.627 16.81c.202.868.975 1.455 1.829 1.455.21 0 .424-.035.636-.11.91-.325 1.399-1.32 1.18-2.262l-4.736-20.405c-.623-2.685-.938-5.432-.938-8.188 0-.41.509-.603.781-.297l7.425 8.321c.37.416.884.628 1.4.628.446 0 .893-.158 1.252-.478.773-.692.84-1.88.15-2.655M26.249 324.167l-11.267-12.632c-.052-.06-.026-.151.05-.176 2.255-.722 3.876-2.866 3.8-5.38-.083-2.799-2.325-5.124-5.117-5.3-3.182-.198-5.824 2.326-5.824 5.467 0 2.44 1.595 4.503 3.797 5.211.075.025.102.117.05.176L.477 324.167c-.692.774-.625 1.963.15 2.655.773.692 1.961.625 2.651-.15l7.425-8.322c.273-.306.78-.112.78.299 0 2.756-.314 5.502-.937 8.186l-4.737 20.41c-.216.931.26 1.917 1.156 2.248 1.084.401 2.237-.245 2.489-1.336l3.628-16.809c.065-.301.495-.301.56 0l3.627 16.81c.202.868.975 1.455 1.829 1.455.21 0 .424-.036.636-.11.91-.324 1.399-1.32 1.18-2.262l-4.736-20.406c-.623-2.684-.938-5.43-.938-8.187 0-.41.509-.603.781-.298l7.425 8.322c.37.416.884.628 1.4.628.446 0 .893-.158 1.252-.478.773-.692.84-1.88.15-2.655M26.249 381.3l-11.267-12.632c-.052-.06-.026-.152.05-.176 2.255-.723 3.876-2.866 3.8-5.38-.083-2.8-2.325-5.125-5.117-5.3-3.182-.2-5.824 2.325-5.824 5.467 0 2.44 1.595 4.502 3.797 5.21.075.025.102.117.05.177L.477 381.299c-.692.775-.625 1.964.15 2.655.773.692 1.961.625 2.651-.15l7.425-8.32c.273-.308.78-.114.78.297 0 2.756-.314 5.503-.937 8.187l-4.737 20.41c-.216.93.26 1.917 1.156 2.247 1.084.401 2.237-.245 2.489-1.335l3.628-16.81c.065-.3.495-.3.56 0l3.627 16.81c.202.868.975 1.455 1.829 1.455.21 0 .424-.035.636-.11.91-.324 1.399-1.32 1.18-2.262l-4.736-20.405c-.623-2.684-.938-5.431-.938-8.187 0-.41.509-.604.781-.298l7.425 8.322c.37.416.884.627 1.4.627.446 0 .893-.157 1.252-.478.773-.691.84-1.88.15-2.655"/>
        </g>
        <path d="M57.776 381.3l-11.267-12.632c-.052-.06-.025-.152.05-.176 2.256-.723 3.876-2.866 3.8-5.38-.083-2.8-2.325-5.125-5.117-5.3-3.181-.2-5.824 2.325-5.824 5.467 0 2.44 1.595 4.502 3.797 5.21.076.025.102.117.05.177l-11.26 12.633c-.691.775-.624 1.964.15 2.655.773.692 1.96.625 2.652-.15l7.424-8.32c.273-.308.781-.114.781.297 0 2.756-.315 5.503-.938 8.187l-4.737 20.41c-.216.93.26 1.917 1.156 2.247 1.084.401 2.237-.245 2.49-1.335l3.627-16.81c.065-.3.495-.3.56 0l3.628 16.81c.202.868.974 1.455 1.828 1.455.21 0 .424-.035.636-.11.91-.324 1.399-1.32 1.18-2.262l-4.736-20.405c-.623-2.684-.937-5.431-.937-8.187 0-.41.508-.604.78-.298l7.424 8.322c.371.416.886.627 1.402.627.445 0 .892-.157 1.251-.478.774-.691.84-1.88.15-2.655M88.76 381.3l-11.267-12.632c-.052-.06-.026-.152.05-.176 2.255-.723 3.876-2.866 3.8-5.38-.083-2.8-2.325-5.125-5.117-5.3-3.182-.2-5.824 2.325-5.824 5.467 0 2.44 1.595 4.502 3.797 5.21.075.025.102.117.05.177l-11.26 12.633c-.692.775-.624 1.964.15 2.655.773.692 1.96.625 2.652-.15l7.423-8.32c.274-.308.782-.114.782.297 0 2.756-.315 5.503-.938 8.187l-4.737 20.41c-.216.93.26 1.917 1.156 2.247 1.084.401 2.237-.245 2.489-1.335l3.628-16.81c.065-.3.495-.3.56 0l3.628 16.81c.201.868.973 1.455 1.828 1.455.21 0 .424-.035.636-.11.91-.324 1.399-1.32 1.18-2.262l-4.736-20.405c-.623-2.684-.938-5.431-.938-8.187 0-.41.508-.604.781-.298l7.424 8.322c.371.416.886.627 1.402.627.445 0 .892-.157 1.25-.478.774-.691.841-1.88.15-2.655M120.287 381.3l-11.267-12.632c-.052-.06-.025-.152.05-.176 2.256-.723 3.876-2.866 3.8-5.38-.083-2.8-2.325-5.125-5.117-5.3-3.181-.2-5.823 2.325-5.823 5.467 0 2.44 1.594 4.502 3.796 5.21.076.025.102.117.05.177l-11.26 12.633c-.691.775-.624 1.964.15 2.655.773.692 1.961.625 2.652-.15l7.424-8.32c.273-.308.781-.114.781.297 0 2.756-.315 5.503-.938 8.187l-4.737 20.41c-.216.93.26 1.917 1.156 2.247 1.084.401 2.237-.245 2.49-1.335l3.627-16.81c.065-.3.495-.3.56 0l3.628 16.81c.202.868.974 1.455 1.829 1.455.208 0 .424-.035.635-.11.91-.324 1.4-1.32 1.18-2.262l-4.736-20.405c-.622-2.684-.937-5.431-.937-8.187 0-.41.508-.604.78-.298l7.424 8.322c.372.416.886.627 1.402.627.446 0 .892-.157 1.251-.478.774-.691.84-1.88.15-2.655M151.27 381.3l-11.265-12.632c-.053-.06-.027-.152.049-.176 2.256-.723 3.876-2.866 3.8-5.38-.083-2.8-2.325-5.125-5.117-5.3-3.181-.2-5.823 2.325-5.823 5.467 0 2.44 1.594 4.502 3.796 5.21.076.025.102.117.05.177l-11.26 12.633c-.692.775-.624 1.964.15 2.655.773.692 1.961.625 2.652-.15l7.423-8.32c.274-.308.782-.114.782.297 0 2.756-.315 5.503-.938 8.187l-4.737 20.41c-.216.93.26 1.917 1.156 2.247 1.084.401 2.237-.245 2.489-1.335l3.628-16.81c.065-.3.495-.3.56 0l3.628 16.81c.201.868.974 1.455 1.828 1.455.21 0 .424-.035.636-.11.91-.324 1.4-1.32 1.18-2.262l-4.736-20.405c-.623-2.684-.938-5.431-.937-8.187 0-.41.508-.604.78-.298l7.425 8.322c.37.416.885.627 1.401.627.446 0 .892-.157 1.251-.478.773-.691.84-1.88.15-2.655M182.798 381.3l-11.267-12.632c-.052-.06-.025-.152.05-.176 2.256-.723 3.876-2.866 3.8-5.38-.083-2.8-2.325-5.125-5.117-5.3-3.181-.2-5.823 2.325-5.823 5.467 0 2.44 1.594 4.502 3.796 5.21.076.025.102.117.05.177l-11.26 12.633c-.691.775-.624 1.964.15 2.655.773.692 1.962.625 2.652-.15l7.424-8.32c.273-.308.781-.114.781.297 0 2.756-.315 5.503-.938 8.187l-4.737 20.41c-.216.93.26 1.917 1.156 2.247 1.085.401 2.237-.245 2.49-1.335l3.627-16.81c.065-.3.495-.3.56 0l3.628 16.81c.202.868.974 1.455 1.829 1.455.209 0 .424-.035.636-.11.91-.324 1.398-1.32 1.18-2.262l-4.736-20.405c-.623-2.684-.938-5.431-.938-8.187 0-.41.508-.604.78-.298l7.425 8.322c.37.416.885.627 1.401.627.446 0 .892-.157 1.251-.478.774-.691.841-1.88.15-2.655M213.782 381.3l-11.266-12.632c-.053-.06-.026-.152.049-.176 2.256-.723 3.876-2.866 3.8-5.38-.083-2.8-2.325-5.125-5.117-5.3-3.181-.2-5.823 2.325-5.823 5.467 0 2.44 1.594 4.502 3.796 5.21.076.025.102.117.05.177l-11.26 12.633c-.692.775-.624 1.964.15 2.655.773.692 1.961.625 2.652-.15l7.424-8.32c.273-.308.78-.114.78.297 0 2.756-.314 5.503-.937 8.187l-4.737 20.41c-.216.93.26 1.917 1.156 2.247 1.084.401 2.237-.245 2.489-1.335l3.628-16.81c.065-.3.495-.3.56 0l3.628 16.81c.202.868.974 1.455 1.828 1.455.21 0 .424-.035.636-.11.91-.324 1.4-1.32 1.18-2.262l-4.736-20.405c-.623-2.684-.937-5.431-.937-8.187 0-.41.508-.604.78-.298l7.425 8.322c.37.416.885.627 1.401.627.446 0 .892-.157 1.251-.478.774-.691.84-1.88.15-2.655M245.31 381.3l-11.267-12.632c-.053-.06-.026-.152.05-.176 2.255-.723 3.875-2.866 3.8-5.38-.083-2.8-2.326-5.125-5.118-5.3-3.181-.2-5.823 2.325-5.823 5.467 0 2.44 1.594 4.502 3.797 5.21.075.025.102.117.049.177l-11.26 12.633c-.691.775-.624 1.964.15 2.655.774.692 1.962.625 2.652-.15l7.424-8.32c.274-.308.781-.114.781.297 0 2.756-.314 5.503-.937 8.187l-4.738 20.41c-.216.93.26 1.917 1.156 2.247 1.085.401 2.237-.245 2.49-1.335l3.627-16.81c.066-.3.496-.3.56 0l3.629 16.81c.2.868.973 1.455 1.828 1.455.209 0 .424-.035.636-.11.91-.324 1.398-1.32 1.18-2.262l-4.736-20.405c-.623-2.684-.938-5.431-.938-8.187 0-.41.508-.604.781-.298l7.424 8.322c.37.416.886.627 1.401.627.446 0 .892-.157 1.251-.478.774-.691.841-1.88.15-2.655M276.293 381.3l-11.267-12.632c-.052-.06-.025-.152.05-.176 2.256-.723 3.876-2.866 3.8-5.38-.083-2.8-2.325-5.125-5.117-5.3-3.181-.2-5.824 2.325-5.824 5.467 0 2.44 1.595 4.502 3.797 5.21.076.025.102.117.05.177l-11.26 12.633c-.691.775-.624 1.964.15 2.655.773.692 1.96.625 2.652-.15l7.424-8.32c.273-.308.781-.114.781.297 0 2.756-.315 5.503-.938 8.187l-4.737 20.41c-.216.93.26 1.917 1.156 2.247 1.084.401 2.237-.245 2.49-1.335l3.627-16.81c.065-.3.495-.3.56 0l3.628 16.81c.202.868.974 1.455 1.828 1.455.21 0 .424-.035.636-.11.91-.324 1.399-1.32 1.18-2.262l-4.736-20.405c-.623-2.684-.937-5.431-.937-8.187 0-.41.508-.604.78-.298l7.424 8.322c.371.416.886.627 1.402.627.445 0 .892-.157 1.251-.478.774-.691.84-1.88.15-2.655M307.82 381.3l-11.266-12.632c-.053-.06-.026-.152.05-.176 2.255-.723 3.875-2.866 3.8-5.38-.084-2.8-2.325-5.125-5.118-5.3-3.181-.2-5.823 2.325-5.823 5.467 0 2.44 1.594 4.502 3.796 5.21.076.025.103.117.05.177l-11.26 12.633c-.691.775-.624 1.964.15 2.655.774.692 1.962.625 2.652-.15l7.424-8.32c.274-.308.781-.114.781.297 0 2.756-.314 5.503-.938 8.187l-4.737 20.41c-.216.93.26 1.917 1.156 2.247 1.085.401 2.237-.245 2.49-1.335l3.627-16.81c.065-.3.495-.3.56 0l3.628 16.81c.202.868.975 1.455 1.828 1.455.21 0 .424-.035.636-.11.91-.324 1.4-1.32 1.18-2.262l-4.735-20.405c-.624-2.684-.938-5.431-.938-8.187 0-.41.508-.604.781-.298l7.424 8.322c.37.416.885.627 1.402.627.445 0 .892-.157 1.25-.478.774-.691.841-1.88.15-2.655M339.347 381.3l-11.266-12.632c-.053-.06-.026-.152.05-.176 2.255-.723 3.875-2.866 3.8-5.38-.083-2.8-2.325-5.125-5.117-5.3-3.182-.2-5.824 2.325-5.824 5.467 0 2.44 1.595 4.502 3.797 5.21.075.025.102.117.05.177l-11.26 12.633c-.692.775-.625 1.964.15 2.655.773.692 1.96.625 2.651-.15l7.424-8.32c.274-.308.782-.114.782.297 0 2.756-.315 5.503-.938 8.187l-4.737 20.41c-.216.93.26 1.917 1.156 2.247 1.084.401 2.237-.245 2.489-1.335l3.628-16.81c.064-.3.494-.3.56 0l3.627 16.81c.202.868.975 1.455 1.829 1.455.209 0 .424-.035.636-.11.91-.324 1.399-1.32 1.18-2.262l-4.736-20.405c-.623-2.684-.938-5.431-.938-8.187 0-.41.508-.604.781-.298l7.425 8.322c.37.416.884.627 1.4.627.446 0 .893-.157 1.252-.478.773-.691.84-1.88.15-2.655M370.331 381.3l-11.266-12.632c-.053-.06-.026-.152.05-.176 2.255-.723 3.875-2.866 3.8-5.38-.084-2.8-2.325-5.125-5.118-5.3-3.18-.2-5.823 2.325-5.823 5.467 0 2.44 1.594 4.502 3.796 5.21.077.025.103.117.05.177l-11.26 12.633c-.691.775-.624 1.964.15 2.655.774.692 1.962.625 2.652-.15l7.425-8.32c.273-.308.78-.114.78.297 0 2.756-.314 5.503-.938 8.187l-4.736 20.41c-.217.93.26 1.917 1.155 2.247 1.085.401 2.237-.245 2.49-1.335l3.628-16.81c.064-.3.494-.3.56 0l3.627 16.81c.202.868.975 1.455 1.829 1.455.209 0 .424-.035.635-.11.91-.324 1.4-1.32 1.18-2.262l-4.735-20.405c-.624-2.684-.938-5.431-.938-8.187 0-.41.508-.604.781-.298l7.424 8.322c.37.416.886.627 1.402.627.445 0 .892-.157 1.25-.478.774-.691.841-1.88.15-2.655M401.859 381.3l-11.267-12.632c-.052-.06-.025-.152.05-.176 2.255-.723 3.876-2.866 3.8-5.38-.083-2.8-2.325-5.125-5.117-5.3-3.182-.2-5.824 2.325-5.824 5.467 0 2.44 1.595 4.502 3.797 5.21.076.025.102.117.05.177l-11.26 12.633c-.692.775-.625 1.964.15 2.655.773.692 1.961.625 2.651-.15l7.425-8.32c.273-.308.78-.114.78.297 0 2.756-.313 5.503-.937 8.187l-4.737 20.41c-.216.93.26 1.917 1.156 2.247 1.084.401 2.237-.245 2.489-1.335l3.628-16.81c.065-.3.495-.3.56 0l3.627 16.81c.202.868.975 1.455 1.83 1.455.208 0 .423-.035.635-.11.91-.324 1.399-1.32 1.18-2.262l-4.735-20.405c-.624-2.684-.939-5.431-.939-8.187 0-.41.509-.604.781-.298l7.425 8.322c.37.416.885.627 1.4.627.446 0 .893-.157 1.252-.478.773-.691.84-1.88.15-2.655M432.842 381.3l-11.266-12.632c-.053-.06-.026-.152.05-.176 2.255-.723 3.875-2.866 3.8-5.38-.083-2.8-2.325-5.125-5.118-5.3-3.18-.2-5.823 2.325-5.823 5.467 0 2.44 1.595 4.502 3.796 5.21.076.025.102.117.05.177l-11.26 12.633c-.69.775-.624 1.964.15 2.655.774.692 1.961.625 2.652-.15l7.424-8.32c.274-.308.782-.114.782.297 0 2.756-.315 5.503-.939 8.187l-4.736 20.41c-.216.93.26 1.917 1.156 2.247 1.084.401 2.236-.245 2.489-1.335l3.628-16.81c.064-.3.494-.3.56 0l3.627 16.81c.202.868.974 1.455 1.829 1.455.209 0 .423-.035.635-.11.91-.324 1.4-1.32 1.18-2.262l-4.735-20.405c-.624-2.684-.938-5.431-.938-8.187 0-.41.508-.604.781-.298l7.424 8.322c.37.416.885.627 1.402.627.445 0 .892-.157 1.25-.478.774-.691.84-1.88.15-2.655M464.37 381.3l-11.267-12.632c-.052-.06-.026-.152.05-.176 2.255-.723 3.876-2.866 3.8-5.38-.083-2.8-2.325-5.125-5.117-5.3-3.182-.2-5.824 2.325-5.824 5.467 0 2.44 1.595 4.502 3.797 5.21.075.025.102.117.05.177l-11.26 12.633c-.692.775-.624 1.964.15 2.655.773.692 1.961.625 2.652-.15l7.423-8.32c.274-.308.782-.114.782.297 0 2.756-.315 5.503-.938 8.187l-4.737 20.41c-.216.93.26 1.917 1.156 2.247 1.084.401 2.237-.245 2.489-1.335l3.628-16.81c.065-.3.495-.3.56 0l3.628 16.81c.201.868.974 1.455 1.828 1.455.21 0 .424-.035.636-.11.91-.324 1.399-1.32 1.18-2.262l-4.736-20.405c-.623-2.684-.938-5.431-.938-8.187 0-.41.508-.604.781-.298l7.424 8.322c.371.416.886.627 1.402.627.446 0 .892-.157 1.25-.478.774-.691.841-1.88.15-2.655M495.353 381.3l-11.266-12.632c-.053-.06-.026-.152.05-.176 2.255-.723 3.875-2.866 3.8-5.38-.083-2.8-2.325-5.125-5.117-5.3-3.182-.2-5.824 2.325-5.824 5.467 0 2.44 1.595 4.502 3.797 5.21.075.025.101.117.05.177l-11.26 12.633c-.692.775-.625 1.964.15 2.655.773.692 1.96.625 2.651-.15l7.424-8.32c.274-.308.782-.114.782.297 0 2.756-.315 5.503-.938 8.187l-4.737 20.41c-.216.93.26 1.917 1.156 2.247 1.084.401 2.236-.245 2.489-1.335l3.628-16.81c.064-.3.494-.3.56 0l3.627 16.81c.202.868.974 1.455 1.829 1.455.209 0 .424-.035.636-.11.91-.324 1.399-1.32 1.18-2.262l-4.736-20.405c-.623-2.684-.938-5.431-.938-8.187 0-.41.508-.604.781-.298l7.424 8.322c.371.416.885.627 1.402.627.445 0 .892-.157 1.25-.478.774-.691.84-1.88.15-2.655M526.88 381.3l-11.265-12.632c-.053-.06-.027-.152.049-.176 2.256-.723 3.876-2.866 3.8-5.38-.083-2.8-2.325-5.125-5.117-5.3-3.181-.2-5.823 2.325-5.823 5.467 0 2.44 1.594 4.502 3.796 5.21.076.025.102.117.05.177l-11.26 12.633c-.692.775-.624 1.964.15 2.655.773.692 1.961.625 2.652-.15l7.424-8.32c.273-.308.78-.114.78.297 0 2.756-.314 5.503-.937 8.187l-4.737 20.41c-.216.93.26 1.917 1.156 2.247 1.084.401 2.237-.245 2.489-1.335l3.628-16.81c.065-.3.495-.3.56 0l3.628 16.81c.201.868.974 1.455 1.828 1.455.21 0 .424-.035.636-.11.91-.324 1.4-1.32 1.18-2.262l-4.736-20.405c-.623-2.684-.937-5.431-.937-8.187 0-.41.507-.604.78-.298l7.425 8.322c.37.416.885.627 1.401.627.446 0 .892-.157 1.251-.478.773-.691.84-1.88.15-2.655M557.865 381.3l-11.267-12.632c-.052-.06-.026-.152.05-.176 2.255-.723 3.876-2.866 3.8-5.38-.083-2.8-2.325-5.125-5.117-5.3-3.182-.2-5.824 2.325-5.824 5.467 0 2.44 1.595 4.502 3.797 5.21.075.025.102.117.05.177l-11.26 12.633c-.692.775-.625 1.964.15 2.655.773.692 1.961.625 2.651-.15l7.424-8.32c.274-.308.782-.114.782.297 0 2.756-.315 5.503-.938 8.187l-4.737 20.41c-.216.93.26 1.917 1.156 2.247 1.084.401 2.237-.245 2.489-1.335l3.628-16.81c.065-.3.494-.3.56 0l3.627 16.81c.202.868.974 1.455 1.829 1.455.21 0 .424-.035.636-.11.91-.324 1.399-1.32 1.18-2.262l-4.736-20.405c-.623-2.684-.938-5.431-.938-8.187 0-.41.508-.604.781-.298l7.425 8.322c.37.416.884.627 1.4.627.446 0 .893-.157 1.252-.478.773-.691.84-1.88.15-2.655M734.248 153.498l-11.266-12.631c-.052-.06-.026-.152.05-.176 2.256-.723 3.876-2.866 3.8-5.38-.083-2.8-2.325-5.125-5.117-5.3-3.181-.2-5.824 2.325-5.824 5.467 0 2.439 1.595 4.502 3.797 5.21.076.025.102.117.05.177l-11.26 12.633c-.692.775-.624 1.964.15 2.655.773.692 1.96.625 2.652-.15l7.423-8.32c.274-.308.781-.114.781.297 0 2.756-.314 5.503-.937 8.187l-4.737 20.409c-.216.932.26 1.917 1.156 2.248 1.084.401 2.237-.245 2.489-1.335l3.628-16.81c.065-.3.495-.3.56 0l3.628 16.81c.2.868.974 1.455 1.828 1.455.21 0 .424-.035.636-.11.91-.324 1.399-1.32 1.18-2.262l-4.736-20.405c-.623-2.684-.938-5.432-.937-8.188 0-.41.507-.603.78-.297l7.424 8.322c.371.415.886.627 1.402.627.445 0 .892-.157 1.251-.478.773-.691.84-1.88.15-2.655" fill="#CDCCE2"/>
        <path d="M767.249 153.498l-11.267-12.631c-.052-.06-.026-.152.05-.176 2.255-.723 3.876-2.866 3.8-5.38-.083-2.8-2.325-5.125-5.117-5.3-3.182-.2-5.824 2.325-5.824 5.467 0 2.439 1.595 4.502 3.797 5.21.076.025.102.117.05.177l-11.26 12.633c-.692.775-.625 1.964.15 2.655.773.692 1.961.625 2.651-.15l7.425-8.32c.273-.308.78-.114.78.297 0 2.756-.314 5.503-.937 8.187l-4.737 20.409c-.216.932.26 1.917 1.156 2.248 1.084.401 2.237-.245 2.489-1.335l3.628-16.81c.065-.3.494-.3.56 0l3.627 16.81c.202.868.975 1.455 1.829 1.455.21 0 .424-.035.636-.11.91-.324 1.399-1.32 1.18-2.262l-4.736-20.405c-.623-2.684-.938-5.432-.938-8.188 0-.41.509-.603.781-.297l7.425 8.322c.37.415.884.627 1.4.627.446 0 .893-.157 1.252-.478.773-.691.84-1.88.15-2.655" fill="#19CA94"/>
        <path d="M799.248 153.498l-11.266-12.631c-.053-.06-.025-.152.05-.176 2.255-.723 3.875-2.866 3.8-5.38-.083-2.8-2.325-5.125-5.118-5.3-3.18-.2-5.823 2.325-5.823 5.467 0 2.439 1.594 4.502 3.796 5.21.077.025.103.117.05.177l-11.26 12.633c-.69.775-.624 1.964.15 2.655.774.692 1.962.625 2.652-.15l7.425-8.32c.273-.308.78-.114.78.297 0 2.756-.314 5.503-.937 8.187l-4.737 20.409c-.216.932.26 1.917 1.156 2.248 1.084.401 2.236-.245 2.489-1.335l3.628-16.81c.065-.3.494-.3.56 0l3.628 16.81c.201.868.974 1.455 1.828 1.455.209 0 .424-.035.636-.11.91-.324 1.399-1.32 1.18-2.262l-4.736-20.405c-.623-2.684-.938-5.432-.938-8.188 0-.41.509-.603.781-.297l7.424 8.322c.37.415.886.627 1.402.627.445 0 .892-.157 1.25-.478.774-.691.841-1.88.15-2.655" fill="#CDCCE2"/>
        <path d="M734.248 210.498l-11.266-12.632c-.052-.06-.026-.151.05-.176 2.256-.722 3.876-2.865 3.8-5.38-.083-2.799-2.325-5.124-5.117-5.299-3.181-.2-5.824 2.325-5.824 5.467 0 2.439 1.595 4.502 3.797 5.21.076.025.102.117.05.177l-11.26 12.633c-.692.775-.624 1.964.15 2.655.773.692 1.96.625 2.652-.15l7.423-8.321c.274-.307.781-.113.781.298 0 2.756-.314 5.503-.937 8.187l-4.737 20.409c-.216.932.26 1.917 1.156 2.248 1.084.401 2.237-.245 2.489-1.335l3.628-16.81c.065-.3.495-.3.56 0l3.628 16.81c.2.868.974 1.455 1.828 1.455.21 0 .424-.035.636-.11.91-.324 1.399-1.32 1.18-2.262l-4.736-20.405c-.623-2.684-.938-5.432-.937-8.188 0-.41.507-.603.78-.297l7.424 8.322c.371.415.886.627 1.402.627.445 0 .892-.157 1.251-.478.773-.691.84-1.88.15-2.655" fill="#19CA94"/>
        <path d="M767.249 210.498l-11.267-12.632c-.052-.06-.026-.151.05-.176 2.255-.722 3.876-2.865 3.8-5.38-.083-2.799-2.325-5.124-5.117-5.299-3.182-.2-5.824 2.325-5.824 5.467 0 2.439 1.595 4.502 3.797 5.21.076.025.102.117.05.177l-11.26 12.633c-.692.775-.625 1.964.15 2.655.773.692 1.961.625 2.651-.15l7.425-8.321c.273-.307.78-.113.78.298 0 2.756-.314 5.503-.937 8.187l-4.737 20.409c-.216.932.26 1.917 1.156 2.248 1.084.401 2.237-.245 2.489-1.335l3.628-16.81c.065-.3.494-.3.56 0l3.627 16.81c.202.868.975 1.455 1.829 1.455.21 0 .424-.035.636-.11.91-.324 1.399-1.32 1.18-2.262l-4.736-20.405c-.623-2.684-.938-5.432-.938-8.188 0-.41.509-.603.781-.297l7.425 8.322c.37.415.884.627 1.4.627.446 0 .893-.157 1.252-.478.773-.691.84-1.88.15-2.655M799.248 210.498l-11.266-12.632c-.053-.06-.025-.151.05-.176 2.255-.722 3.875-2.865 3.8-5.38-.083-2.799-2.325-5.124-5.118-5.299-3.18-.2-5.823 2.325-5.823 5.467 0 2.439 1.594 4.502 3.796 5.21.077.025.103.117.05.177l-11.26 12.633c-.69.775-.624 1.964.15 2.655.774.692 1.962.625 2.652-.15l7.425-8.321c.273-.307.78-.113.78.298 0 2.756-.314 5.503-.937 8.187l-4.737 20.409c-.216.932.26 1.917 1.156 2.248 1.084.401 2.236-.245 2.489-1.335l3.628-16.81c.065-.3.494-.3.56 0l3.628 16.81c.201.868.974 1.455 1.828 1.455.209 0 .424-.035.636-.11.91-.324 1.399-1.32 1.18-2.262l-4.736-20.405c-.623-2.684-.938-5.432-.938-8.188 0-.41.509-.603.781-.297l7.424 8.322c.37.415.886.627 1.402.627.445 0 .892-.157 1.25-.478.774-.691.841-1.88.15-2.655M734.248 267.498l-11.266-12.631c-.052-.06-.026-.152.05-.176 2.256-.723 3.876-2.866 3.8-5.38-.083-2.8-2.325-5.125-5.117-5.3-3.181-.2-5.824 2.325-5.824 5.467 0 2.44 1.595 4.502 3.797 5.21.076.025.102.117.05.177l-11.26 12.633c-.692.775-.624 1.964.15 2.655.773.692 1.96.625 2.652-.15l7.423-8.32c.274-.308.781-.114.781.297 0 2.756-.314 5.503-.937 8.187l-4.737 20.409c-.216.932.26 1.918 1.156 2.248 1.084.401 2.237-.245 2.489-1.335l3.628-16.81c.065-.3.495-.3.56 0l3.628 16.81c.2.868.974 1.455 1.828 1.455.21 0 .424-.035.636-.11.91-.324 1.399-1.32 1.18-2.262l-4.736-20.405c-.623-2.684-.938-5.431-.937-8.188 0-.41.507-.603.78-.297l7.424 8.322c.371.415.886.627 1.402.627.445 0 .892-.157 1.251-.478.773-.691.84-1.88.15-2.655M767.249 267.498l-11.267-12.631c-.052-.06-.026-.152.05-.176 2.255-.723 3.876-2.866 3.8-5.38-.083-2.8-2.325-5.125-5.117-5.3-3.182-.2-5.824 2.325-5.824 5.467 0 2.44 1.595 4.502 3.797 5.21.076.025.102.117.05.177l-11.26 12.633c-.692.775-.625 1.964.15 2.655.773.692 1.961.625 2.651-.15l7.425-8.32c.273-.308.78-.114.78.297 0 2.756-.314 5.503-.937 8.187l-4.737 20.409c-.216.932.26 1.918 1.156 2.248 1.084.401 2.237-.245 2.489-1.335l3.628-16.81c.065-.3.494-.3.56 0l3.627 16.81c.202.868.975 1.455 1.829 1.455.21 0 .424-.035.636-.11.91-.324 1.399-1.32 1.18-2.262l-4.736-20.405c-.623-2.684-.938-5.431-.938-8.188 0-.41.509-.603.781-.297l7.425 8.322c.37.415.884.627 1.4.627.446 0 .893-.157 1.252-.478.773-.691.84-1.88.15-2.655" fill="#CDCCE2"/>
        <path d="M799.248 267.498l-11.266-12.631c-.053-.06-.025-.152.05-.176 2.255-.723 3.875-2.866 3.8-5.38-.083-2.8-2.325-5.125-5.118-5.3-3.18-.2-5.823 2.325-5.823 5.467 0 2.44 1.594 4.502 3.796 5.21.077.025.103.117.05.177l-11.26 12.633c-.69.775-.624 1.964.15 2.655.774.692 1.962.625 2.652-.15l7.425-8.32c.273-.308.78-.114.78.297 0 2.756-.314 5.503-.937 8.187l-4.737 20.409c-.216.932.26 1.918 1.156 2.248 1.084.401 2.236-.245 2.489-1.335l3.628-16.81c.065-.3.494-.3.56 0l3.628 16.81c.201.868.974 1.455 1.828 1.455.209 0 .424-.035.636-.11.91-.324 1.399-1.32 1.18-2.262l-4.736-20.405c-.623-2.684-.938-5.431-.938-8.188 0-.41.509-.603.781-.297l7.424 8.322c.37.415.886.627 1.402.627.445 0 .892-.157 1.25-.478.774-.691.841-1.88.15-2.655" fill="#19CA94"/>
        <path d="M767.249 324.498l-11.267-12.632c-.052-.06-.026-.151.05-.176 2.255-.722 3.876-2.865 3.8-5.38-.083-2.799-2.325-5.124-5.117-5.299-3.182-.2-5.824 2.325-5.824 5.467 0 2.44 1.595 4.502 3.797 5.21.076.025.102.117.05.177l-11.26 12.633c-.692.775-.625 1.964.15 2.655.773.692 1.961.625 2.651-.15l7.425-8.321c.273-.307.78-.113.78.298 0 2.756-.314 5.503-.937 8.187l-4.737 20.409c-.216.932.26 1.917 1.156 2.248 1.084.401 2.237-.245 2.489-1.335l3.628-16.81c.065-.3.494-.3.56 0l3.627 16.81c.202.868.975 1.455 1.829 1.455.21 0 .424-.035.636-.11.91-.324 1.399-1.32 1.18-2.262l-4.736-20.405c-.623-2.684-.938-5.432-.938-8.188 0-.41.509-.603.781-.297l7.425 8.322c.37.415.884.627 1.4.627.446 0 .893-.157 1.252-.478.773-.691.84-1.88.15-2.655M799.248 324.498l-11.266-12.632c-.053-.06-.025-.151.05-.176 2.255-.722 3.875-2.865 3.8-5.38-.083-2.799-2.325-5.124-5.118-5.299-3.18-.2-5.823 2.325-5.823 5.467 0 2.44 1.594 4.502 3.796 5.21.077.025.103.117.05.177l-11.26 12.633c-.69.775-.624 1.964.15 2.655.774.692 1.962.625 2.652-.15l7.425-8.321c.273-.307.78-.113.78.298 0 2.756-.314 5.503-.937 8.187l-4.737 20.409c-.216.932.26 1.917 1.156 2.248 1.084.401 2.236-.245 2.489-1.335l3.628-16.81c.065-.3.494-.3.56 0l3.628 16.81c.201.868.974 1.455 1.828 1.455.209 0 .424-.035.636-.11.91-.324 1.399-1.32 1.18-2.262l-4.736-20.405c-.623-2.684-.938-5.432-.938-8.188 0-.41.509-.603.781-.297l7.424 8.322c.37.415.886.627 1.402.627.445 0 .892-.157 1.25-.478.774-.691.841-1.88.15-2.655" fill="#CDCCE2"/>
        <path d="M767.249 381.498l-11.267-12.631c-.052-.06-.026-.152.05-.176 2.255-.723 3.876-2.866 3.8-5.38-.083-2.8-2.325-5.125-5.117-5.3-3.182-.2-5.824 2.325-5.824 5.467 0 2.44 1.595 4.502 3.797 5.21.076.025.102.117.05.177l-11.26 12.633c-.692.775-.625 1.964.15 2.655.773.692 1.961.625 2.651-.15l7.425-8.32c.273-.308.78-.114.78.297 0 2.756-.314 5.503-.937 8.187l-4.737 20.409c-.216.932.26 1.918 1.156 2.248 1.084.401 2.237-.245 2.489-1.335l3.628-16.81c.065-.3.494-.3.56 0l3.627 16.81c.202.868.975 1.455 1.829 1.455.21 0 .424-.035.636-.11.91-.324 1.399-1.32 1.18-2.262l-4.736-20.405c-.623-2.684-.938-5.431-.938-8.187 0-.41.509-.604.781-.298l7.425 8.322c.37.416.884.627 1.4.627.446 0 .893-.157 1.252-.478.773-.691.84-1.88.15-2.655" fill="#19CA94"/>
        <path d="M799.248 381.498l-11.266-12.631c-.053-.06-.025-.152.05-.176 2.255-.723 3.875-2.866 3.8-5.38-.083-2.8-2.325-5.125-5.118-5.3-3.18-.2-5.823 2.325-5.823 5.467 0 2.44 1.594 4.502 3.796 5.21.077.025.103.117.05.177l-11.26 12.633c-.69.775-.624 1.964.15 2.655.774.692 1.962.625 2.652-.15l7.425-8.32c.273-.308.78-.114.78.297 0 2.756-.314 5.503-.937 8.187l-4.737 20.409c-.216.932.26 1.918 1.156 2.248 1.084.401 2.236-.245 2.489-1.335l3.628-16.81c.065-.3.494-.3.56 0l3.628 16.81c.201.868.974 1.455 1.828 1.455.209 0 .424-.035.636-.11.91-.324 1.399-1.32 1.18-2.262l-4.736-20.405c-.623-2.684-.938-5.431-.938-8.187 0-.41.509-.604.781-.298l7.424 8.322c.37.416.886.627 1.402.627.445 0 .892-.157 1.25-.478.774-.691.841-1.88.15-2.655" fill="#CDCCE2"/>
        <path fill-opacity=".5" fill="#CDCCE2" d="M634 132h2.453v277.503H634z"/>
        <path d="M712.56 78V64h4.92c2.92 0 4.8 2.2 4.8 4.76 0 2.58-1.88 4.78-4.8 4.78h-3.1V78h-1.82zm4.92-6.12c1.82 0 2.98-1.42 2.98-3.12 0-1.68-1.16-3.12-2.98-3.12h-3.1v6.24h3.1zm10.522 6.34c-2.88 0-4.76-2.2-4.76-4.76 0-2.58 1.88-4.78 4.76-4.78 2.92 0 4.8 2.2 4.8 4.78 0 2.56-1.88 4.76-4.8 4.76zm0-1.56c1.88 0 3.08-1.46 3.08-3.2 0-1.74-1.2-3.22-3.08-3.22-1.84 0-3.04 1.48-3.04 3.22 0 1.74 1.2 3.2 3.04 3.2zm11.242-3.72c1.38.44 2.72.84 2.72 2.56 0 1.82-1.52 2.72-3.56 2.72-2 0-3.76-1.08-3.76-3.28h1.7c0 1.38.92 1.9 2.14 1.9 1.1 0 1.82-.4 1.82-1.3 0-1.02-1.08-1.12-2.9-1.74-1.38-.44-2.46-.86-2.46-2.5 0-1.7 1.5-2.62 3.38-2.62 1.98 0 3.5 1.24 3.5 3.06h-1.68c0-1.06-.64-1.66-1.84-1.66-.96 0-1.68.44-1.68 1.26 0 .92.94 1.06 2.62 1.6zm5.423 5.06v-9.08h1.74V78h-1.74zm-.52-12.52c0-.78.62-1.42 1.38-1.42.78 0 1.42.64 1.42 1.42 0 .76-.64 1.38-1.42 1.38-.76 0-1.38-.62-1.38-1.38zm10.542 10.98V78c-.34.06-.98.12-1.56.12-1.12 0-2.86-.2-2.86-3.18v-4.56h-1.68v-1.46h1.68v-3.06h1.74v3.06h2.36v1.46h-2.36v4.18c0 1.76.62 1.98 1.5 1.98.36 0 .92-.04 1.18-.08zM756.77 78v-9.08h1.74V78h-1.74zm-.52-12.52c0-.78.62-1.42 1.38-1.42.78 0 1.42.64 1.42 1.42 0 .76-.64 1.38-1.42 1.38-.76 0-1.38-.62-1.38-1.38zm4.122 3.44h1.88l2.84 6.6 2.88-6.6h1.88l-4.16 9.08h-1.2l-4.12-9.08zm14.583 1.1c-1.56 0-2.66.94-2.7 2.58h5.26c0-1.58-1.1-2.58-2.56-2.58zm4.16 3.9h-6.88c.08 1.54.82 2.84 2.82 2.84 1.36 0 2.02-.66 2.3-1.44h1.76c-.3 1.54-1.78 2.9-4.06 2.9-3.06 0-4.54-2.14-4.54-4.76 0-2.74 1.62-4.78 4.48-4.78 2.36 0 4.2 1.78 4.2 4.1 0 .26 0 .64-.08 1.14zM3.58 64.102l6.3 10.82v-10.82h1.82v14H9.68l-6.3-10.82v10.82H1.56v-14h2.02zm15.202 6.02c-1.56 0-2.66.94-2.7 2.58h5.26c0-1.58-1.1-2.58-2.56-2.58zm4.16 3.9h-6.88c.08 1.54.82 2.84 2.82 2.84 1.36 0 2.02-.66 2.3-1.44h1.76c-.3 1.54-1.78 2.9-4.06 2.9-3.06 0-4.54-2.14-4.54-4.76 0-2.74 1.62-4.78 4.48-4.78 2.36 0 4.2 1.78 4.2 4.1 0 .26 0 .64-.08 1.14zm6.842-3.68c-1.84 0-3.04 1.48-3.04 3.22 0 1.74 1.2 3.2 3.04 3.2 1.88 0 3.08-1.46 3.08-3.2 0-1.74-1.2-3.22-3.08-3.22zm4.8-1.32v9.66c0 3.24-1.82 4.54-4.84 4.54-3.1 0-4.48-1.92-4.6-3.96h1.76c.1 1.28.94 2.42 2.84 2.42 1.94 0 3.12-.86 3.12-3v-2.16c-.58 1.1-1.86 1.8-3.18 1.8-2.78 0-4.66-2.2-4.66-4.76 0-2.58 1.88-4.78 4.66-4.78 1.32 0 2.6.7 3.18 1.8v-1.56h1.72zm10.403 0h1.72v9.08h-1.72v-1.58c-.58 1.1-1.86 1.8-3.18 1.8-2.78 0-4.66-2.2-4.66-4.76 0-2.58 1.88-4.78 4.66-4.78 1.32 0 2.6.7 3.18 1.8v-1.56zm-3.08 7.74c1.88 0 3.08-1.46 3.08-3.2 0-1.74-1.2-3.22-3.08-3.22-1.84 0-3.04 1.48-3.04 3.22 0 1.74 1.2 3.2 3.04 3.2zm13.082-.2v1.54c-.34.06-.98.12-1.56.12-1.12 0-2.86-.2-2.86-3.18v-4.56h-1.68v-1.46h1.68v-3.06h1.74v3.06h2.36v1.46h-2.36v4.18c0 1.76.62 1.98 1.5 1.98.36 0 .92-.04 1.18-.08zm2.082 1.54v-9.08h1.74v9.08h-1.74zm-.52-12.52c0-.78.62-1.42 1.38-1.42.78 0 1.42.64 1.42 1.42 0 .76-.64 1.38-1.42 1.38-.76 0-1.38-.62-1.38-1.38zm4.122 3.44h1.88l2.84 6.6 2.88-6.6h1.88l-4.16 9.08h-1.2l-4.12-9.08zm14.583 1.1c-1.56 0-2.66.94-2.7 2.58h5.26c0-1.58-1.1-2.58-2.56-2.58zm4.16 3.9h-6.88c.08 1.54.82 2.84 2.82 2.84 1.36 0 2.02-.66 2.3-1.44h1.76c-.3 1.54-1.78 2.9-4.06 2.9-3.06 0-4.54-2.14-4.54-4.76 0-2.74 1.62-4.78 4.48-4.78 2.36 0 4.2 1.78 4.2 4.1 0 .26 0 .64-.08 1.14z" fill="#29264C" opacity=".5"/>
        <path d="M1 14.78v-14h5.86c3.1 0 5.1 2.34 5.1 5.06 0 2.72-2 5.06-5.1 5.06H4.24v3.88H1zm5.46-6.52c1.36 0 2.24-1.12 2.24-2.42 0-1.3-.88-2.42-2.24-2.42H4.24v4.84h2.22zm11.542 6.78c-3.32 0-5.34-2.32-5.34-5.08 0-2.76 2.02-5.08 5.34-5.08 3.36 0 5.36 2.32 5.36 5.08 0 2.76-2 5.08-5.36 5.08zm0-2.62c1.4 0 2.32-1.1 2.32-2.46 0-1.34-.92-2.46-2.32-2.46-1.38 0-2.28 1.12-2.28 2.46 0 1.36.9 2.46 2.28 2.46zM30.904 7.5c-1.4 0-2.32 1.12-2.32 2.46 0 1.34.92 2.46 2.32 2.46 1.36 0 2.28-1.12 2.28-2.46 0-1.34-.92-2.46-2.28-2.46zm-2.32-2.36v1.38c.46-.88 1.7-1.62 2.96-1.62 2.78 0 4.7 2.18 4.7 5.06 0 2.88-1.92 5.06-4.7 5.06-1.26 0-2.5-.74-2.96-1.62v5.74h-3.06v-14h3.06zm16.383 0h3.06v9.64h-3.06V13.4c-.54 1.02-1.66 1.62-3.16 1.62-1.24 0-2.18-.42-2.7-1.1-.6-.74-.74-1.68-.74-3.06V5.14h3.04v4.94c0 1.38.42 2.34 1.7 2.34 1.26 0 1.86-.96 1.86-2.44V5.14zm5.882 9.64v-14h3.06v14h-3.06zm10.622-2.36c1.38 0 2.3-1.12 2.3-2.46 0-1.32-.92-2.46-2.3-2.46s-2.3 1.14-2.3 2.46c0 1.34.92 2.46 2.3 2.46zm2.3-7.28h3.06v9.64h-3.06v-1.36c-.46.88-1.7 1.6-2.94 1.6-2.78 0-4.7-2.18-4.7-5.06 0-2.88 1.92-5.06 4.7-5.06 1.24 0 2.48.74 2.94 1.62V5.14zm11.902 7.3v2.34c-.46.08-1.14.16-2.04.16-1.44 0-3.42-.18-3.42-3.4V7.42h-1.52V5.14h1.52V2.28h3.04v2.86h2.2v2.28h-2.2v3.44c0 1.42.56 1.64 1.32 1.64.38 0 .82-.02 1.1-.06zm1.423-10.5c0-1.08.86-1.94 1.96-1.94 1.12 0 1.98.86 1.98 1.94 0 1.06-.86 1.94-1.98 1.94-1.1 0-1.96-.88-1.96-1.94zm.44 12.84V5.14h3.06v9.64h-3.06zm10.562.26c-3.32 0-5.34-2.32-5.34-5.08 0-2.76 2.02-5.08 5.34-5.08 3.36 0 5.36 2.32 5.36 5.08 0 2.76-2 5.08-5.36 5.08zm0-2.62c1.4 0 2.32-1.1 2.32-2.46 0-1.34-.92-2.46-2.32-2.46-1.38 0-2.28 1.12-2.28 2.46 0 1.36.9 2.46 2.28 2.46zm7.522 2.36V5.14h3.06v1.4c.54-1.04 1.66-1.64 3.16-1.64 1.24 0 2.18.42 2.7 1.1.6.74.76 1.68.76 3.06v5.72h-3.06V9.84c0-1.38-.42-2.34-1.7-2.34-1.24 0-1.86.96-1.86 2.44v4.84h-3.06zm22.184-2.36c1.38 0 2.3-1.12 2.3-2.46 0-1.32-.92-2.46-2.3-2.46s-2.3 1.14-2.3 2.46c0 1.34.92 2.46 2.3 2.46zm2.3-7.28h3.06v9.64h-3.06v-1.36c-.46.88-1.7 1.6-2.94 1.6-2.78 0-4.7-2.18-4.7-5.06 0-2.88 1.92-5.06 4.7-5.06 1.24 0 2.48.74 2.94 1.62V5.14zM132.047.82v2.2c-.32-.08-.58-.12-.94-.12-.68 0-1.32.1-1.32 1.22v1.02h2.26v2.28h-2.24v7.36h-3.06V7.42h-1.74V5.14h1.74V4.3c0-3.5 2.12-3.74 3.64-3.74.72 0 1.3.12 1.66.26zm7.782 11.62v2.34c-.46.08-1.14.16-2.04.16-1.44 0-3.42-.18-3.42-3.4V7.42h-1.52V5.14h1.52V2.28h3.04v2.86h2.2v2.28h-2.2v3.44c0 1.42.56 1.64 1.32 1.64.38 0 .82-.02 1.1-.06zm10.982-1.74h-6.94c.06 1.16.54 2.14 2.14 2.14 1.06 0 1.58-.48 1.78-1.1h3c-.28 1.82-2 3.3-4.76 3.3-3.38 0-5.2-2.1-5.2-5.08 0-2.82 1.78-5.08 5.12-5.08 3.02 0 4.96 2.04 4.96 4.4 0 .4 0 .84-.1 1.42zm-4.88-3.78c-1.2 0-2.06.72-2.06 2.02h4.04c0-1.24-.82-2.02-1.98-2.02zm14.202-1.78v2.78c-.42-.1-.66-.14-1.08-.14-1.68 0-2.78.88-2.78 3.24v3.76h-3.06V5.14h3.06V6.7c.44-.9 1.6-1.72 2.94-1.72.38 0 .64.04.92.16zm11.465 7.28c1.38 0 2.3-1.12 2.3-2.46 0-1.32-.92-2.46-2.3-2.46s-2.3 1.14-2.3 2.46c0 1.34.92 2.46 2.3 2.46zm2.3 2.36v-1.36c-.46.88-1.7 1.6-2.94 1.6-2.78 0-4.7-2.18-4.7-5.06 0-2.88 1.92-5.06 4.7-5.06 1.24 0 2.48.74 2.94 1.62V.78h3.06v14h-3.06zm5.442-12.84c0-1.08.86-1.94 1.96-1.94 1.12 0 1.98.86 1.98 1.94 0 1.06-.86 1.94-1.98 1.94-1.1 0-1.96-.88-1.96-1.94zm.44 12.84V5.14h3.06v9.64h-3.06zm10.622-2.36c1.38 0 2.3-1.12 2.3-2.46 0-1.32-.92-2.46-2.3-2.46s-2.3 1.14-2.3 2.46c0 1.34.92 2.46 2.3 2.46zm2.3-7.28h3.06v9.64h-3.06v-1.36c-.46.88-1.7 1.6-2.94 1.6-2.78 0-4.7-2.18-4.7-5.06 0-2.88 1.92-5.06 4.7-5.06 1.24 0 2.48.74 2.94 1.62V5.14zm10.622 2.36c-1.36 0-2.28 1.14-2.28 2.46 0 1.34.92 2.46 2.28 2.46 1.4 0 2.32-1.12 2.32-2.46 0-1.32-.92-2.46-2.32-2.46zm5.38-2.36v9.58c0 1.74-.52 2.88-1.52 3.64-.9.68-2.12 1.04-3.9 1.04-1.8 0-2.98-.44-3.78-1.12-.84-.72-1.36-1.7-1.4-2.76h3.06c.08.82.8 1.62 2.12 1.62 1.44 0 2.36-.68 2.36-2.18v-1.62c-.52.88-1.7 1.5-2.94 1.5-2.78 0-4.72-2.02-4.72-4.88 0-2.88 1.86-5.06 4.68-5.06 1.22 0 2.44.6 2.98 1.62V5.14h3.06zm2.763 9.64V5.14h3.06v1.4c.54-1.04 1.66-1.64 3.16-1.64 1.24 0 2.18.42 2.7 1.1.6.74.76 1.68.76 3.06v5.72h-3.06V9.84c0-1.38-.42-2.34-1.7-2.34-1.24 0-1.86.96-1.86 2.44v4.84h-3.06zm17.042.26c-3.32 0-5.34-2.32-5.34-5.08 0-2.76 2.02-5.08 5.34-5.08 3.36 0 5.36 2.32 5.36 5.08 0 2.76-2 5.08-5.36 5.08zm0-2.62c1.4 0 2.32-1.1 2.32-2.46 0-1.34-.92-2.46-2.32-2.46-1.38 0-2.28 1.12-2.28 2.46 0 1.36.9 2.46 2.28 2.46zM241.09 9.1c1.7.5 3.1.96 3.1 2.84 0 2.28-1.96 3.1-4.36 3.1-2.74 0-4.44-1.26-4.44-3.48h3c0 1.02.64 1.42 1.54 1.42.74 0 1.26-.26 1.26-.9 0-.74-.76-.84-2.58-1.44-1.6-.5-2.98-.96-2.98-2.82 0-2 1.66-2.94 4.26-2.94 2.8 0 4.16 1.42 4.16 3.26h-3.02c0-.8-.42-1.26-1.26-1.26-.62 0-1.14.28-1.14.86 0 .7.84.82 2.46 1.36zm4.922-7.16c0-1.08.86-1.94 1.96-1.94 1.12 0 1.98.86 1.98 1.94 0 1.06-.86 1.94-1.98 1.94-1.1 0-1.96-.88-1.96-1.94zm.44 12.84V5.14h3.06v9.64h-3.06zm10.943-5.68c1.7.5 3.1.96 3.1 2.84 0 2.28-1.96 3.1-4.36 3.1-2.74 0-4.44-1.26-4.44-3.48h3c0 1.02.64 1.42 1.54 1.42.74 0 1.26-.26 1.26-.9 0-.74-.76-.84-2.58-1.44-1.6-.5-2.98-.96-2.98-2.82 0-2 1.66-2.94 4.26-2.94 2.8 0 4.16 1.42 4.16 3.26h-3.02c0-.8-.42-1.26-1.26-1.26-.62 0-1.14.28-1.14.86 0 .7.84.82 2.46 1.36z" fill="#29264C"/>
    </g>
</svg>
