<svg id="Layer_1" xmlns="http://www.w3.org/2000/svg" viewBox="0 0 710 753" enable-background="new 0 0 710 753">
    <style>
        .st0{filter:url(#filter-2)}.st1{fill:#fff}.st2{fill:#d7e1f3}.st3{fill:#00b5aa}.st4{fill:#ffb76b}.st5{fill:#ff3b53}.st6{enable-background:new}.st7{fill:#29264c}.st8{filter:url(#filter-4)}.st9{fill:#ff3e57}.st10{fill:#29254d}.st11{fill:#ff475f}.st12{fill:#ff415b}
    </style>
    <filter filterUnits="objectBoundingBox" height="111%" id="filter-4" width="105%" x="-2.5%" y="-4.2%">
        <feOffset dy="4" in="SourceAlpha" result="shadowOffsetOuter1"/>
        <feGaussianBlur in="shadowOffsetOuter1" result="shadowBlurOuter1" stdDeviation="5"/>
        <feColorMatrix in="shadowBlurOuter1" values="0 0 0 0 0.877790179 0 0 0 0 0.877790179 0 0 0 0 0.877790179 0 0 0 1 0"/>
    </filter>
    <filter filterUnits="objectBoundingBox" height="109.3%" id="filter-2" width="105%" x="-2.5%" y="-3.6%">
        <feOffset dy="4" in="SourceAlpha" result="shadowOffsetOuter1"/>
        <feGaussianBlur in="shadowOffsetOuter1" result="shadowBlurOuter1" stdDeviation="5"/>
        <feColorMatrix in="shadowBlurOuter1" values="0 0 0 0 0.877790179 0 0 0 0 0.877790179 0 0 0 0 0.877790179 0 0 0 1 0"/>
    </filter>
    <title>
        Artboard Copy 30
    </title>
    <g id="Illustrations">
        <g id="Artboard-Copy-30">
            <g id="Group" transform="translate(18 9)">
                <g id="Rectangle-22-Copy-3">
                    <g class="st0">
                        <path id="path-1_2_" d="M10.8 0h653.5c5.9 0 10.8 4.8 10.8 10.8v354H0v-354C0 4.8 4.8 0 10.8 0z"/>
                    </g>
                    <path id="path-1_1_" class="st1" d="M10.8 0h653.5c5.9 0 10.8 4.8 10.8 10.8v354H0v-354C0 4.8 4.8 0 10.8 0z"/>
                </g>
                <path id="Rectangle-22-Copy-4" class="st2" d="M10.8 0h653.5c5.9 0 10.8 4.8 10.8 10.8v16.4H0V10.8C0 4.8 4.8 0 10.8 0z"/>
                <ellipse id="Oval-10-Copy-6" class="st3" cx="16.3" cy="13.4" rx="6.8" ry="6.8"/>
                <ellipse id="Oval-10-Copy-7" class="st4" cx="37.2" cy="13.4" rx="6.8" ry="6.8"/>
                <ellipse id="Oval-10-Copy-8" class="st5" cx="59.1" cy="13.4" rx="6.8" ry="6.8"/>
                <g class="st6">
                    <path class="st7" d="M58.6 65.8c5 0 7.8 3.7 7.8 7.5s-2.8 7.5-7.8 7.5H54v-15h4.6zm-2.7 1.7V79h2.7c3.7 0 5.8-2.9 5.8-5.8s-2.1-5.8-5.8-5.8h-2.7zM70.6 76.5c.1 1.7.9 3.1 3 3.1 1.5 0 2.2-.7 2.5-1.6H78c-.3 1.7-1.9 3.1-4.4 3.1-3.3 0-4.9-2.3-4.9-5.1 0-3 1.7-5.1 4.8-5.1 2.5 0 4.5 1.9 4.5 4.4 0 .3 0 .7-.1 1.2h-7.3zm0-1.5h5.7c0-1.7-1.2-2.8-2.8-2.8-1.7 0-2.9 1.1-2.9 2.8zM90.7 71.1v9.8h-1.9v-1.7c-.6 1.2-2 1.9-3.4 1.9-3 0-5-2.4-5-5.1 0-2.8 2-5.1 5-5.1 1.4 0 2.8.8 3.4 1.9v-1.7h1.9zM88.9 76c0-1.9-1.3-3.5-3.3-3.5-2 0-3.3 1.6-3.3 3.5s1.3 3.4 3.3 3.4c2 0 3.3-1.6 3.3-3.4zM100.6 72.8c-.4-.1-.6-.1-.9-.1-2.2 0-3.3 1.5-3.3 3.9v4.3h-1.9v-9.8h1.9V73c.5-1.2 1.9-2.1 3.3-2.1.4 0 .7 0 .9.2v1.7zM117.2 76.1c0 3-1.8 5.1-4.8 5.1s-4.9-2.2-4.9-5.1h2c0 2 1.1 3.4 2.9 3.4 1.8 0 2.9-1.3 2.9-3.4V65.8h2v10.3zM130.4 71.1v9.8h-1.9v-1.7c-.6 1.2-2 1.9-3.4 1.9-3 0-5-2.4-5-5.1 0-2.8 2-5.1 5-5.1 1.4 0 2.8.8 3.4 1.9v-1.7h1.9zm-1.9 4.9c0-1.9-1.3-3.5-3.3-3.5-2 0-3.3 1.6-3.3 3.5s1.3 3.4 3.3 3.4c2 0 3.3-1.6 3.3-3.4zM134.2 71.1h1.9v1.7c.6-1.2 1.8-2 3.4-2 1.4 0 2.3.5 2.9 1.3.5.7.8 1.6.8 3v5.8h-1.9v-5.2c0-1.8-.6-3.2-2.5-3.2s-2.8 1.6-2.8 3.3v5h-1.9v-9.7zM148 76.5c.1 1.7.9 3.1 3 3.1 1.5 0 2.2-.7 2.5-1.6h1.9c-.3 1.7-1.9 3.1-4.4 3.1-3.3 0-4.9-2.3-4.9-5.1 0-3 1.7-5.1 4.8-5.1 2.5 0 4.5 1.9 4.5 4.4 0 .3 0 .7-.1 1.2H148zm0-1.5h5.7c0-1.7-1.2-2.8-2.8-2.8-1.7 0-2.9 1.1-2.9 2.8zM159.7 77.9c1.1 0 1.8.9 1.8 2.2 0 2.4-1.2 3.2-3.2 3.2v-.9c.8 0 1.3-.3 1.6-.7.2-.3.3-.7.3-.9-.1.1-.3.2-.5.2-.9 0-1.5-.7-1.5-1.5 0-.9.6-1.6 1.5-1.6z"/>
                </g>
                <g class="st6">
                    <path class="st7" d="M60.2 127.1l-2.7 7.7h-1.3l-3.8-9.8h2l2.4 6.9 2.5-6.9h1.9l2.4 6.9 2.5-6.9h2l-3.8 9.8H63l-2.8-7.7zM70.3 119.8h1.9v7c.6-1.2 1.8-2 3.4-2 1.4 0 2.3.5 2.9 1.3.5.7.8 1.6.8 3v5.8h-1.9v-5.2c0-1.8-.6-3.2-2.5-3.2s-2.8 1.6-2.8 3.3v5h-1.9v-15zM84 130.5c.1 1.7.9 3.1 3 3.1 1.5 0 2.2-.7 2.5-1.6h1.9c-.3 1.7-1.9 3.1-4.4 3.1-3.3 0-4.9-2.3-4.9-5.1 0-3 1.7-5.1 4.8-5.1 2.5 0 4.5 1.9 4.5 4.4 0 .3 0 .7-.1 1.2H84zm0-1.5h5.7c0-1.7-1.2-2.8-2.8-2.8-1.6 0-2.8 1.1-2.9 2.8zM94.7 125.1h1.9v1.7c.6-1.2 1.8-2 3.4-2 1.4 0 2.3.5 2.9 1.3.5.7.8 1.6.8 3v5.8h-1.9v-5.2c0-1.8-.6-3.2-2.5-3.2s-2.8 1.6-2.8 3.3v5h-1.9v-9.7zM120.1 128.6c-.2-1.2-.9-2.1-2.7-2.1-2 0-3 1.6-3 3.5s1 3.4 3.1 3.4c1.6 0 2.3-.8 2.6-1.9h1.9c-.3 2-1.8 3.6-4.6 3.6-3.2 0-4.9-2.5-4.9-5.1s1.7-5.1 4.9-5.1 4.5 1.9 4.6 3.8h-1.9zM134.6 125.1v9.8h-1.9v-1.7c-.6 1.2-2 1.9-3.4 1.9-3 0-5-2.4-5-5.1 0-2.8 2-5.1 5-5.1 1.4 0 2.8.8 3.4 1.9v-1.7h1.9zm-1.8 4.9c0-1.9-1.3-3.5-3.3-3.5-2 0-3.3 1.6-3.3 3.5s1.3 3.4 3.3 3.4c2 0 3.3-1.6 3.3-3.4zM138.5 125.1h1.9v1.7c.6-1.2 1.8-2 3.4-2 1.4 0 2.3.5 2.9 1.3.5.7.8 1.6.8 3v5.8h-1.9v-5.2c0-1.8-.6-3.2-2.5-3.2s-2.8 1.6-2.8 3.3v5h-1.9v-9.7zM163.3 127.1l-2.7 7.7h-1.3l-3.8-9.8h2l2.4 6.9 2.5-6.9h1.9l2.4 6.9 2.5-6.9h2l-3.8 9.8H166l-2.7-7.7zM174.1 130.5c.1 1.7.9 3.1 3 3.1 1.5 0 2.2-.7 2.5-1.6h1.9c-.3 1.7-1.9 3.1-4.4 3.1-3.3 0-4.9-2.3-4.9-5.1 0-3 1.7-5.1 4.8-5.1 2.5 0 4.5 1.9 4.5 4.4 0 .3 0 .7-.1 1.2h-7.3zm.1-1.5h5.7c0-1.7-1.2-2.8-2.8-2.8-1.7 0-2.9 1.1-2.9 2.8zM197.6 128.6c-.2-1.2-.9-2.1-2.7-2.1-2 0-3 1.6-3 3.5s1 3.4 3.1 3.4c1.6 0 2.3-.8 2.6-1.9h1.9c-.3 2-1.8 3.6-4.6 3.6-3.2 0-4.9-2.5-4.9-5.1s1.7-5.1 4.9-5.1 4.5 1.9 4.6 3.8h-1.9zM212.1 125.1v9.8h-1.9v-1.7c-.6 1.2-2 1.9-3.4 1.9-3 0-5-2.4-5-5.1 0-2.8 2-5.1 5-5.1 1.4 0 2.8.8 3.4 1.9v-1.7h1.9zm-1.8 4.9c0-1.9-1.3-3.5-3.3-3.5-2 0-3.3 1.6-3.3 3.5s1.3 3.4 3.3 3.4c2 0 3.3-1.6 3.3-3.4zM221.3 134.8c-.4.1-1.1.1-1.7.1-1.2 0-3.1-.2-3.1-3.4v-4.9h-1.8V125h1.8v-3.3h1.9v3.3h2.5v1.6h-2.5v4.5c0 1.9.7 2.1 1.6 2.1.4 0 1 0 1.3-.1v1.7zM230.6 128.6c-.2-1.2-.9-2.1-2.7-2.1-2 0-3 1.6-3 3.5s1 3.4 3.1 3.4c1.6 0 2.3-.8 2.6-1.9h1.9c-.3 2-1.8 3.6-4.6 3.6-3.2 0-4.9-2.5-4.9-5.1s1.7-5.1 4.9-5.1 4.5 1.9 4.6 3.8h-1.9zM235.6 119.8h1.9v7c.6-1.2 1.8-2 3.4-2 1.4 0 2.3.5 2.9 1.3.5.7.8 1.6.8 3v5.8h-1.9v-5.2c0-1.8-.6-3.2-2.5-3.2s-2.8 1.6-2.8 3.3v5h-1.9v-15zM263 125.1v9.8h-1.9v-1.7c-.6 1.2-1.8 2-3.4 2-1.4 0-2.4-.5-3-1.3-.5-.7-.7-1.6-.7-3v-5.8h1.9v5.2c0 1.8.6 3.2 2.5 3.2s2.8-1.6 2.8-3.3v-5h1.8zM268.7 126.7c.6-1.2 2-1.9 3.4-1.9 3 0 5 2.4 5 5.1 0 2.8-2 5.1-5 5.1-1.4 0-2.8-.8-3.4-1.9v7h-1.9V125h1.9v1.7zm0 3.3c0 1.9 1.3 3.4 3.3 3.4 2 0 3.3-1.6 3.3-3.4 0-1.9-1.3-3.5-3.3-3.5-2 0-3.3 1.6-3.3 3.5zM285.3 130c0-2.8 2-5.1 5.1-5.1 3.1 0 5.2 2.4 5.2 5.1 0 2.8-2 5.1-5.2 5.1-3 0-5.1-2.4-5.1-5.1zm8.5 0c0-1.9-1.3-3.5-3.3-3.5-2 0-3.3 1.6-3.3 3.5s1.3 3.4 3.3 3.4c2 0 3.3-1.6 3.3-3.4zM298.7 125.1h1.9v1.7c.6-1.2 1.8-2 3.4-2 1.4 0 2.3.5 2.9 1.3.5.7.8 1.6.8 3v5.8h-1.9v-5.2c0-1.8-.6-3.2-2.5-3.2s-2.8 1.6-2.8 3.3v5h-1.9v-9.7zM322.6 134.8c-.4.1-1.1.1-1.7.1-1.2 0-3.1-.2-3.1-3.4v-4.9H316V125h1.8v-3.3h1.9v3.3h2.5v1.6h-2.5v4.5c0 1.9.7 2.1 1.6 2.1.4 0 1 0 1.3-.1v1.7zM325.1 119.8h1.9v7c.6-1.2 1.8-2 3.4-2 1.4 0 2.3.5 2.9 1.3.5.7.8 1.6.8 3v5.8h-1.9v-5.2c0-1.8-.6-3.2-2.5-3.2s-2.8 1.6-2.8 3.3v5H325v-15zM338.8 130.5c.1 1.7.9 3.1 3 3.1 1.5 0 2.2-.7 2.5-1.6h1.9c-.3 1.7-1.9 3.1-4.4 3.1-3.3 0-4.9-2.3-4.9-5.1 0-3 1.7-5.1 4.8-5.1 2.5 0 4.5 1.9 4.5 4.4 0 .3 0 .7-.1 1.2h-7.3zm0-1.5h5.7c0-1.7-1.2-2.8-2.8-2.8-1.6 0-2.8 1.1-2.9 2.8z"/>
                </g>
                <g class="st6">
                    <path class="st5" d="M66.6 161.8v-5.6c0-1.8-.7-2.8-2.1-2.8-1.4 0-2.4 1.1-2.4 3.4v5h-1.9v-5.5c0-2-.7-2.9-2-2.9-1.4 0-2.4 1.1-2.4 3.4v5H54V152h1.9v1.7c.4-1.1 1.4-2 2.9-2 1.8 0 2.8.8 3.1 2.1.4-1.1 1.6-2.1 3.1-2.1 2.6 0 3.5 1.7 3.5 3.9v6.2h-1.9zM81.7 152.1v9.8h-1.9v-1.7c-.6 1.2-2 1.9-3.4 1.9-3 0-5-2.4-5-5.1 0-2.8 2-5.1 5-5.1 1.4 0 2.8.8 3.4 1.9v-1.7h1.9zm-1.9 4.9c0-1.9-1.3-3.5-3.3-3.5-2 0-3.3 1.6-3.3 3.5s1.3 3.4 3.3 3.4c2.1 0 3.3-1.6 3.3-3.4zM91.6 153.8c-.4-.1-.6-.1-.9-.1-2.2 0-3.3 1.5-3.3 3.9v4.3h-1.9v-9.8h1.9v1.9c.5-1.2 1.9-2.1 3.3-2.1.4 0 .7 0 .9.2v1.7zM97.7 157l4.5 4.9h-2.4l-4.1-4.4v4.4h-1.9v-15.1h1.9v9.8l4.1-4.5h2.4l-4.5 4.9zM105.2 157.5c.1 1.7.9 3.1 3 3.1 1.5 0 2.2-.7 2.5-1.6h1.9c-.3 1.7-1.9 3.1-4.4 3.1-3.3 0-4.9-2.3-4.9-5.1 0-3 1.7-5.1 4.8-5.1 2.5 0 4.5 1.9 4.5 4.4 0 .3 0 .7-.1 1.2h-7.3zm0-1.5h5.7c0-1.7-1.2-2.8-2.8-2.8-1.7 0-2.9 1.1-2.9 2.8zM121.1 161.8c-.4.1-1.1.1-1.7.1-1.2 0-3.1-.2-3.1-3.4v-4.9h-1.8V152h1.8v-3.3h1.9v3.3h2.5v1.6h-2.5v4.5c0 1.9.7 2.1 1.6 2.1.4 0 1 0 1.3-.1v1.7zM124.5 146.8c.8 0 1.5.7 1.5 1.5s-.7 1.5-1.5 1.5-1.5-.7-1.5-1.5.7-1.5 1.5-1.5zm-.9 5.3h1.9v9.8h-1.9v-9.8zM129.3 152.1h1.9v1.7c.6-1.2 1.8-2 3.4-2 1.4 0 2.3.5 2.9 1.3.5.7.8 1.6.8 3v5.8h-1.9v-5.2c0-1.8-.6-3.2-2.5-3.2s-2.8 1.6-2.8 3.3v5h-1.9v-9.7zM151.4 162.5c0 3.5-2 4.9-5.2 4.9-3.3 0-4.8-2.1-5-4.3h1.9c.1 1.4 1 2.6 3.1 2.6s3.4-.9 3.4-3.2v-2.3c-.6 1.2-2 1.9-3.4 1.9-3 0-5-2.4-5-5.1 0-2.8 2-5.1 5-5.1 1.4 0 2.8.8 3.4 1.9v-1.7h1.9v10.4zM143 157c0 1.9 1.3 3.4 3.3 3.4 2 0 3.3-1.6 3.3-3.4 0-1.9-1.3-3.5-3.3-3.5-2 0-3.3 1.6-3.3 3.5z"/>
                </g>
                <g class="st6">
                    <path class="st7" d="M157.4 157c0-2.8 2-5.1 5.1-5.1 3.1 0 5.2 2.4 5.2 5.1 0 2.8-2 5.1-5.2 5.1-3 0-5.1-2.4-5.1-5.1zm8.5 0c0-1.9-1.3-3.5-3.3-3.5-2 0-3.3 1.6-3.3 3.5s1.3 3.4 3.3 3.4c2 0 3.3-1.6 3.3-3.4zM176.1 148.5c-.3-.1-.7-.2-1.1-.2-.8 0-1.7.1-1.7 1.9v1.9h2.8v1.6h-2.8v8.2h-1.9v-8.2h-2.1v-1.6h2.1v-1.7c0-3.6 2.2-3.7 3.3-3.7.6 0 1.1.1 1.3.3v1.5zM189.7 161.8c-.4.1-1.1.1-1.7.1-1.2 0-3.1-.2-3.1-3.4v-4.9h-1.8V152h1.8v-3.3h1.9v3.3h2.5v1.6h-2.5v4.5c0 1.9.7 2.1 1.6 2.1.4 0 1 0 1.3-.1v1.7zM192.2 146.8h1.9v7c.6-1.2 1.8-2 3.4-2 1.4 0 2.3.5 2.9 1.3.5.7.8 1.6.8 3v5.8h-1.9v-5.2c0-1.8-.6-3.2-2.5-3.2s-2.8 1.6-2.8 3.3v5h-1.9v-15zM206 157.5c.1 1.7.9 3.1 3 3.1 1.5 0 2.2-.7 2.5-1.6h1.9c-.3 1.7-1.9 3.1-4.4 3.1-3.3 0-4.9-2.3-4.9-5.1 0-3 1.7-5.1 4.8-5.1 2.5 0 4.5 1.9 4.5 4.4 0 .3 0 .7-.1 1.2H206zm0-1.5h5.7c0-1.7-1.2-2.8-2.8-2.8-1.7 0-2.9 1.1-2.9 2.8z"/>
                </g>
                <g class="st6">
                    <path class="st5" d="M222.4 153.7c.6-1.2 2-1.9 3.4-1.9 3 0 5 2.4 5 5.1 0 2.8-2 5.1-5 5.1-1.4 0-2.8-.8-3.4-1.9v7h-1.9V152h1.9v1.7zm0 3.3c0 1.9 1.3 3.4 3.3 3.4 2 0 3.3-1.6 3.3-3.4 0-1.9-1.3-3.5-3.3-3.5-2 0-3.3 1.6-3.3 3.5zM233.9 146.8h1.9v7c.6-1.2 1.8-2 3.4-2 1.4 0 2.3.5 2.9 1.3.5.7.8 1.6.8 3v5.8H241v-5.2c0-1.8-.6-3.2-2.5-3.2s-2.8 1.6-2.8 3.3v5h-1.9v-15zM256 152.1v9.8h-1.9v-1.7c-.6 1.2-2 1.9-3.4 1.9-3 0-5-2.4-5-5.1 0-2.8 2-5.1 5-5.1 1.4 0 2.8.8 3.4 1.9v-1.7h1.9zm-1.8 4.9c0-1.9-1.3-3.5-3.3-3.5-2 0-3.3 1.6-3.3 3.5s1.3 3.4 3.3 3.4c2 0 3.3-1.6 3.3-3.4zM265.9 153.8c-.4-.1-.6-.1-.9-.1-2.2 0-3.3 1.5-3.3 3.9v4.3h-1.9v-9.8h1.9v1.9c.5-1.2 1.9-2.1 3.3-2.1.4 0 .7 0 .9.2v1.7zM280.9 161.8v-5.6c0-1.8-.7-2.8-2.1-2.8-1.4 0-2.4 1.1-2.4 3.4v5h-1.9v-5.5c0-2-.7-2.9-2-2.9-1.4 0-2.4 1.1-2.4 3.4v5h-1.9V152h1.9v1.7c.4-1.1 1.4-2 2.9-2 1.8 0 2.8.8 3.1 2.1.4-1.1 1.6-2.1 3.1-2.1 2.6 0 3.5 1.7 3.5 3.9v6.2h-1.8zM295.9 152.1v9.8H294v-1.7c-.6 1.2-2 1.9-3.4 1.9-3 0-5-2.4-5-5.1 0-2.8 2-5.1 5-5.1 1.4 0 2.8.8 3.4 1.9v-1.7h1.9zm-1.8 4.9c0-1.9-1.3-3.5-3.3-3.5-2 0-3.3 1.6-3.3 3.5s1.3 3.4 3.3 3.4c2 0 3.3-1.6 3.3-3.4zM306.7 155.6c-.2-1.2-.9-2.1-2.7-2.1-2 0-3 1.6-3 3.5s1 3.4 3.1 3.4c1.6 0 2.3-.8 2.6-1.9h1.9c-.3 2-1.8 3.6-4.6 3.6-3.2 0-4.9-2.5-4.9-5.1s1.7-5.1 4.9-5.1 4.5 1.9 4.6 3.8h-1.9zM311.5 163.1h1.9c.1 1.8 1.1 2.6 2.7 2.6 1.7 0 2.7-.7 2.7-2.9V160c-.6 1.2-1.8 2-3.4 2-1.4 0-2.4-.5-3-1.2-.5-.7-.7-1.6-.7-3.1V152h1.9v5.1c0 1.9.6 3.2 2.5 3.2s2.8-1.6 2.8-3.3v-5h1.9v10.8c0 3.1-1.6 4.5-4.7 4.5-2.8.1-4.6-1.4-4.6-4.2z"/>
                </g>
                <g class="st6">
                    <path class="st7" d="M331.4 153.7c.6-1.2 2-1.9 3.4-1.9 3 0 5 2.4 5 5.1 0 2.8-2 5.1-5 5.1-1.4 0-2.8-.8-3.4-1.9v7h-1.9V152h1.9v1.7zm0 3.3c0 1.9 1.3 3.4 3.3 3.4 2 0 3.3-1.6 3.3-3.4 0-1.9-1.3-3.5-3.3-3.5-2.1 0-3.3 1.6-3.3 3.5zM348.9 153.8c-.4-.1-.6-.1-.9-.1-2.2 0-3.3 1.5-3.3 3.9v4.3h-1.9v-9.8h1.9v1.9c.5-1.2 1.9-2.1 3.3-2.1.4 0 .7 0 .9.2v1.7zM349.9 157c0-2.8 2-5.1 5.1-5.1 3.1 0 5.2 2.4 5.2 5.1 0 2.8-2 5.1-5.2 5.1-3.1 0-5.1-2.4-5.1-5.1zm8.5 0c0-1.9-1.3-3.5-3.3-3.5-2 0-3.3 1.6-3.3 3.5s1.3 3.4 3.3 3.4c2 0 3.3-1.6 3.3-3.4zM365.1 164.5c0 2.1-1.1 2.9-2.3 2.9-.6 0-1.2-.1-1.5-.3v-1.7c.5.1.6.1.9.1.6 0 1-.5 1-1.4V152h1.9v12.5zm-.9-17.7c.9 0 1.5.7 1.5 1.5s-.7 1.5-1.5 1.5-1.5-.7-1.5-1.5.7-1.5 1.5-1.5zM370 157.5c.1 1.7.9 3.1 3 3.1 1.5 0 2.2-.7 2.5-1.6h1.9c-.3 1.7-1.9 3.1-4.4 3.1-3.3 0-4.9-2.3-4.9-5.1 0-3 1.7-5.1 4.8-5.1 2.5 0 4.5 1.9 4.5 4.4 0 .3 0 .7-.1 1.2H370zm0-1.5h5.7c0-1.7-1.2-2.8-2.8-2.8-1.7 0-2.8 1.1-2.9 2.8zM387.5 155.6c-.2-1.2-.9-2.1-2.7-2.1-2 0-3 1.6-3 3.5s1 3.4 3.1 3.4c1.6 0 2.3-.8 2.6-1.9h1.9c-.3 2-1.8 3.6-4.6 3.6-3.2 0-4.9-2.5-4.9-5.1s1.7-5.1 4.9-5.1 4.5 1.9 4.6 3.8h-1.9zM397.9 161.8c-.4.1-1.1.1-1.7.1-1.2 0-3.1-.2-3.1-3.4v-4.9h-1.8V152h1.8v-3.3h1.9v3.3h2.5v1.6H395v4.5c0 1.9.7 2.1 1.6 2.1.4 0 1 0 1.3-.1v1.7zM404.5 153.7c.8-.6 2.1-1.5 2.1-3 0-1.6-1.1-2.4-2.7-2.4s-2.8 1-2.8 3h-2c0-3 2.1-4.7 4.8-4.7 2.7 0 4.7 1.6 4.7 4.2 0 2.1-1.5 3.2-2.3 3.8-1.4 1-1.7 1.4-1.7 3.3h-1.9c-.1-2.2.4-3.2 1.8-4.2zm-1 5.3c.9 0 1.6.7 1.6 1.6 0 .9-.7 1.6-1.6 1.6-.9 0-1.6-.7-1.6-1.6.1-.9.8-1.6 1.6-1.6z"/>
                </g>
                <g class="st6">
                    <path class="st7" d="M63 182.2h-7v6.6h-2v-15.1h2v6.7h7v-6.7h2v15.1h-2v-6.6zM68 184c0-2.8 2-5.1 5.1-5.1 3.1 0 5.2 2.4 5.2 5.1 0 2.8-2 5.1-5.2 5.1-3.1 0-5.1-2.4-5.1-5.1zm8.4 0c0-1.9-1.3-3.5-3.3-3.5-2 0-3.3 1.6-3.3 3.5s1.3 3.4 3.3 3.4c2 0 3.3-1.6 3.3-3.4zM87.4 181.1l-2.7 7.7h-1.3l-3.8-9.8h2l2.4 7 2.5-6.9h1.9l2.4 6.9 2.5-6.9h2l-3.8 9.8h-1.3l-2.8-7.8zM109.6 181.1l-2.7 7.7h-1.3l-3.8-9.8h2l2.4 6.9 2.5-6.9h1.9l2.4 6.9 2.5-6.9h2l-3.8 9.8h-1.3l-2.8-7.7zM118.4 184c0-2.8 2-5.1 5.1-5.1 3.1 0 5.2 2.4 5.2 5.1 0 2.8-2 5.1-5.2 5.1-3.1 0-5.1-2.4-5.1-5.1zm8.5 0c0-1.9-1.3-3.5-3.3-3.5-2 0-3.3 1.6-3.3 3.5s1.3 3.4 3.3 3.4c2 0 3.3-1.6 3.3-3.4zM140.6 179.1v9.8h-1.9v-1.7c-.6 1.2-1.8 2-3.4 2-1.4 0-2.4-.5-3-1.3-.5-.7-.7-1.6-.7-3v-5.8h1.9v5.2c0 1.8.6 3.2 2.5 3.2s2.8-1.6 2.8-3.3v-5h1.8zM144.4 173.8h1.9v15.1h-1.9v-15.1zM157.8 187.1c-.6 1.2-2 1.9-3.4 1.9-3 0-5-2.4-5-5.1 0-2.8 2-5.1 5-5.1 1.4 0 2.8.8 3.4 1.9v-7h1.9v15.1h-1.9v-1.7zm0-3.1c0-1.9-1.3-3.5-3.3-3.5-2 0-3.3 1.6-3.3 3.5s1.3 3.4 3.3 3.4c2 0 3.3-1.6 3.3-3.4zM169.4 179.1h1.9v1.7c.6-1.2 1.8-2 3.4-2 1.4 0 2.3.5 2.9 1.3.5.7.8 1.6.8 3v5.8h-1.9v-5.2c0-1.8-.6-3.2-2.5-3.2s-2.8 1.6-2.8 3.3v5h-1.9v-9.7zM183.1 184.5c.1 1.7.9 3.1 3 3.1 1.5 0 2.2-.7 2.5-1.6h1.9c-.3 1.7-1.9 3.1-4.4 3.1-3.3 0-4.9-2.3-4.9-5.1 0-3 1.7-5.1 4.8-5.1 2.5 0 4.5 1.9 4.5 4.4 0 .3 0 .7-.1 1.2h-7.3zm0-1.5h5.7c0-1.7-1.2-2.8-2.8-2.8-1.6 0-2.8 1.1-2.9 2.8zM201.2 188.8H199l-2.2-3.5-2.2 3.5h-2.2l3.3-4.9-3.3-4.8h2.2l2.2 3.4 2.2-3.4h2.2l-3.3 4.8 3.3 4.9zM209 188.8c-.4.1-1.1.1-1.7.1-1.2 0-3.1-.2-3.1-3.4v-4.9h-1.8V179h1.8v-3.3h1.9v3.3h2.5v1.6h-2.5v4.5c0 1.9.7 2.1 1.6 2.1.4 0 1 0 1.3-.1v1.7zM223.6 181.1l-2.7 7.7h-1.3l-3.8-9.8h2l2.4 6.9 2.5-6.9h1.9l2.4 6.9 2.5-6.9h2l-3.8 9.8h-1.3l-2.8-7.7zM234.5 184.5c.1 1.7.9 3.1 3 3.1 1.5 0 2.2-.7 2.5-1.6h1.9c-.3 1.7-1.9 3.1-4.4 3.1-3.3 0-4.9-2.3-4.9-5.1 0-3 1.7-5.1 4.8-5.1 2.5 0 4.5 1.9 4.5 4.4 0 .3 0 .7-.1 1.2h-7.3zm0-1.5h5.7c0-1.7-1.2-2.8-2.8-2.8-1.7 0-2.9 1.1-2.9 2.8zM246.3 184.5c.1 1.7.9 3.1 3 3.1 1.5 0 2.2-.7 2.5-1.6h1.9c-.3 1.7-1.9 3.1-4.4 3.1-3.3 0-4.9-2.3-4.9-5.1 0-3 1.7-5.1 4.8-5.1 2.5 0 4.5 1.9 4.5 4.4 0 .3 0 .7-.1 1.2h-7.3zm0-1.5h5.7c0-1.7-1.2-2.8-2.8-2.8-1.7 0-2.9 1.1-2.9 2.8zM260.8 184l4.5 4.9h-2.4l-4.1-4.4v4.4H257v-15.1h1.9v9.8l4.1-4.5h2.4l-4.6 4.9zM276.1 175.5h-3.9v-1.8h9.8v1.8h-3.9v13.3h-2v-13.3zM291.9 179.1v9.8H290v-1.7c-.6 1.2-1.8 2-3.4 2-1.4 0-2.4-.5-3-1.3-.5-.7-.7-1.6-.7-3v-5.8h1.9v5.2c0 1.8.6 3.2 2.5 3.2s2.8-1.6 2.8-3.3v-5h1.8zM296.8 184.5c.1 1.7.9 3.1 3 3.1 1.5 0 2.2-.7 2.5-1.6h1.9c-.3 1.7-1.9 3.1-4.4 3.1-3.3 0-4.9-2.3-4.9-5.1 0-3 1.7-5.1 4.8-5.1 2.5 0 4.5 1.9 4.5 4.4 0 .3 0 .7-.1 1.2h-7.3zm.1-1.5h5.7c0-1.7-1.2-2.8-2.8-2.8-1.7 0-2.9 1.1-2.9 2.8zM314.6 186.2c0 2-1.6 2.9-3.8 2.9-2.2 0-4-1.2-4-3.5h1.8c0 1.5 1 2 2.3 2 1.2 0 2-.4 2-1.4 0-1.1-1.2-1.2-3.1-1.9-1.5-.5-2.7-.9-2.7-2.7 0-1.8 1.6-2.8 3.6-2.8 2.1 0 3.8 1.3 3.8 3.3h-1.8c0-1.1-.7-1.8-2-1.8-1 0-1.8.5-1.8 1.4 0 1 1 1.1 2.8 1.7 1.4.5 2.9.9 2.9 2.8zM325.4 187.1c-.6 1.2-2 1.9-3.4 1.9-3 0-5-2.4-5-5.1 0-2.8 2-5.1 5-5.1 1.4 0 2.8.8 3.4 1.9v-7h1.9v15.1h-1.9v-1.7zm0-3.1c0-1.9-1.3-3.5-3.3-3.5-2 0-3.3 1.6-3.3 3.5s1.3 3.4 3.3 3.4c2 0 3.3-1.6 3.3-3.4zM340.6 179.1v9.8h-1.9v-1.7c-.6 1.2-2 1.9-3.4 1.9-3 0-5-2.4-5-5.1 0-2.8 2-5.1 5-5.1 1.4 0 2.8.8 3.4 1.9v-1.7h1.9zm-1.9 4.9c0-1.9-1.3-3.5-3.3-3.5-2 0-3.3 1.6-3.3 3.5s1.3 3.4 3.3 3.4c2 0 3.3-1.6 3.3-3.4zM344.2 190.1h1.9c.1 1.8 1.1 2.6 2.7 2.6 1.7 0 2.7-.7 2.7-2.9V187c-.6 1.2-1.8 2-3.4 2-1.4 0-2.4-.5-3-1.2-.5-.7-.7-1.6-.7-3.1V179h1.9v5.1c0 1.9.6 3.2 2.5 3.2s2.8-1.6 2.8-3.3v-5h1.9v10.8c0 3.1-1.6 4.5-4.7 4.5-2.8.1-4.5-1.4-4.6-4.2z"/>
                </g>
                <g class="st6">
                    <path class="st7" d="M60.2 208.1l-2.7 7.7h-1.3l-3.8-9.8h2l2.4 6.9 2.5-6.9h1.9l2.4 6.9 2.5-6.9h2l-3.8 9.8H63l-2.8-7.7zM69 211c0-2.8 2-5.1 5.1-5.1 3.1 0 5.2 2.4 5.2 5.1 0 2.8-2 5.1-5.2 5.1-3.1 0-5.1-2.4-5.1-5.1zm8.5 0c0-1.9-1.3-3.5-3.3-3.5-2 0-3.3 1.6-3.3 3.5s1.3 3.4 3.3 3.4c2 0 3.3-1.6 3.3-3.4zM88.4 207.8c-.4-.1-.6-.1-.9-.1-2.2 0-3.3 1.5-3.3 3.9v4.3h-1.9v-9.8h1.9v1.9c.5-1.2 1.9-2.1 3.3-2.1.4 0 .7 0 .9.2v1.7zM94.6 211l4.5 4.9h-2.4l-4.1-4.4v4.4h-1.9v-15.1h1.9v9.8l4.1-4.5H99l-4.4 4.9zM112.9 202.5c-.3-.1-.7-.2-1.1-.2-.8 0-1.7.1-1.7 1.9v1.9h2.8v1.6h-2.8v8.2h-1.9v-8.2h-2.1v-1.6h2.1v-1.7c0-3.6 2.2-3.7 3.3-3.7.6 0 1.1.1 1.3.3v1.5zM114.2 211c0-2.8 2-5.1 5.1-5.1 3.1 0 5.2 2.4 5.2 5.1 0 2.8-2 5.1-5.2 5.1-3 0-5.1-2.4-5.1-5.1zm8.5 0c0-1.9-1.3-3.5-3.3-3.5-2 0-3.3 1.6-3.3 3.5s1.3 3.4 3.3 3.4c2 0 3.3-1.6 3.3-3.4zM133.6 207.8c-.4-.1-.6-.1-.9-.1-2.2 0-3.3 1.5-3.3 3.9v4.3h-1.9v-9.8h1.9v1.9c.5-1.2 1.9-2.1 3.3-2.1.4 0 .7 0 .9.2v1.7zM141.7 217.1h1.9c.1 1.8 1.1 2.6 2.7 2.6 1.7 0 2.7-.7 2.7-2.9V214c-.6 1.2-1.8 2-3.4 2-1.4 0-2.4-.5-3-1.2-.5-.7-.7-1.6-.7-3.1V206h1.9v5.1c0 1.9.6 3.2 2.5 3.2s2.8-1.6 2.8-3.3v-5h1.9v10.8c0 3.1-1.6 4.5-4.7 4.5-2.9.1-4.6-1.4-4.6-4.2zM153.9 211c0-2.8 2-5.1 5.1-5.1 3.1 0 5.2 2.4 5.2 5.1 0 2.8-2 5.1-5.2 5.1-3.1 0-5.1-2.4-5.1-5.1zm8.4 0c0-1.9-1.3-3.5-3.3-3.5-2 0-3.3 1.6-3.3 3.5s1.3 3.4 3.3 3.4c2 0 3.3-1.6 3.3-3.4zM176 206.1v9.8h-1.9v-1.7c-.6 1.2-1.8 2-3.4 2-1.4 0-2.4-.5-3-1.3-.5-.7-.7-1.6-.7-3v-5.8h1.9v5.2c0 1.8.6 3.2 2.5 3.2s2.8-1.6 2.8-3.3v-5h1.8zM184 207.7c.8-.6 2.1-1.5 2.1-3 0-1.6-1.1-2.4-2.7-2.4s-2.8 1-2.8 3h-2c0-3 2.1-4.7 4.8-4.7 2.7 0 4.7 1.6 4.7 4.2 0 2.1-1.5 3.2-2.3 3.8-1.4 1-1.7 1.4-1.7 3.3h-1.9c-.1-2.2.4-3.2 1.8-4.2zm-1 5.3c.9 0 1.6.7 1.6 1.6 0 .9-.7 1.6-1.6 1.6-.9 0-1.6-.7-1.6-1.6.1-.9.7-1.6 1.6-1.6z"/>
                </g>
                <g class="st6">
                    <path class="st7" d="M54 254.8h5.1c3.6 0 4.6 2.3 4.6 4 0 1.8-1.3 3.1-2.7 3.4 1.2.1 2.8 1.3 2.8 3.5 0 1.7-1 4.2-4.7 4.2H54v-15.1zm5.2 6.5c2 0 2.6-1.4 2.6-2.4s-.6-2.4-2.6-2.4H56v4.8h3.2zm-3.3 1.8v5h3.3c2 0 2.6-1.3 2.6-2.5 0-1-.7-2.5-2.6-2.5h-3.3zM68 265.5c.1 1.7.9 3.1 3 3.1 1.5 0 2.2-.7 2.5-1.6h1.9c-.3 1.7-1.9 3.1-4.4 3.1-3.3 0-4.9-2.3-4.9-5.1 0-3 1.7-5.1 4.8-5.1 2.5 0 4.5 1.9 4.5 4.4 0 .3 0 .7-.1 1.2H68zm0-1.5h5.7c0-1.7-1.2-2.8-2.8-2.8-1.7 0-2.9 1.1-2.9 2.8zM85.7 267.2c0 2-1.6 2.9-3.8 2.9-2.2 0-4.1-1.2-4.1-3.5h1.8c0 1.5 1 2 2.3 2 1.2 0 2-.4 2-1.4 0-1.1-1.2-1.2-3.1-1.9-1.5-.5-2.6-.9-2.6-2.7 0-1.8 1.6-2.8 3.6-2.8 2.1 0 3.8 1.3 3.8 3.3h-1.8c0-1.1-.7-1.8-2-1.8-1 0-1.8.5-1.8 1.4 0 1 1 1.1 2.8 1.7 1.5.5 2.9.9 2.9 2.8zM93.8 269.8c-.4.1-1.1.1-1.7.1-1.2 0-3.1-.2-3.1-3.4v-4.9h-1.8V260H89v-3.3h1.9v3.3h2.5v1.6h-2.5v4.5c0 1.9.7 2.1 1.6 2.1.4 0 1 0 1.3-.1v1.7zM97.4 266.9c1.1 0 1.8.9 1.8 2.2 0 2.4-1.2 3.2-3.2 3.2v-.9c.8 0 1.3-.3 1.6-.7.2-.3.3-.7.3-.9-.1.1-.3.2-.5.2-.9 0-1.5-.7-1.5-1.5-.1-.9.6-1.6 1.5-1.6z"/>
                </g>
                <g class="st6">
                    <path class="st7" d="M62.5 289.6h7.3v1.8h-1.6c-.6 3.5-3 5.8-7.2 5.8-5 0-7.7-3.8-7.7-7.9 0-4.1 3-7.9 7.7-7.9 3.4 0 5.9 2 6.3 4.5h-2c-.4-1.6-2.1-2.8-4.3-2.8-3.6 0-5.7 3-5.7 6.1s2 6.1 6 6.1c2.9 0 4.6-1.8 4.9-4.1h-3.6v-1.6zM82 287.1v9.8h-1.9v-1.7c-.6 1.2-2 1.9-3.4 1.9-3 0-5-2.4-5-5.1 0-2.8 2-5.1 5-5.1 1.4 0 2.8.8 3.4 1.9v-1.7H82zm-1.9 4.9c0-1.9-1.3-3.5-3.3-3.5-2 0-3.3 1.6-3.3 3.5s1.3 3.4 3.3 3.4c2 0 3.3-1.6 3.3-3.4zM87.7 296.8h-1.9v-15.1h1.9v7c.6-1.2 2-1.9 3.4-1.9 3 0 5 2.4 5 5.1 0 2.8-2 5.1-5 5.1-1.4 0-2.8-.8-3.4-1.9v1.7zm6.5-4.8c0-1.9-1.3-3.5-3.3-3.5-2 0-3.3 1.6-3.3 3.5s1.3 3.4 3.3 3.4c2 0 3.3-1.6 3.3-3.4zM105.2 288.8c-.4-.1-.6-.1-.9-.1-2.2 0-3.3 1.5-3.3 3.9v4.3h-1.9v-9.8h1.9v1.9c.5-1.2 1.9-2.1 3.3-2.1.4 0 .7 0 .9.2v1.7zM108.4 281.8c.8 0 1.5.7 1.5 1.5s-.7 1.5-1.5 1.5-1.5-.7-1.5-1.5.7-1.5 1.5-1.5zm-.9 5.3h1.9v9.8h-1.9v-9.8zM114.3 292.5c.1 1.7.9 3.1 3 3.1 1.5 0 2.2-.7 2.5-1.6h1.9c-.3 1.7-1.9 3.1-4.4 3.1-3.3 0-4.9-2.3-4.9-5.1 0-3 1.7-5.1 4.8-5.1 2.5 0 4.5 1.9 4.5 4.4 0 .3 0 .7-.1 1.2h-7.3zm0-1.5h5.7c0-1.7-1.2-2.8-2.8-2.8-1.6 0-2.8 1.1-2.9 2.8zM125 281.8h1.9v15.1H125v-15.1z"/>
                </g>
                <g class="st6">
                    <path class="st7" d="M131.8 292.5c.1 1.7.9 3.1 3 3.1 1.5 0 2.2-.7 2.5-1.6h1.9c-.3 1.7-1.9 3.1-4.4 3.1-3.3 0-4.9-2.3-4.9-5.1 0-3 1.7-5.1 4.8-5.1 2.5 0 4.5 1.9 4.5 4.4 0 .3 0 .7-.1 1.2h-7.3zm0-1.5h5.7c0-1.7-1.2-2.8-2.8-2.8-1.6 0-2.8 1.1-2.9 2.8z"/>
                </g>
                <g id="Rectangle-22-Copy">
                    <g class="st8">
                        <path id="path-3_2_" d="M10.8 405.6h653.5c5.9 0 10.8 4.8 10.8 10.8v299.1H0V416.4c0-6 4.8-10.8 10.8-10.8z"/>
                    </g>
                    <path id="path-3_1_" class="st1" d="M10.8 405.6h653.5c5.9 0 10.8 4.8 10.8 10.8v299.1H0V416.4c0-6 4.8-10.8 10.8-10.8z"/>
                </g>
                <path id="Rectangle-22-Copy-2" class="st2" d="M10.8 405.6h653.5c5.9 0 10.8 4.8 10.8 10.8v16.4H0v-16.4c0-6 4.8-10.8 10.8-10.8z"/>
                <g class="st6">
                    <path class="st5" d="M59.9 486.6v1.8H53v-15.1h2v13.3h4.9zM70.8 488.4l-.8-2.3h-6.1l-.8 2.3H61l5.2-15.1h1.4l5.2 15.1h-2zM67 476.5l-2.5 7.8h4.9l-2.4-7.8zM76.4 483.6c0 2.1 1.4 3.4 3.4 3.4 1.7 0 3-1 3-2.6 0-1.8-1.6-2.3-2.9-2.7-2.7-.9-5-1.6-5-4.7 0-2.4 2-4 4.7-4s4.7 1.8 4.7 4.6h-2c0-1.7-1.1-2.8-2.7-2.8-1.7 0-2.8.9-2.8 2.3 0 1.6 1.4 2.2 2.8 2.6 2.3.8 5 1.7 5 4.6 0 3-2.2 4.5-5.1 4.5-2.9 0-5.2-1.9-5.2-5.1h2.1zM89.8 475.1h-3.9v-1.8h9.8v1.8h-3.9v13.3h-2v-13.3zM118.2 483.7c-.8 2.8-3.5 5-7.1 5-4.9 0-7.9-3.7-7.9-7.9 0-4.1 2.9-7.9 7.6-7.9 4.4 0 6.8 2.5 7.3 5.6H116c-.5-2.2-2.2-3.9-5-3.9-3.7 0-5.9 2.9-5.9 6.1 0 3.3 2.2 6.1 6.1 6.1 2.1 0 4.1-1.4 4.7-3.2h2.3zM130.2 481.8h-7v6.6h-2v-15.1h2v6.7h7v-6.7h2v15.1h-2v-6.6zM144.2 488.4l-.8-2.3h-6.1l-.8 2.3h-2.1l5.2-15.1h1.4l5.2 15.1h-2zm-3.9-11.9l-2.5 7.8h4.9l-2.4-7.8zM157.5 484.9v-11.7h2v15.1h-2.2l-6.8-11.7v11.7h-2v-15.1h2.2l6.8 11.7zM177.4 483.7c-.8 2.8-3.5 5-7.1 5-4.9 0-7.9-3.7-7.9-7.9 0-4.1 2.9-7.9 7.6-7.9 4.4 0 6.8 2.5 7.3 5.6h-2.1c-.5-2.2-2.2-3.9-5-3.9-3.7 0-5.9 2.9-5.9 6.1 0 3.3 2.2 6.1 6.1 6.1 2.1 0 4.1-1.4 4.7-3.2h2.3zM182.4 475.1v4.9h6.5v1.8h-6.5v4.8h6.5v1.8h-8.5v-15.1h8.5v1.8h-6.5zM194.1 485.5c.9 0 1.6.7 1.6 1.6 0 .9-.7 1.6-1.6 1.6-.9 0-1.6-.7-1.6-1.6 0-.9.7-1.6 1.6-1.6zm-1-12.3h2v10.6h-2v-10.6zM201 485.5c.9 0 1.6.7 1.6 1.6 0 .9-.7 1.6-1.6 1.6-.9 0-1.6-.7-1.6-1.6 0-.9.7-1.6 1.6-1.6zm-1-12.3h2v10.6h-2v-10.6zM207.8 485.5c.9 0 1.6.7 1.6 1.6 0 .9-.7 1.6-1.6 1.6-.9 0-1.6-.7-1.6-1.6.1-.9.7-1.6 1.6-1.6zm-1-12.3h2v10.6h-2v-10.6z"/>
                </g>
                <g class="st6">
                    <path class="st9" d="M56.4 542.4h-2.2l3-6-5.7-9.1h2.3l4.4 7 3.6-7H64l-7.6 15.1zM63.3 537.5c0-2.8 2-5.1 5.1-5.1 3.1 0 5.2 2.4 5.2 5.1 0 2.8-2 5.1-5.2 5.1-3.1 0-5.1-2.4-5.1-5.1zm8.4 0c0-1.9-1.3-3.5-3.3-3.5-2 0-3.3 1.6-3.3 3.5s1.3 3.4 3.3 3.4c2 0 3.3-1.5 3.3-3.4zM85.4 532.6v9.8h-1.9v-1.7c-.6 1.2-1.8 2-3.4 2-1.4 0-2.4-.5-3-1.3-.5-.7-.7-1.6-.7-3v-5.8h1.9v5.2c0 1.8.6 3.2 2.5 3.2s2.8-1.6 2.8-3.3v-5h1.8zM90.4 526.4c1.1 0 1.7.9 1.7 2.1 0 2.3-1.2 3.1-3.1 3.1v-.9c.8 0 1.2-.3 1.5-.7.2-.3.3-.6.3-.9-.1.1-.3.2-.5.2-.9 0-1.4-.6-1.4-1.4s.6-1.5 1.5-1.5zM101.6 534.3c-.4-.1-.6-.1-.9-.1-2.2 0-3.3 1.5-3.3 3.9v4.3h-1.9v-9.8h1.9v1.9c.5-1.2 1.9-2.1 3.3-2.1.4 0 .7 0 .9.2v1.7zM104.8 538c.1 1.7.9 3.1 3 3.1 1.5 0 2.2-.7 2.5-1.6h1.9c-.3 1.7-1.9 3.1-4.4 3.1-3.3 0-4.9-2.3-4.9-5.1 0-3 1.7-5.1 4.8-5.1 2.5 0 4.5 1.9 4.5 4.4 0 .3 0 .7-.1 1.2h-7.3zm0-1.4h5.7c0-1.7-1.2-2.8-2.8-2.8-1.7 0-2.9 1-2.9 2.8zM128.4 539.7c0 2-1.6 2.9-3.8 2.9-2.2 0-4-1.2-4-3.5h1.8c0 1.5 1 2 2.3 2 1.2 0 2-.4 2-1.4 0-1.1-1.2-1.2-3.1-1.9-1.5-.5-2.7-.9-2.7-2.7 0-1.8 1.6-2.8 3.6-2.8 2.1 0 3.8 1.3 3.8 3.3h-1.8c0-1.1-.7-1.8-2-1.8-1 0-1.8.5-1.8 1.4 0 1 1 1.1 2.8 1.7 1.5.5 2.9.9 2.9 2.8zM130.8 537.5c0-2.8 2-5.1 5.1-5.1 3.1 0 5.2 2.4 5.2 5.1 0 2.8-2 5.1-5.2 5.1-3.1 0-5.1-2.4-5.1-5.1zm8.4 0c0-1.9-1.3-3.5-3.3-3.5-2 0-3.3 1.6-3.3 3.5s1.3 3.4 3.3 3.4c2 0 3.3-1.5 3.3-3.4zM156.9 536.1c-.2-1.2-.9-2.1-2.7-2.1-2 0-3 1.6-3 3.5s1 3.4 3.1 3.4c1.6 0 2.3-.8 2.6-1.9h1.9c-.3 2-1.8 3.6-4.6 3.6-3.2 0-4.9-2.5-4.9-5.1s1.7-5.1 4.9-5.1 4.5 1.9 4.6 3.8h-1.9zM161.9 527.3h1.9v15.1h-1.9v-15.1zM166.8 537.5c0-2.8 2-5.1 5.1-5.1 3.1 0 5.2 2.4 5.2 5.1 0 2.8-2 5.1-5.2 5.1-3.1 0-5.1-2.4-5.1-5.1zm8.5 0c0-1.9-1.3-3.5-3.3-3.5-2 0-3.3 1.6-3.3 3.5s1.3 3.4 3.3 3.4c2 0 3.3-1.5 3.3-3.4zM187.2 539.7c0 2-1.6 2.9-3.8 2.9-2.2 0-4-1.2-4-3.5h1.8c0 1.5 1 2 2.3 2 1.2 0 2-.4 2-1.4 0-1.1-1.2-1.2-3.1-1.9-1.5-.5-2.7-.9-2.7-2.7 0-1.8 1.6-2.8 3.6-2.8 2.1 0 3.8 1.3 3.8 3.3h-1.8c0-1.1-.7-1.8-2-1.8-1 0-1.8.5-1.8 1.4 0 1 1 1.1 2.8 1.7 1.5.5 2.9.9 2.9 2.8zM191.5 538c.1 1.7.9 3.1 3 3.1 1.5 0 2.2-.7 2.5-1.6h1.9c-.3 1.7-1.9 3.1-4.4 3.1-3.3 0-4.9-2.3-4.9-5.1 0-3 1.7-5.1 4.8-5.1 2.5 0 4.5 1.9 4.5 4.4 0 .3 0 .7-.1 1.2h-7.3zm0-1.4h5.7c0-1.7-1.2-2.8-2.8-2.8-1.7 0-2.9 1-2.9 2.8z"/>
                </g>
                <g class="st6">
                    <path class="st7" d="M213.4 542.4c-.4.1-1.1.1-1.7.1-1.2 0-3.1-.2-3.1-3.4v-4.9h-1.8v-1.6h1.8v-3.3h1.9v3.3h2.5v1.6h-2.5v4.5c0 1.9.7 2.1 1.6 2.1.4 0 1 0 1.3-.1v1.7zM215 537.5c0-2.8 2-5.1 5.1-5.1 3.1 0 5.2 2.4 5.2 5.1 0 2.8-2 5.1-5.2 5.1-3.1 0-5.1-2.4-5.1-5.1zm8.5 0c0-1.9-1.3-3.5-3.3-3.5-2 0-3.3 1.6-3.3 3.5s1.3 3.4 3.3 3.4c2 0 3.3-1.5 3.3-3.4z"/>
                </g>
                <g class="st6">
                    <path class="st9" d="M236.2 529.1v5.4h6.5v1.8h-6.5v6.2h-2v-15.1h8.5v1.8h-6.5zM246.3 527.3h5.3c3.1 0 5.2 2.4 5.2 5.1 0 2.2-1.3 4.1-3.3 4.8l3.2 5.1h-2.2l-3-4.8h-3.1v4.8h-2v-15zm8.6 5.1c0-1.8-1.2-3.4-3.2-3.4h-3.3v6.7h3.3c1.9.1 3.2-1.5 3.2-3.3zM261.8 529.1v4.9h6.5v1.8h-6.5v4.8h6.5v1.8h-8.5v-15.1h8.5v1.8h-6.5zM274 529.1v4.9h6.5v1.8H274v4.8h6.5v1.8H272v-15.1h8.5v1.8H274z"/>
                </g>
                <g class="st6">
                    <path class="st10" d="M297.3 539.7c0 2-1.6 2.9-3.8 2.9-2.2 0-4.1-1.2-4.1-3.5h1.8c0 1.5 1 2 2.3 2 1.2 0 2-.4 2-1.4 0-1.1-1.2-1.2-3.1-1.9-1.5-.5-2.6-.9-2.6-2.7 0-1.8 1.6-2.8 3.6-2.8 2.1 0 3.8 1.3 3.8 3.3h-1.8c0-1.1-.7-1.8-2-1.8-1 0-1.8.5-1.8 1.4 0 1 1 1.1 2.8 1.7 1.4.5 2.9.9 2.9 2.8zM300.4 532.6h1.9v1.7c.6-1.2 1.8-2 3.4-2 1.4 0 2.3.5 2.9 1.3.5.7.8 1.6.8 3v5.8h-1.9v-5.2c0-1.8-.6-3.2-2.5-3.2s-2.8 1.6-2.8 3.3v5h-1.9v-9.7zM322.6 532.6v9.8h-1.9v-1.7c-.6 1.2-2 1.9-3.4 1.9-3 0-5-2.4-5-5.1 0-2.8 2-5.1 5-5.1 1.4 0 2.8.8 3.4 1.9v-1.7h1.9zm-1.9 4.9c0-1.9-1.3-3.5-3.3-3.5-2 0-3.3 1.6-3.3 3.5s1.3 3.4 3.3 3.4c2 0 3.3-1.5 3.3-3.4zM333.3 536.1c-.2-1.2-.9-2.1-2.7-2.1-2 0-3 1.6-3 3.5s1 3.4 3.1 3.4c1.6 0 2.3-.8 2.6-1.9h1.9c-.3 2-1.8 3.6-4.6 3.6-3.2 0-4.9-2.5-4.9-5.1s1.7-5.1 4.9-5.1 4.5 1.9 4.6 3.8h-1.9zM342.1 537.5l4.5 4.9h-2.4l-4.1-4.4v4.4h-1.9v-15.1h1.9v9.8l4.1-4.5h2.4l-4.5 4.9zM356.1 539.7c0 2-1.6 2.9-3.8 2.9-2.2 0-4-1.2-4-3.5h1.8c0 1.5 1 2 2.3 2 1.2 0 2-.4 2-1.4 0-1.1-1.2-1.2-3.1-1.9-1.5-.5-2.7-.9-2.7-2.7 0-1.8 1.6-2.8 3.6-2.8 2.1 0 3.8 1.3 3.8 3.3h-1.8c0-1.1-.7-1.8-2-1.8-1 0-1.8.5-1.8 1.4 0 1 1 1.1 2.8 1.7 1.4.5 2.9.9 2.9 2.8z"/>
                </g>
                <g class="st6">
                    <path class="st11" d="M360.7 539.5c.9 0 1.6.7 1.6 1.6 0 .9-.7 1.6-1.6 1.6-.9 0-1.6-.7-1.6-1.6.1-.9.8-1.6 1.6-1.6zm-1-12.3h2v10.6h-2v-10.6z"/>
                </g>
                <g class="st6">
                    <path class="st12" d="M56.4 569.4h-2.2l3-6-5.7-9.1h2.3l4.4 7 3.6-7H64l-7.6 15.1zM63.3 564.5c0-2.8 2-5.1 5.1-5.1 3.1 0 5.2 2.4 5.2 5.1 0 2.8-2 5.1-5.2 5.1-3.1 0-5.1-2.4-5.1-5.1zm8.4 0c0-1.9-1.3-3.5-3.3-3.5-2 0-3.3 1.6-3.3 3.5s1.3 3.4 3.3 3.4c2 0 3.3-1.5 3.3-3.4zM85.4 559.6v9.8h-1.9v-1.7c-.6 1.2-1.8 2-3.4 2-1.4 0-2.4-.5-3-1.3-.5-.7-.7-1.6-.7-3v-5.8h1.9v5.2c0 1.8.6 3.2 2.5 3.2s2.8-1.6 2.8-3.3v-5h1.8zM104.7 570c0 3.5-2 4.9-5.2 4.9-3.3 0-4.8-2.1-5-4.3h1.9c.1 1.4 1 2.6 3.1 2.6s3.4-.9 3.4-3.2v-2.3c-.6 1.2-2 1.9-3.4 1.9-3 0-5-2.4-5-5.1 0-2.8 2-5.1 5-5.1 1.4 0 2.8.8 3.4 1.9v-1.7h1.9V570zm-8.5-5.5c0 1.9 1.3 3.4 3.3 3.4 2 0 3.3-1.6 3.3-3.4 0-1.9-1.3-3.5-3.3-3.5-2 0-3.3 1.6-3.3 3.5zM109.6 565c.1 1.7.9 3.1 3 3.1 1.5 0 2.2-.7 2.5-1.6h1.9c-.3 1.7-1.9 3.1-4.4 3.1-3.3 0-4.9-2.3-4.9-5.1 0-3 1.7-5.1 4.8-5.1 2.5 0 4.5 1.9 4.5 4.4 0 .3 0 .7-.1 1.2h-7.3zm0-1.4h5.7c0-1.7-1.2-2.8-2.8-2.8-1.7 0-2.9 1-2.9 2.8zM125.5 569.4c-.4.1-1.1.1-1.7.1-1.2 0-3.1-.2-3.1-3.4v-4.9h-1.8v-1.6h1.8v-3.3h1.9v3.3h2.5v1.6h-2.5v4.5c0 1.9.7 2.1 1.6 2.1.4 0 1 0 1.3-.1v1.7zM137.5 561.9c1.6-.8 3.2-1.6 3.2-3.6 0-1.6-1.1-2.4-2.7-2.4s-2.8 1-2.8 3h-2c0-3 2.2-4.7 4.8-4.7 2.7 0 4.6 1.6 4.6 4.4 0 2.8-2.8 4.2-4.1 4.9-2.5 1.4-3.1 2.2-3.1 4.3h7.2v1.8h-9.4c0-5 1.6-6.4 4.3-7.7zM145.7 554.3h8.9v1.8h-7.1v5c.6-1.2 2.2-1.7 3.4-1.7 3.1 0 4.9 2.3 4.9 5.1s-2 5.1-5.2 5.1c-3.1 0-5.1-2.4-5.1-5.1h2c0 1.8 1.2 3.4 3.2 3.4s3.2-1.6 3.2-3.4c0-1.8-1.2-3.3-3.2-3.3-1.3 0-2.3.6-2.8 1.8h-2v-8.7zM164.8 559.9V557c0-1.5 1.2-2.8 3-2.8 1.9 0 3 1.3 3 2.9v2.9c0 1.5-1.2 2.8-3 2.8s-3-1.4-3-2.9zm4.5-2.9c0-.8-.6-1.6-1.5-1.6s-1.5.7-1.5 1.6v2.9c0 .8.6 1.6 1.5 1.6s1.5-.7 1.5-1.6V557zm-1.7 12.4l1.5.9 9.4-16.2-1.5-.9-9.4 16.2zm13.8-5.6c0-1.6-1.2-2.9-3-2.9-1.9 0-3 1.3-3 2.8v2.9c0 1.6 1.2 2.9 3 2.9s3-1.3 3-2.8v-2.9zm-4.6 2.9v-2.9c0-.9.6-1.6 1.5-1.6s1.5.7 1.5 1.6v2.9c0 .9-.6 1.6-1.5 1.6-.9-.1-1.5-.8-1.5-1.6zM190.2 564.5c0-2.8 2-5.1 5.1-5.1 3.1 0 5.2 2.4 5.2 5.1 0 2.8-2 5.1-5.2 5.1-3 0-5.1-2.4-5.1-5.1zm8.5 0c0-1.9-1.3-3.5-3.3-3.5-2 0-3.3 1.6-3.3 3.5s1.3 3.4 3.3 3.4c2 0 3.3-1.5 3.3-3.4zM208.9 556c-.3-.1-.7-.2-1.1-.2-.8 0-1.7.1-1.7 1.9v1.9h2.8v1.6h-2.8v8.2h-1.9v-8.2h-2.1v-1.6h2.1v-1.7c0-3.6 2.2-3.7 3.3-3.7.6 0 1.1.1 1.3.3v1.5zm7.5 0c-.3-.1-.7-.2-1.1-.2-.8 0-1.7.1-1.7 1.9v1.9h2.8v1.6h-2.8v8.2h-1.9v-8.2h-2.1v-1.6h2.1v-1.7c0-3.6 2.2-3.7 3.3-3.7.6 0 1.1.1 1.4.3v1.5zM225.6 554.4c.8 0 1.5.7 1.5 1.5s-.7 1.5-1.5 1.5-1.5-.7-1.5-1.5c.1-.9.7-1.5 1.5-1.5zm-.9 5.2h1.9v9.8h-1.9v-9.8zM236 556c-.3-.1-.7-.2-1.1-.2-.8 0-1.7.1-1.7 1.9v1.9h2.8v1.6h-2.8v8.2h-1.9v-8.2h-2.1v-1.6h2.1v-1.7c0-3.6 2.2-3.7 3.3-3.7.6 0 1.1.1 1.3.3v1.5zM244.1 570.6h1.9c.1 1.8 1.1 2.6 2.7 2.6 1.7 0 2.7-.7 2.7-2.9v-2.8c-.6 1.2-1.8 2-3.4 2-1.4 0-2.4-.5-3-1.2-.5-.7-.7-1.6-.7-3.1v-5.7h1.9v5.1c0 1.9.6 3.2 2.5 3.2s2.8-1.6 2.8-3.3v-5h1.9v10.8c0 3.1-1.6 4.5-4.7 4.5-2.8.1-4.5-1.3-4.6-4.2zM256.3 564.5c0-2.8 2-5.1 5.1-5.1 3.1 0 5.2 2.4 5.2 5.1 0 2.8-2 5.1-5.2 5.1-3.1 0-5.1-2.4-5.1-5.1zm8.5 0c0-1.9-1.3-3.5-3.3-3.5-2 0-3.3 1.6-3.3 3.5s1.3 3.4 3.3 3.4c2 0 3.3-1.5 3.3-3.4zM278.5 559.6v9.8h-1.9v-1.7c-.6 1.2-1.8 2-3.4 2-1.4 0-2.4-.5-3-1.3-.5-.7-.7-1.6-.7-3v-5.8h1.9v5.2c0 1.8.6 3.2 2.5 3.2s2.8-1.6 2.8-3.3v-5h1.8zM295.3 566.7c0 2-1.6 2.9-3.8 2.9-2.2 0-4-1.2-4-3.5h1.8c0 1.5 1 2 2.3 2 1.2 0 2-.4 2-1.4 0-1.1-1.2-1.2-3.1-1.9-1.5-.5-2.7-.9-2.7-2.7 0-1.8 1.6-2.8 3.6-2.8 2.1 0 3.8 1.3 3.8 3.3h-1.8c0-1.1-.7-1.8-2-1.8-1 0-1.8.5-1.8 1.4 0 1 1 1.1 2.8 1.7 1.5.5 2.9.9 2.9 2.8zM299.4 554.4c.8 0 1.5.7 1.5 1.5s-.7 1.5-1.5 1.5-1.5-.7-1.5-1.5c0-.9.7-1.5 1.5-1.5zm-1 5.2h1.9v9.8h-1.9v-9.8zM313.7 570c0 3.5-2 4.9-5.2 4.9-3.3 0-4.8-2.1-5-4.3h1.9c.1 1.4 1 2.6 3.1 2.6s3.4-.9 3.4-3.2v-2.3c-.6 1.2-2 1.9-3.4 1.9-3 0-5-2.4-5-5.1 0-2.8 2-5.1 5-5.1 1.4 0 2.8.8 3.4 1.9v-1.7h1.9V570zm-8.5-5.5c0 1.9 1.3 3.4 3.3 3.4 2 0 3.3-1.6 3.3-3.4 0-1.9-1.3-3.5-3.3-3.5-2 0-3.3 1.6-3.3 3.5zM317.4 559.6h1.9v1.7c.6-1.2 1.8-2 3.4-2 1.4 0 2.3.5 2.9 1.3.5.7.8 1.6.8 3v5.8h-1.9v-5.2c0-1.8-.6-3.2-2.5-3.2s-2.8 1.6-2.8 3.3v5h-1.9v-9.7zM344.8 559.6v9.8H343v-1.7c-.6 1.2-1.8 2-3.4 2-1.4 0-2.4-.5-3-1.3-.5-.7-.7-1.6-.7-3v-5.8h1.9v5.2c0 1.8.6 3.2 2.5 3.2s2.8-1.6 2.8-3.3v-5h1.7zM350.5 561.3c.6-1.2 2-1.9 3.4-1.9 3 0 5 2.4 5 5.1 0 2.8-2 5.1-5 5.1-1.4 0-2.8-.8-3.4-1.9v7h-1.9v-15.1h1.9v1.7zm0 3.2c0 1.9 1.3 3.4 3.3 3.4 2 0 3.3-1.6 3.3-3.4 0-1.9-1.3-3.5-3.3-3.5-2 0-3.3 1.6-3.3 3.5z"/>
                </g>
                <g class="st6">
                    <path class="st12" d="M53 586.6h1.9v1.7c.6-1.2 1.8-2 3.4-2 1.4 0 2.3.5 2.9 1.3.5.7.8 1.6.8 3v5.8h-1.9v-5.2c0-1.8-.6-3.2-2.5-3.2s-2.8 1.6-2.8 3.3v5H53v-9.7zM64.9 591.5c0-2.8 2-5.1 5.1-5.1 3.1 0 5.2 2.4 5.2 5.1 0 2.8-2 5.1-5.2 5.1-3.1 0-5.1-2.4-5.1-5.1zm8.4 0c0-1.9-1.3-3.5-3.3-3.5-2 0-3.3 1.6-3.3 3.5s1.3 3.4 3.3 3.4c2 0 3.3-1.5 3.3-3.4zM84.3 588.6l-2.7 7.7h-1.3l-3.8-9.8h2l2.4 6.9 2.5-6.9h1.9l2.4 6.9 2.5-6.9h2l-3.8 9.8H87l-2.7-7.7zM95.4 586.3c.8 0 1.5.7 1.5 1.5s-.7 1.5-1.5 1.5-1.5-.7-1.5-1.5c0-.9.7-1.5 1.5-1.5zm0 7.2c.8 0 1.5.7 1.5 1.5s-.7 1.5-1.5 1.5-1.5-.7-1.5-1.5.7-1.5 1.5-1.5zM112.5 588.6l-2.7 7.7h-1.3l-3.8-9.8h2l2.4 6.9 2.5-6.9h1.9l2.4 6.9 2.5-6.9h2l-3.8 9.8h-1.3l-2.8-7.7zM128.8 588.6l-2.7 7.7h-1.3l-3.8-9.8h2l2.4 6.9 2.5-6.9h1.9l2.4 6.9 2.5-6.9h2l-3.8 9.8h-1.3l-2.8-7.7zM145.1 588.6l-2.7 7.7H141l-3.8-9.8h2l2.4 6.9 2.5-6.9h1.9l2.4 6.9 2.5-6.9h2l-3.8 9.8h-1.3l-2.7-7.7zM155.1 593.5c.8 0 1.5.7 1.5 1.5s-.7 1.5-1.5 1.5-1.5-.7-1.5-1.5c0-.9.7-1.5 1.5-1.5zM167.1 593.7c0 2-1.6 2.9-3.8 2.9-2.2 0-4.1-1.2-4.1-3.5h1.8c0 1.5 1 2 2.3 2 1.2 0 2-.4 2-1.4 0-1.1-1.2-1.2-3.1-1.9-1.5-.5-2.7-.9-2.7-2.7 0-1.8 1.6-2.8 3.6-2.8 2.1 0 3.8 1.3 3.8 3.3h-1.8c0-1.1-.7-1.8-2-1.8-1 0-1.8.5-1.8 1.4 0 1 1 1.1 2.8 1.7 1.5.5 3 .9 3 2.8zM171.2 581.4c.8 0 1.5.7 1.5 1.5s-.7 1.5-1.5 1.5-1.5-.7-1.5-1.5c0-.9.6-1.5 1.5-1.5zm-1 5.2h1.9v9.8h-1.9v-9.8zM185.4 597c0 3.5-2 4.9-5.2 4.9-3.3 0-4.8-2.1-5-4.3h1.9c.1 1.4 1 2.6 3.1 2.6s3.4-.9 3.4-3.2v-2.3c-.6 1.2-2 1.9-3.4 1.9-3 0-5-2.4-5-5.1 0-2.8 2-5.1 5-5.1 1.4 0 2.8.8 3.4 1.9v-1.7h1.9V597zm-8.4-5.5c0 1.9 1.3 3.4 3.3 3.4 2 0 3.3-1.6 3.3-3.4 0-1.9-1.3-3.5-3.3-3.5-2 0-3.3 1.6-3.3 3.5zM189.2 586.6h1.9v1.7c.6-1.2 1.8-2 3.4-2 1.4 0 2.3.5 2.9 1.3.5.7.8 1.6.8 3v5.8h-1.9v-5.2c0-1.8-.6-3.2-2.5-3.2s-2.8 1.6-2.8 3.3v5h-1.9v-9.7zM210.7 586.6v9.8h-1.9v-1.7c-.6 1.2-1.8 2-3.4 2-1.4 0-2.4-.5-3-1.3-.5-.7-.7-1.6-.7-3v-5.8h1.9v5.2c0 1.8.6 3.2 2.5 3.2s2.8-1.6 2.8-3.3v-5h1.8zM216.4 588.3c.6-1.2 2-1.9 3.4-1.9 3 0 5 2.4 5 5.1 0 2.8-2 5.1-5 5.1-1.4 0-2.8-.8-3.4-1.9v7h-1.9v-15.1h1.9v1.7zm0 3.2c0 1.9 1.3 3.4 3.3 3.4 2 0 3.3-1.6 3.3-3.4 0-1.9-1.3-3.5-3.3-3.5-2 0-3.3 1.6-3.3 3.5zM235.6 594.7c-.6 1.2-2 1.9-3.4 1.9-3 0-5-2.4-5-5.1 0-2.8 2-5.1 5-5.1 1.4 0 2.8.8 3.4 1.9v-7h1.9v15.1h-1.9v-1.7zm0-3.2c0-1.9-1.3-3.5-3.3-3.5-2 0-3.3 1.6-3.3 3.5s1.3 3.4 3.3 3.4c2 0 3.3-1.5 3.3-3.4zM250.7 586.6v9.8h-1.9v-1.7c-.6 1.2-2 1.9-3.4 1.9-3 0-5-2.4-5-5.1 0-2.8 2-5.1 5-5.1 1.4 0 2.8.8 3.4 1.9v-1.7h1.9zm-1.8 4.9c0-1.9-1.3-3.5-3.3-3.5-2 0-3.3 1.6-3.3 3.5s1.3 3.4 3.3 3.4c2 0 3.3-1.5 3.3-3.4zM259.9 596.4c-.4.1-1.1.1-1.7.1-1.2 0-3.1-.2-3.1-3.4v-4.9h-1.8v-1.6h1.8v-3.3h1.9v3.3h2.5v1.6H257v4.5c0 1.9.7 2.1 1.6 2.1.4 0 1 0 1.3-.1v1.7zM271.8 586.6v9.8h-1.9v-1.7c-.6 1.2-2 1.9-3.4 1.9-3 0-5-2.4-5-5.1 0-2.8 2-5.1 5-5.1 1.4 0 2.8.8 3.4 1.9v-1.7h1.9zm-1.9 4.9c0-1.9-1.3-3.5-3.3-3.5-2 0-3.3 1.6-3.3 3.5s1.3 3.4 3.3 3.4c2 0 3.3-1.5 3.3-3.4zM277.5 596.4h-1.9v-15.1h1.9v7c.6-1.2 2-1.9 3.4-1.9 3 0 5 2.4 5 5.1 0 2.8-2 5.1-5 5.1-1.4 0-2.8-.8-3.4-1.9v1.7zm6.6-4.9c0-1.9-1.3-3.5-3.3-3.5-2 0-3.3 1.6-3.3 3.5s1.3 3.4 3.3 3.4c2 0 3.3-1.5 3.3-3.4zM298.5 586.6v9.8h-1.9v-1.7c-.6 1.2-2 1.9-3.4 1.9-3 0-5-2.4-5-5.1 0-2.8 2-5.1 5-5.1 1.4 0 2.8.8 3.4 1.9v-1.7h1.9zm-1.9 4.9c0-1.9-1.3-3.5-3.3-3.5-2 0-3.3 1.6-3.3 3.5s1.3 3.4 3.3 3.4c2 0 3.3-1.5 3.3-3.4zM309.4 593.7c0 2-1.6 2.9-3.8 2.9-2.2 0-4-1.2-4-3.5h1.8c0 1.5 1 2 2.3 2 1.2 0 2-.4 2-1.4 0-1.1-1.2-1.2-3.1-1.9-1.5-.5-2.7-.9-2.7-2.7 0-1.8 1.6-2.8 3.6-2.8 2.1 0 3.8 1.3 3.8 3.3h-1.8c0-1.1-.7-1.8-2-1.8-1 0-1.8.5-1.8 1.4 0 1 1 1.1 2.8 1.7 1.4.5 2.9.9 2.9 2.8zM313.6 592c.1 1.7.9 3.1 3 3.1 1.5 0 2.2-.7 2.5-1.6h1.9c-.3 1.7-1.9 3.1-4.4 3.1-3.3 0-4.9-2.3-4.9-5.1 0-3 1.7-5.1 4.8-5.1 2.5 0 4.5 1.9 4.5 4.4 0 .3 0 .7-.1 1.2h-7.3zm.1-1.4h5.7c0-1.7-1.2-2.8-2.8-2.8-1.7 0-2.9 1-2.9 2.8zM325.4 593.5c.8 0 1.5.7 1.5 1.5s-.7 1.5-1.5 1.5-1.5-.7-1.5-1.5c0-.9.6-1.5 1.5-1.5zM337.1 590.1c-.2-1.2-.9-2.1-2.7-2.1-2 0-3 1.6-3 3.5s1 3.4 3.1 3.4c1.6 0 2.3-.8 2.6-1.9h1.9c-.3 2-1.8 3.6-4.6 3.6-3.2 0-4.9-2.5-4.9-5.1s1.7-5.1 4.9-5.1 4.5 1.9 4.6 3.8h-1.9zM341.2 591.5c0-2.8 2-5.1 5.1-5.1 3.1 0 5.2 2.4 5.2 5.1 0 2.8-2 5.1-5.2 5.1-3 0-5.1-2.4-5.1-5.1zm8.5 0c0-1.9-1.3-3.5-3.3-3.5-2 0-3.3 1.6-3.3 3.5s1.3 3.4 3.3 3.4c2 0 3.3-1.5 3.3-3.4zM367.2 596.4v-5.6c0-1.8-.7-2.8-2.1-2.8-1.4 0-2.4 1.1-2.4 3.4v5h-1.9v-5.5c0-2-.7-2.9-2-2.9-1.4 0-2.4 1.1-2.4 3.4v5h-1.9v-9.8h1.9v1.7c.4-1.1 1.4-2 2.9-2 1.8 0 2.8.8 3.1 2.1.4-1.1 1.6-2.1 3.1-2.1 2.6 0 3.5 1.7 3.5 3.9v6.2h-1.8zM379.1 578.9l1.7.7-7.8 18.2-1.7-.7 7.8-18.2z"/>
                </g>
                <g class="st6">
                    <path class="st12" d="M54 618.6c0 2 1.4 3.2 3.2 3.2 1.9 0 3-1.2 3-2.7 0-1.6-.9-2.8-3.1-2.8H56v-1.7h1.1c2 0 2.7-1 2.7-2.5s-1.1-2.3-2.6-2.3c-2 0-2.8 1.1-2.8 2.7h-2c0-2.7 1.9-4.5 4.7-4.5 2.6 0 4.7 1.6 4.7 4.1 0 1.7-.9 2.9-2.3 3.4 1.6.5 2.7 1.7 2.7 3.6 0 2.6-2.2 4.5-5 4.5s-5.1-1.9-5.1-5H54zM75 613.2c0 1.1-.4 2.1-.9 3l-4.5 7.2h-2.3l3.4-5.3c-.2.2-.4.2-.7.2-3.3 0-5.4-2.2-5.4-5.1 0-2.8 2-5.1 5.2-5.1s5.2 2.3 5.2 5.1zm-8.3 0c0 1.8 1.3 3.4 3.2 3.4 1.9 0 3.2-1.5 3.2-3.4 0-1.8-1.2-3.4-3.2-3.4s-3.2 1.5-3.2 3.4zM83.4 618.5h-5.6v-10.2h2v8.5h3.6v-4.7h2v4.7h2.3v1.8h-2.3v4.8h-2v-4.9zM95.9 610c-.3-.1-.7-.2-1.1-.2-.8 0-1.7.1-1.7 1.9v1.9h2.8v1.6h-2.8v8.2h-1.9v-8.2h-2.1v-1.6h2.1v-1.7c0-3.6 2.2-3.7 3.3-3.7.6 0 1.1.1 1.3.3v1.5zM100.2 626c0 2.1-1.1 2.9-2.3 2.9-.6 0-1.2-.1-1.5-.3v-1.7c.5.1.6.1.9.1.6 0 1-.5 1-1.4v-12.1h1.9V626zm-1-17.6c.9 0 1.5.7 1.5 1.5s-.7 1.5-1.5 1.5-1.5-.7-1.5-1.5c0-.9.7-1.5 1.5-1.5zM111.1 620.7c0 2-1.6 2.9-3.8 2.9-2.2 0-4.1-1.2-4.1-3.5h1.8c0 1.5 1 2 2.3 2 1.2 0 2-.4 2-1.4 0-1.1-1.2-1.2-3.1-1.9-1.5-.5-2.7-.9-2.7-2.7 0-1.8 1.6-2.8 3.6-2.8 2.1 0 3.8 1.3 3.8 3.3h-1.8c0-1.1-.7-1.8-2-1.8-1 0-1.8.5-1.8 1.4 0 1 1 1.1 2.8 1.7 1.5.5 3 .9 3 2.8zM118.1 618.5l4.5 4.9h-2.4l-4.1-4.4v4.4h-1.9v-15.1h1.9v9.8l4.1-4.5h2.4l-4.5 4.9zM126 618.6c0 2 1.4 3.2 3.2 3.2 1.9 0 3-1.2 3-2.7 0-1.6-.9-2.8-3.1-2.8H128v-1.7h1.1c2 0 2.7-1 2.7-2.5s-1.1-2.3-2.6-2.3c-2 0-2.8 1.1-2.8 2.7h-2c0-2.7 1.9-4.5 4.7-4.5 2.6 0 4.7 1.6 4.7 4.1 0 1.7-.9 2.9-2.3 3.4 1.6.5 2.7 1.7 2.7 3.6 0 2.6-2.2 4.5-5 4.5s-5.1-1.9-5.1-5h1.9zM147 613.2c0 1.1-.4 2.1-.9 3l-4.5 7.2h-2.3l3.4-5.3c-.2.2-.4.2-.7.2-3.3 0-5.4-2.2-5.4-5.1 0-2.8 2-5.1 5.2-5.1s5.2 2.3 5.2 5.1zm-8.4 0c0 1.8 1.3 3.4 3.2 3.4 1.9 0 3.2-1.5 3.2-3.4 0-1.8-1.2-3.4-3.2-3.4-1.9 0-3.2 1.5-3.2 3.4zM148.5 620.5c.8 0 1.5.7 1.5 1.5s-.7 1.5-1.5 1.5-1.5-.7-1.5-1.5c0-.9.7-1.5 1.5-1.5zM154.5 619c.1 1.7.9 3.1 3 3.1 1.5 0 2.2-.7 2.5-1.6h1.9c-.3 1.7-1.9 3.1-4.4 3.1-3.3 0-4.9-2.3-4.9-5.1 0-3 1.7-5.1 4.8-5.1 2.5 0 4.5 1.9 4.5 4.4 0 .3 0 .7-.1 1.2h-7.3zm.1-1.4h5.7c0-1.7-1.2-2.8-2.8-2.8-1.7 0-2.9 1-2.9 2.8zM167.1 626c0 2.1-1.1 2.9-2.3 2.9-.6 0-1.2-.1-1.5-.3v-1.7c.5.1.6.1.9.1.6 0 1-.5 1-1.4v-12.1h1.9V626zm-1-17.6c.9 0 1.5.7 1.5 1.5s-.7 1.5-1.5 1.5-1.5-.7-1.5-1.5c0-.9.7-1.5 1.5-1.5zM171.9 618.6c0 2 1.4 3.2 3.2 3.2 1.9 0 3-1.2 3-2.7 0-1.6-.9-2.8-3.1-2.8h-1v-1.7h1.1c2 0 2.7-1 2.7-2.5s-1.1-2.3-2.6-2.3c-2 0-2.8 1.1-2.8 2.7h-2c0-2.7 1.9-4.5 4.7-4.5 2.6 0 4.7 1.6 4.7 4.1 0 1.7-.9 2.9-2.3 3.4 1.6.5 2.7 1.7 2.7 3.6 0 2.6-2.2 4.5-5 4.5s-5.1-1.9-5.1-5h1.8zM192.9 613.2c0 1.1-.4 2.1-.9 3l-4.5 7.2h-2.3l3.4-5.3c-.2.2-.4.2-.7.2-3.3 0-5.4-2.2-5.4-5.1 0-2.8 2-5.1 5.2-5.1s5.2 2.3 5.2 5.1zm-8.3 0c0 1.8 1.3 3.4 3.2 3.4 1.9 0 3.2-1.5 3.2-3.4 0-1.8-1.2-3.4-3.2-3.4s-3.2 1.5-3.2 3.4zM196.9 618.6c0 2 1.4 3.2 3.2 3.2 1.9 0 3-1.2 3-2.7 0-1.6-.9-2.8-3.1-2.8h-1.1v-1.7h1.1c2 0 2.7-1 2.7-2.5s-1.1-2.3-2.6-2.3c-2 0-2.8 1.1-2.8 2.7h-2c0-2.7 1.9-4.5 4.7-4.5 2.6 0 4.7 1.6 4.7 4.1 0 1.7-.9 2.9-2.3 3.4 1.6.5 2.7 1.7 2.7 3.6 0 2.6-2.2 4.5-5 4.5s-5.1-1.9-5.1-5h1.9zM214.7 605.9l1.7.7-7.8 18.2-1.7-.7 7.8-18.2zM221.9 615.9c1.6-.8 3.2-1.6 3.2-3.6 0-1.6-1.1-2.4-2.7-2.4s-2.8 1-2.8 3h-2c0-3 2.2-4.7 4.8-4.7 2.7 0 4.6 1.6 4.6 4.4 0 2.8-2.8 4.2-4.1 4.9-2.5 1.4-3.1 2.2-3.1 4.3h7.2v1.8h-9.4c0-5 1.6-6.4 4.3-7.7zM229.5 613.2c0-2.8 2-5.1 5.1-5.1 3.2 0 5.2 2.3 5.2 5.1v5.3c0 2.8-2 5.1-5.2 5.1-3.1 0-5.1-2.4-5.1-5.1v-5.3zm8.4 0c0-1.8-1.3-3.4-3.2-3.4-1.9 0-3.2 1.5-3.2 3.4v5.3c0 1.8 1.2 3.4 3.2 3.4s3.2-1.6 3.2-3.4v-5.3zM252.6 613.2c0 1.1-.4 2.1-.9 3l-4.5 7.2h-2.3l3.4-5.3c-.2.2-.4.2-.7.2-3.3 0-5.4-2.2-5.4-5.1 0-2.8 2-5.1 5.2-5.1 3.1 0 5.2 2.3 5.2 5.1zm-8.4 0c0 1.8 1.3 3.4 3.2 3.4 1.9 0 3.2-1.5 3.2-3.4 0-1.8-1.2-3.4-3.2-3.4-1.9 0-3.2 1.5-3.2 3.4zM259.1 615.9c1.6-.8 3.2-1.6 3.2-3.6 0-1.6-1.1-2.4-2.7-2.4s-2.8 1-2.8 3h-2c0-3 2.2-4.7 4.8-4.7 2.7 0 4.6 1.6 4.6 4.4 0 2.8-2.8 4.2-4.1 4.9-2.5 1.4-3.1 2.2-3.1 4.3h7.2v1.8h-9.4c0-5 1.7-6.4 4.3-7.7zM276.8 613.2c0 1.1-.4 2.1-.9 3l-4.5 7.2h-2.3l3.4-5.3c-.2.2-.4.2-.7.2-3.3 0-5.4-2.2-5.4-5.1 0-2.8 2-5.1 5.2-5.1s5.2 2.3 5.2 5.1zm-8.3 0c0 1.8 1.3 3.4 3.2 3.4 1.9 0 3.2-1.5 3.2-3.4 0-1.8-1.2-3.4-3.2-3.4s-3.2 1.5-3.2 3.4zM285.2 618.5h-5.6v-10.2h2v8.5h3.6v-4.7h2v4.7h2.3v1.8h-2.3v4.8h-2v-4.9zM291.7 619.1c0-1.6.8-3.2 2.5-3.6-1.5-.5-2.2-1.9-2.2-3.3 0-2.3 1.8-4.2 4.7-4.2 3 0 4.7 1.9 4.7 4.2 0 1.4-.6 2.7-2.2 3.3 1.7.5 2.5 2.1 2.5 3.6 0 2.4-1.9 4.5-5.1 4.5-3 0-4.9-2-4.9-4.5zm8.1 0c0-1.5-1.1-2.7-3.1-2.7s-3.1 1.2-3.1 2.7c0 1.5 1.2 2.7 3.1 2.7 2 0 3.1-1.2 3.1-2.7zm-.3-6.8c0-1.4-1-2.5-2.8-2.5-1.7 0-2.8 1.1-2.8 2.5s1 2.5 2.8 2.5c1.8 0 2.8-1.1 2.8-2.5z"/>
                </g>
                <ellipse id="Oval-10-Copy-3" class="st3" cx="16.3" cy="419.1" rx="6.8" ry="6.8"/>
                <ellipse id="Oval-10-Copy-4" class="st4" cx="37.2" cy="419.1" rx="6.8" ry="6.8"/>
                <ellipse id="Oval-10-Copy-5" class="st5" cx="59.1" cy="419.1" rx="6.8" ry="6.8"/>
            </g>
        </g>
    </g>
</svg>
