<svg id="Layer_1" xmlns="http://www.w3.org/2000/svg" viewBox="0 0 710 472.3">
    <style>
        .st0{fill:#ffbb74}.st1{fill:#5f5f9e}.st2,.st3{fill:#131335}.st3,.st4{opacity:.5}.st5{fill:#4747a1}
    </style>
    <title>
        3_2-oddchange
    </title>
    <path class="st0" d="M498.6 96.6c0 53.4-43.2 96.6-96.6 96.6s-96.6-43.3-96.6-96.6C305.5 43.3 348.7 0 402 0c53.4 0 96.6 43.3 96.6 96.6"/>
    <path class="st1" d="M651.7 173.4c-18.7-11.5-40.4-17-63.6-10.8-17.3 4.6-24.3 12.5-43.2 5.6-14.7-5.4-22.7-18.1-36.4-24.7-29-14-60.4-8.4-84.5 8.5-29.8 20.9-51.4 24.3-82.8 1.3-23.3-17.1-39.9-39.1-72.7-46.3-37.6-8.2-63.5 3.6-82.5 28.1-23.8 30.8-34 34.2-80.5 31-43.4-3-36.6 12.8-64.4 16.3-17.2 2.1-29.8 4.5-39.6 8.4-2.6 1-1.2 3.3 1.9 3.3h704.5c2.5 0 3.2-1.9.8-2.4-35.2-8-46.9-12.9-57-18.3z"/>
    <path class="st2" d="M702.3 193.9h5.5c2.5 0 3.2-1.9.8-2.4-8.6-1.9-15.8-3.6-21.9-5.2 5.4 2.1 10.6 4.7 15.6 7.6z"/>
    <path class="st3" d="M645.9 186.2c-25-2.8-50.2 1.1-75.1 3.2-24.7 2.1-49.6 3.5-74.3.9-24.4-2.5-48.5-7.3-72.9-10.2-12.4-1.5-24.9-2.5-37.3-2.2-12.4.3-24.7 1.7-37 2.7-24.2 2-48.4 1.3-72.5-1.2-24.4-2.5-48.8-8.7-73.3-9.3-12.2-.3-23.5 1.2-35 5.4-11 3.9-22.8 3.6-34.1 6.1-11.5 2.6-22.9 5.8-34.8 5.8-12 0-23.9-2.2-35.8-3.7-8.5-1.1-17-1.6-25.4-1.2-15.8 2-27.7 4.4-37 8-2.6 1-1.2 3.3 1.9 3.3h675.8c-10.8-3.8-22-6.3-33.2-7.6z"/>
    <path class="st1" d="M331.3 98.9c8.4-2.2 16.1-5.6 22.6-10 8.8-5.9 19-13.3 23.7-15.5 15.8-7.5 32.9-4.5 46 4.5 16.2 11.2 28 13 45.1.7 12.7-9.2 21.7-21 39.6-24.8 20.5-4.4 34.6 1.9 44.9 15.1 13 16.5 18.5 18.3 43.8 16.6 23.6-1.6 19.9 6.9 35.1 8.7 9.3 1.1 16.2 2.4 21.6 4.5 1.4.5.7 1.8-1 1.8H331.8c-1.3-.2-1.6-1.3-.5-1.6z"/>
    <g class="st4">
        <path class="st2" d="M602.7 100.1c-8-1.8-16.3-2.3-24.4-3.7-8.1-1.3-16-3.5-24.1-5.3-16-3.6-31.4-3-47.4.1-13.3 2.6-26.5 5.7-39.9 5.8-1.8.1-3.6.2-5.5.3-11.5.2-22.9-1.3-34.2-3.2-11.7-2-23.4-5.1-35.2-6.4-12.3-1.3-23.3 1.1-34.9 4.9-7.6 2.5-15.1 5-22.6 7.7h269.3c-.3-.1-.7-.2-1.1-.2z"/>
    </g>
    <path class="st5" d="M40.7 439.9c-.2 0-.4 0-.6-.1-.6-.3-.9-1.1-.5-1.7l11.2-21.6c.3-.6 1.1-.9 1.7-.5s.9 1.1.5 1.7l-11.2 21.6c-.2.4-.6.6-1.1.6zm22.8-44.1c-.2 0-.4 0-.6-.1-.6-.3-.9-1.1-.5-1.7l34.8-67.5c.3-.6 1.1-.9 1.7-.5.6.3.9 1.1.5 1.7l-34.8 67.5c-.2.3-.7.6-1.1.6zm46.4-90c-.2 0-.4 0-.6-.1-.6-.3-.9-1.1-.5-1.7l34.8-67.5c.3-.6 1.1-.9 1.7-.5.6.3.9 1.1.5 1.7L111 305.1c-.2.4-.6.7-1.1.7zM56.1 469.3c-.2 0-.4 0-.6-.1-.6-.3-.9-1.1-.5-1.7l11.2-21.6c.3-.6 1.1-.9 1.7-.5.6.3.9 1.1.5 1.7l-11.2 21.6c-.2.3-.7.6-1.1.6zm22.7-44.2c-.2 0-.4 0-.6-.1-.6-.3-.9-1.1-.5-1.7l34.8-67.5c.3-.6 1.1-.9 1.7-.5.6.3.9 1.1.5 1.7l-34.8 67.5c-.2.4-.6.6-1.1.6zm46.4-90c-.2 0-.4 0-.6-.1-.6-.3-.9-1.1-.5-1.7l34.8-67.5c.3-.6 1.1-.9 1.7-.5.6.3.9 1.1.5 1.7l-34.8 67.5c-.2.4-.6.6-1.1.6zM108 439.9c-.2 0-.4 0-.6-.1-.6-.3-.9-1.1-.5-1.7l11.2-21.6c.3-.6 1.1-.9 1.7-.5s.9 1.1.5 1.7l-11.2 21.6c-.2.4-.6.6-1.1.6zm22.8-44.1c-.2 0-.4 0-.6-.1-.6-.3-.9-1.1-.5-1.7l34.8-67.5c.3-.6 1.1-.9 1.7-.5.6.3.9 1.1.5 1.7l-34.8 67.5c-.2.3-.6.6-1.1.6zm46.4-90c-.2 0-.4 0-.6-.1-.6-.3-.9-1.1-.5-1.7l34.8-67.5c.3-.6 1.1-.9 1.7-.5.6.3.9 1.1.5 1.7l-34.8 67.5c-.2.3-.6.6-1.1.6zM123.4 469.3c-.2 0-.4 0-.6-.1-.6-.3-.9-1.1-.5-1.7l11.2-21.6c.3-.6 1.1-.9 1.7-.5.6.3.9 1.1.5 1.7l-11.2 21.6c-.2.3-.7.6-1.1.6zm22.7-44.2c-.2 0-.4 0-.6-.1-.6-.3-.9-1.1-.5-1.7l34.8-67.5c.3-.6 1.1-.9 1.7-.5.6.3.9 1.1.5 1.7l-34.8 67.5c-.2.4-.6.6-1.1.6zm46.4-90c-.2 0-.4 0-.6-.1-.6-.3-.9-1.1-.5-1.7l34.8-67.5c.3-.6 1.1-.9 1.7-.5.6.3.9 1.1.5 1.7l-34.8 67.5c-.2.4-.6.6-1.1.6zM175.3 439.9c-.2 0-.4 0-.6-.1-.6-.3-.9-1.1-.5-1.7l11.2-21.6c.3-.6 1.1-.9 1.7-.5.6.3.9 1.1.5 1.7l-11.2 21.6c-.2.4-.6.6-1.1.6zm22.8-44.1c-.2 0-.4 0-.6-.1-.6-.3-.9-1.1-.5-1.7l34.8-67.5c.3-.6 1.1-.9 1.7-.5.6.3.9 1.1.5 1.7l-34.8 67.5c-.2.3-.6.6-1.1.6zm46.4-90c-.2 0-.4 0-.6-.1-.6-.3-.9-1.1-.5-1.7l34.8-67.5c.3-.6 1.1-.9 1.7-.5.6.3.9 1.1.5 1.7l-34.8 67.5c-.2.3-.6.6-1.1.6zM190.7 469.3c-.2 0-.4 0-.6-.1-.6-.3-.9-1.1-.5-1.7l11.2-21.6c.3-.6 1.1-.9 1.7-.5.6.3.9 1.1.5 1.7l-11.2 21.6c-.2.3-.7.6-1.1.6zm22.7-44.2c-.2 0-.4 0-.6-.1-.6-.3-.9-1.1-.5-1.7l34.8-67.5c.3-.6 1.1-.9 1.7-.5.6.3.9 1.1.5 1.7l-34.8 67.5c-.2.4-.6.6-1.1.6zm46.4-90c-.2 0-.4 0-.6-.1-.6-.3-.9-1.1-.5-1.7l34.8-67.5c.3-.6 1.1-.9 1.7-.5.6.3.9 1.1.5 1.7L261 334.5c-.3.4-.7.6-1.2.6zM242.7 439.9c-.2 0-.4 0-.6-.1-.6-.3-.9-1.1-.5-1.7l11.2-21.6c.3-.6 1.1-.9 1.7-.5.6.3.9 1.1.5 1.7l-11.2 21.6c-.2.4-.7.6-1.1.6zm22.7-44.1c-.2 0-.4 0-.6-.1-.6-.3-.9-1.1-.5-1.7l34.8-67.5c.3-.6 1.1-.9 1.7-.5.6.3.9 1.1.5 1.7l-34.8 67.5c-.2.3-.6.6-1.1.6zm46.4-90c-.2 0-.4 0-.6-.1-.6-.3-.9-1.1-.5-1.7l34.8-67.5c.3-.6 1.1-.9 1.7-.5.6.3.9 1.1.5 1.7l-34.8 67.5c-.2.3-.6.6-1.1.6zM258 469.3c-.2 0-.4 0-.6-.1-.6-.3-.9-1.1-.5-1.7l11.2-21.6c.3-.6 1.1-.9 1.7-.5.6.3.9 1.1.5 1.7l-11.2 21.6c-.2.3-.7.6-1.1.6zm22.7-44.2c-.2 0-.4 0-.6-.1-.6-.3-.9-1.1-.5-1.7l34.8-67.5c.3-.6 1.1-.9 1.7-.5.6.3.9 1.1.5 1.7l-34.8 67.5c-.2.4-.6.6-1.1.6zm46.4-90c-.2 0-.4 0-.6-.1-.6-.3-.9-1.1-.5-1.7l34.8-67.5c.3-.6 1.1-.9 1.7-.5.6.3.9 1.1.5 1.7l-34.8 67.5c-.2.4-.6.6-1.1.6zM310 439.9c-.2 0-.4 0-.6-.1-.6-.3-.9-1.1-.5-1.7l11.2-21.6c.3-.6 1.1-.9 1.7-.5.6.3.9 1.1.5 1.7l-11.2 21.6c-.2.4-.7.6-1.1.6zm22.7-44.1c-.2 0-.4 0-.6-.1-.6-.3-.9-1.1-.5-1.7l34.8-67.5c.3-.6 1.1-.9 1.7-.5.6.3.9 1.1.5 1.7l-34.8 67.5c-.2.3-.6.6-1.1.6zm46.4-90c-.2 0-.4 0-.6-.1-.6-.3-.9-1.1-.5-1.7l34.8-67.5c.3-.6 1.1-.9 1.7-.5.6.3.9 1.1.5 1.7l-34.8 67.5c-.2.3-.6.6-1.1.6zM325.3 469.3c-.2 0-.4 0-.6-.1-.6-.3-.9-1.1-.5-1.7l11.2-21.6c.3-.6 1.1-.9 1.7-.5.6.3.9 1.1.5 1.7l-11.2 21.6c-.2.3-.7.6-1.1.6zm22.7-44.2c-.2 0-.4 0-.6-.1-.6-.3-.9-1.1-.5-1.7l34.8-67.5c.3-.6 1.1-.9 1.7-.5.6.3.9 1.1.5 1.7l-34.8 67.5c-.2.4-.6.6-1.1.6zm46.4-90c-.2 0-.4 0-.6-.1-.6-.3-.9-1.1-.5-1.7l34.8-67.5c.3-.6 1.1-.9 1.7-.5.6.3.9 1.1.5 1.7l-34.8 67.5c-.2.4-.6.6-1.1.6zM377.3 439.9c-.2 0-.4 0-.6-.1-.6-.3-.9-1.1-.5-1.7l11.2-21.6c.3-.6 1.1-.9 1.7-.5.6.3.9 1.1.5 1.7l-11.2 21.6c-.2.4-.7.6-1.1.6zm22.7-44.1c-.2 0-.4 0-.6-.1-.6-.3-.9-1.1-.5-1.7l34.8-67.5c.3-.6 1.1-.9 1.7-.5.6.3.9 1.1.5 1.7l-34.8 67.5c-.2.3-.6.6-1.1.6zm46.4-90c-.2 0-.4 0-.6-.1-.6-.3-.9-1.1-.5-1.7l34.8-67.5c.3-.6 1.1-.9 1.7-.5.6.3.9 1.1.5 1.7l-34.8 67.5c-.2.3-.6.6-1.1.6zM392.6 469.3c-.2 0-.4 0-.6-.1-.6-.3-.9-1.1-.5-1.7l11.2-21.6c.3-.6 1.1-.9 1.7-.5.6.3.9 1.1.5 1.7l-11.2 21.6c-.2.3-.7.6-1.1.6zm22.7-44.2c-.2 0-.4 0-.6-.1-.6-.3-.9-1.1-.5-1.7l34.8-67.5c.3-.6 1.1-.9 1.7-.5.6.3.9 1.1.5 1.7l-34.8 67.5c-.2.4-.6.6-1.1.6zm46.4-90c-.2 0-.4 0-.6-.1-.6-.3-.9-1.1-.5-1.7l34.8-67.5c.3-.6 1.1-.9 1.7-.5.6.3.9 1.1.5 1.7l-34.8 67.5c-.1.4-.6.6-1.1.6zM444.6 439.9c-.2 0-.4 0-.6-.1-.6-.3-.9-1.1-.5-1.7l11.2-21.6c.3-.6 1.1-.9 1.7-.5.6.3.9 1.1.5 1.7l-11.2 21.6c-.2.4-.7.6-1.1.6zm22.7-44.1c-.2 0-.4 0-.6-.1-.6-.3-.9-1.1-.5-1.7l34.8-67.5c.3-.6 1.1-.9 1.7-.5.6.3.9 1.1.5 1.7l-34.8 67.5c-.2.3-.6.6-1.1.6zm46.4-90c-.2 0-.4 0-.6-.1-.6-.3-.9-1.1-.5-1.7l34.8-67.5c.3-.6 1.1-.9 1.7-.5.6.3.9 1.1.5 1.7l-34.8 67.5c-.2.3-.6.6-1.1.6zM459.9 469.3c-.2 0-.4 0-.6-.1-.6-.3-.9-1.1-.5-1.7l11.2-21.6c.3-.6 1.1-.9 1.7-.5.6.3.9 1.1.5 1.7L461 468.6c-.2.4-.6.7-1.1.7zm22.7-44.2c-.2 0-.4 0-.6-.1-.6-.3-.9-1.1-.5-1.7l34.8-67.5c.3-.6 1.1-.9 1.7-.5.6.3.9 1.1.5 1.7l-34.8 67.5c-.2.4-.6.6-1.1.6zm46.5-90c-.2 0-.4 0-.6-.1-.6-.3-.9-1.1-.5-1.7l34.8-67.5c.3-.6 1.1-.9 1.7-.5.6.3.9 1.1.5 1.7l-34.8 67.5c-.2.4-.7.6-1.1.6zM511.9 439.9c-.2 0-.4 0-.6-.1-.6-.3-.9-1.1-.5-1.7l11.2-21.6c.3-.6 1.1-.9 1.7-.5.6.3.9 1.1.5 1.7L513 439.2c-.2.5-.7.7-1.1.7zm22.7-44.1c-.2 0-.4 0-.6-.1-.6-.3-.9-1.1-.5-1.7l34.8-67.5c.3-.6 1.1-.9 1.7-.5.6.3.9 1.1.5 1.7l-34.8 67.5c-.2.3-.6.6-1.1.6zm46.4-90c-.2 0-.4 0-.6-.1-.6-.3-.9-1.1-.5-1.7l34.8-67.5c.3-.6 1.1-.9 1.7-.5.6.3.9 1.1.5 1.7l-34.8 67.5c-.2.3-.6.6-1.1.6z"/>
    <g>
        <path class="st5" d="M527.2 469.3c-.2 0-.4 0-.6-.1-.6-.3-.9-1.1-.5-1.7l11.2-21.6c.3-.6 1.1-.9 1.7-.5.6.3.9 1.1.5 1.7l-11.2 21.6c-.2.3-.6.6-1.1.6zm22.8-44.2c-.2 0-.4 0-.6-.1-.6-.3-.9-1.1-.5-1.7l34.8-67.5c.3-.6 1.1-.9 1.7-.5.6.3.9 1.1.5 1.7l-34.8 67.5c-.2.4-.7.6-1.1.6zm46.4-90c-.2 0-.4 0-.6-.1-.6-.3-.9-1.1-.5-1.7l34.8-67.5c.3-.6 1.1-.9 1.7-.5s.9 1.1.5 1.7l-34.8 67.5c-.2.4-.7.6-1.1.6z"/>
    </g>
</svg>
