<?xml version="1.0" encoding="UTF-8"?>
<svg xmlns="http://www.w3.org/2000/svg" xmlns:xlink="http://www.w3.org/1999/xlink" width="799px" height="537px" viewBox="0 0 799 537">
  <!-- Generator: Sketch 50.2 (55047) - http://www.bohemiancoding.com/sketch -->
  <title>exercise20</title>
  <desc>Created with Sketch.</desc>
  <defs>
    <polygon id="path-1" points="0.114321788 0.483210169 236.984042 0.483210169 236.984042 310.491446 0.114321788 310.491446"></polygon>
    <polygon id="path-3" points="0 0.755738693 102.384081 0.755738693 102.384081 70.791044 0 70.791044"></polygon>
    <polygon id="path-5" points="0.0905780324 0.0302855334 200.551824 0.0302855334 200.551824 428.465741 0.0905780324 428.465741"></polygon>
  </defs>
  <g id="Page-1" stroke="none" stroke-width="1" fill="none" fill-rule="evenodd">
    <g id="exercise20">
      <g id="Group">
        <g id="Page-1">
          <g id="Group-46" transform="translate(0.000000, 0.011933)">
            <g id="Group-3" transform="translate(561.558675, 226.269070)">
              <g id="Fill-1-Clipped">
                <g>
                  <mask id="mask-2" fill="white">
                    <use xlink:href="#path-1"></use>
                  </mask>
                  <g id="path-1"></g>
                  <path d="M218.332003,28.6813645 C215.834511,49.4616644 206.981482,68.5411752 196.580712,86.6188168 C185.244011,106.320568 173.036705,125.549667 161.206285,144.956011 C155.260295,154.710722 149.325613,164.472976 143.36706,174.218887 C138.483887,182.204928 133.453728,190.251308 126.897185,196.995383 C113.459978,210.817909 94.6823102,215.863709 76.9272571,221.661226 C64.2563828,225.799436 50.9925428,231.23995 41.8631314,240.912953 C43.8530843,245.572838 43.0339875,252.056704 39.2475494,257.671948 C36.7890028,261.318651 33.5188971,263.933316 30.1420074,265.300987 C20.4058111,280.555294 11.0276556,296.084894 0.114321788,310.491949 L236.984042,310.491949 L236.984042,0.483210169 C229.883529,9.3403872 220.935022,15.670893 218.732757,27.6078434 C218.65738,28.020156 218.510395,28.3671019 218.332003,28.6813645" id="Fill-1" fill="#E4E3EC" fill-rule="nonzero" mask="url(#mask-2)"></path>
                </g>
              </g>
            </g>
            <path d="M91.062204,125.350928 C87.0144589,123.910348 83.215458,121.875183 79.2141954,120.330268 C64.180252,114.526467 47.8096232,114.278828 33.183972,106.995478 C21.1462645,101.000605 11.3560481,91.5764978 1.37110769,82.6753241 L1.37110769,391.946174 C15.2706271,393.132829 29.2040662,392.929187 42.8033339,389.750107 C60.1915523,385.683549 76.1111754,376.611416 88.4541597,363.854869 C88.6400896,360.455805 89.8410966,356.795274 92.0998941,353.446492 C95.650151,348.180708 100.88634,345.045624 105.700418,344.757759 C113.318521,326.61098 125.182861,308.880284 146.709277,308.642702 C156.826127,308.529567 165.151517,313.972595 172.442986,320.462747 C181.386467,328.426161 189.123917,335.944579 200.646548,340.116729 C213.322447,344.707477 226.789805,347.437791 239.821233,350.828056 C252.009694,353.999594 267.610221,361.363395 277.475815,350.070054 C284.299946,342.258743 288.16553,333.031993 296.685644,326.619779 C304.818823,320.497944 314.940698,317.00083 325.129156,316.862554 C335.517364,316.721765 345.257329,320.247791 353.219653,326.22758 C355.567647,319.418138 357.046292,312.528244 356.327698,305.24238 C339.742245,284.499792 308.222094,283.818471 284.350198,289.333151 C271.484599,292.303561 260.451919,298.972213 248.027276,302.980947 C235.326251,307.077674 223.381508,303.57176 213.671694,294.729668 C203.446804,285.416182 198.172926,272.48239 190.253315,261.424118 C181.352548,248.993147 168.75705,243.093809 154.567329,238.579741 C142.148968,234.628832 129.156485,231.43341 118.020789,224.390157 C107.343637,217.636025 98.642618,207.694013 93.3373332,196.224686 C83.0533974,173.992492 86.3963675,148.263185 100.650159,128.870669 C99.9303085,128.406817 99.2657346,127.901483 98.6551808,127.358437 C96.0747747,126.873216 93.5320572,126.230863 91.062204,125.350928" id="Fill-4" fill="#E4E3EC" fill-rule="nonzero"></path>
            <path d="M113.105957,367.627654 C110.414998,371.618789 106.754189,374.383043 103.044384,375.616209 C88.7378285,390.832804 70.546845,402.112317 50.0782197,407.375587 C34.0430186,411.49997 17.6924902,411.966335 1.37085643,410.690429 L1.37085643,514.012429 C25.3533063,496.12963 49.1963088,478.059531 73.1749899,460.172961 C92.2667285,445.931837 117.858477,425.399176 141.330876,443.449162 C151.729134,451.446517 159.363568,463.524257 174.196506,461.525547 C188.974168,459.534379 199.274435,447.757074 209.132491,437.704442 C228.81217,417.634376 253.287083,405.27757 278.603706,393.795672 C298.945447,384.570179 321.402769,376.391809 344.033458,375.437708 C343.983206,375.317031 343.925417,375.201383 343.876422,375.080706 C339.169128,363.39768 343.42416,350.167224 348.324922,338.564649 C349.025928,336.907857 349.720652,335.25735 350.396533,333.609357 C338.110081,323.696257 320.447993,321.299062 305.572342,329.766554 C296.424086,334.974513 291.946692,343.128999 285.984371,351.337538 C281.158986,357.981049 275.082344,363.373796 266.505697,363.882901 C255.13382,364.555423 242.87375,359.416601 231.999361,356.586981 C220.883766,353.695765 209.46415,351.285999 198.642525,347.389143 C189.477937,344.089386 181.701543,339.271112 174.535703,332.700509 C167.278153,326.044427 159.848493,317.452488 149.44898,316.27966 C130.487894,314.142674 119.661244,330.804877 112.866007,346.980602 C117.946417,351.185435 118.131091,360.174602 113.105957,367.627654" id="Fill-6" fill="#E4E3EC" fill-rule="nonzero"></path>
            <path d="M576.138472,480.861622 C576.186211,477.271486 577.385962,473.338175 579.800538,469.759353 C584.55934,462.701015 592.343272,459.467881 598.080718,461.809766 C606.829475,452.682323 618.912409,446.789271 630.837051,442.559296 C648.997884,436.11817 669.16877,432.289195 683.126078,417.931165 C690.339657,410.510797 695.53062,401.417294 700.883644,392.63554 L718.177641,364.266427 C729.560825,345.594201 741.324662,327.097961 752.183976,308.113986 C762.599822,289.904354 771.570941,270.524409 772.888783,249.294085 C772.903858,249.046446 772.950341,248.81892 773.001848,248.596422 C773.263155,228.396879 769.594808,208.497771 763.253089,189.327753 C763.20535,189.298841 763.160124,189.283756 763.112385,189.253587 C752.970409,182.564822 746.555826,200.868733 741.716623,206.382156 C736.680183,212.123105 729.59977,214.384538 722.148753,214.632177 C704.734152,215.21042 683.182611,206.981769 675.675061,228.95878 C669.460227,247.153328 678.656222,266.752 670.671285,284.867354 C665.007959,297.713151 653.81573,307.330844 640.786815,312.062382 C640.579529,317.575805 636.02927,323.335609 629.051872,326.152659 C625.049353,327.769226 620.955126,328.124971 617.43502,327.42228 L583.884715,343.885869 C572.9651,349.243418 561.993977,354.623594 550.398482,358.297952 C513.025307,370.144395 471.585543,363.612761 434.501314,376.334111 C418.506314,381.821136 403.600511,390.812817 386.932143,393.647466 C373.390665,395.950382 357.610489,392.612913 348.775048,382.868259 C320.058922,382.779008 292.065159,395.390995 266.712104,407.596954 C254.434447,413.506348 242.31885,419.972615 231.333908,428.085618 C220.053739,436.416091 211.434379,447.372542 200.807478,456.394393 C191.684348,464.13908 180.181817,470.323768 167.84637,469.197451 C156.335046,468.147814 148.876491,460.247252 140.816177,452.862081 C135.263404,447.774798 129.405355,444.095412 121.641524,443.905597 C114.455583,443.728353 107.597532,446.185887 101.382698,449.616377 C89.2093116,456.336569 78.2708522,465.705365 67.1640507,474.023268 C45.2230613,490.456687 23.3624741,506.998213 1.37123332,523.366266 L1.37123332,536.760138 L537.181124,536.760138 C551.858283,519.216743 563.713829,500.003985 576.138472,480.861622" id="Fill-8" fill="#E4E3EC" fill-rule="nonzero"></path>
            <path d="M33.8902545,85.4757809 C48.4757046,95.4982436 65.2282436,95.8414184 81.5423397,101.200224 C89.2383318,103.72941 95.2747735,106.72119 102.384081,108.501173 C105.195643,107.216467 108.562483,106.541431 112.154197,106.711133 C118.703202,107.021625 124.248437,110.047345 126.902964,114.218238 C137.005995,111.26417 146.885408,107.695404 156.357784,102.933697 C170.066349,96.0425465 182.257323,86.2626944 196.212119,79.9233893 C220.475976,68.8978004 249.517479,73.7148175 269.408214,91.1853038 C269.626807,91.316037 269.836607,91.4832247 270.042637,91.6843528 C276.969784,95.3800809 284.705977,101.045607 291.869305,94.2990176 C304.038922,82.8372321 290.066538,64.6703399 282.342908,55.4083927 C270.722287,47.8384353 258.800157,44.9836738 244.904407,44.0496854 C230.998606,43.116954 217.379238,41.7078005 203.900573,37.976875 C179.023649,31.09201 153.014814,19.2204261 134.832625,0.241479379 L1.37135895,0.241479379 L1.37135895,58.3285207 C12.6942411,66.792241 22.2281758,77.4620847 33.8902545,85.4757809" id="Fill-10" fill="#E4E3EC" fill-rule="nonzero"></path>
            <path d="M638.141711,304.987576 C655.254803,298.756378 666.996028,283.522184 667.023666,264.530667 C667.051304,246.887964 662.365367,226.282394 677.23725,212.764075 C692.18451,199.176617 710.845343,210.813132 727.842857,206.375745 C738.443376,203.60772 739.840364,192.105709 747.203441,185.562761 C752.621791,180.749515 760.556477,178.547163 766.91704,182.740683 C767.018798,182.808564 767.094175,182.887758 767.185884,182.95941 C767.540156,183.028548 767.888147,183.150482 768.217293,183.332754 C776.871829,188.129658 775.320319,168.74217 774.448458,165.257626 C773.059009,159.706492 770.350462,154.66572 767.229854,149.916583 C761.192156,150.448316 756.025063,147.580984 752.090383,142.717456 C746.991129,136.413348 746.316505,128.575639 743.733586,121.172869 C738.00619,104.759562 720.414454,107.174356 706.410663,104.22783 C691.854107,101.166912 683.675702,91.2965527 680.160621,77.1509647 C677.870417,67.9330142 677.181973,54.5353712 671.351562,45.8768081 C667.465878,49.0948571 661.058832,50.1696352 654.621636,48.1809815 C654.137967,48.0313925 653.67063,47.8616907 653.207061,47.6844466 C651.390475,47.1288303 649.534945,46.1181618 647.821374,45.8529242 C644.710817,45.3727309 641.538701,45.5097494 638.443219,46.0578234 C632.541199,47.1024323 626.894205,49.3802076 621.50475,51.9395621 C609.631615,57.5812043 598.139135,64.034901 586.322533,69.8047623 C560.081286,82.6166198 533.073706,92.375102 504.234464,97.366849 C475.515826,102.338483 446.321056,103.577935 417.224277,103.824317 C387.377496,104.076984 356.970413,102.227863 328.055794,111.043557 C316.149996,114.673919 302.210276,120.670049 289.558246,117.284812 C279.1424,114.496675 271.639876,105.71115 265.221524,97.5792906 C264.991624,97.4007894 264.789363,97.2084607 264.626046,97.0023044 C254.348391,87.7981815 241.154903,82.3526392 227.363424,81.5770391 C213.227723,80.7825833 200.741523,85.2388269 188.811856,92.524691 C176.926159,99.785414 165.373377,107.376741 152.589437,113.024669 C144.71254,116.504184 136.609512,119.279751 128.374574,121.659348 C127.086884,127.905631 119.678581,132.452382 110.957462,132.038813 C109.919771,131.989788 108.912232,131.861569 107.932331,131.683068 C88.4674763,156.069845 91.2300435,192.012687 115.010232,212.79173 C134.941168,230.208163 164.287948,228.561427 184.92994,244.801261 C195.407344,253.044997 201.235242,265.01086 208.223947,276.042734 C215.602099,287.690563 226.849604,299.847497 242.031789,296.790351 C254.320753,294.316476 265.324539,286.640926 277.496669,283.285858 C288.347189,280.296593 299.731629,278.715223 310.994209,278.940235 C329.692731,279.313579 348.337233,284.990419 360.827203,299.054298 C369.956614,295.623808 379.190297,298.486112 388.049607,302.831735 C397.354898,307.396085 405.315966,314.233182 413.85995,320.101093 C453.547198,347.360231 507.465625,352.433686 551.536046,333.058769 C572.190602,323.977837 591.863999,309.706543 613.582627,306.23457 C615.277353,304.797762 617.289919,303.559567 619.567561,302.639406 C626.756014,299.736877 634.257282,300.868222 638.141711,304.987576" id="Fill-12" fill="#E4E3EC" fill-rule="nonzero"></path>
            <path d="M499.986091,75.8490376 C528.094175,69.4267672 554.520096,57.9184709 580.055312,44.7382976 C592.104326,38.5209264 604.135752,32.1828783 616.838034,27.3759176 C626.829256,23.5959671 637.809172,19.7619634 648.609441,21.173631 C651.176028,21.5092635 654.188595,21.996999 656.836841,22.99384 C658.555436,23.0981752 660.324283,23.4048955 662.098156,23.9529694 C670.047917,26.4092459 675.34692,32.6957549 675.039131,38.7446813 C680.041651,44.5409407 682.882108,52.4125902 684.465025,60.0064316 C687.477593,74.4574829 688.526589,91.5068573 705.280384,96.2044546 C717.313067,99.5796348 731.418617,97.5293857 741.898533,105.47143 C747.331958,109.587013 750.036737,115.590686 751.845785,122.001643 C753.800562,128.926733 756.558104,143.834094 766.581989,142.460138 C766.931236,142.226326 767.330734,142.028969 767.819428,141.912064 C778.446329,139.342653 788.274234,140.010146 796.708921,147.872997 C797.347113,148.468839 797.957666,149.087307 798.541838,149.727146 L798.541838,0.24248502 L306.617695,0.24248502 C313.454389,13.0028035 321.621487,25.639931 331.347633,36.5712412 C378.160521,75.1878291 440.895545,89.3497588 499.986091,75.8490376" id="Fill-14" fill="#E4E3EC" fill-rule="nonzero"></path>
            <path d="M252.163966,37.0768269 C265.343635,38.4005009 276.974306,42.4771154 287.891409,50.0583862 C295.314788,54.6038804 304.017063,59.8369812 313.003258,57.7326789 C322.510811,55.5064426 325.066091,46.1250756 322.088699,37.7732328 C322.02086,37.5859323 321.981915,37.4061741 321.944227,37.2276729 C312.573609,25.852624 304.675355,12.9904844 298.108762,0.241479379 L145.750481,0.241479379 C163.894982,16.3706929 188.093513,26.4660646 211.150082,32.0687381 C224.721711,35.3659813 238.356155,35.6903003 252.163966,37.0768269" id="Fill-16" fill="#E4E3EC" fill-rule="nonzero"></path>
            <path d="M67.1639251,474.023393 C78.2707265,465.705491 89.209186,456.336694 101.382572,449.615246 C107.597406,446.184755 114.456713,443.728479 121.641398,443.905723 C129.405229,444.095538 135.264535,447.774924 140.816051,452.862207 C148.876366,460.247378 156.33492,468.14794 167.846245,469.197577 C180.181691,470.323894 191.684222,464.139206 200.807352,456.394519 C211.434253,447.372668 220.053614,436.416217 231.333782,428.085744 C242.318724,419.972741 254.434321,413.506474 266.711979,407.59708 C292.065034,395.39112 320.058797,382.779134 348.774922,382.868384 C357.610363,392.613039 373.390539,395.950508 386.932018,393.647592 C403.600386,390.812943 418.506188,381.821262 434.501188,376.334237 C471.585418,363.612887 513.025182,370.14452 550.398356,358.298078 C561.993852,354.623719 572.964975,349.243544 583.88459,343.885995 L617.434894,327.422406 C613.281621,326.59401 609.931113,324.289836 608.514026,320.776381 C606.578093,315.978219 608.78287,310.297609 613.581873,306.233565 C591.863246,309.706795 572.191104,323.978088 551.536549,333.057763 C507.466128,352.433938 453.546444,347.359225 413.859196,320.101345 C405.316469,314.233433 397.355401,307.395079 388.05011,302.830729 C379.190799,298.485106 369.957117,295.624059 360.826449,299.05455 C348.337736,284.99067 329.693234,279.312574 310.993456,278.940487 C299.732131,278.714218 288.347691,280.296844 277.497172,283.28611 C265.323786,286.641177 254.319999,294.316727 242.032292,296.790602 C226.84885,299.847749 215.602602,287.690814 208.223193,276.042985 C201.234488,265.011111 195.407846,253.043992 184.930443,244.801512 C164.287194,228.561678 134.940414,230.208414 115.009478,212.791981 C91.230546,192.012938 88.4679788,156.068839 107.932834,131.683319 C105.194136,131.183013 102.714232,130.201257 100.650159,128.87004 C86.3963675,148.263814 83.0521411,173.993121 93.336077,196.225314 C98.642618,207.693385 107.343637,217.636653 118.020789,224.389528 C129.156485,231.434038 142.148968,234.62946 154.567329,238.579113 C168.75705,243.093181 181.352548,248.992518 190.253315,261.423489 C198.172926,272.483019 203.446804,285.41681 213.671694,294.72904 C223.381508,303.572389 235.326251,307.078303 248.027276,302.980318 C260.451919,298.971585 271.484599,292.304189 284.350198,289.332522 C308.222094,283.817842 339.742245,284.500421 356.327698,305.243009 C357.046292,312.528873 355.567647,319.417509 353.219653,326.228208 C345.257329,320.248419 335.517364,316.721136 325.129156,316.863183 C314.940698,317.001458 304.818823,320.497315 296.685644,326.619151 C288.16553,333.032622 284.299946,342.258115 277.475815,350.069426 C267.610221,361.362766 252.009694,353.998965 239.821233,350.828684 C226.789805,347.437162 213.322447,344.706849 200.646548,340.117358 C189.123917,335.943951 181.386467,328.425532 172.442986,320.463375 C165.151517,313.971967 156.826127,308.530196 146.709277,308.642073 C125.182861,308.879656 113.318521,326.611608 105.700418,344.757131 C108.020773,344.620112 110.244395,345.134246 112.130076,346.407638 C112.390127,346.583625 112.627565,346.782239 112.866259,346.980853 C119.661495,330.803872 130.488146,314.141669 149.449231,316.279911 C159.847488,317.452739 167.277148,326.044679 174.535954,332.700761 C181.700538,339.271363 189.476932,344.089637 198.642776,347.389394 C209.464401,351.286251 220.882761,353.694759 231.999612,356.587232 C242.874001,359.416852 255.134071,364.555674 266.505948,363.881895 C275.082595,363.374047 281.159238,357.981301 285.984622,351.33779 C291.946943,343.129251 296.424337,334.974765 305.572593,329.766805 C320.448244,321.299314 338.109076,323.696509 350.396784,333.609608 C349.720904,335.257601 349.024923,336.908108 348.325173,338.564901 C343.424411,350.167476 339.16938,363.397931 343.876673,375.080957 C343.925668,375.201634 343.983457,375.317283 344.033709,375.43796 C321.40302,376.392061 298.945698,384.570431 278.603957,393.795923 C253.287334,405.277822 228.812421,417.634627 209.132742,437.704694 C199.274686,447.757325 188.973163,459.534631 174.196757,461.525798 C159.363819,463.523251 151.729385,451.446768 141.331128,443.449414 C117.858729,425.39817 92.2669798,445.930831 73.1752411,460.171955 C49.1965601,478.059782 25.3535576,496.129881 1.37110769,514.01268 C0.913820538,514.353341 0.457789667,514.694002 0.000502513356,515.034662 L0.000502513356,524.388374 C0.457789667,524.047714 0.913820538,523.705796 1.37110769,523.365135 C23.3623484,506.998339 45.2229357,490.456813 67.1639251,474.023393" id="Fill-18" fill="#00C2A9" fill-rule="nonzero"></path>
            <path d="M747.20432,185.56251 C739.839987,192.105457 738.444256,203.607468 727.843737,206.375493 C710.844966,210.812881 692.184133,199.176366 677.236873,212.763823 C662.36499,226.282143 667.050927,246.887713 667.023289,264.531672 C666.995651,283.52319 655.254426,298.756126 638.141334,304.987325 C638.970481,305.86726 639.645105,306.875415 640.106161,308.016816 C640.630031,309.316606 640.838574,310.681763 640.787067,312.062004 C653.814725,307.330467 665.00821,297.714031 670.67028,284.868233 C678.656473,266.75288 669.460479,247.152951 675.675313,228.95966 C683.182862,206.982648 704.734404,215.2113 722.149004,214.6318 C729.600021,214.385418 736.680434,212.122728 741.716874,206.383035 C746.556078,200.868355 752.970661,182.564445 763.112637,189.25321 C763.061129,188.749133 762.876455,188.168375 762.681731,187.591389 C761.714393,184.746684 764.621433,182.452567 767.185507,182.959159 C760.557356,178.546912 752.62267,180.749264 747.20432,185.56251 Z" id="Fill-20" fill="#4744A2" fill-rule="nonzero"></path>
            <path d="M580.775917,490.979495 C577.635208,488.858851 576.082442,485.099013 576.138975,480.861496 C563.714332,500.003859 551.858786,519.216617 537.181627,536.760013 L561.672871,536.760013 C572.586205,522.354215 581.964361,506.823358 591.700557,491.570308 C587.852561,493.129051 583.865117,493.066198 580.775917,490.979495" id="Fill-22" fill="#4744A2" fill-rule="nonzero"></path>
            <path d="M50.0783454,407.375839 C70.5469706,402.112569 88.7366978,390.833056 103.044509,375.616461 C99.4992776,376.795574 95.9088197,376.579361 93.0759007,374.666131 C89.7643376,372.431095 88.2090588,368.374594 88.4540341,363.855497 C76.1110498,376.610788 60.1914267,385.684177 42.8032083,389.749478 C29.2039406,392.928559 15.2705015,393.133458 1.37098206,391.946802 C0.913694909,391.907834 0.456407755,391.860066 0.000376885017,391.818583 L0.000376885017,410.58006 C0.456407755,410.619029 0.913694909,410.654226 1.37098206,410.690681 C17.6926159,411.966587 34.0431442,411.500221 50.0783454,407.375839" id="Fill-24" fill="#4744A2" fill-rule="nonzero"></path>
            <g id="Group-28" transform="translate(0.000000, 56.567267)">
              <g id="Fill-26-Clipped">
                <g>
                  <mask id="mask-4" fill="white">
                    <use xlink:href="#path-3"></use>
                  </mask>
                  <g id="path-3"></g>
                  <path d="M33.1842232,50.4280848 C47.8098745,57.7114347 64.1805033,57.9590736 79.2144466,63.7628753 C83.2157092,65.3077902 87.0147102,67.3429548 91.0624553,68.7835345 C93.5323084,69.6634698 96.075026,70.3058225 98.6554321,70.791044 C95.9644731,68.4026482 94.3840686,65.3153325 94.5398477,62.0030047 C94.7446219,57.6825225 97.8363353,54.0094213 102.384081,51.9340311 C95.2747735,50.1540478 89.2383318,47.1610108 81.5423397,44.6330825 C65.2282436,39.2730196 48.4757046,38.9311019 33.8902545,28.9086392 C22.2281758,20.894943 12.6942411,10.2250993 1.37135895,1.761379 C0.917840645,1.4219754 0.460553491,1.0876 -0.000502513356,0.755738693 L-0.000502513356,24.8923632 C0.458040924,25.2971334 0.914071794,25.7019036 1.37135895,26.1079309 C11.3562993,35.0091047 21.1465158,44.4332115 33.1842232,50.4280848" id="Fill-26" fill="#4744A2" fill-rule="nonzero" mask="url(#mask-4)"></path>
                </g>
              </g>
            </g>
            <path d="M203.900699,37.9772521 C217.379363,41.7069206 230.998731,43.1160741 244.904532,44.0500625 C258.800283,44.9840509 270.722412,47.8375553 282.341777,55.4087698 C290.066664,64.6707171 304.037791,82.8376093 291.868174,94.2993947 C284.706103,101.044727 276.969909,95.380458 270.041507,91.6847299 C269.836732,91.4836018 269.625677,91.3164141 269.40834,91.1856809 C249.517605,73.7151946 220.476102,68.8981775 196.210988,79.9237665 C182.257448,86.2630716 170.066474,96.0429236 156.35791,102.934074 C146.885533,107.694524 137.006121,111.264547 126.901833,114.218615 C128.056358,116.032539 128.67068,118.060161 128.571434,120.180805 C128.547565,120.683625 128.473444,121.175132 128.374198,121.659096 C136.610391,119.2795 144.712163,116.503933 152.58906,113.024417 C165.373,107.37649 176.925782,99.7851626 188.811479,92.5256966 C200.741146,85.2385755 213.227347,80.7823319 227.364304,81.5767877 C241.154526,82.3523878 254.349271,87.7979301 264.625669,97.002053 C264.788986,97.2094663 264.991247,97.400538 265.222404,97.5802962 C271.639499,105.710898 279.142023,114.49768 289.559125,117.284561 C302.209899,120.669798 316.150876,114.673667 328.055417,111.043306 C356.971292,102.227611 387.377119,104.076733 417.225156,103.824065 C446.320679,103.577684 475.515449,102.338232 504.234087,97.3678547 C533.073329,92.3748505 560.080909,82.6163684 586.322157,69.8045108 C598.138758,64.0346496 609.631239,57.5809529 621.505629,51.9393107 C626.895085,49.3799561 632.540822,47.1021808 638.442842,46.057572 C641.538324,45.509498 644.711696,45.3724795 647.820997,45.8539298 C649.534568,46.1179104 651.391355,47.1285789 653.206684,47.6841952 C645.057174,44.5755096 640.13003,37.3688397 642.083551,31.0383339 C643.740589,25.6682147 649.84487,22.5733566 656.837343,22.9944685 C654.189098,21.9976276 651.175274,21.508635 648.608687,21.1742595 C637.809675,19.762592 626.828502,23.5965956 616.838536,27.3765462 C604.136255,32.1835068 592.103573,38.5202978 580.054559,44.7389261 C554.520599,57.9178424 528.094678,69.4261387 499.986593,75.8484091 C440.896048,89.3503873 378.161024,75.1884577 331.34688,36.5706127 C321.62199,25.6393025 313.454892,13.002175 306.618197,0.241856495 L298.10939,0.241856495 C304.674727,12.9908615 312.572981,25.8530011 321.944855,37.22805 C321.981287,37.4065512 322.021488,37.5850524 322.088071,37.7736099 C325.066719,46.1254527 322.511439,55.5068197 313.003886,57.733056 C304.016435,59.8373583 295.315416,54.6042576 287.890781,50.0587634 C276.974935,42.4774925 265.343007,38.399621 252.163338,37.077204 C238.355527,35.6906774 224.721083,35.3651014 211.15071,32.0678582 C188.094141,26.4664417 163.89561,16.37107 145.751109,0.241856495 L134.831494,0.241856495 C153.01494,19.2208032 179.023775,31.0911301 203.900699,37.9772521" id="Fill-29" fill="#4744A2" fill-rule="nonzero"></path>
            <g id="Group-33" transform="translate(597.990894, 38.715276)">
              <g id="Fill-31-Clipped">
                <g>
                  <mask id="mask-6" fill="white">
                    <use xlink:href="#path-5"></use>
                  </mask>
                  <g id="path-5"></g>
                  <path d="M168.5921,103.744485 C158.568215,105.119698 155.809417,90.2110803 153.85464,83.2859898 C152.045592,76.8750328 149.340814,70.8726172 143.908644,66.7557772 C133.427472,58.8137328 119.321922,60.863982 107.28924,57.4900587 C90.5354444,52.7912044 89.4864478,35.74183 86.4738802,21.2920358 C84.8909631,13.6981944 82.0505064,5.82654487 77.0479859,0.0302855334 C77.0090411,0.820970227 76.8834128,1.60788377 76.644719,2.37971271 C76.0592909,4.28037289 74.9022539,5.88311214 73.3607942,7.16153238 C79.1912054,15.8200955 79.8783924,29.2177385 82.1698533,38.435689 C85.6836779,52.581277 93.8633391,62.4516366 108.419895,65.5125543 C122.423686,68.4590804 140.015422,66.0442866 145.742818,82.4575935 C148.325737,89.8603633 148.999105,97.6980724 154.099615,104.00218 C158.034295,108.865708 163.201388,111.73304 169.239086,111.201308 C172.359694,115.950444 175.066985,120.991216 176.457691,126.542351 C177.329551,130.026894 178.881061,149.414382 170.226525,144.617478 C169.897379,144.435206 169.549388,144.313272 169.195116,144.244134 C166.631042,143.737543 163.722746,146.03166 164.690084,148.876365 C164.886064,149.453351 165.070738,150.034108 165.261693,150.612351 C171.603412,169.78237 175.271759,189.681478 175.010452,209.88102 C173.580802,231.809007 164.608426,251.188953 154.19258,269.398585 C143.334523,288.38256 131.569429,306.878799 120.187501,325.551026 L102.892248,353.921396 C97.5392243,362.701893 92.3482613,371.795395 85.1346821,379.215764 C71.1773736,393.573793 51.0064875,397.402769 32.8456549,403.843895 C20.9210129,408.07387 8.83807928,413.966922 0.0905780324,423.094365 C0.696106626,423.342004 1.28530354,423.631125 1.83932451,424.005726 C3.4662115,425.103131 4.65465559,426.65056 5.43103872,428.465741 C14.5604501,418.793995 27.8242901,413.352224 40.4951644,409.215271 C58.2502176,403.417755 77.0278854,398.370698 90.4650925,384.549429 C97.0203793,377.805353 102.051794,369.758974 106.934968,361.772933 C112.89352,352.027021 118.828203,342.264768 124.774192,332.510057 C136.604613,313.103713 148.811918,293.874613 160.147363,274.172862 C170.54939,256.095221 179.402419,237.01571 181.89991,216.23541 C182.078302,215.921147 182.225288,215.574201 182.300665,215.161889 C184.502929,203.224938 193.451436,196.894433 200.55195,188.037256 L200.55195,111.011493 C199.966522,110.371654 199.355968,109.753186 198.719032,109.158601 C190.283089,101.294494 180.455184,100.627 169.828283,103.196411 C169.339589,103.314574 168.940091,103.510673 168.5921,103.744485 Z" id="Fill-31" fill="#4744A2" fill-rule="nonzero" mask="url(#mask-6)"></path>
                </g>
              </g>
            </g>
            <path d="M92.0993916,353.445989 C89.8405941,356.796028 88.6395871,360.456559 88.4549135,363.855623 C88.2086819,368.374719 89.765217,372.431221 93.0755238,374.666256 C95.9096991,376.579487 99.500157,376.7957 103.044132,375.616586 C106.755194,374.382163 110.414747,371.619166 113.105706,367.628031 C118.13084,360.17498 117.946166,351.185812 112.865756,346.979722 C112.627062,346.782365 112.390881,346.583751 112.129574,346.407764 C110.243893,345.134372 108.020271,344.620238 105.701172,344.757257 C100.887094,345.045121 95.6496484,348.180205 92.0993916,353.445989" id="Fill-34" fill="#FFFFFF" fill-rule="nonzero"></path>
            <path d="M128.373946,121.659473 C128.473193,121.175509 128.547313,120.684002 128.571183,120.179925 C128.670429,118.060538 128.057363,116.032916 126.902838,114.218992 C124.248312,110.046842 118.703077,107.021122 112.154071,106.71063 C108.562357,106.540928 105.195518,107.217222 102.383956,108.50067 C97.8362097,110.57606 94.7444963,114.249161 94.5397221,118.569644 C94.3839429,121.881971 95.9643474,124.969287 98.6553065,127.35894 C99.2658602,127.900729 99.9304341,128.406063 100.650284,128.869915 C102.714358,130.201131 105.194261,131.182887 107.932959,131.683193 C108.91286,131.861694 109.9204,131.989914 110.956833,132.038939 C119.677953,132.451251 127.087512,127.905757 128.373946,121.659473" id="Fill-36" fill="#FFFFFF" fill-rule="nonzero"></path>
            <path d="M580.775917,490.979495 C583.865117,493.066198 587.852561,493.129051 591.700557,491.570308 C595.077447,490.20138 598.347552,487.587973 600.806099,483.941269 C604.592537,478.326025 605.411634,471.840902 603.421681,467.181017 C602.645298,465.365836 601.456854,463.818407 599.829967,462.721002 C599.277202,462.346401 598.686749,462.057279 598.08122,461.80964 C592.343774,459.469013 584.559842,462.700889 579.799784,469.759227 C577.386464,473.338049 576.186713,477.27136 576.138975,480.861496 C576.082442,485.099013 577.635208,488.858851 580.775917,490.979495" id="Fill-38" fill="#FFFFFF" fill-rule="nonzero"></path>
            <path d="M640.105784,308.016691 C639.644728,306.875289 638.97136,305.867134 638.142213,304.987199 C634.256529,300.867845 626.756517,299.7365 619.566807,302.640286 C617.289165,303.560447 615.277855,304.797385 613.581873,306.234193 C608.78287,310.29698 606.578093,315.978848 608.514026,320.775752 C609.931113,324.290465 613.281621,326.593381 617.434894,327.423035 C620.955,328.124469 625.049228,327.76998 629.051747,326.153414 C636.029145,323.335107 640.579403,317.576559 640.78669,312.061879 C640.838197,310.681637 640.629654,309.316481 640.105784,308.016691" id="Fill-40" fill="#FFFFFF" fill-rule="nonzero"></path>
            <path d="M671.351562,45.8761796 C672.893022,44.5990164 674.050059,42.9950201 674.635487,41.095617 C674.874181,40.322531 674.999809,39.5356174 675.04001,38.7449328 C675.346543,32.6960063 670.04754,26.4094973 662.097779,23.9532208 C660.325163,23.4051469 658.555059,23.0971695 656.836464,22.9940914 C649.84399,22.5729795 643.740966,25.6678376 642.083928,31.0379568 C640.130407,37.3684626 645.056294,44.5751324 653.207061,47.6838181 C653.67063,47.8610622 654.137967,48.030764 654.621636,48.180353 C661.058832,50.1690067 667.465878,49.0954856 671.351562,45.8761796" id="Fill-42" fill="#FFFFFF" fill-rule="nonzero"></path>
          </g>
          <g id="Group" transform="translate(194.723925, 193.839046)">
            <g id="Group-66" transform="translate(0.000000, 28.670805)">
              <path d="M42.9022034,0.0717775771 L0.495101284,39.3432887" id="Fill-63" fill="#1F1A35" fill-rule="nonzero"></path>
              <path d="M42.9022034,0.0717775771 L0.495101284,39.3432887" id="Stroke-65" stroke="#FFFFFF" stroke-width="2.32" stroke-linecap="round"></path>
            </g>
            <path d="M70.3420708,24.4780394 C70.3420708,37.6481563 59.672456,48.3242852 46.5103749,48.3242852 C33.3470376,48.3242852 22.6774227,37.6481563 22.6774227,24.4780394 C22.6774227,11.3079225 33.3470376,0.631793525 46.5103749,0.631793525 C59.672456,0.631793525 70.3420708,11.3079225 70.3420708,24.4780394" id="Fill-67" fill="#FFFFFF" fill-rule="nonzero"></path>
          </g>
          <path d="M237.653441,224.723003 L237.653441,210.723003 L243.453441,210.723003 C247.293441,210.723003 247.993441,213.043003 247.993441,214.503003 C247.993441,216.243003 246.673441,217.363003 245.553441,217.623003 C246.453441,217.643003 248.113441,218.703003 248.113441,220.803003 C248.113441,222.263003 247.353441,224.723003 243.513441,224.723003 L237.653441,224.723003 Z M240.873441,216.423003 L242.813441,216.423003 C244.393441,216.423003 244.753441,215.443003 244.753441,214.743003 C244.753441,214.123003 244.453441,213.103003 242.813441,213.103003 L240.873441,213.103003 L240.873441,216.423003 Z M242.913441,218.803003 L240.873441,218.803003 L240.873441,222.243003 L242.893441,222.243003 C244.473441,222.243003 244.833441,221.303003 244.833441,220.523003 C244.833441,219.883003 244.473441,218.803003 242.913441,218.803003 Z" id="B" fill="#29264C" fill-rule="nonzero"></path>
        </g>
        <g id="Group-Copy" transform="translate(407.749825, 276.215498) rotate(-36.000000) translate(-407.749825, -276.215498) translate(372.249825, 241.715498)">
          <g id="Group-66" transform="translate(0.000000, 28.721378)">
            <path d="M42.8483061,0.0719041862 L0.494479297,39.4126867" id="Fill-63" fill="#1F1A35" fill-rule="nonzero"></path>
            <path d="M42.8483061,0.0719041862 L0.494479297,39.4126867" id="Stroke-65" stroke="#FFFFFF" stroke-width="2.32" stroke-linecap="round"></path>
          </g>
          <path d="M70.2537014,24.5212164 C70.2537014,37.7145642 59.5974906,48.4095248 46.4519448,48.4095248 C33.3051443,48.4095248 22.6489335,37.7145642 22.6489335,24.5212164 C22.6489335,11.3278686 33.3051443,0.63290795 46.4519448,0.63290795 C59.5974906,0.63290795 70.2537014,11.3278686 70.2537014,24.5212164" id="Fill-67" fill="#FFFFFF" fill-rule="nonzero"></path>
        </g>
        <g id="Group-Copy-2" transform="translate(511.137529, 302.313365) rotate(-36.000000) translate(-511.137529, -302.313365) translate(475.637529, 267.813365)">
          <g id="Group-66" transform="translate(0.000000, 28.721378)">
            <path d="M42.8483061,0.0719041862 L0.494479297,39.4126867" id="Fill-63" fill="#1F1A35" fill-rule="nonzero"></path>
            <path d="M42.8483061,0.0719041862 L0.494479297,39.4126867" id="Stroke-65" stroke="#FFFFFF" stroke-width="2.32" stroke-linecap="round"></path>
          </g>
          <path d="M70.2537014,24.5212164 C70.2537014,37.7145642 59.5974906,48.4095248 46.4519448,48.4095248 C33.3051443,48.4095248 22.6489335,37.7145642 22.6489335,24.5212164 C22.6489335,11.3278686 33.3051443,0.63290795 46.4519448,0.63290795 C59.5974906,0.63290795 70.2537014,11.3278686 70.2537014,24.5212164" id="Fill-67" fill="#FFFFFF" fill-rule="nonzero"></path>
        </g>
        <path d="M413.092176,262.734906 L411.412176,256.974906 L409.692176,262.734906 L413.092176,262.734906 Z M417.952176,266.974906 L414.432176,266.974906 L413.892176,265.274906 L408.912176,265.274906 L408.372176,266.974906 L404.912176,266.974906 L409.912176,252.974906 L412.892176,252.974906 L417.952176,266.974906 Z" id="A" fill="#29264C" fill-rule="nonzero"></path>
        <path d="M517.63988,288.056537 L521.07988,288.056537 C520.53988,291.036537 517.95988,293.436537 514.09988,293.436537 C509.37988,293.436537 506.57988,289.996537 506.57988,286.056537 C506.57988,282.236537 509.33988,278.716537 513.91988,278.716537 C518.25988,278.716537 520.65988,281.316537 521.05988,284.516537 L517.67988,284.516537 C517.37988,282.876537 516.11988,281.636537 514.11988,281.636537 C511.37988,281.636537 509.87988,283.756537 509.87988,286.056537 C509.87988,288.516537 511.47988,290.516537 514.27988,290.516537 C515.85988,290.516537 517.25988,289.456537 517.63988,288.056537 Z" id="C" fill="#29264C" fill-rule="nonzero"></path>
        <g id="Group-Copy-3" transform="translate(609.063224, 250.117631) scale(-1, 1) rotate(-36.000000) translate(-609.063224, -250.117631) translate(573.563224, 215.617631)">
          <g id="Group-66" transform="translate(0.000000, 28.721378)">
            <path d="M42.8483061,0.0719041862 L0.494479297,39.4126867" id="Fill-63" fill="#1F1A35" fill-rule="nonzero"></path>
            <path d="M42.8483061,0.0719041862 L0.494479297,39.4126867" id="Stroke-65" stroke="#FFFFFF" stroke-width="2.32" stroke-linecap="round"></path>
          </g>
          <path d="M46.4519448,48.4095248 C33.3051443,48.4095248 22.6489335,37.7145642 22.6489335,24.5212164 C22.6489335,11.3278686 33.3051443,0.63290795 46.4519448,0.63290795 C59.5974906,0.63290795 70.2537014,11.3278686 70.2537014,24.5212164 C70.2537014,37.7145642 59.5974906,48.4095248 46.4519448,48.4095248 Z" id="Fill-67" fill="#FFFFFF" fill-rule="nonzero"></path>
        </g>
        <path d="M601.34,228 L606.48,228 C611.12,228 613.76,231.42 613.76,235 C613.76,238.58 611.14,242 606.48,242 L601.34,242 L601.34,228 Z M606.32,230.8 L604.58,230.8 L604.58,239.2 L606.32,239.2 C608.94,239.2 610.46,237.16 610.46,235 C610.46,232.84 608.94,230.8 606.32,230.8 Z" id="D" fill="#29264C" fill-rule="nonzero"></path>
      </g>
    </g>
  </g>
</svg>
