<svg id="Layer_1" xmlns="http://www.w3.org/2000/svg" viewBox="0 0 710 624">
    <style>
        .st0{fill:#d5d4ee}.st1{fill:#fc4d6c}.st2{fill:#a1305d}.st3{fill:#d2d8ff}.st4{fill:#4844a3}.st5{fill:url(#SVGID_1_)}.st6{fill:#fff}.st7{fill:#342d71}.st8{fill:#646fd8}.st9{fill:#b0ccfc}.st10{fill:#ffc07f}.st11{fill:#8a8ed8}.st12{fill:#a3a0db}.st13{fill:#6e6dc9}.st14{fill:#1b2a3b}.st15{fill:#efe7dc}.st16{fill:#908cd3}.st17{fill:#a15098}.st18{fill:#9c95cb}.st19{fill:#5d2c3a}.st20{fill:#c9c2d4}.st21{fill:#0b0146}.st22{fill:#f48c00}.st23{fill:#ad8570}
    </style>
    <title>
        Artboard Copy 4
    </title>
    <path class="st0" d="M36.7 500.6c-5.5.2-11.1.5-16.6 1-5.5.5-11.3 1.3-15.5 3.6-4.2 2.2-6.2 6.4-3.1 9.2 3.1 2.7 9.3 3.1 14.8 3.1h.9l52.1-.3 71.9.1 2.1-.1H70.7c-14.9-1.1-26-7.2-34-16.6M534.8 494.9c-4.4.2-8.7.5-13 .9-5.5.5-11.3 1.3-15.5 3.6-4.2 2.2-6.2 6.4-3.1 9.2 3.1 2.7 9.3 3.1 14.8 3.1h.9l43.3-.3c-10.7-2.7-20.2-8.6-27.4-16.5M348.2 471.9v.9c-.1 1.9-.4 2.8.9 4 1 1 2.4 1.2 3.7 1.5 2.7.8 5.4 1.6 8.1 2.3 1.8.5 2 2.5 1.2 3.7 6.3 0 12.6-.2 18.8-1.3 3.6-.6 7.4-1.6 10.6-3.4.9-.5 1.3-1.5 1.2-2.4-.1.9-.8 1.7-1.9 1.7h-.3c-3.9-.5-7.9-.8-11.7-1.5-2.1-.3-4.2-.9-5.3-2.9-.2-.3-.3-.7-.4-1-8.5-.7-16.7-1.4-24.9-1.6m-9-.2c-3.8 0-7.7.1-11.5.3-4.7.2-9.6.7-13.3 2.5-3.7 1.8-5.5 5.2-2.9 7.7.6.6 1.5 1 2.4 1.1 4.8.5 9.6.8 14.4 1.1 3.4.2 6.7.2 10 .2 3.2 0 6.3 0 9.5-.1 2.7 0 5.3-.1 8-.1-4.9-1-11.1-2.4-12.3-6.7-.5-1.8-.6-3.8-.5-5.9-1.2-.1-2.5-.1-3.8-.1"/>
    <path class="st1" d="M32.8 277.5c84.7 14.6 477.7 72.1 672.5-29.4 1.8-.9 3.9.3 4 2.3l-.7-.6c.1-2.1-1.2-2.6-3.3-2.6-398.3-17.6-564.1 10.4-672.5 29.4-1.6.2-1.6.6 0 .9"/>
    <path class="st2" d="M86.2 267.5c-19.5 3.1-37.1 6.2-53.5 9-.6.1-1 .2-1.1.4.7-.3 1.6-.5 2.7-.5.6 0 1.3.1 2 .2 11.6 2 29.1 4.8 51.1 7.9-.5-5.4-.9-11-1.2-17m385.5-26c-178.5 0-290 11.6-370.2 23.6l22.2 16.2c3.1 2.3 6.9 3.5 10.7 3.5 1.9 0 3.7-.3 5.5-.9 6.7-2.2 13.9-3.4 21.3-3.4 7.5 0 14.7 1.2 21.4 3.4 1.8.6 3.7.9 5.5.9 3.8 0 7.5-1.2 10.7-3.5l30.2-22.1c.9-.6 1.8-.9 2.7-.9 2.5 0 4.7 2 4.7 4.8-.3 14-1.5 25.3-3.7 37.1 44.2 3.3 92.3 5.6 141.2 5.6 119.9 0 245.1-13.6 331.3-58.5.2-.1.3-.1.5-.2h-.5c-88.7-3.9-165.9-5.6-233.5-5.6"/>
    <path class="st3" d="M544.2 280.2L433.7 305c-6.7 2.7-9 2-7.1-2.2.3-.6 5-5.7 2.8-7.7-.1 2 3.3-57.7 11.6-77.8 4.6-11.2 10.4-20.7 14.6-26.8 2.9-4.2 7.9-6.4 13-5.8 13.6 1.6 21.2-9.4 41.5-10.4 23.7-1.2 9.7 6.4 22.3.8 0 .2 10.8 10.4 10.8 10.5-16.9 4.9-6.2 19-9.6 35l10.6 59.6z"/>
    <path class="st4" d="M444.4 125c0 10.2-5.2 18.4-11.7 18.4S421 135.2 421 125s5.2-18.4 11.7-18.4c6.5 0 11.7 8.3 11.7 18.4"/>
    <linearGradient id="SVGID_1_" gradientUnits="userSpaceOnUse" y1="624" x2="1" y2="624" gradientTransform="matrix(-6.8471 22.4936 -22.7276 -6.7766 14693.811 4300.681)">
        <stop offset="0" stop-color="#dee1ff"/>
        <stop offset="1" stop-color="#d2d8ff"/>
    </linearGradient>
    <path class="st5" d="M565.9 124.2C565.9 86 534.6 55 496 55c-28.2 0-52.6 16.6-63.6 40.4-4.1 8.8-6.3 18.5-6.3 28.8 0 9.6 2 18.7 5.5 27 5.8 13.6 15.9 25 28.6 32.5 10.5 6.2 22.7 9.8 35.8 9.8 13.3 0 25.8-3.7 36.4-10.1 20-12.2 33.5-34.1 33.5-59.2z"/>
    <path class="st3" d="M565.9 124.2C565.9 86 534.6 55 496 55c-28.2 0-52.6 16.6-63.6 40.4-4.1 8.8-6.3 18.5-6.3 28.8 0 9.6 2 18.7 5.5 27 5.8 13.6 15.9 25 28.6 32.5 10.5 6.2 22.7 9.8 35.8 9.8 13.3 0 25.8-3.7 36.4-10.1 20-12.2 33.5-34.1 33.5-59.2z"/>
    <path class="st6" d="M504.7 121.4l.4 4.3c.3 3.3-2.2 6.2-5.4 6.4-3.3.3-6.2-2.2-6.4-5.4l.1-4.9s.4-5.5 4.9-5.8c4.4-.4 6.1 2.2 6.4 5.4z"/>
    <path class="st6" d="M504.7 121.4h-.5l.4 4.3v.5c0 2.8-2.1 5.2-5 5.4h-.5c-2.8 0-5.2-2.1-5.4-5h-.5.5l.1-4.9h-.5.5c0-.3.2-1.6.8-2.8.3-.6.8-1.2 1.3-1.7.6-.5 1.3-.8 2.3-.9h.8c1.8 0 3 .6 3.7 1.4.8.9 1.2 2.1 1.3 3.6l.7.1h.5c-.1-1.6-.6-3.1-1.6-4.2s-2.5-1.8-4.5-1.8h-.9c-1.3.1-2.2.6-3 1.2-1.1.9-1.7 2.2-2 3.3-.3 1-.4 1.8-.4 1.9l-.1 5c.3 3.4 3.1 5.9 6.5 5.9h.5c3.4-.3 5.9-3.1 5.9-6.5v-.5l-.4-4.3h-.5z"/>
    <path class="st7" d="M494.9 122.6l-.2 3c-.1 2.3 1.6 4.2 3.9 4.4 2.3.1 4.2-1.6 4.4-3.9l-.2-3.4s-.3-3.8-3.5-4c-3.1-.2-4.2 1.6-4.4 3.9z"/>
    <path class="st6" d="M473 120.3l.4 4.3c.3 3.3-2.2 6.2-5.4 6.4-3.3.3-6.2-2.2-6.4-5.4l.1-4.9s.4-5.5 4.9-5.8c4.4-.4 6.1 2.1 6.4 5.4z"/>
    <path class="st6" d="M473 120.3h-.5l.4 4.3v.5c0 2.8-2.1 5.2-5 5.4h-.5c-2.8 0-5.2-2.1-5.4-5h-.5.5l.1-4.9h-.5.5c0-.3.2-1.6.8-2.8.3-.6.8-1.2 1.3-1.7.6-.5 1.3-.8 2.3-.9h.8c1.8 0 3 .6 3.7 1.4.8.9 1.2 2.1 1.3 3.6l.7.1h.5c-.1-1.6-.6-3.1-1.6-4.2s-2.5-1.8-4.5-1.8h-.9c-1.2.1-2.2.6-3 1.2-1.1.9-1.7 2.2-2 3.3-.3 1-.4 1.8-.4 1.9l-.1 5c.3 3.4 3.1 5.9 6.5 5.9h.5c3.4-.3 5.9-3.1 5.9-6.5v-.5l-.4-4.3h-.5z"/>
    <path class="st7" d="M463.2 121.5l-.2 3c-.1 2.3 1.6 4.2 3.9 4.4s4.2-1.6 4.4-3.9l-.2-3.4s-.3-3.8-3.5-4c-3.1-.2-4.2 1.6-4.4 3.9z"/>
    <path class="st4" d="M560.3 142.8c-4.2 0-7.6-8.2-7.6-18.4s3.4-18.4 7.6-18.4c4.2 0 7.6 8.2 7.6 18.4s-3.4 18.4-7.6 18.4z"/>
    <ellipse class="st6" cx="564.4" cy="124.7" rx="4.5" ry="10.8"/>
    <path class="st8" d="M503.5 196.5c3.7-.5 5.5 2.2 5.3 8-.2 6.4-.5 20.8-2 36.2-1.3 12.8-8.4 24.7-21.4 35.9l45.5-8c7.6-16.7 10.9-26.3 9.7-28.6-1.7-3.5-11.5-35.4-12.9-36.4-.9-.7-4.9-3.6-11.8-8.7-3 .6-5.3 1-6.9 1.2-1.5.2-3.4.3-5.5.4z"/>
    <path class="st8" d="M518.6 183.8c-3.1 4.3-5.2 8.4-6.3 12.5 0 .3-30.2 4.3-52.2-12.1 5 2.3 33.6 12.5 50.5 6.3 3.6-1.9 6.3-4.1 8-6.7z"/>
    <path class="st4" d="M531.4 174.2c-15.5 5.3-23.7 22.2-18.3 37.6l21.8 63.4c5.3 15.5 22.2 23.7 37.6 18.3 15.5-5.3 23.7-22.2 18.3-37.6L569 192.5c-5.3-15.4-22.1-23.6-37.6-18.3z"/>
    <path class="st9" d="M585.3 258.4c-4.9-14.2-20.3-21.7-34.5-16.8-.6.2-1.1.4-1.7.6-24.9 10.5-42.1 17.4-51.4 20.6-7.3 2.5-16.8 5.2-28.7 8.1-14 3.4-22.6 17.6-19.1 31.6.2.8.4 1.5.7 2.3 5.2 15.2 21.8 23.3 37 18.1l79.7-27.4c15.1-5.3 23.2-21.9 18-37.1z"/>
    <path class="st4" d="M516.5 185.9c-4.6 6.6-7 14.8-5.1 23.3l15.1 65.6c3.7 15.9 19.5 25.7 35.5 22"/>
    <path class="st4" d="M585.2 258.4c-4.9-14.3-20.6-22-34.9-17-.5.2-1 .4-1.5.5-33.2 13.6-55.7 22.4-67.6 26.5-9.9 3.4-23.2 7.2-39.9 11.5-14.2 3.6-22.8 18.1-19.1 32.3l.6 2.1c5.2 15.2 21.8 23.3 37 18.1l107.4-37c15.1-5.2 23.2-21.8 18-37z"/>
    <ellipse transform="rotate(-88 556.87 264.535) scale(1.00001)" class="st3" cx="556.9" cy="264.5" rx="36.8" ry="37.1"/>
    <path class="st10" d="M546.9 391c60.9-13 115.7-34.2 154.2-67.5 3-2.6 4.8-6.4 5-10.4l3.2-63.1c.1-2.1-2.1-3.6-4-2.6-193.8 100.9-584.6 43.8-668.9 29.2-7.2-1.2-9.1 3.8-6.2 10.5.4 1 .9 2 1.4 3 30 65 95.4 106.2 166.9 106.2h300.9c14.1 0 26.2.9 42.4-1l5.1-4.3"/>
    <path class="st11" d="M520.6 419.1v15.7l-14.7-14.7c-5.3-5.3-14.3-1.5-14.3 5.9v25.1c0 7.4 9 11.2 14.3 5.9l14.7-14.7V458c0 30.3 24.5 54.9 54.8 54.9h38.8c30.3 0 54.8-24.6 54.8-54.9v-38.9c0-30.3-24.5-54.9-54.8-54.9h-38.8c-30.2 0-54.8 24.6-54.8 54.9"/>
    <path class="st12" d="M615.2 512.9h-1 1"/>
    <path class="st13" d="M520.7 442.5V458c0 30.3 24.5 54.9 54.8 54.9h39.8c2.7 0 5.4-.3 8-.7-2.2-.5-4.4-.9-6.6-1.2-7.2-.8-14.4-2.1-21.3-4.2-6.8-2-13.4-4.1-20.3-5.7-6.1-1.4-12.1-3.1-17.6-6.1-12.3-6.7-18.9-19.8-25.1-31.8-3.1-6.1-6.4-12-9.9-17.9-.8-.9-1.3-1.9-1.8-2.8"/>
    <path class="st1" d="M90.4 512.6L70.8 517C20.9 513.7 13 452.2 26 405s61.8-74.9 109-61.9 74.9 61.8 61.9 109c-13 47.2-59.3 73.5-106.5 60.5"/>
    <path class="st1" d="M227.3 324.6c5.7-22.7 8.6-38.4 9.2-61.4.1-3.9-4.2-6.2-7.4-3.9l-30.2 22.1c-4.7 3.4-10.7 4.4-16.2 2.6-6.7-2.2-13.9-3.4-21.4-3.4-7.4 0-14.6 1.2-21.3 3.4-5.5 1.8-11.5.8-16.2-2.6l-30.2-22c-3.1-2.3-7.5 0-7.4 3.9.6 23 3.5 38.7 9.2 61.4.4 1.7.4 3.6-.1 5.3-1.8 6.2-2.8 12.8-2.8 19.6 0 11 2.6 21.5 7.2 30.7s18.5 9 26.5 15.3c11.7 9.1 19.1 22.9 35.1 22.9 8.4 0 15.9-6.9 23.3-9.6 15.9-5.9 29.6-12.1 37.5-26.9 5.1-9.6 8-20.6 8-32.3 0-7.7-.7-13.3-3-20.2-.3-1.1-.4-2.3-.1-3.5l.3-1.4"/>
    <path class="st2" d="M100 275.3c-2.4 0-4.6 2.1-4.2 4.8l4.8 33.6c.1.8.8 1.3 1.5 1.3.5 0 1-.2 1.3-.7 2.6-4.3 7.8-11.6 16.7-19 1.7-1.4 1.7-4-.1-5.4l-17.5-13.7c-.7-.6-1.6-.9-2.5-.9M222.5 275.3c-.9 0-1.8.3-2.6.9l-17.5 13.7c-1.7 1.4-1.8 4-.1 5.4 8.9 7.4 14.1 14.7 16.7 19 .3.5.8.7 1.3.7.7 0 1.4-.5 1.5-1.3l4.8-33.6c.5-2.7-1.7-4.8-4.1-4.8"/>
    <ellipse transform="rotate(-11.038 186.973 357.337)" class="st14" cx="187" cy="357.4" rx="5.4" ry="6.6"/>
    <ellipse transform="rotate(-78.96 135.882 357.333)" class="st14" cx="135.9" cy="357.3" rx="6.6" ry="5.8"/>
    <path class="st15" d="M150.6 422.7c.2-.1 2.8-.1 3-.1 0-49.5-56-46.6-56-46.6s2.2 10.8 12.6 23.7c4.1 5.1 10.7 8.2 16.9 10.3.6.2 2.4.7 2.7.8 9.5 3 16.4 4.9 20.8 11.9zM171.8 422.7c-.2-.1-2.8-.1-3-.1 0-49.5 56-46.6 56-46.6s-2.2 10.8-12.6 23.7c-4.1 5.1-10.7 8.2-16.9 10.3-.6.2-2.4.7-2.7.8-9.5 3-16.3 4.9-20.8 11.9z"/>
    <circle class="st14" cx="161.3" cy="415.6" r="13"/>
    <path class="st1" d="M70.8 517H151c7.1 0 9.8-5.8 9.8-12.9h3l72.5 12.4.2-9.9c0-36.3-29.7-65.9-65.9-65.9h-41.4c-32.2 0-58.4 26.1-58.4 58.4V517"/>
    <path class="st15" d="M156 446.8c.7-4.1 4.3-7.1 8.4-7.1 42.1 0 76.3 29.1 76.3 71.9 0 3.1-2.5 5.5-5.5 5.5h-91l11.8-70.3"/>
    <path class="st12" d="M196.5 517H144.7l-1.4.1h42.6l10.6-.1M23.7 473.9c2.6 10.2 6.9 19.4 13 26.6h.1c-6.1-7.2-10.3-16.3-13-26.4 0 0 0-.1-.1-.2"/>
    <path class="st16" d="M36.8 500.6h-.1c8 9.4 19.1 15.6 34 16.6h72.7l1.4-.1h-74c-14.9-1-26-7.2-34-16.5"/>
    <path class="st17" d="M23.9 474.2c2.6 10.1 6.9 19.2 13 26.4 8 9.4 19.1 15.5 33.9 16.5v-11.7c-.8-.1-1.6-.3-2.4-.4-6.1-1-12.3-1.9-18-4.3-5.3-2.3-10.1-5.9-14.3-9.8-4-3.7-7.1-8-9.7-12.7-.9-1.4-1.7-2.7-2.5-4"/>
    <path class="st17" d="M70.8 505.3V517H151h-6.8l.6-3.3c-3.2.1-6.4.1-9.6.1-8.7 0-17.4-.5-25.9-2.5-7.3-1.7-14.2-3.8-21.7-4.1-5.8-.1-11.2-.9-16.8-1.9"/>
    <path class="st18" d="M150.5 513.7c-1.9 0-3.9.1-5.8.1l-.6 3.3h52.4c-7.2-.7-19.3-1.4-23.8-1.7-7.5-.5-15-1.1-22.2-1.7"/>
    <path class="st19" d="M345.6 457.3c-.8 6-3.8 14.3-2.1 20.4 1.6 5.5 11.4 6.2 16 7.6 2.9.9 4.2-3.7 1.3-4.6-2.7-.8-5.4-1.6-8.1-2.3-1.3-.4-2.7-.6-3.7-1.5-1.3-1.2-.9-2.1-.9-4 .2-4.8 1.3-9.4 2-14.2.4-3.1-4.1-4.4-4.5-1.4"/>
    <path class="st19" d="M346.5 478.7c4.5-1 8.4-1.1 12.9 0 3 .7 4.2-3.9 1.3-4.6-5.3-1.2-10.1-1.2-15.4 0-3 .7-1.7 5.3 1.2 4.6zM368.7 456.4c0 3.3.6 6.5 1.7 9.6.5 1.5 1.3 2.9 1.8 4.3.4 1.3.4 3 1.1 4.2 1.1 2 3.2 2.6 5.3 2.9 3.9.6 7.8 1 11.7 1.5 3 .4 3-4.4 0-4.7-2.6-.3-5.3-.6-7.9-1-3.3-.4-4.4-.6-5.3-3.5-1.4-4.6-3.6-8.2-3.6-13.3 0-3-4.8-3-4.8 0"/>
    <path class="st19" d="M375.9 474.7c4.7-1.8 9.3-2.2 14.4-2.2 3 0 3.1-4.7 0-4.7-5.4 0-10.5.4-15.6 2.3-2.9 1.2-1.7 5.7 1.2 4.6z"/>
    <path class="st15" d="M425.7 362.9c-3.8-8.7-8-17.9-16-22.9-5.3-3.3-11.9-4.4-18.2-4.2-6.2.3-12.6 2-17 6.3s-6.2 10.6-7.2 16.7c-.7 4.1-1.4 8.2-2.4 12.2v.1c-8.1 35.4-36 22.2-44.4 17.3-.7-.4-1.3-.8-1.9-1.2-.3-.2-.5-.3-.5-.3-3.3-2.2-6.3-3.9-9.7-6.1-3.4-2.1-7.8.5-7.6 4.5.5 10.8 1.6 21.8 4.8 31.8 1.2 4.1 2.5 7.5 3.9 10.6 9.7 22 27.7 36.3 52.6 36.3 23 0 43-11.4 52.5-30.7 1.7-3 3.2-6.5 4.2-10.6 2.4-9.7 1.9-16.7 1.6-25.1-.3-8.6.1-17.7 4.7-25.1.9-1.4 1.4-2.9 1.4-4.5 0-2-.1-3.3-.8-5.1"/>
    <path class="st0" d="M362.09999999999997 464.3c-.1 0-.1 0 0 0-.1 0-.1 0 0 0m-.3 0s.1 0 0 0c.1 0 0 0 0 0M361.5 464.3c.1 0 .1 0 0 0 .1 0 .1 0 0 0M361.2 464.3c.1 0 .1 0 0 0 .1 0 .1 0 0 0M361 464.3c.1 0 .1 0 0 0 .1 0 .1 0 0 0M360.7 464.2c.1 0 .1 0 0 0 .1 0 .1 0 0 0M359.8 464.2"/>
    <path class="st20" d="M313.6 436.1c10 16.7 25.6 27.4 46.2 28.1H361.6c12.7-.2 24.4-3.8 33.9-10.3-1.1-.3-2.2-.4-3.3-.4-2.8 0-5.6.7-8.6 1.2-4.5.8-9.1 1.3-13.7 1.5-1 0-2.1.1-3.2.1-8 0-16.1-1.3-23.4-4.5-8.5-3.7-16.3-8.8-24.9-12.5-.9-.8-2.9-1.9-4.8-3.2"/>
    <circle class="st21" cx="404.6" cy="358.6" r="3.4"/>
    <path class="st22" d="M425.5 361.7l5.5 4c1.2 1.2 1.2 3.1 0 4.2l-5.5 4c-1.7 1.7-4.5.8-5-1.5-.7-3-.7-6.2 0-9.3.5-2.2 3.3-3 5-1.4z"/>
    <path class="st21" d="M397.5 337.7c-.3-4.9-1.1-9.9-5.5-12.9-4.2-2.9-9.7-2.1-13.4 1.3-3.2 2.9 1.5 7.6 4.7 4.7 1.6-1.4 3.9-1.5 5.5-.1 1.9 1.6 1.9 4.7 2 7 .3 4.2 7 4.2 6.7 0z"/>
    <path class="st21" d="M397.6 338.4c.6-2.9 1.8-10.1 6.3-8.7 4.1 1.3 5.8-5.1 1.8-6.4-3.7-1.1-7.7.3-10.2 3.1-2.5 2.9-3.5 6.5-4.2 10.2-.3 1.8.5 3.6 2.3 4.1 1.6.5 3.7-.5 4-2.3z"/>
    <path class="st23" d="M391.2 398.3c-1.4 0-2.9.7-3.5 2.4-2.4 6-4.3 12.5-7.7 18.1-4.9 8.1-13.9 13.7-23.2 13.7-3.4 0-6.8-.7-10.1-2.4-.6-.3-1.1-.4-1.7-.4-3.3 0-5.4 4.8-1.9 6.5 4.4 2.2 9.1 3.2 13.7 3.2 10 0 19.9-4.7 26.3-12.9 5.5-7 8.2-15.8 11.4-24 1-2.5-1.1-4.2-3.3-4.2"/>
</svg>
