<?xml version="1.0" encoding="UTF-8"?>
<svg xmlns="http://www.w3.org/2000/svg" xmlns:xlink="http://www.w3.org/1999/xlink" width="800px" height="540px" viewBox="0 0 800 540">
  <!-- Generator: Sketch 49.2 (51160) - http://www.bohemiancoding.com/sketch -->
  <title>exercise2</title>
  <desc>Created with Sketch.</desc>
  <defs></defs>
  <g id="exercise2" stroke="none" stroke-width="1" fill="none" fill-rule="evenodd">
    <ellipse id="Oval-Copy" fill="#CDCCE2" cx="291.824607" cy="270" rx="205.824607" ry="206"></ellipse>
    <ellipse id="Oval-Copy-2" fill-opacity="0.5" fill="#A3A1D1" cx="345.339005" cy="270" rx="144.077225" ry="144.2"></ellipse>
    <ellipse id="Oval-Copy-2" fill="#D36BD3" cx="398.853403" cy="270" rx="82.3298429" ry="82.4"></ellipse>
    <ellipse id="Oval-Copy-3" fill="#F0B9F0" cx="423.552356" cy="270" rx="41.1649215" ry="41.2"></ellipse>
    <ellipse id="Oval-Copy-4" fill="#F0B9F0" style="mix-blend-mode: multiply;" cx="570.922775" cy="270" rx="144.077225" ry="144.2"></ellipse>
    <path d="M147.79601,272.072 L144.77201,261.704 L141.67601,272.072 L147.79601,272.072 Z M156.54401,279.704 L150.20801,279.704 L149.23601,276.644 L140.27201,276.644 L139.30001,279.704 L133.07201,279.704 L142.07201,254.504 L147.43601,254.504 L156.54401,279.704 Z" id="A" fill="#FFFFFF"></path>
    <path d="M360.635916,270.668 L366.827916,270.668 C365.855916,276.032 361.211916,280.352 354.263916,280.352 C345.767916,280.352 340.727916,274.16 340.727916,267.068 C340.727916,260.192 345.695916,253.856 353.939916,253.856 C361.751916,253.856 366.071916,258.536 366.791916,264.296 L360.707916,264.296 C360.167916,261.344 357.899916,259.112 354.299916,259.112 C349.367916,259.112 346.667916,262.928 346.667916,267.068 C346.667916,271.496 349.547916,275.096 354.587916,275.096 C357.431916,275.096 359.951916,273.188 360.635916,270.668 Z" id="C" fill="#FFFFFF"></path>
    <path d="M253.750984,279.704 L253.750984,254.504 L264.190984,254.504 C271.102984,254.504 272.362984,258.68 272.362984,261.308 C272.362984,264.44 269.986984,266.456 267.970984,266.924 C269.590984,266.96 272.578984,268.868 272.578984,272.648 C272.578984,275.276 271.210984,279.704 264.298984,279.704 L253.750984,279.704 Z M259.546984,264.764 L263.038984,264.764 C265.882984,264.764 266.530984,263 266.530984,261.74 C266.530984,260.624 265.990984,258.788 263.038984,258.788 L259.546984,258.788 L259.546984,264.764 Z M263.218984,269.048 L259.546984,269.048 L259.546984,275.24 L263.182984,275.24 C266.026984,275.24 266.674984,273.548 266.674984,272.144 C266.674984,270.992 266.026984,269.048 263.218984,269.048 Z" id="B" fill="#FFFFFF"></path>
    <path d="M401.265403,254.504 L410.517403,254.504 C418.869403,254.504 423.621403,260.66 423.621403,267.104 C423.621403,273.548 418.905403,279.704 410.517403,279.704 L401.265403,279.704 L401.265403,254.504 Z M410.229403,259.544 L407.097403,259.544 L407.097403,274.664 L410.229403,274.664 C414.945403,274.664 417.681403,270.992 417.681403,267.104 C417.681403,263.216 414.945403,259.544 410.229403,259.544 Z" id="D" fill="#FFFFFF"></path>
    <polygon id="E" fill="#FFFFFF" points="580.473791 259.184 570.933791 259.184 570.933791 264.908 580.473791 264.908 580.473791 269.48 570.933791 269.48 570.933791 275.024 580.473791 275.024 580.473791 279.704 565.101791 279.704 565.101791 254.504 580.473791 254.504"></polygon>
  </g>
</svg>
