<svg width="750" height="69" viewBox="0 0 750 69" xmlns="http://www.w3.org/2000/svg">
    <title>
        2_1_search
    </title>
    <g fill="none" fill-rule="evenodd">
        <path d="M14.652 33.248h700.691" stroke="#85A0FF" stroke-width="7" stroke-linecap="round"/>
        <circle fill="#29C1A7" cx="715.782" cy="34.441" r="34.218"/>
        <path d="M703.24 34.654v-1.942h6.28v1.942h-1.452c-.585 2.96-2.772 4.996-6.43 4.996-4.317 0-6.787-3.337-6.787-6.92 0-3.582 2.62-6.92 6.787-6.92 3.111 0 5.412 1.943 5.619 4.28h-2.187c-.226-1.3-1.603-2.337-3.432-2.337-2.828 0-4.563 2.394-4.563 4.977 0 2.584 1.584 4.978 4.846 4.978 2.244 0 3.582-1.433 3.846-3.054h-2.526zm12.03 4.902c-2.79 0-4.62-2.13-4.62-4.62 0-2.488 1.83-4.619 4.62-4.619 2.828 0 4.657 2.13 4.657 4.62 0 2.488-1.829 4.619-4.657 4.619zm0-1.829c1.584 0 2.602-1.282 2.602-2.79 0-1.509-1.018-2.791-2.602-2.791-1.546 0-2.564 1.282-2.564 2.79 0 1.509 1.018 2.791 2.564 2.791zm13.312-7.184h2.055v8.787h-2.055v-1.188c-.547.886-1.697 1.414-2.715 1.414-2.678 0-4.507-2.13-4.507-4.62 0-2.488 1.83-4.619 4.507-4.619 1.018 0 2.168.528 2.715 1.414v-1.188zm-2.602 7.184c1.584 0 2.602-1.282 2.602-2.79 0-1.509-1.018-2.791-2.602-2.791-1.546 0-2.564 1.282-2.564 2.79 0 1.509 1.018 2.791 2.564 2.791zm7.41 1.603V26.13h2.055V39.33h-2.055z" fill="#FCFBF8"/>
        <circle fill="#4844A3" cx="156.425" cy="32.346" r="16.061"/>
        <circle fill="#4844A3" cx="16.061" cy="32.346" r="16.061"/>
        <circle fill="#4844A3" cx="296.788" cy="32.346" r="16.061"/>
        <path d="M12.458 28.992v-1.78c2.483 0 3.011-.625 3.011-2.268h2.132v13.687h-2.327v-9.64h-2.816zM151.757 38.631c0-4.34 1.564-5.572 3.656-6.902 1.193-.743 2.699-1.466 2.699-3.128 0-1.33-.86-1.878-1.975-1.878-1.173 0-2.131.685-2.131 2.269h-2.249c0-2.777 2.112-4.283 4.4-4.283 2.365 0 4.203 1.37 4.203 4.107 0 2.522-2.796 3.93-3.676 4.556-1.994 1.427-2.346 1.935-2.346 3.245h5.944v2.014h-8.525zM291.846 34.056h2.249c0 1.78 1.173 2.796 2.62 2.796 1.427 0 2.288-1.017 2.288-2.131 0-1.29-.606-2.268-2.464-2.268h-.919v-1.995h.939c1.623 0 2.111-.821 2.111-1.994 0-1.154-.801-1.74-1.935-1.74-1.623 0-2.17.918-2.17 2.268h-2.25c0-2.542 1.78-4.283 4.263-4.283 2.347 0 4.341 1.487 4.341 3.755 0 1.564-.763 2.542-1.858 3.01 1.232.49 2.19 1.487 2.19 3.227 0 2.483-2.111 4.165-4.634 4.165-2.483 0-4.77-1.74-4.77-4.81z" fill="#FCFBF8"/>
        <circle fill="#4844A3" cx="436.453" cy="32.346" r="16.061"/>
        <path fill="#FCFBF8" d="M437.123 38.631v-4.106h-4.986v-9.58h2.248v7.566h2.738v-4.106h2.249v4.106h1.877v2.014h-1.877v4.106z"/>
        <circle fill="#4844A3" cx="578.212" cy="32.346" r="16.061"/>
        <path d="M574.112 32.804v-7.86h8.31v2.014h-6.296v3.793c.567-1.055 2.014-1.447 2.933-1.447 2.933 0 4.438 2.19 4.438 4.771s-1.896 4.79-4.83 4.79c-2.893 0-4.79-2.209-4.79-4.79h2.249c0 1.506.997 2.777 2.542 2.777 1.583 0 2.58-1.271 2.58-2.777 0-1.505-.997-2.776-2.58-2.776-.998 0-1.8.47-2.308 1.505h-2.248z" fill="#FCFBF8"/>
    </g>
</svg>
