<svg id="Layer_1" xmlns="http://www.w3.org/2000/svg" viewBox="0 0 710 370.2">
    <style>
        .st0{fill:#c3747f}.st1{opacity:.25}.st2{fill:#f4f0e9}.st3,.st4{fill:none;stroke:#bb59a1;stroke-width:1.1857;stroke-linecap:round;stroke-linejoin:round;stroke-miterlimit:10}.st4{stroke:#1c1831;stroke-width:1.4822}.st5{opacity:.5;fill:#1b293c}.st6{fill:#664299}.st7{opacity:.33;fill:#f4f0e9}.st8{fill:#15273a}.st9{fill:none}.st10{fill:#fcfbf8}.st11{fill:#a3a2cf}.st12{fill:#ff3b53}.st13{opacity:.15}.st13,.st14{fill:#fff}
    </style>
    <title>
        2_2_a-to-b
    </title>
    <path class="st0" d="M461.4 204.5l-2.7-3.8 1.7-2.8c.6-.9 1.3-1.7 2-2.4l8.3-8.1c6.3-6.1 7.4-15.9 2.5-23.2l-.3-.4c-.8-1.3-1-2.8-.5-4.2l5.4-16.1c2.7-8.1 2.1-16.9-1.7-24.6l-4.6-7.6-5.2-6.3-159.6 202.9c5.8-4.1 11.9-7.6 18.1-10.6 13.4-6.4 28.6-9.7 42.6-15.2 5.1-4.4 10.4-8.7 15.9-12.5 8.8-8.9 15.6-15.9 15.6-15.9l25.4-18.5s3.4 3.2 7.7 4.1c3.3.7 7.4-.5 9.8-2.1l15.4-10.2c7.6-4.9 9.4-15.2 4.2-22.5z"/>
    <g class="st1">
        <path class="st2" d="M429.3 220.5c.8-2.3-.6-5 1.4-6.3 4.4-3 15.4-6.2 20.8 1.1 7.7 10.4-4.9 17.9-4.9 17.9l-2.1 1.4c-2.7 1.8-5.9 3.7-9 2.7-5.2-1.8-6.7-7.4-7.1-10.6-.2-1.6 0-3.2.5-4.7l.4-1.5z"/>
    </g>
    <path class="st0" d="M436 200.1l.6-1.8c3.4 7.7 18.1 7.8 23.7-.4.6-.9 1.3-1.7 2-2.4l8.3-8.1c6.3-6.1 7.4-15.9 2.5-23.2"/>
    <path class="st2" d="M296.3 218.6l80 59.3-11.4 11.6 20.1-20.4 14.8-15.1z"/>
    <path class="st0" d="M356.5 277.7c-4.9-4.4-15-9.7-18.3-11.3l-38.4-20L381 273c10.3-10.3 18.7-19 18.7-19l-69.9-99c-.2 7.5-1.6 14.9-3.7 22.1-2 7.1-12.8 3.5-10.8-3.6 2.5-8.9 3.8-18 2.7-27.3-1.1-9.5-3.6-18.1-2.5-27.8 2.2-19.9 16.6-34.2 25.7-51.2 0-2.6.2-5.1 1-7.4 2.3-6.8 2-13.5-1-20-1.7-3.7-9-7.9-13.2-4.6-2.3 1.8-4.5 3.8-6.5 5.8-4.5 4.6-8.8 9.3-13.2 14l-12 12.6c-7.3 7.8-11.7 17.5-17.1 26.5-7.3 12.3-12.3 19.6-19 32.2-3.2 6.1-7.7 17.2-9.7 23.9l-6.8 23v.1c-8 20.4-9.2 42.7-14.7 63.9-1.6 6.1-8.8 10.1-11.1 13.4 1.2.2-2.1.8-1.2 1.9 4.4 5.3 10.4 10.2 10.4 16.7 3.2 4.8-55.1 28.2-51.8 32.9 6.2 9 55.7 15.1 60.3 24.9 6.4 13.7 28.1 4.3 28.2 19.4.1-.1 1.5 1.9 1.6 1.8 8.2-8.1 16.9-18.4 28.9-25.3 8.1-4.7 52-19.6 69.9-33.7-1.3-4-4.1-8.2-7.7-11.5z"/>
    <path class="st0" d="M381.1 273.1l-81.2-26.6 38.4 20c3.2 1.6 13.4 6.8 18.3 11.3 3.6 3.3 6.4 7.5 7.7 11.7 1.1-.9 2.2-1.8 3.1-2.7 4.5-4.6 9.2-9.3 13.7-13.7z"/>
    <path class="st5" d="M381.1 273.1l-81.2-26.6 38.4 20c3.2 1.6 13.4 6.8 18.3 11.3 3.6 3.3 6.4 7.5 7.7 11.7 1.1-.9 2.2-1.8 3.1-2.7 4.5-4.6 9.2-9.3 13.7-13.7z"/>
    <path class="st6" d="M259.4 390.6c27.7-56 37.2-44.5 17.9-67.3-4.2-5-22.7-22-26.7-27.4-13.4-18.2-18.4-30.6-32-49.2-2.3-3.1-6.4-4.1-9.9-2.4l-5.8 2.9C173 262.1 45.1 342-35.4 392c-14.5 9-6.8 31.4 10.2 29.6l284.6-31z"/>
    <path class="st7" d="M326.7 36.1s3.4 2-.2 8.7c-3.3 6.1-6.3 9.2-10.6 13.1-3.9 3.5-7.9 5.8-13 2.8 0 0 19.5-21.7 23.8-24.6z"/>
    <path class="st8" d="M415.9 254.6c.2-1 .6-1.9 1-2.9 6.1-18.2 9.9-37.1 17-54.9 3.7-9.3 8.7-18.7 10.8-28.5 2-9.2 1.8-18.7 4-27.8.5-2.1 2.6-2.6 4.2-1.8 1.5-5.1 2.9-10.3 4.1-15.5 2.4-10.1 4.7-20.3 9-29.7 1.3-2.8 4.7-1.4 5.4 1 2-9.7 3.6-19.6 7.5-28.7.7-1.5 2-1.8 3.2-1.4l1.3-4c4.5-13.6-2.8-28.4-16.5-32.9l-78.2-26C375.1-3 360.3 4.3 355.8 18l-1.1 3.4c1.2.8 1.7 2.2.6 3.7-2.5 3.4-3.3 7.8-3.9 12-.7 4.8-1.7 9.3-3.2 13.9-5.9 17.1-14.8 33.2-20 50.5-2.6 8.9-4.2 17.9-7.5 26.6-2.7 7.1-5.6 14.1-7.9 21.3 2.1-.2 4.5 2.1 3 4.5-5.8 10-7.7 21.5-11.6 32.2-2.1 5.6-5.2 10.7-7.3 16.3-.9 2.3-1.4 4.5-1.6 6.9-.2 2.1-.5 4.2-1.7 6-.9 1.4-2.4 1.6-3.6 1.2-4.5 13.6 2.9 28.3 16.5 32.8l78.2 26c13.6 4.5 28.4-2.8 32.9-16.5l.1-.4c-1.3-.8-2.2-2.1-1.8-3.8z"/>
    <g>
        <path class="st9" d="M356.6 15.5l-1.4 4.1c.5-1.4 1.1-2.7 1.8-3.9l-.4-.2zM482.9 62l1.4-4.1-.4-.1c-.3 1.4-.6 2.8-1 4.2z"/>
    </g>
    <g>
        <path class="st9" d="M355 21.2l-1.3 4.1c.5-1.4 1.1-2.7 1.8-3.9l-.5-.2zM481 67.5l1.3-4.1-.4-.1c-.2 1.4-.5 2.8-.9 4.2z"/>
        <path class="st10" d="M347.1 125.9l-25.6-4.7-17.4 52.4 31.9 12.6zM357.3 70l-17.7-3.2-16.2 48.8 24.7 4.5zM394.7 215.7l-54.2-21.4-7.8 42.3 54.8 18.2zM334.9 192.1l-32.7-12.9-12.4 37.3 37.2 18.2zM426.1 44.8l-71.4-23.6s-.9 2.8-1.4 4.2l-11.9 35.7 79 14.5 5.7-30.8zM431.8 46.7l-5.5 30 48.7 9 6-18.2c.5-1.4.7-2.1 1.3-4.1l-50.5-16.7zM354 121.2l28.6 5.3-4.1-8.3c-3.4-6.8-.7-15.2 6.2-18.6 6.8-3.4 15.2-.7 18.6 6.2 3.4 6.8.7 15.2-6.2 18.6l-6.9 3.5 20.1 3.7 9.2-50.1-56.2-10.3-9.3 50zM401.4 212l27.9 11.1 25.7-77.3-40.1-7.4zM416 132.6l40.9 7.5 16.2-48.7-47.9-8.8zM393.1 256.7l24 3.2 10.4-31.2-27.2-10.8zM341.6 188.4l54.2 21.4 13.3-72.4-56.2-10.4z"/>
        <ellipse transform="rotate(-71.627 390.767 111.976)" class="st10" cx="390.7" cy="112" rx="5.9" ry="5.9"/>
        <path class="st11" d="M431.8 46.7l-5.7-1.9-5.7 30.9-79-14.5-1.9 5.7 17.8 3.3-9.2 50.1-24.8-4.5-1.9 5.6 25.6 4.7-11 60.1-31.9-12.6-1.9 5.6 32.7 12.9-7.9 42.7 5.7 1.9 7.8-42.3 54.2 21.4-7.2 39.1 5.7 1.9 7.1-38.8 27.2 10.7 1.9-5.6-28-11.1 13.5-73.6 40.1 7.4 1.9-5.7-40.9-7.5 9.2-50.1 47.9 8.8 1.9-5.7-48.7-9 5.5-29.9zm-36 163.1l-54.2-21.4 11.3-61.4 56.2 10.3-13.3 72.5zm14.4-78.3l-20.1-3.7-5.5 2.7-2.1-4.1-28.6-5.3 9.2-50.1 56.2 10.3-9.1 50.2z"/>
        <path class="st12" d="M403.1 105.8c-3.4-6.8-11.8-9.6-18.6-6.2-6.8 3.4-9.6 11.8-6.2 18.6l4.1 8.3 2.1 4.1 5.5-2.7 6.9-3.5c6.9-3.5 9.7-11.8 6.2-18.6zm-14.2 11.8c-3.1-1-4.8-4.4-3.7-7.4 1-3.1 4.4-4.8 7.4-3.7 3.1 1 4.8 4.4 3.7 7.4-1 3-4.3 4.7-7.4 3.7z"/>
    </g>
    <g class="st1">
        <path class="st2" d="M474.8 153.2c-.4 2.2-1 4.3-2.2 6.1-1.5 2.4-4 4.3-6.8 4.5s-6.5-2.1-7.8-4.8c-1.3-2.6-.8-5.6-.2-8.4.4-1.9.8-4 2.2-5.3 1.2-1.1 3.5-.6 5.2-.4 1.7.2 3.3.8 4.9 1.5 1.2.5 2.3.9 3.3 1.7 1 .8 1.7 2 1.7 3.3l-.3 1.8z"/>
    </g>
    <g class="st1">
        <path class="st2" d="M466.7 190.4c-1.7 2.2-3.7 4.1-6.2 5.5-3.2 1.8-7.2 2.4-10.7 1.2-3.5-1.3-6.2-4.7-6.2-8.4 0-3.6 2.2-8.1 4.4-10.8 1.6-1.9 3.3-3.9 5.7-4.5 2.1-.5 4.6 1.5 6.5 2.7 1.8 1.1 3.3 2.7 4.8 4.3 1.1 1.2 2.2 2.3 2.9 3.8s.7 3.1.1 4.6l-1.3 1.6z"/>
    </g>
    <path class="st8" d="M417.1 259.9l-127.3-43.4 7.6 17.1 43.7 16.8 58.7 19.5 14.5-6.6z"/>
    <path class="st13" d="M292.3 209l63.5-191.1c4.5-13.7 19.3-21.1 33-16.5L463 26"/>
    <path class="st14" d="M-620.9 370h1810v70h-1810z"/>
</svg>
