<svg width="800" height="194" viewBox="0 0 800 194" xmlns="http://www.w3.org/2000/svg" xmlns:xlink="http://www.w3.org/1999/xlink" style="background:#fcfbf8">
    <title>
        2-1-chicken crossing-2
    </title>
    <defs>
        <rect id="a" width="137" height="82" rx="8"/>
        <rect id="b" y="112" width="137" height="82" rx="8"/>
        <rect id="c" x="166" width="137" height="82" rx="8"/>
        <rect id="d" x="166" y="112" width="137" height="82" rx="8"/>
        <rect id="e" x="332" width="137" height="82" rx="8"/>
        <rect id="f" x="332" y="112" width="137" height="82" rx="8"/>
        <rect id="g" x="498" width="137" height="82" rx="8"/>
        <rect id="h" x="498" y="112" width="137" height="82" rx="8"/>
        <rect id="i" x="663" width="137" height="82" rx="8"/>
        <rect id="j" x="663" y="112" width="137" height="82" rx="8"/>
    </defs>
    <g fill="none" fill-rule="evenodd">
        <use fill="#FFF" xlink:href="#a"/>
        <rect stroke="#CDCCE2" stroke-width="2" x="1" y="1" width="135" height="80" rx="8"/>
        <path d="M63.534 26.492c.914-3.593 1.377-6.084 1.466-9.731.02-.612-.679-.98-1.177-.618l-4.828 3.498c-.747.542-1.712.7-2.591.415-1.075-.35-2.224-.538-3.416-.538-1.187 0-2.33.187-3.402.533-.879.284-1.842.126-2.589-.415l-4.82-3.493c-.498-.361-1.197.006-1.177.618.09 3.647.552 6.138 1.466 9.73.07.276.061.565-.02.837-.293.983-.45 2.025-.45 3.103 0 1.748.414 3.401 1.15 4.866.737 1.465 2.949 1.425 4.238 2.423 1.864 1.444 3.056 3.623 5.604 3.623 1.34 0 2.536-1.093 3.723-1.528 2.542-.932 4.73-1.917 5.989-4.267.817-1.527 1.28-3.268 1.28-5.117 0-1.218-.11-2.109-.48-3.202-.054-.18-.059-.371-.012-.553l.046-.184z" fill="#FF6700"/>
        <path d="M58.493 31.426c.112.574-.408 1.158-1.16 1.305-.753.148-1.453-.198-1.564-.77-.111-.574.408-1.159 1.16-1.306.753-.147 1.453.198 1.564.771M47.408 31.426c-.11.574.409 1.158 1.16 1.305.753.148 1.453-.198 1.565-.77.11-.574-.409-1.159-1.16-1.306-.753-.147-1.453.198-1.565.771" fill="#35342F"/>
        <path d="M51.246 42.025c.035-.01.44-.009.475-.019 0-7.855-8.95-7.383-8.95-7.383s.349 1.718 2.015 3.762c.658.807 1.718 1.301 2.71 1.631.088.03.377.117.43.133 1.51.45 2.61.754 3.32 1.876M54.656 42.025c-.036-.01-.44-.009-.476-.019 0-7.855 8.951-7.383 8.951-7.383s-.349 1.718-2.016 3.762c-.658.807-1.717 1.301-2.71 1.631-.088.03-.376.117-.43.133-1.51.45-2.61.754-3.319 1.876" fill="#EAE5C7"/>
        <path d="M54.967 40.953c0 1.13-.925 2.047-2.065 2.047-1.141 0-2.066-.916-2.066-2.047 0-1.13.444-2.047 2.066-2.047 1.621 0 2.065.917 2.065 2.047" fill="#35342F"/>
        <path d="M43.67 24.854c.412-.678 1.234-1.825 2.64-2.988.267-.22.264-.63-.01-.844l-2.754-2.15c-.47-.367-1.147.023-1.064.611l.753 5.282c.031.219.32.278.436.089M62.133 24.854c-.411-.678-1.234-1.825-2.64-2.988-.267-.22-.264-.63.01-.844l2.754-2.15c.47-.367 1.147.023 1.064.611l-.753 5.282c-.03.219-.32.278-.435.089" fill="#C94401"/>
        <path d="M84.296 19.35c-.083-1.448-.326-2.953-1.604-3.826-1.246-.852-2.856-.622-3.938.38-.928.859.454 2.251 1.378 1.395.46-.425 1.135-.45 1.612-.034.557.484.563 1.405.602 2.085.072 1.262 2.022 1.271 1.95 0" fill="#FFA350"/>
        <path d="M85.31 19.582c.17-.856.53-2.981 1.853-2.57 1.203.375 1.718-1.52.519-1.894-1.09-.339-2.276.076-3.016.929-.74.852-1.024 1.928-1.238 3.013-.103.52.147 1.06.681 1.208.48.133 1.098-.163 1.201-.686" fill="#FFA350"/>
        <path d="M96 30.9C96 37.583 90.627 43 84 43s-12-5.417-12-12.1 5.373-12.1 12-12.1 12 5.417 12 12.1" fill="#FFD13E"/>
        <path d="M86.774 36.359l-1.812 1.837c-.531.539-1.393.539-1.924 0l-1.812-1.837c-.758-.768-.383-2.082.663-2.32 1.39-.318 2.832-.318 4.222 0 1.046.238 1.42 1.552.663 2.32" fill="#F48C00"/>
        <path d="M81.223 28.35c0 .635-.51 1.15-1.14 1.15-.63 0-1.14-.515-1.14-1.15 0-.635.51-1.15 1.14-1.15.63 0 1.14.515 1.14 1.15M89.058 28.35c0 .635-.51 1.15-1.14 1.15-.63 0-1.141-.515-1.141-1.15 0-.635.51-1.15 1.14-1.15.63 0 1.14.515 1.14 1.15" fill="#662113"/>
        <path d="M15 29.393c0 1.519-.895 2.75-2 2.75s-2-1.231-2-2.75.896-2.75 2-2.75c1.105 0 2 1.231 2 2.75" fill="#4844A3"/>
        <path d="M34.2 29c0-6.075-5.014-11-11.2-11-4.523 0-8.42 2.633-10.188 6.424-.65 1.393-1.012 2.943-1.012 4.576 0 1.52.314 2.968.882 4.284.932 2.163 2.55 3.971 4.584 5.165C18.943 39.433 20.904 40 23 40c2.134 0 4.129-.587 5.826-1.604C32.048 36.464 34.2 32.979 34.2 29z" fill="#88C1FF"/>
        <path d="M33.4 32.929c-.884 0-1.6-1.583-1.6-3.536s.716-3.536 1.6-3.536c.883 0 1.6 1.583 1.6 3.536s-.716 3.535-1.6 3.535z" fill="#4844A3"/>
        <path d="M34.2 31.357c-.442 0-.8-.88-.8-1.964 0-1.085.358-1.965.8-1.964.442 0 .8.879.8 1.964s-.358 1.964-.8 1.964" fill="#88C1FF"/>
        <path d="M26.123 28.487l.073.838c.055.633-.436 1.19-1.098 1.242-.661.053-1.243-.417-1.298-1.05l.028-.955s.07-1.052.997-1.126c.9-.072 1.242.417 1.298 1.05" fill="#0B0146"/>
        <path d="M24.422 29.096c.025.233.14.443.327.595.19.154.433.228.682.209.514-.042.898-.476.855-.969l-.077-.878c-.025-.286-.11-.499-.252-.633-.16-.15-.415-.213-.758-.186-.657.053-.742.813-.748.889l-.029.973zm.973 1.475c-.378 0-.74-.125-1.032-.36-.326-.262-.526-.63-.561-1.035l-.002-.017.03-1.033c.033-.475.358-1.395 1.357-1.475.546-.043.977.079 1.281.363.26.241.41.587.449 1.027l.077.882c.074.836-.582 1.573-1.462 1.643-.046.004-.091.005-.137.005z" fill="#FFF"/>
        <path d="M20.523 28.487l.073.838c.055.633-.436 1.19-1.098 1.242-.661.053-1.243-.417-1.298-1.05l.028-.955s.07-1.052.997-1.126c.9-.072 1.242.417 1.298 1.05" fill="#0B0146"/>
        <path d="M18.022 29.096c.025.233.14.443.327.595.19.154.433.228.682.209.514-.042.898-.476.855-.969l-.077-.878c-.025-.286-.11-.499-.252-.633-.16-.15-.416-.213-.758-.186-.657.053-.742.813-.748.889l-.029.973zm.973 1.475c-.378 0-.74-.125-1.032-.36-.326-.262-.526-.63-.561-1.035l-.002-.017.03-1.033c.033-.475.358-1.395 1.357-1.475.546-.043.977.079 1.281.363.26.241.41.587.449 1.027l.077.882c.074.836-.582 1.573-1.462 1.643-.046.004-.091.005-.137.005z" fill="#FFF"/>
        <path d="M117.138 19.764h-2.566l2.4-2.434c.848-.86.248-2.33-.951-2.33h-4.015c-1.2 0-1.8 1.47-.952 2.33l2.4 2.434h-2.542c-4.922 0-8.912 4.036-8.912 9.015v6.272c0 4.942 3.968 8.949 8.862 8.949h6.276c4.894 0 8.862-4.007 8.862-8.95v-6.337c0-4.942-3.968-8.949-8.862-8.949" fill="#FFC07F"/>
        <g fill="#29264C">
            <path d="M111.72 53l5.06 9.12V53H120v14h-3.38l-5.04-9v9h-3.24V53zM81.72 53l5.06 9.12V53H90v14h-3.38l-5.04-9v9h-3.24V53zM50.72 53l5.06 9.12V53H59v14h-3.38l-5.04-9v9h-3.24V53zM20.72 53l5.06 9.12V53H29v14h-3.38l-5.04-9v9h-3.24V53z"/>
        </g>
        <use fill="#FFF" xlink:href="#b"/>
        <rect stroke="#CDCCE2" stroke-width="2" x="1" y="113" width="135" height="80" rx="8"/>
        <path d="M63.534 138.492c.914-3.593 1.377-6.084 1.466-9.731.02-.612-.679-.98-1.177-.618l-4.828 3.498c-.747.542-1.712.7-2.591.415-1.075-.35-2.224-.538-3.416-.538-1.187 0-2.33.187-3.402.533-.879.284-1.842.126-2.589-.415l-4.82-3.493c-.498-.361-1.197.006-1.177.618.09 3.647.552 6.138 1.466 9.73.07.276.061.565-.02.837-.293.983-.45 2.025-.45 3.103 0 1.748.414 3.401 1.15 4.866.737 1.465 2.949 1.425 4.238 2.423 1.864 1.444 3.056 3.623 5.604 3.623 1.34 0 2.536-1.093 3.723-1.528 2.542-.932 4.73-1.917 5.989-4.267.817-1.527 1.28-3.268 1.28-5.117 0-1.218-.11-2.109-.48-3.202-.054-.18-.059-.371-.012-.553l.046-.184z" fill="#FF6700"/>
        <path d="M58.493 143.426c.112.574-.408 1.158-1.16 1.305-.753.148-1.453-.198-1.564-.77-.111-.574.408-1.159 1.16-1.306.753-.147 1.453.198 1.564.771M47.408 143.426c-.11.574.409 1.158 1.16 1.305.753.148 1.453-.198 1.565-.77.11-.574-.409-1.159-1.16-1.306-.753-.147-1.453.198-1.565.771" fill="#35342F"/>
        <path d="M51.246 154.025c.035-.01.44-.009.475-.019 0-7.855-8.95-7.383-8.95-7.383s.349 1.718 2.015 3.762c.658.807 1.718 1.301 2.71 1.631.088.03.377.117.43.133 1.51.45 2.61.754 3.32 1.876M54.656 154.025c-.036-.01-.44-.009-.476-.019 0-7.855 8.951-7.383 8.951-7.383s-.349 1.718-2.016 3.762c-.658.807-1.717 1.301-2.71 1.631-.088.03-.376.117-.43.133-1.51.45-2.61.754-3.319 1.876" fill="#EAE5C7"/>
        <path d="M54.967 152.953c0 1.13-.925 2.047-2.065 2.047-1.141 0-2.066-.916-2.066-2.047 0-1.13.444-2.047 2.066-2.047 1.621 0 2.065.917 2.065 2.047" fill="#35342F"/>
        <path d="M43.67 136.854c.412-.678 1.234-1.825 2.64-2.988.267-.22.264-.63-.01-.844l-2.754-2.15c-.47-.367-1.147.023-1.064.611l.753 5.282c.031.219.32.278.436.089M62.133 136.854c-.411-.678-1.234-1.825-2.64-2.988-.267-.22-.264-.63.01-.844l2.754-2.15c.47-.367 1.147.023 1.064.611l-.753 5.282c-.03.219-.32.278-.435.089" fill="#C94401"/>
        <path d="M84.296 131.35c-.083-1.448-.326-2.953-1.604-3.826-1.246-.852-2.856-.622-3.938.38-.928.859.454 2.251 1.378 1.395.46-.425 1.135-.45 1.612-.034.557.484.563 1.405.602 2.085.072 1.262 2.022 1.271 1.95 0" fill="#FFA350"/>
        <path d="M85.31 131.582c.17-.856.53-2.981 1.853-2.57 1.203.375 1.718-1.52.519-1.894-1.09-.339-2.276.076-3.016.929-.74.852-1.024 1.928-1.238 3.013-.103.52.147 1.06.681 1.208.48.133 1.098-.163 1.201-.686" fill="#FFA350"/>
        <path d="M96 142.9c0 6.683-5.373 12.1-12 12.1s-12-5.417-12-12.1 5.373-12.1 12-12.1 12 5.417 12 12.1" fill="#FFD13E"/>
        <path d="M86.774 148.359l-1.812 1.837c-.531.539-1.393.539-1.924 0l-1.812-1.837c-.758-.768-.383-2.082.663-2.32 1.39-.318 2.832-.318 4.222 0 1.046.238 1.42 1.552.663 2.32" fill="#F48C00"/>
        <path d="M81.223 140.35c0 .635-.51 1.15-1.14 1.15-.63 0-1.14-.515-1.14-1.15 0-.635.51-1.15 1.14-1.15.63 0 1.14.515 1.14 1.15M89.058 140.35c0 .635-.51 1.15-1.14 1.15-.63 0-1.141-.515-1.141-1.15 0-.635.51-1.15 1.14-1.15.63 0 1.14.515 1.14 1.15" fill="#662113"/>
        <path d="M15 141.393c0 1.519-.895 2.75-2 2.75s-2-1.231-2-2.75.896-2.75 2-2.75c1.105 0 2 1.231 2 2.75" fill="#4844A3"/>
        <path d="M34.2 141c0-6.075-5.014-11-11.2-11-4.523 0-8.42 2.633-10.188 6.424-.65 1.393-1.012 2.943-1.012 4.576 0 1.52.314 2.968.882 4.284.932 2.163 2.55 3.971 4.584 5.165C18.943 151.433 20.904 152 23 152c2.134 0 4.129-.587 5.826-1.604 3.222-1.932 5.374-5.417 5.374-9.396z" fill="#88C1FF"/>
        <path d="M33.4 144.929c-.884 0-1.6-1.583-1.6-3.536s.716-3.536 1.6-3.536c.883 0 1.6 1.583 1.6 3.536s-.716 3.535-1.6 3.535z" fill="#4844A3"/>
        <path d="M34.2 143.357c-.442 0-.8-.88-.8-1.964 0-1.085.358-1.965.8-1.964.442 0 .8.879.8 1.964s-.358 1.964-.8 1.964" fill="#88C1FF"/>
        <path d="M26.123 140.487l.073.838c.055.633-.436 1.19-1.098 1.242-.661.053-1.243-.417-1.298-1.05l.028-.955s.07-1.052.997-1.126c.9-.072 1.242.417 1.298 1.05" fill="#0B0146"/>
        <path d="M24.422 141.096c.025.233.14.443.327.595.19.154.433.228.682.209.514-.042.898-.476.855-.969l-.077-.878c-.025-.286-.11-.499-.252-.633-.16-.15-.415-.213-.758-.186-.657.053-.742.813-.748.889l-.029.973zm.973 1.475c-.378 0-.74-.125-1.032-.36-.326-.262-.526-.63-.561-1.035l-.002-.017.03-1.033c.033-.475.358-1.395 1.357-1.475.546-.043.977.079 1.281.363.26.241.41.587.449 1.027l.077.882c.074.836-.582 1.573-1.462 1.643-.046.004-.091.005-.137.005z" fill="#FFF"/>
        <path d="M20.523 140.487l.073.838c.055.633-.436 1.19-1.098 1.242-.661.053-1.243-.417-1.298-1.05l.028-.955s.07-1.052.997-1.126c.9-.072 1.242.417 1.298 1.05" fill="#0B0146"/>
        <path d="M18.022 141.096c.025.233.14.443.327.595.19.154.433.228.682.209.514-.042.898-.476.855-.969l-.077-.878c-.025-.286-.11-.499-.252-.633-.16-.15-.416-.213-.758-.186-.657.053-.742.813-.748.889l-.029.973zm.973 1.475c-.378 0-.74-.125-1.032-.36-.326-.262-.526-.63-.561-1.035l-.002-.017.03-1.033c.033-.475.358-1.395 1.357-1.475.546-.043.977.079 1.281.363.26.241.41.587.449 1.027l.077.882c.074.836-.582 1.573-1.462 1.643-.046.004-.091.005-.137.005z" fill="#FFF"/>
        <path d="M117.138 131.764h-2.566l2.4-2.434c.848-.86.248-2.33-.951-2.33h-4.015c-1.2 0-1.8 1.47-.952 2.33l2.4 2.434h-2.542c-4.922 0-8.912 4.036-8.912 9.015v6.272c0 4.942 3.968 8.949 8.862 8.949h6.276c4.894 0 8.862-4.007 8.862-8.95v-6.337c0-4.942-3.968-8.949-8.862-8.949" fill="#FFC07F"/>
        <g fill="#29264C">
            <path d="M111.72 165l5.06 9.12V165H120v14h-3.38l-5.04-9v9h-3.24v-14zM87.269 167.72h-5.3v3.78h5.3v2.66h-5.3V179h-3.24v-14h8.54zM50.72 165l5.06 9.12V165H59v14h-3.38l-5.04-9v9h-3.24v-14zM26.269 167.72h-5.3v3.78h5.3v2.66h-5.3V179h-3.24v-14h8.54z"/>
        </g>
        <use fill="#FFF" xlink:href="#c"/>
        <rect stroke="#CDCCE2" stroke-width="2" x="167" y="1" width="135" height="80" rx="8"/>
        <path d="M229.534 26.492c.914-3.593 1.377-6.084 1.466-9.731.02-.612-.679-.98-1.177-.618l-4.828 3.498c-.747.542-1.712.7-2.591.415-1.075-.35-2.224-.538-3.416-.538-1.187 0-2.33.187-3.402.533-.879.284-1.842.126-2.589-.415l-4.82-3.493c-.498-.361-1.197.006-1.177.618.09 3.647.552 6.138 1.466 9.73.07.276.061.565-.02.837-.293.983-.45 2.025-.45 3.103 0 1.748.414 3.401 1.15 4.866.737 1.465 2.949 1.425 4.238 2.423 1.864 1.444 3.056 3.623 5.604 3.623 1.34 0 2.536-1.093 3.723-1.528 2.542-.932 4.73-1.917 5.989-4.267.817-1.527 1.28-3.268 1.28-5.117 0-1.218-.11-2.109-.48-3.202-.054-.18-.059-.371-.012-.553l.046-.184z" fill="#FF6700"/>
        <path d="M224.493 31.426c.112.574-.408 1.158-1.16 1.305-.753.148-1.453-.198-1.564-.77-.111-.574.408-1.159 1.16-1.306.753-.147 1.453.198 1.564.771M213.408 31.426c-.11.574.409 1.158 1.16 1.305.753.148 1.453-.198 1.565-.77.11-.574-.409-1.159-1.16-1.306-.753-.147-1.453.198-1.565.771" fill="#35342F"/>
        <path d="M217.246 42.025c.035-.01.44-.009.475-.019 0-7.855-8.95-7.383-8.95-7.383s.349 1.718 2.015 3.762c.658.807 1.718 1.301 2.71 1.631.088.03.377.117.43.133 1.51.45 2.61.754 3.32 1.876M220.656 42.025c-.036-.01-.44-.009-.476-.019 0-7.855 8.951-7.383 8.951-7.383s-.349 1.718-2.016 3.762c-.658.807-1.717 1.301-2.71 1.631-.088.03-.376.117-.43.133-1.51.45-2.61.754-3.319 1.876" fill="#EAE5C7"/>
        <path d="M220.967 40.953c0 1.13-.925 2.047-2.065 2.047-1.141 0-2.066-.916-2.066-2.047 0-1.13.444-2.047 2.066-2.047 1.621 0 2.065.917 2.065 2.047" fill="#35342F"/>
        <path d="M209.67 24.854c.412-.678 1.234-1.825 2.64-2.988.267-.22.264-.63-.01-.844l-2.754-2.15c-.47-.367-1.147.023-1.064.611l.753 5.282c.031.219.32.278.436.089M228.133 24.854c-.411-.678-1.234-1.825-2.64-2.988-.267-.22-.264-.63.01-.844l2.754-2.15c.47-.367 1.147.023 1.064.611l-.753 5.282c-.03.219-.32.278-.435.089" fill="#C94401"/>
        <g>
            <path d="M250.296 19.35c-.083-1.448-.326-2.953-1.604-3.826-1.246-.852-2.856-.622-3.938.38-.928.859.454 2.251 1.378 1.395.46-.425 1.135-.45 1.612-.034.557.484.563 1.405.602 2.085.072 1.262 2.022 1.271 1.95 0" fill="#FFA350"/>
            <path d="M251.31 19.582c.17-.856.53-2.981 1.853-2.57 1.203.375 1.718-1.52.519-1.894-1.09-.339-2.276.076-3.016.929-.74.852-1.024 1.928-1.238 3.013-.103.52.147 1.06.681 1.208.48.133 1.098-.163 1.201-.686" fill="#FFA350"/>
            <path d="M262 30.9c0 6.683-5.373 12.1-12 12.1s-12-5.417-12-12.1 5.373-12.1 12-12.1 12 5.417 12 12.1" fill="#FFD13E"/>
            <path d="M252.774 36.359l-1.812 1.837c-.531.539-1.393.539-1.924 0l-1.812-1.837c-.758-.768-.383-2.082.663-2.32 1.39-.318 2.832-.318 4.222 0 1.046.238 1.42 1.552.663 2.32" fill="#F48C00"/>
            <path d="M247.223 28.35c0 .635-.51 1.15-1.14 1.15-.63 0-1.14-.515-1.14-1.15 0-.635.51-1.15 1.14-1.15.63 0 1.14.515 1.14 1.15M255.058 28.35c0 .635-.51 1.15-1.14 1.15-.63 0-1.141-.515-1.141-1.15 0-.635.51-1.15 1.14-1.15.63 0 1.14.515 1.14 1.15" fill="#662113"/>
        </g>
        <g>
            <path d="M181 29.393c0 1.519-.895 2.75-2 2.75s-2-1.231-2-2.75.896-2.75 2-2.75c1.105 0 2 1.231 2 2.75" fill="#4844A3"/>
            <path d="M200.2 29c0-6.075-5.014-11-11.2-11-4.523 0-8.42 2.633-10.188 6.424-.65 1.393-1.012 2.943-1.012 4.576 0 1.52.314 2.968.882 4.284.932 2.163 2.55 3.971 4.584 5.165C184.943 39.433 186.904 40 189 40c2.134 0 4.129-.587 5.826-1.604 3.222-1.932 5.374-5.417 5.374-9.396z" fill="#88C1FF"/>
            <path d="M199.4 32.929c-.884 0-1.6-1.583-1.6-3.536s.716-3.536 1.6-3.536c.883 0 1.6 1.583 1.6 3.536s-.716 3.535-1.6 3.535z" fill="#4844A3"/>
            <path d="M200.2 31.357c-.442 0-.8-.88-.8-1.964 0-1.085.358-1.965.8-1.964.442 0 .8.879.8 1.964s-.358 1.964-.8 1.964" fill="#88C1FF"/>
            <path d="M192.123 28.487l.073.838c.055.633-.436 1.19-1.098 1.242-.661.053-1.243-.417-1.298-1.05l.028-.955s.07-1.052.997-1.126c.9-.072 1.242.417 1.298 1.05" fill="#0B0146"/>
            <path d="M190.422 29.096c.025.233.14.443.327.595.19.154.433.228.682.209.514-.042.898-.476.855-.969l-.077-.878c-.025-.286-.11-.499-.252-.633-.16-.15-.415-.213-.758-.186-.657.053-.742.813-.748.889l-.029.973zm.973 1.475c-.378 0-.74-.125-1.032-.36-.326-.262-.526-.63-.561-1.035l-.002-.017.03-1.033c.033-.475.358-1.395 1.357-1.475.546-.043.977.079 1.281.363.26.241.41.587.449 1.027l.077.882c.074.836-.582 1.573-1.462 1.643-.046.004-.091.005-.137.005z" fill="#FFF"/>
            <path d="M186.523 28.487l.073.838c.055.633-.436 1.19-1.098 1.242-.661.053-1.243-.417-1.298-1.05l.028-.955s.07-1.052.997-1.126c.9-.072 1.242.417 1.298 1.05" fill="#0B0146"/>
            <path d="M184.022 29.096c.025.233.14.443.327.595.19.154.433.228.682.209.514-.042.898-.476.855-.969l-.077-.878c-.025-.286-.11-.499-.252-.633-.16-.15-.416-.213-.758-.186-.657.053-.742.813-.748.889l-.029.973zm.973 1.475c-.378 0-.74-.125-1.032-.36-.326-.262-.526-.63-.561-1.035l-.002-.017.03-1.033c.033-.475.358-1.395 1.357-1.475.546-.043.977.079 1.281.363.26.241.41.587.449 1.027l.077.882c.074.836-.582 1.573-1.462 1.643-.046.004-.091.005-.137.005z" fill="#FFF"/>
        </g>
        <path d="M283.138 19.764h-2.566l2.4-2.434c.848-.86.248-2.33-.951-2.33h-4.015c-1.2 0-1.8 1.47-.952 2.33l2.4 2.434h-2.542c-4.922 0-8.912 4.036-8.912 9.015v6.272c0 4.942 3.968 8.949 8.862 8.949h6.276c4.894 0 8.862-4.007 8.862-8.95v-6.337c0-4.942-3.968-8.949-8.862-8.949" fill="#FFC07F"/>
        <g fill="#29264C">
            <path d="M284 55.72h-5.585v3.78H284v2.66h-5.585V67H275V53h9zM247.479 53l5.207 9.12V53H256v14h-3.479l-5.187-9v9H244V53zM216.479 53l5.207 9.12V53H225v14h-3.479l-5.187-9v9H213V53zM186.479 53l5.207 9.12V53H195v14h-3.479l-5.187-9v9H183V53z"/>
        </g>
        <g>
            <use fill="#FFF" xlink:href="#d"/>
            <rect stroke="#CDCCE2" stroke-width="2" x="167" y="113" width="135" height="80" rx="8"/>
        </g>
        <g>
            <path d="M229.534 138.492c.914-3.593 1.377-6.084 1.466-9.731.02-.612-.679-.98-1.177-.618l-4.828 3.498c-.747.542-1.712.7-2.591.415-1.075-.35-2.224-.538-3.416-.538-1.187 0-2.33.187-3.402.533-.879.284-1.842.126-2.589-.415l-4.82-3.493c-.498-.361-1.197.006-1.177.618.09 3.647.552 6.138 1.466 9.73.07.276.061.565-.02.837-.293.983-.45 2.025-.45 3.103 0 1.748.414 3.401 1.15 4.866.737 1.465 2.949 1.425 4.238 2.423 1.864 1.444 3.056 3.623 5.604 3.623 1.34 0 2.536-1.093 3.723-1.528 2.542-.932 4.73-1.917 5.989-4.267.817-1.527 1.28-3.268 1.28-5.117 0-1.218-.11-2.109-.48-3.202-.054-.18-.059-.371-.012-.553l.046-.184z" fill="#FF6700"/>
            <path d="M224.493 143.426c.112.574-.408 1.158-1.16 1.305-.753.148-1.453-.198-1.564-.77-.111-.574.408-1.159 1.16-1.306.753-.147 1.453.198 1.564.771M213.408 143.426c-.11.574.409 1.158 1.16 1.305.753.148 1.453-.198 1.565-.77.11-.574-.409-1.159-1.16-1.306-.753-.147-1.453.198-1.565.771" fill="#35342F"/>
            <path d="M217.246 154.025c.035-.01.44-.009.475-.019 0-7.855-8.95-7.383-8.95-7.383s.349 1.718 2.015 3.762c.658.807 1.718 1.301 2.71 1.631.088.03.377.117.43.133 1.51.45 2.61.754 3.32 1.876M220.656 154.025c-.036-.01-.44-.009-.476-.019 0-7.855 8.951-7.383 8.951-7.383s-.349 1.718-2.016 3.762c-.658.807-1.717 1.301-2.71 1.631-.088.03-.376.117-.43.133-1.51.45-2.61.754-3.319 1.876" fill="#EAE5C7"/>
            <path d="M220.967 152.953c0 1.13-.925 2.047-2.065 2.047-1.141 0-2.066-.916-2.066-2.047 0-1.13.444-2.047 2.066-2.047 1.621 0 2.065.917 2.065 2.047" fill="#35342F"/>
            <path d="M209.67 136.854c.412-.678 1.234-1.825 2.64-2.988.267-.22.264-.63-.01-.844l-2.754-2.15c-.47-.367-1.147.023-1.064.611l.753 5.282c.031.219.32.278.436.089M228.133 136.854c-.411-.678-1.234-1.825-2.64-2.988-.267-.22-.264-.63.01-.844l2.754-2.15c.47-.367 1.147.023 1.064.611l-.753 5.282c-.03.219-.32.278-.435.089" fill="#C94401"/>
        </g>
        <g>
            <path d="M250.296 131.35c-.083-1.448-.326-2.953-1.604-3.826-1.246-.852-2.856-.622-3.938.38-.928.859.454 2.251 1.378 1.395.46-.425 1.135-.45 1.612-.034.557.484.563 1.405.602 2.085.072 1.262 2.022 1.271 1.95 0" fill="#FFA350"/>
            <path d="M251.31 131.582c.17-.856.53-2.981 1.853-2.57 1.203.375 1.718-1.52.519-1.894-1.09-.339-2.276.076-3.016.929-.74.852-1.024 1.928-1.238 3.013-.103.52.147 1.06.681 1.208.48.133 1.098-.163 1.201-.686" fill="#FFA350"/>
            <path d="M262 142.9c0 6.683-5.373 12.1-12 12.1s-12-5.417-12-12.1 5.373-12.1 12-12.1 12 5.417 12 12.1" fill="#FFD13E"/>
            <path d="M252.774 148.359l-1.812 1.837c-.531.539-1.393.539-1.924 0l-1.812-1.837c-.758-.768-.383-2.082.663-2.32 1.39-.318 2.832-.318 4.222 0 1.046.238 1.42 1.552.663 2.32" fill="#F48C00"/>
            <path d="M247.223 140.35c0 .635-.51 1.15-1.14 1.15-.63 0-1.14-.515-1.14-1.15 0-.635.51-1.15 1.14-1.15.63 0 1.14.515 1.14 1.15M255.058 140.35c0 .635-.51 1.15-1.14 1.15-.63 0-1.141-.515-1.141-1.15 0-.635.51-1.15 1.14-1.15.63 0 1.14.515 1.14 1.15" fill="#662113"/>
        </g>
        <g>
            <path d="M181 141.393c0 1.519-.895 2.75-2 2.75s-2-1.231-2-2.75.896-2.75 2-2.75c1.105 0 2 1.231 2 2.75" fill="#4844A3"/>
            <path d="M200.2 141c0-6.075-5.014-11-11.2-11-4.523 0-8.42 2.633-10.188 6.424-.65 1.393-1.012 2.943-1.012 4.576 0 1.52.314 2.968.882 4.284.932 2.163 2.55 3.971 4.584 5.165 1.677.984 3.638 1.551 5.734 1.551 2.134 0 4.129-.587 5.826-1.604 3.222-1.932 5.374-5.417 5.374-9.396z" fill="#88C1FF"/>
            <path d="M199.4 144.929c-.884 0-1.6-1.583-1.6-3.536s.716-3.536 1.6-3.536c.883 0 1.6 1.583 1.6 3.536s-.716 3.535-1.6 3.535z" fill="#4844A3"/>
            <path d="M200.2 143.357c-.442 0-.8-.88-.8-1.964 0-1.085.358-1.965.8-1.964.442 0 .8.879.8 1.964s-.358 1.964-.8 1.964" fill="#88C1FF"/>
            <path d="M192.123 140.487l.073.838c.055.633-.436 1.19-1.098 1.242-.661.053-1.243-.417-1.298-1.05l.028-.955s.07-1.052.997-1.126c.9-.072 1.242.417 1.298 1.05" fill="#0B0146"/>
            <path d="M190.422 141.096c.025.233.14.443.327.595.19.154.433.228.682.209.514-.042.898-.476.855-.969l-.077-.878c-.025-.286-.11-.499-.252-.633-.16-.15-.415-.213-.758-.186-.657.053-.742.813-.748.889l-.029.973zm.973 1.475c-.378 0-.74-.125-1.032-.36-.326-.262-.526-.63-.561-1.035l-.002-.017.03-1.033c.033-.475.358-1.395 1.357-1.475.546-.043.977.079 1.281.363.26.241.41.587.449 1.027l.077.882c.074.836-.582 1.573-1.462 1.643-.046.004-.091.005-.137.005z" fill="#FFF"/>
            <path d="M186.523 140.487l.073.838c.055.633-.436 1.19-1.098 1.242-.661.053-1.243-.417-1.298-1.05l.028-.955s.07-1.052.997-1.126c.9-.072 1.242.417 1.298 1.05" fill="#0B0146"/>
            <path d="M184.022 141.096c.025.233.14.443.327.595.19.154.433.228.682.209.514-.042.898-.476.855-.969l-.077-.878c-.025-.286-.11-.499-.252-.633-.16-.15-.416-.213-.758-.186-.657.053-.742.813-.748.889l-.029.973zm.973 1.475c-.378 0-.74-.125-1.032-.36-.326-.262-.526-.63-.561-1.035l-.002-.017.03-1.033c.033-.475.358-1.395 1.357-1.475.546-.043.977.079 1.281.363.26.241.41.587.449 1.027l.077.882c.074.836-.582 1.573-1.462 1.643-.046.004-.091.005-.137.005z" fill="#FFF"/>
        </g>
        <path d="M283.138 131.764h-2.566l2.4-2.434c.848-.86.248-2.33-.951-2.33h-4.015c-1.2 0-1.8 1.47-.952 2.33l2.4 2.434h-2.542c-4.922 0-8.912 4.036-8.912 9.015v6.272c0 4.942 3.968 8.949 8.862 8.949h6.276c4.894 0 8.862-4.007 8.862-8.95v-6.337c0-4.942-3.968-8.949-8.862-8.949" fill="#FFC07F"/>
        <g fill="#29264C">
            <path d="M283.269 167.72h-5.3v3.78h5.3v2.66h-5.3V179h-3.24v-14h8.54zM253.269 167.72h-5.3v3.78h5.3v2.66h-5.3V179h-3.24v-14h8.54zM216.72 165l5.06 9.12V165H225v14h-3.38l-5.04-9v9h-3.24v-14zM192.269 167.72h-5.3v3.78h5.3v2.66h-5.3V179h-3.24v-14h8.54z"/>
        </g>
        <g>
            <use fill="#FFF" xlink:href="#e"/>
            <rect stroke="#CDCCE2" stroke-width="2" x="333" y="1" width="135" height="80" rx="8"/>
        </g>
        <g>
            <path d="M395.534 26.492c.914-3.593 1.377-6.084 1.466-9.731.02-.612-.679-.98-1.177-.618l-4.828 3.498c-.747.542-1.712.7-2.591.415-1.075-.35-2.224-.538-3.416-.538-1.187 0-2.33.187-3.402.533-.879.284-1.842.126-2.589-.415l-4.82-3.493c-.498-.361-1.197.006-1.177.618.09 3.647.552 6.138 1.466 9.73.07.276.061.565-.02.837-.293.983-.45 2.025-.45 3.103 0 1.748.414 3.401 1.15 4.866.737 1.465 2.949 1.425 4.238 2.423 1.864 1.444 3.056 3.623 5.604 3.623 1.34 0 2.536-1.093 3.723-1.528 2.542-.932 4.73-1.917 5.989-4.267.817-1.527 1.28-3.268 1.28-5.117 0-1.218-.11-2.109-.48-3.202-.054-.18-.059-.371-.012-.553l.046-.184z" fill="#FF6700"/>
            <path d="M390.493 31.426c.112.574-.408 1.158-1.16 1.305-.753.148-1.453-.198-1.564-.77-.111-.574.408-1.159 1.16-1.306.753-.147 1.453.198 1.564.771M379.408 31.426c-.11.574.409 1.158 1.16 1.305.753.148 1.453-.198 1.565-.77.11-.574-.409-1.159-1.16-1.306-.753-.147-1.453.198-1.565.771" fill="#35342F"/>
            <path d="M383.246 42.025c.035-.01.44-.009.475-.019 0-7.855-8.95-7.383-8.95-7.383s.349 1.718 2.015 3.762c.658.807 1.718 1.301 2.71 1.631.088.03.377.117.43.133 1.51.45 2.61.754 3.32 1.876M386.656 42.025c-.036-.01-.44-.009-.476-.019 0-7.855 8.951-7.383 8.951-7.383s-.349 1.718-2.016 3.762c-.658.807-1.717 1.301-2.71 1.631-.088.03-.376.117-.43.133-1.51.45-2.61.754-3.319 1.876" fill="#EAE5C7"/>
            <path d="M386.967 40.953c0 1.13-.925 2.047-2.065 2.047-1.141 0-2.066-.916-2.066-2.047 0-1.13.444-2.047 2.066-2.047 1.621 0 2.065.917 2.065 2.047" fill="#35342F"/>
            <path d="M375.67 24.854c.412-.678 1.234-1.825 2.64-2.988.267-.22.264-.63-.01-.844l-2.754-2.15c-.47-.367-1.147.023-1.064.611l.753 5.282c.031.219.32.278.436.089M394.133 24.854c-.411-.678-1.234-1.825-2.64-2.988-.267-.22-.264-.63.01-.844l2.754-2.15c.47-.367 1.147.023 1.064.611l-.753 5.282c-.03.219-.32.278-.435.089" fill="#C94401"/>
        </g>
        <g>
            <path d="M416.296 19.35c-.083-1.448-.326-2.953-1.604-3.826-1.246-.852-2.856-.622-3.938.38-.928.859.454 2.251 1.378 1.395.46-.425 1.135-.45 1.612-.034.557.484.563 1.405.602 2.085.072 1.262 2.022 1.271 1.95 0" fill="#FFA350"/>
            <path d="M417.31 19.582c.17-.856.53-2.981 1.853-2.57 1.203.375 1.718-1.52.519-1.894-1.09-.339-2.276.076-3.016.929-.74.852-1.024 1.928-1.238 3.013-.103.52.147 1.06.681 1.208.48.133 1.098-.163 1.201-.686" fill="#FFA350"/>
            <path d="M428 30.9c0 6.683-5.373 12.1-12 12.1s-12-5.417-12-12.1 5.373-12.1 12-12.1 12 5.417 12 12.1" fill="#FFD13E"/>
            <path d="M418.774 36.359l-1.812 1.837c-.531.539-1.393.539-1.924 0l-1.812-1.837c-.758-.768-.383-2.082.663-2.32 1.39-.318 2.832-.318 4.222 0 1.046.238 1.42 1.552.663 2.32" fill="#F48C00"/>
            <path d="M413.223 28.35c0 .635-.51 1.15-1.14 1.15-.63 0-1.14-.515-1.14-1.15 0-.635.51-1.15 1.14-1.15.63 0 1.14.515 1.14 1.15M421.058 28.35c0 .635-.51 1.15-1.14 1.15-.63 0-1.141-.515-1.141-1.15 0-.635.51-1.15 1.14-1.15.63 0 1.14.515 1.14 1.15" fill="#662113"/>
        </g>
        <g>
            <path d="M347 29.393c0 1.519-.895 2.75-2 2.75s-2-1.231-2-2.75.896-2.75 2-2.75c1.105 0 2 1.231 2 2.75" fill="#4844A3"/>
            <path d="M366.2 29c0-6.075-5.014-11-11.2-11-4.523 0-8.42 2.633-10.188 6.424-.65 1.393-1.012 2.943-1.012 4.576 0 1.52.314 2.968.882 4.284.932 2.163 2.55 3.971 4.584 5.165C350.943 39.433 352.904 40 355 40c2.134 0 4.129-.587 5.826-1.604 3.222-1.932 5.374-5.417 5.374-9.396z" fill="#88C1FF"/>
            <path d="M365.4 32.929c-.884 0-1.6-1.583-1.6-3.536s.716-3.536 1.6-3.536c.883 0 1.6 1.583 1.6 3.536s-.716 3.535-1.6 3.535z" fill="#4844A3"/>
            <path d="M366.2 31.357c-.442 0-.8-.88-.8-1.964 0-1.085.358-1.965.8-1.964.442 0 .8.879.8 1.964s-.358 1.964-.8 1.964" fill="#88C1FF"/>
            <path d="M358.123 28.487l.073.838c.055.633-.436 1.19-1.098 1.242-.661.053-1.243-.417-1.298-1.05l.028-.955s.07-1.052.997-1.126c.9-.072 1.242.417 1.298 1.05" fill="#0B0146"/>
            <path d="M356.422 29.096c.025.233.14.443.327.595.19.154.433.228.682.209.514-.042.898-.476.855-.969l-.077-.878c-.025-.286-.11-.499-.252-.633-.16-.15-.415-.213-.758-.186-.657.053-.742.813-.748.889l-.029.973zm.973 1.475c-.378 0-.74-.125-1.032-.36-.326-.262-.526-.63-.561-1.035l-.002-.017.03-1.033c.033-.475.358-1.395 1.357-1.475.546-.043.977.079 1.281.363.26.241.41.587.449 1.027l.077.882c.074.836-.582 1.573-1.462 1.643-.046.004-.091.005-.137.005z" fill="#FFF"/>
            <path d="M352.523 28.487l.073.838c.055.633-.436 1.19-1.098 1.242-.661.053-1.243-.417-1.298-1.05l.028-.955s.07-1.052.997-1.126c.9-.072 1.242.417 1.298 1.05" fill="#0B0146"/>
            <path d="M350.022 29.096c.025.233.14.443.327.595.19.154.433.228.682.209.514-.042.898-.476.855-.969l-.077-.878c-.025-.286-.11-.499-.252-.633-.16-.15-.416-.213-.758-.186-.657.053-.742.813-.748.889l-.029.973zm.973 1.475c-.378 0-.74-.125-1.032-.36-.326-.262-.526-.63-.561-1.035l-.002-.017.03-1.033c.033-.475.358-1.395 1.357-1.475.546-.043.977.079 1.281.363.26.241.41.587.449 1.027l.077.882c.074.836-.582 1.573-1.462 1.643-.046.004-.091.005-.137.005z" fill="#FFF"/>
        </g>
        <path d="M449.138 19.764h-2.566l2.4-2.434c.848-.86.248-2.33-.951-2.33h-4.015c-1.2 0-1.8 1.47-.952 2.33l2.4 2.434h-2.542c-4.922 0-8.912 4.036-8.912 9.015v6.272c0 4.942 3.968 8.949 8.862 8.949h6.276c4.894 0 8.862-4.007 8.862-8.95v-6.337c0-4.942-3.968-8.949-8.862-8.949" fill="#FFC07F"/>
        <g fill="#29264C">
            <path d="M443.72 53l5.06 9.12V53H452v14h-3.38l-5.04-9v9h-3.24V53zM419.269 55.72h-5.3v3.78h5.3v2.66h-5.3V67h-3.24V53h8.54zM382.72 53l5.06 9.12V53H391v14h-3.38l-5.04-9v9h-3.24V53zM352.72 53l5.06 9.12V53H361v14h-3.38l-5.04-9v9h-3.24V53z"/>
        </g>
        <g>
            <use fill="#FFF" xlink:href="#f"/>
            <rect stroke="#CDCCE2" stroke-width="2" x="333" y="113" width="135" height="80" rx="8"/>
        </g>
        <g>
            <path d="M395.534 138.492c.914-3.593 1.377-6.084 1.466-9.731.02-.612-.679-.98-1.177-.618l-4.828 3.498c-.747.542-1.712.7-2.591.415-1.075-.35-2.224-.538-3.416-.538-1.187 0-2.33.187-3.402.533-.879.284-1.842.126-2.589-.415l-4.82-3.493c-.498-.361-1.197.006-1.177.618.09 3.647.552 6.138 1.466 9.73.07.276.061.565-.02.837-.293.983-.45 2.025-.45 3.103 0 1.748.414 3.401 1.15 4.866.737 1.465 2.949 1.425 4.238 2.423 1.864 1.444 3.056 3.623 5.604 3.623 1.34 0 2.536-1.093 3.723-1.528 2.542-.932 4.73-1.917 5.989-4.267.817-1.527 1.28-3.268 1.28-5.117 0-1.218-.11-2.109-.48-3.202-.054-.18-.059-.371-.012-.553l.046-.184z" fill="#FF6700"/>
            <path d="M390.493 143.426c.112.574-.408 1.158-1.16 1.305-.753.148-1.453-.198-1.564-.77-.111-.574.408-1.159 1.16-1.306.753-.147 1.453.198 1.564.771M379.408 143.426c-.11.574.409 1.158 1.16 1.305.753.148 1.453-.198 1.565-.77.11-.574-.409-1.159-1.16-1.306-.753-.147-1.453.198-1.565.771" fill="#35342F"/>
            <path d="M383.246 154.025c.035-.01.44-.009.475-.019 0-7.855-8.95-7.383-8.95-7.383s.349 1.718 2.015 3.762c.658.807 1.718 1.301 2.71 1.631.088.03.377.117.43.133 1.51.45 2.61.754 3.32 1.876M386.656 154.025c-.036-.01-.44-.009-.476-.019 0-7.855 8.951-7.383 8.951-7.383s-.349 1.718-2.016 3.762c-.658.807-1.717 1.301-2.71 1.631-.088.03-.376.117-.43.133-1.51.45-2.61.754-3.319 1.876" fill="#EAE5C7"/>
            <path d="M386.967 152.953c0 1.13-.925 2.047-2.065 2.047-1.141 0-2.066-.916-2.066-2.047 0-1.13.444-2.047 2.066-2.047 1.621 0 2.065.917 2.065 2.047" fill="#35342F"/>
            <path d="M375.67 136.854c.412-.678 1.234-1.825 2.64-2.988.267-.22.264-.63-.01-.844l-2.754-2.15c-.47-.367-1.147.023-1.064.611l.753 5.282c.031.219.32.278.436.089M394.133 136.854c-.411-.678-1.234-1.825-2.64-2.988-.267-.22-.264-.63.01-.844l2.754-2.15c.47-.367 1.147.023 1.064.611l-.753 5.282c-.03.219-.32.278-.435.089" fill="#C94401"/>
        </g>
        <g>
            <path d="M416.296 131.35c-.083-1.448-.326-2.953-1.604-3.826-1.246-.852-2.856-.622-3.938.38-.928.859.454 2.251 1.378 1.395.46-.425 1.135-.45 1.612-.034.557.484.563 1.405.602 2.085.072 1.262 2.022 1.271 1.95 0" fill="#FFA350"/>
            <path d="M417.31 131.582c.17-.856.53-2.981 1.853-2.57 1.203.375 1.718-1.52.519-1.894-1.09-.339-2.276.076-3.016.929-.74.852-1.024 1.928-1.238 3.013-.103.52.147 1.06.681 1.208.48.133 1.098-.163 1.201-.686" fill="#FFA350"/>
            <path d="M428 142.9c0 6.683-5.373 12.1-12 12.1s-12-5.417-12-12.1 5.373-12.1 12-12.1 12 5.417 12 12.1" fill="#FFD13E"/>
            <path d="M418.774 148.359l-1.812 1.837c-.531.539-1.393.539-1.924 0l-1.812-1.837c-.758-.768-.383-2.082.663-2.32 1.39-.318 2.832-.318 4.222 0 1.046.238 1.42 1.552.663 2.32" fill="#F48C00"/>
            <path d="M413.223 140.35c0 .635-.51 1.15-1.14 1.15-.63 0-1.14-.515-1.14-1.15 0-.635.51-1.15 1.14-1.15.63 0 1.14.515 1.14 1.15M421.058 140.35c0 .635-.51 1.15-1.14 1.15-.63 0-1.141-.515-1.141-1.15 0-.635.51-1.15 1.14-1.15.63 0 1.14.515 1.14 1.15" fill="#662113"/>
        </g>
        <g>
            <path d="M347 141.393c0 1.519-.895 2.75-2 2.75s-2-1.231-2-2.75.896-2.75 2-2.75c1.105 0 2 1.231 2 2.75" fill="#4844A3"/>
            <path d="M366.2 141c0-6.075-5.014-11-11.2-11-4.523 0-8.42 2.633-10.188 6.424-.65 1.393-1.012 2.943-1.012 4.576 0 1.52.314 2.968.882 4.284.932 2.163 2.55 3.971 4.584 5.165 1.677.984 3.638 1.551 5.734 1.551 2.134 0 4.129-.587 5.826-1.604 3.222-1.932 5.374-5.417 5.374-9.396z" fill="#88C1FF"/>
            <path d="M365.4 144.929c-.884 0-1.6-1.583-1.6-3.536s.716-3.536 1.6-3.536c.883 0 1.6 1.583 1.6 3.536s-.716 3.535-1.6 3.535z" fill="#4844A3"/>
            <path d="M366.2 143.357c-.442 0-.8-.88-.8-1.964 0-1.085.358-1.965.8-1.964.442 0 .8.879.8 1.964s-.358 1.964-.8 1.964" fill="#88C1FF"/>
            <path d="M358.123 140.487l.073.838c.055.633-.436 1.19-1.098 1.242-.661.053-1.243-.417-1.298-1.05l.028-.955s.07-1.052.997-1.126c.9-.072 1.242.417 1.298 1.05" fill="#0B0146"/>
            <path d="M356.422 141.096c.025.233.14.443.327.595.19.154.433.228.682.209.514-.042.898-.476.855-.969l-.077-.878c-.025-.286-.11-.499-.252-.633-.16-.15-.415-.213-.758-.186-.657.053-.742.813-.748.889l-.029.973zm.973 1.475c-.378 0-.74-.125-1.032-.36-.326-.262-.526-.63-.561-1.035l-.002-.017.03-1.033c.033-.475.358-1.395 1.357-1.475.546-.043.977.079 1.281.363.26.241.41.587.449 1.027l.077.882c.074.836-.582 1.573-1.462 1.643-.046.004-.091.005-.137.005z" fill="#FFF"/>
            <path d="M352.523 140.487l.073.838c.055.633-.436 1.19-1.098 1.242-.661.053-1.243-.417-1.298-1.05l.028-.955s.07-1.052.997-1.126c.9-.072 1.242.417 1.298 1.05" fill="#0B0146"/>
            <path d="M350.022 141.096c.025.233.14.443.327.595.19.154.433.228.682.209.514-.042.898-.476.855-.969l-.077-.878c-.025-.286-.11-.499-.252-.633-.16-.15-.416-.213-.758-.186-.657.053-.742.813-.748.889l-.029.973zm.973 1.475c-.378 0-.74-.125-1.032-.36-.326-.262-.526-.63-.561-1.035l-.002-.017.03-1.033c.033-.475.358-1.395 1.357-1.475.546-.043.977.079 1.281.363.26.241.41.587.449 1.027l.077.882c.074.836-.582 1.573-1.462 1.643-.046.004-.091.005-.137.005z" fill="#FFF"/>
        </g>
        <path d="M449.138 131.764h-2.566l2.4-2.434c.848-.86.248-2.33-.951-2.33h-4.015c-1.2 0-1.8 1.47-.952 2.33l2.4 2.434h-2.542c-4.922 0-8.912 4.036-8.912 9.015v6.272c0 4.942 3.968 8.949 8.862 8.949h6.276c4.894 0 8.862-4.007 8.862-8.95v-6.337c0-4.942-3.968-8.949-8.862-8.949" fill="#FFC07F"/>
        <g>
            <use fill="#FFF" xlink:href="#g"/>
            <rect stroke="#CDCCE2" stroke-width="2" x="499" y="1" width="135" height="80" rx="8"/>
        </g>
        <g>
            <path d="M561.534 26.492c.914-3.593 1.377-6.084 1.466-9.731.02-.612-.679-.98-1.177-.618l-4.828 3.498c-.747.542-1.712.7-2.591.415-1.075-.35-2.224-.538-3.416-.538-1.187 0-2.33.187-3.402.533-.879.284-1.842.126-2.589-.415l-4.82-3.493c-.498-.361-1.197.006-1.177.618.09 3.647.552 6.138 1.466 9.73.07.276.061.565-.02.837-.293.983-.45 2.025-.45 3.103 0 1.748.414 3.401 1.15 4.866.737 1.465 2.949 1.425 4.238 2.423 1.864 1.444 3.056 3.623 5.604 3.623 1.34 0 2.536-1.093 3.723-1.528 2.542-.932 4.73-1.917 5.989-4.267.817-1.527 1.28-3.268 1.28-5.117 0-1.218-.11-2.109-.48-3.202-.054-.18-.059-.371-.012-.553l.046-.184z" fill="#FF6700"/>
            <path d="M556.493 31.426c.112.574-.408 1.158-1.16 1.305-.753.148-1.453-.198-1.564-.77-.111-.574.408-1.159 1.16-1.306.753-.147 1.453.198 1.564.771M545.408 31.426c-.11.574.409 1.158 1.16 1.305.753.148 1.453-.198 1.565-.77.11-.574-.409-1.159-1.16-1.306-.753-.147-1.453.198-1.565.771" fill="#35342F"/>
            <path d="M549.246 42.025c.035-.01.44-.009.475-.019 0-7.855-8.95-7.383-8.95-7.383s.349 1.718 2.015 3.762c.658.807 1.718 1.301 2.71 1.631.088.03.377.117.43.133 1.51.45 2.61.754 3.32 1.876M552.656 42.025c-.036-.01-.44-.009-.476-.019 0-7.855 8.951-7.383 8.951-7.383s-.349 1.718-2.016 3.762c-.658.807-1.717 1.301-2.71 1.631-.088.03-.376.117-.43.133-1.51.45-2.61.754-3.319 1.876" fill="#EAE5C7"/>
            <path d="M552.967 40.953c0 1.13-.925 2.047-2.065 2.047-1.141 0-2.066-.916-2.066-2.047 0-1.13.444-2.047 2.066-2.047 1.621 0 2.065.917 2.065 2.047" fill="#35342F"/>
            <path d="M541.67 24.854c.412-.678 1.234-1.825 2.64-2.988.267-.22.264-.63-.01-.844l-2.754-2.15c-.47-.367-1.147.023-1.064.611l.753 5.282c.031.219.32.278.436.089M560.133 24.854c-.411-.678-1.234-1.825-2.64-2.988-.267-.22-.264-.63.01-.844l2.754-2.15c.47-.367 1.147.023 1.064.611l-.753 5.282c-.03.219-.32.278-.435.089" fill="#C94401"/>
        </g>
        <g>
            <path d="M582.296 19.35c-.083-1.448-.326-2.953-1.604-3.826-1.246-.852-2.856-.622-3.938.38-.928.859.454 2.251 1.378 1.395.46-.425 1.135-.45 1.612-.034.557.484.563 1.405.602 2.085.072 1.262 2.022 1.271 1.95 0" fill="#FFA350"/>
            <path d="M583.31 19.582c.17-.856.53-2.981 1.853-2.57 1.203.375 1.718-1.52.519-1.894-1.09-.339-2.276.076-3.016.929-.74.852-1.024 1.928-1.238 3.013-.103.52.147 1.06.681 1.208.48.133 1.098-.163 1.201-.686" fill="#FFA350"/>
            <path d="M594 30.9c0 6.683-5.373 12.1-12 12.1s-12-5.417-12-12.1 5.373-12.1 12-12.1 12 5.417 12 12.1" fill="#FFD13E"/>
            <path d="M584.774 36.359l-1.812 1.837c-.531.539-1.393.539-1.924 0l-1.812-1.837c-.758-.768-.383-2.082.663-2.32 1.39-.318 2.832-.318 4.222 0 1.046.238 1.42 1.552.663 2.32" fill="#F48C00"/>
            <path d="M579.223 28.35c0 .635-.51 1.15-1.14 1.15-.63 0-1.14-.515-1.14-1.15 0-.635.51-1.15 1.14-1.15.63 0 1.14.515 1.14 1.15M587.058 28.35c0 .635-.51 1.15-1.14 1.15-.63 0-1.141-.515-1.141-1.15 0-.635.51-1.15 1.14-1.15.63 0 1.14.515 1.14 1.15" fill="#662113"/>
        </g>
        <g>
            <path d="M513 29.393c0 1.519-.895 2.75-2 2.75s-2-1.231-2-2.75.896-2.75 2-2.75c1.105 0 2 1.231 2 2.75" fill="#4844A3"/>
            <path d="M532.2 29c0-6.075-5.014-11-11.2-11-4.523 0-8.42 2.633-10.188 6.424-.65 1.393-1.012 2.943-1.012 4.576 0 1.52.314 2.968.882 4.284.932 2.163 2.55 3.971 4.584 5.165C516.943 39.433 518.904 40 521 40c2.134 0 4.129-.587 5.826-1.604 3.222-1.932 5.374-5.417 5.374-9.396z" fill="#88C1FF"/>
            <path d="M531.4 32.929c-.884 0-1.6-1.583-1.6-3.536s.716-3.536 1.6-3.536c.883 0 1.6 1.583 1.6 3.536s-.716 3.535-1.6 3.535z" fill="#4844A3"/>
            <path d="M532.2 31.357c-.442 0-.8-.88-.8-1.964 0-1.085.358-1.965.8-1.964.442 0 .8.879.8 1.964s-.358 1.964-.8 1.964" fill="#88C1FF"/>
            <path d="M524.123 28.487l.073.838c.055.633-.436 1.19-1.098 1.242-.661.053-1.243-.417-1.298-1.05l.028-.955s.07-1.052.997-1.126c.9-.072 1.242.417 1.298 1.05" fill="#0B0146"/>
            <path d="M522.422 29.096c.025.233.14.443.327.595.19.154.433.228.682.209.514-.042.898-.476.855-.969l-.077-.878c-.025-.286-.11-.499-.252-.633-.16-.15-.415-.213-.758-.186-.657.053-.742.813-.748.889l-.029.973zm.973 1.475c-.378 0-.74-.125-1.032-.36-.326-.262-.526-.63-.561-1.035l-.002-.017.03-1.033c.033-.475.358-1.395 1.357-1.475.546-.043.977.079 1.281.363.26.241.41.587.449 1.027l.077.882c.074.836-.582 1.573-1.462 1.643-.046.004-.091.005-.137.005z" fill="#FFF"/>
            <path d="M518.523 28.487l.073.838c.055.633-.436 1.19-1.098 1.242-.661.053-1.243-.417-1.298-1.05l.028-.955s.07-1.052.997-1.126c.9-.072 1.242.417 1.298 1.05" fill="#0B0146"/>
            <path d="M516.022 29.096c.025.233.14.443.327.595.19.154.433.228.682.209.514-.042.898-.476.855-.969l-.077-.878c-.025-.286-.11-.499-.252-.633-.16-.15-.416-.213-.758-.186-.657.053-.742.813-.748.889l-.029.973zm.973 1.475c-.378 0-.74-.125-1.032-.36-.326-.262-.526-.63-.561-1.035l-.002-.017.03-1.033c.033-.475.358-1.395 1.357-1.475.546-.043.977.079 1.281.363.26.241.41.587.449 1.027l.077.882c.074.836-.582 1.573-1.462 1.643-.046.004-.091.005-.137.005z" fill="#FFF"/>
        </g>
        <path d="M615.138 19.764h-2.566l2.4-2.434c.848-.86.248-2.33-.951-2.33h-4.015c-1.2 0-1.8 1.47-.952 2.33l2.4 2.434h-2.542c-4.922 0-8.912 4.036-8.912 9.015v6.272c0 4.942 3.968 8.949 8.862 8.949h6.276c4.894 0 8.862-4.007 8.862-8.95v-6.337c0-4.942-3.968-8.949-8.862-8.949" fill="#FFC07F"/>
        <g fill="#29264C">
            <path d="M609.72 53l5.06 9.12V53H618v14h-3.38l-5.04-9v9h-3.24V53zM579.72 53l5.06 9.12V53H588v14h-3.38l-5.04-9v9h-3.24V53zM554.269 55.72h-5.3v3.78h5.3v2.66h-5.3V67h-3.24V53h8.54zM518.72 53l5.06 9.12V53H527v14h-3.38l-5.04-9v9h-3.24V53z"/>
        </g>
        <g>
            <use fill="#FFF" xlink:href="#h"/>
            <rect stroke="#CDCCE2" stroke-width="2" x="499" y="113" width="135" height="80" rx="8"/>
        </g>
        <g>
            <path d="M561.534 138.492c.914-3.593 1.377-6.084 1.466-9.731.02-.612-.679-.98-1.177-.618l-4.828 3.498c-.747.542-1.712.7-2.591.415-1.075-.35-2.224-.538-3.416-.538-1.187 0-2.33.187-3.402.533-.879.284-1.842.126-2.589-.415l-4.82-3.493c-.498-.361-1.197.006-1.177.618.09 3.647.552 6.138 1.466 9.73.07.276.061.565-.02.837-.293.983-.45 2.025-.45 3.103 0 1.748.414 3.401 1.15 4.866.737 1.465 2.949 1.425 4.238 2.423 1.864 1.444 3.056 3.623 5.604 3.623 1.34 0 2.536-1.093 3.723-1.528 2.542-.932 4.73-1.917 5.989-4.267.817-1.527 1.28-3.268 1.28-5.117 0-1.218-.11-2.109-.48-3.202-.054-.18-.059-.371-.012-.553l.046-.184z" fill="#FF6700"/>
            <path d="M556.493 143.426c.112.574-.408 1.158-1.16 1.305-.753.148-1.453-.198-1.564-.77-.111-.574.408-1.159 1.16-1.306.753-.147 1.453.198 1.564.771M545.408 143.426c-.11.574.409 1.158 1.16 1.305.753.148 1.453-.198 1.565-.77.11-.574-.409-1.159-1.16-1.306-.753-.147-1.453.198-1.565.771" fill="#35342F"/>
            <path d="M549.246 154.025c.035-.01.44-.009.475-.019 0-7.855-8.95-7.383-8.95-7.383s.349 1.718 2.015 3.762c.658.807 1.718 1.301 2.71 1.631.088.03.377.117.43.133 1.51.45 2.61.754 3.32 1.876M552.656 154.025c-.036-.01-.44-.009-.476-.019 0-7.855 8.951-7.383 8.951-7.383s-.349 1.718-2.016 3.762c-.658.807-1.717 1.301-2.71 1.631-.088.03-.376.117-.43.133-1.51.45-2.61.754-3.319 1.876" fill="#EAE5C7"/>
            <path d="M552.967 152.953c0 1.13-.925 2.047-2.065 2.047-1.141 0-2.066-.916-2.066-2.047 0-1.13.444-2.047 2.066-2.047 1.621 0 2.065.917 2.065 2.047" fill="#35342F"/>
            <path d="M541.67 136.854c.412-.678 1.234-1.825 2.64-2.988.267-.22.264-.63-.01-.844l-2.754-2.15c-.47-.367-1.147.023-1.064.611l.753 5.282c.031.219.32.278.436.089M560.133 136.854c-.411-.678-1.234-1.825-2.64-2.988-.267-.22-.264-.63.01-.844l2.754-2.15c.47-.367 1.147.023 1.064.611l-.753 5.282c-.03.219-.32.278-.435.089" fill="#C94401"/>
        </g>
        <g>
            <path d="M582.296 131.35c-.083-1.448-.326-2.953-1.604-3.826-1.246-.852-2.856-.622-3.938.38-.928.859.454 2.251 1.378 1.395.46-.425 1.135-.45 1.612-.034.557.484.563 1.405.602 2.085.072 1.262 2.022 1.271 1.95 0" fill="#FFA350"/>
            <path d="M583.31 131.582c.17-.856.53-2.981 1.853-2.57 1.203.375 1.718-1.52.519-1.894-1.09-.339-2.276.076-3.016.929-.74.852-1.024 1.928-1.238 3.013-.103.52.147 1.06.681 1.208.48.133 1.098-.163 1.201-.686" fill="#FFA350"/>
            <path d="M594 142.9c0 6.683-5.373 12.1-12 12.1s-12-5.417-12-12.1 5.373-12.1 12-12.1 12 5.417 12 12.1" fill="#FFD13E"/>
            <path d="M584.774 148.359l-1.812 1.837c-.531.539-1.393.539-1.924 0l-1.812-1.837c-.758-.768-.383-2.082.663-2.32 1.39-.318 2.832-.318 4.222 0 1.046.238 1.42 1.552.663 2.32" fill="#F48C00"/>
            <path d="M579.223 140.35c0 .635-.51 1.15-1.14 1.15-.63 0-1.14-.515-1.14-1.15 0-.635.51-1.15 1.14-1.15.63 0 1.14.515 1.14 1.15M587.058 140.35c0 .635-.51 1.15-1.14 1.15-.63 0-1.141-.515-1.141-1.15 0-.635.51-1.15 1.14-1.15.63 0 1.14.515 1.14 1.15" fill="#662113"/>
        </g>
        <g>
            <path d="M513 141.393c0 1.519-.895 2.75-2 2.75s-2-1.231-2-2.75.896-2.75 2-2.75c1.105 0 2 1.231 2 2.75" fill="#4844A3"/>
            <path d="M532.2 141c0-6.075-5.014-11-11.2-11-4.523 0-8.42 2.633-10.188 6.424-.65 1.393-1.012 2.943-1.012 4.576 0 1.52.314 2.968.882 4.284.932 2.163 2.55 3.971 4.584 5.165 1.677.984 3.638 1.551 5.734 1.551 2.134 0 4.129-.587 5.826-1.604 3.222-1.932 5.374-5.417 5.374-9.396z" fill="#88C1FF"/>
            <path d="M531.4 144.929c-.884 0-1.6-1.583-1.6-3.536s.716-3.536 1.6-3.536c.883 0 1.6 1.583 1.6 3.536s-.716 3.535-1.6 3.535z" fill="#4844A3"/>
            <path d="M532.2 143.357c-.442 0-.8-.88-.8-1.964 0-1.085.358-1.965.8-1.964.442 0 .8.879.8 1.964s-.358 1.964-.8 1.964" fill="#88C1FF"/>
            <path d="M524.123 140.487l.073.838c.055.633-.436 1.19-1.098 1.242-.661.053-1.243-.417-1.298-1.05l.028-.955s.07-1.052.997-1.126c.9-.072 1.242.417 1.298 1.05" fill="#0B0146"/>
            <path d="M522.422 141.096c.025.233.14.443.327.595.19.154.433.228.682.209.514-.042.898-.476.855-.969l-.077-.878c-.025-.286-.11-.499-.252-.633-.16-.15-.415-.213-.758-.186-.657.053-.742.813-.748.889l-.029.973zm.973 1.475c-.378 0-.74-.125-1.032-.36-.326-.262-.526-.63-.561-1.035l-.002-.017.03-1.033c.033-.475.358-1.395 1.357-1.475.546-.043.977.079 1.281.363.26.241.41.587.449 1.027l.077.882c.074.836-.582 1.573-1.462 1.643-.046.004-.091.005-.137.005z" fill="#FFF"/>
            <path d="M518.523 140.487l.073.838c.055.633-.436 1.19-1.098 1.242-.661.053-1.243-.417-1.298-1.05l.028-.955s.07-1.052.997-1.126c.9-.072 1.242.417 1.298 1.05" fill="#0B0146"/>
            <path d="M516.022 141.096c.025.233.14.443.327.595.19.154.433.228.682.209.514-.042.898-.476.855-.969l-.077-.878c-.025-.286-.11-.499-.252-.633-.16-.15-.416-.213-.758-.186-.657.053-.742.813-.748.889l-.029.973zm.973 1.475c-.378 0-.74-.125-1.032-.36-.326-.262-.526-.63-.561-1.035l-.002-.017.03-1.033c.033-.475.358-1.395 1.357-1.475.546-.043.977.079 1.281.363.26.241.41.587.449 1.027l.077.882c.074.836-.582 1.573-1.462 1.643-.046.004-.091.005-.137.005z" fill="#FFF"/>
        </g>
        <path d="M615.138 131.764h-2.566l2.4-2.434c.848-.86.248-2.33-.951-2.33h-4.015c-1.2 0-1.8 1.47-.952 2.33l2.4 2.434h-2.542c-4.922 0-8.912 4.036-8.912 9.015v6.272c0 4.942 3.968 8.949 8.862 8.949h6.276c4.894 0 8.862-4.007 8.862-8.95v-6.337c0-4.942-3.968-8.949-8.862-8.949" fill="#FFC07F"/>
        <g fill="#29264C">
            <path d="M609.72 165l5.06 9.12V165H618v14h-3.38l-5.04-9v9h-3.24v-14zM585.269 167.72h-5.3v3.78h5.3v2.66h-5.3V179h-3.24v-14h8.54zM554.269 167.72h-5.3v3.78h5.3v2.66h-5.3V179h-3.24v-14h8.54zM524.269 167.72h-5.3v3.78h5.3v2.66h-5.3V179h-3.24v-14h8.54z"/>
        </g>
        <g>
            <use fill="#FFF" xlink:href="#i"/>
            <rect stroke="#CDCCE2" stroke-width="2" x="664" y="1" width="135" height="80" rx="8"/>
        </g>
        <g>
            <path d="M726.534 26.492c.914-3.593 1.377-6.084 1.466-9.731.02-.612-.679-.98-1.177-.618l-4.828 3.498c-.747.542-1.712.7-2.591.415-1.075-.35-2.224-.538-3.416-.538-1.187 0-2.33.187-3.402.533-.879.284-1.842.126-2.589-.415l-4.82-3.493c-.498-.361-1.197.006-1.177.618.09 3.647.552 6.138 1.466 9.73.07.276.061.565-.02.837-.293.983-.45 2.025-.45 3.103 0 1.748.414 3.401 1.15 4.866.737 1.465 2.949 1.425 4.238 2.423 1.864 1.444 3.056 3.623 5.604 3.623 1.34 0 2.536-1.093 3.723-1.528 2.542-.932 4.73-1.917 5.989-4.267.817-1.527 1.28-3.268 1.28-5.117 0-1.218-.11-2.109-.48-3.202-.054-.18-.059-.371-.012-.553l.046-.184z" fill="#FF6700"/>
            <path d="M721.493 31.426c.112.574-.408 1.158-1.16 1.305-.753.148-1.453-.198-1.564-.77-.111-.574.408-1.159 1.16-1.306.753-.147 1.453.198 1.564.771M710.408 31.426c-.11.574.409 1.158 1.16 1.305.753.148 1.453-.198 1.565-.77.11-.574-.409-1.159-1.16-1.306-.753-.147-1.453.198-1.565.771" fill="#35342F"/>
            <path d="M714.246 42.025c.035-.01.44-.009.475-.019 0-7.855-8.95-7.383-8.95-7.383s.349 1.718 2.015 3.762c.658.807 1.718 1.301 2.71 1.631.088.03.377.117.43.133 1.51.45 2.61.754 3.32 1.876M717.656 42.025c-.036-.01-.44-.009-.476-.019 0-7.855 8.951-7.383 8.951-7.383s-.349 1.718-2.016 3.762c-.658.807-1.717 1.301-2.71 1.631-.088.03-.376.117-.43.133-1.51.45-2.61.754-3.319 1.876" fill="#EAE5C7"/>
            <path d="M717.967 40.953c0 1.13-.925 2.047-2.065 2.047-1.141 0-2.066-.916-2.066-2.047 0-1.13.444-2.047 2.066-2.047 1.621 0 2.065.917 2.065 2.047" fill="#35342F"/>
            <path d="M706.67 24.854c.412-.678 1.234-1.825 2.64-2.988.267-.22.264-.63-.01-.844l-2.754-2.15c-.47-.367-1.147.023-1.064.611l.753 5.282c.031.219.32.278.436.089M725.133 24.854c-.411-.678-1.234-1.825-2.64-2.988-.267-.22-.264-.63.01-.844l2.754-2.15c.47-.367 1.147.023 1.064.611l-.753 5.282c-.03.219-.32.278-.435.089" fill="#C94401"/>
        </g>
        <g>
            <path d="M747.296 19.35c-.083-1.448-.326-2.953-1.604-3.826-1.246-.852-2.856-.622-3.938.38-.928.859.454 2.251 1.378 1.395.46-.425 1.135-.45 1.612-.034.557.484.563 1.405.602 2.085.072 1.262 2.022 1.271 1.95 0" fill="#FFA350"/>
            <path d="M748.31 19.582c.17-.856.53-2.981 1.853-2.57 1.203.375 1.718-1.52.519-1.894-1.09-.339-2.276.076-3.016.929-.74.852-1.024 1.928-1.238 3.013-.103.52.147 1.06.681 1.208.48.133 1.098-.163 1.201-.686" fill="#FFA350"/>
            <path d="M759 30.9c0 6.683-5.373 12.1-12 12.1s-12-5.417-12-12.1 5.373-12.1 12-12.1 12 5.417 12 12.1" fill="#FFD13E"/>
            <path d="M749.774 36.359l-1.812 1.837c-.531.539-1.393.539-1.924 0l-1.812-1.837c-.758-.768-.383-2.082.663-2.32 1.39-.318 2.832-.318 4.222 0 1.046.238 1.42 1.552.663 2.32" fill="#F48C00"/>
            <path d="M744.223 28.35c0 .635-.51 1.15-1.14 1.15-.63 0-1.14-.515-1.14-1.15 0-.635.51-1.15 1.14-1.15.63 0 1.14.515 1.14 1.15M752.058 28.35c0 .635-.51 1.15-1.14 1.15-.63 0-1.141-.515-1.141-1.15 0-.635.51-1.15 1.14-1.15.63 0 1.14.515 1.14 1.15" fill="#662113"/>
        </g>
        <g>
            <path d="M678 29.393c0 1.519-.895 2.75-2 2.75s-2-1.231-2-2.75.896-2.75 2-2.75c1.105 0 2 1.231 2 2.75" fill="#4844A3"/>
            <path d="M697.2 29c0-6.075-5.014-11-11.2-11-4.523 0-8.42 2.633-10.188 6.424-.65 1.393-1.012 2.943-1.012 4.576 0 1.52.314 2.968.882 4.284.932 2.163 2.55 3.971 4.584 5.165C681.943 39.433 683.904 40 686 40c2.134 0 4.129-.587 5.826-1.604 3.222-1.932 5.374-5.417 5.374-9.396z" fill="#88C1FF"/>
            <path d="M696.4 32.929c-.884 0-1.6-1.583-1.6-3.536s.716-3.536 1.6-3.536c.883 0 1.6 1.583 1.6 3.536s-.716 3.535-1.6 3.535z" fill="#4844A3"/>
            <path d="M697.2 31.357c-.442 0-.8-.88-.8-1.964 0-1.085.358-1.965.8-1.964.442 0 .8.879.8 1.964s-.358 1.964-.8 1.964" fill="#88C1FF"/>
            <path d="M689.123 28.487l.073.838c.055.633-.436 1.19-1.098 1.242-.661.053-1.243-.417-1.298-1.05l.028-.955s.07-1.052.997-1.126c.9-.072 1.242.417 1.298 1.05" fill="#0B0146"/>
            <path d="M687.422 29.096c.025.233.14.443.327.595.19.154.433.228.682.209.514-.042.898-.476.855-.969l-.077-.878c-.025-.286-.11-.499-.252-.633-.16-.15-.415-.213-.758-.186-.657.053-.742.813-.748.889l-.029.973zm.973 1.475c-.378 0-.74-.125-1.032-.36-.326-.262-.526-.63-.561-1.035l-.002-.017.03-1.033c.033-.475.358-1.395 1.357-1.475.546-.043.977.079 1.281.363.26.241.41.587.449 1.027l.077.882c.074.836-.582 1.573-1.462 1.643-.046.004-.091.005-.137.005z" fill="#FFF"/>
            <path d="M683.523 28.487l.073.838c.055.633-.436 1.19-1.098 1.242-.661.053-1.243-.417-1.298-1.05l.028-.955s.07-1.052.997-1.126c.9-.072 1.242.417 1.298 1.05" fill="#0B0146"/>
            <path d="M681.022 29.096c.025.233.14.443.327.595.19.154.433.228.682.209.514-.042.898-.476.855-.969l-.077-.878c-.025-.286-.11-.499-.252-.633-.16-.15-.416-.213-.758-.186-.657.053-.742.813-.748.889l-.029.973zm.973 1.475c-.378 0-.74-.125-1.032-.36-.326-.262-.526-.63-.561-1.035l-.002-.017.03-1.033c.033-.475.358-1.395 1.357-1.475.546-.043.977.079 1.281.363.26.241.41.587.449 1.027l.077.882c.074.836-.582 1.573-1.462 1.643-.046.004-.091.005-.137.005z" fill="#FFF"/>
        </g>
        <path d="M780.138 19.764h-2.566l2.4-2.434c.848-.86.248-2.33-.951-2.33h-4.015c-1.2 0-1.8 1.47-.952 2.33l2.4 2.434h-2.542c-4.922 0-8.912 4.036-8.912 9.015v6.272c0 4.942 3.968 8.949 8.862 8.949h6.276c4.894 0 8.862-4.007 8.862-8.95v-6.337c0-4.942-3.968-8.949-8.862-8.949" fill="#FFC07F"/>
        <g fill="#29264C">
            <path d="M780.269 55.72h-5.3v3.78h5.3v2.66h-5.3V67h-3.24V53h8.54zM744.72 53l5.06 9.12V53H753v14h-3.38l-5.04-9v9h-3.24V53zM719.269 55.72h-5.3v3.78h5.3v2.66h-5.3V67h-3.24V53h8.54zM683.72 53l5.06 9.12V53H692v14h-3.38l-5.04-9v9h-3.24V53z"/>
        </g>
        <g>
            <use fill="#FFF" xlink:href="#j"/>
            <rect stroke="#CDCCE2" stroke-width="2" x="664" y="113" width="135" height="80" rx="8"/>
        </g>
        <g>
            <path d="M726.534 138.492c.914-3.593 1.377-6.084 1.466-9.731.02-.612-.679-.98-1.177-.618l-4.828 3.498c-.747.542-1.712.7-2.591.415-1.075-.35-2.224-.538-3.416-.538-1.187 0-2.33.187-3.402.533-.879.284-1.842.126-2.589-.415l-4.82-3.493c-.498-.361-1.197.006-1.177.618.09 3.647.552 6.138 1.466 9.73.07.276.061.565-.02.837-.293.983-.45 2.025-.45 3.103 0 1.748.414 3.401 1.15 4.866.737 1.465 2.949 1.425 4.238 2.423 1.864 1.444 3.056 3.623 5.604 3.623 1.34 0 2.536-1.093 3.723-1.528 2.542-.932 4.73-1.917 5.989-4.267.817-1.527 1.28-3.268 1.28-5.117 0-1.218-.11-2.109-.48-3.202-.054-.18-.059-.371-.012-.553l.046-.184z" fill="#FF6700"/>
            <path d="M721.493 143.426c.112.574-.408 1.158-1.16 1.305-.753.148-1.453-.198-1.564-.77-.111-.574.408-1.159 1.16-1.306.753-.147 1.453.198 1.564.771M710.408 143.426c-.11.574.409 1.158 1.16 1.305.753.148 1.453-.198 1.565-.77.11-.574-.409-1.159-1.16-1.306-.753-.147-1.453.198-1.565.771" fill="#35342F"/>
            <path d="M714.246 154.025c.035-.01.44-.009.475-.019 0-7.855-8.95-7.383-8.95-7.383s.349 1.718 2.015 3.762c.658.807 1.718 1.301 2.71 1.631.088.03.377.117.43.133 1.51.45 2.61.754 3.32 1.876M717.656 154.025c-.036-.01-.44-.009-.476-.019 0-7.855 8.951-7.383 8.951-7.383s-.349 1.718-2.016 3.762c-.658.807-1.717 1.301-2.71 1.631-.088.03-.376.117-.43.133-1.51.45-2.61.754-3.319 1.876" fill="#EAE5C7"/>
            <path d="M717.967 152.953c0 1.13-.925 2.047-2.065 2.047-1.141 0-2.066-.916-2.066-2.047 0-1.13.444-2.047 2.066-2.047 1.621 0 2.065.917 2.065 2.047" fill="#35342F"/>
            <path d="M706.67 136.854c.412-.678 1.234-1.825 2.64-2.988.267-.22.264-.63-.01-.844l-2.754-2.15c-.47-.367-1.147.023-1.064.611l.753 5.282c.031.219.32.278.436.089M725.133 136.854c-.411-.678-1.234-1.825-2.64-2.988-.267-.22-.264-.63.01-.844l2.754-2.15c.47-.367 1.147.023 1.064.611l-.753 5.282c-.03.219-.32.278-.435.089" fill="#C94401"/>
        </g>
        <g>
            <path d="M747.296 131.35c-.083-1.448-.326-2.953-1.604-3.826-1.246-.852-2.856-.622-3.938.38-.928.859.454 2.251 1.378 1.395.46-.425 1.135-.45 1.612-.034.557.484.563 1.405.602 2.085.072 1.262 2.022 1.271 1.95 0" fill="#FFA350"/>
            <path d="M748.31 131.582c.17-.856.53-2.981 1.853-2.57 1.203.375 1.718-1.52.519-1.894-1.09-.339-2.276.076-3.016.929-.74.852-1.024 1.928-1.238 3.013-.103.52.147 1.06.681 1.208.48.133 1.098-.163 1.201-.686" fill="#FFA350"/>
            <path d="M759 142.9c0 6.683-5.373 12.1-12 12.1s-12-5.417-12-12.1 5.373-12.1 12-12.1 12 5.417 12 12.1" fill="#FFD13E"/>
            <path d="M749.774 148.359l-1.812 1.837c-.531.539-1.393.539-1.924 0l-1.812-1.837c-.758-.768-.383-2.082.663-2.32 1.39-.318 2.832-.318 4.222 0 1.046.238 1.42 1.552.663 2.32" fill="#F48C00"/>
            <path d="M744.223 140.35c0 .635-.51 1.15-1.14 1.15-.63 0-1.14-.515-1.14-1.15 0-.635.51-1.15 1.14-1.15.63 0 1.14.515 1.14 1.15M752.058 140.35c0 .635-.51 1.15-1.14 1.15-.63 0-1.141-.515-1.141-1.15 0-.635.51-1.15 1.14-1.15.63 0 1.14.515 1.14 1.15" fill="#662113"/>
        </g>
        <g>
            <path d="M678 141.393c0 1.519-.895 2.75-2 2.75s-2-1.231-2-2.75.896-2.75 2-2.75c1.105 0 2 1.231 2 2.75" fill="#4844A3"/>
            <path d="M697.2 141c0-6.075-5.014-11-11.2-11-4.523 0-8.42 2.633-10.188 6.424-.65 1.393-1.012 2.943-1.012 4.576 0 1.52.314 2.968.882 4.284.932 2.163 2.55 3.971 4.584 5.165 1.677.984 3.638 1.551 5.734 1.551 2.134 0 4.129-.587 5.826-1.604 3.222-1.932 5.374-5.417 5.374-9.396z" fill="#88C1FF"/>
            <path d="M696.4 144.929c-.884 0-1.6-1.583-1.6-3.536s.716-3.536 1.6-3.536c.883 0 1.6 1.583 1.6 3.536s-.716 3.535-1.6 3.535z" fill="#4844A3"/>
            <path d="M697.2 143.357c-.442 0-.8-.88-.8-1.964 0-1.085.358-1.965.8-1.964.442 0 .8.879.8 1.964s-.358 1.964-.8 1.964" fill="#88C1FF"/>
            <path d="M689.123 140.487l.073.838c.055.633-.436 1.19-1.098 1.242-.661.053-1.243-.417-1.298-1.05l.028-.955s.07-1.052.997-1.126c.9-.072 1.242.417 1.298 1.05" fill="#0B0146"/>
            <path d="M687.422 141.096c.025.233.14.443.327.595.19.154.433.228.682.209.514-.042.898-.476.855-.969l-.077-.878c-.025-.286-.11-.499-.252-.633-.16-.15-.415-.213-.758-.186-.657.053-.742.813-.748.889l-.029.973zm.973 1.475c-.378 0-.74-.125-1.032-.36-.326-.262-.526-.63-.561-1.035l-.002-.017.03-1.033c.033-.475.358-1.395 1.357-1.475.546-.043.977.079 1.281.363.26.241.41.587.449 1.027l.077.882c.074.836-.582 1.573-1.462 1.643-.046.004-.091.005-.137.005z" fill="#FFF"/>
            <path d="M683.523 140.487l.073.838c.055.633-.436 1.19-1.098 1.242-.661.053-1.243-.417-1.298-1.05l.028-.955s.07-1.052.997-1.126c.9-.072 1.242.417 1.298 1.05" fill="#0B0146"/>
            <path d="M681.022 141.096c.025.233.14.443.327.595.19.154.433.228.682.209.514-.042.898-.476.855-.969l-.077-.878c-.025-.286-.11-.499-.252-.633-.16-.15-.416-.213-.758-.186-.657.053-.742.813-.748.889l-.029.973zm.973 1.475c-.378 0-.74-.125-1.032-.36-.326-.262-.526-.63-.561-1.035l-.002-.017.03-1.033c.033-.475.358-1.395 1.357-1.475.546-.043.977.079 1.281.363.26.241.41.587.449 1.027l.077.882c.074.836-.582 1.573-1.462 1.643-.046.004-.091.005-.137.005z" fill="#FFF"/>
        </g>
        <path d="M780.138 131.764h-2.566l2.4-2.434c.848-.86.248-2.33-.951-2.33h-4.015c-1.2 0-1.8 1.47-.952 2.33l2.4 2.434h-2.542c-4.922 0-8.912 4.036-8.912 9.015v6.272c0 4.942 3.968 8.949 8.862 8.949h6.276c4.894 0 8.862-4.007 8.862-8.95v-6.337c0-4.942-3.968-8.949-8.862-8.949" fill="#FFC07F"/>
        <g fill="#29264C">
            <path d="M781 167.72h-5.585v3.78H781v2.66h-5.585V179H772v-14h9zM751 167.72h-5.585v3.78H751v2.66h-5.585V179H742v-14h9zM720 167.72h-5.585v3.78H720v2.66h-5.585V179H711v-14h9zM690 167.72h-5.585v3.78H690v2.66h-5.585V179H681v-14h9z"/>
        </g>
        <g fill="#29264C">
            <path d="M413.72 165l5.06 9.12V165H422v14h-3.38l-5.04-9v9h-3.24v-14zM388.54 167.72h-5.3v3.78h5.3v2.66h-5.3V179H380v-14h8.54zM448.54 167.72h-5.3v3.78h5.3v2.66h-5.3V179H440v-14h8.54zM358.269 167.72h-5.3v3.78h5.3v2.66h-5.3V179h-3.24v-14h8.54z"/>
        </g>
    </g>
</svg>
