<svg id="Layer_1" xmlns="http://www.w3.org/2000/svg" viewBox="0 0 800 408">
    <style>
        .st0{fill:none;stroke:#f2f2f8;stroke-width:4}.st1{fill:#fff}.st2{fill:#ff6700}.st3{fill:#35342f}.st4{fill:#eae5c7}.st5{fill:#c94401}.st6{fill:#ffa350}.st7{fill:#ffd13e}.st8{fill:#f48c00}.st9{fill:#662113}.st10{fill:#4844a3}.st11{fill:#88c1ff}.st12{fill:#0b0146}.st13{fill:#ffc07f}.st14{fill:#29264c}.st15{fill:none;stroke:#19ca94;stroke-width:4}
    </style>
    <title>
        2-1-chicken crossing-5
    </title>
    <path class="st0" d="M69 41v330.2M731 41v330.2M237 41v330.2M235 41l500.2 329.6M69 41l331.4 328.7M401 41l331.4 328.7m0-328.7L401 369.7M403.4 41L72 369.7M69 41l168.4 328.6M401 41l168.4 328.6M403.4 41l-166 328.6M235 41l168.4 328.6M568.4 41L400 369.6"/>
    <g transform="translate(0 326)">
        <path id="a" class="st1" d="M8 0h121c4.4 0 8 3.6 8 8v66c0 4.4-3.6 8-8 8H8c-4.4 0-8-3.6-8-8V8c0-4.4 3.6-8 8-8z"/>
    </g>
    <path class="st0" d="M10 2h117c4.4 0 8 3.6 8 8v62c0 4.4-3.6 8-8 8H10c-4.4 0-8-3.6-8-8V10c0-4.4 3.6-8 8-8z" transform="translate(0 326)"/>
    <path class="st2" d="M63.5 352.6c.9-3.6 1.4-6.1 1.5-9.8 0-.6-.7-1-1.2-.6l-4.8 3.5c-.7.5-1.7.7-2.6.4-1.1-.4-2.2-.5-3.4-.5-1.2 0-2.3.2-3.4.5-.9.3-1.8.1-2.6-.4l-4.8-3.5c-.5-.4-1.2 0-1.2.6.1 3.7.6 6.2 1.5 9.8.1.3.1.6 0 .8-.3 1-.5 2-.5 3.1 0 1.8.4 3.4 1.2 4.9.7 1.5 2.9 1.4 4.2 2.4 1.9 1.5 3.1 3.7 5.6 3.7 1.3 0 2.5-1.1 3.7-1.5 2.5-.9 4.7-1.9 6-4.3.8-1.5 1.3-3.3 1.3-5.2 0-1.2-.1-2.1-.5-3.2-.1-.2-.1-.4 0-.6v-.1z"/>
    <path class="st3" d="M58.5 357.6c.1.6-.4 1.2-1.2 1.3-.8.1-1.5-.2-1.6-.8-.1-.6.4-1.2 1.2-1.3.8-.2 1.5.2 1.6.8m-11.1 0c-.1.6.4 1.2 1.2 1.3.8.1 1.5-.2 1.6-.8.1-.6-.4-1.2-1.2-1.3-.8-.2-1.5.2-1.6.8"/>
    <path class="st4" d="M51.2 368.3h.5c0-7.9-9-7.5-9-7.5s.3 1.7 2 3.8c.7.8 1.7 1.3 2.7 1.6.1 0 .4.1.4.1 1.6.5 2.7.8 3.4 2m3.5 0h-.5c0-7.9 9-7.5 9-7.5s-.3 1.7-2 3.8c-.7.8-1.7 1.3-2.7 1.6-.1 0-.4.1-.4.1-1.6.5-2.7.8-3.4 2"/>
    <path class="st3" d="M55 367.2c0 1.1-.9 2.1-2.1 2.1-1.1 0-2.1-.9-2.1-2.1 0-1.1.4-2.1 2.1-2.1 1.6 0 2.1.9 2.1 2.1"/>
    <path class="st5" d="M43.7 350.9c.4-.7 1.2-1.8 2.6-3 .3-.2.3-.6 0-.9l-2.8-2.2c-.5-.4-1.1 0-1.1.6l.8 5.3c.1.4.4.4.5.2m18.4 0c-.4-.7-1.2-1.8-2.6-3-.3-.2-.3-.6 0-.9l2.8-2.2c.5-.4 1.1 0 1.1.6l-.8 5.3c-.1.4-.4.4-.5.2"/>
    <path class="st6" d="M84.3 345.3c-.1-1.4-.3-2.9-1.6-3.8-1.2-.8-2.9-.6-3.9.4-.9.9.5 2.2 1.4 1.4.5-.4 1.1-.4 1.6 0 .6.5.6 1.4.6 2.1 0 1.2 2 1.2 1.9-.1"/>
    <path class="st6" d="M85.3 345.5c.2-.9.5-3 1.9-2.5 1.2.4 1.7-1.5.5-1.9-1.1-.3-2.3.1-3 .9-.7.8-1 1.9-1.2 3-.1.5.1 1.1.7 1.2.4.2 1-.1 1.1-.7"/>
    <path class="st7" d="M96 356.8c0 6.6-5.4 12-12 12s-12-5.4-12-12 5.4-12 12-12 12 5.3 12 12"/>
    <path class="st8" d="M86.8 362.2L85 364c-.5.5-1.4.5-1.9 0l-1.8-1.8c-.8-.8-.4-2.1.7-2.3 1.4-.3 2.8-.3 4.2 0 1 .2 1.3 1.5.6 2.3"/>
    <path class="st9" d="M81.2 354.2c0 .6-.5 1.1-1.1 1.1s-1.1-.5-1.1-1.1.5-1.1 1.1-1.1 1.1.5 1.1 1.1m7.9 0c0 .6-.5 1.1-1.1 1.1s-1.1-.5-1.1-1.1.5-1.1 1.1-1.1 1.1.5 1.1 1.1"/>
    <path class="st10" d="M15 355.6c0 1.5-.9 2.8-2 2.8s-2-1.3-2-2.8.9-2.8 2-2.8 2 1.3 2 2.8"/>
    <path class="st11" d="M34.2 355.2c0-6.2-5-11.2-11.2-11.2-4.5 0-8.4 2.7-10.2 6.5-.6 1.4-1 3-1 4.7 0 1.5.3 3 .9 4.4.9 2.2 2.6 4 4.6 5.3 1.7 1 3.6 1.6 5.7 1.6s4.1-.6 5.8-1.6c3.2-2.1 5.4-5.6 5.4-9.7z"/>
    <path class="st10" d="M33.4 359.2c-.9 0-1.6-1.6-1.6-3.6s.7-3.6 1.6-3.6c.9 0 1.6 1.6 1.6 3.6s-.7 3.6-1.6 3.6z"/>
    <path class="st11" d="M34.2 357.6c-.4 0-.8-.9-.8-2s.4-2 .8-2 .8.9.8 2-.4 2-.8 2"/>
    <path class="st12" d="M26.1 354.7l.1.9c.1.6-.4 1.2-1.1 1.3-.7.1-1.2-.4-1.3-1.1v-1s.1-1.1 1-1.1c.9-.2 1.3.3 1.3 1"/>
    <path class="st1" d="M24.4 355.3c0 .2.1.5.3.6.2.2.4.2.7.2.5 0 .9-.5.9-1l-.1-.9c0-.3-.1-.5-.3-.6-.2-.2-.4-.2-.8-.2-.7.1-.7.8-.7.9v1zm1 1.5c-.4 0-.7-.1-1-.4-.3-.3-.5-.6-.6-1.1v-1.1c0-.5.4-1.4 1.4-1.5.5 0 1 .1 1.3.4.3.2.4.6.4 1l.1.9c.1.9-.6 1.6-1.5 1.7 0 .1-.1.1-.1.1z"/>
    <path class="st12" d="M20.5 354.7l.1.9c.1.6-.4 1.2-1.1 1.3-.7.1-1.2-.4-1.3-1.1v-1s.1-1.1 1-1.1c.9-.2 1.3.3 1.3 1"/>
    <path class="st1" d="M18 355.3c0 .2.1.5.3.6.2.2.4.2.7.2.5 0 .9-.5.9-1l-.1-.9c0-.3-.1-.5-.3-.6-.2-.2-.4-.2-.8-.2-.7.1-.7.8-.7.9v1zm1 1.5c-.4 0-.7-.1-1-.4-.3-.3-.5-.6-.6-1.1v-1.1c0-.5.4-1.4 1.4-1.5.5 0 1 .1 1.3.4.3.2.4.6.4 1l.1.9c.1.9-.6 1.6-1.5 1.7 0 .1-.1.1-.1.1z"/>
    <path class="st13" d="M117.1 345.7h-2.6l2.4-2.4c.8-.8.2-2.3-1-2.3h-4c-1.2 0-1.8 1.5-1 2.3l2.4 2.4h-2.5c-4.9 0-8.9 4-8.9 8.9v6.2c0 4.9 4 8.8 8.9 8.8h6.3c4.9 0 8.9-4 8.9-8.8v-6.2c0-5-4-8.9-8.9-8.9"/>
    <path class="st14" d="M111.7 379l5.1 9.1V379h3.2v14h-3.4l-5-9v9h-3.2v-14h3.3zm-24.4 2.7H82v3.8h5.3v2.7H82v4.8h-3.2v-14h8.5v2.7zM50.7 379l5.1 9.1V379H59v14h-3.4l-5-9v9h-3.2v-14h3.3zm-24.4 2.7H21v3.8h5.3v2.7H21v4.8h-3.2v-14h8.5v2.7z"/>
    <g transform="translate(166)">
        <path id="b" class="st1" d="M8 0h121c4.4 0 8 3.6 8 8v66c0 4.4-3.6 8-8 8H8c-4.4 0-8-3.6-8-8V8c0-4.4 3.6-8 8-8z"/>
    </g>
    <path class="st0" d="M10 2h117c4.4 0 8 3.6 8 8v62c0 4.4-3.6 8-8 8H10c-4.4 0-8-3.6-8-8V10c0-4.4 3.6-8 8-8z" transform="translate(166)"/>
    <path class="st2" d="M229.5 26.6c.9-3.6 1.4-6.1 1.5-9.8 0-.6-.7-1-1.2-.6l-4.8 3.5c-.7.5-1.7.7-2.6.4-1.1-.4-2.2-.5-3.4-.5-1.2 0-2.3.2-3.4.5-.9.3-1.8.1-2.6-.4l-4.8-3.5c-.5-.4-1.2 0-1.2.6.1 3.7.6 6.2 1.5 9.8.1.3.1.6 0 .8-.3 1-.4 2-.4 3.1 0 1.8.4 3.4 1.1 4.9.7 1.5 2.9 1.4 4.2 2.4 1.9 1.5 3.1 3.7 5.6 3.7 1.3 0 2.5-1.1 3.7-1.5 2.5-.9 4.7-1.9 6-4.3.8-1.5 1.3-3.3 1.3-5.2 0-1.2-.1-2.1-.5-3.2-.1-.2-.1-.4 0-.6v-.1z"/>
    <path class="st3" d="M224.5 31.6c.1.6-.4 1.2-1.2 1.3-.8.1-1.5-.2-1.6-.8-.1-.6.4-1.2 1.2-1.3.8-.2 1.5.2 1.6.8m-11.1 0c-.1.6.4 1.2 1.2 1.3.8.1 1.5-.2 1.6-.8.1-.6-.4-1.2-1.2-1.3-.8-.2-1.5.2-1.6.8"/>
    <path class="st4" d="M217.2 42.3h.5c0-7.9-8.9-7.5-8.9-7.5s.3 1.7 2 3.8c.7.8 1.7 1.3 2.7 1.6.1 0 .4.1.4.1 1.5.5 2.6.8 3.3 2m3.5 0h-.5c0-7.9 9-7.5 9-7.5s-.3 1.7-2 3.8c-.7.8-1.7 1.3-2.7 1.6-.1 0-.4.1-.4.1-1.6.5-2.7.8-3.4 2"/>
    <path class="st3" d="M221 41.2c0 1.1-.9 2.1-2.1 2.1-1.1 0-2.1-.9-2.1-2.1 0-1.1.4-2.1 2.1-2.1 1.6 0 2.1.9 2.1 2.1"/>
    <path class="st5" d="M209.7 24.9c.4-.7 1.2-1.8 2.6-3 .3-.2.3-.6 0-.9l-2.8-2.2c-.5-.4-1.1 0-1.1.6l.8 5.3c.1.4.4.4.5.2m18.4 0c-.4-.7-1.2-1.8-2.6-3-.3-.2-.3-.6 0-.9l2.8-2.2c.5-.4 1.1 0 1.1.6l-.8 5.3c-.1.4-.4.4-.5.2"/>
    <path class="st6" d="M250.3 19.3c-.1-1.4-.3-2.9-1.6-3.8-1.2-.8-2.9-.6-3.9.4-.9.9.5 2.2 1.4 1.4.5-.4 1.1-.4 1.6 0 .6.5.6 1.4.6 2.1 0 1.2 2 1.2 1.9-.1"/>
    <path class="st6" d="M251.3 19.5c.2-.9.5-3 1.9-2.5 1.2.4 1.7-1.5.5-1.9-1.1-.3-2.3.1-3 .9-.7.8-1 1.9-1.2 3-.1.5.1 1.1.7 1.2.4.2 1-.1 1.1-.7"/>
    <path class="st7" d="M262 30.8c0 6.6-5.4 12-12 12s-12-5.4-12-12 5.4-12 12-12 12 5.3 12 12"/>
    <path class="st8" d="M252.8 36.2L251 38c-.5.5-1.4.5-1.9 0l-1.8-1.8c-.8-.8-.4-2.1.7-2.3 1.4-.3 2.8-.3 4.2 0 1 .2 1.3 1.5.6 2.3"/>
    <path class="st9" d="M247.2 28.2c0 .6-.5 1.1-1.1 1.1s-1.1-.5-1.1-1.1.5-1.1 1.1-1.1 1.1.5 1.1 1.1m7.9 0c0 .6-.5 1.1-1.1 1.1s-1.1-.5-1.1-1.1.5-1.1 1.1-1.1 1.1.5 1.1 1.1"/>
    <g>
        <path class="st10" d="M181 29.6c0 1.5-.9 2.8-2 2.8s-2-1.3-2-2.8.9-2.8 2-2.8 2 1.3 2 2.8"/>
        <path class="st11" d="M200.2 29.2c0-6.2-5-11.2-11.2-11.2-4.5 0-8.4 2.7-10.2 6.5-.6 1.4-1 3-1 4.7 0 1.5.3 3 .9 4.4.9 2.2 2.6 4 4.6 5.3 1.7 1 3.6 1.6 5.7 1.6s4.1-.6 5.8-1.6c3.2-2.1 5.4-5.6 5.4-9.7z"/>
        <path class="st10" d="M199.4 33.2c-.9 0-1.6-1.6-1.6-3.6s.7-3.6 1.6-3.6c.9 0 1.6 1.6 1.6 3.6s-.7 3.6-1.6 3.6z"/>
        <path class="st11" d="M200.2 31.6c-.4 0-.8-.9-.8-2s.4-2 .8-2 .8.9.8 2-.4 2-.8 2"/>
        <path class="st12" d="M192.1 28.7l.1.9c.1.6-.4 1.2-1.1 1.3-.7.1-1.2-.4-1.3-1.1v-1s.1-1.1 1-1.1c.9-.2 1.3.3 1.3 1"/>
        <path class="st1" d="M190.4 29.3c0 .2.1.5.3.6.2.2.4.2.7.2.5 0 .9-.5.9-1l-.1-.9c0-.3-.1-.5-.3-.6-.2-.2-.4-.2-.8-.2-.7.1-.7.8-.7.9v1zm1 1.5c-.4 0-.7-.1-1-.4-.3-.3-.5-.6-.6-1.1v-1.1c0-.5.4-1.4 1.4-1.5.5 0 1 .1 1.3.4.3.2.4.6.4 1l.1.9c.1.9-.6 1.6-1.5 1.7 0 .1-.1.1-.1.1z"/>
        <path class="st12" d="M186.5 28.7l.1.9c.1.6-.4 1.2-1.1 1.3-.7.1-1.2-.4-1.3-1.1v-1s.1-1.1 1-1.1c.9-.2 1.3.3 1.3 1"/>
        <path class="st1" d="M184 29.3c0 .2.1.5.3.6.2.2.4.2.7.2.5 0 .9-.5.9-1l-.1-.9c0-.3-.1-.5-.3-.6-.2-.2-.4-.2-.8-.2-.7.1-.7.8-.7.9v1zm1 1.5c-.4 0-.7-.1-1-.4-.3-.3-.5-.6-.6-1.1v-1.1c0-.5.4-1.4 1.4-1.5.5 0 1 .1 1.3.4.3.2.4.6.4 1l.1.9c.1.9-.6 1.6-1.5 1.7 0 .1-.1.1-.1.1z"/>
    </g>
    <path class="st13" d="M283.1 19.7h-2.6l2.4-2.4c.8-.8.2-2.3-1-2.3h-4c-1.2 0-1.8 1.5-1 2.3l2.4 2.4h-2.5c-4.9 0-8.9 4-8.9 8.9v6.2c0 4.9 4 8.8 8.9 8.8h6.3c4.9 0 8.9-4 8.9-8.8v-6.2c0-5-4-8.9-8.9-8.9"/>
    <g>
        <path class="st14" d="M283.3 55.7H278v3.8h5.3v2.7H278V67h-3.2V53h8.5v2.7zM247.7 53l5.1 9.1V53h3.2v14h-3.4l-5-9v9h-3.2V53h3.3zm-31 0l5.1 9.1V53h3.2v14h-3.4l-5-9v9h-3.2V53h3.3zm-30 0l5.1 9.1V53h3.2v14h-3.4l-5-9v9h-3.2V53h3.3z"/>
    </g>
    <g>
        <g transform="translate(166 326)">
            <path id="c" class="st1" d="M8 0h121c4.4 0 8 3.6 8 8v66c0 4.4-3.6 8-8 8H8c-4.4 0-8-3.6-8-8V8c0-4.4 3.6-8 8-8z"/>
        </g>
        <path class="st0" d="M10 2h117c4.4 0 8 3.6 8 8v62c0 4.4-3.6 8-8 8H10c-4.4 0-8-3.6-8-8V10c0-4.4 3.6-8 8-8z" transform="translate(166 326)"/>
        <path class="st2" d="M229.5 352.6c.9-3.6 1.4-6.1 1.5-9.8 0-.6-.7-1-1.2-.6l-4.8 3.5c-.7.5-1.7.7-2.6.4-1.1-.4-2.2-.5-3.4-.5-1.2 0-2.3.2-3.4.5-.9.3-1.8.1-2.6-.4l-4.8-3.5c-.5-.4-1.2 0-1.2.6.1 3.7.6 6.2 1.5 9.8.1.3.1.6 0 .8-.3 1-.4 2-.4 3.1 0 1.8.4 3.4 1.1 4.9.7 1.5 2.9 1.4 4.2 2.4 1.9 1.5 3.1 3.7 5.6 3.7 1.3 0 2.5-1.1 3.7-1.5 2.5-.9 4.7-1.9 6-4.3.8-1.5 1.3-3.3 1.3-5.2 0-1.2-.1-2.1-.5-3.2-.1-.2-.1-.4 0-.6v-.1z"/>
        <path class="st3" d="M224.5 357.6c.1.6-.4 1.2-1.2 1.3-.8.1-1.5-.2-1.6-.8-.1-.6.4-1.2 1.2-1.3.8-.2 1.5.2 1.6.8m-11.1 0c-.1.6.4 1.2 1.2 1.3.8.1 1.5-.2 1.6-.8.1-.6-.4-1.2-1.2-1.3-.8-.2-1.5.2-1.6.8"/>
        <path class="st4" d="M217.2 368.3h.5c0-7.9-8.9-7.5-8.9-7.5s.3 1.7 2 3.8c.7.8 1.7 1.3 2.7 1.6.1 0 .4.1.4.1 1.5.5 2.6.8 3.3 2m3.5 0h-.5c0-7.9 9-7.5 9-7.5s-.3 1.7-2 3.8c-.7.8-1.7 1.3-2.7 1.6-.1 0-.4.1-.4.1-1.6.5-2.7.8-3.4 2"/>
        <path class="st3" d="M221 367.2c0 1.1-.9 2.1-2.1 2.1-1.1 0-2.1-.9-2.1-2.1 0-1.1.4-2.1 2.1-2.1 1.6 0 2.1.9 2.1 2.1"/>
        <path class="st5" d="M209.7 350.9c.4-.7 1.2-1.8 2.6-3 .3-.2.3-.6 0-.9l-2.8-2.2c-.5-.4-1.1 0-1.1.6l.8 5.3c.1.4.4.4.5.2m18.4 0c-.4-.7-1.2-1.8-2.6-3-.3-.2-.3-.6 0-.9l2.8-2.2c.5-.4 1.1 0 1.1.6l-.8 5.3c-.1.4-.4.4-.5.2"/>
        <path class="st6" d="M250.3 345.3c-.1-1.4-.3-2.9-1.6-3.8-1.2-.8-2.9-.6-3.9.4-.9.9.5 2.2 1.4 1.4.5-.4 1.1-.4 1.6 0 .6.5.6 1.4.6 2.1 0 1.2 2 1.2 1.9-.1"/>
        <path class="st6" d="M251.3 345.5c.2-.9.5-3 1.9-2.5 1.2.4 1.7-1.5.5-1.9-1.1-.3-2.3.1-3 .9-.7.8-1 1.9-1.2 3-.1.5.1 1.1.7 1.2.4.2 1-.1 1.1-.7"/>
        <path class="st7" d="M262 356.8c0 6.6-5.4 12-12 12s-12-5.4-12-12 5.4-12 12-12 12 5.3 12 12"/>
        <path class="st8" d="M252.8 362.2L251 364c-.5.5-1.4.5-1.9 0l-1.8-1.8c-.8-.8-.4-2.1.7-2.3 1.4-.3 2.8-.3 4.2 0 1 .2 1.3 1.5.6 2.3"/>
        <path class="st9" d="M247.2 354.2c0 .6-.5 1.1-1.1 1.1s-1.1-.5-1.1-1.1.5-1.1 1.1-1.1 1.1.5 1.1 1.1m7.9 0c0 .6-.5 1.1-1.1 1.1s-1.1-.5-1.1-1.1.5-1.1 1.1-1.1 1.1.5 1.1 1.1"/>
        <path class="st10" d="M181 355.6c0 1.5-.9 2.8-2 2.8s-2-1.3-2-2.8.9-2.8 2-2.8 2 1.3 2 2.8"/>
        <path class="st11" d="M200.2 355.2c0-6.2-5-11.2-11.2-11.2-4.5 0-8.4 2.7-10.2 6.5-.6 1.4-1 3-1 4.7 0 1.5.3 3 .9 4.4.9 2.2 2.6 4 4.6 5.3 1.7 1 3.6 1.6 5.7 1.6s4.1-.6 5.8-1.6c3.2-2.1 5.4-5.6 5.4-9.7z"/>
        <path class="st10" d="M199.4 359.2c-.9 0-1.6-1.6-1.6-3.6s.7-3.6 1.6-3.6c.9 0 1.6 1.6 1.6 3.6s-.7 3.6-1.6 3.6z"/>
        <path class="st11" d="M200.2 357.6c-.4 0-.8-.9-.8-2s.4-2 .8-2 .8.9.8 2-.4 2-.8 2"/>
        <path class="st12" d="M192.1 354.7l.1.9c.1.6-.4 1.2-1.1 1.3-.7.1-1.2-.4-1.3-1.1v-1s.1-1.1 1-1.1c.9-.2 1.3.3 1.3 1"/>
        <path class="st1" d="M190.4 355.3c0 .2.1.5.3.6.2.2.4.2.7.2.5 0 .9-.5.9-1l-.1-.9c0-.3-.1-.5-.3-.6-.2-.2-.4-.2-.8-.2-.7.1-.7.8-.7.9v1zm1 1.5c-.4 0-.7-.1-1-.4-.3-.3-.5-.6-.6-1.1v-1.1c0-.5.4-1.4 1.4-1.5.5 0 1 .1 1.3.4.3.2.4.6.4 1l.1.9c.1.9-.6 1.6-1.5 1.7 0 .1-.1.1-.1.1z"/>
        <path class="st12" d="M186.5 354.7l.1.9c.1.6-.4 1.2-1.1 1.3-.7.1-1.2-.4-1.3-1.1v-1s.1-1.1 1-1.1c.9-.2 1.3.3 1.3 1"/>
        <path class="st1" d="M184 355.3c0 .2.1.5.3.6.2.2.4.2.7.2.5 0 .9-.5.9-1l-.1-.9c0-.3-.1-.5-.3-.6-.2-.2-.4-.2-.8-.2-.7.1-.7.8-.7.9v1zm1 1.5c-.4 0-.7-.1-1-.4-.3-.3-.5-.6-.6-1.1v-1.1c0-.5.4-1.4 1.4-1.5.5 0 1 .1 1.3.4.3.2.4.6.4 1l.1.9c.1.9-.6 1.6-1.5 1.7 0 .1-.1.1-.1.1z"/>
        <path class="st13" d="M283.1 345.7h-2.6l2.4-2.4c.8-.8.2-2.3-1-2.3h-4c-1.2 0-1.8 1.5-1 2.3l2.4 2.4h-2.5c-4.9 0-8.9 4-8.9 8.9v6.2c0 4.9 4 8.8 8.9 8.8h6.3c4.9 0 8.9-4 8.9-8.8v-6.2c0-5-4-8.9-8.9-8.9"/>
        <path class="st14" d="M283.3 381.7H278v3.8h5.3v2.7H278v4.8h-3.2v-14h8.5v2.7zm-30 0H248v3.8h5.3v2.7H248v4.8h-3.2v-14h8.5v2.7zm-36.6-2.7l5.1 9.1V379h3.2v14h-3.4l-5-9v9h-3.2v-14h3.3zm-24.4 2.7H187v3.8h5.3v2.7H187v4.8h-3.2v-14h8.5v2.7z"/>
    </g>
    <g>
        <g transform="translate(332)">
            <path id="d" class="st1" d="M8 0h121c4.4 0 8 3.6 8 8v66c0 4.4-3.6 8-8 8H8c-4.4 0-8-3.6-8-8V8c0-4.4 3.6-8 8-8z"/>
        </g>
        <path class="st0" d="M10 2h117c4.4 0 8 3.6 8 8v62c0 4.4-3.6 8-8 8H10c-4.4 0-8-3.6-8-8V10c0-4.4 3.6-8 8-8z" transform="translate(332)"/>
        <path class="st2" d="M395.5 26.6c.9-3.6 1.4-6.1 1.5-9.8 0-.6-.7-1-1.2-.6l-4.8 3.5c-.7.5-1.7.7-2.6.4-1.1-.4-2.2-.5-3.4-.5-1.2 0-2.3.2-3.4.5-.9.3-1.8.1-2.6-.4l-4.8-3.5c-.5-.4-1.2 0-1.2.6.1 3.7.6 6.2 1.5 9.8.1.3.1.6 0 .8-.3 1-.5 2-.5 3.1 0 1.8.4 3.4 1.1 4.9.7 1.5 2.9 1.4 4.2 2.4 1.9 1.5 3.1 3.7 5.6 3.7 1.3 0 2.5-1.1 3.7-1.5 2.5-.9 4.7-1.9 6-4.3.8-1.5 1.3-3.3 1.3-5.2 0-1.2-.1-2.1-.5-3.2-.1-.2-.1-.4 0-.6.1.1.1-.1.1-.1z"/>
        <path class="st3" d="M390.5 31.6c.1.6-.4 1.2-1.2 1.3-.8.1-1.5-.2-1.6-.8-.1-.6.4-1.2 1.2-1.3.8-.2 1.5.2 1.6.8m-11.1 0c-.1.6.4 1.2 1.2 1.3.8.1 1.5-.2 1.6-.8.1-.6-.4-1.2-1.2-1.3-.8-.2-1.5.2-1.6.8"/>
        <path class="st4" d="M383.2 42.3h.5c0-7.9-9-7.5-9-7.5s.3 1.7 2 3.8c.7.8 1.7 1.3 2.7 1.6.1 0 .4.1.4.1 1.6.5 2.7.8 3.4 2m3.5 0h-.5c0-7.9 9-7.5 9-7.5s-.3 1.7-2 3.8c-.7.8-1.7 1.3-2.7 1.6-.1 0-.4.1-.4.1-1.6.5-2.7.8-3.4 2"/>
        <path class="st3" d="M387 41.2c0 1.1-.9 2.1-2.1 2.1-1.1 0-2.1-.9-2.1-2.1 0-1.1.4-2.1 2.1-2.1 1.6 0 2.1.9 2.1 2.1"/>
        <path class="st5" d="M375.7 24.9c.4-.7 1.2-1.8 2.6-3 .3-.2.3-.6 0-.9l-2.8-2.2c-.5-.4-1.1 0-1.1.6l.8 5.3c.1.4.4.4.5.2m18.4 0c-.4-.7-1.2-1.8-2.6-3-.3-.2-.3-.6 0-.9l2.8-2.2c.5-.4 1.1 0 1.1.6l-.8 5.3c-.1.4-.4.4-.5.2"/>
        <path class="st6" d="M416.3 19.3c-.1-1.4-.3-2.9-1.6-3.8-1.2-.8-2.9-.6-3.9.4-.9.9.5 2.2 1.4 1.4.5-.4 1.1-.4 1.6 0 .6.5.6 1.4.6 2.1 0 1.2 2 1.2 1.9-.1"/>
        <path class="st6" d="M417.3 19.5c.2-.9.5-3 1.9-2.5 1.2.4 1.7-1.5.5-1.9-1.1-.3-2.3.1-3 .9-.7.8-1 1.9-1.2 3-.1.5.1 1.1.7 1.2.4.2 1-.1 1.1-.7"/>
        <path class="st7" d="M428 30.8c0 6.6-5.4 12-12 12s-12-5.4-12-12 5.4-12 12-12 12 5.3 12 12"/>
        <path class="st8" d="M418.8 36.2L417 38c-.5.5-1.4.5-1.9 0l-1.8-1.8c-.8-.8-.4-2.1.7-2.3 1.4-.3 2.8-.3 4.2 0 1 .2 1.3 1.5.6 2.3"/>
        <path class="st9" d="M413.2 28.2c0 .6-.5 1.1-1.1 1.1s-1.1-.5-1.1-1.1.5-1.1 1.1-1.1 1.1.5 1.1 1.1m7.9 0c0 .6-.5 1.1-1.1 1.1s-1.1-.5-1.1-1.1.5-1.1 1.1-1.1 1.1.5 1.1 1.1"/>
        <path class="st11" d="M366.2 29.2c0-6.2-5-11.2-11.2-11.2-4.5 0-8.4 2.7-10.2 6.5-.6 1.4-1 3-1 4.7 0 1.5.3 3 .9 4.4.9 2.2 2.5 4 4.6 5.3 1.7 1 3.6 1.6 5.7 1.6s4.1-.6 5.8-1.6c3.2-2.1 5.4-5.6 5.4-9.7z"/>
        <path class="st10" d="M365.4 33.2c-.9 0-1.6-1.6-1.6-3.6s.7-3.6 1.6-3.6c.9 0 1.6 1.6 1.6 3.6s-.7 3.6-1.6 3.6z"/>
        <path class="st11" d="M366.2 31.6c-.4 0-.8-.9-.8-2s.4-2 .8-2 .8.9.8 2-.4 2-.8 2"/>
        <path class="st12" d="M358.1 28.7l.1.9c.1.6-.4 1.2-1.1 1.3-.7.1-1.2-.4-1.3-1.1v-1s.1-1.1 1-1.1c.9-.2 1.3.3 1.3 1"/>
        <path class="st1" d="M356.4 29.3c0 .2.1.5.3.6.2.2.4.2.7.2.5 0 .9-.5.9-1l-.1-.9c0-.3-.1-.5-.3-.6-.2-.2-.4-.2-.8-.2-.7.1-.7.8-.7.9v1zm1 1.5c-.4 0-.7-.1-1-.4-.3-.3-.5-.6-.6-1.1v-1.1c0-.5.4-1.4 1.4-1.5.5 0 1 .1 1.3.4.3.2.4.6.4 1l.1.9c.1.9-.6 1.6-1.5 1.7 0 .1-.1.1-.1.1z"/>
        <path class="st12" d="M352.5 28.7l.1.9c.1.6-.4 1.2-1.1 1.3-.7.1-1.2-.4-1.3-1.1v-1s.1-1.1 1-1.1c.9-.2 1.3.3 1.3 1"/>
        <path class="st1" d="M350 29.3c0 .2.1.5.3.6.2.2.4.2.7.2.5 0 .9-.5.9-1l-.1-.9c0-.3-.1-.5-.3-.6-.2-.2-.4-.2-.8-.2-.7.1-.7.8-.7.9v1zm1 1.5c-.4 0-.7-.1-1-.4-.3-.3-.5-.6-.6-1.1v-1.1c0-.5.4-1.4 1.4-1.5.5 0 1 .1 1.3.4.3.2.4.6.4 1l.1.9c.1.9-.6 1.6-1.5 1.7 0 .1-.1.1-.1.1z"/>
        <path class="st13" d="M449.1 19.7h-2.6l2.4-2.4c.8-.8.2-2.3-1-2.3h-4c-1.2 0-1.8 1.5-1 2.3l2.4 2.4h-2.5c-4.9 0-8.9 4-8.9 8.9v6.2c0 4.9 4 8.8 8.9 8.8h6.3c4.9 0 8.9-4 8.9-8.8v-6.2c0-5-4-8.9-8.9-8.9"/>
        <path class="st14" d="M443.7 53l5.1 9.1V53h3.2v14h-3.4l-5-9v9h-3.2V53h3.3zm-24.4 2.7H414v3.8h5.3v2.7H414V67h-3.2V53h8.5v2.7zM382.7 53l5.1 9.1V53h3.2v14h-3.4l-5-9v9h-3.2V53h3.3zm-30 0l5.1 9.1V53h3.2v14h-3.4l-5-9v9h-3.2V53h3.3z"/>
        <g>
            <path class="st10" d="M347 29.6c0 1.5-.9 2.8-2 2.8s-2-1.3-2-2.8.9-2.8 2-2.8 2 1.3 2 2.8"/>
        </g>
    </g>
    <g>
        <g transform="translate(332 326)">
            <path id="e" class="st1" d="M8 0h121c4.4 0 8 3.6 8 8v66c0 4.4-3.6 8-8 8H8c-4.4 0-8-3.6-8-8V8c0-4.4 3.6-8 8-8z"/>
        </g>
        <path class="st0" d="M10 2h117c4.4 0 8 3.6 8 8v62c0 4.4-3.6 8-8 8H10c-4.4 0-8-3.6-8-8V10c0-4.4 3.6-8 8-8z" transform="translate(332 326)"/>
        <path class="st2" d="M395.5 352.6c.9-3.6 1.4-6.1 1.5-9.8 0-.6-.7-1-1.2-.6l-4.8 3.5c-.7.5-1.7.7-2.6.4-1.1-.4-2.2-.5-3.4-.5-1.2 0-2.3.2-3.4.5-.9.3-1.8.1-2.6-.4l-4.8-3.5c-.5-.4-1.2 0-1.2.6.1 3.7.6 6.2 1.5 9.8.1.3.1.6 0 .8-.3 1-.5 2-.5 3.1 0 1.8.4 3.4 1.1 4.9.7 1.5 2.9 1.4 4.2 2.4 1.9 1.5 3.1 3.7 5.6 3.7 1.3 0 2.5-1.1 3.7-1.5 2.5-.9 4.7-1.9 6-4.3.8-1.5 1.3-3.3 1.3-5.2 0-1.2-.1-2.1-.5-3.2-.1-.2-.1-.4 0-.6l.1-.1z"/>
        <path class="st3" d="M390.5 357.6c.1.6-.4 1.2-1.2 1.3-.8.1-1.5-.2-1.6-.8-.1-.6.4-1.2 1.2-1.3.8-.2 1.5.2 1.6.8m-11.1 0c-.1.6.4 1.2 1.2 1.3.8.1 1.5-.2 1.6-.8.1-.6-.4-1.2-1.2-1.3-.8-.2-1.5.2-1.6.8"/>
        <path class="st4" d="M383.2 368.3h.5c0-7.9-9-7.5-9-7.5s.3 1.7 2 3.8c.7.8 1.7 1.3 2.7 1.6.1 0 .4.1.4.1 1.6.5 2.7.8 3.4 2m3.5 0h-.5c0-7.9 9-7.5 9-7.5s-.3 1.7-2 3.8c-.7.8-1.7 1.3-2.7 1.6-.1 0-.4.1-.4.1-1.6.5-2.7.8-3.4 2"/>
        <path class="st3" d="M387 367.2c0 1.1-.9 2.1-2.1 2.1-1.1 0-2.1-.9-2.1-2.1 0-1.1.4-2.1 2.1-2.1 1.6 0 2.1.9 2.1 2.1"/>
        <path class="st5" d="M375.7 350.9c.4-.7 1.2-1.8 2.6-3 .3-.2.3-.6 0-.9l-2.8-2.2c-.5-.4-1.1 0-1.1.6l.8 5.3c.1.4.4.4.5.2m18.4 0c-.4-.7-1.2-1.8-2.6-3-.3-.2-.3-.6 0-.9l2.8-2.2c.5-.4 1.1 0 1.1.6l-.8 5.3c-.1.4-.4.4-.5.2"/>
        <path class="st6" d="M416.3 345.3c-.1-1.4-.3-2.9-1.6-3.8-1.2-.8-2.9-.6-3.9.4-.9.9.5 2.2 1.4 1.4.5-.4 1.1-.4 1.6 0 .6.5.6 1.4.6 2.1 0 1.2 2 1.2 1.9-.1"/>
        <path class="st6" d="M417.3 345.5c.2-.9.5-3 1.9-2.5 1.2.4 1.7-1.5.5-1.9-1.1-.3-2.3.1-3 .9-.7.8-1 1.9-1.2 3-.1.5.1 1.1.7 1.2.4.2 1-.1 1.1-.7"/>
        <path class="st7" d="M428 356.8c0 6.6-5.4 12-12 12s-12-5.4-12-12 5.4-12 12-12 12 5.3 12 12"/>
        <path class="st8" d="M418.8 362.2L417 364c-.5.5-1.4.5-1.9 0l-1.8-1.8c-.8-.8-.4-2.1.7-2.3 1.4-.3 2.8-.3 4.2 0 1 .2 1.3 1.5.6 2.3"/>
        <path class="st9" d="M413.2 354.2c0 .6-.5 1.1-1.1 1.1s-1.1-.5-1.1-1.1.5-1.1 1.1-1.1 1.1.5 1.1 1.1m7.9 0c0 .6-.5 1.1-1.1 1.1s-1.1-.5-1.1-1.1.5-1.1 1.1-1.1 1.1.5 1.1 1.1"/>
        <path class="st10" d="M347 355.6c0 1.5-.9 2.8-2 2.8s-2-1.3-2-2.8.9-2.8 2-2.8 2 1.3 2 2.8"/>
        <path class="st11" d="M366.2 355.2c0-6.2-5-11.2-11.2-11.2-4.5 0-8.4 2.7-10.2 6.5-.6 1.4-1 3-1 4.7 0 1.5.3 3 .9 4.4.9 2.2 2.5 4 4.6 5.3 1.7 1 3.6 1.6 5.7 1.6s4.1-.6 5.8-1.6c3.2-2.1 5.4-5.6 5.4-9.7z"/>
        <path class="st10" d="M365.4 359.2c-.9 0-1.6-1.6-1.6-3.6s.7-3.6 1.6-3.6c.9 0 1.6 1.6 1.6 3.6s-.7 3.6-1.6 3.6z"/>
        <path class="st11" d="M366.2 357.6c-.4 0-.8-.9-.8-2s.4-2 .8-2 .8.9.8 2-.4 2-.8 2"/>
        <path class="st12" d="M358.1 354.7l.1.9c.1.6-.4 1.2-1.1 1.3-.7.1-1.2-.4-1.3-1.1v-1s.1-1.1 1-1.1c.9-.2 1.3.3 1.3 1"/>
        <path class="st1" d="M356.4 355.3c0 .2.1.5.3.6.2.2.4.2.7.2.5 0 .9-.5.9-1l-.1-.9c0-.3-.1-.5-.3-.6-.2-.2-.4-.2-.8-.2-.7.1-.7.8-.7.9v1zm1 1.5c-.4 0-.7-.1-1-.4-.3-.3-.5-.6-.6-1.1v-1.1c0-.5.4-1.4 1.4-1.5.5 0 1 .1 1.3.4.3.2.4.6.4 1l.1.9c.1.9-.6 1.6-1.5 1.7 0 .1-.1.1-.1.1z"/>
        <path class="st12" d="M352.5 354.7l.1.9c.1.6-.4 1.2-1.1 1.3-.7.1-1.2-.4-1.3-1.1v-1s.1-1.1 1-1.1c.9-.2 1.3.3 1.3 1"/>
        <path class="st1" d="M350 355.3c0 .2.1.5.3.6.2.2.4.2.7.2.5 0 .9-.5.9-1l-.1-.9c0-.3-.1-.5-.3-.6-.2-.2-.4-.2-.8-.2-.7.1-.7.8-.7.9v1zm1 1.5c-.4 0-.7-.1-1-.4-.3-.3-.5-.6-.6-1.1v-1.1c0-.5.4-1.4 1.4-1.5.5 0 1 .1 1.3.4.3.2.4.6.4 1l.1.9c.1.9-.6 1.6-1.5 1.7 0 .1-.1.1-.1.1z"/>
        <path class="st13" d="M449.1 345.7h-2.6l2.4-2.4c.8-.8.2-2.3-1-2.3h-4c-1.2 0-1.8 1.5-1 2.3l2.4 2.4h-2.5c-4.9 0-8.9 4-8.9 8.9v6.2c0 4.9 4 8.8 8.9 8.8h6.3c4.9 0 8.9-4 8.9-8.8v-6.2c0-5-4-8.9-8.9-8.9"/>
    </g>
    <g>
        <g transform="translate(663)">
            <path id="f" class="st1" d="M8 0h121c4.4 0 8 3.6 8 8v66c0 4.4-3.6 8-8 8H8c-4.4 0-8-3.6-8-8V8c0-4.4 3.6-8 8-8z"/>
        </g>
        <path class="st0" d="M10 2h117c4.4 0 8 3.6 8 8v62c0 4.4-3.6 8-8 8H10c-4.4 0-8-3.6-8-8V10c0-4.4 3.6-8 8-8z" transform="translate(663)"/>
        <path class="st2" d="M726.5 26.6c.9-3.6 1.4-6.1 1.5-9.8 0-.6-.7-1-1.2-.6l-4.8 3.5c-.7.5-1.7.7-2.6.4-1.1-.4-2.2-.5-3.4-.5-1.2 0-2.3.2-3.4.5-.9.3-1.8.1-2.6-.4l-4.8-3.5c-.5-.4-1.2 0-1.2.6.1 3.7.6 6.2 1.5 9.8.1.3.1.6 0 .8-.3 1-.5 2-.5 3.1 0 1.8.4 3.4 1.2 4.9.7 1.5 2.9 1.4 4.2 2.4 1.9 1.5 3.1 3.7 5.6 3.7 1.3 0 2.5-1.1 3.7-1.5 2.5-.9 4.7-1.9 6-4.3.8-1.5 1.3-3.3 1.3-5.2 0-1.2-.1-2.1-.5-3.2-.1-.2-.1-.4 0-.6v-.1z"/>
        <path class="st3" d="M721.5 31.6c.1.6-.4 1.2-1.2 1.3-.8.1-1.5-.2-1.6-.8-.1-.6.4-1.2 1.2-1.3.8-.2 1.5.2 1.6.8m-11.1 0c-.1.6.4 1.2 1.2 1.3.8.1 1.5-.2 1.6-.8.1-.6-.4-1.2-1.2-1.3-.8-.2-1.5.2-1.6.8"/>
        <path class="st4" d="M714.2 42.3h.5c0-7.9-9-7.5-9-7.5s.3 1.7 2 3.8c.7.8 1.7 1.3 2.7 1.6.1 0 .4.1.4.1 1.6.5 2.7.8 3.4 2m3.5 0h-.5c0-7.9 9-7.5 9-7.5s-.3 1.7-2 3.8c-.7.8-1.7 1.3-2.7 1.6-.1 0-.4.1-.4.1-1.6.5-2.7.8-3.4 2"/>
        <path class="st3" d="M718 41.2c0 1.1-.9 2.1-2.1 2.1-1.1 0-2.1-.9-2.1-2.1 0-1.1.4-2.1 2.1-2.1 1.6 0 2.1.9 2.1 2.1"/>
        <path class="st5" d="M706.7 24.9c.4-.7 1.2-1.8 2.6-3 .3-.2.3-.6 0-.9l-2.8-2.2c-.5-.4-1.1 0-1.1.6l.8 5.3c.1.4.4.4.5.2m18.4 0c-.4-.7-1.2-1.8-2.6-3-.3-.2-.3-.6 0-.9l2.8-2.2c.5-.4 1.1 0 1.1.6l-.8 5.3c-.1.4-.4.4-.5.2"/>
        <path class="st6" d="M747.3 19.3c-.1-1.4-.3-2.9-1.6-3.8-1.2-.8-2.9-.6-3.9.4-.9.9.5 2.2 1.4 1.4.5-.4 1.1-.4 1.6 0 .6.5.6 1.4.6 2.1 0 1.2 2 1.2 1.9-.1"/>
        <path class="st6" d="M748.3 19.5c.2-.9.5-3 1.9-2.5 1.2.4 1.7-1.5.5-1.9-1.1-.3-2.3.1-3 .9-.7.8-1 1.9-1.2 3-.1.5.1 1.1.7 1.2.4.2 1-.1 1.1-.7"/>
        <path class="st7" d="M759 30.8c0 6.6-5.4 12-12 12s-12-5.4-12-12 5.4-12 12-12 12 5.3 12 12"/>
        <path class="st8" d="M749.8 36.2L748 38c-.5.5-1.4.5-1.9 0l-1.8-1.8c-.8-.8-.4-2.1.7-2.3 1.4-.3 2.8-.3 4.2 0 1 .2 1.3 1.5.6 2.3"/>
        <path class="st9" d="M744.2 28.2c0 .6-.5 1.1-1.1 1.1s-1.1-.5-1.1-1.1.5-1.1 1.1-1.1 1.1.5 1.1 1.1m7.9 0c0 .6-.5 1.1-1.1 1.1s-1.1-.5-1.1-1.1.5-1.1 1.1-1.1 1.1.5 1.1 1.1"/>
        <path class="st11" d="M697.2 29.2c0-6.2-5-11.2-11.2-11.2-4.5 0-8.4 2.7-10.2 6.5-.7 1.4-1 3-1 4.7 0 1.5.3 3 .9 4.4.9 2.2 2.5 4 4.6 5.3 1.7 1 3.6 1.6 5.7 1.6s4.1-.6 5.8-1.6c3.2-2.1 5.4-5.6 5.4-9.7z"/>
        <path class="st10" d="M696.4 33.2c-.9 0-1.6-1.6-1.6-3.6s.7-3.6 1.6-3.6c.9 0 1.6 1.6 1.6 3.6s-.7 3.6-1.6 3.6z"/>
        <path class="st11" d="M697.2 31.6c-.4 0-.8-.9-.8-2s.4-2 .8-2 .8.9.8 2-.4 2-.8 2"/>
        <path class="st12" d="M689.1 28.7l.1.9c.1.6-.4 1.2-1.1 1.3-.7.1-1.2-.4-1.3-1.1v-1s.1-1.1 1-1.1c.9-.2 1.3.3 1.3 1"/>
        <path class="st1" d="M687.4 29.3c0 .2.1.5.3.6.2.2.4.2.7.2.5 0 .9-.5.9-1l-.1-.9c0-.3-.1-.5-.3-.6-.2-.2-.4-.2-.8-.2-.7.1-.7.8-.7.9v1zm1 1.5c-.4 0-.7-.1-1-.4-.3-.3-.5-.6-.6-1.1v-1.1c0-.5.4-1.4 1.4-1.5.5 0 1 .1 1.3.4.3.2.4.6.4 1l.1.9c.1.9-.6 1.6-1.5 1.7 0 .1-.1.1-.1.1z"/>
        <path class="st12" d="M683.5 28.7l.1.9c.1.6-.4 1.2-1.1 1.3-.7.1-1.2-.4-1.3-1.1v-1s.1-1.1 1-1.1c.9-.2 1.3.3 1.3 1"/>
        <path class="st1" d="M681 29.3c0 .2.1.5.3.6.2.2.4.2.7.2.5 0 .9-.5.9-1l-.1-.9c0-.3-.1-.5-.3-.6-.2-.2-.4-.2-.8-.2-.7.1-.7.8-.7.9v1zm1 1.5c-.4 0-.7-.1-1-.4-.3-.3-.5-.6-.6-1.1v-1.1c0-.5.4-1.4 1.4-1.5.5 0 1 .1 1.3.4.3.2.4.6.4 1l.1.9c.1.9-.6 1.6-1.5 1.7 0 .1-.1.1-.1.1z"/>
        <path class="st13" d="M780.1 19.7h-2.6l2.4-2.4c.8-.8.2-2.3-1-2.3h-4c-1.2 0-1.8 1.5-1 2.3l2.4 2.4h-2.5c-4.9 0-8.9 4-8.9 8.9v6.2c0 4.9 4 8.8 8.9 8.8h6.3c4.9 0 8.9-4 8.9-8.8v-6.2c0-5-4-8.9-8.9-8.9"/>
        <path class="st14" d="M780.3 55.7H775v3.8h5.3v2.7H775V67h-3.2V53h8.5v2.7zM744.7 53l5.1 9.1V53h3.2v14h-3.4l-5-9v9h-3.2V53h3.3zm-25.4 2.7H714v3.8h5.3v2.7H714V67h-3.2V53h8.5v2.7zM683.7 53l5.1 9.1V53h3.2v14h-3.4l-5-9v9h-3.2V53h3.3z"/>
        <g>
            <path class="st10" d="M678 29.6c0 1.5-.9 2.8-2 2.8s-2-1.3-2-2.8.9-2.8 2-2.8 2 1.3 2 2.8"/>
        </g>
    </g>
    <path class="st15" d="M568 41v330.2M69 41l500.2 329.6M567 41l168.4 328.6"/>
    <g>
        <path id="g" class="st1" d="M8 0h121c4.4 0 8 3.6 8 8v66c0 4.4-3.6 8-8 8H8c-4.4 0-8-3.6-8-8V8c0-4.4 3.6-8 8-8z"/>
        <path class="st15" d="M10 2h117c4.4 0 8 3.6 8 8v62c0 4.4-3.6 8-8 8H10c-4.4 0-8-3.6-8-8V10c0-4.4 3.6-8 8-8z"/>
        <path class="st2" d="M63.5 26.6c.9-3.6 1.4-6.1 1.5-9.8 0-.6-.7-1-1.2-.6L59 19.7c-.7.5-1.7.7-2.6.4-1.1-.4-2.2-.5-3.4-.5-1.2 0-2.3.2-3.4.5-.9.3-1.8.1-2.6-.4l-4.8-3.5c-.5-.4-1.2 0-1.2.6.1 3.7.6 6.2 1.5 9.8.1.3.1.6 0 .8-.3 1-.5 2-.5 3.1 0 1.8.4 3.4 1.2 4.9.7 1.5 2.9 1.4 4.2 2.4 1.9 1.5 3.1 3.7 5.6 3.7 1.3 0 2.5-1.1 3.7-1.5 2.5-.9 4.7-1.9 6-4.3.8-1.5 1.3-3.3 1.3-5.2 0-1.2-.1-2.1-.5-3.2-.1-.2-.1-.4 0-.6v-.1z"/>
        <path class="st3" d="M58.5 31.6c.1.6-.4 1.2-1.2 1.3-.8.1-1.5-.2-1.6-.8-.1-.6.4-1.2 1.2-1.3.8-.2 1.5.2 1.6.8m-11.1 0c-.1.6.4 1.2 1.2 1.3.8.1 1.5-.2 1.6-.8.1-.6-.4-1.2-1.2-1.3-.8-.2-1.5.2-1.6.8"/>
        <path class="st4" d="M51.2 42.3h.5c0-7.9-9-7.5-9-7.5s.3 1.7 2 3.8c.7.8 1.7 1.3 2.7 1.6.1 0 .4.1.4.1 1.6.5 2.7.8 3.4 2m3.5 0h-.5c0-7.9 9-7.5 9-7.5s-.3 1.7-2 3.8c-.7.8-1.7 1.3-2.7 1.6-.1 0-.4.1-.4.1-1.6.5-2.7.8-3.4 2"/>
        <path class="st3" d="M55 41.2c0 1.1-.9 2.1-2.1 2.1-1.1 0-2.1-.9-2.1-2.1 0-1.1.4-2.1 2.1-2.1 1.6 0 2.1.9 2.1 2.1"/>
        <path class="st5" d="M43.7 24.9c.4-.7 1.2-1.8 2.6-3 .3-.2.3-.6 0-.9l-2.8-2.2c-.5-.4-1.1 0-1.1.6l.8 5.3c.1.4.4.4.5.2m18.4 0c-.4-.7-1.2-1.8-2.6-3-.3-.2-.3-.6 0-.9l2.8-2.2c.5-.4 1.1 0 1.1.6l-.8 5.3c-.1.4-.4.4-.5.2"/>
        <path class="st6" d="M84.3 19.3c-.1-1.4-.3-2.9-1.6-3.8-1.2-.8-2.9-.6-3.9.4-.9.9.5 2.2 1.4 1.4.5-.4 1.1-.4 1.6 0 .6.5.6 1.4.6 2.1 0 1.2 2 1.2 1.9-.1"/>
        <path class="st6" d="M85.3 19.5c.2-.9.5-3 1.9-2.5 1.2.4 1.7-1.5.5-1.9-1.1-.3-2.3.1-3 .9-.7.8-1 1.9-1.2 3-.1.5.1 1.1.7 1.2.4.2 1-.1 1.1-.7"/>
        <path class="st7" d="M96 30.8c0 6.6-5.4 12-12 12s-12-5.4-12-12 5.4-12 12-12 12 5.3 12 12"/>
        <path class="st8" d="M86.8 36.2L85 38c-.5.5-1.4.5-1.9 0l-1.8-1.8c-.8-.8-.4-2.1.7-2.3 1.4-.3 2.8-.3 4.2 0 1 .2 1.3 1.5.6 2.3"/>
        <path class="st9" d="M81.2 28.2c0 .6-.5 1.1-1.1 1.1s-1.1-.5-1.1-1.1.5-1.1 1.1-1.1 1.1.5 1.1 1.1m7.9 0c0 .6-.5 1.1-1.1 1.1s-1.1-.5-1.1-1.1.5-1.1 1.1-1.1 1.1.5 1.1 1.1"/>
        <path class="st10" d="M15 29.6c0 1.5-.9 2.8-2 2.8s-2-1.3-2-2.8.9-2.8 2-2.8 2 1.3 2 2.8"/>
        <path class="st11" d="M34.2 29.2C34.2 23 29.2 18 23 18c-4.5 0-8.4 2.7-10.2 6.5-.6 1.4-1 3-1 4.7 0 1.5.3 3 .9 4.4.9 2.2 2.6 4 4.6 5.3 1.7 1 3.6 1.6 5.7 1.6s4.1-.6 5.8-1.6c3.2-2.1 5.4-5.6 5.4-9.7z"/>
        <path class="st10" d="M33.4 33.2c-.9 0-1.6-1.6-1.6-3.6s.7-3.6 1.6-3.6c.9 0 1.6 1.6 1.6 3.6s-.7 3.6-1.6 3.6z"/>
        <path class="st11" d="M34.2 31.6c-.4 0-.8-.9-.8-2s.4-2 .8-2 .8.9.8 2-.4 2-.8 2"/>
        <path class="st12" d="M26.1 28.7l.1.9c.1.6-.4 1.2-1.1 1.3-.7.1-1.2-.4-1.3-1.1v-1s.1-1.1 1-1.1c.9-.2 1.3.3 1.3 1"/>
        <path class="st1" d="M24.4 29.3c0 .2.1.5.3.6.2.2.4.2.7.2.5 0 .9-.5.9-1l-.1-.9c0-.3-.1-.5-.3-.6-.2-.2-.4-.2-.8-.2-.7.1-.7.8-.7.9v1zm1 1.5c-.4 0-.7-.1-1-.4-.3-.3-.5-.6-.6-1.1v-1.1c0-.5.4-1.4 1.4-1.5.5 0 1 .1 1.3.4.3.2.4.6.4 1l.1.9c.1.9-.6 1.6-1.5 1.7 0 .1-.1.1-.1.1z"/>
        <path class="st12" d="M20.5 28.7l.1.9c.1.6-.4 1.2-1.1 1.3-.7.1-1.2-.4-1.3-1.1v-1s.1-1.1 1-1.1c.9-.2 1.3.3 1.3 1"/>
        <path class="st1" d="M18 29.3c0 .2.1.5.3.6.2.2.4.2.7.2.5 0 .9-.5.9-1l-.1-.9c0-.3-.1-.5-.3-.6-.2-.2-.4-.2-.8-.2-.7.1-.7.8-.7.9v1zm1 1.5c-.4 0-.7-.1-1-.4-.3-.3-.5-.6-.6-1.1v-1.1c0-.5.4-1.4 1.4-1.5.5 0 1 .1 1.3.4.3.2.4.6.4 1l.1.9c.1.9-.6 1.6-1.5 1.7 0 .1-.1.1-.1.1z"/>
        <path class="st13" d="M117.1 19.7h-2.6l2.4-2.4c.8-.8.2-2.3-1-2.3h-4c-1.2 0-1.8 1.5-1 2.3l2.4 2.4h-2.5c-4.9 0-8.9 4-8.9 8.9v6.2c0 4.9 4 8.8 8.9 8.8h6.3c4.9 0 8.9-4 8.9-8.8v-6.2c0-5-4-8.9-8.9-8.9"/>
        <path class="st14" d="M111.7 53l5.1 9.1V53h3.2v14h-3.4l-5-9v9h-3.2V53h3.3zm-30 0l5.1 9.1V53H90v14h-3.4l-5-9v9h-3.2V53h3.3zm-31 0l5.1 9.1V53H59v14h-3.4l-5-9v9h-3.2V53h3.3zm-30 0l5.1 9.1V53H29v14h-3.4l-5-9v9h-3.2V53h3.3z"/>
    </g>
    <g>
        <g transform="translate(498)">
            <path id="h" class="st1" d="M8 0h121c4.4 0 8 3.6 8 8v66c0 4.4-3.6 8-8 8H8c-4.4 0-8-3.6-8-8V8c0-4.4 3.6-8 8-8z"/>
        </g>
        <path class="st15" d="M10 2h117c4.4 0 8 3.6 8 8v62c0 4.4-3.6 8-8 8H10c-4.4 0-8-3.6-8-8V10c0-4.4 3.6-8 8-8z" transform="translate(498)"/>
        <path class="st2" d="M561.5 26.6c.9-3.6 1.4-6.1 1.5-9.8 0-.6-.7-1-1.2-.6l-4.8 3.5c-.7.5-1.7.7-2.6.4-1.1-.4-2.2-.5-3.4-.5-1.2 0-2.3.2-3.4.5-.9.3-1.8.1-2.6-.4l-4.8-3.5c-.5-.4-1.2 0-1.2.6.1 3.7.6 6.2 1.5 9.8.1.3.1.6 0 .8-.3 1-.5 2-.5 3.1 0 1.8.4 3.4 1.2 4.9.7 1.5 2.9 1.4 4.2 2.4 1.9 1.5 3.1 3.7 5.6 3.7 1.3 0 2.5-1.1 3.7-1.5 2.5-.9 4.7-1.9 6-4.3.8-1.5 1.3-3.3 1.3-5.2 0-1.2-.1-2.1-.5-3.2-.1-.2-.1-.4 0-.6v-.1z"/>
        <path class="st3" d="M556.5 31.6c.1.6-.4 1.2-1.2 1.3-.8.1-1.5-.2-1.6-.8-.1-.6.4-1.2 1.2-1.3.8-.2 1.5.2 1.6.8m-11.1 0c-.1.6.4 1.2 1.2 1.3.8.1 1.5-.2 1.6-.8.1-.6-.4-1.2-1.2-1.3-.8-.2-1.5.2-1.6.8"/>
        <path class="st4" d="M549.2 42.3h.5c0-7.9-9-7.5-9-7.5s.3 1.7 2 3.8c.7.8 1.7 1.3 2.7 1.6.1 0 .4.1.4.1 1.6.5 2.7.8 3.4 2m3.5 0h-.5c0-7.9 9-7.5 9-7.5s-.3 1.7-2 3.8c-.7.8-1.7 1.3-2.7 1.6-.1 0-.4.1-.4.1-1.6.5-2.7.8-3.4 2"/>
        <path class="st3" d="M553 41.2c0 1.1-.9 2.1-2.1 2.1-1.1 0-2.1-.9-2.1-2.1 0-1.1.4-2.1 2.1-2.1 1.6 0 2.1.9 2.1 2.1"/>
        <path class="st5" d="M541.7 24.9c.4-.7 1.2-1.8 2.6-3 .3-.2.3-.6 0-.9l-2.8-2.2c-.5-.4-1.1 0-1.1.6l.8 5.3c.1.4.4.4.5.2m18.4 0c-.4-.7-1.2-1.8-2.6-3-.3-.2-.3-.6 0-.9l2.8-2.2c.5-.4 1.1 0 1.1.6l-.8 5.3c-.1.4-.4.4-.5.2"/>
        <path class="st6" d="M582.3 19.3c-.1-1.4-.3-2.9-1.6-3.8-1.2-.8-2.9-.6-3.9.4-.9.9.5 2.2 1.4 1.4.5-.4 1.1-.4 1.6 0 .6.5.6 1.4.6 2.1 0 1.2 2 1.2 1.9-.1"/>
        <path class="st6" d="M583.3 19.5c.2-.9.5-3 1.9-2.5 1.2.4 1.7-1.5.5-1.9-1.1-.3-2.3.1-3 .9-.7.8-1 1.9-1.2 3-.1.5.1 1.1.7 1.2.4.2 1-.1 1.1-.7"/>
        <path class="st7" d="M594 30.8c0 6.6-5.4 12-12 12s-12-5.4-12-12 5.4-12 12-12 12 5.3 12 12"/>
        <path class="st8" d="M584.8 36.2L583 38c-.5.5-1.4.5-1.9 0l-1.8-1.8c-.8-.8-.4-2.1.7-2.3 1.4-.3 2.8-.3 4.2 0 1 .2 1.3 1.5.6 2.3"/>
        <path class="st9" d="M579.2 28.2c0 .6-.5 1.1-1.1 1.1s-1.1-.5-1.1-1.1.5-1.1 1.1-1.1 1.1.5 1.1 1.1m7.9 0c0 .6-.5 1.1-1.1 1.1s-1.1-.5-1.1-1.1.5-1.1 1.1-1.1 1.1.5 1.1 1.1"/>
        <path class="st10" d="M513 29.6c0 1.5-.9 2.8-2 2.8s-2-1.3-2-2.8.9-2.8 2-2.8 2 1.3 2 2.8"/>
        <path class="st11" d="M532.2 29.2c0-6.2-5-11.2-11.2-11.2-4.5 0-8.4 2.7-10.2 6.5-.6 1.4-1 3-1 4.7 0 1.5.3 3 .9 4.4.9 2.2 2.5 4 4.6 5.3 1.7 1 3.6 1.6 5.7 1.6s4.1-.6 5.8-1.6c3.2-2.1 5.4-5.6 5.4-9.7z"/>
        <path class="st10" d="M531.4 33.2c-.9 0-1.6-1.6-1.6-3.6s.7-3.6 1.6-3.6c.9 0 1.6 1.6 1.6 3.6s-.7 3.6-1.6 3.6z"/>
        <path class="st11" d="M532.2 31.6c-.4 0-.8-.9-.8-2s.4-2 .8-2 .8.9.8 2-.4 2-.8 2"/>
        <path class="st12" d="M524.1 28.7l.1.9c.1.6-.4 1.2-1.1 1.3-.7.1-1.2-.4-1.3-1.1v-1s.1-1.1 1-1.1c.9-.2 1.3.3 1.3 1"/>
        <path class="st1" d="M522.4 29.3c0 .2.1.5.3.6.2.2.4.2.7.2.5 0 .9-.5.9-1l-.1-.9c0-.3-.1-.5-.3-.6-.2-.2-.4-.2-.8-.2-.7.1-.7.8-.7.9v1zm1 1.5c-.4 0-.7-.1-1-.4-.3-.3-.5-.6-.6-1.1v-1.1c0-.5.4-1.4 1.4-1.5.5 0 1 .1 1.3.4.3.2.4.6.4 1l.1.9c.1.9-.6 1.6-1.5 1.7 0 .1-.1.1-.1.1z"/>
        <path class="st12" d="M518.5 28.7l.1.9c.1.6-.4 1.2-1.1 1.3-.7.1-1.2-.4-1.3-1.1v-1s.1-1.1 1-1.1c.9-.2 1.3.3 1.3 1"/>
        <path class="st1" d="M516 29.3c0 .2.1.5.3.6.2.2.4.2.7.2.5 0 .9-.5.9-1l-.1-.9c0-.3-.1-.5-.3-.6-.2-.2-.4-.2-.8-.2-.7.1-.7.8-.7.9v1zm1 1.5c-.4 0-.7-.1-1-.4-.3-.3-.5-.6-.6-1.1v-1.1c0-.5.4-1.4 1.4-1.5.5 0 1 .1 1.3.4.3.2.4.6.4 1l.1.9c.1.9-.6 1.6-1.5 1.7 0 .1-.1.1-.1.1z"/>
        <path class="st13" d="M615.1 19.7h-2.6l2.4-2.4c.8-.8.2-2.3-1-2.3h-4c-1.2 0-1.8 1.5-1 2.3l2.4 2.4h-2.5c-4.9 0-8.9 4-8.9 8.9v6.2c0 4.9 4 8.8 8.9 8.8h6.3c4.9 0 8.9-4 8.9-8.8v-6.2c0-5-4-8.9-8.9-8.9"/>
        <path class="st14" d="M609.7 53l5.1 9.1V53h3.2v14h-3.4l-5-9v9h-3.2V53h3.3zm-30 0l5.1 9.1V53h3.2v14h-3.4l-5-9v9h-3.2V53h3.3zm-25.4 2.7H549v3.8h5.3v2.7H549V67h-3.2V53h8.5v2.7zM518.7 53l5.1 9.1V53h3.2v14h-3.4l-5-9v9h-3.2V53h3.3z"/>
    </g>
    <g>
        <g transform="translate(498 326)">
            <path id="i" class="st1" d="M8 0h121c4.4 0 8 3.6 8 8v66c0 4.4-3.6 8-8 8H8c-4.4 0-8-3.6-8-8V8c0-4.4 3.6-8 8-8z"/>
        </g>
        <path class="st15" d="M10 2h117c4.4 0 8 3.6 8 8v62c0 4.4-3.6 8-8 8H10c-4.4 0-8-3.6-8-8V10c0-4.4 3.6-8 8-8z" transform="translate(498 326)"/>
        <path class="st2" d="M561.5 352.6c.9-3.6 1.4-6.1 1.5-9.8 0-.6-.7-1-1.2-.6l-4.8 3.5c-.7.5-1.7.7-2.6.4-1.1-.4-2.2-.5-3.4-.5-1.2 0-2.3.2-3.4.5-.9.3-1.8.1-2.6-.4l-4.8-3.5c-.5-.4-1.2 0-1.2.6.1 3.7.6 6.2 1.5 9.8.1.3.1.6 0 .8-.3 1-.5 2-.5 3.1 0 1.8.4 3.4 1.2 4.9.7 1.5 2.9 1.4 4.2 2.4 1.9 1.5 3.1 3.7 5.6 3.7 1.3 0 2.5-1.1 3.7-1.5 2.5-.9 4.7-1.9 6-4.3.8-1.5 1.3-3.3 1.3-5.2 0-1.2-.1-2.1-.5-3.2-.1-.2-.1-.4 0-.6v-.1z"/>
        <path class="st3" d="M556.5 357.6c.1.6-.4 1.2-1.2 1.3-.8.1-1.5-.2-1.6-.8-.1-.6.4-1.2 1.2-1.3.8-.2 1.5.2 1.6.8m-11.1 0c-.1.6.4 1.2 1.2 1.3.8.1 1.5-.2 1.6-.8.1-.6-.4-1.2-1.2-1.3-.8-.2-1.5.2-1.6.8"/>
        <path class="st4" d="M549.2 368.3h.5c0-7.9-9-7.5-9-7.5s.3 1.7 2 3.8c.7.8 1.7 1.3 2.7 1.6.1 0 .4.1.4.1 1.6.5 2.7.8 3.4 2m3.5 0h-.5c0-7.9 9-7.5 9-7.5s-.3 1.7-2 3.8c-.7.8-1.7 1.3-2.7 1.6-.1 0-.4.1-.4.1-1.6.5-2.7.8-3.4 2"/>
        <path class="st3" d="M553 367.2c0 1.1-.9 2.1-2.1 2.1-1.1 0-2.1-.9-2.1-2.1 0-1.1.4-2.1 2.1-2.1 1.6 0 2.1.9 2.1 2.1"/>
        <path class="st5" d="M541.7 350.9c.4-.7 1.2-1.8 2.6-3 .3-.2.3-.6 0-.9l-2.8-2.2c-.5-.4-1.1 0-1.1.6l.8 5.3c.1.4.4.4.5.2m18.4 0c-.4-.7-1.2-1.8-2.6-3-.3-.2-.3-.6 0-.9l2.8-2.2c.5-.4 1.1 0 1.1.6l-.8 5.3c-.1.4-.4.4-.5.2"/>
        <path class="st6" d="M582.3 345.3c-.1-1.4-.3-2.9-1.6-3.8-1.2-.8-2.9-.6-3.9.4-.9.9.5 2.2 1.4 1.4.5-.4 1.1-.4 1.6 0 .6.5.6 1.4.6 2.1 0 1.2 2 1.2 1.9-.1"/>
        <path class="st6" d="M583.3 345.5c.2-.9.5-3 1.9-2.5 1.2.4 1.7-1.5.5-1.9-1.1-.3-2.3.1-3 .9-.7.8-1 1.9-1.2 3-.1.5.1 1.1.7 1.2.4.2 1-.1 1.1-.7"/>
        <path class="st7" d="M594 356.8c0 6.6-5.4 12-12 12s-12-5.4-12-12 5.4-12 12-12 12 5.3 12 12"/>
        <path class="st8" d="M584.8 362.2L583 364c-.5.5-1.4.5-1.9 0l-1.8-1.8c-.8-.8-.4-2.1.7-2.3 1.4-.3 2.8-.3 4.2 0 1 .2 1.3 1.5.6 2.3"/>
        <path class="st9" d="M579.2 354.2c0 .6-.5 1.1-1.1 1.1s-1.1-.5-1.1-1.1.5-1.1 1.1-1.1 1.1.5 1.1 1.1m7.9 0c0 .6-.5 1.1-1.1 1.1s-1.1-.5-1.1-1.1.5-1.1 1.1-1.1 1.1.5 1.1 1.1"/>
        <path class="st10" d="M513 355.6c0 1.5-.9 2.8-2 2.8s-2-1.3-2-2.8.9-2.8 2-2.8 2 1.3 2 2.8"/>
        <path class="st11" d="M532.2 355.2c0-6.2-5-11.2-11.2-11.2-4.5 0-8.4 2.7-10.2 6.5-.6 1.4-1 3-1 4.7 0 1.5.3 3 .9 4.4.9 2.2 2.5 4 4.6 5.3 1.7 1 3.6 1.6 5.7 1.6s4.1-.6 5.8-1.6c3.2-2.1 5.4-5.6 5.4-9.7z"/>
        <path class="st10" d="M531.4 359.2c-.9 0-1.6-1.6-1.6-3.6s.7-3.6 1.6-3.6c.9 0 1.6 1.6 1.6 3.6s-.7 3.6-1.6 3.6z"/>
        <path class="st11" d="M532.2 357.6c-.4 0-.8-.9-.8-2s.4-2 .8-2 .8.9.8 2-.4 2-.8 2"/>
        <path class="st12" d="M524.1 354.7l.1.9c.1.6-.4 1.2-1.1 1.3-.7.1-1.2-.4-1.3-1.1v-1s.1-1.1 1-1.1c.9-.2 1.3.3 1.3 1"/>
        <path class="st1" d="M522.4 355.3c0 .2.1.5.3.6.2.2.4.2.7.2.5 0 .9-.5.9-1l-.1-.9c0-.3-.1-.5-.3-.6-.2-.2-.4-.2-.8-.2-.7.1-.7.8-.7.9v1zm1 1.5c-.4 0-.7-.1-1-.4-.3-.3-.5-.6-.6-1.1v-1.1c0-.5.4-1.4 1.4-1.5.5 0 1 .1 1.3.4.3.2.4.6.4 1l.1.9c.1.9-.6 1.6-1.5 1.7 0 .1-.1.1-.1.1z"/>
        <path class="st12" d="M518.5 354.7l.1.9c.1.6-.4 1.2-1.1 1.3-.7.1-1.2-.4-1.3-1.1v-1s.1-1.1 1-1.1c.9-.2 1.3.3 1.3 1"/>
        <path class="st1" d="M516 355.3c0 .2.1.5.3.6.2.2.4.2.7.2.5 0 .9-.5.9-1l-.1-.9c0-.3-.1-.5-.3-.6-.2-.2-.4-.2-.8-.2-.7.1-.7.8-.7.9v1zm1 1.5c-.4 0-.7-.1-1-.4-.3-.3-.5-.6-.6-1.1v-1.1c0-.5.4-1.4 1.4-1.5.5 0 1 .1 1.3.4.3.2.4.6.4 1l.1.9c.1.9-.6 1.6-1.5 1.7 0 .1-.1.1-.1.1z"/>
        <path class="st13" d="M615.1 345.7h-2.6l2.4-2.4c.8-.8.2-2.3-1-2.3h-4c-1.2 0-1.8 1.5-1 2.3l2.4 2.4h-2.5c-4.9 0-8.9 4-8.9 8.9v6.2c0 4.9 4 8.8 8.9 8.8h6.3c4.9 0 8.9-4 8.9-8.8v-6.2c0-5-4-8.9-8.9-8.9"/>
        <path class="st14" d="M609.7 379l5.1 9.1V379h3.2v14h-3.4l-5-9v9h-3.2v-14h3.3zm-24.4 2.7H580v3.8h5.3v2.7H580v4.8h-3.2v-14h8.5v2.7zm-31 0H549v3.8h5.3v2.7H549v4.8h-3.2v-14h8.5v2.7zm-30 0H519v3.8h5.3v2.7H519v4.8h-3.2v-14h8.5v2.7z"/>
    </g>
    <g>
        <g transform="translate(663 326)">
            <path id="j" class="st1" d="M8 0h121c4.4 0 8 3.6 8 8v66c0 4.4-3.6 8-8 8H8c-4.4 0-8-3.6-8-8V8c0-4.4 3.6-8 8-8z"/>
        </g>
        <path class="st15" d="M10 2h117c4.4 0 8 3.6 8 8v62c0 4.4-3.6 8-8 8H10c-4.4 0-8-3.6-8-8V10c0-4.4 3.6-8 8-8z" transform="translate(663 326)"/>
        <path class="st2" d="M726.5 352.6c.9-3.6 1.4-6.1 1.5-9.8 0-.6-.7-1-1.2-.6l-4.8 3.5c-.7.5-1.7.7-2.6.4-1.1-.4-2.2-.5-3.4-.5-1.2 0-2.3.2-3.4.5-.9.3-1.8.1-2.6-.4l-4.8-3.5c-.5-.4-1.2 0-1.2.6.1 3.7.6 6.2 1.5 9.8.1.3.1.6 0 .8-.3 1-.5 2-.5 3.1 0 1.8.4 3.4 1.2 4.9.7 1.5 2.9 1.4 4.2 2.4 1.9 1.5 3.1 3.7 5.6 3.7 1.3 0 2.5-1.1 3.7-1.5 2.5-.9 4.7-1.9 6-4.3.8-1.5 1.3-3.3 1.3-5.2 0-1.2-.1-2.1-.5-3.2-.1-.2-.1-.4 0-.6v-.1z"/>
        <path class="st3" d="M721.5 357.6c.1.6-.4 1.2-1.2 1.3-.8.1-1.5-.2-1.6-.8-.1-.6.4-1.2 1.2-1.3.8-.2 1.5.2 1.6.8m-11.1 0c-.1.6.4 1.2 1.2 1.3.8.1 1.5-.2 1.6-.8.1-.6-.4-1.2-1.2-1.3-.8-.2-1.5.2-1.6.8"/>
        <path class="st4" d="M714.2 368.3h.5c0-7.9-9-7.5-9-7.5s.3 1.7 2 3.8c.7.8 1.7 1.3 2.7 1.6.1 0 .4.1.4.1 1.6.5 2.7.8 3.4 2m3.5 0h-.5c0-7.9 9-7.5 9-7.5s-.3 1.7-2 3.8c-.7.8-1.7 1.3-2.7 1.6-.1 0-.4.1-.4.1-1.6.5-2.7.8-3.4 2"/>
        <path class="st3" d="M718 367.2c0 1.1-.9 2.1-2.1 2.1-1.1 0-2.1-.9-2.1-2.1 0-1.1.4-2.1 2.1-2.1 1.6 0 2.1.9 2.1 2.1"/>
        <path class="st5" d="M706.7 350.9c.4-.7 1.2-1.8 2.6-3 .3-.2.3-.6 0-.9l-2.8-2.2c-.5-.4-1.1 0-1.1.6l.8 5.3c.1.4.4.4.5.2m18.4 0c-.4-.7-1.2-1.8-2.6-3-.3-.2-.3-.6 0-.9l2.8-2.2c.5-.4 1.1 0 1.1.6l-.8 5.3c-.1.4-.4.4-.5.2"/>
        <path class="st6" d="M747.3 345.3c-.1-1.4-.3-2.9-1.6-3.8-1.2-.8-2.9-.6-3.9.4-.9.9.5 2.2 1.4 1.4.5-.4 1.1-.4 1.6 0 .6.5.6 1.4.6 2.1 0 1.2 2 1.2 1.9-.1"/>
        <path class="st6" d="M748.3 345.5c.2-.9.5-3 1.9-2.5 1.2.4 1.7-1.5.5-1.9-1.1-.3-2.3.1-3 .9-.7.8-1 1.9-1.2 3-.1.5.1 1.1.7 1.2.4.2 1-.1 1.1-.7"/>
        <path class="st7" d="M759 356.8c0 6.6-5.4 12-12 12s-12-5.4-12-12 5.4-12 12-12 12 5.3 12 12"/>
        <path class="st8" d="M749.8 362.2L748 364c-.5.5-1.4.5-1.9 0l-1.8-1.8c-.8-.8-.4-2.1.7-2.3 1.4-.3 2.8-.3 4.2 0 1 .2 1.3 1.5.6 2.3"/>
        <path class="st9" d="M744.2 354.2c0 .6-.5 1.1-1.1 1.1s-1.1-.5-1.1-1.1.5-1.1 1.1-1.1 1.1.5 1.1 1.1m7.9 0c0 .6-.5 1.1-1.1 1.1s-1.1-.5-1.1-1.1.5-1.1 1.1-1.1 1.1.5 1.1 1.1"/>
        <path class="st10" d="M678 355.6c0 1.5-.9 2.8-2 2.8s-2-1.3-2-2.8.9-2.8 2-2.8 2 1.3 2 2.8"/>
        <path class="st11" d="M697.2 355.2c0-6.2-5-11.2-11.2-11.2-4.5 0-8.4 2.7-10.2 6.5-.7 1.4-1 3-1 4.7 0 1.5.3 3 .9 4.4.9 2.2 2.5 4 4.6 5.3 1.7 1 3.6 1.6 5.7 1.6s4.1-.6 5.8-1.6c3.2-2.1 5.4-5.6 5.4-9.7z"/>
        <path class="st10" d="M696.4 359.2c-.9 0-1.6-1.6-1.6-3.6s.7-3.6 1.6-3.6c.9 0 1.6 1.6 1.6 3.6s-.7 3.6-1.6 3.6z"/>
        <path class="st11" d="M697.2 357.6c-.4 0-.8-.9-.8-2s.4-2 .8-2 .8.9.8 2-.4 2-.8 2"/>
        <path class="st12" d="M689.1 354.7l.1.9c.1.6-.4 1.2-1.1 1.3-.7.1-1.2-.4-1.3-1.1v-1s.1-1.1 1-1.1c.9-.2 1.3.3 1.3 1"/>
        <path class="st1" d="M687.4 355.3c0 .2.1.5.3.6.2.2.4.2.7.2.5 0 .9-.5.9-1l-.1-.9c0-.3-.1-.5-.3-.6-.2-.2-.4-.2-.8-.2-.7.1-.7.8-.7.9v1zm1 1.5c-.4 0-.7-.1-1-.4-.3-.3-.5-.6-.6-1.1v-1.1c0-.5.4-1.4 1.4-1.5.5 0 1 .1 1.3.4.3.2.4.6.4 1l.1.9c.1.9-.6 1.6-1.5 1.7 0 .1-.1.1-.1.1z"/>
        <path class="st12" d="M683.5 354.7l.1.9c.1.6-.4 1.2-1.1 1.3-.7.1-1.2-.4-1.3-1.1v-1s.1-1.1 1-1.1c.9-.2 1.3.3 1.3 1"/>
        <path class="st1" d="M681 355.3c0 .2.1.5.3.6.2.2.4.2.7.2.5 0 .9-.5.9-1l-.1-.9c0-.3-.1-.5-.3-.6-.2-.2-.4-.2-.8-.2-.7.1-.7.8-.7.9v1zm1 1.5c-.4 0-.7-.1-1-.4-.3-.3-.5-.6-.6-1.1v-1.1c0-.5.4-1.4 1.4-1.5.5 0 1 .1 1.3.4.3.2.4.6.4 1l.1.9c.1.9-.6 1.6-1.5 1.7 0 .1-.1.1-.1.1z"/>
        <path class="st13" d="M780.1 345.7h-2.6l2.4-2.4c.8-.8.2-2.3-1-2.3h-4c-1.2 0-1.8 1.5-1 2.3l2.4 2.4h-2.5c-4.9 0-8.9 4-8.9 8.9v6.2c0 4.9 4 8.8 8.9 8.8h6.3c4.9 0 8.9-4 8.9-8.8v-6.2c0-5-4-8.9-8.9-8.9"/>
        <path class="st14" d="M780.3 381.7H775v3.8h5.3v2.7H775v4.8h-3.2v-14h8.5v2.7zm-30 0H745v3.8h5.3v2.7H745v4.8h-3.2v-14h8.5v2.7zm-31 0H714v3.8h5.3v2.7H714v4.8h-3.2v-14h8.5v2.7zm-30 0H684v3.8h5.3v2.7H684v4.8h-3.2v-14h8.5v2.7z"/>
    </g>
    <g>
        <path class="st14" d="M413.7 378l5.1 9.1V378h3.2v14h-3.4l-5-9v9h-3.2v-14h3.3zm-25.2 2.7h-5.3v3.8h5.3v2.7h-5.3v4.8H380v-14h8.5v2.7zm60 0h-5.3v3.8h5.3v2.7h-5.3v4.8H440v-14h8.5v2.7zm-90.2 0H353v3.8h5.3v2.7H353v4.8h-3.2v-14h8.5v2.7z"/>
    </g>
</svg>
