<svg width="800" height="408" viewBox="0 0 800 408" xmlns="http://www.w3.org/2000/svg" xmlns:xlink="http://www.w3.org/1999/xlink" style="background:#fcfbf8">
    <title>
        2-1-chicken crossing-3
    </title>
    <defs>
        <rect id="a" width="137" height="82" rx="8"/>
        <rect id="b" y="326" width="137" height="82" rx="8"/>
        <rect id="c" x="166" width="137" height="82" rx="8"/>
        <rect id="d" x="166" y="326" width="137" height="82" rx="8"/>
        <rect id="e" x="332" width="137" height="82" rx="8"/>
        <rect id="f" x="332" y="326" width="137" height="82" rx="8"/>
        <rect id="g" x="498" width="137" height="82" rx="8"/>
        <rect id="h" x="498" y="326" width="137" height="82" rx="8"/>
        <rect id="i" x="663" width="137" height="82" rx="8"/>
        <rect id="j" x="663" y="326" width="137" height="82" rx="8"/>
    </defs>
    <g fill="none" fill-rule="evenodd">
        <path d="M69 41v330.25M69 41l500.152 329.566M69 41l331.441 328.691M69 41l168.41 328.563" stroke="#CDCCE2" stroke-width="4"/>
        <use fill="#FFF" xlink:href="#a"/>
        <rect stroke="#CDCCE2" stroke-width="4" x="2" y="2" width="133" height="78" rx="8"/>
        <path d="M63.534 26.587c.914-3.625 1.377-6.139 1.466-9.82.02-.617-.679-.987-1.177-.623l-4.828 3.53c-.747.547-1.712.707-2.591.419-1.075-.352-2.224-.543-3.416-.543-1.187 0-2.33.19-3.402.538-.879.287-1.842.127-2.589-.419l-4.82-3.525c-.498-.364-1.197.006-1.177.624.09 3.68.552 6.194 1.466 9.82.07.277.061.568-.02.843-.293.992-.45 2.043-.45 3.131 0 1.765.414 3.433 1.15 4.911.737 1.479 2.949 1.438 4.238 2.445 1.864 1.457 3.056 3.656 5.604 3.656 1.34 0 2.536-1.103 3.723-1.542 2.542-.941 4.73-1.934 5.989-4.306.817-1.54 1.28-3.298 1.28-5.164 0-1.229-.11-2.127-.48-3.23-.054-.182-.059-.375-.012-.56l.046-.185z" fill="#FF6700"/>
        <path d="M58.493 31.567c.112.578-.408 1.168-1.16 1.317-.753.148-1.453-.2-1.564-.779-.111-.578.408-1.168 1.16-1.317.753-.148 1.453.2 1.564.779M47.408 31.567c-.11.578.409 1.168 1.16 1.317.753.148 1.453-.2 1.565-.779.11-.578-.409-1.168-1.16-1.317-.753-.148-1.453.2-1.565.779" fill="#35342F"/>
        <path d="M51.246 42.262c.035-.01.44-.009.475-.019 0-7.927-8.95-7.45-8.95-7.45s.349 1.733 2.015 3.796c.658.814 1.718 1.313 2.71 1.646.088.03.377.118.43.134 1.51.455 2.61.76 3.32 1.893M54.656 42.262c-.036-.01-.44-.009-.476-.019 0-7.927 8.951-7.45 8.951-7.45s-.349 1.733-2.016 3.796c-.658.814-1.717 1.313-2.71 1.646-.088.03-.376.118-.43.134-1.51.455-2.61.76-3.319 1.893" fill="#EAE5C7"/>
        <path d="M54.967 41.18c0 1.141-.925 2.066-2.065 2.066-1.141 0-2.066-.925-2.066-2.066 0-1.14.444-2.065 2.066-2.065 1.621 0 2.065.924 2.065 2.065" fill="#35342F"/>
        <path d="M43.67 24.935c.412-.685 1.234-1.842 2.64-3.015.267-.223.264-.637-.01-.852l-2.754-2.17c-.47-.37-1.147.024-1.064.617l.753 5.33c.031.22.32.28.436.09M62.133 24.935c-.411-.685-1.234-1.842-2.64-3.015-.267-.223-.264-.637.01-.852l2.754-2.17c.47-.37 1.147.024 1.064.617l-.753 5.33c-.03.22-.32.28-.435.09" fill="#C94401"/>
        <path d="M84.296 19.314c-.083-1.436-.326-2.928-1.604-3.794-1.246-.845-2.856-.617-3.938.376-.928.852.454 2.233 1.378 1.384.46-.422 1.135-.446 1.612-.034.557.48.563 1.394.602 2.068.072 1.252 2.022 1.26 1.95 0" fill="#FFA350"/>
        <path d="M85.31 19.545c.17-.85.53-2.958 1.853-2.55 1.203.372 1.718-1.508.519-1.878-1.09-.336-2.276.076-3.016.92-.74.846-1.024 1.914-1.238 2.99-.103.515.147 1.051.681 1.198.48.132 1.098-.162 1.201-.68" fill="#FFA350"/>
        <path d="M96 30.769c0 6.627-5.373 12-12 12s-12-5.373-12-12c0-6.628 5.373-12 12-12s12 5.372 12 12" fill="#FFD13E"/>
        <path d="M86.774 36.182l-1.812 1.822c-.531.534-1.393.534-1.924 0l-1.812-1.822c-.758-.761-.383-2.064.663-2.301 1.39-.315 2.832-.315 4.222 0 1.046.237 1.42 1.54.663 2.301" fill="#F48C00"/>
        <path d="M81.223 28.24c0 .63-.51 1.14-1.14 1.14-.63 0-1.14-.51-1.14-1.14 0-.63.51-1.14 1.14-1.14.63 0 1.14.51 1.14 1.14M89.058 28.24c0 .63-.51 1.14-1.14 1.14-.63 0-1.141-.51-1.141-1.14 0-.63.51-1.14 1.14-1.14.63 0 1.14.51 1.14 1.14" fill="#662113"/>
        <path d="M15 29.6c0 1.547-.895 2.8-2 2.8s-2-1.254-2-2.8c0-1.546.896-2.8 2-2.8 1.105 0 2 1.254 2 2.8" fill="#4844A3"/>
        <path d="M34.2 29.2C34.2 23.014 29.186 18 23 18c-4.523 0-8.42 2.681-10.188 6.54-.65 1.42-1.012 2.997-1.012 4.66 0 1.547.314 3.022.882 4.362.932 2.202 2.55 4.043 4.584 5.259C18.943 39.823 20.904 40.4 23 40.4c2.134 0 4.129-.597 5.826-1.634C32.048 36.8 34.2 33.251 34.2 29.2z" fill="#88C1FF"/>
        <path d="M33.4 33.2c-.884 0-1.6-1.612-1.6-3.6s.716-3.6 1.6-3.6c.883 0 1.6 1.612 1.6 3.6s-.716 3.6-1.6 3.6z" fill="#4844A3"/>
        <path d="M34.2 31.6c-.442 0-.8-.895-.8-2s.358-2 .8-2c.442 0 .8.895.8 2s-.358 2-.8 2" fill="#88C1FF"/>
        <path d="M26.123 28.677l.073.854c.055.644-.436 1.21-1.098 1.265-.661.054-1.243-.425-1.298-1.07l.028-.972s.07-1.071.997-1.147c.9-.073 1.242.425 1.298 1.07" fill="#0B0146"/>
        <path d="M24.422 29.298c.025.237.14.451.327.605.19.158.433.233.682.213.514-.042.898-.484.855-.986l-.077-.894c-.025-.291-.11-.508-.252-.645-.16-.153-.415-.217-.758-.189-.657.054-.742.828-.748.905l-.029.991zm.973 1.502c-.378 0-.74-.128-1.032-.367-.326-.267-.526-.641-.561-1.054l-.002-.017.03-1.052c.033-.484.358-1.42 1.357-1.501.546-.044.977.08 1.281.369.26.246.41.598.449 1.046l.077.898c.074.85-.582 1.601-1.462 1.672-.046.004-.091.006-.137.006z" fill="#FFF"/>
        <path d="M20.523 28.677l.073.854c.055.644-.436 1.21-1.098 1.265-.661.054-1.243-.425-1.298-1.07l.028-.972s.07-1.071.997-1.147c.9-.073 1.242.425 1.298 1.07" fill="#0B0146"/>
        <path d="M18.022 29.298c.025.237.14.451.327.605.19.158.433.233.682.213.514-.042.898-.484.855-.986l-.077-.894c-.025-.291-.11-.508-.252-.645-.16-.153-.416-.217-.758-.189-.657.054-.742.828-.748.905l-.029.991zm.973 1.502c-.378 0-.74-.128-1.032-.367-.326-.267-.526-.641-.561-1.054l-.002-.017.03-1.052c.033-.484.358-1.42 1.357-1.501.546-.044.977.08 1.281.369.26.246.41.598.449 1.046l.077.898c.074.85-.582 1.601-1.462 1.672-.046.004-.091.006-.137.006z" fill="#FFF"/>
        <path d="M117.138 19.698h-2.566l2.4-2.4c.848-.848.248-2.298-.951-2.298h-4.015c-1.2 0-1.8 1.45-.952 2.297l2.4 2.4h-2.542c-4.922 0-8.912 3.98-8.912 8.89v6.184c0 4.874 3.968 8.825 8.862 8.825h6.276c4.894 0 8.862-3.951 8.862-8.825v-6.249c0-4.873-3.968-8.824-8.862-8.824" fill="#FFC07F"/>
        <path fill="#29264C" d="M111.72 53l5.06 9.12V53H120v14h-3.38l-5.04-9v9h-3.24V53zM81.72 53l5.06 9.12V53H90v14h-3.38l-5.04-9v9h-3.24V53zM50.72 53l5.06 9.12V53H59v14h-3.38l-5.04-9v9h-3.24V53zM20.72 53l5.06 9.12V53H29v14h-3.38l-5.04-9v9h-3.24V53z"/>
        <use fill="#FFF" xlink:href="#b"/>
        <rect stroke="#CDCCE2" stroke-width="4" x="2" y="328" width="133" height="78" rx="8"/>
        <path d="M63.534 352.587c.914-3.625 1.377-6.139 1.466-9.82.02-.617-.679-.987-1.177-.623l-4.828 3.53c-.747.547-1.712.707-2.591.419-1.075-.352-2.224-.543-3.416-.543-1.187 0-2.33.19-3.402.538-.879.287-1.842.127-2.589-.419l-4.82-3.525c-.498-.364-1.197.006-1.177.624.09 3.68.552 6.194 1.466 9.82.07.277.061.568-.02.843-.293.992-.45 2.043-.45 3.131 0 1.765.414 3.433 1.15 4.911.737 1.479 2.949 1.438 4.238 2.445 1.864 1.457 3.056 3.656 5.604 3.656 1.34 0 2.536-1.103 3.723-1.542 2.542-.941 4.73-1.934 5.989-4.306.817-1.54 1.28-3.298 1.28-5.164 0-1.229-.11-2.127-.48-3.23-.054-.182-.059-.375-.012-.56l.046-.185z" fill="#FF6700"/>
        <path d="M58.493 357.567c.112.578-.408 1.168-1.16 1.317-.753.148-1.453-.2-1.564-.779-.111-.578.408-1.168 1.16-1.317.753-.148 1.453.2 1.564.779M47.408 357.567c-.11.578.409 1.168 1.16 1.317.753.148 1.453-.2 1.565-.779.11-.578-.409-1.168-1.16-1.317-.753-.148-1.453.2-1.565.779" fill="#35342F"/>
        <path d="M51.246 368.262c.035-.01.44-.009.475-.019 0-7.927-8.95-7.45-8.95-7.45s.349 1.733 2.015 3.796c.658.814 1.718 1.313 2.71 1.646.088.03.377.118.43.134 1.51.455 2.61.76 3.32 1.893M54.656 368.262c-.036-.01-.44-.009-.476-.019 0-7.927 8.951-7.45 8.951-7.45s-.349 1.733-2.016 3.796c-.658.814-1.717 1.313-2.71 1.646-.088.03-.376.118-.43.134-1.51.455-2.61.76-3.319 1.893" fill="#EAE5C7"/>
        <path d="M54.967 367.18c0 1.141-.925 2.066-2.065 2.066-1.141 0-2.066-.925-2.066-2.066 0-1.14.444-2.065 2.066-2.065 1.621 0 2.065.924 2.065 2.065" fill="#35342F"/>
        <path d="M43.67 350.935c.412-.685 1.234-1.842 2.64-3.015.267-.223.264-.637-.01-.852l-2.754-2.17c-.47-.37-1.147.024-1.064.617l.753 5.33c.031.22.32.28.436.09M62.133 350.935c-.411-.685-1.234-1.842-2.64-3.015-.267-.223-.264-.637.01-.852l2.754-2.17c.47-.37 1.147.024 1.064.617l-.753 5.33c-.03.22-.32.28-.435.09" fill="#C94401"/>
        <path d="M84.296 345.314c-.083-1.436-.326-2.928-1.604-3.794-1.246-.845-2.856-.617-3.938.376-.928.852.454 2.233 1.378 1.384.46-.422 1.135-.446 1.612-.034.557.48.563 1.394.602 2.068.072 1.252 2.022 1.26 1.95 0" fill="#FFA350"/>
        <path d="M85.31 345.545c.17-.85.53-2.958 1.853-2.55 1.203.372 1.718-1.508.519-1.878-1.09-.336-2.276.076-3.016.92-.74.846-1.024 1.914-1.238 2.99-.103.515.147 1.051.681 1.198.48.132 1.098-.162 1.201-.68" fill="#FFA350"/>
        <path d="M96 356.769c0 6.627-5.373 12-12 12s-12-5.373-12-12c0-6.628 5.373-12 12-12s12 5.372 12 12" fill="#FFD13E"/>
        <path d="M86.774 362.182l-1.812 1.822c-.531.534-1.393.534-1.924 0l-1.812-1.822c-.758-.761-.383-2.064.663-2.301 1.39-.315 2.832-.315 4.222 0 1.046.237 1.42 1.54.663 2.301" fill="#F48C00"/>
        <path d="M81.223 354.24c0 .63-.51 1.14-1.14 1.14-.63 0-1.14-.51-1.14-1.14 0-.63.51-1.14 1.14-1.14.63 0 1.14.51 1.14 1.14M89.058 354.24c0 .63-.51 1.14-1.14 1.14-.63 0-1.141-.51-1.141-1.14 0-.63.51-1.14 1.14-1.14.63 0 1.14.51 1.14 1.14" fill="#662113"/>
        <path d="M15 355.6c0 1.547-.895 2.8-2 2.8s-2-1.254-2-2.8c0-1.546.896-2.8 2-2.8 1.105 0 2 1.254 2 2.8" fill="#4844A3"/>
        <path d="M34.2 355.2c0-6.186-5.014-11.2-11.2-11.2-4.523 0-8.42 2.681-10.188 6.54-.65 1.42-1.012 2.997-1.012 4.66 0 1.547.314 3.022.882 4.362.932 2.202 2.55 4.043 4.584 5.259 1.677 1.002 3.638 1.579 5.734 1.579 2.134 0 4.129-.597 5.826-1.634 3.222-1.966 5.374-5.515 5.374-9.566z" fill="#88C1FF"/>
        <path d="M33.4 359.2c-.884 0-1.6-1.612-1.6-3.6s.716-3.6 1.6-3.6c.883 0 1.6 1.612 1.6 3.6s-.716 3.6-1.6 3.6z" fill="#4844A3"/>
        <path d="M34.2 357.6c-.442 0-.8-.895-.8-2s.358-2 .8-2c.442 0 .8.895.8 2s-.358 2-.8 2" fill="#88C1FF"/>
        <path d="M26.123 354.677l.073.854c.055.644-.436 1.21-1.098 1.265-.661.054-1.243-.425-1.298-1.07l.028-.972s.07-1.071.997-1.147c.9-.073 1.242.425 1.298 1.07" fill="#0B0146"/>
        <path d="M24.422 355.298c.025.237.14.451.327.605.19.158.433.233.682.213.514-.042.898-.484.855-.986l-.077-.894c-.025-.291-.11-.508-.252-.645-.16-.153-.415-.217-.758-.189-.657.054-.742.828-.748.905l-.029.991zm.973 1.502c-.378 0-.74-.128-1.032-.367-.326-.267-.526-.641-.561-1.054l-.002-.017.03-1.052c.033-.484.358-1.42 1.357-1.501.546-.044.977.08 1.281.369.26.246.41.598.449 1.046l.077.898c.074.85-.582 1.601-1.462 1.672-.046.004-.091.006-.137.006z" fill="#FFF"/>
        <path d="M20.523 354.677l.073.854c.055.644-.436 1.21-1.098 1.265-.661.054-1.243-.425-1.298-1.07l.028-.972s.07-1.071.997-1.147c.9-.073 1.242.425 1.298 1.07" fill="#0B0146"/>
        <path d="M18.022 355.298c.025.237.14.451.327.605.19.158.433.233.682.213.514-.042.898-.484.855-.986l-.077-.894c-.025-.291-.11-.508-.252-.645-.16-.153-.416-.217-.758-.189-.657.054-.742.828-.748.905l-.029.991zm.973 1.502c-.378 0-.74-.128-1.032-.367-.326-.267-.526-.641-.561-1.054l-.002-.017.03-1.052c.033-.484.358-1.42 1.357-1.501.546-.044.977.08 1.281.369.26.246.41.598.449 1.046l.077.898c.074.85-.582 1.601-1.462 1.672-.046.004-.091.006-.137.006z" fill="#FFF"/>
        <path d="M117.138 345.698h-2.566l2.4-2.4c.848-.848.248-2.298-.951-2.298h-4.015c-1.2 0-1.8 1.45-.952 2.297l2.4 2.4h-2.542c-4.922 0-8.912 3.98-8.912 8.89v6.184c0 4.874 3.968 8.825 8.862 8.825h6.276c4.894 0 8.862-3.951 8.862-8.825v-6.249c0-4.873-3.968-8.824-8.862-8.824" fill="#FFC07F"/>
        <path fill="#29264C" d="M111.72 379l5.06 9.12V379H120v14h-3.38l-5.04-9v9h-3.24v-14zM87.269 381.72h-5.3v3.78h5.3v2.66h-5.3V393h-3.24v-14h8.54zM50.72 379l5.06 9.12V379H59v14h-3.38l-5.04-9v9h-3.24v-14zM26.269 381.72h-5.3v3.78h5.3v2.66h-5.3V393h-3.24v-14h8.54z"/>
        <use fill="#FFF" xlink:href="#c"/>
        <rect stroke="#CDCCE2" stroke-width="4" x="168" y="2" width="133" height="78" rx="8"/>
        <path d="M229.534 26.587c.914-3.625 1.377-6.139 1.466-9.82.02-.617-.679-.987-1.177-.623l-4.828 3.53c-.747.547-1.712.707-2.591.419-1.075-.352-2.224-.543-3.416-.543-1.187 0-2.33.19-3.402.538-.879.287-1.842.127-2.589-.419l-4.82-3.525c-.498-.364-1.197.006-1.177.624.09 3.68.552 6.194 1.466 9.82.07.277.061.568-.02.843-.293.992-.45 2.043-.45 3.131 0 1.765.414 3.433 1.15 4.911.737 1.479 2.949 1.438 4.238 2.445 1.864 1.457 3.056 3.656 5.604 3.656 1.34 0 2.536-1.103 3.723-1.542 2.542-.941 4.73-1.934 5.989-4.306.817-1.54 1.28-3.298 1.28-5.164 0-1.229-.11-2.127-.48-3.23-.054-.182-.059-.375-.012-.56l.046-.185z" fill="#FF6700"/>
        <path d="M224.493 31.567c.112.578-.408 1.168-1.16 1.317-.753.148-1.453-.2-1.564-.779-.111-.578.408-1.168 1.16-1.317.753-.148 1.453.2 1.564.779M213.408 31.567c-.11.578.409 1.168 1.16 1.317.753.148 1.453-.2 1.565-.779.11-.578-.409-1.168-1.16-1.317-.753-.148-1.453.2-1.565.779" fill="#35342F"/>
        <path d="M217.246 42.262c.035-.01.44-.009.475-.019 0-7.927-8.95-7.45-8.95-7.45s.349 1.733 2.015 3.796c.658.814 1.718 1.313 2.71 1.646.088.03.377.118.43.134 1.51.455 2.61.76 3.32 1.893M220.656 42.262c-.036-.01-.44-.009-.476-.019 0-7.927 8.951-7.45 8.951-7.45s-.349 1.733-2.016 3.796c-.658.814-1.717 1.313-2.71 1.646-.088.03-.376.118-.43.134-1.51.455-2.61.76-3.319 1.893" fill="#EAE5C7"/>
        <path d="M220.967 41.18c0 1.141-.925 2.066-2.065 2.066-1.141 0-2.066-.925-2.066-2.066 0-1.14.444-2.065 2.066-2.065 1.621 0 2.065.924 2.065 2.065" fill="#35342F"/>
        <path d="M209.67 24.935c.412-.685 1.234-1.842 2.64-3.015.267-.223.264-.637-.01-.852l-2.754-2.17c-.47-.37-1.147.024-1.064.617l.753 5.33c.031.22.32.28.436.09M228.133 24.935c-.411-.685-1.234-1.842-2.64-3.015-.267-.223-.264-.637.01-.852l2.754-2.17c.47-.37 1.147.024 1.064.617l-.753 5.33c-.03.22-.32.28-.435.09" fill="#C94401"/>
        <path d="M250.296 19.314c-.083-1.436-.326-2.928-1.604-3.794-1.246-.845-2.856-.617-3.938.376-.928.852.454 2.233 1.378 1.384.46-.422 1.135-.446 1.612-.034.557.48.563 1.394.602 2.068.072 1.252 2.022 1.26 1.95 0" fill="#FFA350"/>
        <path d="M251.31 19.545c.17-.85.53-2.958 1.853-2.55 1.203.372 1.718-1.508.519-1.878-1.09-.336-2.276.076-3.016.92-.74.846-1.024 1.914-1.238 2.99-.103.515.147 1.051.681 1.198.48.132 1.098-.162 1.201-.68" fill="#FFA350"/>
        <path d="M262 30.769c0 6.627-5.373 12-12 12s-12-5.373-12-12c0-6.628 5.373-12 12-12s12 5.372 12 12" fill="#FFD13E"/>
        <path d="M252.774 36.182l-1.812 1.822c-.531.534-1.393.534-1.924 0l-1.812-1.822c-.758-.761-.383-2.064.663-2.301 1.39-.315 2.832-.315 4.222 0 1.046.237 1.42 1.54.663 2.301" fill="#F48C00"/>
        <path d="M247.223 28.24c0 .63-.51 1.14-1.14 1.14-.63 0-1.14-.51-1.14-1.14 0-.63.51-1.14 1.14-1.14.63 0 1.14.51 1.14 1.14M255.058 28.24c0 .63-.51 1.14-1.14 1.14-.63 0-1.141-.51-1.141-1.14 0-.63.51-1.14 1.14-1.14.63 0 1.14.51 1.14 1.14" fill="#662113"/>
        <path d="M181 29.6c0 1.547-.895 2.8-2 2.8s-2-1.254-2-2.8c0-1.546.896-2.8 2-2.8 1.105 0 2 1.254 2 2.8" fill="#4844A3"/>
        <path d="M200.2 29.2c0-6.186-5.014-11.2-11.2-11.2-4.523 0-8.42 2.681-10.188 6.54-.65 1.42-1.012 2.997-1.012 4.66 0 1.547.314 3.022.882 4.362.932 2.202 2.55 4.043 4.584 5.259 1.677 1.002 3.638 1.579 5.734 1.579 2.134 0 4.129-.597 5.826-1.634 3.222-1.966 5.374-5.515 5.374-9.566z" fill="#88C1FF"/>
        <path d="M199.4 33.2c-.884 0-1.6-1.612-1.6-3.6s.716-3.6 1.6-3.6c.883 0 1.6 1.612 1.6 3.6s-.716 3.6-1.6 3.6z" fill="#4844A3"/>
        <path d="M200.2 31.6c-.442 0-.8-.895-.8-2s.358-2 .8-2c.442 0 .8.895.8 2s-.358 2-.8 2" fill="#88C1FF"/>
        <path d="M192.123 28.677l.073.854c.055.644-.436 1.21-1.098 1.265-.661.054-1.243-.425-1.298-1.07l.028-.972s.07-1.071.997-1.147c.9-.073 1.242.425 1.298 1.07" fill="#0B0146"/>
        <path d="M190.422 29.298c.025.237.14.451.327.605.19.158.433.233.682.213.514-.042.898-.484.855-.986l-.077-.894c-.025-.291-.11-.508-.252-.645-.16-.153-.415-.217-.758-.189-.657.054-.742.828-.748.905l-.029.991zm.973 1.502c-.378 0-.74-.128-1.032-.367-.326-.267-.526-.641-.561-1.054l-.002-.017.03-1.052c.033-.484.358-1.42 1.357-1.501.546-.044.977.08 1.281.369.26.246.41.598.449 1.046l.077.898c.074.85-.582 1.601-1.462 1.672-.046.004-.091.006-.137.006z" fill="#FFF"/>
        <path d="M186.523 28.677l.073.854c.055.644-.436 1.21-1.098 1.265-.661.054-1.243-.425-1.298-1.07l.028-.972s.07-1.071.997-1.147c.9-.073 1.242.425 1.298 1.07" fill="#0B0146"/>
        <path d="M184.022 29.298c.025.237.14.451.327.605.19.158.433.233.682.213.514-.042.898-.484.855-.986l-.077-.894c-.025-.291-.11-.508-.252-.645-.16-.153-.416-.217-.758-.189-.657.054-.742.828-.748.905l-.029.991zm.973 1.502c-.378 0-.74-.128-1.032-.367-.326-.267-.526-.641-.561-1.054l-.002-.017.03-1.052c.033-.484.358-1.42 1.357-1.501.546-.044.977.08 1.281.369.26.246.41.598.449 1.046l.077.898c.074.85-.582 1.601-1.462 1.672-.046.004-.091.006-.137.006z" fill="#FFF"/>
        <path d="M283.138 19.698h-2.566l2.4-2.4c.848-.848.248-2.298-.951-2.298h-4.015c-1.2 0-1.8 1.45-.952 2.297l2.4 2.4h-2.542c-4.922 0-8.912 3.98-8.912 8.89v6.184c0 4.874 3.968 8.825 8.862 8.825h6.276c4.894 0 8.862-3.951 8.862-8.825v-6.249c0-4.873-3.968-8.824-8.862-8.824" fill="#FFC07F"/>
        <path fill="#29264C" d="M283.269 55.72h-5.3v3.78h5.3v2.66h-5.3V67h-3.24V53h8.54zM247.72 53l5.06 9.12V53H256v14h-3.38l-5.04-9v9h-3.24V53zM216.72 53l5.06 9.12V53H225v14h-3.38l-5.04-9v9h-3.24V53zM186.72 53l5.06 9.12V53H195v14h-3.38l-5.04-9v9h-3.24V53z"/>
        <g>
            <use fill="#FFF" xlink:href="#d"/>
            <rect stroke="#CDCCE2" stroke-width="4" x="168" y="328" width="133" height="78" rx="8"/>
        </g>
        <g>
            <path d="M229.534 352.587c.914-3.625 1.377-6.139 1.466-9.82.02-.617-.679-.987-1.177-.623l-4.828 3.53c-.747.547-1.712.707-2.591.419-1.075-.352-2.224-.543-3.416-.543-1.187 0-2.33.19-3.402.538-.879.287-1.842.127-2.589-.419l-4.82-3.525c-.498-.364-1.197.006-1.177.624.09 3.68.552 6.194 1.466 9.82.07.277.061.568-.02.843-.293.992-.45 2.043-.45 3.131 0 1.765.414 3.433 1.15 4.911.737 1.479 2.949 1.438 4.238 2.445 1.864 1.457 3.056 3.656 5.604 3.656 1.34 0 2.536-1.103 3.723-1.542 2.542-.941 4.73-1.934 5.989-4.306.817-1.54 1.28-3.298 1.28-5.164 0-1.229-.11-2.127-.48-3.23-.054-.182-.059-.375-.012-.56l.046-.185z" fill="#FF6700"/>
            <path d="M224.493 357.567c.112.578-.408 1.168-1.16 1.317-.753.148-1.453-.2-1.564-.779-.111-.578.408-1.168 1.16-1.317.753-.148 1.453.2 1.564.779M213.408 357.567c-.11.578.409 1.168 1.16 1.317.753.148 1.453-.2 1.565-.779.11-.578-.409-1.168-1.16-1.317-.753-.148-1.453.2-1.565.779" fill="#35342F"/>
            <path d="M217.246 368.262c.035-.01.44-.009.475-.019 0-7.927-8.95-7.45-8.95-7.45s.349 1.733 2.015 3.796c.658.814 1.718 1.313 2.71 1.646.088.03.377.118.43.134 1.51.455 2.61.76 3.32 1.893M220.656 368.262c-.036-.01-.44-.009-.476-.019 0-7.927 8.951-7.45 8.951-7.45s-.349 1.733-2.016 3.796c-.658.814-1.717 1.313-2.71 1.646-.088.03-.376.118-.43.134-1.51.455-2.61.76-3.319 1.893" fill="#EAE5C7"/>
            <path d="M220.967 367.18c0 1.141-.925 2.066-2.065 2.066-1.141 0-2.066-.925-2.066-2.066 0-1.14.444-2.065 2.066-2.065 1.621 0 2.065.924 2.065 2.065" fill="#35342F"/>
            <path d="M209.67 350.935c.412-.685 1.234-1.842 2.64-3.015.267-.223.264-.637-.01-.852l-2.754-2.17c-.47-.37-1.147.024-1.064.617l.753 5.33c.031.22.32.28.436.09M228.133 350.935c-.411-.685-1.234-1.842-2.64-3.015-.267-.223-.264-.637.01-.852l2.754-2.17c.47-.37 1.147.024 1.064.617l-.753 5.33c-.03.22-.32.28-.435.09" fill="#C94401"/>
        </g>
        <g>
            <path d="M250.296 345.314c-.083-1.436-.326-2.928-1.604-3.794-1.246-.845-2.856-.617-3.938.376-.928.852.454 2.233 1.378 1.384.46-.422 1.135-.446 1.612-.034.557.48.563 1.394.602 2.068.072 1.252 2.022 1.26 1.95 0" fill="#FFA350"/>
            <path d="M251.31 345.545c.17-.85.53-2.958 1.853-2.55 1.203.372 1.718-1.508.519-1.878-1.09-.336-2.276.076-3.016.92-.74.846-1.024 1.914-1.238 2.99-.103.515.147 1.051.681 1.198.48.132 1.098-.162 1.201-.68" fill="#FFA350"/>
            <path d="M262 356.769c0 6.627-5.373 12-12 12s-12-5.373-12-12c0-6.628 5.373-12 12-12s12 5.372 12 12" fill="#FFD13E"/>
            <path d="M252.774 362.182l-1.812 1.822c-.531.534-1.393.534-1.924 0l-1.812-1.822c-.758-.761-.383-2.064.663-2.301 1.39-.315 2.832-.315 4.222 0 1.046.237 1.42 1.54.663 2.301" fill="#F48C00"/>
            <path d="M247.223 354.24c0 .63-.51 1.14-1.14 1.14-.63 0-1.14-.51-1.14-1.14 0-.63.51-1.14 1.14-1.14.63 0 1.14.51 1.14 1.14M255.058 354.24c0 .63-.51 1.14-1.14 1.14-.63 0-1.141-.51-1.141-1.14 0-.63.51-1.14 1.14-1.14.63 0 1.14.51 1.14 1.14" fill="#662113"/>
        </g>
        <g>
            <path d="M181 355.6c0 1.547-.895 2.8-2 2.8s-2-1.254-2-2.8c0-1.546.896-2.8 2-2.8 1.105 0 2 1.254 2 2.8" fill="#4844A3"/>
            <path d="M200.2 355.2c0-6.186-5.014-11.2-11.2-11.2-4.523 0-8.42 2.681-10.188 6.54-.65 1.42-1.012 2.997-1.012 4.66 0 1.547.314 3.022.882 4.362.932 2.202 2.55 4.043 4.584 5.259 1.677 1.002 3.638 1.579 5.734 1.579 2.134 0 4.129-.597 5.826-1.634 3.222-1.966 5.374-5.515 5.374-9.566z" fill="#88C1FF"/>
            <path d="M199.4 359.2c-.884 0-1.6-1.612-1.6-3.6s.716-3.6 1.6-3.6c.883 0 1.6 1.612 1.6 3.6s-.716 3.6-1.6 3.6z" fill="#4844A3"/>
            <path d="M200.2 357.6c-.442 0-.8-.895-.8-2s.358-2 .8-2c.442 0 .8.895.8 2s-.358 2-.8 2" fill="#88C1FF"/>
            <path d="M192.123 354.677l.073.854c.055.644-.436 1.21-1.098 1.265-.661.054-1.243-.425-1.298-1.07l.028-.972s.07-1.071.997-1.147c.9-.073 1.242.425 1.298 1.07" fill="#0B0146"/>
            <path d="M190.422 355.298c.025.237.14.451.327.605.19.158.433.233.682.213.514-.042.898-.484.855-.986l-.077-.894c-.025-.291-.11-.508-.252-.645-.16-.153-.415-.217-.758-.189-.657.054-.742.828-.748.905l-.029.991zm.973 1.502c-.378 0-.74-.128-1.032-.367-.326-.267-.526-.641-.561-1.054l-.002-.017.03-1.052c.033-.484.358-1.42 1.357-1.501.546-.044.977.08 1.281.369.26.246.41.598.449 1.046l.077.898c.074.85-.582 1.601-1.462 1.672-.046.004-.091.006-.137.006z" fill="#FFF"/>
            <path d="M186.523 354.677l.073.854c.055.644-.436 1.21-1.098 1.265-.661.054-1.243-.425-1.298-1.07l.028-.972s.07-1.071.997-1.147c.9-.073 1.242.425 1.298 1.07" fill="#0B0146"/>
            <path d="M184.022 355.298c.025.237.14.451.327.605.19.158.433.233.682.213.514-.042.898-.484.855-.986l-.077-.894c-.025-.291-.11-.508-.252-.645-.16-.153-.416-.217-.758-.189-.657.054-.742.828-.748.905l-.029.991zm.973 1.502c-.378 0-.74-.128-1.032-.367-.326-.267-.526-.641-.561-1.054l-.002-.017.03-1.052c.033-.484.358-1.42 1.357-1.501.546-.044.977.08 1.281.369.26.246.41.598.449 1.046l.077.898c.074.85-.582 1.601-1.462 1.672-.046.004-.091.006-.137.006z" fill="#FFF"/>
        </g>
        <path d="M283.138 345.698h-2.566l2.4-2.4c.848-.848.248-2.298-.951-2.298h-4.015c-1.2 0-1.8 1.45-.952 2.297l2.4 2.4h-2.542c-4.922 0-8.912 3.98-8.912 8.89v6.184c0 4.874 3.968 8.825 8.862 8.825h6.276c4.894 0 8.862-3.951 8.862-8.825v-6.249c0-4.873-3.968-8.824-8.862-8.824" fill="#FFC07F"/>
        <path fill="#29264C" d="M283.269 381.72h-5.3v3.78h5.3v2.66h-5.3V393h-3.24v-14h8.54zM253.269 381.72h-5.3v3.78h5.3v2.66h-5.3V393h-3.24v-14h8.54zM216.72 379l5.06 9.12V379H225v14h-3.38l-5.04-9v9h-3.24v-14zM192.269 381.72h-5.3v3.78h5.3v2.66h-5.3V393h-3.24v-14h8.54z"/>
        <g>
            <use fill="#FFF" xlink:href="#e"/>
            <rect stroke="#CDCCE2" stroke-width="2" x="333" y="1" width="135" height="80" rx="8"/>
        </g>
        <g>
            <path d="M395.534 26.587c.914-3.625 1.377-6.139 1.466-9.82.02-.617-.679-.987-1.177-.623l-4.828 3.53c-.747.547-1.712.707-2.591.419-1.075-.352-2.224-.543-3.416-.543-1.187 0-2.33.19-3.402.538-.879.287-1.842.127-2.589-.419l-4.82-3.525c-.498-.364-1.197.006-1.177.624.09 3.68.552 6.194 1.466 9.82.07.277.061.568-.02.843-.293.992-.45 2.043-.45 3.131 0 1.765.414 3.433 1.15 4.911.737 1.479 2.949 1.438 4.238 2.445 1.864 1.457 3.056 3.656 5.604 3.656 1.34 0 2.536-1.103 3.723-1.542 2.542-.941 4.73-1.934 5.989-4.306.817-1.54 1.28-3.298 1.28-5.164 0-1.229-.11-2.127-.48-3.23-.054-.182-.059-.375-.012-.56l.046-.185z" fill="#FF6700"/>
            <path d="M390.493 31.567c.112.578-.408 1.168-1.16 1.317-.753.148-1.453-.2-1.564-.779-.111-.578.408-1.168 1.16-1.317.753-.148 1.453.2 1.564.779M379.408 31.567c-.11.578.409 1.168 1.16 1.317.753.148 1.453-.2 1.565-.779.11-.578-.409-1.168-1.16-1.317-.753-.148-1.453.2-1.565.779" fill="#35342F"/>
            <path d="M383.246 42.262c.035-.01.44-.009.475-.019 0-7.927-8.95-7.45-8.95-7.45s.349 1.733 2.015 3.796c.658.814 1.718 1.313 2.71 1.646.088.03.377.118.43.134 1.51.455 2.61.76 3.32 1.893M386.656 42.262c-.036-.01-.44-.009-.476-.019 0-7.927 8.951-7.45 8.951-7.45s-.349 1.733-2.016 3.796c-.658.814-1.717 1.313-2.71 1.646-.088.03-.376.118-.43.134-1.51.455-2.61.76-3.319 1.893" fill="#EAE5C7"/>
            <path d="M386.967 41.18c0 1.141-.925 2.066-2.065 2.066-1.141 0-2.066-.925-2.066-2.066 0-1.14.444-2.065 2.066-2.065 1.621 0 2.065.924 2.065 2.065" fill="#35342F"/>
            <path d="M375.67 24.935c.412-.685 1.234-1.842 2.64-3.015.267-.223.264-.637-.01-.852l-2.754-2.17c-.47-.37-1.147.024-1.064.617l.753 5.33c.031.22.32.28.436.09M394.133 24.935c-.411-.685-1.234-1.842-2.64-3.015-.267-.223-.264-.637.01-.852l2.754-2.17c.47-.37 1.147.024 1.064.617l-.753 5.33c-.03.22-.32.28-.435.09" fill="#C94401"/>
        </g>
        <g>
            <path d="M416.296 19.314c-.083-1.436-.326-2.928-1.604-3.794-1.246-.845-2.856-.617-3.938.376-.928.852.454 2.233 1.378 1.384.46-.422 1.135-.446 1.612-.034.557.48.563 1.394.602 2.068.072 1.252 2.022 1.26 1.95 0" fill="#FFA350"/>
            <path d="M417.31 19.545c.17-.85.53-2.958 1.853-2.55 1.203.372 1.718-1.508.519-1.878-1.09-.336-2.276.076-3.016.92-.74.846-1.024 1.914-1.238 2.99-.103.515.147 1.051.681 1.198.48.132 1.098-.162 1.201-.68" fill="#FFA350"/>
            <path d="M428 30.769c0 6.627-5.373 12-12 12s-12-5.373-12-12c0-6.628 5.373-12 12-12s12 5.372 12 12" fill="#FFD13E"/>
            <path d="M418.774 36.182l-1.812 1.822c-.531.534-1.393.534-1.924 0l-1.812-1.822c-.758-.761-.383-2.064.663-2.301 1.39-.315 2.832-.315 4.222 0 1.046.237 1.42 1.54.663 2.301" fill="#F48C00"/>
            <path d="M413.223 28.24c0 .63-.51 1.14-1.14 1.14-.63 0-1.14-.51-1.14-1.14 0-.63.51-1.14 1.14-1.14.63 0 1.14.51 1.14 1.14M421.058 28.24c0 .63-.51 1.14-1.14 1.14-.63 0-1.141-.51-1.141-1.14 0-.63.51-1.14 1.14-1.14.63 0 1.14.51 1.14 1.14" fill="#662113"/>
        </g>
        <g>
            <path d="M347 29.6c0 1.547-.895 2.8-2 2.8s-2-1.254-2-2.8c0-1.546.896-2.8 2-2.8 1.105 0 2 1.254 2 2.8" fill="#4844A3"/>
            <path d="M366.2 29.2c0-6.186-5.014-11.2-11.2-11.2-4.523 0-8.42 2.681-10.188 6.54-.65 1.42-1.012 2.997-1.012 4.66 0 1.547.314 3.022.882 4.362.932 2.202 2.55 4.043 4.584 5.259 1.677 1.002 3.638 1.579 5.734 1.579 2.134 0 4.129-.597 5.826-1.634 3.222-1.966 5.374-5.515 5.374-9.566z" fill="#88C1FF"/>
            <path d="M365.4 33.2c-.884 0-1.6-1.612-1.6-3.6s.716-3.6 1.6-3.6c.883 0 1.6 1.612 1.6 3.6s-.716 3.6-1.6 3.6z" fill="#4844A3"/>
            <path d="M366.2 31.6c-.442 0-.8-.895-.8-2s.358-2 .8-2c.442 0 .8.895.8 2s-.358 2-.8 2" fill="#88C1FF"/>
            <path d="M358.123 28.677l.073.854c.055.644-.436 1.21-1.098 1.265-.661.054-1.243-.425-1.298-1.07l.028-.972s.07-1.071.997-1.147c.9-.073 1.242.425 1.298 1.07" fill="#0B0146"/>
            <path d="M356.422 29.298c.025.237.14.451.327.605.19.158.433.233.682.213.514-.042.898-.484.855-.986l-.077-.894c-.025-.291-.11-.508-.252-.645-.16-.153-.415-.217-.758-.189-.657.054-.742.828-.748.905l-.029.991zm.973 1.502c-.378 0-.74-.128-1.032-.367-.326-.267-.526-.641-.561-1.054l-.002-.017.03-1.052c.033-.484.358-1.42 1.357-1.501.546-.044.977.08 1.281.369.26.246.41.598.449 1.046l.077.898c.074.85-.582 1.601-1.462 1.672-.046.004-.091.006-.137.006z" fill="#FFF"/>
            <path d="M352.523 28.677l.073.854c.055.644-.436 1.21-1.098 1.265-.661.054-1.243-.425-1.298-1.07l.028-.972s.07-1.071.997-1.147c.9-.073 1.242.425 1.298 1.07" fill="#0B0146"/>
            <path d="M350.022 29.298c.025.237.14.451.327.605.19.158.433.233.682.213.514-.042.898-.484.855-.986l-.077-.894c-.025-.291-.11-.508-.252-.645-.16-.153-.416-.217-.758-.189-.657.054-.742.828-.748.905l-.029.991zm.973 1.502c-.378 0-.74-.128-1.032-.367-.326-.267-.526-.641-.561-1.054l-.002-.017.03-1.052c.033-.484.358-1.42 1.357-1.501.546-.044.977.08 1.281.369.26.246.41.598.449 1.046l.077.898c.074.85-.582 1.601-1.462 1.672-.046.004-.091.006-.137.006z" fill="#FFF"/>
        </g>
        <path d="M449.138 19.698h-2.566l2.4-2.4c.848-.848.248-2.298-.951-2.298h-4.015c-1.2 0-1.8 1.45-.952 2.297l2.4 2.4h-2.542c-4.922 0-8.912 3.98-8.912 8.89v6.184c0 4.874 3.968 8.825 8.862 8.825h6.276c4.894 0 8.862-3.951 8.862-8.825v-6.249c0-4.873-3.968-8.824-8.862-8.824" fill="#FFC07F"/>
        <path fill="#29264C" d="M443.72 53l5.06 9.12V53H452v14h-3.38l-5.04-9v9h-3.24V53zM419.269 55.72h-5.3v3.78h5.3v2.66h-5.3V67h-3.24V53h8.54zM382.72 53l5.06 9.12V53H391v14h-3.38l-5.04-9v9h-3.24V53zM352.72 53l5.06 9.12V53H361v14h-3.38l-5.04-9v9h-3.24V53z"/>
        <g>
            <use fill="#FFF" xlink:href="#f"/>
            <rect stroke="#CDCCE2" stroke-width="4" x="334" y="328" width="133" height="78" rx="8"/>
        </g>
        <g>
            <path d="M395.534 352.587c.914-3.625 1.377-6.139 1.466-9.82.02-.617-.679-.987-1.177-.623l-4.828 3.53c-.747.547-1.712.707-2.591.419-1.075-.352-2.224-.543-3.416-.543-1.187 0-2.33.19-3.402.538-.879.287-1.842.127-2.589-.419l-4.82-3.525c-.498-.364-1.197.006-1.177.624.09 3.68.552 6.194 1.466 9.82.07.277.061.568-.02.843-.293.992-.45 2.043-.45 3.131 0 1.765.414 3.433 1.15 4.911.737 1.479 2.949 1.438 4.238 2.445 1.864 1.457 3.056 3.656 5.604 3.656 1.34 0 2.536-1.103 3.723-1.542 2.542-.941 4.73-1.934 5.989-4.306.817-1.54 1.28-3.298 1.28-5.164 0-1.229-.11-2.127-.48-3.23-.054-.182-.059-.375-.012-.56l.046-.185z" fill="#FF6700"/>
            <path d="M390.493 357.567c.112.578-.408 1.168-1.16 1.317-.753.148-1.453-.2-1.564-.779-.111-.578.408-1.168 1.16-1.317.753-.148 1.453.2 1.564.779M379.408 357.567c-.11.578.409 1.168 1.16 1.317.753.148 1.453-.2 1.565-.779.11-.578-.409-1.168-1.16-1.317-.753-.148-1.453.2-1.565.779" fill="#35342F"/>
            <path d="M383.246 368.262c.035-.01.44-.009.475-.019 0-7.927-8.95-7.45-8.95-7.45s.349 1.733 2.015 3.796c.658.814 1.718 1.313 2.71 1.646.088.03.377.118.43.134 1.51.455 2.61.76 3.32 1.893M386.656 368.262c-.036-.01-.44-.009-.476-.019 0-7.927 8.951-7.45 8.951-7.45s-.349 1.733-2.016 3.796c-.658.814-1.717 1.313-2.71 1.646-.088.03-.376.118-.43.134-1.51.455-2.61.76-3.319 1.893" fill="#EAE5C7"/>
            <path d="M386.967 367.18c0 1.141-.925 2.066-2.065 2.066-1.141 0-2.066-.925-2.066-2.066 0-1.14.444-2.065 2.066-2.065 1.621 0 2.065.924 2.065 2.065" fill="#35342F"/>
            <path d="M375.67 350.935c.412-.685 1.234-1.842 2.64-3.015.267-.223.264-.637-.01-.852l-2.754-2.17c-.47-.37-1.147.024-1.064.617l.753 5.33c.031.22.32.28.436.09M394.133 350.935c-.411-.685-1.234-1.842-2.64-3.015-.267-.223-.264-.637.01-.852l2.754-2.17c.47-.37 1.147.024 1.064.617l-.753 5.33c-.03.22-.32.28-.435.09" fill="#C94401"/>
        </g>
        <g>
            <path d="M416.296 345.314c-.083-1.436-.326-2.928-1.604-3.794-1.246-.845-2.856-.617-3.938.376-.928.852.454 2.233 1.378 1.384.46-.422 1.135-.446 1.612-.034.557.48.563 1.394.602 2.068.072 1.252 2.022 1.26 1.95 0" fill="#FFA350"/>
            <path d="M417.31 345.545c.17-.85.53-2.958 1.853-2.55 1.203.372 1.718-1.508.519-1.878-1.09-.336-2.276.076-3.016.92-.74.846-1.024 1.914-1.238 2.99-.103.515.147 1.051.681 1.198.48.132 1.098-.162 1.201-.68" fill="#FFA350"/>
            <path d="M428 356.769c0 6.627-5.373 12-12 12s-12-5.373-12-12c0-6.628 5.373-12 12-12s12 5.372 12 12" fill="#FFD13E"/>
            <path d="M418.774 362.182l-1.812 1.822c-.531.534-1.393.534-1.924 0l-1.812-1.822c-.758-.761-.383-2.064.663-2.301 1.39-.315 2.832-.315 4.222 0 1.046.237 1.42 1.54.663 2.301" fill="#F48C00"/>
            <path d="M413.223 354.24c0 .63-.51 1.14-1.14 1.14-.63 0-1.14-.51-1.14-1.14 0-.63.51-1.14 1.14-1.14.63 0 1.14.51 1.14 1.14M421.058 354.24c0 .63-.51 1.14-1.14 1.14-.63 0-1.141-.51-1.141-1.14 0-.63.51-1.14 1.14-1.14.63 0 1.14.51 1.14 1.14" fill="#662113"/>
        </g>
        <g>
            <path d="M347 355.6c0 1.547-.895 2.8-2 2.8s-2-1.254-2-2.8c0-1.546.896-2.8 2-2.8 1.105 0 2 1.254 2 2.8" fill="#4844A3"/>
            <path d="M366.2 355.2c0-6.186-5.014-11.2-11.2-11.2-4.523 0-8.42 2.681-10.188 6.54-.65 1.42-1.012 2.997-1.012 4.66 0 1.547.314 3.022.882 4.362.932 2.202 2.55 4.043 4.584 5.259 1.677 1.002 3.638 1.579 5.734 1.579 2.134 0 4.129-.597 5.826-1.634 3.222-1.966 5.374-5.515 5.374-9.566z" fill="#88C1FF"/>
            <path d="M365.4 359.2c-.884 0-1.6-1.612-1.6-3.6s.716-3.6 1.6-3.6c.883 0 1.6 1.612 1.6 3.6s-.716 3.6-1.6 3.6z" fill="#4844A3"/>
            <path d="M366.2 357.6c-.442 0-.8-.895-.8-2s.358-2 .8-2c.442 0 .8.895.8 2s-.358 2-.8 2" fill="#88C1FF"/>
            <path d="M358.123 354.677l.073.854c.055.644-.436 1.21-1.098 1.265-.661.054-1.243-.425-1.298-1.07l.028-.972s.07-1.071.997-1.147c.9-.073 1.242.425 1.298 1.07" fill="#0B0146"/>
            <path d="M356.422 355.298c.025.237.14.451.327.605.19.158.433.233.682.213.514-.042.898-.484.855-.986l-.077-.894c-.025-.291-.11-.508-.252-.645-.16-.153-.415-.217-.758-.189-.657.054-.742.828-.748.905l-.029.991zm.973 1.502c-.378 0-.74-.128-1.032-.367-.326-.267-.526-.641-.561-1.054l-.002-.017.03-1.052c.033-.484.358-1.42 1.357-1.501.546-.044.977.08 1.281.369.26.246.41.598.449 1.046l.077.898c.074.85-.582 1.601-1.462 1.672-.046.004-.091.006-.137.006z" fill="#FFF"/>
            <path d="M352.523 354.677l.073.854c.055.644-.436 1.21-1.098 1.265-.661.054-1.243-.425-1.298-1.07l.028-.972s.07-1.071.997-1.147c.9-.073 1.242.425 1.298 1.07" fill="#0B0146"/>
            <path d="M350.022 355.298c.025.237.14.451.327.605.19.158.433.233.682.213.514-.042.898-.484.855-.986l-.077-.894c-.025-.291-.11-.508-.252-.645-.16-.153-.416-.217-.758-.189-.657.054-.742.828-.748.905l-.029.991zm.973 1.502c-.378 0-.74-.128-1.032-.367-.326-.267-.526-.641-.561-1.054l-.002-.017.03-1.052c.033-.484.358-1.42 1.357-1.501.546-.044.977.08 1.281.369.26.246.41.598.449 1.046l.077.898c.074.85-.582 1.601-1.462 1.672-.046.004-.091.006-.137.006z" fill="#FFF"/>
        </g>
        <path d="M449.138 345.698h-2.566l2.4-2.4c.848-.848.248-2.298-.951-2.298h-4.015c-1.2 0-1.8 1.45-.952 2.297l2.4 2.4h-2.542c-4.922 0-8.912 3.98-8.912 8.89v6.184c0 4.874 3.968 8.825 8.862 8.825h6.276c4.894 0 8.862-3.951 8.862-8.825v-6.249c0-4.873-3.968-8.824-8.862-8.824" fill="#FFC07F"/>
        <g>
            <use fill="#FFF" xlink:href="#g"/>
            <rect stroke="#CDCCE2" stroke-width="2" x="499" y="1" width="135" height="80" rx="8"/>
        </g>
        <g>
            <path d="M561.534 26.587c.914-3.625 1.377-6.139 1.466-9.82.02-.617-.679-.987-1.177-.623l-4.828 3.53c-.747.547-1.712.707-2.591.419-1.075-.352-2.224-.543-3.416-.543-1.187 0-2.33.19-3.402.538-.879.287-1.842.127-2.589-.419l-4.82-3.525c-.498-.364-1.197.006-1.177.624.09 3.68.552 6.194 1.466 9.82.07.277.061.568-.02.843-.293.992-.45 2.043-.45 3.131 0 1.765.414 3.433 1.15 4.911.737 1.479 2.949 1.438 4.238 2.445 1.864 1.457 3.056 3.656 5.604 3.656 1.34 0 2.536-1.103 3.723-1.542 2.542-.941 4.73-1.934 5.989-4.306.817-1.54 1.28-3.298 1.28-5.164 0-1.229-.11-2.127-.48-3.23-.054-.182-.059-.375-.012-.56l.046-.185z" fill="#FF6700"/>
            <path d="M556.493 31.567c.112.578-.408 1.168-1.16 1.317-.753.148-1.453-.2-1.564-.779-.111-.578.408-1.168 1.16-1.317.753-.148 1.453.2 1.564.779M545.408 31.567c-.11.578.409 1.168 1.16 1.317.753.148 1.453-.2 1.565-.779.11-.578-.409-1.168-1.16-1.317-.753-.148-1.453.2-1.565.779" fill="#35342F"/>
            <path d="M549.246 42.262c.035-.01.44-.009.475-.019 0-7.927-8.95-7.45-8.95-7.45s.349 1.733 2.015 3.796c.658.814 1.718 1.313 2.71 1.646.088.03.377.118.43.134 1.51.455 2.61.76 3.32 1.893M552.656 42.262c-.036-.01-.44-.009-.476-.019 0-7.927 8.951-7.45 8.951-7.45s-.349 1.733-2.016 3.796c-.658.814-1.717 1.313-2.71 1.646-.088.03-.376.118-.43.134-1.51.455-2.61.76-3.319 1.893" fill="#EAE5C7"/>
            <path d="M552.967 41.18c0 1.141-.925 2.066-2.065 2.066-1.141 0-2.066-.925-2.066-2.066 0-1.14.444-2.065 2.066-2.065 1.621 0 2.065.924 2.065 2.065" fill="#35342F"/>
            <path d="M541.67 24.935c.412-.685 1.234-1.842 2.64-3.015.267-.223.264-.637-.01-.852l-2.754-2.17c-.47-.37-1.147.024-1.064.617l.753 5.33c.031.22.32.28.436.09M560.133 24.935c-.411-.685-1.234-1.842-2.64-3.015-.267-.223-.264-.637.01-.852l2.754-2.17c.47-.37 1.147.024 1.064.617l-.753 5.33c-.03.22-.32.28-.435.09" fill="#C94401"/>
        </g>
        <g>
            <path d="M582.296 19.314c-.083-1.436-.326-2.928-1.604-3.794-1.246-.845-2.856-.617-3.938.376-.928.852.454 2.233 1.378 1.384.46-.422 1.135-.446 1.612-.034.557.48.563 1.394.602 2.068.072 1.252 2.022 1.26 1.95 0" fill="#FFA350"/>
            <path d="M583.31 19.545c.17-.85.53-2.958 1.853-2.55 1.203.372 1.718-1.508.519-1.878-1.09-.336-2.276.076-3.016.92-.74.846-1.024 1.914-1.238 2.99-.103.515.147 1.051.681 1.198.48.132 1.098-.162 1.201-.68" fill="#FFA350"/>
            <path d="M594 30.769c0 6.627-5.373 12-12 12s-12-5.373-12-12c0-6.628 5.373-12 12-12s12 5.372 12 12" fill="#FFD13E"/>
            <path d="M584.774 36.182l-1.812 1.822c-.531.534-1.393.534-1.924 0l-1.812-1.822c-.758-.761-.383-2.064.663-2.301 1.39-.315 2.832-.315 4.222 0 1.046.237 1.42 1.54.663 2.301" fill="#F48C00"/>
            <path d="M579.223 28.24c0 .63-.51 1.14-1.14 1.14-.63 0-1.14-.51-1.14-1.14 0-.63.51-1.14 1.14-1.14.63 0 1.14.51 1.14 1.14M587.058 28.24c0 .63-.51 1.14-1.14 1.14-.63 0-1.141-.51-1.141-1.14 0-.63.51-1.14 1.14-1.14.63 0 1.14.51 1.14 1.14" fill="#662113"/>
        </g>
        <g>
            <path d="M513 29.6c0 1.547-.895 2.8-2 2.8s-2-1.254-2-2.8c0-1.546.896-2.8 2-2.8 1.105 0 2 1.254 2 2.8" fill="#4844A3"/>
            <path d="M532.2 29.2c0-6.186-5.014-11.2-11.2-11.2-4.523 0-8.42 2.681-10.188 6.54-.65 1.42-1.012 2.997-1.012 4.66 0 1.547.314 3.022.882 4.362.932 2.202 2.55 4.043 4.584 5.259 1.677 1.002 3.638 1.579 5.734 1.579 2.134 0 4.129-.597 5.826-1.634 3.222-1.966 5.374-5.515 5.374-9.566z" fill="#88C1FF"/>
            <path d="M531.4 33.2c-.884 0-1.6-1.612-1.6-3.6s.716-3.6 1.6-3.6c.883 0 1.6 1.612 1.6 3.6s-.716 3.6-1.6 3.6z" fill="#4844A3"/>
            <path d="M532.2 31.6c-.442 0-.8-.895-.8-2s.358-2 .8-2c.442 0 .8.895.8 2s-.358 2-.8 2" fill="#88C1FF"/>
            <path d="M524.123 28.677l.073.854c.055.644-.436 1.21-1.098 1.265-.661.054-1.243-.425-1.298-1.07l.028-.972s.07-1.071.997-1.147c.9-.073 1.242.425 1.298 1.07" fill="#0B0146"/>
            <path d="M522.422 29.298c.025.237.14.451.327.605.19.158.433.233.682.213.514-.042.898-.484.855-.986l-.077-.894c-.025-.291-.11-.508-.252-.645-.16-.153-.415-.217-.758-.189-.657.054-.742.828-.748.905l-.029.991zm.973 1.502c-.378 0-.74-.128-1.032-.367-.326-.267-.526-.641-.561-1.054l-.002-.017.03-1.052c.033-.484.358-1.42 1.357-1.501.546-.044.977.08 1.281.369.26.246.41.598.449 1.046l.077.898c.074.85-.582 1.601-1.462 1.672-.046.004-.091.006-.137.006z" fill="#FFF"/>
            <path d="M518.523 28.677l.073.854c.055.644-.436 1.21-1.098 1.265-.661.054-1.243-.425-1.298-1.07l.028-.972s.07-1.071.997-1.147c.9-.073 1.242.425 1.298 1.07" fill="#0B0146"/>
            <path d="M516.022 29.298c.025.237.14.451.327.605.19.158.433.233.682.213.514-.042.898-.484.855-.986l-.077-.894c-.025-.291-.11-.508-.252-.645-.16-.153-.416-.217-.758-.189-.657.054-.742.828-.748.905l-.029.991zm.973 1.502c-.378 0-.74-.128-1.032-.367-.326-.267-.526-.641-.561-1.054l-.002-.017.03-1.052c.033-.484.358-1.42 1.357-1.501.546-.044.977.08 1.281.369.26.246.41.598.449 1.046l.077.898c.074.85-.582 1.601-1.462 1.672-.046.004-.091.006-.137.006z" fill="#FFF"/>
        </g>
        <path d="M615.138 19.698h-2.566l2.4-2.4c.848-.848.248-2.298-.951-2.298h-4.015c-1.2 0-1.8 1.45-.952 2.297l2.4 2.4h-2.542c-4.922 0-8.912 3.98-8.912 8.89v6.184c0 4.874 3.968 8.825 8.862 8.825h6.276c4.894 0 8.862-3.951 8.862-8.825v-6.249c0-4.873-3.968-8.824-8.862-8.824" fill="#FFC07F"/>
        <path fill="#29264C" d="M609.72 53l5.06 9.12V53H618v14h-3.38l-5.04-9v9h-3.24V53zM579.72 53l5.06 9.12V53H588v14h-3.38l-5.04-9v9h-3.24V53zM554.269 55.72h-5.3v3.78h5.3v2.66h-5.3V67h-3.24V53h8.54zM518.72 53l5.06 9.12V53H527v14h-3.38l-5.04-9v9h-3.24V53z"/>
        <g>
            <use fill="#FFF" xlink:href="#h"/>
            <rect stroke="#CDCCE2" stroke-width="4" x="500" y="328" width="133" height="78" rx="8"/>
        </g>
        <g>
            <path d="M561.534 352.587c.914-3.625 1.377-6.139 1.466-9.82.02-.617-.679-.987-1.177-.623l-4.828 3.53c-.747.547-1.712.707-2.591.419-1.075-.352-2.224-.543-3.416-.543-1.187 0-2.33.19-3.402.538-.879.287-1.842.127-2.589-.419l-4.82-3.525c-.498-.364-1.197.006-1.177.624.09 3.68.552 6.194 1.466 9.82.07.277.061.568-.02.843-.293.992-.45 2.043-.45 3.131 0 1.765.414 3.433 1.15 4.911.737 1.479 2.949 1.438 4.238 2.445 1.864 1.457 3.056 3.656 5.604 3.656 1.34 0 2.536-1.103 3.723-1.542 2.542-.941 4.73-1.934 5.989-4.306.817-1.54 1.28-3.298 1.28-5.164 0-1.229-.11-2.127-.48-3.23-.054-.182-.059-.375-.012-.56l.046-.185z" fill="#FF6700"/>
            <path d="M556.493 357.567c.112.578-.408 1.168-1.16 1.317-.753.148-1.453-.2-1.564-.779-.111-.578.408-1.168 1.16-1.317.753-.148 1.453.2 1.564.779M545.408 357.567c-.11.578.409 1.168 1.16 1.317.753.148 1.453-.2 1.565-.779.11-.578-.409-1.168-1.16-1.317-.753-.148-1.453.2-1.565.779" fill="#35342F"/>
            <path d="M549.246 368.262c.035-.01.44-.009.475-.019 0-7.927-8.95-7.45-8.95-7.45s.349 1.733 2.015 3.796c.658.814 1.718 1.313 2.71 1.646.088.03.377.118.43.134 1.51.455 2.61.76 3.32 1.893M552.656 368.262c-.036-.01-.44-.009-.476-.019 0-7.927 8.951-7.45 8.951-7.45s-.349 1.733-2.016 3.796c-.658.814-1.717 1.313-2.71 1.646-.088.03-.376.118-.43.134-1.51.455-2.61.76-3.319 1.893" fill="#EAE5C7"/>
            <path d="M552.967 367.18c0 1.141-.925 2.066-2.065 2.066-1.141 0-2.066-.925-2.066-2.066 0-1.14.444-2.065 2.066-2.065 1.621 0 2.065.924 2.065 2.065" fill="#35342F"/>
            <path d="M541.67 350.935c.412-.685 1.234-1.842 2.64-3.015.267-.223.264-.637-.01-.852l-2.754-2.17c-.47-.37-1.147.024-1.064.617l.753 5.33c.031.22.32.28.436.09M560.133 350.935c-.411-.685-1.234-1.842-2.64-3.015-.267-.223-.264-.637.01-.852l2.754-2.17c.47-.37 1.147.024 1.064.617l-.753 5.33c-.03.22-.32.28-.435.09" fill="#C94401"/>
        </g>
        <g>
            <path d="M582.296 345.314c-.083-1.436-.326-2.928-1.604-3.794-1.246-.845-2.856-.617-3.938.376-.928.852.454 2.233 1.378 1.384.46-.422 1.135-.446 1.612-.034.557.48.563 1.394.602 2.068.072 1.252 2.022 1.26 1.95 0" fill="#FFA350"/>
            <path d="M583.31 345.545c.17-.85.53-2.958 1.853-2.55 1.203.372 1.718-1.508.519-1.878-1.09-.336-2.276.076-3.016.92-.74.846-1.024 1.914-1.238 2.99-.103.515.147 1.051.681 1.198.48.132 1.098-.162 1.201-.68" fill="#FFA350"/>
            <path d="M594 356.769c0 6.627-5.373 12-12 12s-12-5.373-12-12c0-6.628 5.373-12 12-12s12 5.372 12 12" fill="#FFD13E"/>
            <path d="M584.774 362.182l-1.812 1.822c-.531.534-1.393.534-1.924 0l-1.812-1.822c-.758-.761-.383-2.064.663-2.301 1.39-.315 2.832-.315 4.222 0 1.046.237 1.42 1.54.663 2.301" fill="#F48C00"/>
            <path d="M579.223 354.24c0 .63-.51 1.14-1.14 1.14-.63 0-1.14-.51-1.14-1.14 0-.63.51-1.14 1.14-1.14.63 0 1.14.51 1.14 1.14M587.058 354.24c0 .63-.51 1.14-1.14 1.14-.63 0-1.141-.51-1.141-1.14 0-.63.51-1.14 1.14-1.14.63 0 1.14.51 1.14 1.14" fill="#662113"/>
        </g>
        <g>
            <path d="M513 355.6c0 1.547-.895 2.8-2 2.8s-2-1.254-2-2.8c0-1.546.896-2.8 2-2.8 1.105 0 2 1.254 2 2.8" fill="#4844A3"/>
            <path d="M532.2 355.2c0-6.186-5.014-11.2-11.2-11.2-4.523 0-8.42 2.681-10.188 6.54-.65 1.42-1.012 2.997-1.012 4.66 0 1.547.314 3.022.882 4.362.932 2.202 2.55 4.043 4.584 5.259 1.677 1.002 3.638 1.579 5.734 1.579 2.134 0 4.129-.597 5.826-1.634 3.222-1.966 5.374-5.515 5.374-9.566z" fill="#88C1FF"/>
            <path d="M531.4 359.2c-.884 0-1.6-1.612-1.6-3.6s.716-3.6 1.6-3.6c.883 0 1.6 1.612 1.6 3.6s-.716 3.6-1.6 3.6z" fill="#4844A3"/>
            <path d="M532.2 357.6c-.442 0-.8-.895-.8-2s.358-2 .8-2c.442 0 .8.895.8 2s-.358 2-.8 2" fill="#88C1FF"/>
            <path d="M524.123 354.677l.073.854c.055.644-.436 1.21-1.098 1.265-.661.054-1.243-.425-1.298-1.07l.028-.972s.07-1.071.997-1.147c.9-.073 1.242.425 1.298 1.07" fill="#0B0146"/>
            <path d="M522.422 355.298c.025.237.14.451.327.605.19.158.433.233.682.213.514-.042.898-.484.855-.986l-.077-.894c-.025-.291-.11-.508-.252-.645-.16-.153-.415-.217-.758-.189-.657.054-.742.828-.748.905l-.029.991zm.973 1.502c-.378 0-.74-.128-1.032-.367-.326-.267-.526-.641-.561-1.054l-.002-.017.03-1.052c.033-.484.358-1.42 1.357-1.501.546-.044.977.08 1.281.369.26.246.41.598.449 1.046l.077.898c.074.85-.582 1.601-1.462 1.672-.046.004-.091.006-.137.006z" fill="#FFF"/>
            <path d="M518.523 354.677l.073.854c.055.644-.436 1.21-1.098 1.265-.661.054-1.243-.425-1.298-1.07l.028-.972s.07-1.071.997-1.147c.9-.073 1.242.425 1.298 1.07" fill="#0B0146"/>
            <path d="M516.022 355.298c.025.237.14.451.327.605.19.158.433.233.682.213.514-.042.898-.484.855-.986l-.077-.894c-.025-.291-.11-.508-.252-.645-.16-.153-.416-.217-.758-.189-.657.054-.742.828-.748.905l-.029.991zm.973 1.502c-.378 0-.74-.128-1.032-.367-.326-.267-.526-.641-.561-1.054l-.002-.017.03-1.052c.033-.484.358-1.42 1.357-1.501.546-.044.977.08 1.281.369.26.246.41.598.449 1.046l.077.898c.074.85-.582 1.601-1.462 1.672-.046.004-.091.006-.137.006z" fill="#FFF"/>
        </g>
        <path d="M615.138 345.698h-2.566l2.4-2.4c.848-.848.248-2.298-.951-2.298h-4.015c-1.2 0-1.8 1.45-.952 2.297l2.4 2.4h-2.542c-4.922 0-8.912 3.98-8.912 8.89v6.184c0 4.874 3.968 8.825 8.862 8.825h6.276c4.894 0 8.862-3.951 8.862-8.825v-6.249c0-4.873-3.968-8.824-8.862-8.824" fill="#FFC07F"/>
        <path fill="#29264C" d="M609.72 379l5.06 9.12V379H618v14h-3.38l-5.04-9v9h-3.24v-14zM585.269 381.72h-5.3v3.78h5.3v2.66h-5.3V393h-3.24v-14h8.54zM554.269 381.72h-5.3v3.78h5.3v2.66h-5.3V393h-3.24v-14h8.54zM524.269 381.72h-5.3v3.78h5.3v2.66h-5.3V393h-3.24v-14h8.54z"/>
        <g>
            <use fill="#FFF" xlink:href="#i"/>
            <rect stroke="#CDCCE2" stroke-width="2" x="664" y="1" width="135" height="80" rx="8"/>
        </g>
        <g>
            <path d="M726.534 26.587c.914-3.625 1.377-6.139 1.466-9.82.02-.617-.679-.987-1.177-.623l-4.828 3.53c-.747.547-1.712.707-2.591.419-1.075-.352-2.224-.543-3.416-.543-1.187 0-2.33.19-3.402.538-.879.287-1.842.127-2.589-.419l-4.82-3.525c-.498-.364-1.197.006-1.177.624.09 3.68.552 6.194 1.466 9.82.07.277.061.568-.02.843-.293.992-.45 2.043-.45 3.131 0 1.765.414 3.433 1.15 4.911.737 1.479 2.949 1.438 4.238 2.445 1.864 1.457 3.056 3.656 5.604 3.656 1.34 0 2.536-1.103 3.723-1.542 2.542-.941 4.73-1.934 5.989-4.306.817-1.54 1.28-3.298 1.28-5.164 0-1.229-.11-2.127-.48-3.23-.054-.182-.059-.375-.012-.56l.046-.185z" fill="#FF6700"/>
            <path d="M721.493 31.567c.112.578-.408 1.168-1.16 1.317-.753.148-1.453-.2-1.564-.779-.111-.578.408-1.168 1.16-1.317.753-.148 1.453.2 1.564.779M710.408 31.567c-.11.578.409 1.168 1.16 1.317.753.148 1.453-.2 1.565-.779.11-.578-.409-1.168-1.16-1.317-.753-.148-1.453.2-1.565.779" fill="#35342F"/>
            <path d="M714.246 42.262c.035-.01.44-.009.475-.019 0-7.927-8.95-7.45-8.95-7.45s.349 1.733 2.015 3.796c.658.814 1.718 1.313 2.71 1.646.088.03.377.118.43.134 1.51.455 2.61.76 3.32 1.893M717.656 42.262c-.036-.01-.44-.009-.476-.019 0-7.927 8.951-7.45 8.951-7.45s-.349 1.733-2.016 3.796c-.658.814-1.717 1.313-2.71 1.646-.088.03-.376.118-.43.134-1.51.455-2.61.76-3.319 1.893" fill="#EAE5C7"/>
            <path d="M717.967 41.18c0 1.141-.925 2.066-2.065 2.066-1.141 0-2.066-.925-2.066-2.066 0-1.14.444-2.065 2.066-2.065 1.621 0 2.065.924 2.065 2.065" fill="#35342F"/>
            <path d="M706.67 24.935c.412-.685 1.234-1.842 2.64-3.015.267-.223.264-.637-.01-.852l-2.754-2.17c-.47-.37-1.147.024-1.064.617l.753 5.33c.031.22.32.28.436.09M725.133 24.935c-.411-.685-1.234-1.842-2.64-3.015-.267-.223-.264-.637.01-.852l2.754-2.17c.47-.37 1.147.024 1.064.617l-.753 5.33c-.03.22-.32.28-.435.09" fill="#C94401"/>
        </g>
        <g>
            <path d="M747.296 19.314c-.083-1.436-.326-2.928-1.604-3.794-1.246-.845-2.856-.617-3.938.376-.928.852.454 2.233 1.378 1.384.46-.422 1.135-.446 1.612-.034.557.48.563 1.394.602 2.068.072 1.252 2.022 1.26 1.95 0" fill="#FFA350"/>
            <path d="M748.31 19.545c.17-.85.53-2.958 1.853-2.55 1.203.372 1.718-1.508.519-1.878-1.09-.336-2.276.076-3.016.92-.74.846-1.024 1.914-1.238 2.99-.103.515.147 1.051.681 1.198.48.132 1.098-.162 1.201-.68" fill="#FFA350"/>
            <path d="M759 30.769c0 6.627-5.373 12-12 12s-12-5.373-12-12c0-6.628 5.373-12 12-12s12 5.372 12 12" fill="#FFD13E"/>
            <path d="M749.774 36.182l-1.812 1.822c-.531.534-1.393.534-1.924 0l-1.812-1.822c-.758-.761-.383-2.064.663-2.301 1.39-.315 2.832-.315 4.222 0 1.046.237 1.42 1.54.663 2.301" fill="#F48C00"/>
            <path d="M744.223 28.24c0 .63-.51 1.14-1.14 1.14-.63 0-1.14-.51-1.14-1.14 0-.63.51-1.14 1.14-1.14.63 0 1.14.51 1.14 1.14M752.058 28.24c0 .63-.51 1.14-1.14 1.14-.63 0-1.141-.51-1.141-1.14 0-.63.51-1.14 1.14-1.14.63 0 1.14.51 1.14 1.14" fill="#662113"/>
        </g>
        <g>
            <path d="M678 29.6c0 1.547-.895 2.8-2 2.8s-2-1.254-2-2.8c0-1.546.896-2.8 2-2.8 1.105 0 2 1.254 2 2.8" fill="#4844A3"/>
            <path d="M697.2 29.2c0-6.186-5.014-11.2-11.2-11.2-4.523 0-8.42 2.681-10.188 6.54-.65 1.42-1.012 2.997-1.012 4.66 0 1.547.314 3.022.882 4.362.932 2.202 2.55 4.043 4.584 5.259 1.677 1.002 3.638 1.579 5.734 1.579 2.134 0 4.129-.597 5.826-1.634 3.222-1.966 5.374-5.515 5.374-9.566z" fill="#88C1FF"/>
            <path d="M696.4 33.2c-.884 0-1.6-1.612-1.6-3.6s.716-3.6 1.6-3.6c.883 0 1.6 1.612 1.6 3.6s-.716 3.6-1.6 3.6z" fill="#4844A3"/>
            <path d="M697.2 31.6c-.442 0-.8-.895-.8-2s.358-2 .8-2c.442 0 .8.895.8 2s-.358 2-.8 2" fill="#88C1FF"/>
            <path d="M689.123 28.677l.073.854c.055.644-.436 1.21-1.098 1.265-.661.054-1.243-.425-1.298-1.07l.028-.972s.07-1.071.997-1.147c.9-.073 1.242.425 1.298 1.07" fill="#0B0146"/>
            <path d="M687.422 29.298c.025.237.14.451.327.605.19.158.433.233.682.213.514-.042.898-.484.855-.986l-.077-.894c-.025-.291-.11-.508-.252-.645-.16-.153-.415-.217-.758-.189-.657.054-.742.828-.748.905l-.029.991zm.973 1.502c-.378 0-.74-.128-1.032-.367-.326-.267-.526-.641-.561-1.054l-.002-.017.03-1.052c.033-.484.358-1.42 1.357-1.501.546-.044.977.08 1.281.369.26.246.41.598.449 1.046l.077.898c.074.85-.582 1.601-1.462 1.672-.046.004-.091.006-.137.006z" fill="#FFF"/>
            <path d="M683.523 28.677l.073.854c.055.644-.436 1.21-1.098 1.265-.661.054-1.243-.425-1.298-1.07l.028-.972s.07-1.071.997-1.147c.9-.073 1.242.425 1.298 1.07" fill="#0B0146"/>
            <path d="M681.022 29.298c.025.237.14.451.327.605.19.158.433.233.682.213.514-.042.898-.484.855-.986l-.077-.894c-.025-.291-.11-.508-.252-.645-.16-.153-.416-.217-.758-.189-.657.054-.742.828-.748.905l-.029.991zm.973 1.502c-.378 0-.74-.128-1.032-.367-.326-.267-.526-.641-.561-1.054l-.002-.017.03-1.052c.033-.484.358-1.42 1.357-1.501.546-.044.977.08 1.281.369.26.246.41.598.449 1.046l.077.898c.074.85-.582 1.601-1.462 1.672-.046.004-.091.006-.137.006z" fill="#FFF"/>
        </g>
        <path d="M780.138 19.698h-2.566l2.4-2.4c.848-.848.248-2.298-.951-2.298h-4.015c-1.2 0-1.8 1.45-.952 2.297l2.4 2.4h-2.542c-4.922 0-8.912 3.98-8.912 8.89v6.184c0 4.874 3.968 8.825 8.862 8.825h6.276c4.894 0 8.862-3.951 8.862-8.825v-6.249c0-4.873-3.968-8.824-8.862-8.824" fill="#FFC07F"/>
        <path fill="#29264C" d="M780.269 55.72h-5.3v3.78h5.3v2.66h-5.3V67h-3.24V53h8.54zM744.72 53l5.06 9.12V53H753v14h-3.38l-5.04-9v9h-3.24V53zM719.269 55.72h-5.3v3.78h5.3v2.66h-5.3V67h-3.24V53h8.54zM683.72 53l5.06 9.12V53H692v14h-3.38l-5.04-9v9h-3.24V53z"/>
        <g>
            <use fill="#FFF" xlink:href="#j"/>
            <rect stroke="#CDCCE2" stroke-width="2" x="664" y="327" width="135" height="80" rx="8"/>
        </g>
        <g>
            <path d="M726.534 352.587c.914-3.625 1.377-6.139 1.466-9.82.02-.617-.679-.987-1.177-.623l-4.828 3.53c-.747.547-1.712.707-2.591.419-1.075-.352-2.224-.543-3.416-.543-1.187 0-2.33.19-3.402.538-.879.287-1.842.127-2.589-.419l-4.82-3.525c-.498-.364-1.197.006-1.177.624.09 3.68.552 6.194 1.466 9.82.07.277.061.568-.02.843-.293.992-.45 2.043-.45 3.131 0 1.765.414 3.433 1.15 4.911.737 1.479 2.949 1.438 4.238 2.445 1.864 1.457 3.056 3.656 5.604 3.656 1.34 0 2.536-1.103 3.723-1.542 2.542-.941 4.73-1.934 5.989-4.306.817-1.54 1.28-3.298 1.28-5.164 0-1.229-.11-2.127-.48-3.23-.054-.182-.059-.375-.012-.56l.046-.185z" fill="#FF6700"/>
            <path d="M721.493 357.567c.112.578-.408 1.168-1.16 1.317-.753.148-1.453-.2-1.564-.779-.111-.578.408-1.168 1.16-1.317.753-.148 1.453.2 1.564.779M710.408 357.567c-.11.578.409 1.168 1.16 1.317.753.148 1.453-.2 1.565-.779.11-.578-.409-1.168-1.16-1.317-.753-.148-1.453.2-1.565.779" fill="#35342F"/>
            <path d="M714.246 368.262c.035-.01.44-.009.475-.019 0-7.927-8.95-7.45-8.95-7.45s.349 1.733 2.015 3.796c.658.814 1.718 1.313 2.71 1.646.088.03.377.118.43.134 1.51.455 2.61.76 3.32 1.893M717.656 368.262c-.036-.01-.44-.009-.476-.019 0-7.927 8.951-7.45 8.951-7.45s-.349 1.733-2.016 3.796c-.658.814-1.717 1.313-2.71 1.646-.088.03-.376.118-.43.134-1.51.455-2.61.76-3.319 1.893" fill="#EAE5C7"/>
            <path d="M717.967 367.18c0 1.141-.925 2.066-2.065 2.066-1.141 0-2.066-.925-2.066-2.066 0-1.14.444-2.065 2.066-2.065 1.621 0 2.065.924 2.065 2.065" fill="#35342F"/>
            <path d="M706.67 350.935c.412-.685 1.234-1.842 2.64-3.015.267-.223.264-.637-.01-.852l-2.754-2.17c-.47-.37-1.147.024-1.064.617l.753 5.33c.031.22.32.28.436.09M725.133 350.935c-.411-.685-1.234-1.842-2.64-3.015-.267-.223-.264-.637.01-.852l2.754-2.17c.47-.37 1.147.024 1.064.617l-.753 5.33c-.03.22-.32.28-.435.09" fill="#C94401"/>
        </g>
        <g>
            <path d="M747.296 345.314c-.083-1.436-.326-2.928-1.604-3.794-1.246-.845-2.856-.617-3.938.376-.928.852.454 2.233 1.378 1.384.46-.422 1.135-.446 1.612-.034.557.48.563 1.394.602 2.068.072 1.252 2.022 1.26 1.95 0" fill="#FFA350"/>
            <path d="M748.31 345.545c.17-.85.53-2.958 1.853-2.55 1.203.372 1.718-1.508.519-1.878-1.09-.336-2.276.076-3.016.92-.74.846-1.024 1.914-1.238 2.99-.103.515.147 1.051.681 1.198.48.132 1.098-.162 1.201-.68" fill="#FFA350"/>
            <path d="M759 356.769c0 6.627-5.373 12-12 12s-12-5.373-12-12c0-6.628 5.373-12 12-12s12 5.372 12 12" fill="#FFD13E"/>
            <path d="M749.774 362.182l-1.812 1.822c-.531.534-1.393.534-1.924 0l-1.812-1.822c-.758-.761-.383-2.064.663-2.301 1.39-.315 2.832-.315 4.222 0 1.046.237 1.42 1.54.663 2.301" fill="#F48C00"/>
            <path d="M744.223 354.24c0 .63-.51 1.14-1.14 1.14-.63 0-1.14-.51-1.14-1.14 0-.63.51-1.14 1.14-1.14.63 0 1.14.51 1.14 1.14M752.058 354.24c0 .63-.51 1.14-1.14 1.14-.63 0-1.141-.51-1.141-1.14 0-.63.51-1.14 1.14-1.14.63 0 1.14.51 1.14 1.14" fill="#662113"/>
        </g>
        <g>
            <path d="M678 355.6c0 1.547-.895 2.8-2 2.8s-2-1.254-2-2.8c0-1.546.896-2.8 2-2.8 1.105 0 2 1.254 2 2.8" fill="#4844A3"/>
            <path d="M697.2 355.2c0-6.186-5.014-11.2-11.2-11.2-4.523 0-8.42 2.681-10.188 6.54-.65 1.42-1.012 2.997-1.012 4.66 0 1.547.314 3.022.882 4.362.932 2.202 2.55 4.043 4.584 5.259 1.677 1.002 3.638 1.579 5.734 1.579 2.134 0 4.129-.597 5.826-1.634 3.222-1.966 5.374-5.515 5.374-9.566z" fill="#88C1FF"/>
            <path d="M696.4 359.2c-.884 0-1.6-1.612-1.6-3.6s.716-3.6 1.6-3.6c.883 0 1.6 1.612 1.6 3.6s-.716 3.6-1.6 3.6z" fill="#4844A3"/>
            <path d="M697.2 357.6c-.442 0-.8-.895-.8-2s.358-2 .8-2c.442 0 .8.895.8 2s-.358 2-.8 2" fill="#88C1FF"/>
            <path d="M689.123 354.677l.073.854c.055.644-.436 1.21-1.098 1.265-.661.054-1.243-.425-1.298-1.07l.028-.972s.07-1.071.997-1.147c.9-.073 1.242.425 1.298 1.07" fill="#0B0146"/>
            <path d="M687.422 355.298c.025.237.14.451.327.605.19.158.433.233.682.213.514-.042.898-.484.855-.986l-.077-.894c-.025-.291-.11-.508-.252-.645-.16-.153-.415-.217-.758-.189-.657.054-.742.828-.748.905l-.029.991zm.973 1.502c-.378 0-.74-.128-1.032-.367-.326-.267-.526-.641-.561-1.054l-.002-.017.03-1.052c.033-.484.358-1.42 1.357-1.501.546-.044.977.08 1.281.369.26.246.41.598.449 1.046l.077.898c.074.85-.582 1.601-1.462 1.672-.046.004-.091.006-.137.006z" fill="#FFF"/>
            <path d="M683.523 354.677l.073.854c.055.644-.436 1.21-1.098 1.265-.661.054-1.243-.425-1.298-1.07l.028-.972s.07-1.071.997-1.147c.9-.073 1.242.425 1.298 1.07" fill="#0B0146"/>
            <path d="M681.022 355.298c.025.237.14.451.327.605.19.158.433.233.682.213.514-.042.898-.484.855-.986l-.077-.894c-.025-.291-.11-.508-.252-.645-.16-.153-.416-.217-.758-.189-.657.054-.742.828-.748.905l-.029.991zm.973 1.502c-.378 0-.74-.128-1.032-.367-.326-.267-.526-.641-.561-1.054l-.002-.017.03-1.052c.033-.484.358-1.42 1.357-1.501.546-.044.977.08 1.281.369.26.246.41.598.449 1.046l.077.898c.074.85-.582 1.601-1.462 1.672-.046.004-.091.006-.137.006z" fill="#FFF"/>
        </g>
        <path d="M780.138 345.698h-2.566l2.4-2.4c.848-.848.248-2.298-.951-2.298h-4.015c-1.2 0-1.8 1.45-.952 2.297l2.4 2.4h-2.542c-4.922 0-8.912 3.98-8.912 8.89v6.184c0 4.874 3.968 8.825 8.862 8.825h6.276c4.894 0 8.862-3.951 8.862-8.825v-6.249c0-4.873-3.968-8.824-8.862-8.824" fill="#FFC07F"/>
        <path fill="#29264C" d="M780.269 381.72h-5.3v3.78h5.3v2.66h-5.3V393h-3.24v-14h8.54zM750.269 381.72h-5.3v3.78h5.3v2.66h-5.3V393h-3.24v-14h8.54zM719.269 381.72h-5.3v3.78h5.3v2.66h-5.3V393h-3.24v-14h8.54zM689.269 381.72h-5.3v3.78h5.3v2.66h-5.3V393h-3.24v-14h8.54z"/>
        <g fill="#29264C">
            <path d="M413.72 379l5.06 9.12V379H422v14h-3.38l-5.04-9v9h-3.24v-14zM388.54 381.72h-5.3v3.78h5.3v2.66h-5.3V393H380v-14h8.54zM448.54 381.72h-5.3v3.78h5.3v2.66h-5.3V393H440v-14h8.54zM358.269 381.72h-5.3v3.78h5.3v2.66h-5.3V393h-3.24v-14h8.54z"/>
        </g>
    </g>
</svg>
