<svg id="Layer_1" xmlns="http://www.w3.org/2000/svg" viewBox="0 0 710 430.9">
    <style>
        .st0{fill:#808bda}.st1{fill:#e59880}.st2{fill:#ce8279}.st3{fill:#918cac}.st4{fill:#4b4d97}.st5{fill:#835466}.st6{fill:#764862}.st7{fill:#2c5777}.st8{fill:#2c6b7a}.st9{fill:#9f5162}.st10{fill:#5c2d55}.st11{fill:#1d3b63}.st12{fill:#1d3061}.st13,.st14{fill-rule:evenodd;clip-rule:evenodd;fill:#d3716c}.st14{fill:#1b2560}.st15{fill:#429dff}.st16{fill:#2a337e}.st17{fill:#d3716c}.st18{fill:#0b0146}.st19{fill:#fcfbf8}.st20{fill:#8a8aa5}.st21{fill:#723d46}.st22{fill:#06002d}.st23{fill:#0e143e}.st24{fill:#2455a5}.st25{fill:#171b52}.st26{fill:#e1e4ff}.st27{fill:#4844a3}.st28{fill:#f8f9ff}.st29{fill:#b5bcec}.st30{fill:#fff}.st31{fill:#c7ccff}.st32{fill:#141268}.st33{fill:#7270ac}.st34{fill:#100a59}.st35{fill:#2c2679}.st36{fill:#727cda}.st37{fill:#00b2b2}
    </style>
    <path class="st0" d="M540.3 391.2c-46.2-3-92.9-2.4-139.5-1.8-96.5 1.2-192.9 2.5-289.4 3.7-4.8.1-11.3 1-10.9 3.4.4 2.1 6 2.7 10.2 2.8 146.2 1.7 292.6 1.1 438.7-1.9l-9.1-6.2"/>
    <path class="st1" d="M535.2 404.8c-5 0-3.1-3.8-2.6-8.9l9.4-165.4c.2-2.7.3-5.4.3-8L541.2 48c0-.5 0-.9.1-1.4.7-5.9 6.1-10.1 12-9.3 6.9.9 12.1 6.7 12.2 13.7l.6 178.9c0 2.6-.1 5.1-.3 7.7L553 390.3c0 .1-.3 3.3-.6 6.7-.4 4.4-4.1 7.9-8.5 7.9h-8.7M171.2 400.4h4.5c4.1 0 7.4-3.3 7.4-7.4l-.6-132c0-9.8.4-19.6.9-29.3.2-4.7.1-9.4-.4-14.1L164.9 47.7c-.7-7-6.5-12.3-13.5-12.4-5.9-.1-10.9 4.6-11 10.5 0 .5 0 .9.1 1.4l18.1 165.7c.5 4.7-.2 13.5-.4 18.1-.5 9.7 0 15.3 0 25.1l1 136.8c0 3.9 3.1 7.2 7.1 7.3l4.9.2"/>
    <path class="st2" d="M224.7 180.7h-.3L153 166.4c-1-.2-1.6-1.1-1.4-2.1.2-1 1.1-1.6 2.1-1.4l71.3 14.2c1 .2 1.6 1.1 1.4 2.1-.2.9-.9 1.5-1.7 1.5"/>
    <path class="st3" d="M164.6 399.9c.6.2 1.2.3 1.8.3l2.7.1-2.7-.1c-.7 0-1.3-.1-1.8-.3"/>
    <path class="st4" d="M159.3 393.7c.4 2.9 2.5 5.4 5.3 6.2-2.8-.8-4.9-3.3-5.3-6.2"/>
    <path class="st5" d="M153.5 166.5l5.1 46.3c.1 1.2.2 2.7.2 4.2 0 4.6-.4 10.4-.6 13.9-.2 3.3-.2 6.1-.2 8.8 0 5.2.2 9.9.3 16.3l1 136.8c0 .3 0 .6.1.8.4 2.9 2.5 5.4 5.3 6.2.6.2 1.2.3 1.8.3l2.7.1.3-27.9c.6-57.3.5-114.7-4.3-171.8-.9-10.8-2.1-21.7-3.3-32.5l-8.4-1.5m2.6-94.7c-2.6 4.6-6.8 8.2-11.8 10l8.9 81.1h.5l7.6 1.5c-.3-2.5-.6-5-.8-7.5-1.5-13.9-3.6-27.8-4-41.8-.4-13.9 1.6-27.8-.2-41.7-.1-.5-.1-1-.2-1.6"/>
    <path class="st6" d="M153.3 162.9h-.2l.4 3.6 8.2 1.6c-.1-1.2-.3-2.5-.4-3.7l-7.6-1.5h-.4"/>
    <path class="st7" d="M124.2 61c2.4-18.8 12.9-36.5 28.3-47.7 15.4-11.2 35.4-15.7 54.1-12.2 28.3 5.3 50.9 27.8 63.7 53.6 12.8 25.7 17.4 54.7 21.7 83.1-26-1.3-42.8-5.4-57.6-18.1-14.8-12.7-20.7-24.3-27.1-42.8-5.5-15.8-8.5-39.3-25-42.4-8.8-1.6-6.1 15.3-15 18.6-3.4 1.3-9.1-.9-14.6-3-7-2.7-13.8-5.5-15.7-1.2L124.2 61"/>
    <path class="st8" d="M183.5 62.4C179.2 40.6 171.8 31 153 19.1 134.3 7.3 110.6 3.6 89.2 9 56.6 17.4 32 45.3 19.1 76.2c-13 31-16.1 65-19.1 98.4 30.2-3.4 49.4-9.5 65.7-25.5 16.3-16 22.2-29.9 28.3-51.9 5.2-18.9 9.8-40.1 25.9-51.3 17.2-11.9 44.2-5.2 53.8 13.4l9.8 3.1M526.5 62.4c4.3-21.8 11.7-31.4 30.5-43.3C575.7 7.3 599.4 3.6 620.8 9c32.5 8.3 57.1 36.2 70.1 67.2 13 31 16.1 65 19.1 98.4-30.2-3.4-49.4-9.5-65.7-25.5-16.3-16-22.2-29.9-28.3-51.9-5.2-18.9-9.8-40.1-25.9-51.3-17.2-11.9-44.2-5.2-53.8 13.4l-9.8 3.1"/>
    <path class="st9" d="M539.1 41.3c-9.2 0-16.7 7.5-16.7 16.7s7.5 16.7 16.7 16.7 16.7-7.5 16.7-16.7-7.5-16.7-16.7-16.7"/>
    <path class="st3" d="M522.5 58"/>
    <path class="st10" d="M542.9 43.3c-5.3 0-10.6 1.3-15.2 4-1 .6-1.9 1.2-2.8 1.9-1.5 2.5-2.4 5.5-2.4 8.7 0 2.9.8 5.6 2.2 8l2.4-2.1c3.2-2.8 5.6-6.3 9.8-7.5.4-.1.7-.2 1.1-.2 2.3 0 4.6 1.9 4.5 4.4-.3 4.5.1 9.2-.7 13.6 2.7-.4 5.1-1.5 7.2-3-3.3-3.9-5.2-8.9-5.2-14.3 0-4.9 1.6-9.5 4.3-13.1-.1-.1-.2-.1-.4-.2-1.6 0-3.2-.2-4.8-.2"/>
    <path class="st7" d="M582.8 60.9c-2.4-18.8-9.9-23.5-25.3-34.7-15.3-11.2-35.3-15.7-54-12.2-28.3 5.3-50.9 27.8-63.7 53.6-12.8 25.7-17.4 54.7-21.7 83.1 26-1.3 42.8-5.4 57.6-18.1 14.8-12.7 20.7-24.3 27.1-42.8 5.5-15.8 10.6-33.8 25-42.4 15.3-9.2 38-2 45.2 14.4l9.8-.9"/>
    <path class="st9" d="M566 34.8c-12.3 0-22.2 9.9-22.2 22.2 0 12.3 9.9 22.2 22.2 22.2 12.3 0 22.2-9.9 22.2-22.2 0-12.2-9.9-22.2-22.2-22.2"/>
    <path class="st3" d="M582.5 42.2c3.5 3.9 5.7 9.1 5.7 14.9 0 3.7-.9 7.1-2.4 10.1 1.6-3 2.4-6.5 2.4-10.1 0-5.8-2.1-11-5.7-14.9"/>
    <path class="st11" d="M569.4 35.1c5.2.8 9.8 3.4 13.2 7.1-3.4-3.7-8-6.3-13.2-7.1"/>
    <path class="st12" d="M565.4000000000001 34.8c-.1 0-.1 0 0 0-.1 0-.1 0 0 0m.6 0c-.1 0-.1 0 0 0-.1 0-.1 0 0 0m0 0c1.1 0 2.3.1 3.4.3-1.1-.2-2.3-.3-3.4-.3"/>
    <path class="st10" d="M566 34.8c-.1 0-.1 0 0 0h-.1-.1-.1-.1-.1-.1-.1-.1-.1-.1-.1-.1-.1c-9.8.4-17.9 7.2-20.4 16.3 2.6-.4 5.2-.6 7.8-.6 5.6 0 11 1.4 15 6.5 4.6 5.8 5.9 13.4 6.2 20.9 5.3-1.9 9.6-5.8 12.2-10.7 1.6-3 2.4-6.5 2.4-10.1 0-5.7-2.2-10.9-5.7-14.9-3.4-3.7-8-6.3-13.2-7.1-.7-.2-1.9-.3-3-.3"/>
    <path class="st9" d="M171.2 42.4c9.2 0 16.7 7.5 16.7 16.7s-7.5 16.7-16.7 16.7-16.7-7.5-16.7-16.7c0-9.3 7.5-16.7 16.7-16.7"/>
    <path class="st3" d="M177.7 43.7c6 2.5 10.2 8.5 10.2 15.4-.1-7-4.3-12.9-10.2-15.4"/>
    <path class="st12" d="M160.8 46c-1.7 1.4-3.1 3-4.2 5 1.1-2 2.5-3.7 4.2-5"/>
    <path class="st11" d="M171.2 42.4c-3.9 0-7.5 1.3-10.3 3.6 2.8-2.3 6.4-3.6 10.3-3.6 2.3 0 4.5.5 6.5 1.3-2-.9-4.2-1.3-6.5-1.3"/>
    <path class="st3" d="M187.8 59.1s0 .1 0 0c0 .1 0 .1 0 0m0-.1c0 .1 0 0 0 0"/>
    <path class="st10" d="M171.2 42.4c-3.9 0-7.5 1.3-10.3 3.6-1.7 1.4-3.1 3-4.2 5 1.5 3 2.3 6.4 2.3 10 0 2.7-.5 5.3-1.4 7.8 2.5 3.6 6.4 6.1 10.9 6.8-.8-4.5-.4-9.1-.7-13.6-.1-2.5 2.2-4.4 4.5-4.4.4 0 .7 0 1.1.2 4.2 1.2 6.7 4.7 9.8 7.5l2.4 2.1c1.3-2.4 2.1-5.1 2.2-8 0-6.9-4.2-12.8-10.2-15.4-1.9-1.2-4.1-1.6-6.4-1.6"/>
    <path class="st9" d="M136.7 38.7c12.3 0 22.2 9.9 22.2 22.2 0 12.3-9.9 22.2-22.2 22.2s-22.2-9.9-22.2-22.2c0-12.3 10-22.2 22.2-22.2"/>
    <path class="st11" d="M137.00000000000003 38.7s.1 0 0 0c.1 0 0 0 0 0m-.2 0"/>
    <path class="st3" d="M114.5 61.09999999999999s0 .1 0 0c0 .1 0 0 0 0m0-.2"/>
    <path class="st10" d="M136.7 38.7h-.6c-12 .3-21.6 10.1-21.6 22.2V61.9c.5 9.1 6.4 16.7 14.6 19.7.3-7.5 1.6-15.1 6.2-20.9 4.1-5.1 9.4-6.5 15-6.5 2.6 0 5.2.3 7.8.6-2.5-9.2-10.7-16-20.6-16.3h-.1-.1-.1-.1-.1-.1-.1-.1-.1c.2.2.2.2.1.2.1 0 .1 0 0 0 .1 0 .1 0 0 0"/>
    <path class="st13" d="M492.8 202.7c-1.5-3.4-4.7-5.8-8.4-5.8-2.6 0-3.7 1.4-5.5 3.4-1 1.1-1.7 2.5-2 4-.9 3.8-2.6 7.8-4.1 11.8-1.8 3.8-4.7 7.1-8.3 9.3-1.4.9-3 1.6-4 2.9-1.8 2.4-1.1 5.8-.4 8.7.6 2.2 1.3 4.7 3.3 5.9 2.1 1.3 4.8.7 7.1.1.4-.1.7-.2 1.1-.3l.2.5c2.9 2.4 7.6 1.5 10.3-1.1 2.8-2.6 4.1-6.3 5.4-9.9 1.3-3.7 2.6-7.3 3.8-11 2.1-5.9 4.2-12.2 1.5-18.5z"/>
    <path class="st14" d="M465 243.9L389.9 275l-12.8-30.8 84.2-19.4 3.7 19.1"/>
    <path class="st15" d="M357.4 266.4c2.8-5.9 4.3-8.2-.2-12.6-2.4-2.4-8.1-1.2-11.3-2.4-.7-.3 1.1-3.3-1-3.9-5.3-1.6-15.7-8.2-20.6-10.6-10-4.8-17.8-11.8-26.4-18.7-7.7-6.1-11.3-11.5-21.4-12.6-2.2.2-4.5.6-6.6 1.4l-4.4 14.6c0 11.5 6 22.3 14.2 29.7 8.3 7.4 18.5 11.6 28.9 14.6 10.5 3 21.3 4.8 32.1 5.3 4.6.2 9.3.2 13.7-1.2 1-1.3 2-2.4 3-3.6"/>
    <path class="st16" d="M349.6 244.9l35.5-31.9c6.9-7.7 18.4-9.2 27.1-3.7l48.3 33.7-26.4 16.3-31.3-19.7-22.4 41.8-43.2 4.9 7.8-33.6c.8-3.1 2.4-5.8 4.6-7.8"/>
    <path class="st2" d="M512.9 180.9c-.8 0-1.5-.6-1.6-1.4-.1-.9.4-1.7 1.3-1.9l54.5-9.1c.9-.1 1.7.4 1.9 1.3.1.9-.4 1.7-1.3 1.9l-54.5 9.1c-.1.1-.2.1-.3.1"/>
    <path class="st17" d="M275.6 176.4c-7.7-12.6-24.3-16.4-36.8-8.4-11.8 7.5-15.7 23.1-8.8 35.3 5.9 10.5 17.8 15.3 28.8 12.9l5.9 9.5 13.6-8.3-3.4-5.5c-1.3-2.1 1.7-6.8 3.1-8.8 4.4-6.6 4.8-15-2.4-26.7"/>
    <path class="st18" d="M255.9 211.4c-2.6-11.6-1.9-19.7 2.6-24.6 4.6-5 7.9-11.1 8.4-18.5 0-.3-.2-.7-.7-1.4-6.1-5.6-17.1-5.2-26-.8-13 6.4-18.3 22.4-12.2 34.6 5.5 11 13.6 21.2 25.6 17.4l3.1-1.3-.8-5.4"/>
    <path class="st19" d="M229.7 178.7c23.9 53.3 77.9 90.5 140.5 90.5 62.7 0 116.6-37.2 140.5-90.5 3-6.7 13.1-4.6 13.2 2.7v1.4c.6 84.2-68.4 153.2-153.4 153.4-85 .2-154-68.1-154-152.3v-2.5c.1-7.3 10.2-9.4 13.2-2.7"/>
    <path class="st17" d="M252.3 331c.2 9 6.2 19 15.6 18.8 15.4.8 20.1-7.4 20.9-17.9.3-4.1-.5-7.8-2.4-10.9-1.3-2-4.3-4.7-4.1-7.1l-3-28.6c-.6-5.3-.4-10.6.4-15.8l4.2-26.9-29.7-3.1-1.4 22.1c-.6 9.1 0 18.2 1.6 27.2l4.2 22.8c.5 2.5-.2 5.1-1.8 7-2.9 3.2-4.6 7.6-4.5 12.4"/>
    <path class="st15" d="M253.5 225.8l-1.6 27.3 31 3.9 9-24-38.4-7.2"/>
    <path class="st15" d="M276.6 205.5s-22 .7-23.2 21.1l11.6 8.3 27.8-13.6-16.2-15.8"/>
    <path class="st20" d="M278 203.1c-.4.6-1 1.5-1.5 2.4.5-1 1.1-1.8 1.5-2.4m3.2-10.3c0 3.3-.8 6.2-2.3 8.8 1.5-2.7 2.3-5.6 2.3-8.8"/>
    <path class="st21" d="M266.5 167.5c.2.4.3.7.3.9-.2 2.3-.6 4.5-1.2 6.6.1 6.8.4 13.7 1.6 20.4.7 3.9 1.8 7.6 3.1 11.2 3.1-.9 5.5-1 6.1-1.1.5-.9 1.1-1.8 1.5-2.4.3-.5.7-1 .9-1.5 1.4-2.6 2.3-5.5 2.3-8.8 0-4.6-1.7-10-5.5-16.3-2.3-3.9-5.5-6.9-9.1-9"/>
    <path class="st22" d="M265.6 166.5v8.4c.7-2.1 1.1-4.3 1.2-6.6 0-.2-.1-.5-.3-.9-.1-.2-.2-.3-.4-.5-.1-.1-.3-.2-.5-.4"/>
    <path class="st20" d="M345 247.5c.8.3 1 1 .9 1.7.1-.7 0-1.4-.9-1.7m4.5-2.5s-.1 0 0 0c-.1 0 0 0 0 0m0-.1c0 .1 0 .1 0 0 0 .1 0 .1 0 0m-53.8-28.6c.7.6 1.5 1.3 2.3 1.9 3.2 2.5 6.2 5.1 9.3 7.6-3.1-2.5-6.2-5-9.3-7.6-.9-.6-1.6-1.3-2.3-1.9m113-8.8c1.2.5 2.4 1.1 3.5 1.8l29 20.2 11.3-2.6-11.3 2.6-29-20.2c-1.1-.7-2.3-1.3-3.5-1.8m-10-1.4c-5 .5-9.9 2.8-13.5 6.8 3.6-3.9 8.4-6.3 13.5-6.8m2.2-.1c.6 0 1.2 0 1.8.1-.6-.1-1.2-.1-1.8-.1"/>
    <path class="st23" d="M452.5 226.9l-11.3 2.6 5 3.5c1 .6 2.1 1.2 3.1 1.8 1.7-2.2 2.6-5 3.2-7.9"/>
    <path class="st24" d="M276.7 205.6l16.1 15.6-10.6 5.2c1.7 2 3.5 4 5.4 5.8l4.2.8-.9 2.4c2.3 2.1 4.6 4 7 5.9 6.9 5.5 14.1 10.4 22.6 13 4.8 1.4 9.6 2.1 14.4 2.1 3.1 0 6.3-.3 9.3-.8l.7-2.9c.2-.8.5-1.7.8-2.5 0-.3.1-.6.1-.8 0-.7-.1-1.5-.9-1.7-.1 0-.1 0-.2-.1-5.3-1.7-15.6-8.2-20.5-10.6-6.3-3-11.7-6.9-17-11.1-3.1-2.5-6.2-5-9.3-7.6-.8-.6-1.6-1.3-2.3-1.9-6.1-5.4-10-9.8-18.9-10.8"/>
    <path class="st25" d="M400.9 206c-.7 0-1.5 0-2.2.1-5 .5-9.9 2.8-13.5 6.8l-35.5 31.9c-1.6 1.4-2.8 3.2-3.6 5.1-.3.8-.6 1.6-.8 2.5l-.7 2.9c8.9-1.6 17.5-5.3 25.2-10.6 12.9-8.8 25.6-20.4 42-21.1h1.5c7 0 14.5 1.9 21.1 4.1 4.2 1.3 8.2 3 12 5l-5-3.5-29-20.2c-1.1-.7-2.3-1.3-3.5-1.8-1.9-.8-4-1.3-6-1.4-.8.2-1.4.2-2 .2"/>
    <path class="st24" d="M287.7 232.2c1.1 1.1 2.2 2.1 3.3 3.2l.9-2.4-4.2-.8M276.6 205.5h-.1c-.6 0-3 .2-6.1 1.1 2.2 5.8 5.3 11.3 9.2 16.4.9 1.2 1.8 2.3 2.8 3.5l10.6-5.2-16.4-15.8c.1.1.1.1 0 0"/>
    <path class="st0" d="M550.8 277.3c-1.6-8.9-10.1-14.8-19-13.1h-.2c-20.1 3.9-33.6 6.4-40.6 7.7-1.2.2-2.3.4-3.4.6-8.4 1.4-14 9.3-12.6 17.7v.2c1.6 9 10.2 15 19.2 13.4l43.2-7.5c8.9-1.5 14.9-10 13.3-18.9l.1-.1"/>
    <path class="st9" d="M503.4 327.6c3.2-18.5-1.8-37.4-14.2-51.6-6.7-7.7-13.4-13.9-15.7-24.2-2.3-10-1.1-20.6 0-30.7.6-5.1-7.4-5.1-8 0-2 18.5-2.6 37.3 10.3 52.2 6.4 7.3 12.9 13.7 16.6 22.9 3.7 9.3 4.9 19.5 3.2 29.3-.7 5 7 7.1 7.8 2.1z"/>
    <path class="st26" d="M586 173.8c2.1-23.7-15.8-44.7-40-46.8-17.7-1.5-33.8 7.4-42 21.6-3 5.2-5 11.2-5.5 17.5-.5 5.9.2 11.7 2 17 2.9 8.8 8.6 16.4 16.1 21.8 6.2 4.4 13.7 7.3 21.9 8 8.3.7 16.3-.9 23.3-4.3 13.2-6.3 22.8-19.2 24.2-34.8"/>
    <path class="st27" d="M532.6 159.1c6.5.8 11.2 6.7 10.4 13.2-.8 6.5-6.7 11.1-13.3 10.3-6.5-.8-11.2-6.7-10.4-13.2.9-6.4 6.8-11.1 13.3-10.3"/>
    <path class="st28" d="M530.5 164c3.9.5 6.7 4 6.2 7.9-.5 3.9-4 6.7-8 6.2-3.9-.5-6.7-4-6.2-7.9.5-4 4.1-6.7 8-6.2"/>
    <path class="st27" d="M531.8 206.6c-10.8.9-18.8 10.5-17.8 21.2l3.9 44.3c.9 10.8 10.5 18.8 21.2 17.8 10.8-.9 18.8-10.5 17.8-21.2l-3.9-44.3c-.9-10.8-10.4-18.7-21.2-17.8M512.9 431.4h66.3c3.3 0 6-2.7 6-6s-2.7-6-6-6h-66.3c-3.3 0-6 2.7-6 6s2.7 6 6 6z"/>
    <path class="st29" d="M567.8 419.4h-34.9c-3.3 0-6-2.7-6-6s2.7-6 6-6h34.9c3.3 0 6 2.7 6 6 0 3.2-2.7 6-6 6z"/>
    <ellipse class="st30" cx="502.1" cy="166.9" rx="2.9" ry="5.8"/>
    <path class="st18" d="M502.1 172.7c-1.6 0-2.9-2.6-2.9-5.8 0-3.2 1.3-5.8 2.9-5.8"/>
    <path class="st31" d="M535 407.2c-1.4 0-2.7-.7-3.4-1.7-.9-1.3-1.9-3.1-1.9-4.6-.3-11.4-2.9-23-2.9-32.3l1.2-10.4-7.5-94.7c0-3.2 3-5.8 6.6-5.8h41.2c1.1 0 2.8 3.6 4.6 8.6 6.4 18.1 8.3 37.5 5.5 56.6l-4.6 32.3c-.1 7.1-1.5 12-1.5 20.6l-.3 28.9c0 1.3-1.3 2.4-2.8 2.4H535"/>
    <path class="st0" d="M558.5 309.7h-11.4c-13.6 0-24.6-13.5-24.6-30.1v-44c0-16.6 11-30.1 24.6-30.1h11.4c13.6 0 24.6 13.5 24.6 30.1l-.3 55.4c0 16.6.3 18.7-24.3 18.7"/>
    <path class="st32" d="M523.4 299.2h57.4c3 0 5.4 2.4 5.4 5.4 0 3-2.4 5.4-5.4 5.4h-57.4c-3 0-5.4-2.4-5.4-5.4 0-3 2.4-5.4 5.4-5.4"/>
    <path class="st3" d="M524.2 310.1c.1 2.3.4 4.7.5 6.9l-.5-6.9"/>
    <path class="st33" d="M545.8 310.1h-21.7l.5 6.9c.4 4.3.7 8 .8 9.7l.6 7.4.3 3.8.3-.2c9.1-7.1 15.7-16.7 19.2-27.6m-21.4-18.8c-.4 1-.7 2.2-1 3.9-.1.8-.1 2.2-.1 4h5.1c-1.6-2.4-3-5-4-7.9"/>
    <path class="st4" d="M535.8 212.7c-1.2 1.5-2.3 3.2-2.9 4.9-2.6 7-1.5 14.7-.9 22.1 1.2 13.4.8 26.9-.6 40.3-1 10-4.8 5.9-7 11.3 1 2.9 2.4 5.6 4 7.9h23.2c.7-.8 1.6-1.4 2.5-2 6.3-4.1 9.8-9.3 11.4-15.8.3-1.1.4-2.1.5-3.2.1-2.6-.4-5.3-1.4-7.8-1.7-4.3-4-8.5-5.2-12.6-2.8-9-5.5-27.4-6.6-36.8-3.7-6.6-8.2-5-13.9-8h-.5c-.9-.1-1.8-.2-2.6-.3"/>
    <path class="st34" d="M551.6 299.2H523.3c.1 2.9.4 6.9.7 10.9h21.8c1.4-4.2 3-8.1 5.8-10.9"/>
    <path class="st31" d="M586 173.8c2.1-23.7-15.8-44.7-40-46.8-17.7-1.5-33.8 7.4-42 21.6-3 5.2-5 11.2-5.5 17.5-.5 5.9.2 11.7 2 17 2.9 8.8 8.6 16.4 16.1 21.8 6.2 4.4 13.7 7.3 21.9 8 8.3.7 16.3-.9 23.3-4.3 13.2-6.3 22.8-19.2 24.2-34.8"/>
    <path class="st33" d="M542 165.9c.9 2 1.3 4.2 1 6.5-.7 6-5.9 10.4-11.8 10.4-.5 0-1 0-1.5-.1-3.7-.5-6.7-2.5-8.6-5.4 1.7 3.6 5.1 6.2 9.3 6.7.5.1 1 .1 1.5.1 5.9 0 11.1-4.4 11.8-10.4.4-2.8-.3-5.6-1.7-7.8"/>
    <path class="st27" d="M532.6 159.1c6.5.8 11.2 6.7 10.4 13.2-.8 6.5-6.7 11.1-13.3 10.3-6.5-.8-11.2-6.7-10.4-13.2.9-6.4 6.8-11.1 13.3-10.3"/>
    <path class="st35" d="M530.6 165.6c-3.6 0-6.6 2.6-7.1 6.2-.5 3.9 2.3 7.5 6.2 7.9.3 0 .6.1.9.1 3.6 0 6.6-2.6 7.1-6.3.5-3.9-2.3-7.5-6.2-7.9h-.9"/>
    <ellipse transform="rotate(-82.998 529.698 171.018)" class="st28" cx="529.7" cy="171" rx="7.1" ry="7.2"/>
    <path class="st32" d="M531.8 206.6c-10.8.9-18.8 10.5-17.8 21.2l3.9 44.3c.9 10.8 10.5 18.8 21.2 17.8 10.8-.9 18.8-10.5 17.8-21.2l-3.9-44.3c-.9-10.8-10.4-18.7-21.2-17.8z"/>
    <path class="st32" d="M544.3 275.3c-3-8.5-12.4-12.9-20.9-9.9l-.1.1c-19.2 7.1-32.1 11.8-38.8 14.2l-3.3 1.2c-8 2.8-12.3 11.5-9.5 19.5l.1.2c3.1 8.6 12.5 13.1 21.1 10.1l41.4-14.4c8.5-3 13-12.3 10.1-20.8l-.1-.2z"/>
    <ellipse transform="rotate(-53.094 534.961 278.096)" class="st26" cx="535" cy="278.1" rx="20.6" ry="20.7"/>
    <path class="st32" d="M512.9 431.4h66.3c3.3 0 6-2.7 6-6s-2.7-6-6-6h-66.3c-3.3 0-6 2.7-6 6s2.7 6 6 6z"/>
    <path class="st31" d="M535.7 407.1h30.2c3.3 0 6-2.7 6-6s-2.7-6-6-6h-30.2c-3.3 0-6 2.7-6 6s2.6 6 6 6z"/>
    <path class="st36" d="M567.8 419.4h-34.9c-3.3 0-6-2.7-6-6s2.7-6 6-6h34.9c3.3 0 6 2.7 6 6 0 3.2-2.7 6-6 6z"/>
    <path class="st0" d="M569.3 370.7h-38.5c-4 0-7.3-3.3-7.3-7.3v-.4c0-4 3.3-7.3 7.3-7.3h38c4.3 0 7.7 3.5 7.7 7.7v.1c0 3.9-3.2 7.2-7.2 7.2z"/>
    <ellipse class="st30" cx="502.1" cy="166.9" rx="2.9" ry="5.8"/>
    <path class="st18" d="M502.1 172.7c-1.6 0-2.9-2.6-2.9-5.8 0-3.2 1.3-5.8 2.9-5.8"/>
    <path class="st37" d="M459.3 235.3c4.4 6.1 5.7 7.6 11.5 6.9 5.9-.8 8.3-12.6 10.1-18.2 8.6-25.7 1-55.6-17.2-75.6-18.3-20-46.1-30.2-73.2-29-27.1 1.2-55.3 22.4-75.5 40.4-2.9 2.6-6 5.8-3 10.7.6 1.1 1.5 2 2.4 2.7 17.4 14.2 43.7 10.5 65.5 5.2 12.1-2.9 23.8-8.9 36.2-8.5 10.1.3 20 5.1 26.4 12.9 4.5 5.4 7.3 12.3 8 19.3 1 9.2 2.3 14.8 4.9 23.6l3.9 9.6z"/>
</svg>
