<svg id="Layer_1" xmlns="http://www.w3.org/2000/svg" viewBox="0 0 710 227">
    <style>
        .st0{fill:#fcfbf8}.st1{opacity:.15}.st2{fill:#141268}.st3{fill:#85a0ff}.st4{fill:none}.st5{fill:#4844a3}.st6{fill:#c7ccff}.st7{opacity:.45}.st8{fill:#0b0146}.st9{fill:#808bda}.st10{fill:#e1e4ff}.st11{fill:#727cda}
    </style>
    <title>
        Artboard 1
    </title>
    <path class="st0" d="M6.3 205.3h683.3v22H6.3v-22z"/>
    <g class="st1">
        <path class="st2" d="M52.7 223.2c25.8 8.7 51.2-2.7 76.3-8.4 25.1-5.8 51.4-3.7 76.8-.9 7.3.8 13.5-6.8 13.5-13.5 0-7.9-6.2-12.7-13.5-13.5-26.2-2.8-52.5-4.1-78.5.8-22.1 4.2-45.6 16.9-67.4 9.6-6.9-2.3-14.8 2.7-16.6 9.4-2 7.2 2.5 14.1 9.4 16.5z"/>
    </g>
    <path class="st3" d="M.3-9v236.3h7c38-.5 79.2-16.3 109.1-16.3 105 0 85.2 14.8 193.3 16.1 32.7.4 82.3-13.3 139.2-13.2 23.6.1 53.4 12.7 92.8 13.2h168.6V-12L.3-9z"/>
    <path class="st4" d="M525.4 226.2v-24.4 24.4z"/>
    <path class="st5" d="M205.8 151.7c-2.5-3.9-8.5-6.7-15.5-6.7-6.8 0-12.6 2.6-15.2 6.2 10.1-2.3 20.7-2.2 30.7.5z"/>
    <path class="st6" d="M193.3 211.5c-1.7-1.4-3.3-2.6-5.1-3.9-.6-.3-.8-1.1-.5-1.7.3-.6 1.1-.8 1.7-.5.1.1.2.1.3.2 2.1 1.6 3.9 2.9 5.9 4.6.7.6.9 1.6.3 2.3l-.3.3c-.9.8-1.9 1.7-2.8 2.5 16.1 2.3 28.3 5.1 45.9 7.5v-15c0-4.4.7-8.7 2-12.9.7-4 2.3-7.8 4.6-11.1-.6-1.1-1.1-2.1-1.8-3.2-6.8-11.6-17.1-20.7-29.5-26-16.2-6.9-34.6-6.6-50.6.7-21.8 10.1-36 31.7-36.6 55.7 29 .3 47.6 1.8 62.6 3.8 1.3-1 2.7-2.1 3.9-3.3zm-5.3-34.2c.4-.6 1.2-.7 1.8-.2l.8.6c1.8 1.3 3.3 2.5 5.1 4 .7.6.9 1.6.3 2.3l-.3.3c-1.8 1.6-3.7 3.2-5.6 4.7-.6.4-1.3.3-1.8-.2-.4-.6-.3-1.3.2-1.8 1.6-1.3 3.2-2.6 4.8-4-1.4-1.2-2.7-2.2-4.3-3.3l-.8-.6c-.5-.5-.6-1.2-.2-1.8z"/>
    <path class="st2" d="M189.1 179.7c1.6 1.2 2.8 2.1 4.3 3.3-1.6 1.4-3.2 2.7-4.8 4-.6.4-.7 1.2-.2 1.8.4.6 1.2.7 1.8.2 1.9-1.5 3.8-3 5.6-4.7.7-.6.9-1.6.3-2.3l-.3-.3c-1.8-1.5-3.3-2.7-5.1-4l-.8-.6c-.6-.4-1.4-.2-1.7.4-.3.5-.2 1.2.2 1.6l.7.6zm7.2 31.5c-.1-.4-.3-.7-.6-1-2-1.8-3.8-3.1-5.9-4.6-.5-.5-1.3-.5-1.8 0s-.5 1.3 0 1.8c.1.1.2.2.3.2 1.8 1.3 3.4 2.5 5.1 3.9-1.3 1.1-2.6 2.2-4 3.3l3.4.5c1-.8 1.9-1.6 2.8-2.5.5-.4.8-1 .7-1.6z"/>
    <g class="st7">
        <path class="st8" d="M431.4 190h-.1.1z"/>
    </g>
    <path class="st6" d="M473.5 216.9c15 3 32.2 7.4 52 9.2v-24.3c0-.8-.2-1.5-.4-2.2-.8-3.1-3.6-5.3-6.8-5.3h-1.8c-15.4-.4-31-3.7-43.8-4 .6 1.2.9 2.5.9 3.8l-.1 22.8zm-42.1-16.1v.3c.2 4.7-1 9.4-3.4 13.4 7-.4 14.1-.6 21.3-.6 1 0 1.9 0 2.9.1v-19.9c0-.8.1-1.6.3-2.4l-21.2-1.7-3.8-.3c2.3 3.3 3.7 7.1 3.9 11.1z"/>
    <path class="st9" d="M270.5 172l53.2 4.7c9.7-3.1 20.3-.8 28 5.9l26.1-1c-8.1-10.5-20.6-16.6-33.9-16.6h-62.5c-11.6 0-22.7 4.7-30.8 13.1 5.7-4.6 12.8-6.7 19.9-6.1zm-30.2 25.3c.1-.9.2-1.7.3-2.5-1.3 4.2-2 8.5-2 12.9v15c5.1.7 10.6 1.3 16.8 1.9-10.1-5.2-16.1-16-15.1-27.3z"/>
    <path class="st2" d="M240.3 197.3c-1 11.3 5 22.1 15.1 27.3 14 1.3 31.4 2.2 54.8 2.4h3.2c-12.3-10.6-13.7-29.2-3.1-41.5 3.6-4.1 8.2-7.2 13.4-8.8l-53.2-4.7c-14.3-1.3-27.3 8.6-29.8 22.8-.2.8-.3 1.7-.4 2.5zm121.2 12c-.8 4.9-2.8 9.5-5.8 13.4 21.4-3.1 45.9-6.9 72.3-8.3 2.5-4 3.6-8.7 3.4-13.4v-.3c-.7-12-11.1-21.2-23.1-20.5-1.6.1-3.3.2-5 .3-5.6.3-14 .6-25.5 1l-26.1 1c7.7 6.7 11.4 16.8 9.8 26.8z"/>
    <path class="st10" d="M351.8 182.5c-12.3-10.6-30.8-9.2-41.4 3.1s-9.2 30.8 3.1 41.4c12.1-.2 26.3-2 42.3-4.3 9.4-12.3 7.7-29.9-4-40.2z"/>
    <path class="st2" d="M559.8 227v-58c0-3.9-3.1-7-7-7h-3c-3.9 0-7 3.1-7 7v58h17z"/>
    <path class="st11" d="M542 227h.7v-29.7c0-3.9-3.2-7.1-7.1-7.1h-3c-3.9 0-7.1 3.2-7.1 7.1v28.8c5.3.6 10.8.9 16.5.9z"/>
    <path class="st9" d="M452.2 214c7.2.4 14.3 1.4 21.3 2.9v-22.8c0-4.8-3.9-8.6-8.6-8.6h-4.1c-4.8 0-8.6 3.9-8.6 8.6V214z"/>
    <path class="st0" d="M403.8 127.8c.8 1.5 2.6 2 4.1 1.2s2-2.6 1.2-4.1l-.6-1.2c-.8-1.5-2.6-2-4.1-1.2s-2 2.6-1.2 4.1l.6 1.2zm67.3 15.7c.8 1.5 2.6 2 4.1 1.2s2-2.6 1.2-4.1l-.6-1.2c-.8-1.5-2.6-2-4.1-1.2s-2 2.6-1.2 4.1l.6 1.2zM370 27.9c.8 1.5 2.6 2 4.1 1.2s2-2.6 1.2-4.1l-.6-1.2c-.8-1.5-2.6-2-4.1-1.2s-2 2.6-1.2 4.1l.6 1.2zM229.3 131.4c.8 1.5 2.6 2 4.1 1.2s2-2.6 1.2-4.1l-.6-1.2c-.8-1.5-2.6-2-4.1-1.2s-2 2.6-1.2 4.1l.6 1.2zm-78.8-21c.8 1.5 2.6 2 4.1 1.2s2-2.6 1.2-4.1l-.6-1.2c-.8-1.5-2.6-2-4.1-1.2s-2 2.6-1.2 4.1l.6 1.2zm69.9-75.3c.8 1.5 2.6 2 4.1 1.2s2-2.6 1.2-4.1l-.6-1.2c-.8-1.5-2.6-2-4.1-1.2s-2 2.6-1.2 4.1l.6 1.2zm-66.5-3.6c.8 1.5 2.6 2 4.1 1.2 1.5-.8 2-2.6 1.2-4.1l-.6-1.2c-.8-1.5-2.6-2-4.1-1.2s-2 2.6-1.2 4.1l.6 1.2zm47.6 46c.8 1.5 2.6 2 4.1 1.2s2-2.6 1.2-4.1l-.6-1.2c-.8-1.5-2.6-2-4.1-1.2s-2 2.6-1.2 4.1l.6 1.2zM27.2 127.8c.8 1.5 2.6 2 4.1 1.2 1.5-.8 2-2.6 1.2-4.1l-.6-1.2c-.8-1.5-2.6-2-4.1-1.2s-2 2.6-1.2 4.1l.6 1.2zM443.7 84c-1.5.8-2 2.6-1.2 4.1l.6 1.2c.8 1.5 2.6 2 4.1 1.2s2-2.6 1.2-4.1l-.6-1.2c-.8-1.4-2.7-2-4.1-1.2zm58.4-48.9c.8 1.5 2.6 2 4.1 1.2s2-2.6 1.2-4.1l-.6-1.2c-.8-1.5-2.6-2-4.1-1.2s-2 2.6-1.2 4.1l.6 1.2zm-184.7 89.1c.8 1.5 2.6 2 4.1 1.2s2-2.6 1.2-4.1l-.6-1.2c-.8-1.5-2.6-2-4.1-1.2s-2 2.6-1.2 4.1l.6 1.2zm122.3-89.1c.8 1.5 2.6 2 4.1 1.2s2-2.6 1.2-4.1l-.6-1.2c-.8-1.5-2.6-2-4.1-1.2s-2 2.6-1.2 4.1l.6 1.2zM511 85.6c.8 1.5 2.6 2 4.1 1.3 1.5-.8 2-2.6 1.3-4.1l-.6-1.2c-.8-1.5-2.6-2-4.1-1.2-1.5.8-2 2.6-1.2 4.1l.5 1.1zm63.4-54.1c.8 1.5 2.6 2 4.1 1.2 1.5-.8 2-2.6 1.2-4.1l-.6-1.2c-.8-1.5-2.6-2-4.1-1.2s-2 2.6-1.2 4.1l.6 1.2zm-13.6 92.7c.8 1.5 2.6 2 4.1 1.2s2-2.6 1.2-4.1l-.6-1.2c-.8-1.5-2.6-2-4.1-1.2s-2 2.6-1.2 4.1l.6 1.2zm72.1-62.5c.8 1.5 2.6 2 4.1 1.2s2-2.6 1.2-4.1l-.6-1.2c-.8-1.5-2.6-2-4.1-1.2s-2 2.6-1.2 4.1l.6 1.2zm-13.7 62.5c.8 1.5 2.6 2 4.1 1.2s2-2.6 1.2-4.1l-.6-1.2c-.8-1.5-2.6-2-4.1-1.2s-2 2.6-1.2 4.1l.6 1.2zm22.6 47.7c.8 1.5 2.6 2 4.1 1.2s2-2.6 1.2-4.1l-.6-1.2c-.8-1.5-2.6-2-4.1-1.2s-2 2.6-1.2 4.1l.6 1.2zM320 49.4c.8 1.5 2.6 2 4.1 1.2s2-2.6 1.2-4.1l-.6-1.2c-.8-1.5-2.6-2-4.1-1.2s-2 2.6-1.2 4.1l.6 1.2zm-53.2 24.5c.8 1.5 2.6 2 4.1 1.2s2-2.6 1.2-4.1l-.6-1.2c-.8-1.5-2.6-2-4.1-1.2s-2 2.6-1.2 4.1l.6 1.2zm89.5 18.9c.8 1.5 2.6 2 4.1 1.2s2-2.6 1.2-4.1l-.6-1.2c-.8-1.5-2.6-2-4.1-1.2s-2 2.6-1.2 4.1l.6 1.2zM89.1 66.9c.8 1.5 2.6 2 4.1 1.2s2-2.6 1.2-4.1l-.6-1.2c-.8-1.5-2.6-2-4.1-1.2s-2 2.6-1.2 4.1l.6 1.2zm-6.6 97c.8 1.5 2.6 2 4.1 1.2s2-2.6 1.2-4.1l-.6-1.2c-.8-1.5-2.6-2-4.1-1.2s-2 2.6-1.2 4.1l.6 1.2zM43.8 42.2c.8 1.5 2.6 2 4.1 1.2s2-2.6 1.2-4.1l-.6-1.2c-.8-1.5-2.6-2-4.1-1.2s-2 2.6-1.2 4.1l.6 1.2z"/>
</svg>
